<svg width="241" height="242" fill="none" xmlns="http://www.w3.org/2000/svg"><path d="M91.206 143.183l-6.223-1.434a41.991 41.991 0 00-1.234-7.279l5.17-4.759c.348-.319.433-.957.188-1.412l-7.177-13.425c-.243-.46-.727-.571-1.073-.248l-5.17 4.762a25.412 25.412 0 00-4.793-4.003l1.093-8.172c.073-.544-.21-1.072-.628-1.169l-12.31-2.836c-.418-.096-.82.276-.892.817l-1.093 8.173c-1.91.27-3.768.814-5.549 1.621l-3.625-6.788c-.24-.46-.723-.572-1.072-.248l-10.23 9.417c-.35.319-.436.956-.189 1.412l3.627 6.786a35.855 35.855 0 00-3.047 6.294l-6.225-1.434c-.416-.096-.82.271-.893.822l-2.16 16.16c-.073.546.21 1.08.626 1.176l6.226 1.435a41.89 41.89 0 001.233 7.276l-5.17 4.757c-.352.326-.436.954-.19 1.414l7.178 13.427c.244.456.728.567 1.071.248l5.17-4.756a25.985 25.985 0 004.796 3.997l-1.09 8.165c-.074.546.208 1.073.626 1.169l12.31 2.836c.418.096.82-.273.892-.82l1.09-8.164a20.579 20.579 0 005.546-1.617l3.627 6.781c.243.452.727.564 1.074.248l10.23-9.417c.349-.319.433-.952.189-1.412l-3.626-6.788a35.746 35.746 0 003.047-6.29l6.224 1.434c.416.096.819-.28.892-.827l2.16-16.16c.072-.551-.21-1.072-.626-1.169zM57.534 162c-7.027-1.62-11.726-10.409-10.492-19.636 1.233-9.225 7.929-15.393 14.958-13.774 7.027 1.619 11.725 10.409 10.492 19.636-1.234 9.225-7.93 15.393-14.958 13.774z" fill="#F4E8D8"/><path d="M175.924 60.695l-10.456 2.072c-1.341-3.833-2.985-7.413-4.909-10.69l6.272-11.165c.424-.748.301-1.819-.274-2.373l-16.831-16.288c-.573-.562-1.384-.4-1.802.356l-6.274 11.166a33.99 33.99 0 00-9.228-3.004l-1.58-13.733c-.104-.91-.767-1.553-1.469-1.414l-20.684 4.104c-.701.139-1.189 1.009-1.083 1.92l1.581 13.733c-2.92 1.764-5.648 3.927-8.147 6.45l-8.506-8.236c-.566-.562-1.378-.4-1.8.357L78.32 56.037c-.426.752-.303 1.822.273 2.373l8.507 8.233a69.992 69.992 0 00-2.282 12.117L74.36 80.835c-.702.139-1.191.999-1.085 1.928l3.124 27.15c.106.916.769 1.569 1.47 1.429l10.458-2.074c1.336 3.828 2.984 7.405 4.905 10.684l-6.275 11.16c-.424.762-.303 1.817.273 2.379l16.832 16.288c.572.549 1.386.39 1.8-.356l6.273-11.158a34.905 34.905 0 009.234 2.993l1.579 13.721c.106.916.767 1.558 1.466 1.419l20.682-4.101c.702-.139 1.192-1.007 1.085-1.926l-1.578-13.72c2.918-1.764 5.645-3.929 8.143-6.439l8.503 8.228c.569.551 1.382.389 1.802-.357l12.416-22.09c.424-.749.303-1.814-.273-2.374l-8.504-8.238a70.016 70.016 0 002.286-12.109l10.456-2.072c.699-.139 1.185-1.017 1.079-1.933l-3.124-27.15c-.104-.928-.765-1.561-1.463-1.422zm-45.471 56.246c-13.014 2.581-25.156-9.176-27.122-26.257-1.966-17.083 6.991-33.022 20.002-35.603 13.013-2.58 25.156 9.176 27.121 26.257 1.966 17.083-6.988 33.023-20.001 35.603zm-85.892 13.068c.372 0 .372-.759 0-.759s-.372.759 0 .759z" fill="#F4E8D8"/><path d="M91.258 126.75l5.786.031 8.661-7.011 17.78-16.898-18.105-.19-14.122 24.068z" fill="#702022"/><path d="M103.732 100.22l-14.353 22.96 1.891 3.601 14.542-23.317-2.08-3.244z" fill="#972D29"/><path d="M103.732 100.22l17.862-.316 1.891 2.967-17.673.593-2.08-3.244z" fill="#C83F37"/><path d="M116.309 118.219l-.643 10.93-1.187 20.6 15.742-1.9 3.752-23.753-17.664-5.877z" fill="#CE6D3E"/><path d="M105.561 107.547l-9.72 14.872 2.819 26.265 16.453.364 2.174-24.066-11.726-17.435z" fill="#F2864F"/><path d="M105.561 107.547l-9.72 14.872 2.819 26.265 9.571.238.819-34.301-3.489-7.074z" fill="#CE6D3E"/><path opacity=".5" d="M112.879 120.822l-7.318-13.275-2.727 4.172 1.405 37.068 7.318.461 1.322-28.426z" fill="#C16840"/><path d="M114.928 146.406c.015-.346-.123-.638-.309-.652-.186-.015-.349.254-.365.6-.015.346.123.638.309.653.186.014.349-.255.365-.601zm.431-7.757c.015-.346-.123-.639-.309-.653-.186-.014-.349.255-.365.6-.015.346.123.639.309.653.186.014.349-.254.365-.6zm.649-9.478c.016-.346-.122-.638-.308-.653-.186-.014-.35.255-.365.601-.016.346.122.638.308.652.186.014.35-.254.365-.6zm15.887 3.299c.072-.263.01-.533-.138-.603-.149-.07-.327.087-.399.35-.072.263-.01.533.139.603.148.07.326-.087.398-.35zm-1.209 7.058c.071-.263.009-.533-.139-.602-.148-.07-.327.087-.398.35-.072.263-.01.533.138.602.148.07.327-.087.399-.35zm-1.208 7.817c.072-.263.01-.533-.138-.602-.149-.07-.327.087-.399.35-.072.263-.01.533.139.602.148.07.326-.087.398-.35zm-30.71-7.31c.014-.307-.108-.566-.273-.579-.165-.013-.31.226-.323.533-.014.306.109.566.273.578.165.013.31-.225.323-.532zm-.746-8.897c.014-.302-.107-.558-.27-.57-.162-.013-.305.222-.318.525-.014.303.107.558.27.571.162.012.305-.223.319-.526zm-.944-7.654c.013-.296-.105-.546-.264-.558-.16-.013-.3.217-.313.513-.013.296.105.545.265.558.159.012.299-.218.312-.513zm3.918-6.818c.015-.346-.123-.638-.309-.653-.186-.014-.349.255-.364.601-.016.346.122.638.308.652.186.015.349-.254.365-.6zm4.113-5.781c.016-.346-.122-.638-.308-.653-.186-.014-.35.255-.365.601-.016.346.122.638.308.652.186.015.35-.254.365-.6zm-5.657 36.349c.012-.268-.095-.494-.24-.505-.144-.011-.271.197-.283.465-.012.268.095.494.24.505.144.011.271-.197.283-.465zm6.75-.268c.013-.286-.102-.528-.256-.54-.154-.011-.289.211-.302.497-.013.286.102.527.256.539.154.012.289-.21.302-.496z" fill="#3E424B"/><path d="M119.586 123.76l-2.032 4.405 16.816-.618 1.854-4.303-16.638.516z" fill="#972D29"/><path d="M105.861 103.582l17.334-.457 13.029 20.119-16.639.516-13.724-20.178z" fill="#C83F37"/><path d="M103.812 106.889l13.742 21.276 2.034-4.408-13.727-20.175-2.049 3.307z" fill="#972D29"/><path d="M105.578 133.01c2.2 0 3.984-3.04 3.984-6.791 0-3.75-1.784-6.791-3.984-6.791s-3.984 3.041-3.984 6.791c0 3.751 1.784 6.791 3.984 6.791z" fill="#F6BE4A"/><path d="M106.291 132.542c1.806 0 3.27-2.831 3.27-6.323 0-3.492-1.464-6.323-3.27-6.323-1.807 0-3.271 2.831-3.271 6.323 0 3.492 1.464 6.323 3.271 6.323z" fill="#102441"/><path d="M108.494 105.295c.083-.215-.059-.53-.317-.704-.259-.173-.537-.139-.621.076-.083.215.059.531.317.704.259.174.537.14.621-.076zm11.98 17.905c.084-.216-.058-.531-.317-.704-.259-.174-.536-.14-.62.076-.084.215.058.53.317.703.259.174.536.14.62-.075zm13.87-.67c.083-.215-.059-.53-.317-.704-.259-.173-.537-.139-.621.076-.083.215.059.53.317.704.259.173.537.139.621-.076zm-10.097-20.367c.084-.215-.058-.53-.317-.703-.259-.174-.536-.14-.62.075-.084.216.058.531.317.704.259.174.536.14.62-.076z" fill="#4D525B"/><path d="M122.818 105.007l.719-3.064.434.233-1.099 2.859c-.015.043-.063.018-.054-.028z" fill="#4D525B"/><path opacity=".5" d="M135.045 121.435c-1.068 1.791-3.602 1.971-7.05.114-5.666-3.052-11.655-10.442-13.376-16.509-.612-2.158-.601-3.859-.079-5.015l7.054-.121 1.87 2.99-.268.23 11.849 18.311z" fill="#C83F37"/><path d="M100.519 145.066l-13.719.804.102 3.003 13.719-.804-.102-3.003z" fill="#F6CF4C"/><path d="M86.915 148.879c.43-.026.755-.719.727-1.55-.029-.83-.4-1.483-.83-1.458-.43.025-.754.719-.726 1.549.028.831.4 1.484.829 1.459z" fill="#F5864E"/><path d="M100.576 148.078c.43-.025.755-.719.727-1.549-.029-.831-.4-1.484-.829-1.458-.43.025-.755.719-.727 1.549.028.831.399 1.484.829 1.458z" fill="#F6CF4C"/><path d="M128.896 243.789l-3.257.747-2.889-.83-4.073-85.37h10.664l-.445 85.453z" fill="#102441"/><path d="M128.888 243.769l-3.346.767-.609-51.257 4.285-14.804-.33 65.294z" fill="#634874"/><path d="M160.908 245.431c.2-2.14-.904-4.078-2.466-4.33-1.561-.251-2.989 1.281-3.189 3.421-.199 2.14.905 4.078 2.466 4.33 1.562.251 2.99-1.281 3.189-3.421zm24.808 2.269c1.561-.251 2.665-2.19 2.466-4.33-.2-2.14-1.628-3.671-3.189-3.42-1.562.251-2.666 2.19-2.466 4.33.199 2.14 1.627 3.671 3.189 3.42z" fill="#131620"/><path d="M186.551 238.658c-2.38-.124-16.717-1.621-16.717-1.621s-10.464 1.358-12.47 1.257c-2.928-.152-2.991 3.709-2.774 4.668.218.959 2.265.86 2.782.6l1.823-.473 10.824-1.734 13.529 1.65 1.824.473c.516.261 1.713.537 2.23.276l.944-.137c.301-.151.316-2.095.324-2.517.025-1.328.304-2.302-2.319-2.442z" fill="#102441"/><path d="M158.392 150.905s6.158-5.224 9.523 5.635c3.381 10.907 1.429 10.472-5.749 14.515-4.032 2.272-10.774 6.044-16.856 8.238-4.666 1.682-15.571 8.377-18.529-.496-1.768-5.301.063-9.971 3.378-12.089 3.325-2.123 28.233-15.803 28.233-15.803z" fill="#D8A344"/><path d="M157.938 224.619c3.016 1.599 5.595 7.745 5.595 7.745s-6.628 7.79-9.714 10.373c-.642.537-2.927 1.723-5.125 2.781-2.366 1.138-7.761 1.819-8.482 1.437-.78-.413-1.623-6.723.278-10.224 1.765-3.254 6.379-3.444 6.711-4.165 3.014-6.598 9.386-8.663 10.737-7.947z" fill="#131620"/><path d="M147.34 232.22s.896-.048 1.625 2.163m-5.42-.481s.823-.346 1.709 1.842m.582-2.664s.997.395 1.351 1.811" stroke="#29ABE3" stroke-width="3" stroke-miterlimit="10" stroke-linecap="round" stroke-linejoin="round"/><path d="M140.043 246.75l.172 1.143c.055.37.258.679.497.752 1.68.511 6.901-.797 8.906-1.799 1.973-.987 3.159-1.612 4.884-3.322 2.555-2.538 9.694-9.022 9.694-9.022s.125-1.551-.674-2.126c-.286-.204-8.282 7.677-11.771 10.999-.842.802-2.382 1.568-3.347 1.859-3.836 1.157-8.361 1.516-8.361 1.516z" fill="#29ABE3"/><path d="M147.825 231.891c.162.24.403.402.669.445 1.085.177 4.261.154 6.74-1.313 3.103-1.84 6.312-4.861 6.312-4.861l-3.882-8.893s-12.373-29.189-15.787-38.08c-2.484-6.472-6.042-11.56-11.246-9.389-4.881 2.037-5.41 6.001-3.027 12.901 1.665 4.82 11.747 28.698 11.747 28.698l6.292 16.628 2.182 3.864z" fill="#D8A344"/><path d="M160.777 224.65l-3.436-7.254s-3.371-7.646-7.696-18.202c-1.23-3-2.317-2.692-2.808-.556a1.212 1.212 0 00-.075.005s-1.147 2.753-1.17 5.89c0 0 .287-1.814.969-3.345-.061 2.894.501 6.94 2.043 11.008.65 1.713 3.62 4.765 6.466 7.421-1.927-.774-4.336-1.913-5.288-3.066 0 0 4.46 5.897 8.53 6.297.139.013.258.015.368.013a127.842 127.842 0 002.097 1.789z" fill="#D8A344"/><path d="M177 183.981l9.149 8.106 1.831-1.5-10.064-8.41-.916 1.804z" fill="#102441"/><path d="M185.571 191.045l1.012-1.491c.32-.473.859-.561 1.303-.215l1.659 1.296c.605.473.784 1.538.372 2.211l-.915 1.495c-.309.504-.854.62-1.311.281l-1.754-1.3c-.644-.473-.825-1.602-.366-2.277zm-6.968-14.773h-6.405v60.188h6.405v-60.188z" fill="#102441"/><path d="M179.059 233.737c0 1.448-.736 2.591-1.582 2.437a6.416 6.416 0 00-1.854-.048c-.954.104-1.787.235-2.432.354-.775.142-1.45-.888-1.45-2.211v-37.377h7.32v36.845h-.002z" fill="#273150"/><path d="M177.383 192.087v3.203" stroke="#273150" stroke-width="3" stroke-miterlimit="10" stroke-linecap="round" stroke-linejoin="round"/><path d="M177.23 203.197v27.191" stroke="#273150" stroke-width="5" stroke-miterlimit="10"/><path d="M56.092 248.834l-3.38-3.534 8.99-36.777 3.68 2.712-9.29 37.599z" fill="#C83F37"/><path d="M61.702 208.523l19.377-.537 3.957 2.434-19.655.815-3.679-2.712z" fill="#EB5E4D"/><path d="M85.036 210.42l-8.052 35.664-20.892 2.751 9.29-37.6 19.654-.815z" fill="#972D29"/><path d="M157.001 180.864l10.751 1.452c2.609.352 4.903-1.956 4.903-4.934v-2.985c0-2.991-1.957-7.904-4.576-7.532l-11.107 4.136c-2.193.314-3.837 2.427-3.837 4.929.002 2.515 1.661 4.635 3.866 4.934z" fill="#273150"/><path d="M191.758 180.747l-22.075 1.749c-2.978.235-5.491-2.872-5.491-6.789v-2.229c0-3.8 2.372-6.861 5.265-6.798l22.076.483c2.845.064 5.119 3.125 5.094 6.859-.023 3.57-2.151 6.51-4.869 6.725z" fill="#634874"/><path d="M192.878 178.045s-10.134-1.472-12.232-5.075c-2.099-3.603 8.904-2.603 8.904-2.603 2.866.063 4.783-2.786 5.986.948 1.149 3.575-.011 6.515-2.658 6.73z" fill="#634874"/><path d="M189.523 250.623c2.236 0 4.048-2.378 4.048-5.313 0-2.934-1.812-5.313-4.048-5.313-2.235 0-4.047 2.379-4.047 5.313 0 2.935 1.812 5.313 4.047 5.313z" fill="#131620"/><path d="M165.232 246.335s-.023.24 1.486-.299c1.588-.567 2.097-.853 2.147-1.252.064-.499-.194-1.685.357-1.951l4.841-2.153c.823-.316 1.673-.767 2.515-.552 0 0 9.737 3.429 10.845 3.684 1.109.256.725 1.885 1.29 2.085.989.354 2.28.245 2.28.245l.462-5.027-17.598-5.333-8.748 6.454.123 4.099z" fill="#102441"/><path d="M179.138 236.257s-10.472 5.248-12.345 5.903c-.9.314-.971 1.336-1.029 2.09l-.044.577c-.07.908-.099 1.705-.787 1.584l-4.215-.795c-.609-.109-1.062-.792-1.062-1.596 0-1.893.96-3.555 2.348-4.064 3.733-1.368 10.417-5.432 10.417-5.432l6.717 1.733z" fill="#273150"/><path d="M172.062 236.809s14.525 4.574 16.444 4.936c.96.18 1.679 1.283 1.98 2.148.3.866-.178 2.379.511 2.255l3.386-.188c.609-.108 1.019-1.25 1.019-2.057 0-1.892-.69-3.554-2.077-4.063-3.733-1.369-15.18-5.349-15.18-5.349l-6.083 2.318z" fill="#273150"/><path d="M64.414 250.345l-4.196-4.311 10.78-45.476 4.558 3.292-11.142 46.495z" fill="#AA4928"/><path d="M70.998 200.558l23.887-.936 4.897 2.945-24.226 1.283-4.558-3.292z" fill="#F6CF4C"/><path d="M99.783 202.567l-9.633 44.084-25.735 3.694 11.141-46.495 24.227-1.283z" fill="#EE844E"/><path d="M170.664 94.482l-3.774 2.859c-1.422 1.078-3.29.329-4.171-1.673l-3.812-8.67c-.881-2.002-.441-4.499.981-5.58l4.948-6.12c1.422-1.077 2.116 2.93 2.997 4.934l3.812 8.67c.881 2.005.441 4.502-.981 5.58z" fill="#A76343"/><path d="M170.712 90.869l-2.242 1.7c-.846.64-2.201-.364-3.028-2.244l-3.58-8.142c-.827-1.88-1.87-4.693-1.026-5.333l4.269-3.203c.846-.64 1.461 3.19 2.288 5.07l3.35 7.588c.828 1.88.813 3.924-.031 4.564z" fill="#AA6345"/><path d="M162.721 95.668l-3.812-8.67c-.881-2.002-.359-4.562 1.168-5.718l4.045-3.067c1.525-1.156-.52 19.457-1.401 17.455zm-1.594 27.022s-5.514-6.252-9.272-8.555c-2.735-1.675-5.264 1.316-4.763 4.605.42 2.755 10.776 16.119 12.53 18.424 1.754 2.303 2.505 7.239 7.769 2.303 5.263-4.934-1.002-12.502-6.264-16.777z" fill="#7C4631"/><path d="M151.572 117.629s0-6.082-.696-8.212c-.696-2.128-3.706-5.4-4.865-6.31-1.158-.914-2.528 2.426-2.1 4.222.289 1.217 1.106 3.087 2.149 6.28 1.04 3.193 3.311 5.693 5.512 4.02z" fill="#7C4631"/><path d="M152.049 124.729l-4.219 3.145-7.158-17.192-2.802-7.512-2.704-5.66 3.791-2.538 2.195 5.635 3.654 7.838 7.243 16.284z" fill="#F5864E"/><path d="M150.285 127.083c1.182-.893 1.983-1.975 1.789-2.417-.194-.442-1.309-.076-2.491.816-1.182.893-1.983 1.975-1.789 2.417.194.442 1.309.077 2.491-.816z" fill="#EB5E4D"/><path d="M138.512 107.294c-1.145.129-1.39 1.708-1.004 2.824.385 1.115 1.025 1.057 2.309 1.27 1.632.27 4.292.45 4.483-.592.19-1.045-.116-1.607-2.055-2.662-.665-.362-2.588-.969-3.733-.84z" fill="#7C4631"/><path d="M140.104 110.758c-.686-.238-1.314.749-1.029 1.616.277.845.567 1.675.721 1.974.258.498 2.848.602 4.251.622.484.008.898-.544.902-1.199l.004-.496c.004-.496-.231-.913-.58-1.035l-4.269-1.482z" fill="#7C4631"/><path d="M141.046 116.503l.239.441c.191.351.476.534.752.48l2.619-.501c.49-.093.771-.875.59-1.639-.131-.549-.468-.921-.827-.916l-2.858.058c-.665.018-.968 1.243-.515 2.077z" fill="#7C4631"/><path d="M142.272 117.958l.245.848c.087.341.316.589.59.63 0 0 1.303.159 1.952.053.65-.106.933-.587.688-1.599-.244-1.015-.934-1.174-1.788-1.068-.852.106-1.623.266-1.687 1.136zm2.773-15.4c-1.603-.484-2.8.25-5.225 1.53-1.509.797.5 3.454 1.907 3.269 1.349-.177 2.642-.453 3.191-.412 1.32.088 2.296-3.735.127-4.387z" fill="#7C4631"/><path d="M134.515 87.084c1.833-1.05 6.734 1.02 8.902 2.031.357.167.552.66.453 1.144l-.181.875s-3.051-.736-4.602-.979c-1.056-.167-1.889.835-2.313 1.493l-2.259-4.564z" fill="#102441"/><path d="M127.737 93.26l2.557-2.1c.201-.165.338-.433.376-.737l.227-1.804c.039-.3.174-.569.372-.733.766-.638 2.805-2.285 4.574-3.297 2.002-1.146 7.357 1.113 9.723 2.219.39.182.604.721.494 1.247l-.197.957s-3.332-.805-5.026-1.07c-1.155-.183-2.064.913-2.527 1.629-.214.331-.507 1.052-.357 1.43l1.29 3.2c.208.519.302.908-.102 1.181l-4.134 2.773c-.353.236-.295.193-.529-.215l-1.38-2.431c-.231-.41-1.142-.618-1.495-.38l-2.365 1.587c-.382.255-.846.083-1.06-.392l-.725-1.625c-.214-.496-.09-1.13.284-1.44z" fill="#634874"/><path d="M137.633 97.422c-1.02.751-2.016 1.01-2.224.576-.208-.432.545-1.14 1.567-1.892 1.021-.751 1.921-1.257 2.127-.827.209.432-.451 1.391-1.47 2.143z" fill="#F5864E"/><path d="M124.107 96c.037 1.052.324 2.712 1.66 3.64.354.246.56.428.905.142l1.926-1.602c.439-.361.582-1.12.32-1.695l-1.313-2.871c-.262-.575-.829-.747-1.268-.385l-1.906 1.587c-.357.298-.343.627-.324 1.184z" fill="#634874"/><path d="M145.865 240.505c.811 4.727.801 9.205.763 10.862-.01.39-.228.706-.524.757-2.142.374-10.518 1.809-13.476 1.923-2.481.096-8.829-.329-10.774-1.086-.894-.347-1.326-3.646-1.561-5.698-.31-2.702.551-5.146 4.078-6.687 3.517-1.535 8.465-.599 8.465-.599s12.745-1.124 13.029.528z" fill="#131620"/><path d="M128.702 239.38s1.445-.21 2.228 2.816m.008-2.708s1.981-.422 2.571 2.806m-.251-2.753s1.989-.263 2.419 3.034" stroke="#29ABE3" stroke-width="3" stroke-miterlimit="10" stroke-linecap="round" stroke-linejoin="round"/><path d="M131.596 238.246s2.047 3.292 5.763 4.681c3.766 1.407 9.492 1.004 9.492 1.004l2.91-6.451 3.942-39.819s4.579-30.004-2.504-32.896c-4.776-1.948-9.796-2.652-11.113 4.536-.944 5.152-5.924 34.369-5.924 34.369l-.469 19.284s-2.921 10.703-2.956 11.082c-.118 1.222.859 4.21.859 4.21z" fill="#F6CF4C"/><path d="M184.592 148.863s7.821-4.961 10.065 6.875c2.243 11.835-5.946 12.344-5.946 12.344s-13.57 3.623-21.781 4.706c-6.329.835-22.469 7.565-24.708-2.262-1.341-5.888 1.923-10.399 6.651-11.932 4.728-1.533 35.719-9.731 35.719-9.731z" fill="#FEED7F"/><path d="M188.162 160.499c1.555-2.699 3.186-5.498 3.186-5.498.239-9.055-9.146-5.353-9.146-5.353s-24.719 5.607-34.803 9.442c-6.727 2.558-9.816 17.898.586 17.827 5.315-.035 28.524-5.756 28.524-5.756s11.52-6.014 13.967-11.388c.299-.658-1.135.666-2.314.726z" fill="#F6CF4C"/><path d="M166.418 87.693c1.567-1.308 6.412-2.618 8.264-1.682 1.852.936 11.691 18.614 15.324 30.396 1.937 6.283 5.302 33.339 5.302 36.145 0 2.806-13.686 5.212-13.686 5.212s-16.129-3.858-18.267-11.712c-.863-3.172.744-5.004.428-8.417-.468-5.035-2.712-11.841-3.562-17.863-1.424-10.1-3.858-18.201-1.52-23.504 1.567-3.555 6.15-7.267 7.717-8.575z" fill="#29ABE3"/><path opacity=".5" d="M166.418 87.693c.565-.47 8.336 4.395 8.336 4.395l3.704 5.8s8.101 16.05 9.353 23.868c1.567 10.697 3.919 33.427 3.919 33.427s-2.263.78-4.132 1.273c-2.119.559-5.975 1.308-5.975 1.308-2.02-.503-7.093-1.923-11.296-4.559-3.107-1.951-5.661-4.582-6.569-7.919-.863-3.173.342-4.238.024-7.651-.469-5.035-2.712-11.841-3.562-17.863-1.424-10.1-3.859-18.201-1.521-23.504 1.569-3.555 6.152-7.267 7.719-8.575z" fill="#209BC7"/><path d="M187.354 123.702l2.126 13.561s-1.869-3.649-2.106-7.014c-.239-3.362-.02-6.547-.02-6.547z" fill="#29ABE3"/><path d="M163.925 91.901s3.989-1.495 5.984-.749c1.995.749 6.127 9.164 7.694 15.525 1.567 6.36.713 9.351-2.565 10.287-3.277.936-4.703 2.431-9.546-3.742-4.844-6.171-8.12-17.205-1.567-21.321z" fill="#A96443"/><path d="M172.437 108.22c1.282.936 4.31 9.68-1.389 9.493-2.598-.086-7.544-6.591-8.122-9.351-.328-1.561-1.501-3.148-.996-3.368 1.923-.842 9.226 2.292 10.507 3.226z" fill="#7C4631"/><path d="M156.801 100.88l2.066-3.117s.997 10.412 3.348 14.622c2.351 4.21 8.55 9.444 8.55 9.444l6.838 18.893-.264 11.284c-.638 2.515-3.999 3.2-5.699 4.632l-15.816 7.277c-.166.136-2.565 14.401-2.565 14.401l-.617 10.224s-3.249-.124-11.799-1.247c-8.55-1.124-17.932-4.863-17.932-4.863l5.984-31.049 34.461-5.331s-.545-.119-.85-1.865c-.669-3.843-1.598-12.339-3.068-21.984-2.138-14.026-2.637-21.321-2.637-21.321z" fill="#273150"/><path d="M158.222 98.52c1.358-7.133 8.252-11.52 14.395-13.787m.914-.063s.43-3.241 1.569-3.054c1.139.19.984 2.844-1.569 3.054z" stroke="#F6CF4C" stroke-width="3" stroke-miterlimit="10" stroke-linecap="round" stroke-linejoin="round"/><path d="M172.987 85.065s1.25-1.8.179-2.864c-1.07-1.066-1.486.458-.179 2.864zm.324-.22s2.08 1.348 2.259 3.63m-2.487-3.545s.9 3.93-.137 5.949m3.803 49.777s8.407.063 16.529-1.622" stroke="#F6CF4C" stroke-width="3" stroke-miterlimit="10" stroke-linecap="round" stroke-linejoin="round"/><path d="M192.847 139.036s-.713 2.245.713 3.181c1.427.936.999-1.311-.713-3.181z" stroke="#F6CF4C" stroke-width="3" stroke-miterlimit="10" stroke-linecap="round" stroke-linejoin="round"/><path d="M195.983 140.096c.048-.936-1.995-2.12-2.991-1.308-.998.81 2.943 2.242 2.991 1.308zm-3.324-.748s3.134 2.12 3.039 6.36m-2.612-6.297s.807-1.622 2.517-1.495" stroke="#F6CF4C" stroke-width="3" stroke-miterlimit="10" stroke-linecap="round" stroke-linejoin="round"/><path d="M165.208 92.65s-5.699 0-6.838 5.612c-1.139 5.611-2.802 16.465-2.991 19.079-.285 3.927-4.418 10.662-5.129 17.207-.713 6.545 1.172 9.278 4.275 11.13 7.052 4.208 9.118-11.689 9.974-15.805.856-4.114 4.56-12.532 7.123-19.826 2.564-7.294-.004-18.333-6.414-17.397z" fill="#A96443"/><path d="M154.521 145.675c7.052 4.208 9.118-11.689 9.974-15.805.855-4.114 4.56-12.531 7.123-19.826 1.471-4.184-3.928 8.623-8.92 20.137-1.137 2.624-9.095 14.948-8.177 15.494z" fill="#D77D5B"/><path d="M156.659 138.169c-1.004-3.664-5.352-5.534-9.186-5.873-3.718-.331-10.725 2.675-20.657 2.912-3.095.074-4.917 8.674-.123 9.625 5.595 1.111 21.896 3.453 23.555 3.547 1.658.094 8.222-3.595 6.411-10.211z" fill="#A76241"/><path d="M160.162 137.911c-.173-.547-.622-1.253-.923-1.587-.227.395-2.636 5.485-5.092 6.902-3.561 2.057-8.671 2.743-8.671 2.743s-18.423-.357-13.58-.137c5.655.258 21.139 3.353 22.795 3.193 1.653-.159 7.852-4.817 5.471-11.114z" fill="#D77D5B"/><path d="M128.658 139.798c1.062-1.569-.636-6.464-.453-8.574.183-2.11-1.613-4.183-2.779-6.622s-1.214-2.272-2.918-3.147c-1.704-.875-3.172-1.344-2.625 1.199.547 2.543 2.193 3.292 2.193 3.292s.837 3.155 1.588 4.266c.912 1.346-2.534 7.607-1.125 10.191 1.411 2.585 4.446 1.864 6.119-.605z" fill="#A76241"/><path d="M124.164 129.999s-3.816-.331-4.549-.668c-.73-.336-1.896-1.348-2.623-1.834-.364-.243-1.625-3.565-2.401-3.886-.777-.322-1.775.971-1.858 1.72-.166 1.5.913 4.167 1.869 5.268.958 1.1 1.105 1.712 3.286 3.172 2.182 1.463 3.246 3.171 5.969 2.849 2.724-.321 2.255-5.624.307-6.621z" fill="#A76241"/><path d="M113.654 127.737c-1.272-.111-.9 4.777-.248 5.308.36.294 2.101 2.123 2.101 2.123l-.563.979c-.141.435.063 1.316.335 1.647l1.265 1.546.678 3.752s1.224 1.541 4.07 1.551c3.456.013 5.177.246 5.881-2.887.703-3.132-12.247-13.908-13.519-14.019z" fill="#A76241"/><path d="M153.684 56.197c-2.828-.884-9.057.1-10.271 7.023-.825 4.709 3.292 20.87 5.223 24.673 2.745 5.405 5.566 3.904 10.552 1.248 5.188-2.763 7.395-8.076 6.59-13.683-.806-5.607-3.267-16.504-12.094-19.261z" fill="#7A462F"/><path d="M152.892 65.439c-1.153 6.7-1.166 10.297-.112 13.814 1.052 3.517 5.254 10.166 7.623 7.818 1.162-1.151 2.575-2.431 3.305-4.949.405-1.391-.393-5.171-1.322-7.474-1.565-3.888-8.345-15.894-9.494-9.21z" fill="#A96443"/><path d="M143.325 63.703s1.609 1.971 9.81-2.735c.175-.101 1.22 8.807 4.007 11.487 1.017.979.486-4.147 1.763-2.877 2.122 2.11 3.683 5.402 3.683 5.402l1.677 7.206s8.388-2.804 5.728-14.103c-2.638-11.216-6.079-23.042-18.913-14.32-6.759 4.592-7.805 6.504-7.755 9.94z" fill="#273150"/><path d="M155.491 56.756c.405 1.953 5.495 5.457 5.495 5.457l5.909 6.206s2.195 12.398 2.914 3.315c.392-4.954-2.977-17.615-8.339-19.92-2.847-1.224-7.135-.64-5.979 4.942z" fill="#48598B"/><path d="M160.4 76.609c1.51-.216 2.51-3.089 2.234-6.417-.276-3.328-1.723-5.851-3.233-5.636-1.51.216-2.511 3.089-2.235 6.417.276 3.329 1.724 5.852 3.234 5.636z" fill="#A96443"/><path d="M147.849 74.925c.436-.233.551-1.196.255-2.152-.296-.955-.89-1.54-1.327-1.307-.437.233-.551 1.197-.255 2.152.296.955.89 1.54 1.327 1.307z" fill="#102441"/><path d="M145.512 68.844s1.43-.794 2.804.448" stroke="#102441" stroke-width="2" stroke-miterlimit="10" stroke-linecap="round" stroke-linejoin="round"/><path d="M155.625 58.304s3.7 3.605 5.147 4.071c0 0-2.499.77-5.147-4.07z" fill="#48598B"/><path d="M160.373 77.138c.678 0 1.228-.722 1.228-1.612 0-.89-.55-1.611-1.228-1.611-.678 0-1.227.721-1.227 1.611s.549 1.612 1.227 1.612z" fill="#F3E7D7"/><path d="M79.316 250.441l-2.904-1.341-1.962-92.388h4.866v93.729z" fill="#273150"/><path d="M79.316 211.706l-3.664-1.101-1.202-53.893h4.866v54.994z" fill="#102441"/><path d="M83.62 249.806l-4.304.635v-94.187h5.57l-1.266 93.552z" fill="#634874"/><path d="M83.62 249.806l-4.304.635v-38.736l4.945-10.31-.641 48.411z" fill="#634874"/><path d="M79.633 158.457l1.565 12.81 26.95 2.004 23.83-1.376 1.079-15.039-53.424 1.601z" fill="#C83F37"/><path d="M79.633 158.457l1.544 12.81 26.564 2.004-.526-15.649-27.582.835zm27.627.2l.191 5.738 25.167-1.561.389-5.978-25.747 1.801z" fill="#972D29"/><path d="M100.831 260.751l-4.709-1.738-3.983-102.241h7.549l1.143 103.979z" fill="#273150"/><path d="M99.915 210.304l-5.64-.901-2.136-52.631h7.549l.227 53.532z" fill="#102441"/><path d="M104.693 260.205l-3.863.544-1.829-103.552h6.098l-.406 103.008z" fill="#634874"/><path d="M104.947 196.492l-5.032 13.812.915 50.445 3.862-.544.255-63.713z" fill="#634874"/><path d="M140.62 257.68l-3.496-1.465-3.078-99.233 5.734-.207.84 100.905z" fill="#273150"/><path d="M140.084 194.514l-4.943-.959-1.095-36.573 5.734-.207.304 37.739z" fill="#102441"/><path d="M144.9 257.209l-4.28.42-.841-100.854 5.645-.339-.524 100.773z" fill="#634874"/><path d="M144.9 257.209l-4.28.42-.536-63.115 5.198-8.433-.382 71.128z" fill="#634874"/><path d="M107.235 160.059l-41.314-1.586v-9.627l41.314-1.701v12.914z" fill="#273150"/><path d="M107.235 160.059l50.144-1.92v-11.214l-50.144.225v12.909z" fill="#634874"/><path d="M130.046 158.346l27.189-1.359.17-8.273-19.99.369-7.369 9.263z" fill="#634874"/></svg>