<svg width="285" height="251" fill="none" xmlns="http://www.w3.org/2000/svg"><path d="M190.915 41.51s-1.577-18.204 16.167-21.906c17.744-3.701 24.445 6.787 24.445 6.787s5.127-3.393 8.674-3.393c3.547 0 4.337 2.777 4.337 2.777s13.8-4.011 16.167-3.393c2.367.618-14.984 7.713-37.062 14.5-22.078 6.787-44.556 12.958-44.556 12.958l11.828-8.33zM128.05 66.574s-6.183-16.815-19.723-20.27c-13.54-3.457-15.013 1.612-15.013 1.612s3.828-22.113-9.716-25.798c-13.543-3.685-30.32-.46-42.685 7.141-12.366 7.602-10.304 14.972-7.654 20.04 0 0-3.239.92-7.653 3.224-4.417 2.303-1.766 8.292 1.177 9.444h-9.715c-2.65 0 6.476 2.764 15.307 5.3 7.55 2.166 20.696 4.837 31.71 6.573 1.74.273 2.917-1.347 1.73-2.377l-1.647-1.433s32.749 4.606 54.46 6.91c17.371 1.842 9.422-10.366 9.422-10.366zm142.562 1.838s-17.327 7.428-31.092 10.586c-13.765 3.157-19.937 3.527-19.937 3.527l25.634-7.986s4.985-9.284 9.97-8.914c4.985.37 7.357 2.414 7.357 2.414s4.749-3.715 7.121-2.784c2.373.93.947 3.157.947 3.157z" fill="#F3E7D9"/><path d="M135.686 205.509s-57.709 3.415-65.468 3.415c-7.76 0-42.192 3.034-48.496 3.034-6.305 0 4.848 3.794 4.848 3.794l-15.034 7.591 6.79 4.553s38.795 4.173 51.403 4.173c6.79-.379 38.796-7.59 38.796-7.59l15.034-2.278 28.613 4.174 17.457-2.278 9.701-3.224s6.304-1.329 19.883-1.329c13.579 0 52.859.759 59.163.759l2.426-6.831 11.153-6.072-136.269-1.891z" fill="#856792"/><path d="M97.496 207.405s-15.64-1.139-10.91 1.708c4.728 2.845 16.732 1.994 16.732 1.994s-10.182.854 5.819 3.129c16.005 2.278 90.567-2.562 90.567-2.562s.728-4.269-26.187-4.269h-76.02zm-48.617 12.144S13.477 224.102 20.266 226c6.79 1.898 24.732.38 24.732.38l15.034 2.655s29.583-7.591 20.853-8.348c-8.73-.756-32.006-1.138-32.006-1.138zm57.954-1.801s-8.39-.47-8.99.703c-.6 1.172 8.99 1.642 10.789.938 1.799-.704-1.799-1.641-1.799-1.641zm7.215-1.223s-5.514-.307-5.907.463c-.394.771 5.907 1.079 7.091.616 1.183-.463-1.184-1.079-1.184-1.079zm108.929-3.712s-8.366 3.129-.364 2.277c8.002-.854 8.73-2.562.364-2.277z" fill="#665070"/><path d="M236.434 214.141s-6.546-1.708-5.455.285c1.092 1.991 8.366 1.139 5.455-.285zm-17.812-1.724s-7.127.576-2.42 1.314c4.707.741 6.088-.796 4.896-1.108-1.192-.313-2.476-.206-2.476-.206zm36.846 9.787l-54.8-.949-14.428-.19-12.729 4.553 5.819 4.553s2.668 1.139 16.004 2.088c13.337.949 48.739 2.845 51.162 2.655 2.426-.189 10.668-10.055 10.668-10.055l-1.696-2.655zm-109.234 7.4c7.639-2.562-22.915-5.977-22.915-5.977s-40.008 5.692-29.462 8.253c0 0 44.739.284 52.377-2.276zm16.61-16.697s-30.794 3.794-21.581 6.072c9.215 2.278 17.741 1.928 17.457.38-.243-1.329-5.577-2.468-5.577-2.468s15.52-.379 16.005-1.708c.485-1.329-6.304-2.276-6.304-2.276z" fill="#665070"/><path d="M157.873 227.611l12.002-.854 9.821 4.84-36.372 1.991 6.183-3.13 8.366-2.847z" fill="#856792"/><path d="M111.075 182.738s-7.182-6.557-12.57-8.898c-5.387-2.342-6.981 5.621-2.393 6.868 0 0-2.393 1.56-2.393 3.278v1.718s-3.99-1.093-5.585 1.092c-1.598 2.185.399 3.591.399 3.591s-2.793 1.092-2.793 2.655c0 1.562.799 2.655 4.39 2.497 0 0-2.195 1.718.199 3.123 2.393 1.405 7.38 2.343 10.972-1.56 3.589-3.903 9.774-14.364 9.774-14.364zm-10.792-19.75c-2.793-1.405-3.591.155-4.189 1.873-.597 1.718 4.189 1.56 4.189 1.56s-1.396.313-2.994.78c-1.597.468 2.195 5.153 5.586 2.966 3.396-2.183-2.592-7.179-2.592-7.179z" fill="#288453"/><path d="M95.198 208.542s.618-4.054-2.19-4.855c-2.807-.8-2.414 1.426-2.414 1.426s-3.064-6.722-8.798-5c-5.733 1.723-2.559 5.491-2.559 5.491s-3.053-7.092-6.529-2.361c-3.479 4.729.314 4.444.314 4.444s-5.964-4.937-7.881-4.24c-1.914.697-.08 2.217-.08 2.217s-10.7-4.671-14.623-.692 1.757 3.736 1.757 3.736-19.844-.067-15.661 1.873c4.183 1.94 12.774-.458 18.427.035 5.654.493 40.237-2.074 40.237-2.074zm23.796-105.637c-5.023-7.93-9.2 1.153-9.2 1.153-5.13-2.671-7.535 5.164-3.089 6.697 0 0-2.547 1.405-2.721 3.118l-.175 1.71s-3.866-1.34-5.68.739c-1.813 2.078.03 3.604.03 3.604s-2.897.914-3.056 2.47c-.16 1.555.523 2.694 4.12 2.764 0 0-2.363 1.574-.12 3.125 2.242 1.551 7.117 2.796 11.096-.868 2.275-2.095 13.111-2.253 15.345-7.734 1.674-4.107-4.396-13.38-6.55-16.778z" fill="#33A86D"/><path d="M67.04 129.938c-8.307 6.007 4.008 6.583 4.008 6.583-1.828 4.604 8.458 4.201 9.083.43 0 0 2.443 1.514 4.59 1.165l2.149-.352s-.553 3.28 2.508 4.056c3.062.775 4.411-1.04 4.411-1.04s1.938 1.917 3.89 1.597c1.953-.319 3.157-1.152 2.228-3.872 0 0 2.597 1.331 3.867-.792 1.269-2.12 1.423-6.132-4.195-8.086-3.21-1.115-6.458-9.208-13.81-9.34-5.511-.097-15.17 7.076-18.729 9.651z" fill="#33A86D"/><path d="M128.169 132.032s-2.663-11.967-6.571-11.833c-3.907.134-.949 4.509-.949 4.509s-5.452-3.768-8.1-1.65c-2.648 2.118.657 3.086.657 3.086s-6.594 2.632-3.29 3.599c3.305.968 5.473-1.178 5.473-1.178s-.254 7.217 2.917 4.752 4.372-4.673 4.372-4.673-.083 10.273 5.491 3.388z" fill="#288453"/><path d="M142.268 110.037s8.076-2.62 1.734-5.301c-6.343-2.681-3.959 1.488-3.959 1.488s3.636-2.206-2.272-6.213c-5.91-4.007-4.23 3.174-4.23 3.174s-2.521-3.329-5.429-2.933c-2.905.396-6.381 2.961-1.597 4.461 0 0-10.251 1.208-7.917 2.979 2.337 1.771 3.87 1.752 3.87 1.752s-6.704 2.243-4.799 5.341c1.906 3.097 5.997.766 5.997.766s-.263 9.724 9.508 7.442c9.771-2.282.337-6.125.337-6.125s10.485 2.75 8.26-1.063c-2.225-3.812-5.798-6.048-5.798-6.048s11.176 6.581 6.295.28z" fill="#288453"/><path d="M121.964 121.366s-2.511-3.965 3.29-3.6c5.801.366 2.955 4.373 2.955 4.373s3.252-3.222 4.352.273c1.101 3.495-1.027 5.264-1.027 5.264s5.302-4.236 5.24 1.09c-.059 5.327-4.621 2.375-4.621 2.375s-1.027 5.264-4.411 5.054c-3.384-.211-1.544-3.906-1.544-3.906s-13.964 3.311-11.485-1.863c2.477-5.174 4.506-1.238 4.506-1.238s-6.458-3.452-4.251-5.977c2.201-2.528 6.996-1.845 6.996-1.845z" fill="#33A86D"/><path d="M109.333 164.245s-15.647-17.724-14.046-24.801c1.6-7.074-.358-17.789-7.713-22.694l1.113-2.322s9.525 5.04 9.922 13.949c.396 8.908-2.089 11.827-.562 13.973l1.526 2.145 5.574-7.507-.308-14.027 1.911-1.588 1.036 15.439-5.021 10.619 9.002 10.131-2.434 6.683z" fill="#7A462F"/><path d="M61.325 124.405s-4.1 2.026-.835 3.373c3.267 1.347 4.701-3.13 4.701-3.13s-4.45 5.431-.254 7.218c4.195 1.787 6.67-3.387 6.67-3.387s-.097 5.704 3.808 5.57c3.905-.135 3.367-4.357 3.367-4.357s.947 5.009 4.757 1.06c3.81-3.949-1.314-6.173-1.314-6.173s10.017-2.797 5.822-4.584c-4.195-1.787-5.357.044-5.357.044s.37-8.351-3.053-8.185c-3.423.167-3.618 2.058-3.618 2.058s-6.802-9.565-7.636-6.19c-.834 3.375 1.352 5.797 1.352 5.797s-7.869-3.922-8.7-.547c-.831 3.375 3.674 2.134 3.674 2.134s-10.307.875-9.612 3.584c.696 2.708 4.31.653 4.31.653s-7.91 5.974-3.561 6.247c4.358.269 5.479-1.185 5.479-1.185z" fill="#288453"/><path d="M77.016 113.278s-4.849-.111-3.097 2.435c1.748 2.546 6.132-.544 6.132-.544s-7.567 2.56-5.36 5.875 7.952.104 7.952.104-4.154 4.69-.817 6.283c3.337 1.595 5.902-2.144 5.902-2.144s-2.79 4.567 3.19 2.958c5.978-1.611 3.316-5.694 3.316-5.694s10.307 2.056 8.1-1.259c-2.207-3.315-4.476-2.303-4.476-2.303s6.268-6.767 3.31-8.125c-2.958-1.359-4.467.125-4.467.125s1.18-10.908-1.917-8.473c-3.097 2.435-3.015 5.398-3.015 5.398s-3.73-6.689-6.827-4.254c-3.098 2.435 1.523 3.375 1.523 3.375s-9.174-3.778-10.532-1.227c-1.355 2.551 3.113 2.424 3.113 2.424s-10.828 1.5-7.414 3.627c3.414 2.127 5.384 1.419 5.384 1.419z" fill="#288453"/><path d="M88.237 102.296s-4.848-.111-3.097 2.435c1.751 2.547 6.133-.544 6.133-.544s-7.568 2.561-5.36 5.875c2.206 3.315 7.951.105 7.951.105s-4.153 4.689-.816 6.282c3.337 1.595 5.901-2.143 5.901-2.143s-2.79 4.567 3.19 2.958c5.978-1.609 3.316-5.695 3.316-5.695s10.307 2.056 8.1-1.259c-2.207-3.315-4.476-2.303-4.476-2.303s6.269-6.766 3.31-8.125c-2.958-1.359-4.467.125-4.467.125s1.18-10.907-1.917-8.472c-3.097 2.435-3.014 5.398-3.014 5.398s-3.73-6.69-6.828-4.255c-3.098 2.435 1.523 3.375 1.523 3.375s-9.174-3.778-10.531-1.227c-1.355 2.551 3.112 2.424 3.112 2.424s-10.828 1.5-7.414 3.627c3.417 2.135 5.384 1.419 5.384 1.419z" fill="#288453"/><path d="M109.468 104.012s-4.848-.111-3.097 2.435c1.748 2.546 6.133-.544 6.133-.544s-7.568 2.56-5.361 5.875 7.952.104 7.952.104-4.153 4.69-.816 6.282c3.337 1.593 5.901-2.143 5.901-2.143s-2.789 4.567 3.19 2.958c5.978-1.609 3.316-5.694 3.316-5.694s10.307 2.055 8.1-1.259c-2.207-3.315-4.476-2.304-4.476-2.304s6.268-6.766 3.31-8.125c-2.958-1.359-4.467.125-4.467.125s1.18-10.907-1.917-8.472c-3.097 2.435-3.014 5.398-3.014 5.398s-3.731-6.69-6.828-4.254c-3.098 2.435 1.523 3.375 1.523 3.375s-9.174-3.778-10.531-1.227c-1.355 2.55 3.112 2.423 3.112 2.423s-10.828 1.5-7.414 3.628c3.414 2.127 5.384 1.419 5.384 1.419z" fill="#288453"/><path d="M188.06 64.917l22.309 9.675c.84.406 1.435 1.058 1.657 1.81 0 0 6.103 8.056 8.043 11.093 3.157 4.942 10.272 44.033 10.272 44.033.174.599.591 1.141 1.189 1.541l11.147 7.505c.716.482 1.168 1.16 1.263 1.894l2.979 22.821 5.088 38.97c.213 1.641-1.372 3.091-3.479 3.176l-34.298 1.391c-1.713.07-3.261-.794-3.737-2.083l-23.572-64.088a2.329 2.329 0 01-.145-.762l-1.21-73.55c-.035-2.276.021-4.623 2.494-3.426z" fill="#CE9436"/><path d="M93.467 208.588l18.62-87.046 9.727-8.514 21.726-44.373c.441-.898 1.476-1.535 2.698-1.65 8.18-.78 38.929-3.642 40.612-2.655 1.941 1.138 5.34 27.231 5.577 28.84l3.706 40.822 13.18 10.791 2.144 64.266-117.99-.481z" fill="#F7BC4B"/><path d="M145.936 67.037l19.655-1.74-18.267 20.3 6.546 1.424-9.392.954-7.659 23.868 26.994 1.643-41.999-.461 21.726-44.534c.388-.797 1.313-1.357 2.396-1.454z" fill="#CE9436"/><path d="M121.814 113.028l-9.727 8.511-8.245 39.193-1.94 3.162-.879 3.858.944 1.125-1.343 6.269 30.707.907 15.993.047-27.64-27.132 13.576-.38v-26.183l8.609-9.201-20.055-.176z" fill="#CE9436"/><path d="M100.73 174.708l-7.263 33.88 65.134.241-3.639-13.378-23.871-21.083-30.361.34zm47.443-56.757c-.497.056-.876.371-.914.762-.37 3.711-2.154 21.669-2.154 22.315 0 .72-4.902 3.835-4.902 3.835l-1.84 20.623h.92l2.145-20.382 4.597-3.118 2.148-24.035zm-1.009 24.378s22.152-.1 22.767-.1c.616 0 .305 24.938.305 24.938h-.92l.308-24.22-22.46-.618z" fill="#CE9436"/><path d="M164.701 165.727l-15.679-.505-.485.38-10.174.456.393-.864 9.538-.034.648-.324 15.759.449v.442z" fill="#CE9436"/><path d="M133.908 175.91l-2.586-.128s-9.126.424-17.144.318c-.378-.005-.908-.871-1.283-.875-5.985-.079-11.372-.13-12.269-.079l-.139.699s5.583-.005 12.23.021c.459.002 1.074.863 1.541.865 6.305.026 13.263-.356 17.227-.252l2.585.19-.162-.759z" fill="#F7BC4B"/><path d="M190.486 175.405s.648 24.412.648 28.965v4.554l.648-.128-.485-31.875-.811-1.516z" fill="#CE9436"/><path d="M199.254 175.405l-29.581.377-.162.887 29.743-1.264z" fill="#CE9436"/><path d="M133.745 165.537s-.302 24.803-.302 27.773c0 2.97-.263 8.132-.263 8.132l.627-.018s.828-30.091.665-35.394l7.112-.282-7.839-.211z" fill="#F7BC4B"/><path d="M187.211 138.153l.121 18.595 16.975-.095-.243 10.245-.485-9.486-17.214-.19.485-18.12.361-.949zm-41.748-50.838l-.985.66 30.684-.982 1.503-.637" fill="#CE9436"/><path d="M175.451 74.972l.728 16.697 8.973.095-8.287-2.403-1.414-14.389z" fill="#CE9436"/><path d="M135.928 150.296s-17.135-2.592-26.593-.884l26.593.884z" fill="#F7BC4B"/><path d="M159.125 150.824c0-1.738-1.891-2.947-4.047-2.72-1.982.208-3.476 1.577-3.476 3.07 0 1.162.908 2.162 2.248 2.56v3.747c0 .496.529.952 1.198 1.021l.237.026c.695.074 1.272-.29 1.272-.813v-4.004c1.47-.447 2.568-1.563 2.568-2.887z" fill="#1689CB"/><path d="M160.216 150.824c0-1.738-1.89-2.947-4.047-2.72-1.982.208-3.476 1.577-3.476 3.07 0 1.162.909 2.162 2.249 2.56v3.988c0 .496.571.877 1.198.806l.236-.003c.696.074 1.273-.289 1.273-.812v-4.005c1.47-.444 2.567-1.56 2.567-2.884z" fill="#121721"/><path d="M168.825 134.94l-.648-11.016c-.032-.007-16.129-2.771-16.129-2.771l17.342.493-.565 13.294z" fill="#CE9436"/><path d="M126.633 123.796l14.064-.379 1.213.474-14.469.415-1.453 13.657.645-14.167z" fill="#F7BC4B"/><path d="M165.026 112.16v-11.859l.728-7.493.159 19.227-.887.125zm6.305-.38l17.457-.285.284 1.107-16.004-.283-1.737-.539zm-1.376 30.484l2.104 15.247 2.585 1.387 1.051-.127 6.546 1.301-12.93.254.644-18.062z" fill="#CE9436"/><path d="M213.883 116.333l-2.544-9.106-4.422-.864-7.216-1.412 10.789 3.225 3.393 8.157z" fill="#F7BC4B"/><path d="M187.09 137.583l-13.215.095-1.088-.757 14.546.19-.243.472zm-19.398 30.644l-.169 8.694.598 1.202-.024 1.136-.301 13.174.866-.111.971-24.095h-1.941z" fill="#CE9436"/><path d="M138.188 110.979l1.172 2.78 1.37-2.643-2.542-.137zm55.331 4.502l4.848 2.181-4.609 2.657-.239-4.838z" fill="#F7BC4B"/><path d="M196.062 124.019l-3.588 1.872c-.341.178-.299.577.071.711l3.881 1.403-.364-3.986z" fill="#CE9436"/><path d="M159.651 206.014l-6.91-1.139 7.153-1.896-.243 3.035zm49.02-36.176c.728 0 4.606 1.898 4.606 1.898l-4.364 1.519-.242-3.417z" fill="#F7BC4B"/><path d="M139.809 152.826v3.29l-4.366-1.266 4.366-2.024z" fill="#CE9436"/><path d="M167.207 154.47l4.123 1.266-4.123 1.771v-3.037zm-21.7 30.166l-1.455 4.841 4.727-1.993-3.272-2.848zm-12.004 4.841l-5.091 2.845 4.727 1.993.364-4.838z" fill="#F7BC4B"/><path d="M176.26 112.035l1.982 2.877 1.899-2.752-3.881-.125z" fill="#CE9436"/><path d="M201.518 80.285l6.183 3.606 1.698 11.572-.971-11.951-7.274-4.649.364 1.422zm4.972 14.326l1.574 12.046-1.148-.294-1.032-12.416.606.664z" fill="#F7BC4B"/><path d="M205.884 93.947l11.031 3.509-10.91-2.56-.121-.95zm26.596 64.402l10.158.241-11.433.866c-.107-.597.502-1.125 1.275-1.107zm-20.413-48.085l2.423.947-1.817 1.328-.606-2.275zm17.134 22.099l-12.067-1.078 11.419-.088.648 1.166z" fill="#F7BC4B"/><path d="M218.589 131.347l2.077 6.831-3.893-6.91 1.816.079zm-.414 2.452l-2.417 1.608 3.385.239-.968-1.847zm13.127 24.53l-1.213 8.157 2.668 6.831.728 8.442.485-8.632-2.668-6.261v-8.537z" fill="#F7BC4B"/><path d="M188.788 66.625l-2.181 3.604 5.092 1.519-2.911-5.123z" fill="#CE9436"/><path d="M209.197 193.197c1.941-.609 1.213-3.88-1.698-2.739-2.908 1.144-.242 3.348 1.698 2.739zm6.79.863s-.769-1.738-3.313-1.738-4.082 2.183-.08 3.889c4.003 1.706 3.393-2.151 3.393-2.151zm-11.78-3.49c2.905-1.037.506-2.348-1.201-2.57-1.704-.224-1.704 3.607 1.201 2.57zm11.738-.621s0-2.845-2.183-2.845c-2.18 0-5.091 1.993 2.183 2.845zm-5.698-7.967s-3.274 3.129.728 2.277c4.003-.852 2.908-1.993-.728-2.277zm-1.454-6.547s-4.364 5.123-3.275 1.709c1.094-3.415 3.275-1.709 3.275-1.709z" fill="#3E4C6F"/><path d="M206.381 180.938c-2.053.284-2.934 3.983.586 3.414 3.52-.57 1.467-3.699-.586-3.414zm2.417 3.574c-1.944.277-2.775 3.886.556 3.331 3.331-.556 1.388-3.609-.556-3.331z" fill="#3E4C6F"/><path d="M208.38 198.769s-3.464-3.644-.835-3.718c2.63-.074 1.864 1.41 1.864 1.41s2.754.009 1.426 1.615c-1.331 1.609-2.455.693-2.455.693zm-103.569-16.246s-3.437-2.222.749-4.092c4.186-1.871 5.082 2.456 4.186 3.275-.899.817-3.591 1.521-4.935.817z" fill="#856792"/><path d="M105.557 183.343s1.793-1.755 3.139-.82c1.346.935 1.494 2.456 0 3.391 0 0 .748-1.402 3.287-.935 2.541.468-.151 4.211-.151 4.211s1.793-.935 2.091.467c.299 1.403 0 3.042-2.39 2.69-2.39-.352-1.944-1.636-1.944-1.636s-1.346.701-2.988-.586c-1.641-1.287-.15-3.275-.15-3.275s-3.136-1.986-.894-3.507zm-5.68 8.303s1.047-1.521-1.195-1.988c-2.242-.468-3.287.701-1.793 1.754s2.988.234 2.988.234z" fill="#856792"/><path d="M103.315 187.435c-.299-.701-.896-2.571 1.494-2.456 2.39.118 2.243 2.572.896 2.924-1.343.352-2.091.234-2.39-.468zm4.305-10.25c-.246-.578-.74-2.125 1.233-2.03 1.976.097 1.852 2.125.74 2.415-1.11.291-1.728.194-1.973-.385zm3.883 5.146c-.246-.579-.74-2.125 1.234-2.03 1.976.097 1.851 2.125.739 2.414-1.112.29-1.725.195-1.973-.384zm-3.138 13.331c-.245-.578-.739-2.125 1.234-2.03 1.976.097 1.852 2.125.739 2.414-1.109.292-1.724.197-1.973-.384z" fill="#856792"/><path d="M105.078 178.704c-.245-.579-.739-2.125 1.234-2.03 1.976.097 1.852 2.125.739 2.414-1.109.294-1.727.197-1.973-.384z" fill="#856792"/><path d="M206.605 137.734s1.219-3.357-3.585-3.04c-4.802.318-2.402 4.278-1.071 4.556 1.334.275 4.059-.34 4.656-1.516z" fill="#3E4C6F"/><path d="M206.584 138.741s-2.748-.648-3.177.72c-.429 1.368.55 2.685 2.461 2.791 0 0-1.633-.824-3.387.69-1.754 1.514 3.177 3.401 3.177 3.401s-2.157.025-1.384 1.314c.772 1.29 2.207 2.505 3.919 1.153 1.716-1.352.412-2.21.412-2.21s1.615-.019 2.038-1.808c.42-1.79-2.251-2.762-2.251-2.762s1.142-3.035-1.808-3.289z" fill="#856792"/><path d="M217.281 143.053s-1.964-.787-.459-2.169c1.506-1.379 3.216-.882 2.749.648-.468 1.531-2.29 1.521-2.29 1.521zm-5.883-1.939c-.264-.711-1.128-2.517-3.012-1.359-1.884 1.157.021 3.113 1.382 2.805 1.36-.308 1.893-.736 1.63-1.446zm-10.976-6.531c-.216-.588-.932-2.078-2.488-1.122-1.556.956.018 2.571 1.142 2.317 1.124-.252 1.562-.607 1.346-1.195z" fill="#3E4C6F"/><path d="M200.954 140.546c-.216-.588-.932-2.078-2.488-1.122-1.556.956.018 2.571 1.142 2.317 1.124-.252 1.562-.607 1.346-1.195z" fill="#856792"/><path d="M213.207 150.13c-.216-.588-.931-2.079-2.488-1.123-1.556.956.018 2.572 1.142 2.317 1.125-.252 1.562-.606 1.346-1.194zm-9.59-15.422c-.216-.588-.932-2.078-2.488-1.122-1.556.956.017 2.571 1.142 2.317 1.124-.255 1.562-.609 1.346-1.195zm-69.387 74.595s-2.79-5.977-5.577-6.261c-2.79-.285 3.393 5.312 3.393 5.312s-4.242-2.845-7.517-3.509c-3.275-.664 3.636 3.794 3.636 3.794s-6.668-2.278-7.881-2.088c-1.213.19 7.881 2.75 8.73 2.845.852.097 5.216-.093 5.216-.093zm0-.284s-.728-5.598 1.334-7.211c2.062-1.613 1.42 1.509.728 3.13-1.577 3.701-2.062 4.081-2.062 4.081z" fill="#3E4C6F"/><path d="M92.04 209.873c0-.854-.242-5.977 2.305-8.537 2.547-2.563 4.121-2.088 4.121-2.088l-4.727 8.727s2.668-3.035 4.606-3.51c1.941-.474 2.547-.095 2.547-.095l-7.638 5.218-1.213.285z" fill="#856792"/><path d="M205.52 199.153s.728-3.13-2.183-5.123c-2.911-1.993-5.092 1.139-5.092 1.139s-1.091-4.269-6.546-4.838c-5.456-.569-4.488 9.012-4.124 11.002 0 0-8.609-7.59-13.337-5.597-4.727 1.993 7.76 9.012 9.943 10.151 0 0-13.215-3.605-16.126-2.75-2.911.854 3.275 6.261 8.003 6.831 4.727.569 8.73 2.277 14.185.284 0 0 13.094 3.13 16.732-.284 3.636-3.417-1.455-10.815-1.455-10.815z" fill="#3E4C6F"/><path d="M204.591 211.484s-.971-7.968 3.878-11.384c4.849-3.415-.485 6.071-.485 6.071s5.334-5.692 7.274-4.933c1.941.76-1.94 4.933-1.94 4.933s.97-.759 2.425.76c1.456 1.518-7.919 4.68-7.919 4.68l-3.233-.127z" fill="#856792"/><path d="M233.748 208.525s-3.136-6.351 1.417-5.023c4.553 1.329 2.896 2.646 2.896 2.646s4.63-10.632 8.065-7.676c3.434 2.956 2.15 4.209 2.15 4.209s2.971-12.285 7.946-8.764c4.976 3.52-1.854 7.689-1.854 7.689s4.893-4.312 6.067-.717c1.172 3.597-6.269 7.09-6.269 7.09l-20.418.546z" fill="#3E4C6F"/><path d="M204.671 204.741s2.828-4.623-.266-5.29c-3.097-.666-2.822 2.639-2.822 2.639s1.384-2.935-3.402-3.164c-4.787-.229-2.544 3.743-2.544 3.743s-5.867-6.107-9.535-3.248 1.393 5.292 1.393 5.292-4.508 1.315-1.417 3.743c3.092 2.428 5.911 1.331 5.911 1.331s-5.361 3.296-.29 2.644c5.071-.653 3.76 0 6.428 0 2.669 0 3.994-.646 7.654-.639 3.662.007 2.165-2.348 2.165-2.348s7.71-4.027 3.488-5.356c-4.224-1.326-6.763.653-6.763.653z" fill="#33A86D"/><path d="M224.675 209.303c-.971-.759-8.795-6.618-4.228-6.194 4.568.423 4.225 1.933 4.225 1.933s-1.065-8.255 2.665-5.373c3.734 2.884 2.183 5.458 2.183 5.458s5.382-4.939 5.121-1.699c-.257 3.239-1 3.787-1 3.787s3.763-5.977 4.784-3.527c1.021 2.449-2.964 5.043-2.964 5.043-4.216.665-9.816 1.332-10.786.572z" fill="#3E4C6F"/><path d="M47.243 218.831s-.44 1.887-.234 2.843c.208.956 1.296.981 3.113 1.025 1.816.044 3.056-.59 4.742-.264 1.686.327 5.07-.444 6.067-1.085.997-.639.675-1.725.347-2.586-.329-.864-1.628-.769-5.024-.757-3.399.011-8.845-.31-9.01.824z" fill="#ED5D4F"/><path d="M47.282 217.882s-.44 1.886-.233 2.842c.207.956 1.772 1.151 3.59 1.195 1.817.044 2.578-.759 4.264-.433 1.686.326 4.245-.023 5.242-.662.997-.639 1.396-1.549 1.068-2.41-.328-.863-3.668-1.291-7.065-1.28-3.402.012-6.7-.386-6.866.748z" fill="#121721"/><path d="M61.967 190.338c.207-3.62-2.94-5.292-6.34-5.28-3.396.011-3.62 2.569-2.937 6.761.68 4.193-.314 4.834-.571 5.206-.257.373-1.331 1.463-.89 2.517.443 1.055.142.976 1.085 1.664.944.687 6.73 3.653 6.994 1.025.19-1.856 2.437-7.965 2.66-11.893z" fill="#48598B"/><path d="M58.885 197.697s-.335-3.741-.678-7.357c-.34-3.616.82-5.294-2.58-5.282-3.396.011-3.62 2.569-2.937 6.761.68 4.193-.314 4.834-.571 5.206-.257.373-1.331 1.463-.89 2.517.443 1.055.142.976 1.085 1.664.944.687 1.81 3.417 3.234 1.028a30.283 30.283 0 013.337-4.537z" fill="#273252"/><path d="M56.37 215.067s1.166 1.167.775 1.822c-.39.655-1.624 1.194-4.195 1.796-2.57.602-6.677.12-6.372-1.389.305-1.509.775-1.215.775-1.215s2.003-10.676 2.69-12.653c.686-1.977.609-3.118 3.043-3.342 2.435-.225 6.08-.327 6.222 2.145.145 2.473-2.938 12.836-2.938 12.836z" fill="#48598B"/><path d="M56.37 215.067s1.166 1.167.775 1.822c-.39.655-1.624 1.194-4.195 1.796-2.57.602-6.677.12-6.372-1.389.305-1.509.775-1.215.775-1.215s2.003-10.676 2.69-12.653c.686-1.977.869-3.537 3.304-3.764 2.434-.224 4.091-.706 3.78.996-.446 2.449-.757 14.407-.757 14.407z" fill="#273252"/><path d="M68.393 218.748s-.751 2.639-.142 3.539c.61.9 3.852.727 5.479.514 1.627-.213 1.985-1.09 4.245-1.035 2.263.056 3.414-.423 4.106-1.544.692-1.122-1.343-2.817-3.124-2.734-1.78.084-4.514-.363-6.952-.044-2.44.32-3.399.044-3.612 1.304z" fill="#EE5D4F"/><path d="M68.431 217.799s-.751 2.639-.142 3.539c.61.9 4.106.479 5.73.266 1.627-.213 1.731-.842 3.994-.787 2.263.056 3.414-.423 4.106-1.544.693-1.12-1.837-2.576-3.62-2.493-1.782.083-4.021-.604-6.459-.285-2.437.32-3.396.044-3.609 1.304z" fill="#121721"/><path d="M69.698 185.118c-.104 2.618-4.393 4.639-9.582 4.512-5.19-.128-8.57.453-9.2-4.97-.305-2.609 4.393-4.639 9.582-4.512 5.185.125 9.306 2.352 9.2 4.97z" fill="#273252"/><path d="M61.491 184.062c4.41-1.125 6.635-2.115 8.248.012 1.612 2.127 3.026 9.28 3.328 10.806.302 1.525.538 4.759-2.754 5.152-3.29.394-4.36.938-5.482-2.412-.867-2.583-2-4.604-4.13-5.891-2.133-1.285-3.62-6.542.79-7.667z" fill="#273252"/><path d="M72.005 192.625c-.58-4.215.837.099 1.062 2.257.219 2.092.539 4.759-2.754 5.153-3.29.393 2.514-1.438 1.692-7.41z" fill="#48598B"/><path d="M75.697 218.104s2.186-.042 1.997-1.375c-.19-1.333-1.835-2.18-1.835-2.18s-1.04-14.88-2.402-17.285c-1.36-2.405-7.333-1.604-7.928 1.134-.595 2.739.654 8.991.914 10.498.296 1.704.586 2.826.695 3.826.113 1 .036 2.125.036 2.125s-.494.19-.542 1.421c-.047 1.232 1.086 2.163 1.974 2.232 1.473.116 7.09-.396 7.09-.396z" fill="#273252"/><path d="M75.697 218.104s2.186-.041 1.996-1.375c-.189-1.333-1.834-2.18-1.834-2.18s-1.041-14.88-2.402-17.285c-1.36-2.405-2.316-1.928-1.73.812 1.328 6.202 1.005 11.225 1.067 12.746.06 1.521-.976 4.673-.54 5.919.434 1.243 3.443 1.363 3.443 1.363z" fill="#48598B"/><path d="M54.554 187.69s2.201-.421 3.027.169c.825.59 4.313 4.377 4.313 4.377l-4.577-3.815-2.763-.731z" fill="#273252"/><path d="M73.247 207.081s-.287 2.65-1.517 4.613c-.004 0 2.319-.416 1.517-4.613zm-15.841-2.759s-.447 2.076-1.66 3.567c-1.213 1.488-1.645 1.669-1.645 1.669s4.405-.891 3.305-5.236z" fill="#48598B"/><path d="M52.057 164.185c-1.657-.042-3.08 2.202-5.26 8.16-1.08 2.949-1.098 5.224 1.343 4.842 2.44-.382 3.103-.747 4.562-4.886 3.674-6.935 2.606-8.037-.645-8.116z" fill="#1D2538"/><path d="M55.527 174.521s-2.816-.368-4.032-.313c-1.216.056-.95.505-2.112 1.236-1.92 1.209-2.621.822-2.615 1.709.005 1.208 4.159 1.113 5.774 1.153 1.615.039 7.476 1.131 8.807.152 1.337-.979-.81-3.942-5.822-3.937z" fill="#C94039"/><path d="M50.072 182.215c-.5.368-.178 1.202.18 1.523 0 0 3.213.792 5.538.278 2.325-.511 2.834-1.092 4.807-1.164 2.18-.079 7.355.393 8.74.595.798.115.42-1.415.42-1.415s-5.814-1.708-9.864-.574c-4.044 1.137-8.523 1.644-9.822.757z" fill="#F3E7D9"/><path d="M60.141 163.243s-7.174 6.468-9.981 3.931c-2.81-2.538 2.177-5.926 5.96-6.498 3.785-.572 8.19 1.435 4.021 2.567z" fill="#273252"/><path d="M59.15 160.687s-4.633.614-6.375 1.711c-1.204.757-2.595 2.713-1.411 3.431.547.331-1.586.921-1.485 1.245 0 0-1.47-1.65.183-3.602 1.654-1.954 3.63-2.648 5.57-2.822 2.234-.199 3.518.037 3.518.037z" fill="#F3E7D9"/><path d="M64.375 157.463l-.266 4.801-5.207.442.116-4.743 5.357-.5z" fill="#CC6D3D"/><path d="M64.374 157.463l-.266 4.803s-.852-.97-1.042-1.734c-.192-.764-4.047-2.567-4.047-2.567l5.355-.502z" fill="#F5894E"/><path d="M63.73 161.495s2.05-.708 3.692.723c1.642 1.432 2.884 6.715 2.757 7.914-.13 1.199.145 3.507.896 4.863 1.246 2.246.367 5.989-.485 7.044-.852 1.056-.426.558-3.893.285-3.467-.275-7.425-.373-9.884.454-2.458.826-6.026 1.055-6.863-.232-.837-1.287-.408-1.907.766-2.956 1.175-1.046 1.4-4.648 1.015-7.187-.225-1.493-.296-3.361.53-5.389.576-1.419 2.183-.019 5.005-2.299 3.41-2.761 6.464-3.22 6.464-3.22z" fill="#C94039"/><path d="M63.73 161.495s2.05-.708 3.692.723c1.642 1.432 1.884 7.449 1.757 8.648-.13 1.199 1.145 2.773 1.896 4.127 1.246 2.245.367 5.988-.485 7.044-.852 1.055-.426.558-3.893.285-3.467-.276-7.425-.373-9.884.453-2.458.827-6.026 1.056-6.863-.231-.837-1.287-.408-1.908.766-2.956 1.175-1.046 1.4-4.648 1.015-7.188-.225-1.493-.296-3.361.53-5.388.576-1.419 2.183-.019 5.005-2.299 3.41-2.759 6.464-3.218 6.464-3.218z" fill="#992C29"/><path d="M66.89 161.322s-1.64-1.463-4.59-.493c-2.949.97-5.727 3.655-6.975 4.574-1.248.919-3.707.669-4.881-.31-1.175-.977-1.823 1.095-.071 2.75 1.751 1.655 2.704 2.155 4.647 2.106 1.944-.046 3.112-2.011 4.624-3.398 1.512-1.387 2.837-4.201 4.068-4.646 1.23-.444 3.402-.153 4.088.908a71.127 71.127 0 001.26 1.881s.56-1.884-2.17-3.372z" fill="#F3E7D9"/><path d="M67.263 174.238s1.076-6.713.778-8.333c-.3-1.62-.246-2.949-2.648-3.576-2.402-.628-3.87 2.752-4.065 4.551-.192 1.798-1.299 8.224-.48 8.909.826.685 6.193 1.954 6.415-1.551z" fill="#273252"/><path d="M67.263 174.238l-2.864-5.194.997-6.715c-2.402-.628-3.87 2.752-4.065 4.551-.192 1.798-1.299 8.224-.48 8.909.823.685 6.19 1.954 6.412-1.551z" fill="#1D2538"/><path d="M79.551 183.16c-2.647-.181-4.973 1.28-5.195 3.264-.221 1.983 1.743 3.738 4.39 3.919 2.648.18 4.974-1.28 5.195-3.264.222-1.984-1.745-3.739-4.39-3.919zm-1.08 5.088c-1.1-.077-1.914-.834-1.816-1.695.098-.861 1.065-1.497 2.166-1.421 1.1.076 1.914.833 1.816 1.694-.098.859-1.065 1.496-2.165 1.422z" fill="#1689CB"/><path d="M79.406 184.745c-1.399-.095-2.63.713-2.75 1.808.097-.861 1.064-1.497 2.165-1.421 1.1.076 1.914.833 1.816 1.694-.097.862-1.065 1.498-2.165 1.422-1.1-.077-1.914-.834-1.817-1.695-.121 1.095.911 2.058 2.31 2.153 1.4.095 2.63-.713 2.752-1.808.121-1.092-.911-2.058-2.31-2.153z" fill="#34283A"/><path d="M79.95 184.097c.394.005.728-.213.775-.507l3.95-23.949.31-2.778c.033-.289-.222-.553-.597-.62-.426-.074-1.27-.296-1.35.028l-.86 5.47a.457.457 0 01-.041.106l-.213 1.433a.427.427 0 00-.05.155l-3.409 20c-.05.34.302.641.758.648l.727.014z" fill="#1689CB"/><path d="M86.636 158.44l.4.629.044 1.477 1.056.072 2.929-1.979.378.701-.18 1.607s-1.385-.044-1.562.595c-.127.467.953.321.953.321l.452.491-.287 2.56-2.603-.291-.272-.651.12-1.074-1.318-.09-.415 1.849-2.473-.305-.432-.671 3.21-5.241z" fill="#34283A"/><path d="M83.885 158.218l2.796.192.044 1.472 1.243.086.379-1.526 2.689.197-.18 1.606s-1.149.003-1.323.644c-.175.641.313.919 1.142.977l-.264 2.349-2.476-.252.19-1.701-1.553-.107-.415 1.85-2.985-.368.713-5.419z" fill="#1689CB"/><path d="M82.137 169.829l-.645 4.511" stroke="#29ABE2" stroke-width="2" stroke-miterlimit="10" stroke-linecap="round" stroke-linejoin="round"/><path d="M82.246 169.169c.218 0 .394-.138.394-.308 0-.17-.176-.308-.394-.308-.217 0-.393.138-.393.308 0 .17.176.308.394.308z" fill="#FFACFF" stroke="#29ABE2" stroke-miterlimit="10"/><path d="M82.51 184.822s.94 1.016.692 2.523c-.249 1.507-1.352 1.94-1.352 1.94" stroke="#29ABE2" stroke-width="2" stroke-miterlimit="10" stroke-linecap="round" stroke-linejoin="round"/><path d="M84.708 158.276s-.66-.077-.701.094c-.038.172-.367 2.38-.367 2.38s.494-2.252.509-2.361c.015-.109.237-.046.56-.113zm-1.326 4.766l.284-1.862-.118-.03-.166 1.892z" fill="#665070"/><path d="M76.542 180.225s1.168.171 1.476-.743c.308-.915.538-1.262.595-1.331.059-.068.917-.239 1.017-.179.42.25-.29 1.271.252 1.283.541.011 3.005.558 3.174.845.169.287.13 1.277.13 1.277l-1.1.399s.065.638-.13.988c-.196.35-.76.9-.76.9l-2.88-.423s-1.431-.389-2.037-1.042c-.604-.65.263-1.974.263-1.974z" fill="#F5894E"/><path d="M75.518 179.09s.74-.328 1.44.352c.702.681.642 2.167.116 3.199-.527 1.03-1.009.924-1.009.924l-1.432-.604.885-3.871z" fill="#F3E7D9"/><path d="M66.377 174.09c.586-.223.781-.324 1.414.28.817.78 2.036 1.449 3.592 1.963 1.556.511 4.659 1.791 4.86 2.84.201 1.049.763 2.139-.384 3.535-1.148 1.396-2.317.322-3.991-.287-1.675-.609-9.18-4.549-10.271-5.496-.764-.659-1.069-1.379.33-1.463 1.938-.12 3.867-1.15 4.45-1.372z" fill="#C94039"/><path d="M66.377 174.09c.586-.223.781-.324 1.414.28.817.78 2.036 1.449 3.592 1.963 1.556.511 4.659 1.791 4.86 2.84.201 1.049.763 2.139-.384 3.535-1.148 1.396-2.317.322-3.991-.287-1.675-.609-9.18-4.549-10.271-5.496-.764-.659-1.069-1.379.33-1.463 1.938-.12 3.867-1.15 4.45-1.372z" fill="#EE5D4F"/><path d="M66.51 173.84c.586-.222 3.473 4.167 5.03 4.679 1.555.511 4.475.298 4.676 1.349.202 1.049.79 1.442-.354 2.838-1.148 1.396-2.317.322-3.991-.287-1.675-.609-9.18-4.549-10.272-5.495-.763-.66-1.067-1.38.332-1.463 1.934-.118 3.993-1.398 4.58-1.621z" fill="#C94039"/><path d="M63.588 149.85s2.92-.41 3.825 1.375c.938 1.842 1.464 5.872.947 6.62-.518.748-.692 1.123-4.467 1.505-3.775.382-6.754.025-6.382-3.195.373-3.217.583-5.396 6.077-6.305z" fill="#F5894E"/><path d="M63.588 149.85s2.92-.41 3.825 1.375c.19.375-2.228 5.02-2.225 5.546.01 1.329 2.116 1.546 2.136 1.713.018.167.344.484-3.431.866s-6.754.025-6.382-3.195c.373-3.217.583-5.396 6.077-6.305z" fill="#CC6D3D"/><path d="M64.434 151.958s4.692-2.037 2.305-3.044c-2.385-1.007-6.82-.879-7.719.429l-.509.097s-1.54.088-3.437 2.035c-1.896 1.946-1.509 6.217 1.89 7.321 1.577.514 2.118.637 3.331.604 1.213-.032 2.47-.113 3.012-1.523.541-1.407 1.127-5.919 1.127-5.919z" fill="#1D2538"/><path d="M64.434 151.958s4.692-2.037 2.305-3.044c-2.385-1.007-5.257-.002-4.704.329.553.331 1.334 1.044 1.334 1.044s-2.23 3.236-2.7 4.87l.562.077s1.535 4.055 2.076 2.646c.542-1.41 1.127-5.922 1.127-5.922z" fill="#3E4C6F"/><path d="M64.078 155.51c.61-.101.936-.807.728-1.576-.207-.769-.871-1.311-1.482-1.209-.61.101-.937.806-.729 1.575.208.769.872 1.311 1.483 1.21z" fill="#CC6D3D"/><path d="M67.517 152.593c.041.351-.095.516-.26.53-.166.011-.297-.135-.338-.486-.041-.352.06-.646.225-.658.162-.014.331.262.373.614z" fill="#34283A"/><path d="M67.126 151.266c-.48.081-.784.368-.784.368" stroke="#34283A" stroke-width=".75" stroke-miterlimit="10" stroke-linecap="round" stroke-linejoin="round"/><path d="M64.84 151.414l.322 2.239a.35.35 0 01-.124.308l-.607.544-.316-3.172.725.081z" fill="#3E4C6F"/></svg>