<svg width="285" height="251" fill="none" xmlns="http://www.w3.org/2000/svg"><path d="M117.91 133.044l-4.776-1.313a45.209 45.209 0 00-.947-6.659l3.967-4.354c.268-.292.333-.875.145-1.292l-5.508-12.282c-.187-.422-.558-.524-.824-.227L106 111.273a20.777 20.777 0 00-3.679-3.662l.839-7.477c.056-.497-.161-.981-.482-1.07L93.23 96.47c-.32-.088-.629.252-.685.748l-.838 7.476a13.778 13.778 0 00-4.259 1.484l-2.782-6.21c-.184-.422-.555-.523-.823-.227l-7.851 8.615c-.27.292-.334.875-.145 1.292l2.784 6.208a35.901 35.901 0 00-2.339 5.76l-4.778-1.313c-.319-.088-.628.248-.684.753l-1.66 14.784c-.056.5.162.989.481 1.077l4.778 1.312c.155 2.29.475 4.519.947 6.658l-3.969 4.351c-.27.299-.334.873-.145 1.294l5.508 12.285c.188.417.56.519.823.227l3.967-4.352c1.126 1.414 2.358 2.644 3.682 3.658l-.838 7.469c-.056.5.16.982.481 1.07l9.448 2.595c.32.088.63-.25.684-.75l.838-7.47a13.93 13.93 0 004.255-1.479l2.784 6.203c.186.415.558.517.824.227l7.851-8.615c.268-.292.333-.871.145-1.292l-2.782-6.211a35.733 35.733 0 002.339-5.754l4.776 1.312c.319.088.628-.257.685-.757l1.658-14.785c.054-.504-.161-.981-.481-1.069zm-25.843 17.215c-5.393-1.481-8.999-9.523-8.052-17.965.947-8.44 6.085-14.083 11.48-12.602 5.393 1.482 8.999 9.523 8.052 17.965-.946 8.44-6.087 14.084-11.48 12.602z" fill="#F4E8D8"/><path d="M182.928 57.574l-8.024 1.896c-1.03-3.507-2.291-6.782-3.768-9.78l4.814-10.215c.325-.686.23-1.665-.211-2.172l-12.917-14.902c-.439-.514-1.062-.366-1.383.326l-4.815 10.215c-2.266-1.329-4.638-2.243-7.082-2.747l-1.213-12.565c-.08-.834-.589-1.422-1.127-1.294l-15.875 3.754c-.538.128-.912.924-.831 1.757l1.213 12.565c-2.241 1.614-4.334 3.593-6.252 5.9l-6.528-7.534c-.435-.514-1.057-.366-1.381.326l-9.529 20.209c-.327.687-.232 1.666.21 2.17l6.529 7.533a75.027 75.027 0 00-1.751 11.086L104.981 76c-.539.127-.915.914-.833 1.764l2.398 24.84c.081.838.59 1.435 1.128 1.308l8.026-1.898c1.025 3.502 2.29 6.775 3.765 9.775L114.648 122c-.325.697-.232 1.662.21 2.176l12.918 14.903c.439.502 1.064.356 1.382-.327l4.814-10.208c2.268 1.308 4.64 2.232 7.087 2.738l1.211 12.554c.082.838.589 1.426 1.126 1.298l15.873-3.752c.538-.127.914-.921.833-1.762l-1.212-12.553c2.24-1.613 4.333-3.595 6.25-5.891l6.526 7.528c.436.504 1.06.356 1.383-.327l9.529-20.21c.325-.685.232-1.66-.21-2.172l-6.526-7.537a75.394 75.394 0 001.754-11.078l8.024-1.896c.537-.127.91-.93.829-1.769l-2.398-24.84c-.08-.85-.587-1.428-1.123-1.3zm-34.898 51.461c-9.987 2.361-19.306-8.396-20.815-24.023-1.508-15.63 5.365-30.213 15.351-32.574 9.988-2.362 19.306 8.395 20.815 24.023 1.509 15.63-5.363 30.213-15.351 32.574zm-65.919 11.956c.286 0 .286-.695 0-.695-.285 0-.285.695 0 .695z" fill="#F4E8D8"/><path d="M117.95 118.009l4.44.028 6.648-6.414 13.645-15.461-13.895-.174-10.838 22.021z" fill="#702022"/><path d="M127.523 93.736l-11.015 21.007 1.451 3.294 11.16-21.333-1.596-2.968z" fill="#972D29"/><path d="M127.523 93.736l13.709-.29 1.451 2.716-13.564.542-1.596-2.968z" fill="#C83F37"/><path d="M137.176 110.204l-.494 10-.911 18.847 12.081-1.738 2.88-21.732-13.556-5.377z" fill="#CE6D3E"/><path d="M128.927 100.44l-7.459 13.606 2.162 24.03 12.628.334 1.668-22.019-8.999-15.951z" fill="#F2864F"/><path d="M128.927 100.44l-7.459 13.606 2.162 24.03 7.346.218.629-31.382-2.678-6.472z" fill="#CE6D3E"/><path opacity=".5" d="M134.543 112.586l-5.616-12.146-2.093 3.817 1.078 33.914 5.617.422 1.014-26.007z" fill="#C16840"/><path d="M136.115 135.993c.012-.317-.094-.584-.237-.597-.143-.013-.268.232-.28.549-.012.316.094.584.237.597.143.013.268-.233.28-.549zm.331-7.098c.012-.316-.094-.584-.237-.597-.142-.013-.268.233-.28.55-.012.316.094.583.237.596.143.014.268-.232.28-.549zm.499-8.671c.012-.317-.094-.584-.237-.597-.143-.013-.268.233-.28.549-.012.317.094.584.237.597.142.013.268-.233.28-.549zm12.192 3.018c.056-.241.008-.487-.106-.551-.114-.064-.251.079-.306.32-.055.241-.007.488.107.551.113.064.25-.079.305-.32zm-.928 6.458c.055-.241.008-.488-.106-.551-.114-.064-.251.079-.306.32-.055.241-.007.488.106.551.114.064.251-.079.306-.32zm-.927 7.152c.056-.241.008-.488-.106-.551-.114-.064-.251.079-.306.32-.055.241-.007.487.107.551.113.064.25-.079.305-.32zm-23.569-6.689c.011-.281-.083-.518-.21-.529-.126-.012-.237.206-.248.487-.01.281.084.518.21.529.127.012.238-.206.248-.487zm-.572-8.139c.011-.277-.082-.511-.207-.522-.125-.012-.234.203-.245.48-.01.277.083.511.207.523.125.011.235-.204.245-.481zm-.725-7.004c.011-.27-.08-.499-.203-.51-.122-.011-.229.199-.239.47-.011.27.08.499.203.51.122.011.229-.199.239-.47zm3.007-6.237c.012-.317-.094-.584-.237-.597-.142-.013-.268.233-.28.549-.012.317.094.584.237.597.143.013.268-.233.28-.549zm3.157-5.289c.012-.317-.094-.584-.237-.597-.143-.013-.268.232-.28.549-.012.316.094.584.237.597.143.013.268-.233.28-.549zm-4.341 33.256c.009-.245-.074-.452-.184-.462-.111-.01-.209.18-.218.425-.009.245.073.452.184.462.111.011.208-.18.218-.425zm5.18-.245c.01-.262-.078-.483-.197-.494-.118-.011-.222.192-.232.454-.009.262.079.483.197.494.118.01.222-.193.232-.454z" fill="#3E424B"/><path d="M139.69 115.273l-1.559 4.03 12.906-.565 1.423-3.937-12.77.472z" fill="#972D29"/><path d="M129.157 96.813l13.304-.42 9.999 18.408-12.77.472-10.533-18.46z" fill="#C83F37"/><path d="M127.585 99.838l10.546 19.465 1.561-4.032-10.535-18.459-1.572 3.026z" fill="#972D29"/><path d="M128.94 123.736c1.688 0 3.057-2.782 3.057-6.213s-1.369-6.213-3.057-6.213c-1.689 0-3.058 2.782-3.058 6.213s1.369 6.213 3.058 6.213z" fill="#F6BE4A"/><path d="M129.487 123.308c1.386 0 2.51-2.59 2.51-5.785 0-3.195-1.124-5.785-2.51-5.785-1.387 0-2.51 2.59-2.51 5.785 0 3.195 1.123 5.785 2.51 5.785z" fill="#102441"/><path d="M131.177 98.38c.065-.197-.044-.486-.243-.644-.198-.159-.412-.128-.476.069s.045.485.243.644c.199.159.412.128.476-.07zm9.195 16.381c.064-.197-.045-.486-.244-.644-.198-.159-.411-.128-.476.069-.064.197.045.485.244.644.198.159.412.128.476-.069zm10.645-.613c.064-.197-.045-.485-.244-.644-.198-.159-.411-.128-.475.069-.065.197.044.486.243.644.198.159.411.128.476-.069zm-7.749-18.634c.064-.197-.044-.485-.243-.644-.199-.159-.412-.127-.476.07s.045.485.243.644c.199.158.412.127.476-.07z" fill="#4D525B"/><path d="M142.171 98.116l.552-2.803.333.213-.843 2.615c-.012.04-.049.016-.042-.025z" fill="#4D525B"/><path opacity=".5" d="M151.555 113.146c-.819 1.639-2.765 1.803-5.411.104-4.349-2.792-8.944-9.553-10.265-15.104-.471-1.975-.462-3.53-.061-4.588l5.414-.111 1.435 2.736-.206.21 9.094 16.753z" fill="#C83F37"/><path d="M125.057 134.767l-10.529.735.079 2.748 10.528-.736-.078-2.747z" fill="#F6CF4C"/><path d="M114.616 138.255c.33-.023.58-.658.558-1.418-.022-.76-.306-1.357-.636-1.334-.33.023-.58.658-.558 1.418.022.759.307 1.357.636 1.334z" fill="#F5864E"/><path d="M125.101 137.523c.329-.023.579-.658.557-1.418-.021-.76-.306-1.357-.636-1.334-.329.023-.579.658-.557 1.417.021.76.306 1.358.636 1.335z" fill="#F6CF4C"/><path d="M146.836 225.09l-2.5.683-2.217-.759-3.125-78.107h8.184l-.342 78.183z" fill="#102441"/><path d="M146.83 225.072l-2.568.701-.468-46.896 3.289-13.544-.253 59.739z" fill="#634874"/><path d="M171.405 226.592c.153-1.958-.694-3.731-1.893-3.961-1.198-.23-2.294 1.171-2.447 3.129-.154 1.958.694 3.732 1.892 3.962 1.199.229 2.294-1.172 2.448-3.13zm19.039 2.076c1.198-.23 2.046-2.003 1.892-3.961-.153-1.958-1.249-3.359-2.447-3.129-1.199.229-2.046 2.003-1.893 3.961.154 1.958 1.249 3.359 2.448 3.129z" fill="#131620"/><path d="M191.085 220.396c-1.827-.114-12.83-1.484-12.83-1.484s-8.031 1.243-9.57 1.15c-2.247-.138-2.296 3.394-2.129 4.271.167.878 1.738.787 2.135.549l1.399-.433 8.307-1.586 10.384 1.51 1.399.433c.396.238 1.315.49 1.711.252l.725-.125c.231-.139.243-1.917.249-2.303.019-1.216.233-2.107-1.78-2.234z" fill="#102441"/><path d="M169.474 140.109s4.725-4.78 7.308 5.155c2.595 9.979 1.096 9.581-4.412 13.28-3.095 2.079-8.269 5.53-12.937 7.537-3.581 1.539-11.95 7.664-14.221-.454-1.356-4.849.049-9.122 2.593-11.06 2.552-1.942 21.669-14.458 21.669-14.458z" fill="#D8A344"/><path d="M169.125 207.551c2.315 1.463 4.294 7.086 4.294 7.086s-5.087 7.127-7.455 9.49c-.493.491-2.247 1.577-3.933 2.544-1.817 1.042-5.957 1.665-6.51 1.315-.599-.377-1.245-6.15.213-9.354 1.355-2.977 4.896-3.15 5.15-3.81 2.314-6.037 7.204-7.926 8.241-7.271z" fill="#131620"/><path d="M160.991 214.505s.688-.044 1.247 1.979m-4.159-.44s.631-.317 1.312 1.685m.446-2.437s.765.361 1.037 1.657" stroke="#29ABE3" stroke-width="3" stroke-miterlimit="10" stroke-linecap="round" stroke-linejoin="round"/><path d="M155.391 227.799l.132 1.046c.043.338.198.62.381.687 1.29.468 5.297-.729 6.836-1.645 1.514-.903 2.424-1.475 3.748-3.04 1.961-2.321 7.44-8.254 7.44-8.254s.096-1.419-.518-1.945c-.219-.187-6.356 7.023-9.033 10.063-.646.734-1.828 1.435-2.569 1.701-2.944 1.058-6.417 1.387-6.417 1.387z" fill="#29ABE3"/><path d="M161.364 214.204c.124.22.309.368.513.407.833.162 3.27.141 5.173-1.201 2.381-1.683 4.844-4.447 4.844-4.447l-2.979-8.137s-9.496-26.706-12.116-34.84c-1.907-5.921-4.637-10.576-8.631-8.59-3.747 1.863-4.152 5.491-2.324 11.803 1.278 4.41 9.016 26.257 9.016 26.257l4.829 15.213 1.675 3.535z" fill="#D8A344"/><path d="M171.304 207.579l-2.638-6.637s-2.587-6.995-5.906-16.653c-.944-2.745-1.778-2.463-2.155-.509-.037.002-.058.005-.058.005s-.88 2.518-.898 5.389c0 0 .221-1.66.744-3.061-.047 2.649.385 6.35 1.568 10.072.499 1.567 2.778 4.359 4.963 6.79-1.479-.709-3.328-1.75-4.059-2.806 0 0 3.423 5.396 6.547 5.762.106.011.198.014.282.011.96.996 1.61 1.637 1.61 1.637z" fill="#D8A344"/><path d="M183.755 170.37l7.021 7.417 1.406-1.373-7.725-7.694-.702 1.65z" fill="#102441"/><path d="M190.333 176.833l.776-1.363c.246-.433.66-.514 1-.197l1.274 1.185c.464.433.602 1.408.285 2.023l-.702 1.368c-.237.461-.656.568-1.006.257l-1.346-1.189c-.494-.433-.633-1.466-.281-2.084zm-5.348-13.516h-4.916v55.067h4.916v-55.067z" fill="#102441"/><path d="M185.335 215.893c0 1.324-.565 2.371-1.214 2.23a4.102 4.102 0 00-1.423-.044 21.54 21.54 0 00-1.867.324c-.595.129-1.112-.813-1.112-2.024v-34.196h5.618v33.71h-.002z" fill="#273150"/><path d="M184.049 177.787v2.931" stroke="#273150" stroke-width="3" stroke-miterlimit="10" stroke-linecap="round" stroke-linejoin="round"/><path d="M183.931 187.951v24.878" stroke="#273150" stroke-width="5" stroke-miterlimit="10"/><path d="M90.961 229.706l-2.594-3.234 6.9-33.648 2.824 2.481-7.13 34.401z" fill="#C83F37"/><path d="M95.267 192.824l14.871-.491 3.037 2.227-15.085.745-2.823-2.481z" fill="#EB5E4D"/><path d="M113.176 194.56l-6.18 32.63-16.035 2.516 7.13-34.401 15.085-.745z" fill="#972D29"/><path d="M168.406 167.519l8.25 1.328c2.003.322 3.763-1.789 3.763-4.514v-2.731c0-2.736-1.501-7.232-3.511-6.891l-8.524 3.784c-1.684.287-2.946 2.22-2.946 4.51.002 2.301 1.276 4.24 2.968 4.514z" fill="#273150"/><path d="M195.081 167.412l-16.943 1.6c-2.285.215-4.214-2.628-4.214-6.211v-2.039c0-3.477 1.821-6.278 4.041-6.22l16.943.442c2.183.058 3.928 2.859 3.909 6.275-.018 3.266-1.651 5.956-3.736 6.153z" fill="#634874"/><path d="M195.941 164.94s-7.778-1.347-9.389-4.644c-1.61-3.296 6.834-2.382 6.834-2.382 2.2.058 3.671-2.548 4.594.868.882 3.271-.008 5.961-2.039 6.158z" fill="#634874"/><path d="M174.01 231.993c1.5 0 2.716-1.903 2.716-4.25s-1.216-4.25-2.716-4.25c-1.5 0-2.716 1.903-2.716 4.25s1.216 4.25 2.716 4.25zm19.356-.65c1.716 0 3.106-2.177 3.106-4.862 0-2.684-1.39-4.861-3.106-4.861s-3.106 2.177-3.106 4.861c0 2.685 1.39 4.862 3.106 4.862z" fill="#131620"/><path d="M174.723 227.419s-.018.22 1.141-.273c1.218-.519 1.609-.78 1.647-1.146.049-.456-.149-1.542.274-1.785l3.716-1.97c.631-.289 1.284-.701 1.93-.504 0 0 7.473 3.136 8.323 3.37.851.234.556 1.725.99 1.908.759.324 1.75.224 1.75.224l.355-4.599-13.507-4.88-6.714 5.905.095 3.75z" fill="#102441"/><path d="M185.395 218.199s-8.036 4.801-9.474 5.401c-.691.287-.745 1.222-.79 1.912l-.034.527c-.053.832-.075 1.561-.603 1.45l-3.235-.727c-.468-.1-.815-.725-.815-1.461 0-1.731.736-3.252 1.801-3.718 2.866-1.252 7.995-4.969 7.995-4.969l5.155 1.585z" fill="#273150"/><path d="M179.965 218.704s11.147 4.185 12.621 4.516c.736.164 1.288 1.174 1.519 1.965.23.792-.136 2.176.392 2.063l2.599-.172c.467-.099.782-1.143.782-1.882 0-1.731-.53-3.252-1.595-3.717-2.865-1.252-11.649-4.894-11.649-4.894l-4.669 2.121z" fill="#273150"/><path d="M97.348 231.088l-3.22-3.945 8.273-41.606 3.498 3.012-8.55 42.539z" fill="#AA4928"/><path d="M102.401 185.537l18.333-.856 3.758 2.694-18.593 1.174-3.498-3.012z" fill="#F6CF4C"/><path d="M124.493 187.375l-7.393 40.333-19.751 3.38 8.551-42.539 18.593-1.174z" fill="#EE844E"/><path d="M100.312 237.056l8.519-2.132-.057-2.75-8.518 2.132.056 2.75z" fill="#F6CF4C"/><path d="M100.32 237.064c.33-.017.585-.646.57-1.407-.016-.76-.296-1.363-.626-1.346-.33.016-.584.646-.569 1.406.015.76.295 1.363.625 1.347z" fill="#F5864E"/><path d="M108.793 234.934c.33-.016.585-.646.569-1.406-.015-.76-.295-1.363-.625-1.347-.33.017-.585.646-.569 1.407.015.76.295 1.363.625 1.346zm-15.573-.969l4.81 1.94.292-3.081-4.954-1.116-.148 2.257z" fill="#F6CF4C"/><path d="M93.817 232.757c-.036.632-.303 1.18-.59 1.213-.284.032-.478-.454-.433-1.079.043-.616.302-1.141.58-1.183.282-.041.48.424.444 1.049z" fill="#F6CF4C"/><path d="M98.823 234.268c.018.869-.26 1.605-.618 1.63-.353.026-.639-.657-.643-1.505-.005-.831.264-1.527.605-1.569.344-.044.639.597.656 1.444z" fill="#F5864E"/><path d="M178.892 88.486l-2.896 2.616c-1.092.986-2.525.3-3.201-1.53l-2.926-7.933c-.676-1.831-.339-4.116.753-5.104l3.797-5.6c1.092-.986 1.624 2.68 2.3 4.514l2.926 7.933c.676 1.833.339 4.118-.753 5.104z" fill="#A76343"/><path d="M178.929 85.18l-1.721 1.556c-.649.586-1.689-.333-2.323-2.053l-2.749-7.45c-.634-1.72-1.434-4.293-.787-4.879l3.277-2.93c.649-.586 1.121 2.919 1.756 4.638l2.57 6.943c.636 1.72.625 3.59-.023 4.176z" fill="#AA6345"/><path d="M172.796 89.572l-2.926-7.933c-.676-1.831-.275-4.174.897-5.231l3.105-2.806c1.17-1.058-.4 17.8-1.076 15.97zm-1.223 24.722s-4.232-5.72-7.117-7.826c-2.098-1.533-4.039 1.203-3.655 4.213.323 2.52 8.27 14.747 9.617 16.856 1.346 2.107 1.922 6.623 5.962 2.107 4.04-4.514-.769-11.438-4.807-15.35z" fill="#7C4631"/><path d="M164.239 109.664s0-5.565-.534-7.514c-.534-1.946-2.844-4.94-3.733-5.773-.889-.835-1.941 2.22-1.613 3.864.222 1.113.849 2.824 1.65 5.745.798 2.921 2.541 5.208 4.23 3.678z" fill="#7C4631"/><path d="M164.606 116.16l-3.238 2.877-5.494-15.729-2.15-6.873-2.076-5.178 2.91-2.322 1.685 5.155 2.804 7.172 5.559 14.898z" fill="#F5864E"/><path d="M163.252 118.314c.907-.817 1.522-1.807 1.373-2.212-.149-.404-1.004-.07-1.911.747s-1.522 1.807-1.373 2.212c.148.404 1.004.07 1.911-.747z" fill="#EB5E4D"/><path d="M154.216 100.208c-.879.118-1.067 1.563-.771 2.584.296 1.02.787.967 1.772 1.162 1.253.247 3.294.412 3.441-.542.146-.956-.089-1.47-1.577-2.435-.51-.331-1.986-.887-2.865-.769z" fill="#7C4631"/><path d="M155.438 103.377c-.526-.217-1.009.685-.79 1.479.213.774.435 1.533.554 1.806.198.456 2.186.551 3.263.569.371.007.689-.497.692-1.097l.003-.453c.003-.454-.178-.836-.445-.947l-3.277-1.357z" fill="#7C4631"/><path d="M156.161 108.634l.184.403c.146.322.365.488.576.44l2.011-.458c.375-.086.591-.801.452-1.5-.1-.503-.359-.843-.634-.838l-2.194.053c-.51.016-.742 1.136-.395 1.9z" fill="#7C4631"/><path d="M157.102 109.965l.188.776c.066.312.242.539.453.576 0 0 .999.146 1.498.049.498-.097.716-.537.528-1.463-.188-.929-.717-1.074-1.373-.977-.653.097-1.245.243-1.294 1.039zm2.129-14.09c-1.231-.442-2.15.23-4.011 1.4-1.158.73.384 3.16 1.463 2.991 1.036-.162 2.028-.414 2.45-.377 1.013.08 1.762-3.417.098-4.014z" fill="#7C4631"/><path d="M151.149 81.718c1.407-.961 5.168.932 6.832 1.858.274.153.423.605.348 1.047l-.139.8s-2.342-.673-3.532-.895c-.811-.153-1.45.764-1.775 1.365l-1.734-4.175z" fill="#102441"/><path d="M145.946 87.368l1.963-1.921c.154-.15.259-.396.289-.674l.174-1.65c.03-.276.133-.521.286-.672.587-.583 2.152-2.09 3.51-3.016 1.536-1.048 5.646 1.019 7.462 2.03.299.167.463.66.379 1.141l-.151.876s-2.558-.737-3.858-.98c-.886-.166-1.584.836-1.939 1.491-.164.303-.389.963-.274 1.308l.99 2.928c.16.475.232.831-.079 1.081l-3.172 2.537c-.271.216-.227.176-.406-.197l-1.059-2.224c-.177-.375-.877-.565-1.148-.347l-1.814 1.451c-.293.234-.65.076-.814-.359l-.556-1.486c-.164-.454-.07-1.035.217-1.317z" fill="#634874"/><path d="M153.542 91.176c-.783.687-1.547.924-1.707.528-.16-.396.418-1.044 1.202-1.732.784-.687 1.475-1.15 1.633-.757.16.396-.346 1.273-1.128 1.96z" fill="#F5864E"/><path d="M143.161 89.875c.028.963.248 2.481 1.274 3.331.272.224.43.391.695.13l1.477-1.466c.338-.33.447-1.025.246-1.55l-1.007-2.628c-.202-.525-.636-.683-.974-.352l-1.463 1.452c-.273.273-.263.574-.248 1.083z" fill="#634874"/><path d="M159.859 222.086c.623 4.324.615 8.421.586 9.937-.008.357-.175.646-.403.692-1.643.343-8.071 1.655-10.342 1.76-1.904.088-6.776-.301-8.268-.993-.687-.318-1.018-3.336-1.199-5.213-.238-2.473.423-4.709 3.13-6.118 2.7-1.406 6.497-.549 6.497-.549s9.782-1.028 9.999.484z" fill="#131620"/><path d="M146.687 221.056s1.109-.193 1.71 2.576m.006-2.477s1.52-.387 1.973 2.567m-.192-2.518s1.526-.241 1.856 2.775" stroke="#29ABE3" stroke-width="3" stroke-miterlimit="10" stroke-linecap="round" stroke-linejoin="round"/><path d="M141.43 233.481s-.103 1.211.194 1.336c.605.252 3.816.639 8.089.394 3.127-.181 3.41-.429 5.093-.352 2.95.134 5.177-.486 5.318-.523.14-.037.235-.852.097-1.646-.05-.287-3.59 1.146-10.906 1.444-5.577.232-7.885-.653-7.885-.653z" fill="#29ABE3"/><path d="M148.908 220.019s1.571 3.011 4.423 4.282c2.89 1.287 7.285.919 7.285.919l2.234-5.903 3.024-36.43s3.515-27.452-1.921-30.098c-3.665-1.782-7.519-2.425-8.529 4.151-.725 4.713-4.547 31.444-4.547 31.444l-.359 17.644s-2.243 9.792-2.269 10.139c-.09 1.118.659 3.852.659 3.852z" fill="#F6CF4C"/><path d="M189.581 138.241s6.003-4.54 7.725 6.289c1.721 10.829-4.564 11.294-4.564 11.294s-10.414 3.315-16.716 4.306c-4.857.764-17.244 6.921-18.963-2.07-1.029-5.386 1.477-9.514 5.105-10.916 3.628-1.403 27.413-8.903 27.413-8.903z" fill="#FEED7F"/><path d="M192.321 148.887c1.193-2.47 2.445-5.03 2.445-5.03.183-8.285-7.019-4.898-7.019-4.898s-18.972 5.129-26.711 8.638c-5.162 2.341-7.533 16.375.45 16.311 4.08-.033 21.892-5.267 21.892-5.267s8.841-5.502 10.719-10.419c.229-.601-.871.609-1.776.665z" fill="#F6CF4C"/><path d="M175.633 82.275c1.203-1.196 4.921-2.395 6.343-1.539 1.421.857 8.972 17.03 11.761 27.81 1.486 5.748 4.069 30.503 4.069 33.07s-10.504 4.768-10.504 4.768-12.379-3.53-14.019-10.715c-.663-2.903.571-4.579.328-7.701-.359-4.607-2.081-10.834-2.733-16.343-1.093-9.241-2.962-16.653-1.167-21.505 1.202-3.252 4.72-6.648 5.922-7.845z" fill="#29ABE3"/><path opacity=".5" d="M175.633 82.276c.434-.431 6.398 4.02 6.398 4.02l2.843 5.306s6.216 14.685 7.178 21.838c1.202 9.787 3.007 30.583 3.007 30.583s-1.736.713-3.171 1.165c-1.626.511-4.586 1.196-4.586 1.196-1.55-.46-5.443-1.759-8.669-4.171-2.384-1.785-4.344-4.192-5.041-7.245-.663-2.903.262-3.878.018-7-.36-4.607-2.081-10.834-2.734-16.343-1.093-9.241-2.961-16.653-1.167-21.504 1.204-3.253 4.722-6.649 5.924-7.845z" fill="#209BC7"/><path d="M191.701 115.22l1.632 12.407s-1.435-3.338-1.617-6.416c-.184-3.077-.015-5.991-.015-5.991z" fill="#29ABE3"/><path d="M173.719 86.125s3.062-1.368 4.593-.685c1.531.685 4.702 8.384 5.905 14.203 1.202 5.82.547 8.556-1.969 9.412-2.514.857-3.609 2.225-7.326-3.423-3.717-5.646-6.232-15.74-1.203-19.507z" fill="#A96443"/><path d="M180.253 101.056c.983.856 3.307 8.856-1.067 8.685-1.994-.079-5.789-6.03-6.233-8.556-.251-1.428-1.152-2.88-.765-3.08 1.476-.772 7.081 2.096 8.065 2.951z" fill="#7C4631"/><path d="M168.252 94.34l1.586-2.852s.765 9.526 2.569 13.378c1.805 3.852 6.562 8.641 6.562 8.641l5.248 17.285-.203 10.324c-.489 2.301-3.069 2.928-4.374 4.238l-12.138 6.658c-.127.125-1.968 13.176-1.968 13.176l-.474 9.354s-2.494-.114-9.055-1.141c-6.562-1.028-13.762-4.449-13.762-4.449l4.592-28.408 26.448-4.877s-.419-.109-.652-1.706c-.514-3.516-1.227-11.29-2.355-20.114-1.641-12.833-2.024-19.507-2.024-19.507z" fill="#273150"/><path d="M169.343 92.18c1.043-6.525 6.334-10.539 11.048-12.613m.701-.057s.33-2.966 1.204-2.795c.875.174.756 2.602-1.204 2.794z" stroke="#F6CF4C" stroke-width="3" stroke-miterlimit="10" stroke-linecap="round" stroke-linejoin="round"/><path d="M180.675 79.87s.959-1.645.137-2.62c-.821-.975-1.14.419-.137 2.62zm.248-.201s1.596 1.234 1.734 3.322m-1.908-3.243s.69 3.595-.105 5.442m2.918 45.541s6.452.058 12.685-1.483" stroke="#F6CF4C" stroke-width="3" stroke-miterlimit="10" stroke-linecap="round" stroke-linejoin="round"/><path d="M195.917 129.25s-.548 2.053.547 2.91c1.095.856.766-1.199-.547-2.91z" stroke="#F6CF4C" stroke-width="3" stroke-miterlimit="10" stroke-linecap="round" stroke-linejoin="round"/><path d="M198.324 130.22c.037-.857-1.531-1.94-2.296-1.197-.766.741 2.259 2.051 2.296 1.197zm-2.552-.685s2.405 1.939 2.333 5.819m-2.005-5.761s.62-1.484 1.932-1.368" stroke="#F6CF4C" stroke-width="3" stroke-miterlimit="10" stroke-linecap="round" stroke-linejoin="round"/><path d="M174.704 86.81s-4.374 0-5.248 5.134c-.874 5.135-2.151 15.065-2.295 17.456-.219 3.593-3.391 9.755-3.937 15.743-.547 5.989.9 8.489 3.281 10.183 5.413 3.85 6.998-10.694 7.655-14.46.657-3.764 3.5-11.466 5.467-18.139 1.967-6.674-.003-16.773-4.923-15.917z" fill="#A96443"/><path d="M166.502 135.324c5.412 3.85 6.998-10.694 7.655-14.461.657-3.763 3.5-11.465 5.467-18.138 1.128-3.83-3.015 7.888-6.846 18.423-.872 2.401-6.98 13.676-6.276 14.176z" fill="#D77D5B"/><path d="M168.143 128.456c-.771-3.352-4.108-5.063-7.05-5.373-2.853-.303-8.231 2.447-15.854 2.665-2.375.067-3.773 7.935-.094 8.805 4.294 1.016 16.805 3.16 18.078 3.246 1.272.085 6.31-3.29 4.92-9.343z" fill="#A76241"/><path d="M170.832 128.22c-.133-.5-.478-1.146-.709-1.452-.174.362-2.023 5.019-3.908 6.315-2.733 1.882-6.654 2.51-6.654 2.51s-14.14-.327-10.423-.125c4.34.236 16.224 3.067 17.494 2.921 1.27-.146 6.027-4.408 4.2-10.169z" fill="#D77D5B"/><path d="M146.653 129.947c.815-1.435-.488-5.915-.348-7.845.141-1.931-1.238-3.827-2.132-6.058-.895-2.232-.932-2.079-2.24-2.88-1.308-.801-2.435-1.229-2.015 1.098.42 2.326 1.684 3.011 1.684 3.011s.642 2.887 1.219 3.903c.699 1.231-1.946 6.96-.864 9.324 1.082 2.366 3.412 1.706 4.696-.553z" fill="#A76241"/><path d="M143.204 120.981s-2.929-.303-3.491-.611c-.561-.308-1.455-1.233-2.013-1.678-.28-.222-1.247-3.262-1.843-3.555-.596-.294-1.362.888-1.426 1.574-.127 1.372.701 3.812 1.435 4.819.735 1.007.847 1.567 2.522 2.903 1.674 1.338 2.491 2.9 4.581 2.606 2.09-.294 1.73-5.146.235-6.058z" fill="#A76241"/><path d="M135.138 118.912c-.976-.102-.69 4.37-.19 4.856.276.269 1.612 1.943 1.612 1.943l-.432.895c-.108.399.049 1.204.257 1.507l.971 1.415.52 3.433s.94 1.409 3.124 1.419c2.652.011 3.973.224 4.513-2.642.54-2.865-9.398-12.724-10.375-12.826z" fill="#A76241"/><path d="M165.86 53.458c-2.17-.807-6.951.093-7.883 6.426-.633 4.308 2.527 19.095 4.009 22.574 2.106 4.945 4.272 3.572 8.098 1.142 3.982-2.528 5.676-7.39 5.058-12.519-.619-5.13-2.508-15.1-9.282-17.623z" fill="#7A462F"/><path d="M165.252 61.914c-.885 6.13-.895 9.422-.086 12.64.808 3.217 4.032 9.3 5.85 7.152.892-1.053 1.976-2.225 2.537-4.528.31-1.273-.302-4.731-1.015-6.838-1.201-3.558-6.405-14.541-7.286-8.426z" fill="#A96443"/><path d="M157.909 60.326s1.236 1.804 7.529-2.502c.135-.093.937 8.058 3.076 10.51.781.895.372-3.795 1.353-2.633 1.629 1.931 2.827 4.943 2.827 4.943l1.287 6.592s6.437-2.565 4.396-12.903c-2.025-10.261-4.666-21.08-14.515-13.102-5.188 4.202-5.991 5.952-5.953 9.095z" fill="#273150"/><path d="M167.247 53.97c.311 1.787 4.217 4.993 4.217 4.993l4.535 5.678s1.685 11.343 2.237 3.032c.3-4.532-2.286-16.115-6.401-18.224-2.184-1.12-5.475-.586-4.588 4.52z" fill="#48598B"/><path d="M171.014 72.134c1.159-.197 1.927-2.826 1.715-5.871-.212-3.045-1.323-5.354-2.482-5.156-1.159.197-1.926 2.826-1.715 5.87.212 3.046 1.323 5.354 2.482 5.157z" fill="#A96443"/><path d="M161.381 70.594c.336-.214.423-1.095.196-1.97-.227-.873-.683-1.409-1.018-1.195-.336.213-.423 1.095-.196 1.969.227.874.683 1.41 1.018 1.196z" fill="#102441"/><path d="M159.588 65.03s1.098-.727 2.153.41" stroke="#102441" stroke-width="2" stroke-miterlimit="10" stroke-linecap="round" stroke-linejoin="round"/><path d="M167.35 55.387s2.84 3.298 3.95 3.724c0 0-1.918.704-3.95-3.724z" fill="#48598B"/><path d="M170.994 72.618c.52 0 .942-.66.942-1.474 0-.815-.422-1.475-.942-1.475s-.942.66-.942 1.475c0 .814.422 1.474.942 1.474z" fill="#F3E7D7"/><path d="M108.785 231.176l-2.229-1.227-1.506-84.528h3.735v85.755z" fill="#273150"/><path d="M108.785 195.736l-2.812-1.007-.923-49.308h3.735v50.315z" fill="#102441"/><path d="M112.088 230.595l-3.303.581v-86.174h4.274l-.971 85.593z" fill="#634874"/><path d="M112.088 230.595l-3.303.581v-35.44l3.795-9.433-.492 44.292z" fill="#634874"/><path d="M109.028 147.019l1.201 11.719 20.684 1.834 18.288-1.26.828-13.759-41.001 1.466z" fill="#C83F37"/><path d="M109.028 147.019l1.185 11.719 20.387 1.834-.403-14.317-21.169.764zm21.203.182l.146 5.25 19.315-1.428.299-5.47-19.76 1.648z" fill="#972D29"/><path d="M125.297 240.609l-3.614-1.59-3.057-93.542h5.794l.877 95.132z" fill="#273150"/><path d="M124.594 194.454l-4.329-.824-1.639-48.153h5.794l.174 48.977z" fill="#102441"/><path d="M128.261 240.109l-2.965.497-1.403-94.74h4.68l-.312 94.243z" fill="#634874"/><path d="M128.456 181.817l-3.862 12.637.702 46.152 2.965-.497.195-58.292z" fill="#634874"/><path d="M155.834 237.799l-2.683-1.341-2.362-90.789 4.4-.19.645 92.32z" fill="#273150"/><path d="M155.423 180.007l-3.794-.877-.84-33.461 4.4-.19.234 34.528z" fill="#102441"/><path d="M159.119 237.368l-3.286.384-.645-92.273 4.333-.31-.402 92.199z" fill="#634874"/><path d="M159.119 237.368l-3.285.384-.412-57.745 3.99-7.715-.293 65.076z" fill="#634874"/><path d="M130.212 148.484l-31.708-1.452v-8.808l31.708-1.555v11.815z" fill="#273150"/><path d="M130.212 148.484l38.483-1.757v-10.259l-38.483.206v11.81z" fill="#634874"/><path d="M147.719 146.917l20.866-1.243.131-7.57-15.342.338-5.655 8.475z" fill="#634874"/></svg>