<svg width="282" height="234" fill="none" xmlns="http://www.w3.org/2000/svg"><g clip-path="url(#clip0_103_1957)"><path d="M106.723 120.333l-7.282-1.276a29.294 29.294 0 00-1.444-6.473l6.049-4.232a.902.902 0 00.221-1.256l-8.399-11.938a.898.898 0 00-1.256-.22l-6.048 4.234a29.366 29.366 0 00-5.61-3.56l1.28-7.267a.904.904 0 00-.736-1.04l-14.404-2.522a.906.906 0 00-1.044.727l-1.278 7.267c-2.235.24-4.41.725-6.493 1.442l-4.242-6.036a.895.895 0 00-1.254-.22l-11.97 8.374a.896.896 0 00-.222 1.255l4.245 6.035a29.505 29.505 0 00-3.566 5.598l-7.284-1.276a.903.903 0 00-1.044.731l-2.529 14.371a.909.909 0 00.733 1.046l7.285 1.276a29.235 29.235 0 001.443 6.471l-6.05 4.23a.9.9 0 00-.222 1.258l8.399 11.94a.905.905 0 001.254.221l6.048-4.23a30.102 30.102 0 005.613 3.555l-1.276 7.261a.9.9 0 00.733 1.039l14.404 2.522a.902.902 0 001.044-.729l1.276-7.26a30.041 30.041 0 006.489-1.438l4.244 6.03a.91.91 0 001.256.22l11.97-8.374a.9.9 0 00.222-1.256l-4.242-6.036a29.388 29.388 0 003.565-5.594l7.282 1.276a.91.91 0 001.044-.736l2.528-14.371a.9.9 0 00-.732-1.039zm-39.401 16.733c-8.223-1.44-13.72-9.256-12.278-17.462 1.444-8.204 9.278-13.689 17.503-12.249 8.223 1.44 13.72 9.256 12.277 17.462-1.443 8.204-9.28 13.689-17.502 12.249z" fill="#F4E8D8"/><path d="M205.852 46.976l-12.234 1.843a49.176 49.176 0 00-5.744-9.506l7.338-9.93a1.507 1.507 0 00-.32-2.11l-19.695-14.486a1.5 1.5 0 00-2.108.318l-7.341 9.929a49.102 49.102 0 00-10.798-2.67L153.101 8.15a1.515 1.515 0 00-1.719-1.258l-24.203 3.65a1.51 1.51 0 00-1.267 1.708l1.849 12.213a49.764 49.764 0 00-9.532 5.735l-9.953-7.324a1.499 1.499 0 00-2.106.317L91.642 42.834a1.503 1.503 0 00.32 2.11l9.955 7.322a49.119 49.119 0 00-2.67 10.775L87.01 64.886a1.51 1.51 0 00-1.27 1.715l3.656 24.144c.124.815.9 1.395 1.72 1.272l12.237-1.845a49.077 49.077 0 005.74 9.501l-7.343 9.925a1.51 1.51 0 00.32 2.115l19.695 14.486c.67.488 1.621.346 2.106-.318l7.341-9.922a50.433 50.433 0 0010.805 2.662l1.847 12.201a1.515 1.515 0 001.716 1.263l24.2-3.648a1.512 1.512 0 001.27-1.712l-1.847-12.202a50.228 50.228 0 009.528-5.726l9.95 7.317a1.517 1.517 0 002.109-.317l14.528-19.645a1.507 1.507 0 00-.32-2.11l-9.95-7.326a49.245 49.245 0 002.674-10.769l12.235-1.843a1.517 1.517 0 001.263-1.719l-3.656-24.144a1.504 1.504 0 00-1.712-1.265zm-53.207 50.02c-15.227 2.295-29.435-8.16-31.735-23.35-2.3-15.193 8.18-29.368 23.405-31.663 15.227-2.295 29.435 8.161 31.735 23.35 2.3 15.193-8.178 29.368-23.405 31.663zM52.142 108.617c.436 0 .436-.675 0-.675-.435 0-.435.675 0 .675z" fill="#F4E8D8"/><path d="M106.784 105.719l6.77.027 10.135-6.235 20.804-15.028-21.185-.168-16.524 21.404z" fill="#702022"/><path d="M121.379 82.126l-16.794 20.418 2.212 3.202 17.016-20.736-2.434-2.885z" fill="#972D29"/><path d="M121.379 82.126l20.902-.282 2.212 2.64-20.68.526-2.434-2.885z" fill="#C83F37"/><path d="M136.097 98.132l-.754 9.72-1.389 18.32 18.421-1.69 4.391-21.123-20.669-5.227z" fill="#CE6D3E"/><path d="M123.52 88.641l-11.373 13.226 3.297 23.357 19.253.324 2.544-21.402-13.721-15.505z" fill="#F2864F"/><path d="M123.52 88.641l-11.373 13.226 3.297 23.357 11.199.212.959-30.504-4.082-6.29z" fill="#CE6D3E"/><path opacity=".5" d="M132.083 100.447l-8.563-11.806-3.191 3.71 1.644 32.965 8.563.41 1.547-25.279z" fill="#C16840"/><path d="M134.479 123.199c.018-.308-.143-.568-.361-.58-.218-.013-.409.226-.427.534-.018.307.144.567.361.58.218.013.409-.226.427-.534zm.505-6.899c.018-.308-.144-.567-.361-.58-.218-.013-.409.226-.427.534-.018.307.143.567.361.58.218.013.409-.226.427-.534zm.76-8.429c.018-.307-.144-.567-.361-.58-.218-.013-.409.226-.427.534-.018.308.143.567.361.58.217.013.409-.226.427-.534zm18.59 2.934c.084-.234.011-.474-.162-.536-.174-.062-.383.078-.467.312-.084.234-.011.474.162.536.174.062.383-.078.467-.312zm-1.416 6.277c.084-.234.012-.473-.162-.535-.173-.062-.382.077-.466.311-.084.234-.012.474.162.536.173.062.382-.078.466-.312zm-1.413 6.952c.084-.234.012-.474-.162-.536-.174-.062-.382.078-.466.312-.084.233-.012.473.162.535.173.062.382-.077.466-.311zm-35.934-6.501c.016-.273-.127-.504-.32-.515-.193-.011-.362.201-.378.474-.016.273.127.503.32.514.192.012.362-.2.378-.473zm-.872-7.912c.016-.269-.126-.496-.316-.507-.19-.012-.357.198-.373.467-.016.269.125.496.315.507.191.012.358-.198.374-.467zm-1.105-6.807c.015-.263-.123-.485-.31-.496-.186-.011-.35.193-.366.456-.015.263.123.485.31.496.186.011.35-.193.366-.456zm4.584-6.064c.018-.307-.143-.567-.361-.58-.217-.012-.409.227-.427.534-.018.308.144.568.361.58.218.013.409-.226.427-.533zm4.813-5.14c.018-.308-.144-.568-.361-.58-.218-.013-.409.226-.427.533-.018.308.143.568.361.58.218.013.409-.226.427-.533zm-6.619 32.325c.014-.238-.112-.439-.281-.449-.169-.01-.318.175-.332.413-.014.238.112.44.281.45.169.009.318-.176.332-.414zm7.897-.239c.015-.254-.119-.469-.299-.479-.18-.011-.338.187-.353.441-.015.254.119.469.299.48.18.01.338-.187.353-.442z" fill="#3E424B"/><path d="M139.93 103.059l-2.377 3.918 19.677-.549 2.169-3.828-19.469.459z" fill="#972D29"/><path d="M123.871 85.116l20.283-.407 15.245 17.891-19.469.459-16.059-17.943z" fill="#C83F37"/><path d="M121.474 88.056l16.079 18.921 2.38-3.92-16.062-17.941-2.397 2.94z" fill="#972D29"/><path d="M123.539 111.286c2.575 0 4.662-2.704 4.662-6.039 0-3.336-2.087-6.04-4.662-6.04-2.574 0-4.661 2.704-4.661 6.04 0 3.335 2.087 6.039 4.661 6.039z" fill="#F6BE4A"/><path d="M124.373 110.869c2.114 0 3.828-2.517 3.828-5.622 0-3.106-1.714-5.623-3.828-5.623-2.113 0-3.827 2.517-3.827 5.623 0 3.105 1.714 5.622 3.827 5.622z" fill="#102441"/><path d="M126.951 86.639c.098-.191-.068-.472-.371-.626-.303-.154-.628-.124-.726.067-.098.192.068.472.371.626.303.155.628.124.726-.067zm14.018 15.922c.098-.191-.068-.471-.371-.626-.302-.154-.627-.124-.725.068-.098.191.068.471.371.626.302.154.627.124.725-.068zm16.229-.595c.098-.192-.068-.472-.371-.626-.302-.154-.627-.124-.725.067-.098.192.068.472.371.626.302.154.627.124.725-.067zm-11.814-18.112c.098-.192-.068-.472-.371-.626-.302-.154-.627-.124-.725.067-.098.192.068.472.371.626.302.154.627.124.725-.067z" fill="#4D525B"/><path d="M143.712 86.383l.842-2.725.507.207-1.285 2.542c-.018.039-.075.016-.064-.024z" fill="#4D525B"/><path opacity=".5" d="M158.019 100.992c-1.249 1.593-4.215 1.752-8.249.101-6.631-2.714-13.638-9.286-15.651-14.681-.718-1.92-.704-3.431-.093-4.46l8.254-.108 2.188 2.66-.314.204 13.865 16.284z" fill="#C83F37"/><path d="M117.62 122.007l-16.053.715.12 2.671 16.052-.715-.119-2.671z" fill="#F6CF4C"/><path d="M101.701 125.398c.503-.023.884-.64.851-1.378-.033-.739-.468-1.32-.97-1.297-.503.022-.884.639-.851 1.378.033.738.468 1.319.97 1.297z" fill="#F5864E"/><path d="M117.687 124.686c.502-.022.883-.639.85-1.378-.033-.739-.467-1.319-.97-1.297-.503.023-.883.64-.85 1.378.033.739.467 1.319.97 1.297z" fill="#F6CF4C"/><path d="M150.824 209.802l-3.811.663-3.381-.738-4.765-75.919h12.478l-.521 75.994z" fill="#102441"/><path d="M150.815 209.784l-3.915.681-.713-45.582 5.013-13.165-.385 58.066z" fill="#634874"/><path d="M188.283 211.262c.234-1.903-1.058-3.627-2.885-3.851-1.827-.223-3.498 1.139-3.732 3.042-.233 1.903 1.058 3.627 2.886 3.85 1.827.224 3.498-1.138 3.731-3.041zm29.028 2.017c1.827-.223 3.119-1.947 2.885-3.85-.233-1.903-1.904-3.265-3.731-3.042-1.827.224-3.119 1.947-2.886 3.851.234 1.903 1.905 3.265 3.732 3.041z" fill="#131620"/><path d="M218.289 205.239c-2.786-.111-19.562-1.443-19.562-1.443s-12.244 1.209-14.591 1.119c-3.426-.135-3.5 3.298-3.246 4.151.255.853 2.65.765 3.255.533l2.133-.421 12.665-1.541 15.832 1.467 2.133.421c.605.232 2.005.477 2.61.245l1.105-.121c.352-.135.37-1.863.379-2.239.029-1.181.356-2.048-2.713-2.171z" fill="#102441"/><path d="M185.339 127.2s7.205-4.646 11.143 5.011c3.955 9.699 1.671 9.312-6.727 12.908-4.718 2.02-12.607 5.375-19.724 7.326-5.46 1.496-18.22 7.45-21.682-.441-2.068-4.714.074-8.867 3.953-10.751 3.891-1.887 33.037-14.053 33.037-14.053z" fill="#D8A344"/><path d="M184.807 192.754c3.529 1.422 6.547 6.887 6.547 6.887s-7.756 6.928-11.367 9.225c-.751.477-3.425 1.532-5.996 2.473-2.77 1.012-9.082 1.617-9.925 1.278-.914-.367-1.899-5.979.324-9.093 2.066-2.893 7.465-3.062 7.853-3.703 3.527-5.868 10.983-7.704 12.564-7.067z" fill="#131620"/><path d="M172.406 199.513s1.048-.043 1.901 1.923m-6.342-.427s.963-.308 2.001 1.638m.68-2.369s1.166.351 1.581 1.611" stroke="#29ABE3" stroke-width="3" stroke-miterlimit="10" stroke-linecap="round" stroke-linejoin="round"/><path d="M163.868 212.434l.2 1.017c.066.329.303.603.582.669 1.967.454 8.076-.709 10.422-1.6 2.309-.878 3.696-1.433 5.714-2.954 2.991-2.257 11.344-8.024 11.344-8.024s.146-1.379-.789-1.89c-.334-.182-9.691 6.827-13.773 9.781-.985.713-2.787 1.395-3.917 1.654-4.488 1.028-9.783 1.347-9.783 1.347z" fill="#29ABE3"/><path d="M172.974 199.22c.189.214.471.358.783.396 1.269.158 4.986.137 7.886-1.168 3.631-1.635 7.386-4.322 7.386-4.322l-4.542-7.909s-14.479-25.958-18.473-33.864c-2.907-5.756-7.07-10.281-13.159-8.35-5.712 1.811-6.33 5.337-3.543 11.473 1.949 4.286 13.746 25.521 13.746 25.521l7.363 14.787 2.553 3.436z" fill="#D8A344"/><path d="M188.129 192.781l-4.021-6.451s-3.944-6.8-9.005-16.187c-1.439-2.668-2.711-2.394-3.286-.495l-.088.005s-1.342 2.448-1.369 5.238c0 0 .336-1.613 1.135-2.975-.072 2.574.586 6.172 2.39 9.79.76 1.523 4.236 4.237 7.566 6.599-2.255-.688-5.074-1.701-6.188-2.727 0 0 5.219 5.245 9.982 5.601.162.011.302.013.43.011 1.464.967 2.454 1.591 2.454 1.591z" fill="#D8A344"/><path d="M207.112 156.614l10.706 7.209 2.142-1.334-11.776-7.479-1.072 1.604z" fill="#102441"/><path d="M217.141 162.896l1.184-1.325c.375-.421 1.006-.5 1.525-.192l1.941 1.152c.709.421.918 1.368.436 1.967l-1.072 1.33c-.36.447-.999.551-1.533.249l-2.052-1.156c-.754-.421-.966-1.424-.429-2.025zm-8.154-13.138h-7.494v53.525h7.494v-53.525z" fill="#102441"/><path d="M209.522 200.862c0 1.287-.862 2.304-1.852 2.167a9.85 9.85 0 00-2.17-.043c-1.116.093-2.09.21-2.846.315-.906.126-1.696-.789-1.696-1.966v-33.239h8.566v32.766h-.002z" fill="#273150"/><path d="M207.56 163.823v2.848" stroke="#273150" stroke-width="3" stroke-miterlimit="10" stroke-linecap="round" stroke-linejoin="round"/><path d="M207.381 173.703v24.181" stroke="#273150" stroke-width="5" stroke-miterlimit="10"/><path d="M65.635 214.288l-3.956-3.143 10.52-32.706 4.306 2.412-10.87 33.437z" fill="#C83F37"/><path d="M72.2 178.439l22.673-.477 4.63 2.165-22.999.724-4.305-2.412z" fill="#EB5E4D"/><path d="M99.504 180.127l-9.423 31.716-24.446 2.445 10.87-33.437 22.999-.724z" fill="#972D29"/><path d="M183.711 153.842l12.58 1.292c3.053.312 5.737-1.74 5.737-4.388v-2.655c0-2.659-2.289-7.029-5.354-6.698l-12.997 3.678c-2.566.279-4.49 2.158-4.49 4.384.002 2.236 1.944 4.122 4.524 4.387z" fill="#273150"/><path d="M224.381 153.739l-25.831 1.554c-3.484.209-6.425-2.553-6.425-6.036v-1.983c0-3.379 2.776-6.102 6.161-6.045l25.831.429c3.329.057 5.99 2.779 5.961 6.1-.027 3.175-2.517 5.789-5.697 5.981z" fill="#634874"/><path d="M225.692 151.336s-11.858-1.31-14.314-4.514c-2.456-3.204 10.419-2.315 10.419-2.315 3.353.056 5.597-2.477 7.005.844 1.344 3.179-.014 5.793-3.11 5.985z" fill="#634874"/><path d="M192.255 216.511a4.136 4.136 0 004.141-4.131 4.136 4.136 0 00-4.141-4.131 4.136 4.136 0 00-4.14 4.131 4.135 4.135 0 004.14 4.131zm29.511-.632a4.73 4.73 0 004.736-4.725 4.73 4.73 0 00-4.736-4.725 4.731 4.731 0 00-4.736 4.725 4.73 4.73 0 004.736 4.725z" fill="#131620"/><path d="M193.343 212.065s-.027.214 1.738-.265c1.859-.504 2.454-.758 2.513-1.114.074-.443-.228-1.498.417-1.735l5.665-1.914c.963-.282 1.957-.682 2.943-.491 0 0 11.393 3.049 12.69 3.276 1.297.227.848 1.676 1.509 1.854 1.157.315 2.668.218 2.668.218l.541-4.47-20.592-4.743-10.237 5.739.145 3.645z" fill="#102441"/><path d="M209.613 203.104s-12.252 4.666-14.444 5.249c-1.053.279-1.137 1.188-1.204 1.858l-.052.513c-.081.808-.115 1.517-.92 1.409l-4.933-.707a1.433 1.433 0 01-1.242-1.419 3.753 3.753 0 012.747-3.614c4.368-1.217 12.189-4.831 12.189-4.831l7.859 1.542z" fill="#273150"/><path d="M201.335 203.594s16.995 4.068 19.241 4.39c1.123.16 1.965 1.141 2.316 1.91.352.77-.207 2.115.598 2.005l3.963-.167c.712-.096 1.193-1.111 1.193-1.829 0-1.683-.808-3.161-2.432-3.613-4.368-1.218-17.762-4.757-17.762-4.757l-7.117 2.061z" fill="#273150"/><path d="M75.373 215.631l-4.91-3.834 12.614-40.441 5.333 2.927-13.037 41.348z" fill="#AA4928"/><path d="M83.077 171.356l27.951-.833 5.73 2.619-28.348 1.141-5.333-2.927z" fill="#F6CF4C"/><path d="M116.759 173.142l-11.272 39.204-30.113 3.285 13.037-41.348 28.348-1.141z" fill="#EE844E"/><path d="M79.892 221.432l12.988-2.072-.086-2.673-12.988 2.072.086 2.673z" fill="#F6CF4C"/><path d="M79.904 221.44c.503-.016.892-.628.868-1.367-.023-.739-.45-1.325-.953-1.309-.503.016-.892.628-.868 1.367.023.739.45 1.325.953 1.309z" fill="#F5864E"/><path d="M92.822 219.37c.503-.016.891-.628.868-1.367-.024-.739-.45-1.325-.954-1.309-.503.016-.891.628-.868 1.367.024.739.45 1.325.954 1.309zm-23.742-.942l7.333 1.886.444-2.995-7.552-1.085-.226 2.194z" fill="#F6CF4C"/><path d="M69.99 217.254c-.057.614-.463 1.147-.9 1.179-.433.031-.729-.441-.66-1.049.064-.598.46-1.109.883-1.15.43-.04.733.412.677 1.02z" fill="#F6CF4C"/><path d="M77.622 218.723c.027.844-.397 1.559-.943 1.584-.539.025-.974-.639-.98-1.463-.007-.807.403-1.485.922-1.525.525-.043.974.58 1.001 1.404z" fill="#F5864E"/><path d="M199.698 77.022l-4.415 2.543c-1.665.959-3.85.293-4.881-1.487l-4.46-7.711c-1.031-1.78-.517-4 1.147-4.961l5.79-5.443c1.664-.959 2.476 2.605 3.506 4.387l4.461 7.711c1.031 1.782.517 4.003-1.148 4.961z" fill="#A76343"/><path d="M199.754 73.81l-2.623 1.511c-.99.57-2.575-.323-3.543-1.995l-4.19-7.24c-.967-1.672-2.187-4.175-1.199-4.744l4.995-2.848c.99-.57 1.709 2.837 2.677 4.509l3.919 6.748c.97 1.671.952 3.49-.036 4.058z" fill="#AA6345"/><path d="M190.404 78.078l-4.461-7.711a3.717 3.717 0 011.367-5.085l4.733-2.727c1.784-1.028-.608 17.302-1.639 15.523zm-1.865 24.03s-6.453-5.56-10.85-7.608c-3.2-1.49-6.159 1.17-5.573 4.095.492 2.451 12.609 14.335 14.661 16.385 2.053 2.047 2.932 6.437 9.091 2.047 6.159-4.387-1.173-11.117-7.329-14.919z" fill="#7C4631"/><path d="M177.358 97.608s0-5.41-.815-7.304c-.814-1.892-4.336-4.801-5.692-5.611-1.355-.813-2.959 2.157-2.458 3.755.338 1.082 1.295 2.745 2.515 5.585 1.217 2.839 3.874 5.062 6.45 3.575z" fill="#7C4631"/><path d="M177.917 103.921l-4.937 2.797-8.376-15.289-3.279-6.68-3.164-5.033 4.436-2.257 2.569 5.01 4.276 6.971 8.475 14.481z" fill="#F5864E"/><path d="M175.852 106.015c1.383-.794 2.32-1.756 2.094-2.15-.227-.393-1.532-.068-2.915.726s-2.32 1.757-2.093 2.15c.227.393 1.532.068 2.914-.726z" fill="#EB5E4D"/><path d="M162.076 88.416c-1.34.115-1.626 1.52-1.175 2.511.451.993 1.2.94 2.702 1.13 1.91.24 5.022.4 5.245-.527.223-.929-.135-1.428-2.404-2.367-.778-.321-3.029-.861-4.368-.747z" fill="#7C4631"/><path d="M163.939 91.497c-.803-.212-1.538.666-1.204 1.437.325.752.663 1.49.843 1.755.302.444 3.333.536 4.975.554.566.007 1.051-.484 1.056-1.067l.004-.44a.92.92 0 00-.679-.92l-4.995-1.32z" fill="#7C4631"/><path d="M165.041 96.606l.28.392c.223.313.557.475.88.427l3.064-.445c.573-.083.903-.779.691-1.458-.154-.488-.548-.82-.968-.815l-3.344.052c-.778.016-1.133 1.105-.603 1.847z" fill="#7C4631"/><path d="M166.476 97.9l.286.754c.102.304.37.524.691.56 0 0 1.524.142 2.284.047.76-.094 1.092-.522.805-1.422-.286-.902-1.094-1.044-2.093-.95-.996.095-1.899.237-1.973 1.011zm3.245-13.696c-1.876-.43-3.276.223-6.114 1.362-1.765.709.585 3.071 2.231 2.907 1.579-.158 3.092-.403 3.734-.367 1.545.079 2.686-3.321.149-3.901z" fill="#7C4631"/><path d="M157.399 70.444c2.145-.934 7.88.906 10.417 1.806a.841.841 0 01.53 1.017l-.212.779s-3.57-.655-5.385-.871c-1.236-.148-2.21.743-2.706 1.328l-2.644-4.06z" fill="#102441"/><path d="M149.468 75.936l2.992-1.868a.957.957 0 00.44-.654l.266-1.605a.96.96 0 01.436-.652c.895-.567 3.281-2.032 5.351-2.932 2.343-1.02 8.608.99 11.378 1.973a.914.914 0 01.577 1.11l-.23.85s-3.899-.716-5.882-.952c-1.351-.162-2.415.813-2.956 1.45-.251.294-.593.935-.417 1.27l1.508 2.847c.244.461.354.808-.119 1.05l-4.838 2.467c-.412.209-.345.17-.618-.192l-1.614-2.162c-.271-.365-1.338-.549-1.75-.338l-2.767 1.411a.943.943 0 01-1.241-.349l-.848-1.444a.957.957 0 01.332-1.28z" fill="#634874"/><path d="M161.047 79.637c-1.193.668-2.359.898-2.602.513-.244-.385.638-1.015 1.833-1.683 1.196-.668 2.249-1.118 2.49-.736.244.385-.528 1.238-1.721 1.906z" fill="#F5864E"/><path d="M145.221 78.372c.043.936.379 2.412 1.942 3.238.415.218.656.38 1.06.126l2.252-1.424c.515-.322.682-.997.375-1.508l-1.536-2.553a1.062 1.062 0 00-1.484-.342l-2.23 1.41c-.418.266-.402.558-.379 1.053z" fill="#634874"/><path d="M170.68 206.881c.949 4.203.938 8.186.893 9.66a.698.698 0 01-.614.672c-2.505.333-12.306 1.609-15.768 1.71-2.903.086-10.331-.292-12.607-.965-1.046-.308-1.551-3.242-1.827-5.067-.363-2.403.645-4.576 4.772-5.947 4.116-1.365 9.905-.533 9.905-.533s14.914-.999 15.246.47z" fill="#131620"/><path d="M150.597 205.88s1.691-.187 2.607 2.504m.009-2.407s2.319-.376 3.009 2.495m-.294-2.448s2.328-.234 2.83 2.698" stroke="#29ABE3" stroke-width="3" stroke-miterlimit="10" stroke-linecap="round" stroke-linejoin="round"/><path d="M142.582 217.958s-.158 1.177.295 1.298c.923.246 5.819.621 12.334.383 4.767-.176 5.198-.416 7.765-.342 4.497.13 7.893-.473 8.107-.509.214-.036.359-.828.149-1.599-.077-.279-5.473 1.113-16.628 1.404-8.504.225-12.022-.635-12.022-.635z" fill="#29ABE3"/><path d="M153.984 204.872s2.395 2.927 6.743 4.163c4.407 1.251 11.107.893 11.107.893l3.405-5.738 4.612-35.41s5.359-26.683-2.929-29.255c-5.589-1.732-11.463-2.358-13.004 4.035-1.105 4.581-6.932 30.564-6.932 30.564l-.548 17.149s-3.419 9.518-3.46 9.855c-.137 1.087 1.006 3.744 1.006 3.744z" fill="#F6CF4C"/><path d="M215.996 125.384s9.151-4.412 11.776 6.113c2.625 10.526-6.957 10.978-6.957 10.978s-15.879 3.222-25.486 4.185c-7.406.743-26.291 6.728-28.912-2.011-1.569-5.236 2.251-9.248 7.783-10.611 5.532-1.364 41.796-8.654 41.796-8.654z" fill="#FEED7F"/><path d="M220.172 135.732c1.82-2.401 3.728-4.889 3.728-4.889.28-8.053-10.701-4.761-10.701-4.761s-28.925 4.986-40.724 8.397c-7.871 2.274-11.486 15.916.685 15.853 6.22-.031 33.377-5.119 33.377-5.119s13.48-5.348 16.344-10.127c.35-.585-1.328.592-2.709.646z" fill="#F6CF4C"/><path d="M194.73 70.986c1.833-1.164 7.503-2.33 9.67-1.497s13.68 16.554 17.931 27.032c2.267 5.587 6.204 29.648 6.204 32.143 0 2.496-16.014 4.635-16.014 4.635s-18.874-3.431-21.375-10.415c-1.01-2.821.871-4.45.501-7.486-.548-4.477-3.173-10.53-4.168-15.885-1.666-8.982-4.515-16.186-1.779-20.902 1.834-3.161 7.196-6.462 9.03-7.625z" fill="#29ABE3"/><path opacity=".5" d="M194.73 70.986c.661-.419 9.754 3.908 9.754 3.908l4.334 5.157s9.479 14.274 10.945 21.226c1.833 9.513 4.585 29.727 4.585 29.727s-2.648.693-4.835 1.132c-2.479.497-6.992 1.163-6.992 1.163-2.363-.447-8.299-1.71-13.217-4.054-3.636-1.735-6.624-4.075-7.686-7.043-1.01-2.821.399-3.768.027-6.804-.548-4.477-3.173-10.53-4.168-15.885-1.666-8.982-4.514-16.186-1.779-20.902 1.836-3.161 7.199-6.462 9.032-7.625z" fill="#209BC7"/><path d="M219.228 103.008l2.487 12.06s-2.187-3.245-2.464-6.237c-.28-2.991-.023-5.823-.023-5.823z" fill="#29ABE3"/><path d="M191.812 74.727s4.668-1.33 7.002-.666c2.335.666 7.17 8.15 9.003 13.806 1.834 5.657.835 8.316-3.002 9.149-3.833.832-5.502 2.162-11.17-3.328-5.667-5.488-9.501-15.3-1.833-18.96z" fill="#A96443"/><path d="M201.773 89.24c1.5.833 5.043 8.609-1.626 8.442-3.04-.076-8.827-5.861-9.503-8.316-.384-1.388-1.757-2.799-1.166-2.995 2.25-.749 10.795 2.039 12.295 2.869z" fill="#7C4631"/><path d="M183.477 82.713l2.417-2.772s1.166 9.258 3.918 13.002c2.751 3.744 10.004 8.4 10.004 8.4l8.001 16.8-.309 10.035c-.746 2.237-4.679 2.847-6.668 4.12l-18.507 6.471c-.193.122-3.001 12.807-3.001 12.807l-.722 9.092s-3.802-.11-13.806-1.109-20.983-4.324-20.983-4.324l7.003-27.612 40.323-4.741s-.638-.106-.995-1.658c-.782-3.418-1.869-10.974-3.59-19.551-2.501-12.474-3.085-18.96-3.085-18.96z" fill="#273150"/><path d="M185.139 80.614c1.59-6.343 9.657-10.245 16.844-12.26m1.07-.057s.503-2.882 1.835-2.716c1.333.169 1.153 2.53-1.835 2.716z" stroke="#F6CF4C" stroke-width="3" stroke-miterlimit="10" stroke-linecap="round" stroke-linejoin="round"/><path d="M202.416 68.648s1.463-1.6.21-2.547c-1.252-.947-1.739.407-.21 2.547zm.38-.196s2.433 1.2 2.643 3.229m-2.91-3.152s1.053 3.494-.16 5.29m4.449 44.266s9.838.056 19.341-1.442" stroke="#F6CF4C" stroke-width="3" stroke-miterlimit="10" stroke-linecap="round" stroke-linejoin="round"/><path d="M225.655 116.645s-.834 1.996.835 2.828c1.669.833 1.168-1.165-.835-2.828z" stroke="#F6CF4C" stroke-width="3" stroke-miterlimit="10" stroke-linecap="round" stroke-linejoin="round"/><path d="M229.325 117.588c.056-.833-2.334-1.886-3.5-1.164-1.168.72 3.444 1.994 3.5 1.164zm-3.89-.666s3.667 1.885 3.556 5.656m-3.056-5.6s.945-1.442 2.945-1.33" stroke="#F6CF4C" stroke-width="3" stroke-miterlimit="10" stroke-linecap="round" stroke-linejoin="round"/><path d="M193.314 75.394s-6.669 0-8.001 4.99c-1.333 4.99-3.279 14.643-3.5 16.967-.334 3.492-5.169 9.482-6.002 15.303-.834 5.82 1.372 8.25 5.003 9.897 8.251 3.742 10.669-10.395 11.67-14.055 1.002-3.659 5.336-11.145 8.335-17.631 3-6.487-.004-16.304-7.505-15.471z" fill="#A96443"/><path d="M180.809 122.549c8.251 3.742 10.669-10.395 11.67-14.056 1.002-3.658 5.336-11.144 8.336-17.63 1.72-3.722-4.597 7.667-10.438 17.907-1.33 2.333-10.642 13.293-9.568 13.779z" fill="#D77D5B"/><path d="M183.31 115.873c-1.175-3.258-6.263-4.92-10.748-5.222-4.351-.295-12.55 2.378-24.171 2.59-3.622.065-5.754 7.713-.145 8.559 6.547.988 25.622 3.071 27.563 3.154 1.94.084 9.621-3.197 7.501-9.081z" fill="#A76241"/><path d="M187.41 115.644c-.203-.486-.728-1.114-1.08-1.411-.266.351-3.085 4.878-5.958 6.138-4.168 1.829-10.147 2.439-10.147 2.439s-21.557-.317-15.89-.121c6.617.229 24.735 2.981 26.672 2.839 1.935-.142 9.188-4.284 6.403-9.884z" fill="#D77D5B"/><path d="M150.546 117.322c1.243-1.395-.744-5.748-.53-7.625.215-1.876-1.887-3.719-3.252-5.888-1.364-2.169-1.421-2.021-3.414-2.799-1.994-.779-3.712-1.195-3.072 1.066.641 2.262 2.567 2.928 2.567 2.928s.978 2.805 1.858 3.793c1.067 1.197-2.966 6.766-1.317 9.063 1.651 2.3 5.203 1.658 7.16-.538z" fill="#A76241"/><path d="M145.287 108.608s-4.465-.295-5.322-.594c-.855-.299-2.219-1.199-3.07-1.631-.426-.216-1.901-3.17-2.81-3.456-.908-.286-2.077.864-2.174 1.53-.193 1.334 1.069 3.706 2.188 4.684 1.121.979 1.292 1.524 3.845 2.822 2.553 1.3 3.798 2.819 6.985 2.533 3.186-.285 2.638-5.001.358-5.888z" fill="#A76241"/><path d="M132.99 106.597c-1.489-.099-1.053 4.248-.291 4.72.422.261 2.458 1.888 2.458 1.888l-.658.871c-.165.387.074 1.17.392 1.464l1.479 1.375.794 3.337s1.432 1.37 4.763 1.379c4.044.011 6.058.218 6.881-2.567.823-2.786-14.33-12.368-15.818-12.467z" fill="#A76241"/><path d="M179.829 42.975c-3.308-.785-10.597.09-12.018 6.246-.965 4.188 3.852 18.56 6.112 21.942 3.211 4.806 6.513 3.472 12.347 1.11 6.071-2.457 8.653-7.182 7.711-12.168-.943-4.986-3.823-14.677-14.152-17.13z" fill="#7A462F"/><path d="M178.903 51.195c-1.349 5.958-1.365 9.157-.131 12.285 1.231 3.127 6.148 9.04 8.919 6.952 1.36-1.023 3.013-2.162 3.868-4.4.473-1.238-.46-4.6-1.547-6.647-1.831-3.459-9.765-14.135-11.109-8.19z" fill="#A96443"/><path d="M167.708 49.651s1.883 1.753 11.479-2.432c.205-.09 1.428 7.832 4.689 10.215 1.19.87.568-3.688 2.063-2.558 2.483 1.876 4.31 4.803 4.31 4.803l1.962 6.409s9.814-2.493 6.702-12.542c-3.087-9.974-7.113-20.49-22.13-12.735-7.909 4.084-9.134 5.785-9.075 8.84z" fill="#273150"/><path d="M181.945 43.473c.473 1.737 6.429 4.853 6.429 4.853l6.915 5.52s2.568 11.024 3.41 2.947c.457-4.406-3.485-15.665-9.759-17.715-3.331-1.089-8.349-.569-6.995 4.395z" fill="#48598B"/><path d="M187.688 61.128c1.767-.192 2.937-2.747 2.614-5.706-.322-2.96-2.017-5.204-3.783-5.012-1.767.192-2.938 2.747-2.615 5.706.323 2.96 2.017 5.204 3.784 5.012z" fill="#A96443"/><path d="M173.001 59.631c.512-.208.645-1.064.299-1.914-.347-.85-1.042-1.37-1.553-1.162-.511.207-.644 1.064-.298 1.913.346.85 1.041 1.37 1.552 1.163z" fill="#102441"/><path d="M170.268 54.223s1.673-.706 3.281.398" stroke="#102441" stroke-width="2" stroke-miterlimit="10" stroke-linecap="round" stroke-linejoin="round"/><path d="M182.101 44.85s4.33 3.206 6.023 3.62c0 0-2.925.684-6.023-3.62z" fill="#48598B"/><path d="M187.657 61.599a1.435 1.435 0 100-2.867c-.794 0-1.437.642-1.437 1.433 0 .792.643 1.434 1.437 1.434z" fill="#F3E7D7"/><path d="M92.81 215.717l-3.399-1.193-2.296-82.16h5.695v83.353z" fill="#273150"/><path d="M92.81 181.269l-4.288-.978-1.407-47.927h5.695v48.905z" fill="#102441"/><path d="M97.845 215.152l-5.035.565v-83.761h6.517l-1.482 83.196z" fill="#634874"/><path d="M97.845 215.152l-5.035.565v-34.448l5.786-9.168-.75 43.051z" fill="#634874"/><path d="M93.181 133.916l1.831 11.392 31.535 1.782 27.883-1.224 1.263-13.374-62.512 1.424z" fill="#C83F37"/><path d="M93.181 133.916l1.807 11.392 31.083 1.782-.616-13.917-32.274.743zm32.326.178l.224 5.103 29.448-1.389.456-5.316-30.128 1.602z" fill="#972D29"/><path d="M117.985 224.886l-5.509-1.546-4.662-90.922h8.834l1.337 92.468z" fill="#273150"/><path d="M116.914 180.023l-6.601-.801-2.499-46.804h8.834l.266 47.605z" fill="#102441"/><path d="M122.504 224.4l-4.52.483-2.14-92.088h7.136l-.476 91.605z" fill="#634874"/><path d="M122.801 167.74l-5.888 12.283 1.071 44.86 4.519-.483.298-56.66z" fill="#634874"/><path d="M164.543 222.154l-4.091-1.302-3.601-88.248 6.709-.184.983 89.734z" fill="#273150"/><path d="M163.916 165.981l-5.784-.853-1.281-32.524 6.709-.184.356 33.561z" fill="#102441"/><path d="M169.551 221.736l-5.009.373-.983-89.689 6.606-.302-.614 89.618z" fill="#634874"/><path d="M169.552 221.736l-5.009.373-.627-56.128 6.082-7.5-.446 63.255z" fill="#634874"/><path d="M125.478 135.34l-48.342-1.411v-8.561l48.342-1.512v11.484z" fill="#273150"/><path d="M125.479 135.34l58.673-1.707v-9.972l-58.673.2v11.479z" fill="#634874"/><path d="M152.17 133.817l31.815-1.208.198-7.358-23.391.329-8.622 8.237z" fill="#634874"/></g><defs><clipPath id="clip0_103_1957"><path fill="#fff" transform="translate(0 -7)" d="M0 0h282v241H0z"/></clipPath></defs></svg>