<svg width="284" height="258" fill="none" xmlns="http://www.w3.org/2000/svg"><g filter="url(#filter0_d_0_93)"><rect x="-507" y="289" width="970" height="322" rx="10" fill="#fff"/></g><g filter="url(#filter1_d_0_93)"><rect x="-67" y="-23" width="970" height="322" rx="10" fill="#fff"/></g><path d="M179.024 40.954s-1.338-19.733 13.719-23.745c15.058-4.012 20.744 7.357 20.744 7.357s4.35-3.679 7.36-3.679c3.01 0 3.681 3.012 3.681 3.012s11.711-4.349 13.719-3.679c2.009.67-12.715 8.36-31.45 15.718-18.736 7.357-37.81 14.047-37.81 14.047l10.037-9.031zm-53.346 27.17s-5.247-18.227-16.737-21.973c-11.49-3.747-12.74 1.748-12.74 1.748s3.248-23.97-8.245-27.965c-11.493-3.995-25.73-.5-36.223 7.74-10.493 8.241-8.744 16.23-6.494 21.724 0 0-2.75.998-6.495 3.495-3.748 2.497-1.498 8.988 1 10.238h-8.245c-2.25 0 5.496 2.996 12.99 5.743 6.406 2.35 17.562 5.245 26.908 7.127 1.476.296 2.476-1.46 1.469-2.577l-1.398-1.553s27.79 4.993 46.214 7.49c14.741 1.997 7.996-11.237 7.996-11.237zm120.976 1.993s-14.703 8.052-26.384 11.474c-11.681 3.423-16.918 3.825-16.918 3.825l21.753-8.657s4.23-10.065 8.46-9.664c4.23.402 6.243 2.618 6.243 2.618s4.03-4.028 6.043-3.02c2.013 1.01.803 3.424.803 3.424z" fill="#F3E7D9"/><path d="M132.157 218.73s-48.97 3.701-55.556 3.701c-6.585 0-35.803 3.29-41.153 3.29-5.35 0 4.115 4.112 4.115 4.112l-12.758 8.228 5.761 4.936s32.922 4.524 43.621 4.524c5.761-.411 32.922-8.228 32.922-8.228l12.758-2.469 24.28 4.524 14.814-2.469 8.232-3.495s5.35-1.44 16.873-1.44c11.522 0 44.856.823 50.205.823l2.059-7.405 9.464-6.582-115.637-2.05z" fill="#856792"/><path d="M99.75 220.785s-13.273-1.234-9.259 1.852c4.012 3.084 14.199 2.16 14.199 2.16s-8.64.926 4.938 3.393c13.581 2.469 76.854-2.778 76.854-2.778s.618-4.627-22.222-4.627H99.75zm-41.257 13.164s-30.042 4.935-24.28 6.993c5.761 2.057 20.987.411 20.987.411l12.758 2.879s25.104-8.228 17.696-9.049c-7.409-.82-27.16-1.234-27.16-1.234zm49.18-1.953s-7.119-.509-7.629.763c-.51 1.27 7.629 1.779 9.155 1.017 1.527-.763-1.526-1.78-1.526-1.78zm6.123-1.324s-4.68-.334-5.013.501c-.334.836 5.013 1.17 6.017.668 1.004-.502-1.004-1.169-1.004-1.169zm92.435-4.025s-7.099 3.392-.309 2.469c6.791-.926 7.409-2.778.309-2.469z" fill="#665070"/><path d="M217.651 228.087s-5.555-1.852-4.629.309c.927 2.158 7.1 1.234 4.629-.309zm-15.115-1.869s-6.048.624-2.054 1.425c3.994.803 5.167-.863 4.155-1.202-1.012-.339-2.101-.223-2.101-.223zm31.267 10.609l-46.502-1.029-12.244-.206-10.802 4.936 4.938 4.936s2.264 1.234 13.581 2.263 41.359 3.084 43.415 2.878c2.059-.206 9.053-10.9 9.053-10.9l-1.439-2.878zm-92.694 8.022c6.482-2.778-19.446-6.479-19.446-6.479s-33.95 6.17-25.001 8.945c0 0 37.965.309 44.447-2.466zm14.094-18.099s-26.131 4.112-18.314 6.581c7.82 2.469 15.055 2.091 14.814.412-.206-1.44-4.732-2.675-4.732-2.675s13.17-.412 13.582-1.852c.411-1.44-5.35-2.466-5.35-2.466z" fill="#665070"/><path d="M150.984 242.688l10.185-.926 8.335 5.247-30.866 2.158 5.247-3.392 7.099-3.087z" fill="#856792"/><path d="M111.273 194.047s-6.095-7.109-10.667-9.646c-4.571-2.539-5.924 6.092-2.03 7.445 0 0-2.031 1.691-2.031 3.553v1.862s-3.387-1.185-4.74 1.184c-1.356 2.369.339 3.892.339 3.892s-2.37 1.184-2.37 2.878c0 1.694.678 2.878 3.725 2.708 0 0-1.862 1.862.169 3.385 2.03 1.523 6.263 2.539 9.311-1.692 3.045-4.23 8.294-15.569 8.294-15.569zm-9.158-21.41c-2.37-1.523-3.047.169-3.555 2.03-.507 1.862 3.555 1.692 3.555 1.692s-1.185.338-2.54.845c-1.356.507 1.862 5.586 4.739 3.215 2.882-2.367-2.199-7.782-2.199-7.782z" fill="#288453"/><path d="M97.8 222.017s.524-4.393-1.858-5.262c-2.383-.868-2.049 1.546-2.049 1.546s-2.6-7.287-7.466-5.42c-4.865 1.867-2.171 5.952-2.171 5.952s-2.591-7.688-5.54-2.559c-2.953 5.126.265 4.817.265 4.817s-5.06-5.352-6.687-4.597c-1.625.756-.068 2.404-.068 2.404s-9.08-5.063-12.41-.75c-3.328 4.313 1.492 4.05 1.492 4.05s-16.84-.073-13.29 2.03c3.55 2.103 10.84-.497 15.637.038 4.798.534 34.144-2.249 34.144-2.249zm20.193-114.51c-4.263-8.597-7.808 1.25-7.808 1.25-4.353-2.896-6.394 5.598-2.62 7.259 0 0-2.162 1.523-2.31 3.38l-.148 1.854s-3.281-1.452-4.82.801c-1.54 2.253.025 3.907.025 3.907s-2.458.991-2.593 2.677c-.136 1.686.444 2.921 3.497 2.996 0 0-2.006 1.706-.103 3.388 1.903 1.681 6.04 3.031 9.416-.941 1.931-2.271 11.126-2.442 13.022-8.384 1.421-4.451-3.731-14.503-5.558-18.187z" fill="#33A86D"/><path d="M73.905 136.81c-7.05 6.512 3.402 7.137 3.402 7.137-1.552 4.991 7.177 4.554 7.706.466 0 0 2.074 1.641 3.897 1.263l1.822-.382s-.47 3.556 2.13 4.396c2.597.841 3.742-1.126 3.742-1.126s1.645 2.077 3.301 1.731c1.657-.346 2.679-1.25 1.891-4.198 0 0 2.204 1.443 3.281-.858 1.077-2.299 1.207-6.647-3.56-8.765-2.724-1.209-5.48-9.982-11.719-10.125-4.677-.105-12.873 7.671-15.893 10.461z" fill="#33A86D"/><path d="M125.778 139.081s-2.259-12.973-5.575-12.827c-3.317.145-.806 4.888-.806 4.888s-4.627-4.085-6.874-1.789c-2.247 2.296.557 3.345.557 3.345s-5.595 2.853-2.791 3.902c2.804 1.048 4.644-1.278 4.644-1.278s-.216 7.824 2.475 5.152c2.692-2.672 3.711-5.066 3.711-5.066s-.07 11.136 4.659 3.673z" fill="#288453"/><path d="M137.742 115.238s6.854-2.84 1.472-5.746c-5.383-2.906-3.359 1.613-3.359 1.613s3.085-2.391-1.928-6.734c-5.016-4.344-3.59 3.44-3.59 3.44s-2.139-3.609-4.607-3.179c-2.465.429-5.415 3.209-1.356 4.835 0 0-8.698 1.31-6.717 3.229 1.983 1.92 3.283 1.9 3.283 1.9s-5.688 2.431-4.072 5.789c1.617 3.357 5.089.83 5.089.83s-.223 10.542 8.068 8.067c8.292-2.474.287-6.639.287-6.639s8.897 2.981 7.009-1.152-4.921-6.556-4.921-6.556 9.485 7.133 5.342.303z" fill="#288453"/><path d="M120.513 127.519s-2.131-4.299 2.792-3.902c4.923.396 2.508 4.74 2.508 4.74s2.759-3.493 3.692.296c.934 3.789-.871 5.706-.871 5.706s4.499-4.592 4.446 1.182c-.05 5.773-3.921 2.574-3.921 2.574s-.871 5.706-3.743 5.478c-2.872-.228-1.31-4.233-1.31-4.233s-11.85 3.588-9.746-2.02c2.101-5.608 3.824-1.343 3.824-1.343s-5.481-3.741-3.608-6.479c1.868-2.74 5.937-1.999 5.937-1.999z" fill="#33A86D"/><path d="M109.794 174s-13.277-19.213-11.92-26.884c1.359-7.668-.303-19.284-6.544-24.601l.944-2.517s8.084 5.463 8.42 15.121c.336 9.656-1.772 12.82-.477 15.146l1.295 2.326 4.73-8.137-.261-15.207 1.622-1.721.878 16.737-4.26 11.51 7.639 10.983-2.066 7.244z" fill="#7A462F"/><path d="M69.055 130.813s-3.48 2.196-.708 3.656c2.771 1.461 3.989-3.392 3.989-3.392s-3.776 5.886-.216 7.824c3.56 1.937 5.661-3.672 5.661-3.672s-.083 6.183 3.231 6.038c3.314-.146 2.857-4.723 2.857-4.723s.803 5.43 4.037 1.15c3.233-4.281-1.115-6.693-1.115-6.693s8.5-3.031 4.94-4.968c-3.56-1.937-4.546.048-4.546.048s.314-9.054-2.59-8.873c-2.905.181-3.07 2.231-3.07 2.231s-5.772-10.369-6.48-6.71c-.708 3.658 1.147 6.283 1.147 6.283s-6.678-4.251-7.383-.592c-.706 3.658 3.118 2.314 3.118 2.314s-8.747.948-8.157 3.884c.59 2.936 3.658.707 3.658.707s-6.713 6.477-3.022 6.773c3.697.291 4.649-1.285 4.649-1.285z" fill="#288453"/><path d="M82.37 118.751s-4.114-.12-2.628 2.64c1.483 2.76 5.204-.59 5.204-.59s-6.422 2.775-4.549 6.369c1.873 3.593 6.748.113 6.748.113s-3.525 5.083-.693 6.81c2.832 1.729 5.008-2.324 5.008-2.324s-2.367 4.951 2.707 3.207c5.073-1.746 2.814-6.173 2.814-6.173s8.746 2.229 6.873-1.365c-1.872-3.593-3.798-2.496-3.798-2.496s5.32-7.335 2.809-8.808c-2.51-1.473-3.79.136-3.79.136s1.001-11.824-1.627-9.184c-2.629 2.639-2.558 5.851-2.558 5.851s-3.166-7.252-5.794-4.612c-2.629 2.64 1.292 3.659 1.292 3.659s-7.784-4.095-8.937-1.33c-1.15 2.765 2.641 2.627 2.641 2.627s-9.188 1.626-6.29 3.932c2.896 2.306 4.568 1.538 4.568 1.538z" fill="#288453"/><path d="M91.893 106.847s-4.115-.12-2.629 2.64c1.486 2.76 5.204-.59 5.204-.59s-6.421 2.776-4.549 6.369c1.873 3.593 6.749.113 6.749.113s-3.525 5.083-.693 6.81c2.831 1.729 5.008-2.324 5.008-2.324s-2.367 4.951 2.706 3.207c5.074-1.744 2.814-6.173 2.814-6.173s8.747 2.229 6.874-1.365c-1.873-3.593-3.798-2.496-3.798-2.496s5.319-7.335 2.809-8.808c-2.511-1.473-3.791.136-3.791.136s1.002-11.824-1.627-9.184c-2.628 2.64-2.558 5.851-2.558 5.851s-3.166-7.252-5.794-4.612c-2.628 2.64 1.293 3.659 1.293 3.659s-7.785-4.095-8.937-1.33c-1.15 2.765 2.64 2.627 2.64 2.627s-9.187 1.626-6.29 3.932c2.9 2.314 4.569 1.538 4.569 1.538z" fill="#288453"/><path d="M109.909 108.707s-4.114-.121-2.628 2.639c1.484 2.761 5.204-.589 5.204-.589s-6.422 2.775-4.549 6.368c1.873 3.593 6.748.113 6.748.113s-3.525 5.084-.693 6.81c2.832 1.727 5.008-2.323 5.008-2.323s-2.367 4.95 2.707 3.206c5.073-1.743 2.814-6.172 2.814-6.172s8.746 2.228 6.873-1.365c-1.872-3.594-3.798-2.497-3.798-2.497s5.32-7.335 2.809-8.808c-2.51-1.472-3.79.136-3.79.136s1.001-11.824-1.627-9.184c-2.629 2.64-2.558 5.852-2.558 5.852s-3.166-7.252-5.794-4.612c-2.629 2.639 1.293 3.658 1.293 3.658s-7.785-4.095-8.938-1.33c-1.149 2.765 2.641 2.627 2.641 2.627s-9.188 1.626-6.291 3.932c2.897 2.306 4.569 1.539 4.569 1.539z" fill="#288453"/><path d="M176.602 66.328l18.931 10.488a3.126 3.126 0 011.405 1.963s5.179 8.732 6.826 12.024c2.679 5.357 8.716 47.731 8.716 47.731.149.65.503 1.237 1.01 1.671l9.459 8.135a3.126 3.126 0 011.072 2.053l2.528 24.739 4.318 42.243a3.132 3.132 0 01-2.953 3.443l-29.105 1.508a3.133 3.133 0 01-3.171-2.258l-20.003-69.472a3.143 3.143 0 01-.123-.825l-1.027-79.73c-.03-2.466.018-5.01 2.117-3.713z" fill="#CE9436"/><path d="M96.331 222.067l15.801-94.358 8.254-9.229 18.436-48.1a2.817 2.817 0 012.29-1.789c6.941-.846 33.034-3.947 34.463-2.878 1.647 1.234 4.531 29.519 4.732 31.263l3.146 44.251 11.183 11.698 1.821 69.664-100.126-.522z" fill="#F7BC4B"/><path d="M140.856 68.626l16.679-1.887-15.502 22.006 5.556 1.543-7.971 1.034-6.499 25.873 22.907 1.782-35.64-.499 18.436-48.276a2.478 2.478 0 012.034-1.576z" fill="#CE9436"/><path d="M120.386 118.48l-8.254 9.227-6.997 42.484-1.647 3.428-.745 4.183.801 1.219-1.14 6.795 26.058.984 13.571.05-23.455-29.411 11.521-.412v-28.382l7.305-9.974-17.018-.191z" fill="#CE9436"/><path d="M102.494 185.342l-6.163 36.725 55.272.261-3.088-14.501-20.256-22.854-25.765.369zm40.26-61.525a.904.904 0 00-.776.826c-.314 4.022-1.828 23.489-1.828 24.189 0 .78-4.159 4.158-4.159 4.158l-1.562 22.355h.781l1.82-22.094 3.901-3.38 1.823-26.054zm-.856 26.425s18.798-.108 19.32-.108c.522 0 .259 27.033.259 27.033h-.781l.261-26.255-19.059-.67z" fill="#CE9436"/><path d="M156.779 175.606l-13.305-.547-.411.411-8.634.495.334-.936 8.094-.038.549-.351 13.373.487v.479z" fill="#CE9436"/><path d="M130.648 186.644l-2.194-.138s-7.744.459-14.548.344c-.321-.005-.77-.944-1.089-.949-5.079-.085-9.65-.14-10.411-.085l-.118.758s4.737-.005 10.378.022c.389.003.911.936 1.308.939 5.35.027 11.254-.387 14.618-.274l2.194.206-.138-.823z" fill="#F7BC4B"/><path d="M178.661 186.097s.549 26.463.549 31.398v4.936l.55-.138-.412-34.552-.687-1.644z" fill="#CE9436"/><path d="M186.101 186.097l-25.102.409-.138.961 25.24-1.37z" fill="#CE9436"/><path d="M130.51 175.4s-.256 26.887-.256 30.106c0 3.22-.223 8.815-.223 8.815l.532-.02s.703-32.618.565-38.366l6.035-.307-6.653-.228z" fill="#F7BC4B"/><path d="M175.881 145.716l.103 20.156 14.405-.102-.206 11.106-.412-10.283-14.608-.206.412-19.643.306-1.028zm-35.427-55.109l-.836.716 26.038-1.064 1.276-.69" fill="#CE9436"/><path d="M165.902 77.228l.617 18.1 7.615.102-7.032-2.605-1.2-15.597z" fill="#CE9436"/><path d="M132.363 158.879s-14.541-2.81-22.567-.958l22.567.958z" fill="#F7BC4B"/><path d="M152.048 159.451c0-1.884-1.605-3.194-3.435-2.948-1.682.226-2.949 1.709-2.949 3.327 0 1.26.77 2.344 1.907 2.775v4.063c0 .537.45 1.031 1.017 1.106l.201.028c.59.08 1.08-.314 1.08-.881v-4.341c1.247-.484 2.179-1.693 2.179-3.129z" fill="#1689CB"/><path d="M152.974 159.451c0-1.884-1.604-3.194-3.434-2.948-1.682.226-2.95 1.709-2.95 3.327 0 1.26.771 2.344 1.908 2.775v4.324c0 .537.485.951 1.017.873l.201-.002c.59.08 1.079-.314 1.079-.881v-4.341c1.248-.482 2.179-1.691 2.179-3.127z" fill="#121721"/><path d="M160.279 142.233l-.55-11.942c-.027-.007-13.687-3.003-13.687-3.003l14.717.534-.48 14.411z" fill="#CE9436"/><path d="M124.475 130.153l11.935-.411 1.029.514-12.278.449-1.233 14.805.547-15.357z" fill="#F7BC4B"/><path d="M157.055 117.539v-12.855l.618-8.122.135 20.842-.753.135zm5.35-.412l14.814-.308.241 1.199-13.581-.306-1.474-.585zm-1.167 33.045l1.785 16.529 2.194 1.503.891-.138 5.556 1.41-10.973.276.547-19.58z" fill="#CE9436"/><path d="M198.515 122.063l-2.159-9.871-3.753-.936-6.123-1.531 9.156 3.496 2.879 8.842z" fill="#F7BC4B"/><path d="M175.778 145.098l-11.214.103-.923-.82 12.343.205-.206.512zm-16.461 33.218l-.143 9.425.507 1.302-.02 1.232-.256 14.28.736-.12.823-26.119h-1.647z" fill="#CE9436"/><path d="M134.281 116.259l.994 3.014 1.163-2.866-2.157-.148zm46.952 4.881l4.115 2.364-3.911 2.88-.204-5.244z" fill="#F7BC4B"/><path d="M183.392 130.394l-3.045 2.03a.442.442 0 00.06.77l3.294 1.521-.309-4.321z" fill="#CE9436"/><path d="M152.495 219.277l-5.865-1.234 6.071-2.056-.206 3.29zm41.597-39.215c.617 0 3.909 2.058 3.909 2.058l-3.703 1.646-.206-3.704z" fill="#F7BC4B"/><path d="M135.657 161.622v3.565l-3.706-1.372 3.706-2.193z" fill="#CE9436"/><path d="M158.906 163.403l3.499 1.373-3.499 1.92v-3.293zm-18.415 32.701l-1.235 5.247 4.012-2.161-2.777-3.086zm-10.186 5.247l-4.321 3.084 4.012 2.16.309-5.244z" fill="#F7BC4B"/><path d="M166.588 117.404l1.682 3.119 1.612-2.984-3.294-.135z" fill="#CE9436"/><path d="M188.022 82.987l5.246 3.909 1.441 12.544-.823-12.956-6.173-5.038.309 1.54zm4.219 15.529l1.336 13.059-.974-.319-.876-13.46.514.72z" fill="#F7BC4B"/><path d="M191.727 97.796l9.361 3.804-9.259-2.775-.102-1.029zm22.569 69.813l8.621.261-9.703.938a1.057 1.057 0 011.082-1.199zm-17.322-52.125l2.056 1.026-1.542 1.441-.514-2.467zm14.539 23.956l-10.24-1.169 9.691-.096.549 1.265z" fill="#F7BC4B"/><path d="M202.509 138.338l1.762 7.405-3.303-7.49 1.541.085zm-.352 2.658l-2.051 1.744 2.872.258-.821-2.002zm11.139 26.59l-1.029 8.843 2.264 7.405.618 9.151.412-9.357-2.265-6.788v-9.254z" fill="#F7BC4B"/><path d="M177.219 68.18l-1.85 3.906 4.321 1.647-2.471-5.553z" fill="#CE9436"/><path d="M194.538 205.383c1.647-.66 1.029-4.205-1.441-2.968-2.468 1.239-.206 3.628 1.441 2.968zm5.762.936s-.653-1.884-2.811-1.884c-2.159 0-3.465 2.366-.068 4.215 3.396 1.85 2.879-2.331 2.879-2.331zm-9.997-3.784c2.466-1.124.43-2.544-1.019-2.785-1.446-.243-1.446 3.909 1.019 2.785zm9.961-.672s0-3.084-1.853-3.084c-1.85 0-4.32 2.16 1.853 3.084zm-4.835-8.637s-2.779 3.392.618 2.469c3.396-.923 2.467-2.16-.618-2.469zm-1.234-7.096s-3.703 5.553-2.779 1.852c.928-3.702 2.779-1.852 2.779-1.852z" fill="#3E4C6F"/><path d="M192.149 192.094c-1.742.309-2.49 4.319.497 3.701 2.987-.617 1.245-4.009-.497-3.701zm2.051 3.875c-1.65.301-2.355 4.213.472 3.61 2.826-.602 1.177-3.912-.472-3.61z" fill="#3E4C6F"/><path d="M193.845 211.423s-2.94-3.949-.708-4.03c2.232-.08 1.581 1.528 1.581 1.528s2.338.01 1.21 1.752c-1.129 1.744-2.083.75-2.083.75zm-87.888-17.61s-2.917-2.409.635-4.436c3.552-2.028 4.313 2.662 3.552 3.55-.763.886-3.047 1.649-4.187.886z" fill="#856792"/><path d="M106.59 194.701s1.521-1.902 2.664-.888c1.142 1.014 1.267 2.662 0 3.676 0 0 .635-1.52 2.789-1.014 2.156.507-.128 4.565-.128 4.565s1.521-1.014 1.775.507c.253 1.52 0 3.297-2.029 2.915-2.028-.381-1.649-1.774-1.649-1.774s-1.142.761-2.536-.634c-1.393-1.396-.128-3.551-.128-3.551s-2.661-2.153-.758-3.802zm-4.82 9.001s.889-1.648-1.014-2.155c-1.903-.507-2.789.76-1.521 1.902 1.267 1.141 2.535.253 2.535.253z" fill="#856792"/><path d="M104.687 199.138c-.253-.761-.76-2.788 1.268-2.663 2.029.128 1.903 2.788.761 3.17-1.14.381-1.775.253-2.029-.507zm3.653-11.111c-.208-.627-.628-2.304 1.047-2.201 1.677.106 1.571 2.304.628 2.617-.942.317-1.467.211-1.675-.416zm3.296 5.578c-.208-.627-.628-2.304 1.047-2.201 1.677.106 1.571 2.304.627 2.617-.944.314-1.463.211-1.674-.416zm-2.663 14.451c-.208-.628-.628-2.304 1.047-2.201 1.677.106 1.571 2.304.627 2.617-.941.316-1.463.214-1.674-.416z" fill="#856792"/><path d="M106.183 189.673c-.208-.627-.627-2.304 1.047-2.201 1.677.106 1.572 2.304.628 2.617-.942.319-1.466.214-1.675-.416z" fill="#856792"/><path d="M192.339 145.261s1.034-3.638-3.043-3.294c-4.074.344-2.038 4.637-.908 4.938 1.132.299 3.444-.369 3.951-1.644z" fill="#3E4C6F"/><path d="M192.321 146.353s-2.332-.703-2.696.78c-.364 1.483.467 2.911 2.089 3.027 0 0-1.386-.894-2.875.747-1.488 1.641 2.696 3.686 2.696 3.686s-1.83.028-1.174 1.426c.655 1.397 1.872 2.715 3.326 1.249 1.456-1.465.349-2.396.349-2.396s1.371-.02 1.73-1.96c.356-1.939-1.911-2.993-1.911-2.993s.969-3.29-1.534-3.566z" fill="#856792"/><path d="M201.398 151.028s-1.666-.853-.389-2.351c1.278-1.496 2.729-.956 2.333.702-.397 1.659-1.944 1.649-1.944 1.649zm-4.992-2.103c-.223-.77-.956-2.728-2.556-1.473-1.599 1.255.018 3.375 1.173 3.041 1.155-.333 1.606-.798 1.383-1.568zm-9.314-7.079c-.183-.637-.791-2.253-2.111-1.217-1.321 1.037.015 2.788.969 2.512.954-.273 1.325-.657 1.142-1.295z" fill="#3E4C6F"/><path d="M187.543 148.31c-.183-.637-.79-2.253-2.111-1.217-1.32 1.037.015 2.788.969 2.512.954-.274 1.326-.657 1.142-1.295z" fill="#856792"/><path d="M197.941 158.699c-.183-.638-.79-2.254-2.111-1.217-1.32 1.036.015 2.787.969 2.511.954-.273 1.326-.657 1.142-1.294zm-8.138-16.717c-.184-.637-.791-2.253-2.111-1.217-1.321 1.036.015 2.788.969 2.512.953-.276 1.325-.66 1.142-1.295zm-58.881 80.861s-2.368-6.479-4.733-6.788c-2.367-.308 2.88 5.759 2.88 5.759s-3.6-3.084-6.379-3.804c-2.779-.72 3.085 4.113 3.085 4.113s-5.658-2.47-6.687-2.264c-1.03.206 6.687 2.981 7.408 3.084.723.106 4.426-.1 4.426-.1zm0-.309s-.617-6.067 1.132-7.816c1.75-1.749 1.205 1.636.618 3.392-1.338 4.013-1.75 4.424-1.75 4.424z" fill="#3E4C6F"/><path d="M95.12 223.46c0-.926-.205-6.479 1.956-9.254 2.162-2.778 3.497-2.264 3.497-2.264l-4.011 9.46s2.264-3.289 3.908-3.804c1.647-.514 2.162-.103 2.162-.103l-6.482 5.656-1.03.309z" fill="#856792"/><path d="M191.418 211.84s.617-3.393-1.853-5.553c-2.47-2.161-4.321 1.234-4.321 1.234s-.926-4.627-5.555-5.244-3.808 9.768-3.5 11.926c0 0-7.305-8.228-11.317-6.067-4.011 2.16 6.585 9.768 8.438 11.003 0 0-11.214-3.907-13.684-2.981-2.471.926 2.779 6.788 6.79 7.405 4.012.617 7.409 2.469 12.038.308 0 0 11.111 3.393 14.199-.308 3.085-3.704-1.235-11.723-1.235-11.723z" fill="#3E4C6F"/><path d="M190.629 225.206s-.823-8.637 3.291-12.34c4.115-3.701-.411 6.582-.411 6.582s4.526-6.171 6.173-5.348c1.647.823-1.647 5.348-1.647 5.348s.823-.823 2.059.823c1.235 1.646-6.721 5.073-6.721 5.073l-2.744-.138z" fill="#856792"/><path d="M215.372 222s-2.661-6.886 1.202-5.446c3.864 1.441 2.458 2.869 2.458 2.869s3.929-11.525 6.843-8.321c2.915 3.204 1.825 4.562 1.825 4.562s2.521-13.317 6.743-9.5c4.223 3.816-1.574 8.335-1.574 8.335s4.153-4.674 5.149-.777c.994 3.899-5.319 7.685-5.319 7.685l-17.327.593z" fill="#3E4C6F"/><path d="M190.697 217.897s2.4-5.011-.226-5.734c-2.628-.722-2.395 2.861-2.395 2.861s1.175-3.182-2.887-3.43c-4.061-.249-2.158 4.057-2.158 4.057s-4.979-6.619-8.092-3.52c-3.112 3.099 1.183 5.736 1.183 5.736s-3.826 1.425-1.203 4.057c2.624 2.633 5.016 1.443 5.016 1.443s-4.549 3.573-.246 2.866c4.303-.708 3.191 0 5.455 0 2.265 0 3.389-.7 6.495-.693 3.108.008 1.837-2.544 1.837-2.544s6.543-4.366 2.96-5.807c-3.585-1.437-5.739.708-5.739.708z" fill="#33A86D"/><path d="M207.672 222.843c-.823-.823-7.463-7.174-3.587-6.715 3.876.459 3.585 2.095 3.585 2.095s-.904-8.948 2.261-5.824c3.169 3.127 1.853 5.917 1.853 5.917s4.567-5.355 4.346-1.842c-.219 3.511-.849 4.105-.849 4.105s3.193-6.479 4.06-3.824c.866 2.655-2.516 5.468-2.516 5.468-3.577.72-8.329 1.443-9.153.62z" fill="#3E4C6F"/><path d="M57.106 233.171s-.374 2.045-.199 3.081c.176 1.037 1.1 1.064 2.641 1.112 1.542.048 2.593-.64 4.024-.286 1.431.354 4.303-.482 5.15-1.177.845-.693.572-1.869.293-2.803-.279-.936-1.38-.833-4.263-.82-2.884.012-7.506-.337-7.646.893z" fill="#ED5D4F"/><path d="M57.14 232.142s-.375 2.045-.199 3.081c.176 1.037 1.504 1.247 3.048 1.295 1.541.048 2.186-.823 3.617-.469s3.603-.025 4.449-.718c.846-.692 1.184-1.678.906-2.612-.279-.936-3.113-1.4-5.995-1.387-2.887.012-5.686-.42-5.827.81z" fill="#121721"/><path d="M69.6 202.284c.176-3.924-2.495-5.736-5.38-5.723-2.881.012-3.072 2.785-2.492 7.329.577 4.545-.266 5.24-.485 5.644-.218.404-1.13 1.585-.756 2.727.377 1.144.121 1.059.922 1.804.8.746 5.711 3.96 5.935 1.112.16-2.012 2.068-8.634 2.256-12.893z" fill="#48598B"/><path d="M66.984 210.261s-.283-4.055-.574-7.974c-.29-3.92.695-5.739-2.19-5.726-2.881.012-3.072 2.785-2.492 7.329.577 4.545-.266 5.24-.485 5.644-.218.404-1.13 1.585-.756 2.727.377 1.144.121 1.059.922 1.804.8.746 1.536 3.704 2.744 1.114 1.325-2.838 2.831-4.918 2.831-4.918z" fill="#273252"/><path d="M64.85 229.091s.99 1.264.659 1.975c-.332.71-1.379 1.294-3.56 1.947-2.182.652-5.666.13-5.408-1.506.259-1.636.658-1.317.658-1.317s1.7-11.573 2.282-13.716c.583-2.143.517-3.38 2.583-3.623 2.066-.244 5.16-.354 5.28 2.326.123 2.68-2.493 13.914-2.493 13.914z" fill="#48598B"/><path d="M64.85 229.091s.99 1.264.659 1.974c-.332.711-1.379 1.295-3.56 1.948-2.182.652-5.666.13-5.408-1.506.259-1.636.658-1.317.658-1.317s1.7-11.573 2.282-13.716c.583-2.143.738-3.834 2.804-4.08 2.066-.243 3.472-.765 3.209 1.079-.38 2.655-.643 15.618-.643 15.618z" fill="#273252"/><path d="M75.054 233.08s-.638 2.861-.12 3.837c.516.976 3.268.788 4.648.557 1.381-.231 1.685-1.182 3.603-1.121 1.92.06 2.897-.46 3.484-1.674.588-1.217-1.14-3.054-2.65-2.964-1.512.091-3.832-.394-5.9-.047-2.071.346-2.885.047-3.065 1.412z" fill="#EE5D4F"/><path d="M75.086 232.052s-.638 2.86-.12 3.836c.517.976 3.484.52 4.862.289 1.38-.231 1.469-.913 3.39-.853 1.92.06 2.896-.459 3.484-1.674.587-1.214-1.56-2.793-3.073-2.702-1.511.09-3.412-.655-5.48-.309-2.069.346-2.882.048-3.063 1.413z" fill="#121721"/><path d="M76.16 196.626c-.087 2.838-3.727 5.028-8.13 4.89-4.404-.138-7.273.492-7.808-5.387-.259-2.828 3.728-5.028 8.131-4.89 4.4.135 7.898 2.549 7.808 5.387z" fill="#273252"/><path d="M69.196 195.482c3.743-1.22 5.631-2.294 7 .012 1.368 2.306 2.567 10.06 2.824 11.713.256 1.654.457 5.159-2.338 5.586-2.791.427-3.7 1.016-4.651-2.615-.736-2.8-1.698-4.99-3.505-6.386-1.81-1.392-3.073-7.091.67-8.31z" fill="#273252"/><path d="M78.119 204.763c-.493-4.569.71.108.9 2.447.187 2.268.458 5.159-2.336 5.586-2.792.426 2.133-1.559 1.436-8.033z" fill="#48598B"/><path d="M81.251 232.383s1.855-.045 1.695-1.491c-.16-1.445-1.557-2.363-1.557-2.363s-.883-16.13-2.038-18.737c-1.155-2.607-6.223-1.739-6.728 1.23-.505 2.968.555 9.746.776 11.379.25 1.847.497 3.064.59 4.148.095 1.084.03 2.303.03 2.303s-.42.206-.46 1.541c-.04 1.335.922 2.344 1.675 2.419 1.25.126 6.017-.429 6.017-.429z" fill="#273252"/><path d="M81.251 232.383s1.856-.045 1.695-1.491c-.16-1.445-1.556-2.363-1.556-2.363s-.884-16.13-2.039-18.737c-1.155-2.607-1.966-2.09-1.469.881 1.128 6.722.854 12.167.907 13.816.05 1.648-.829 5.066-.46 6.416.37 1.347 2.922 1.478 2.922 1.478z" fill="#48598B"/><path d="M63.31 199.414s1.868-.457 2.568.183 3.66 4.745 3.66 4.745l-3.883-4.135-2.345-.793z" fill="#273252"/><path d="M79.173 220.434s-.244 2.873-1.288 5.001c-.003 0 1.968-.452 1.288-5.001zm-13.443-2.991s-.38 2.251-1.409 3.867c-1.03 1.613-1.396 1.809-1.396 1.809s3.738-.966 2.804-5.676z" fill="#48598B"/><path d="M61.19 173.935c-1.405-.045-2.613 2.386-4.463 8.845-.916 3.197-.931 5.663 1.14 5.249 2.07-.414 2.633-.81 3.87-5.297 3.119-7.518 2.212-8.712-.547-8.797z" fill="#1D2538"/><path d="M64.135 185.139s-2.39-.399-3.421-.339c-1.032.06-.806.547-1.793 1.34-1.629 1.31-2.224.89-2.219 1.852.005 1.309 3.53 1.206 4.9 1.249 1.371.043 6.344 1.227 7.474.166 1.135-1.062-.688-4.273-4.94-4.268z" fill="#C94039"/><path d="M59.505 193.479c-.424.399-.15 1.303.153 1.651 0 0 2.727.859 4.7.302 1.973-.555 2.405-1.185 4.08-1.263 1.85-.085 6.24.427 7.415.645.678.126.357-1.533.357-1.533s-4.933-1.852-8.37-.622c-3.432 1.232-7.233 1.781-8.335.82z" fill="#F3E7D9"/><path d="M68.05 172.913s-6.087 7.011-8.47 4.261c-2.385-2.75 1.848-6.424 5.059-7.043 3.21-.62 6.948 1.555 3.411 2.782z" fill="#273252"/><path d="M67.21 170.143s-3.932.665-5.41 1.854c-1.022.821-2.202 2.941-1.198 3.719.464.359-1.346.999-1.26 1.35 0 0-1.248-1.789.155-3.904 1.404-2.118 3.08-2.871 4.728-3.059 1.895-.216 2.984.04 2.984.04z" fill="#F3E7D9"/><path d="M71.643 166.648l-.226 5.204-4.418.479.098-5.141 4.546-.542z" fill="#CC6D3D"/><path d="M71.642 166.648l-.226 5.207s-.723-1.052-.884-1.88c-.163-.828-3.434-2.783-3.434-2.783l4.544-.544z" fill="#F5894E"/><path d="M71.096 171.019s1.74-.768 3.133.783c1.393 1.553 2.448 7.279 2.34 8.579-.11 1.3.123 3.802.76 5.272 1.057 2.434.312 6.491-.411 7.636-.723 1.144-.362.604-3.304.308-2.942-.298-6.301-.404-8.387.492-2.087.896-5.114 1.144-5.825-.251-.71-1.395-.346-2.067.65-3.204.997-1.134 1.188-5.039.862-7.791-.191-1.619-.251-3.644.449-5.842.49-1.538 1.853-.02 4.248-2.492 2.894-2.993 5.485-3.49 5.485-3.49z" fill="#C94039"/><path d="M71.096 171.019s1.74-.768 3.133.783c1.393 1.553 1.6 8.075 1.491 9.374-.11 1.3.972 3.007 1.61 4.474 1.056 2.434.31 6.492-.412 7.636-.723 1.144-.362.605-3.304.309-2.942-.299-6.301-.404-8.387.492-2.087.895-5.114 1.144-5.825-.251-.71-1.396-.346-2.068.65-3.205.997-1.134 1.188-5.038.862-7.791-.191-1.618-.251-3.643.449-5.841.49-1.539 1.853-.021 4.248-2.492 2.894-2.991 5.485-3.488 5.485-3.488z" fill="#992C29"/><path d="M73.777 170.831s-1.39-1.586-3.894-.535c-2.503 1.052-4.86 3.962-5.92 4.959-1.059.996-3.145.725-4.141-.337-.997-1.059-1.547 1.187-.06 2.981 1.486 1.795 2.294 2.337 3.943 2.284 1.65-.05 2.641-2.181 3.924-3.684 1.283-1.503 2.407-4.554 3.452-5.036 1.044-.482 2.887-.165 3.47.984a82.59 82.59 0 001.069 2.04s.474-2.043-1.843-3.656z" fill="#F3E7D9"/><path d="M74.094 184.833s.914-7.277.66-9.034c-.253-1.756-.208-3.197-2.247-3.877-2.038-.68-3.283 2.984-3.449 4.934-.163 1.949-1.102 8.915-.407 9.658.7.742 5.255 2.118 5.443-1.681z" fill="#273252"/><path d="M74.094 184.833l-2.43-5.631.846-7.28c-2.039-.68-3.284 2.984-3.45 4.934-.163 1.949-1.102 8.915-.406 9.658.698.742 5.252 2.118 5.44-1.681z" fill="#1D2538"/><path d="M84.522 194.503c-2.247-.196-4.22 1.388-4.408 3.538-.189 2.151 1.478 4.053 3.725 4.248 2.247.196 4.22-1.387 4.408-3.538.189-2.15-1.48-4.052-3.725-4.248zm-.916 5.516a1.695 1.695 0 11.296-3.378 1.694 1.694 0 11-.296 3.378z" fill="#1689CB"/><path d="M84.4 196.222a2.154 2.154 0 00-2.336 1.96 1.694 1.694 0 011.838-1.541 1.694 1.694 0 11-.296 3.378 1.695 1.695 0 01-1.542-1.837 2.152 2.152 0 001.961 2.333 2.155 2.155 0 10.374-4.293z" fill="#34283A"/><path d="M84.86 195.519a.642.642 0 00.658-.549l3.352-25.961.263-3.011a.639.639 0 00-.507-.672c-.361-.081-1.077-.322-1.145.03l-.73 5.929a.6.6 0 01-.035.115l-.181 1.554a.547.547 0 00-.043.168l-2.892 21.68c-.042.369.256.695.643.702l.618.015z" fill="#1689CB"/><path d="M90.534 167.707l.339.682.037 1.601.897.078 2.485-2.145.321.76-.153 1.741s-1.175-.047-1.325.645c-.108.507.808.349.808.349l.384.532-.243 2.775-2.21-.316-.23-.705.102-1.164-1.12-.098-.35 2.005-2.1-.332-.366-.727 2.724-5.681z" fill="#34283A"/><path d="M88.2 167.466l2.372.208.038 1.596 1.054.093.322-1.654 2.281.214-.153 1.741s-.974.003-1.122.698c-.148.695.266.996.97 1.059l-.224 2.547-2.102-.274.161-1.844-1.318-.116-.351 2.005-2.533-.399.605-5.874z" fill="#1689CB"/><path d="M86.716 180.052l-.547 4.891" stroke="#29ABE2" stroke-width="2" stroke-miterlimit="10" stroke-linecap="round" stroke-linejoin="round"/><path d="M86.809 179.337a.334.334 0 100-.667.334.334 0 000 .667z" fill="#FFACFF" stroke="#29ABE2" stroke-miterlimit="10"/><path d="M87.032 196.305s.798 1.101.587 2.735c-.21 1.633-1.147 2.103-1.147 2.103" stroke="#29ABE2" stroke-width="2" stroke-miterlimit="10" stroke-linecap="round" stroke-linejoin="round"/><path d="M88.898 167.529s-.56-.083-.595.103c-.033.185-.311 2.579-.311 2.579s.419-2.441.431-2.559c.013-.118.201-.051.475-.123zm-1.126 5.166l.241-2.017-.1-.033-.14 2.05z" fill="#665070"/><path d="M81.968 191.322s.991.185 1.252-.806c.261-.991.457-1.368.505-1.443.05-.073.778-.258.864-.193.356.271-.246 1.378.213 1.39.46.013 2.55.605 2.694.916.143.311.11 1.385.11 1.385l-.934.432s.056.692-.11 1.071-.645.976-.645.976l-2.443-.459s-1.215-.421-1.73-1.129c-.512-.705.224-2.14.224-2.14z" fill="#F5894E"/><path d="M81.1 190.092s.627-.356 1.222.381c.595.738.545 2.349.098 3.468-.447 1.117-.856 1.001-.856 1.001l-1.215-.655.75-4.195z" fill="#F3E7D9"/><path d="M73.342 184.671c.497-.241.663-.351 1.2.304.693.846 1.727 1.571 3.048 2.128 1.32.554 3.954 1.942 4.124 3.079.171 1.136.648 2.318-.326 3.831s-1.966.349-3.386-.311c-1.421-.66-7.79-4.931-8.717-5.957-.647-.715-.906-1.495.282-1.586 1.644-.13 3.28-1.247 3.775-1.488z" fill="#C94039"/><path d="M73.342 184.671c.497-.241.663-.351 1.2.304.693.846 1.727 1.571 3.048 2.128 1.32.554 3.954 1.942 4.124 3.079.171 1.136.648 2.318-.326 3.831s-1.966.349-3.386-.311c-1.421-.66-7.79-4.931-8.717-5.957-.647-.715-.906-1.495.282-1.586 1.644-.13 3.28-1.247 3.775-1.488z" fill="#EE5D4F"/><path d="M73.455 184.401c.497-.241 2.947 4.517 4.268 5.071 1.32.555 3.798.324 3.969 1.463.17 1.137.67 1.563-.301 3.076-.975 1.513-1.966.349-3.387-.311-1.42-.66-7.79-4.93-8.716-5.957-.648-.715-.906-1.495.281-1.586 1.642-.128 3.39-1.515 3.886-1.756z" fill="#C94039"/><path d="M70.976 158.395s2.477-.444 3.246 1.49c.795 1.998 1.242 6.366.803 7.177-.44.81-.588 1.217-3.79 1.631-3.204.414-5.732.027-5.416-3.463.317-3.488.495-5.849 5.157-6.835z" fill="#F5894E"/><path d="M70.976 158.395s2.477-.444 3.246 1.49c.16.407-1.89 5.443-1.888 6.013.007 1.44 1.795 1.676 1.812 1.856.015.181.291.525-2.912.939-3.203.414-5.731.027-5.415-3.463.317-3.488.495-5.849 5.157-6.835z" fill="#CC6D3D"/><path d="M71.694 160.681s3.981-2.208 1.955-3.3c-2.023-1.091-5.786-.953-6.55.464l-.431.106s-1.308.095-2.917 2.205c-1.61 2.111-1.28 6.74 1.604 7.937 1.338.557 1.797.69 2.827.655 1.029-.035 2.096-.123 2.555-1.651.46-1.526.957-6.416.957-6.416z" fill="#1D2538"/><path d="M71.694 160.681s3.982-2.208 1.956-3.3c-2.024-1.091-4.461-.002-3.992.356.47.359 1.132 1.132 1.132 1.132s-1.892 3.508-2.291 5.28l.477.082s1.302 4.397 1.762 2.868c.46-1.528.956-6.418.956-6.418z" fill="#3E4C6F"/><path d="M71.391 164.531c.518-.11.795-.875.619-1.708-.177-.834-.74-1.421-1.258-1.312-.518.11-.795.875-.618 1.708.176.834.74 1.421 1.257 1.312z" fill="#CC6D3D"/><path d="M74.31 161.368c.035.382-.08.56-.222.575-.14.012-.25-.146-.286-.527-.035-.381.05-.7.191-.713.138-.015.281.284.316.665z" fill="#34283A"/><path d="M73.978 159.93a1.316 1.316 0 00-.665.399" stroke="#34283A" stroke-width=".75" stroke-miterlimit="10" stroke-linecap="round" stroke-linejoin="round"/><path d="M72.038 160.091l.273 2.426a.436.436 0 01-.105.334l-.514.59-.27-3.438.616.088z" fill="#3E4C6F"/><g filter="url(#filter2_d_0_93)"><rect x="-507" y="-335" width="970" height="322" rx="10" fill="#fff"/></g><defs><filter id="filter0_d_0_93" x="-621" y="244" width="1198" height="550" filterUnits="userSpaceOnUse" color-interpolation-filters="sRGB"><feFlood flood-opacity="0" result="BackgroundImageFix"/><feColorMatrix in="SourceAlpha" values="0 0 0 0 0 0 0 0 0 0 0 0 0 0 0 0 0 0 127 0" result="hardAlpha"/><feOffset dy="69"/><feGaussianBlur stdDeviation="57"/><feComposite in2="hardAlpha" operator="out"/><feColorMatrix values="0 0 0 0 0 0 0 0 0 0 0 0 0 0 0 0 0 0 0.08 0"/><feBlend in2="BackgroundImageFix" result="effect1_dropShadow_0_93"/><feBlend in="SourceGraphic" in2="effect1_dropShadow_0_93" result="shape"/></filter><filter id="filter1_d_0_93" x="-181" y="-68" width="1198" height="550" filterUnits="userSpaceOnUse" color-interpolation-filters="sRGB"><feFlood flood-opacity="0" result="BackgroundImageFix"/><feColorMatrix in="SourceAlpha" values="0 0 0 0 0 0 0 0 0 0 0 0 0 0 0 0 0 0 127 0" result="hardAlpha"/><feOffset dy="69"/><feGaussianBlur stdDeviation="57"/><feComposite in2="hardAlpha" operator="out"/><feColorMatrix values="0 0 0 0 0 0 0 0 0 0 0 0 0 0 0 0 0 0 0.08 0"/><feBlend in2="BackgroundImageFix" result="effect1_dropShadow_0_93"/><feBlend in="SourceGraphic" in2="effect1_dropShadow_0_93" result="shape"/></filter><filter id="filter2_d_0_93" x="-621" y="-380" width="1198" height="550" filterUnits="userSpaceOnUse" color-interpolation-filters="sRGB"><feFlood flood-opacity="0" result="BackgroundImageFix"/><feColorMatrix in="SourceAlpha" values="0 0 0 0 0 0 0 0 0 0 0 0 0 0 0 0 0 0 127 0" result="hardAlpha"/><feOffset dy="69"/><feGaussianBlur stdDeviation="57"/><feComposite in2="hardAlpha" operator="out"/><feColorMatrix values="0 0 0 0 0 0 0 0 0 0 0 0 0 0 0 0 0 0 0.08 0"/><feBlend in2="BackgroundImageFix" result="effect1_dropShadow_0_93"/><feBlend in="SourceGraphic" in2="effect1_dropShadow_0_93" result="shape"/></filter></defs></svg>