<svg width="284" height="240" fill="none" xmlns="http://www.w3.org/2000/svg"><g filter="url(#filter0_d_0_93)"><rect x="-59" y="-39" width="970" height="322" rx="10" fill="#fff"/></g><path d="M270.663 213.458c-6.646-9.534-51.931-44.033-123.133-41.187-60.389 2.415-102.626 30.364-109.071 33.507-6.445 3.143-3.759 5.239 14.503 2.619 18.261-2.621 27.391-2.097 27.391-2.097l-1.074 2.619s-14.546 12.27-15.618 16.461c-1.075 4.191 4.833 4.715 11.278 2.097 6.446-2.619 53.754-11.747 59.662-12.271 5.908-.524 16.322 2.827 20.618 3.349 4.297.524 32.656 9.394 38.617 9.912 5.962.52 2.974-9.141-4.572-22.798-3.344-6.054 27.569 9.331 34.552 10.904 6.982 1.572-3.293-7.65-4.367-9.22-1.075-1.571 39.76 8.899 48.354 13.615 8.593 4.719 9.507 2.023 2.86-7.51zm-159.901-45.687s-52.193 9.613-73.306-21.383-1.717-75.75 38.163-84.381c0 0-41.877 17.488-27.019 60.644 14.858 43.156 62.162 45.12 62.162 45.12zm122.509-15.529c11.35-11.014 12.902-20.397 19.3-31.37 6.398-10.972 13.188-16.983 13.188-16.983s-4.14-.006-14.346 9.22c-9.085 8.212-18.142 27.236-18.142 27.236 2.047-9.473 1.447-21.423 1.447-21.423-11.899 26.108-53.408 44.583-65.139 38.563.002 0 30.941 26.539 63.692-5.243zm-25.549-43.322c1.954 0 36.756-16.158 38.315-31.78 1.173-11.769-1.173-29.425-29.714-38.449-32.379-10.238-45.743-5.1-58.253-1.57 0 0 34.796-5.1 56.298 10.201 35.948 25.582-6.646 61.598-6.646 61.598z" fill="#F4E8D8"/><path d="M191.691 67.725s-23.068-21.578-45.743-18.046C130.103 52.147 88.866 62.3 82.611 87.342c-4.284 17.155 14.856 23.933 14.856 23.933s-12.12-6.67-6.255-23.149c5.865-16.478 42.224-34.134 65.291-32.564 23.067 1.57 35.188 12.163 35.188 12.163zM75.183 89.303s-19.156 17.263-7.428 27.464c11.729 10.202 35.969 1.571 35.969 1.571s-17.202 1.57-25.022-8.238c-7.82-9.811-3.519-20.797-3.519-20.797zm-37.727 57.085S9.307 134.03 15.76 109.902c6.452-24.128 17.594-12.947 17.594-12.947S31.006 74.593 43.32 67.53c12.315-7.063 17.008-2.55 17.008-2.55s5.865-6.277 8.795-5.1c1.304.524 1.486 1.51 1.29 2.447-.266 1.254-7.919 5.325-9.11 5.791-3.441 1.352-6.393 2.53-13.487 9.809-10.395 10.663-13.93 25.949-13.294 39.038 1.174 24.126 2.933 29.423 2.933 29.423z" fill="#F4E8D8"/><path d="M72.839 94.403s5.474-9.415-1.565-10.985c-7.038-1.57-7.428 13.34-7.428 13.34s-2.346-3.532-5.865 2.745c-3.52 6.277 4.3 15.694 9.774 17.262 5.476 1.571 2.738-17.26 5.084-22.362zm164.299-7.454s11.583-1.35 17.301-14.418c5.279-12.064 0-20.01-6.159-21.774-6.158-1.766-11.142.883-11.142.883s5.279-15.301-7.916-17.067-12.901 4.12-12.901 4.12-4.399-6.475-10.556-9.121c-6.158-2.649-5.865 5.886-5.865 5.886s-5.865-6.475-14.075-4.709c-8.209 1.766-7.995 3.772-4.182 4.067 3.812.294 26.71.335 41.665 15.636 14.954 15.301 13.83 36.497 13.83 36.497zM112.715 61.055s13-16.478 30.885-18.833c14.308-1.883 7.124 8.172 9.187 7.063 5.474-2.942 12.333-5.535 15.053-3.922 4.301 2.55.587 5.688.587 5.688s12.315 6.866 14.074 10.593c.195.982-10.191-7.802-23.653-8.827-15.443-1.177-46.133 8.238-46.133 8.238z" fill="#F4E8D8"/><path d="M77.828 136.11s-.687-2.507-1.472-4.303c-.752-1.719-1.328-.527-1.694 1.168-.383 1.777-.203 4.477-.21 5.122-.006.646 3.265.279 3.376-1.987z" fill="#1D2538"/><path d="M84.773 157.363c1.88-.732 5.906-5.656 5.103-9.063-.803-3.407-1.603-8.457-2.654-10.345 0 0-.165-3.579-.505-5.502-.338-1.92-.844-2.006-1.516-1.078-.672.928-1.563 4.09-1.563 4.09s-4.48-1.8-8.089-.234-4.711 4.021-5.009 6.116l-.11.152s-3.953.98-5.813 1.749c-1.86.769-2.423 1.727-1.58 3.733.843 2.007.985 3.01 2.128 3.747 1.143.736 6.19 2.343 8.78 2.726 0 0 1.101 4.685 1.983 5.935.882 1.252 6.968-1.291 8.845-2.026z" fill="#273150"/><path d="M85.346 151.578s5.333.129 4.532-3.278c-.8-3.407-1.603-8.457-2.654-10.345 0 0-.165-3.579-.506-5.502-.338-1.92-.843-2.006-1.515-1.078-.672.928-1.563 4.09-1.563 4.09s-4.48-1.8-8.09-.234c0 0 4.186.107 5.813 1.673 1.627 1.566 3.65 7.978 3.65 7.978s-4.586 5.603-4.31 5.996c.88 1.252 4.643.7 4.643.7z" fill="#1D2538"/><path d="M76.931 136.165s-.522-2.449-.899-4.075c-.424-1.828-1.308-.777-1.674.918-.383 1.776-.588 3.6-.595 4.246-.004.647 3.295.492 3.168-1.089z" fill="#273150"/><path d="M76.208 140.301c.28-.802.075-1.604-.459-1.792-.533-.187-1.192.311-1.472 1.112-.28.802-.075 1.604.459 1.791.533.188 1.192-.31 1.472-1.111zm-13.557 4.882c-.135 1.108.426 1.618.706 2.243.384.852 2.719-.744 2.856-1.852.135-1.108.148-2.668-1.17-2.423-.92.172-2.257.924-2.392 2.032z" fill="#121721"/><path d="M79.481 151.98s-5.08 2.618-5.398 1.42c-2.543-.346-6.643-1.678-6.643-1.678l6.874-.004 5.167.262zm24.1 3.28c-.194-.636-.783-4.103-1.536-5.336-.752-1.233-2.648-4.066-4.918-3.985 0 0 1.304-1.643 5.384.357 4.08 1.998 4.652 7.987 4.697 8.494.197 2.264-3.072 2.283-3.627.47zM75.29 185.91c.364-1.068 1.794-2.202 1.794-2.202.137-.241.612-.724.649-.954.284-1.757 1.061-6.552 1.106-7.319.097-1.594-.608-6.341-.477-9.991.13-3.649 5.66-.78 5.915 2.746.181 2.513-1.561 12.798-1.743 13.804l-1.35 3.286c-.5.701-1.885 1.199-3.308 1.268-1.421.064-2.941.406-2.586-.638zm24.34-20.195c-1.378-.458-3.52.735-3.544 2.696-.02 1.669 7.544 8.266 7.544 8.266l.423 1.345s-1.066 1.235-.61 1.899c.107.157 1.565-.101 2.74-.338.861-.174 1.473-.586 1.471-1.001l-.004-.522.445-1.98-5.206-5.437c.002.002-1.374-4.301-3.258-4.928z" fill="#1D2538"/><path d="M80.319 152.038s5.706-4.095 10.718-1.843c4.48 2.012 6.522 2.352 11.518 2.427 3.138.047 5.294 11.128 4.643 13.284-1.177 4.03-15.037 4.387-16.814 4.447-5.236.178-9.614-2.511-11.774-3.538-1.937-.922-4.79-6.262-2.367-10.328.925-1.551 1.99-3.231 4.076-4.449z" fill="#273150"/><path d="M81.741 152.452c3.26-2.61 4.282-4.506 9.295-2.257 4.48 2.013 7.871 2.419 12.865 2.571 5.654.174 4.894 9.708 3.233 13.793-1.261 3.102-14.974 3.734-16.749 3.794 0 0 4.795-3.115 4.56-5.33-.233-2.214-5.735-5.469-5.735-5.469-2.65-2.7-8.624-6.176-7.469-7.102z" fill="#1D2538"/><path d="M84.75 185.555c-.007-.964 2.36-3.295 2.345-3.531-.242-3.987-1.24-7.761-1.398-8.67-.323-1.865-2.425-5.025-3.148-9.055-.698-3.883 6.199-1.978 7.102 2.499.52 2.582 1.805 11.456 2.134 13.879.047.341.026.687-.062 1.022l-1.376 2.943c-.16.845-1.492 1.571-3.121 1.667-1.63.097-2.466.559-2.477-.754z" fill="#273150"/><path d="M107.268 161.717c-1.721-1.574-5.549.494-6.247 1.135-.732.672 2.466 4.897 2.627 5.488.167.617 7.252 4.537 8.691 5.684 1.556 1.242.255 2.947 1.184 3.48.47.271 4.399-.556 4.148-2.103-.235-1.461-1.781-3.761-1.819-3.877-.075-.226-6.159-4.963-6.305-5.257-.139-.288-1.77-4.081-2.279-4.55z" fill="#1D2538"/><path d="M90.071 148.465s1.034 1.102 1.295 2.073c0 0-3.148 2.284-8.826 4.999-3.041 1.454-7.74 2.79-7.74 2.79l-.683-2.558c.002-.002 9.6-2.53 15.954-7.304z" fill="#992C29"/><path d="M74.155 155.795s-1.65 3.396-1.385 5.104l4.257 1.368s-1.652-4.971-2.872-6.472z" fill="#C93F37"/><path d="M74.154 155.795c1.258 1.256 2.873 6.472 2.873 6.472s-2.22-1.774-2.447-2.457c-.227-.684-.426-4.015-.426-4.015z" fill="#992C29"/><path d="M74.82 157.486s3.047 2.683 4.408 3.018l.354-2.269c.002 0-2.205-1.119-4.761-.749z" fill="#992C29"/><path d="M145.949 116.958l-19.94-1.177c-5.656-.758-5.598-8.522-5.472-14.3l.259-20.1c.116-5.611 3.297-9.444 8.948-9.444h16.397c6.341 0 10.166 3.807 10.166 10l1.565 25.473c0 6.455-5.401 10.438-11.923 9.548z" fill="#634874"/><path d="M125.186 77.983c1.843-4.269-3.25-8.157-8.102-9.835-6.889-2.38-7.705-3.65-10.528-5.123-3.468-1.81-6.409-2.477-8.511-.89-2.1 1.588-2.556 4.338-1.312 5.536 2.934 2.834 4.334 3.465 8.07 6.144 6.841 4.904 10.495 5.97 12.707 7.454 3.705 2.49 5.471 1.82 7.676-3.286z" fill="#A86243"/><path d="M126.626 78.638c1.843-4.269-25.561-7.502-21.825-4.825 6.841 4.904 10.495 5.97 12.706 7.454 3.708 2.492 6.917 2.477 9.119-2.63z" fill="#D77E5B"/><path d="M102.157 56.836c-1.49 2.159-3.864 5.871-1.854 7.89 1.449 1.455.826 2.913 2.969 1.87 2.408-1.176 3.898-6.669 3.962-6.8 1.133-2.3-3.57-5.14-5.077-2.96z" fill="#7A4630"/><path d="M110.829 44.645s-9.74 7.334-12.298 10.206c-2.53 2.842-4.733 6.31-3.267 10.215.89 2.371 1.914 3.976 5.082 2.945 3.637-1.184 6.437-6.346 7.903-9.632 1.967-4.402 4.493-6.623 5.985-8.16 1.914-1.969 1.766-8.19-3.405-5.574z" fill="#A86243"/><path d="M124.562 43.127l.173 2.96-1.907.522-1.505-2.54 3.239-.942z" fill="#273150"/><path d="M109.058 48.372l2.23-3.574s4.697-1.764 7.405-1.964c2.707-.2 4.244 1.079 4.244 1.079l.229 5.24c.026.59-.363 1.127-.896 1.239l-.833.173-1.282-.062-.05.703c-.023.352-.248.66-.558.767l-1.681.577-2.5.548s-1.886-.479-1.687-1.742c.199-1.263-3.48 1.151-4.621-2.984z" fill="#A86243"/><path d="M106.231 48.177l1.839 3.134 4.624-1.497c.4-.129.619-.68.462-1.17-.177-.56-.663-.845-1.113-.658l-3.155.885-.612-1.394-2.045.7z" fill="#273150"/><path d="M102.842 36.985c-4.692 1.766-24.827 7.848-24.827 7.848-.13.981.13 5.1.848 5.557 0 0 2.933 3.922 20.655.13 20.691-4.427 41.909-13.167 41.909-13.167l-.338-5.665c.002.002-33.557 3.531-38.247 5.297z" fill="#B44C29"/><path d="M101.474 33.782c-4.735 1.646-20.852 6.77-23.198 10.365-1.832 2.81 4.431 5.394 27.107.099 22.675-5.295 31.668-10.038 34.99-11.607 3.323-1.57-4.399-3.596-18.7-4.347-3.275-.174-10.033 1.959-20.199 5.49z" fill="#F08650"/><path d="M78.929 46.467l7.558-2.617-6.516 3.532-1.042-.915zm42.922-17.965l-12.657 4.17c.002-.003 12.632-3.618 12.657-4.17zM95.903 42.577c2.053-.982-6.59 1.688-10.947 3.531 0 0 8.894-2.552 10.947-3.531zm36.261-6.181l-.978-1.177 3.322.492-2.344.685zM97.37 46.5l1.466-1.569 1.758 1.274-3.224.294zm16.702-11.351c.559.82-.747 2.124-3.641 3.138-4.155 1.454-9.712 1.755-10.382.07-.632-1.589 3.836-3.451 8.104-3.999 3.048-.393 5.375-.006 5.919.79z" fill="#B44C29"/><path d="M113.806 34.46c.469.598-.873 1.715-3.705 2.727-4.065 1.452-9.376 2.116-9.883.855-.48-1.19 3.913-2.986 8.016-3.742 2.931-.54 5.116-.42 5.572.16z" fill="#F08650"/><path d="M146.652 72.41c.833-2.927 5.33-1.17 7.576.245 3.573 2.25 3.198 3.92 5.619 5.188 4.373 2.29 16.474 10.676 13.171 14.494-3.301 3.817-8.843.423-13.167-2.282-3.095-1.935-8.588-6.081-11.679-9.117-1.286-1.263-2.352-5.6-1.52-8.528z" fill="#A86243"/><path d="M172.261 97.937c1.593-2.619 3.228-4.977 1.066-7.6-3.386-4.105-6.043-1.858-8.318.953-2.237 2.767-2.227 3.691-4.269 6.475-2.057 2.803-6.015 6.831-6.015 6.831s-3.35 3.008-1.753 5.265c1.685 2.385 2.875 2.41 4.739 1.39 2.721-1.486 13.351-11.342 14.55-13.314z" fill="#A86243"/><path d="M119.418 169.872a1.056 1.056 0 00-.146.066c-.708.391-6.494 3.532-7.167 4.374-.55.69-.199 3.231-.006 4.374.06.354.306.644.644.762 1.37.475 4.979 1.738 8.479 1.384 4.389-.445 4.254-2.103 7.52-3.672a157.544 157.544 0 004.085-2.019c.31-.161.445-.472.462-.823l.18-3.84c.021-.482-.244-.909-.715-1.004-2.177-.446-8.31-1.422-13.336.398z" fill="#29ACE4"/><path d="M119.343 169.9s-6.649 3.644-7.364 4.539c-.715.896-.037 3.985-.037 3.985s4.759 1.899 9.147 1.455c4.389-.445 4.386-1.912 7.653-3.48 2.53-1.214 3.89-1.917 4.373-2.172a.412.412 0 00.221-.346l.199-3.652a.676.676 0 00-.533-.702c-1.925-.415-8.411-1.56-13.659.373z" fill="#13161F"/><path d="M116.103 171.629s3.322-1.177 6.58.327m-4.172-1.766s3.322-1.177 6.58.326" stroke="#29ACE4" stroke-width="2" stroke-miterlimit="10" stroke-linecap="round" stroke-linejoin="round"/><path d="M154.831 170.016c3.684 1.293 9.027 2.549 9.278 4.204.25 1.641.424 3.372.28 3.986-.109.464-.306.742-.661.894-.906.389-2.712 1.321-6.366 1.686-1.578.159-5.042-.691-7.154-2.262a378.582 378.582 0 00-4.449-3.243.889.889 0 01-.361-.597l-.277-1.861a.897.897 0 01.478-.93c1.603-.816 6.227-2.932 9.232-1.877z" fill="#29ACE4"/><path d="M156.318 169.253c3.218 1.218 7.621 3.059 7.872 4.885.224 1.645.325 2.55.28 3.179-.021.307-.762.453-1.124.606-.92.389-2.759 1.323-6.473 1.693-1.606.159-4.757-.316-6.902-1.884a403.243 403.243 0 00-4.619-3.311.617.617 0 01-.253-.403l-.269-1.605a1.447 1.447 0 01.933-1.603c2.389-.865 7.693-2.64 10.555-1.557z" fill="#13161F"/><path d="M154.286 172.74s2.997-2.746 6.385-1.7m-8.471.391s3.128-2.485 6.516-1.439" stroke="#29ACE4" stroke-width="2" stroke-miterlimit="10" stroke-linecap="round" stroke-linejoin="round"/><path d="M153.765 115.197s.965 12.831 2.735 23.149c.955 5.563 1.85 15.524 2.415 22.778.381 4.89.694 8.578.467 8.746-.559.416-3.258-.394-8.19.846-4.868 1.224-6.872 1.931-6.872 1.931l-.764-2.359s-.458-1.097.141-5.623c.178-1.339-1.348-3.416-1.566-5.122-1.392-10.929-3.404-27.627-4.399-38.853-1.518-17.151 12.848-19.86 16.033-5.493z" fill="#F6BE4A"/><path opacity=".5" d="M153.764 115.197s.965 12.831 2.735 23.149c1.09 6.349 1.946 17.191 2.68 24.738.154 1.583.73 1.716.837 2.94.129 1.476-.087 3.596-.723 3.932-.69.363-3.168-.48-8.1.76-4.868 1.224-6.872 1.931-6.872 1.931l-.764-2.359c-.24-1.119-.276-1.675.141-5.623.142-1.324-1.361-3.51-1.567-5.122-1.391-10.97-3.431-27.934-4.399-38.853-1.52-17.151 12.846-19.86 16.032-5.493z" fill="#F6BE4A"/><path d="M121.234 114.467s-.698 14.633-1.068 23.352c-.268 6.27-1.105 32.029-1.105 32.029s1.1-.425 5.769-.279l6.7 2.988s1.503.408 1.899.18c.396-.225 1.471-1.284 1.575-3.858.334-8.182.396-26.014.274-27.335-.111-1.192.003-14.968.897-25.181.392-4.474-1.663-8.221-7.558-9.748-5.66-1.465-7.236 3.347-7.383 7.852zm35.267 23.878c1.079 6.29 1.931 16.982 2.658 24.519.054.544.75 1.917.801 2.424.291 2.88-.225 4.698-.79 4.816-.567.116-3.044-.628-7.976.612-4.868 1.224-6.871 1.931-6.871 1.931l-.764-2.359s4.88-6.996 7.468-11.542c.782-1.372 3.793-5.449 4.594-10.886.749-5.087.445-12.041.88-9.515z" fill="#F6BE4A"/><path d="M137.28 122.26c8.673 0 15.703-5.16 15.703-11.525s-7.03-11.525-15.703-11.525c-8.673 0-15.704 5.16-15.704 11.525s7.031 11.525 15.704 11.525z" fill="#F6BE4A"/><path opacity=".5" d="M137.28 122.26c8.673 0 15.703-5.16 15.703-11.525s-7.03-11.525-15.703-11.525c-8.673 0-15.704 5.16-15.704 11.525s7.031 11.525 15.704 11.525z" fill="#F6BE4A"/><path d="M134.932 110.587c.409-2.421-1.352-.902-2.72-.099-1.011.595-1.811 1.042-.869 1.725 1.515 1.1 3.324-.051 3.589-1.626zm.261-.294s1.954 2.255 3.714 2.55c1.759.294 1.466-2.355.293-2.845-1.173-.489-3.322-.489-4.007.295zm.099-.196s2.443 2.404 2.541 5.738m-2.932-.883s.244-3.678.392-4.855" stroke="#FEED7F" stroke-width="3" stroke-miterlimit="10"/><path d="M152.037 156.278c2.214-2.296 4.23-7.774 4.072-10.478 0 0-8.319 12.04-8.601 12.553-.788 1.438 4.444-1.984 4.529-2.075z" fill="#F6BE4A"/><path d="M125.791 70.795s-1.445.337-1.881 4.904c-.195 2.035-1.865 11.437-1.745 17.935.141 7.617-.507 17.916-.507 17.916s5.291-1.566 13.098-2.168c7.809-.601 17.277 2.655 17.277 2.655 3.023.501-.171-8.68-.865-12.178-.811-4.092.334-11.494-.338-17.013-1.012-8.298-2.427-9.965-2.596-10.646-.371-1.495-5.159-1.54-8.387-2.004-4.723-.675-10.584.096-14.056.6z" fill="#29ACE4"/><path d="M121.903 81.873s14.662-4.062 26.097-.711l.586 3.046s-13.389-4.874-27.074.61l.391-2.945z" fill="#3D4C6D"/><path d="M121.413 85.53s15.149-4.164 26.585-.813l.586 3.046s-13.293-4.569-26.976.913l-.195-3.147z" fill="#3D4C6D"/><path opacity=".5" d="M125.789 70.795s-1.445.337-1.881 4.904c-.195 2.034-1.865 11.437-1.745 17.935 7.289-11.222 24.814 15.499 30.821 16.023 1.661.144-1.906-6.251-2.085-12.455-.21-7.25.879-13.604.879-13.604-1.012-8.299-3.375-10.713-3.544-11.396-.371-1.495-5.159-1.54-8.387-2.004-4.725-.677-10.586.094-14.058.597z" fill="#29ACE4"/><path d="M143.013 70.552c.221-.013 0 .51 0 .51-1.547 1.409-5.174 3.602-8.399 3.602-3.184 0-5.864-.202-6.555-2.252-.298-.882 1.109-2.045 1.109-2.045s2.528-.434 5.441-.524c2.843-.09 8.184.722 8.404.71z" fill="#7A4630"/><path d="M134.502 71.794c-2.558-.082-2.479-2.065-2.46-3.308l.253-4.06c.015-.989 1.044-1.807 2.637-1.76l2.751.043c1.545.047 2.303.9 2.444 1.858 0 0 .454 4.28.296 5.614-.163 1.353-3.361 1.692-5.921 1.613z" fill="#7A4630"/><path d="M152.617 80.112s.712 9.003-.518 7.855c-4.487-4.184-3.796-12.003-3.451-14.094.345-2.09 1.327-2.891 2.674-1.982 2.072 1.392 1.295 8.22 1.295 8.22z" fill="#A86243"/><path d="M124.207 69.586c1.186.036 2.755.395 2.475 1.016-.848 1.88-2.181 6.55-2.879 10.448-.818 4.567-1.552 8.724-1.905 11.871-.163 1.452-1.428 2.601-2.554 1.79a1.506 1.506 0 01-.634-1.002c-.293-1.798-1.312-9.63 2.89-22.467.52-1.586 1.359-1.695 2.607-1.656zm26.143 1.018c-.781-.61-4.042-1.278-5.251-.905-1.21.374-.856 5.723.651 11.768 1.457 5.843 3.711 13.417 4.915 14.753.237.263.571.398.916.374.723-.051 1.875-.305 1.815-1.402-.086-1.592-1.355-8.621-2.338-16.262-.834-6.513.05-7.736-.708-8.326z" fill="#634874"/><path d="M154.405 113.242a1.855 1.855 0 001.886-.457c1.158-1.18 1.636-2.948 1.477-4.842-.194-2.355-3.029-3.238-4.855-3.629a70.509 70.509 0 01-3.08-.736.361.361 0 00-.321.068l-5.187 4.215a.363.363 0 00-.133.301l.103 1.957a.362.362 0 00.362.343c.317 0 .479.379.265.61l-.117.127a.368.368 0 00-.065.4l.516 1.119c.09.193.324.268.508.163l.329-.189a.36.36 0 01.435.058l.929.932a.36.36 0 00.407.074l1.113-.516a.36.36 0 01.479.178c.118.249.324.572.655.737.51.256 2.668-.846 3.224-1.138a.35.35 0 01.276-.024l.794.249z" fill="#A86243"/><path d="M149.356 103.775l-5.028 4.084a.363.363 0 00-.133.301l.103 1.957a.362.362 0 00.362.343c.317 0 .479.378.265.61l-.117.127a.367.367 0 00-.065.4l.516 1.119c.09.193.324.268.508.163l.329-.189a.36.36 0 01.435.058l.929.932a.36.36 0 00.407.074l1.113-.516a.36.36 0 01.479.178c.118.249.323.572.655.737.486.245 2.475-.75 3.138-1.095a.365.365 0 00.193-.359l-.173-1.753a2.3 2.3 0 00-.694-1.431l-.664-.638a2.29 2.29 0 01-.704-1.581l-.032-.936a2.297 2.297 0 00-.409-1.236l-.89-1.28a.363.363 0 00-.523-.069z" fill="#D77E5B"/><path d="M144.805 56.78c-.282 7.6-1.862 9.985-6.901 10.071-3.81.064-6.902-4.509-6.902-10.07 0-5.562 3.092-10.071 6.902-10.071s7.154 3.229 6.901 10.07z" fill="#273150"/><path d="M142.68 55.058c-.037-4.986-.578-7.839-6.073-8.245-2.869-.21-5.692.052-7.356.915-1.502.782-2.41 1.998-2.934 5.27-.396 2.464-.953 6.725-.131 10.852.527 2.644 3.907 3.645 6.886 3.852 7.694.532 8.876-1.52 9.355-5.158.646-4.926.265-5.44.253-7.486z" fill="#7A4630"/><path d="M141.684 58.076c-.047-4.322-1.818-6.2-6.765-6.567-2.581-.191-7.667 1.143-7.905 4.004-.255 3.098-.625 5.796-.077 8.477.471 2.305 2.935 3.112 5.619 3.301 6.927.486 8.505-1.868 8.914-5.022.349-2.685.233-2.419.214-4.193z" fill="#A96344"/><path d="M128.071 47.655c-.461.28-.638.556-.964 2.34-.068.375.621-1.077 1.242-1.644s.477.193 3.727.114c3.249-.08 7.856-.64 7.856-.64l.451 4.506 1.679 3.914 1.012-2.16c.152-3.837-.537-6.071-3.048-6.918-4.596-1.55-10.267-.539-11.955.488z" fill="#273150"/><path d="M136.219 51.597c-.058.76-.415 1.347-.801 1.317-.385-.03-.655-.664-.606-1.425.05-.768.409-1.377.803-1.346.392.03.662.685.604 1.454z" fill="#102342"/><path d="M134.651 50.083l1.938-.617" stroke="#273150" stroke-miterlimit="10" stroke-linecap="round" stroke-linejoin="round"/><path d="M130.784 51.788c-.025.717-.338 1.27-.697 1.242-.362-.028-.64-.626-.623-1.343.017-.724.329-1.295.698-1.267.37.027.648.644.622 1.368z" fill="#102342"/><path d="M130.594 50.082l-1.74-.498" stroke="#273150" stroke-miterlimit="10" stroke-linecap="round" stroke-linejoin="round"/><path d="M145.139 58.32c-.505 2.056-1.957 3.5-3.256 3.29 0 0 .04-4.662.021-5.551-.013-.559.308-2.282 1.693-2.054 1.381.225 2.064 2.189 1.542 4.316z" fill="#7A4630"/><path d="M144.407 59.788a.983.983 0 01-1.047.818.855.855 0 01-.798-.969c.064-.5.535-.874 1.049-.833a.86.86 0 01.796.984z" fill="#E2D6C9"/><path d="M164.923 100.04s-5.553.092-8.141-.915c-2.588-1.006-1.858-11.708 3.288-13.117 5.88-1.611 12.947 1.83 16.855 4.597 3.909 2.767 2.321 6.904-3.335 8.855-5.739 1.978-8.667.58-8.667.58z" fill="#1689CB"/><path d="M177.022 95.011c0 2.75-10.392 2.89-13.562 2.89-3.169 0-5.737-2.23-5.737-4.98 0-2.75 2.568-4.98 5.737-4.98 3.168-.002 13.562 4.32 13.562 7.07z" fill="#992C29"/><path d="M174.91 96.745s14.107 4.818 22.318 16.85c7.03 10.302 16.941 3.662 22.807 6.408 5.865 2.745-29.111 9.443-35.154 11.084-7.233 1.961-28.637-22.278-24.63-28.946 4.842-8.062 14.659-5.396 14.659-5.396z" fill="#1689CB"/><path d="M178.33 99.896c.071.333 7.666 3.609 12.478 11.117 10.23 15.954 22.937 5.624 28.8 8.369 5.863 2.745 4.17 9.828 4.17 9.828s-9.774-2.746-12.121 5.099c-2.346 7.845-22.688 8.956-28.731 10.595-7.233 1.961-23.866-.975-23.866-.975s-6.278-26.669 1.646-44.426c1.4-3.138 11.273-2.354 11.273-2.354l6.351 2.747z" fill="#992C29"/><path d="M166.701 76.612s-2.598-.87-5.197 2.608c-2.042 2.732-3.08 5.216-1.06 8.595.572.956-1.731 1.16-.289 5.215 1.512 4.247 10.106 4.443 12.994 2.415 0 0 5.583 4.732 11.838 1.351 4.208-2.275-1.54-8.307-1.54-8.307s3.004-6.562-3.925-13.033c-4.935-4.605-10.222-1.452-12.821 1.156z" fill="#273150"/><path d="M164.71 83.944c1.834 0 3.32-2.53 3.32-5.65 0-3.12-1.486-5.65-3.32-5.65-1.833 0-3.32 2.53-3.32 5.65 0 3.12 1.487 5.65 3.32 5.65z" fill="#273150"/><path d="M171.857 75.549c.97-2.282.627-4.615-.766-5.212-1.393-.596-3.309.77-4.279 3.052-.97 2.281-.628 4.615.765 5.211 1.393.597 3.309-.77 4.28-3.051z" fill="#273150"/><path d="M165.997 78.04s-2.162-1.405-4.579 1.45-2.804 5.382-1.062 8.294c.493.825-1.554 1.603-.31 5.1.694 1.946 3.872 2.743 3.669 2.38-.203-.363-.028-1.388-.028-1.388 2.186 1.31 5.759 2.082 9.528 1.786 2.117 1.273 6.022 1.145 8.546-.22 3.628-1.959-1.328-7.16-1.328-7.16s2.591-5.655-3.384-11.234c-4.253-3.976-8.811-1.257-11.052.992z" fill="#3D4C6D"/><path d="M165.639 78.408c0 2.69.227 5.952-1.355 5.952-1.579 0-2.862-2.18-2.862-4.87 0-2.689 1.283-4.87 2.862-4.87 1.58 0 1.355 1.098 1.355 3.788z" fill="#3D4C6D"/><path d="M169.787 75.519c-.837 1.965-1.834 4.758-3.035 4.242-1.201-.513-1.497-2.526-.662-4.492.837-1.965 2.488-3.142 3.689-2.629 1.2.516.845.913.008 2.879z" fill="#3D4C6D"/><path d="M177.69 96.791s2.428-.678 2.824-2.435c0 0 .848 2.55-2.824 2.436z" fill="#273150"/><path d="M180.366 102.757s4.024 7.924 5.169 9.918c1.145 1.991-1.926 4.311-3.93 3.772-2.004-.539-5.825-9.875-6.784-11.851-.961-1.979 3.01-5.083 5.545-1.839z" fill="#F6874E"/><path d="M180.922 103.73s-3.686-7.388-6.167-6.997c-2.488.391-2.439 1.517-1.91 3.691.784 3.222 2.929 7.536 2.929 7.536s2.134-3.401 5.148-4.23z" fill="#C93F37"/><path d="M190.55 112.222s-4.986-.327-6.159-.72c-1.173-.393-5.328 1.521-3.616 4.316 1.4 2.288 9.057 1.405 10.361.883 1.304-.522 1.856-4.022-.586-4.479z" fill="#F6874E"/><path d="M203.42 59.55s-7.873 41.166-7.967 41.806l-.178 1.216c-.13.299-.449.348-1.616.08l-4.998-.872 6.976-43.754c.034-.223 4.215-3.97 4.215-3.97.139-.013.314-.214.665.2l2.815 4.513c.167.344.122.6.088.78z" fill="#F6BE4A"/><path d="M203.42 59.55s-7.873 41.166-7.967 41.806l-.178 1.216c-.131.299.422.365-.743.095l8.015-43.573s-2.381-5.255-2.027-4.84l2.815 4.513c.164.346.119.602.085.782z" fill="#F6874E"/><path d="M199.202 79.933l.409-1.672c.051-.12-.174-.19-.407-.126l-1.584.438c-.141.039-.208.127-.148.193l1.398 1.29c.101.11.276 0 .332-.123zm-5.228-11.57l1.128-.775-.841-.933-.287 1.708zm7.658-2.099L200.3 64.98l1.664-.108-.332 1.392z" fill="#F6874E"/><path d="M200.159 54.063l-8.575 48.077m1.156-25.943l1.032.18.895-1.275-.634-1.276 2.207-2.03.844-.795" stroke="#F4E8D8" stroke-miterlimit="10"/><path d="M189.813 118.342c-.022.066-.518.3-1.409.064-1.044-.277-.952-.997-.952-.997l1.766-15.312 4.872.784-4.277 15.461z" fill="#1D2538"/><path d="M187.618 122.971c1.426.367 2.762-.685 2.954-2.275.185-1.51-.742-2.924-2.046-3.227-1.289-.298-2.556.585-2.858 2.033-.317 1.523.542 3.106 1.95 3.469zm.762-4.024c.489.172.848.849.801 1.525-.047.692-.501 1.113-1.008.926-.503-.187-.854-.895-.786-1.572.067-.662.51-1.051.993-.879z" fill="#1D2538"/><path d="M187.483 121.985c.807.223 1.57-.385 1.692-1.328a2.026 2.026 0 00-.007-.545c.017.118.022.24.013.363-.047.691-.501 1.112-1.008.926-.503-.187-.854-.896-.786-1.573.066-.661.51-1.048.993-.878.302.107.555.406.692.779-.186-.524-.582-.941-1.079-1.067-.76-.196-1.496.348-1.657 1.239-.163.917.345 1.863 1.147 2.084zm1.67-1.96c-.002-.015-.004-.032-.008-.046a.404.404 0 01.008.046zm-.043-.181z" fill="#F6BE4A"/><path d="M189.091 118.383c.028 0 .055.01.079.028.176.137.317.287.417.451.039.06.013.141-.053.18-.066.039-.152.022-.188-.039a1.525 1.525 0 00-.36-.386c-.058-.045-.062-.127-.011-.183a.136.136 0 01.116-.051z" fill="#F4E8D8"/><path d="M189.567 112.106c-.897 0-1.526.283-1.526.283l.881-7.482c.06-.807.257-3.153.257-3.153s4.6.67 5.181.844c0 0-.628 2.548-.84 3.267l-1.932 6.501c0 .002-1.124-.26-2.021-.26z" fill="#C73F37"/><path d="M192.2 110.305l-.272.901s-1.552-.131-3.419-.131c.002 0 .565-.538 3.691-.77z" fill="#1D2538"/><path d="M188.036 112.447s2.564-.021 3.405.415l-.327 1.07s-2.616-.731-3.166-.731l.088-.754z" fill="#C73F37"/><path d="M188.352 109.764l.036-.294s1.959-.112 3.261.303l-3.297-.009zm4.259-.977l.24-.763s-2.605-.567-4.32.11c0 0 3.147-.11 4.08.653zm.909-2.92l-.391 1.3s-2.558-1.042-4.412-.694l.27-2.343s1.939.786 4.533 1.737zm.402-1.561l.19-.679s-2.434-1.169-4.51-.659c0 0 4.065.764 4.32 1.338z" fill="#1D2538"/><path d="M184.952 98.008a.833.833 0 01.469-.054l14.225 2.193c.181.039.361.344.871 1.111.342.515.503 1.179-.077 1.452-.76.359-1.604.967-1.916.874l-13.649-2.438c-.21-.041-.865-.569-1.132-.788a5.517 5.517 0 01-.987-1.135.57.57 0 01.253-.835l1.943-.38z" fill="#C73F37"/><path d="M184.596 97.4a.85.85 0 01.49-.056l14.443 2.575c.038.009 1.038 1.109.91 1.519-.129.41-1.865 1.136-1.865 1.136s-14.723-2.388-14.854-2.567c-.242-.33-.642-.666-.914-1.089a.596.596 0 01.264-.872l1.526-.647z" fill="#F6874E"/><path d="M184.596 97.4a.85.85 0 01.49-.056l1.807 2.053 11.681 3.177s-14.723-2.388-14.854-2.567c-.357-.354-.642-.666-.914-1.089a.596.596 0 01.264-.872l1.526-.647zm8.198-19.396l-.633 3.766 4.553 6.695.691-3.673-4.611-6.788zm-.768 4.876l-.18 1.45 4.551 6.696.24-1.36-4.611-6.786z" fill="#F6BE4A"/><path d="M187.042 97.756l.422.597c.141.21.184.232.4.093l.688-.424-1.51-.266z" fill="#C73F37"/><path d="M188.867 111.493c-.134.325.212.428.702.482.354.038 1.007-.318 1.007-.318s.588.193.834.341c.127.075-.984-.023-1.378 0-.394.024-1.287.402-1.287.402a.278.278 0 00-.075.015c-.299.107-.488.425-.432.921a.262.262 0 00.09.162c.062.058.175.081.133.259-.058.235-.328.404-.326.574 0 .097.189.913.253.986l.865.034s-.994.114-1.064.57c-.122.79.548 1.205 1.012 1.13.576-.093.572.191 1.068.277 0 0 1.225.133 1.388-.295.171-.449.717-.799.886-1.432.098-.372.098-1.111.368-1.556.529-.868-.122-1.121.024-1.68.128-.483.466-.517.295-1.086-.135-.443-.597-.568-.935-.692-.339-.123-1.231-.198-2.115-.099.002.004-1.176.681-1.313 1.005z" fill="#CE6D3E"/><path d="M188.866 111.493c-.135.324.208.477.698.53.353.039 1.008-.367 1.008-.367s.589.193.835.342c.126.075-.985-.024-1.379 0-.393.023-1.286.401-1.286.401a.312.312 0 00-.075.015c-.3.108-.514.454-.456.948.009.066.144.23.193.275.062.058.013.133 0 .159-.107.217-.238.264-.274.429-.086.383.015.737.254 1.092l.908.034s-1.047.112-1.107.569c-.057.441.319 1.04.822.911.72-.185 1.589.112 1.681.071.648-.297.081-.928.295-1.416.159-.361.171-.773.338-1.162.146-.337.086-1.304.086-1.304l.848-.765s-.028-.736-.086-1.02c-.105-.528-1.468-.846-1.991-.748-.094.022-1.175.681-1.312 1.006z" fill="#F6874E"/><path d="M187.766 113.448c.512.774 1.163-.03 1.011-1.205-.073-.565-.251-1.295-1.103-1.044-.852.252-.822.868.092 2.249z" fill="#F6874E"/><path d="M195.502 137.69c.043 1.173-4.375 1.706-5.505 3.291-1.632 2.29-.225 2.381-15.244 3.513-12.15.917-15.958-4.976-15.806-7.459.15-2.449 8.86-5.686 18.024-5.697 9.181-.008 18.441 3.867 18.531 6.352z" fill="#EC5E4D"/><path d="M160.642 145.321s-2.346-9.559-2.54-12.468c-.195-2.909 9.579-7.065 11.338-2.286 1.76 4.78 2.152 12.468 2.152 16.002 0 3.534-.587 6.651-4.887 6.442-6.285-.305-4.536-1.428-6.063-7.69z" fill="#273150"/><path d="M160.642 145.321s-2.346-9.559-2.54-12.468c-.195-2.909 9.579-7.065 11.338-2.286 1.76 4.78 2.152 12.468 2.152 16.002 0 3.534-.587 6.651-4.887 6.442-6.285-.305-4.536-1.428-6.063-7.69z" fill="#102441"/><path d="M167.514 146.127c-2.582-.619-6.219 1.529-5.962 4.391.195 2.182-1.986 2.805-3.453 7.065-1.466 4.26 9.383 7.065 10.361 1.662.976-5.402 5.994-11.456-.946-13.118z" fill="#273150"/><path d="M167.681 145.426c-2.581-.618-6.381 2.23-6.124 5.091.195 2.183 1.498 3.448.032 7.708s5.897 6.425 6.876 1.02c.974-5.402 6.154-12.156-.784-13.819z" fill="#102441"/><path d="M168.462 159.245c-.978 5.403-6.841 20.472-7.428 23.172-.586 2.702-2.54 3.706-2.54 3.706s-2.676 1.233-2.593-4.857c.062-4.653.737-19.422 2.203-23.682 0 0 3.714-1.559 6.06-.934 2.344.621 4.298 2.595 4.298 2.595z" fill="#F6874E"/><path d="M168.459 159.245c-.978 5.403-6.841 20.472-7.428 23.172-.286 1.326-.618 3.315-1.335 3.369-.743.056-1.043.556-1.238-4.097-.194-4.365 1.662-19.847 3.128-24.106 0 0 .229-1.56 2.575-.935 2.344.623 4.298 2.597 4.298 2.597z" fill="#CE6D3E"/><path d="M158.654 179.981c-1.072 2.037-3.029 3.237-3.029 3.237s-1.387 2.464-1.188 3.392c.128.563.691 1.998.691 1.998s.42 4.995.568 5.583c.218.881 9.018 2.29 9.607 2.514.589.223.46-4.746.46-4.746s-3.772-4.674-4.478-6.674c-.696-1.963-1.473-7.499-2.631-5.304z" fill="#CE6D3E"/><path d="M173.545 129.111c-1.954 1.662-3.095 5.402-1.629 8.936 1.466 3.534 2.802 9.905 4.17 11.362 1.368 1.456 3.714 3.394 6.452 3.394 2.736 0 3.909-3.949 3.421-7.066s-2.248-11.95-3.616-15.898c-1.368-3.948-6.843-2.391-8.798-.728z" fill="#102441"/><path d="M176.456 147.2c-.97 1.04-1.212 4.479-1.758 6.331-.734 2.492-.875 4.378-.734 7.789.143 3.467.837 7.954 1.175 10.371.694 4.964-.749 6.81 1.597 7.085 2.346.277 1.954-.555 2.866-3.049.912-2.494 4.237-15.516 4.887-18.149.651-2.632 1.043-5.542 1.173-7.897.131-2.354-6.616-5.258-9.206-2.481z" fill="#273150"/><path d="M176.785 146.893c-1.483 1.003-1.676 4.769-1.239 8.805.346 3.203 8.295 4.516 8.945 1.884.651-2.631 1.043-5.542 1.173-7.896.131-2.355-6.064-5.074-8.879-2.793z" fill="#102441"/><path d="M174.163 155.911c-.79 2.578-.396 6.969.717 15.13.676 4.966-.326 8.474 2.02 8.751 2.347.277 2.751.355 3.224-2.258.48-2.648 3.714-17.318 4.365-19.949 0 0-2.933-1.801-5.668-1.94-2.736-.14-4.658.266-4.658.266z" fill="#F6874E"/><path d="M175.546 155.698c.015 2.945 1.186 12.109 1.321 17.009.139 5.063-1.206 6.361 1.141 6.638 2.346.277 1.656.803 2.119-1.811.501-2.84 3.714-17.318 4.365-19.95 0 0-2.811-1.71-5.669-1.939-1.154-.095-3.277.053-3.277.053z" fill="#CE6D3E"/><path d="M175.287 177.002s-.269 1.649-1.01 3.383c-.636 1.486 2.674 2.167 3.879 3.274 0 0 8.749 4.593 11.679 3.138 3.256-1.615-5.773-6.208-3.191-4.799 0 0-5.474-2.702-6.255-4.779-.784-2.076-5.102-.217-5.102-.217z" fill="#F6874E"/><path d="M176.688 176.731c-.113 2.464-1.19 3.02-1.582 4.477-.755 2.807 4.795 4.532 4.431 4.315 0 0 7.266 2.533 10.198 1.079 3.316-1.646-5.736-5.981-3.095-4.602 0 0-5.473-2.702-6.255-4.779-.781-2.078-3.594-2.713-3.697-.49z" fill="#CE6D3E"/><path d="M174.488 179.169c.139-.277.394-.518.436-.241.045.277.467 1.339 1.045 1.665.576.327 7.152 3.923 9.457 3.267 1.407-.399.39-1.673-.616-2.607-.642-.598-1.282-1.055-1.282-1.055s2.949 1.667 4.304 2.451c1.355.784 4.205 3.465 4.474 4.511.272 1.046-10.016 1.177-11.491.49-1.474-.688-3.66-2.649-4.473-3.433-.75-.722-1.621-.399-1.899-.72-.63-.719-.377-3.497.045-4.328z" fill="#992C29"/><path d="M171.493 96.562s2.603-.589 3.519.588c1.053 1.356 3.868 4.838 4.007 7.609.111 2.209-.268 3.974-1.376 7.046-.91 2.524-2.137 6.399-3.682 7.104-4.71 2.146-8.732 1.796-11.363.213-.978-.589-2.016-2.082-1.937-5.989.034-1.684-.017-2.249-.409-8.232-.524-8.043 2.64-8.376 5.859-8.556 3.217-.183 5.382.217 5.382.217z" fill="#F6BE4A"/><path d="M171.148 99.696l-.514-.028a1.67 1.67 0 01-1.575-1.763l.364-6.776a1.67 1.67 0 011.757-1.58l.514.027c.92.05 1.627.84 1.575 1.764l-.364 6.775a1.672 1.672 0 01-1.757 1.581z" fill="#F6874E"/><path d="M171.28 96.95l-.514-.027a1.67 1.67 0 01-1.575-1.764l.364-6.775a1.669 1.669 0 011.757-1.581l.514.028c.92.05 1.627.84 1.575 1.764l-.364 6.775a1.673 1.673 0 01-1.757 1.58z" fill="#CE6D3E"/><path d="M155.969 182.95c-.278.09-.869.56-.974.835-.46 1.206-.847 2.344-.734 3.059.045.28.313.993.589 2.346.306 1.491.1 4.176.927 5.306.824 1.13 7.862 3.583 9.425 3.289 1.565-.294.679-4.915.559-5.824-.127-.958-3.554-5.25-4.979-8.442 0 0 .012.314.239 1.113.535 1.869 1.578 5.787.12 5.931-2.087.204-5.082-2.642-5.206-4.067-.122-1.407-.351-2.53-.31-2.82.04-.294.344-.726.344-.726z" fill="#992C29"/><path d="M177.973 134.863l3.983 3.521c.418.331 1 .071.917-.414-.287-1.665-1.135-4.477-4.9-3.107z" fill="#EC5E4D"/><path d="M160.772 114.478c-.65 1.241-5.668 16.936-.847 27.397 0 0 4.247-4.627 10.313-5.879 12.082-2.492 11.039.93 11.35 1.834.205.602.856.913 1.455.707.155-.054.328-.118.521-.195 2.714-1.087 7.434-2.737 11.827-1.178 0 0-8.522-14.225-19.919-21.32-10.909-6.784-14.049-2.608-14.7-1.366z" fill="#F6BE4A"/><path opacity=".5" d="M182.433 136.905s-1.128-8.159-3.952-10.651c0 0 1.128 1.927 1.128 3.398l-1.355-.906s1.405 2.079 2.372 4.193c.848 1.852 1.227 3.753 1.807 3.966z" fill="#F6BE4A"/><path d="M179.206 83.858c1.655 7.989-1.59 10.712-7.207 10.536-4.221-.133-7.679-2.814-7.955-8.116-.278-5.301 1.946-9.651 6.114-10.351 5.501-.924 7.972 2.74 9.048 7.93z" fill="#CE6D3E"/><path d="M177.271 85.675c.083.393.149.77.203 1.128.779 5.347-1.751 7.198-5.936 7.072-3.357-.103-6.107-2.19-6.328-6.316-.22-4.127 3.243-6.895 6.559-7.439 4.378-.72 4.645 1.514 5.502 5.555z" fill="#F6874E"/><path d="M164.662 90.123c1.291-.2 2.13-1.705 1.873-3.362-.257-1.658-1.512-2.84-2.803-2.64-1.291.2-2.129 1.705-1.872 3.362.256 1.658 1.511 2.84 2.802 2.64z" fill="#F6874E"/><path d="M164.04 84.083l1.355 1.493s.007-6.244 4.883-7.965c4.341-1.534 6.328.185 6.328.185s-2.344-3.886-8.246-1.34c-4.936 2.128-4.32 7.627-4.32 7.627z" fill="#F6BE4A"/><path d="M168.075 84.949c.38 0 .687-.577.687-1.29 0-.71-.307-1.288-.687-1.288-.379 0-.687.577-.687 1.289s.308 1.289.687 1.289zm7.062-.552c.379 0 .687-.577.687-1.29 0-.711-.308-1.288-.687-1.288-.38 0-.687.577-.687 1.289s.307 1.289.687 1.289z" fill="#273150"/><path d="M174.328 81.544l1.284-.706m-6.443 1.073l-1.704-.46" stroke="#273150" stroke-miterlimit="10" stroke-linecap="round" stroke-linejoin="round"/><path d="M175.96 76.7s1.237 1.51 2.507 2.157c.959.49 1.729.58 1.729.58l-.192-.387.477-.37s-1.794-.189-4.149-2.206l-.372.226z" fill="#EE5D4F"/><path d="M175.836 76.524s.649 1.843 1.621 2.887c.734.788 1.428 1.139 1.428 1.139l-.05-.428.576-.183s-1.62-.792-3.144-3.499l-.431.084z" fill="#EE5D4F"/><path d="M176.62 77.497c.459-.082.893-2.533-.197-2.584-1.025-.05-2.187.084-1.995.859.195.775 1.736 1.807 2.192 1.725z" fill="#EE5D4F"/><path d="M177.016 76.103s-.169-1.05-.494-1.027c-.326.024-.035.473.049 1.164.085.692.503.308.445-.137z" fill="#F7BC4B"/><path d="M176.241 76.99s-.069-.483.633-.951c.702-.469 1.237-.724 1.683-.445.445.28.601 1.501.347 2.118-.255.616-1.818.148-2.212-.084-.394-.234-.451-.638-.451-.638z" fill="#EE5D4F"/><path d="M178.796 76.58s.147.982-.289 1.14c-.649.239-.24-1.62-.201-1.911.036-.295.607.068.49.77z" fill="#F7BC4B"/><path d="M161.815 109.483s2.552 5.71 3.717 6.962c1.173 1.263 2.725 2.666 4.251 2.073 1.522-.591 2.194-4.395 1.121-6.388-1.059-1.968-3.003-7.644-3.658-8.539-.651-.892-3.076-.26-4.258.459-1.19.722-2.029 3.3-1.173 5.433z" fill="#F6874E"/><path d="M168.046 105.148s-2.192-8.849-5.125-8.458c-2.799.374-3.315 2.772-2.962 6.056.359 3.355 1.899 6.904 1.899 6.904s.584-3.218 6.188-4.502z" fill="#EC5E4D"/><path d="M167.158 102.274s-1.301-5.974-4.234-5.583c-2.8.374-3.316 2.77-2.963 6.055.36 3.356.912 4.007.912 4.007s.291-2.118.681-3.392c.336-1.094 2.477-1.603 2.477-1.603l3.127.516z" fill="#C93F37"/><path d="M184.683 107.481s-4.431.915-6.903 1.734c-2.179.721-5.912 1.942-8.044 3.454-2.152 1.527-2.4 3.71-1.828 5.136.578 1.439 3.354.582 5.646-.204 2.282-.784 10.96-4.949 13.084-6.326 2.106-1.369 1.563-5.132-1.955-3.794z" fill="#CE6D3E"/><path d="M175.398 110.031c-2.347.653-3.53 1.126-5.662 2.638-2.152 1.527-2.4 3.71-1.828 5.136.578 1.439 3.354.582 5.646-.204 2.285-.784 3.909-8.146 1.844-7.57z" fill="#F6874E"/><path d="M186.191 110.261c.645.885 2.28.749 2.83.281.668-.565 1.066-1.046 1.49-1.044.265 0 1.244.185 1.779.427.03.058-.099.286-.075.351.032.09.06.144.156.15.608.043 1.109-.359 1.077-.997l-.062-.848.623-.756.12-2.37-2.066-2.23a.497.497 0 00-.398-.156l-2.809.208a.539.539 0 00-.413.247l-2.549 4.004c-.002.002-.347 1.848.297 2.733z" fill="#CE6D3E"/><path d="M192.187 108.746c.195.213.501.537.764.743.285.224.518.303.499-.06l-.062-.848.777-.621s.18-1.839.12-2.369c-.161-1.41-2.242-2.456-2.242-2.456-.184-.092-.229-.075-.378-.064 0 0-.662 1.098-.703 1.428-.04.331.57 1.785.57 1.785s-.666.849-.702 1.102c-.088.595.68.623 1.357 1.36z" fill="#F6874E"/><path d="M160.949 104.996s.195-1.324 1.173-1.717c0 0-1.085 3.173-1.252 3.474-.167.3-.165-1.021.079-1.757z" fill="#C93F37"/><path d="M160.315 98.457c-.522 1.503-2.477 6.603-4.431 17.851-1.955 11.247 1.173 25.762 2.997 27.333 1.824 1.57 8.209-10.071 21.894-2.812 0 0-9.387-13.508-14.661-17.198-6.452-4.511-5.93-15.433-5.148-21.252.783-5.817-.651-3.922-.651-3.922z" fill="#29ACE4"/><path d="M155.884 116.31c-1.955 11.247 1.173 25.762 2.997 27.333 1.824 1.57 8.209-10.071 21.894-2.812 0 0-4.964-6.943-8.042-10.535 0 0-3.965 5.858-4.982 5.646-.603-.127-5.535.3-8.468-3.229-2.933-3.53-3.399-16.403-3.399-16.403z" fill="#1689CB"/><path d="M159.115 129.566s.163 1.267 1.61 3.398c1.749 2.576 7.03 3.654 7.03 3.654l2.117-1.403s-2.907-.24-5.392-1.486c-2.486-1.246-5.271-3.373-5.365-4.163z" fill="#1689CB"/><path d="M168.656 96.023c-.983-.228-6.548-.688-8.113 2.06-1.565 2.745-.293 7.83-.293 7.83s.291-4.191 2.395-5.525c1.218-.774 8.398 1.753 9.432 1.912 1.905.294-.488-2.451-.488-2.451s-1.661-3.532-2.933-3.826z" fill="#29ACE4"/><path d="M173.199 96.399c-.676.174-2.566 6.607-.702 5.46.491-.303 3.19-1.128 6.272-.833 2.053.195 3.669 1.357 3.813 1.127.49-.786-6.503-6.5-9.383-5.754z" fill="#1689CB"/><path d="M172.418 101.303a.343.343 0 00.342-.344.343.343 0 10-.685 0c0 .19.154.344.343.344z" fill="#273150"/><path d="M118.252 127.341s.231-4.303-2.02-4.552c-2.252-.249-7.052 4.739-8.137 5.269-1.085.533-1.942 2.247-2.496 2.778-.554.53-2.044.936-2.87 1.602-.829.668-3.73 2.677-1.649 4.92 2.085 2.247 2.873 2.906 5.746 1.682 2.864-1.223 12.175-9.478 11.426-11.699z" fill="#1D2436"/><path d="M113.792 150.91s-7.601-2.497-16.318-3.603c-3.93-.498-4.13 5.433-1.53 10.006 1.427 2.516 9.042 4.327 16.084 7.815 5.823 2.883 11.134 7.779 13.55 7.678 5.333-.226 1.944-18.947-11.786-21.896z" fill="#48598B"/><path d="M106.816 153.548c-1.16-.101.933 2.167 1.479 3.162 1.589 2.893 2.888 6.197 4.286 8.294 1.235 1.851.368-.63-.636-3.781-.456-1.431-.798-2.801-1.13-3.738-.186-.528-3.999-3.937-3.999-3.937z" fill="#273150"/><path d="M107.059 188.232s-4.459 3.765-6.019 5.798c-1.567 2.038 2.618 4.251 6.332 3.74 3.705-.51 7.218-1.867 8.472-3.891 1.25-2.017 1.259-2.038 3.218-4.204 1.952-2.156-.735-6.734-1.841-7.696-1.109-.961-9.55 2.99-10.162 6.253z" fill="#EC6141"/><path d="M107.176 187.25s-4.459 3.766-6.02 5.798c-1.567 2.038 2.888 3.4 6.602 2.889 3.705-.509 6.235-1.149 7.49-3.173 1.25-2.017 2.162-2.313 4.121-4.479 1.952-2.156-.925-6.324-2.032-7.286-1.109-.962-9.549 2.988-10.161 6.251z" fill="#13161F"/><path d="M104.587 181.229s1.357 2.088 1.094 2.938c-.264.853-1.066 3.218 2.115 4.29 2.71.913 9.275-3.005 11.345-4.378.368-.245.612-.64.653-1.059.111-1.166.173-3.568-.946-4.99-1.52-1.927-1.321-1.373-3.725-7.725-2.385-6.307-9.999-19.427-10.476-20.774-.478-1.345-6.67-2.625-7.918-2.477-1.25.148-6.095 6.571-5.966 8.341.128 1.774 2.872 7.914 5.231 13.13 2.372 5.245 5.283 7.677 5.979 9.181 1.09 2.356 2.614 3.523 2.614 3.523z" fill="#48598B"/><path d="M117.278 176.14c-1.119-2.093-.58 1.046-1.169 3.269-.338 1.276 2.291-1.177 1.169-3.269zm-12.778 4.446s1.344 3.5 2.095 3.76c.752.262 3.001-.033 4.528-.817 1.526-.786-3.898.458-6.623-2.943zm-11.368-22.478s.818-1.405 1.467-2.692c.648-1.286.956 3.072-.446 4.194-1.402 1.123-1.02-1.502-1.02-1.502zm16.922-.049l-4.386-2.161-5.414-4.346s1.267.026 2.26.724c.45.316 2.815 2.281 4.104 3.31 1.552 1.244 2.956 1.974 3.436 2.473z" fill="#273150"/><path d="M136 128.732s-22.461-4.964-18.18-8.238c4.253-3.254 16.121-9.112 20.46-2.812 4.369 6.346.353 13.306-2.28 11.05z" fill="#1D2436"/><path d="M144.637 174.333s.351-.831 1.394-1.555c1.04-.722 4.266-.421 4.842.862.576 1.286.569 10.107.569 10.704 0 .599-1.158 3.085-2.209 4.545-1.053 1.465-3.037 1.747-4.786 1.059-1.749-.687-.565-3.714-.092-5.16.473-1.439-.535-8.906.282-10.455z" fill="#EC6141"/><path d="M143.954 173.648s.062-.511 1.104-1.235c1.041-.722 4.267-.421 4.842.861.576 1.287.859 9.787.859 10.384 0 .6-1.158 3.085-2.209 4.546-1.054 1.465-3.038 1.746-4.787 1.059s-.565-3.714-.092-5.16c.473-1.441-.535-8.906.283-10.455z" fill="#13161F"/><path d="M138.568 176.967s3.904-3.349 5.737-3.43c3.913-.177 3.007 3.772 2.999 6.493-.007 2.731-2.117 4.741-2.901 5.263-.783.522.582.256-1.693 3.369-2.288 3.127-6.351 6.876-9.057 7.258-2.061.292-8.976-3.353-5.279-10.79 1.156-2.322 8.117-6.197 10.194-8.163z" fill="#273150"/><path d="M125.932 160.413s-.723 17.834-.426 24.573c.3 6.799-.008 10.002 1.632 11.684 1.641 1.686 4.621 2 6.71 1.308 2.085-.692 1.336-1.564 2.997-2.028 1.659-.462 2.849-5.516 3.273-7.224.424-1.704 1.556-18.259 1.997-24.244.439-5.936-.751-8.969-5.591-8.909-4.848.065-9.72 1.356-10.592 4.84z" fill="#273150"/><path d="M125.492 163.296s-.244 16.58-.011 22.773c.237 6.249-.007 9.19 1.284 10.738 1.293 1.549 3.644 1.839 5.29 1.201 1.644-.636 5.728-6.861 6.062-8.429.334-1.566 1.524-12.238.454-22.349-.576-5.435-.593-8.243-4.408-8.187-3.821.054-7.984 1.05-8.671 4.253z" fill="#47588A"/><path d="M112.476 154.693c1.186 1.553 2.474 2.683 4.039 3.922.366.29 12.771 5.493 12.771 5.493s-6.961-2.655-5.994-1.961c4.134 2.962 5.213 4.969 10.036 6.146 1.126.275 3.467-1.944 4.138-1.21 2.151 2.355 1.387 6.812 1.564 4.61.634-7.86 3.363-11.445-2.541-14.517-6.218-3.235-27.323-6.822-24.013-2.483z" fill="#273150"/><path d="M115.147 150.76c.182-1.629-.21-7.927-.148-15.903.062-7.89.007-11.022 4.562-12.865 4.534-1.835 10.215-2.378 14.522.444 1.997 1.308 2.873 29.958 3.254 32.519.381 2.569-4.119 6.782-8.186 7.044-4.074.264-14.524-6.557-14.004-11.239z" fill="#F6BE4A"/><path opacity=".5" d="M125.25 152.601s-.646 1.211-.379 2.375c-2.373-1.035-4.709-2.206-5.355-3.028 0 0 2.085 3.531 5.212 4.708 3.128 1.177 5.994.653 5.994.653s-4.466-3.082-5.472-4.708z" fill="#F6BE4A"/><path d="M112.44 153.226c0 .084.03.163.088.223.466.49 1.879 2.608 4.052 3.347.582.198 1.584-.23 1.588-.479l.011-.509c.002-.123-1.214-.004-1.321-.06-.642-.34-3.354-2.473-4.484-3.813-.195-.232.068.981.066 1.291z" fill="#F4E8D8"/><path d="M121.435 121.141c.551-.307-6.706 3.218-3.448 17.8.867 3.877.006 10.646.289 11.958.285 1.313 1.16 4.243-.129 4.907-2.386 1.228-4.647-2.548-5.48-3.394-1.292-1.311 1.366-1.925 1.257-6.756-.116-5.107-1.822-12.232-1.488-15.132.764-6.618 2.939-7.13 3.793-7.735.932-.66 4.541-1.274 5.206-1.648z" fill="#972B28"/><path d="M121.434 121.141c.208-.773-4.213 1.536-4.818 2.086-.591.537-1.216 1.278-1.783 2.305-1.818 3.282 2.791 11.688 2.791 11.688s-.015-8.041.16-9.875c.174-1.83 3.25-4.709 3.65-6.204z" fill="#F4E8D8"/><path d="M121.582 120.507s-.22.509-.197 1.132c.088 2.505.61 9.428 1.541 9.514.946.086 1.383-.142 2.569-4.023.253-.827 2.766-7.055 1.976-7.592" stroke="#913636" stroke-miterlimit="10"/><path d="M123.101 133.293c.277 0 .501-.516.501-1.152 0-.636-.224-1.151-.501-1.151s-.501.515-.501 1.151.224 1.152.501 1.152z" fill="#29ACE4"/><path d="M121.412 118.166l.146 3.909c.059 1.626 1.547 2.827 3.253 2.625l.232-.028c1.637-.193 2.836-1.611 2.68-3.162l-.392-3.875c-.184-1.828-2.147-2.947-3.969-2.268-1.207.451-1.995 1.581-1.95 2.799z" fill="#CE6D3E"/><path d="M129.674 157.745l.015.327c.009.187.08.361.199.49.859.928 4.517 4.779 6.934 5.69 1.86.7 4.356.831 5.78.842.676.004 1.297-.436 1.584-1.125.188-.452-.05-.974-.482-1.062-2.166-.444-8.036-1.942-12.936-5.84-.464-.372-1.124.036-1.094.678z" fill="#F4E8D8"/><path d="M128.194 119.882c-.668.52-3.535 5.725-1.135 12.906 2.419 7.246.205 20.264 1.775 23.494.447.92 6.858 6.771 9.292 6.874 1.603.067 3.913.327 5.516.537.754.099 1.914-1.368 1.94-2.137.079-2.432 0-7.574-1.631-12.732-2.227-7.044-2.398-27.223-8.045-29.898-4.311-2.043-7.045.436-7.712.956z" fill="#972B28"/><path d="M135.774 150.122s4.536 2.773 5.739 3.164l-.681 1.628s-5.08-2.773-5.874-3.841l.816-.951zm-7.708-30.627c1.336-1.167 5.681-1.764 6.983-.933.736.469-2.744-1.007-4.51 2.988-2.188 4.945-2.976 12.814-2.976 12.814s-1.188-.649-1.612-6.941c-.282-4.199.777-6.76 2.115-7.928z" fill="#F4E8D8"/><path d="M139.226 147.271s.537-1.57.293-2.305c-.244-.735-.88 1.766-1.612 2.795-.353.494 1.092-.322 1.319-.49z" fill="#972B28"/><path d="M113.847 147.63l-.18.868 1.156-.671.212-1.031-1.188.834z" fill="#F4E8D8"/><path d="M127.172 164.991s1.955 1.145 3.258 2.191c1.304 1.046 3.781 1.865 3.781 1.865s-3.13.522-7.039-4.056z" fill="#273150"/><path d="M112.156 137.561c1.006 2.995-2.267 6.595-5.348 6.625-1.845.02-3.232-.833-4.467-2.539-.467-.644-.182-1.392-.52-2.096-.261-.546-1.175-1.047-1.349-1.571-.984-2.992.719-5.153 3.77-5.452 2.198-.214 2.652 1.248 3.859 1.796.435.198 1.745.236 2.152.49 1.468.926 1.41 1.285 1.903 2.747z" fill="#C93F37"/><path d="M111.555 139.48c.152 1.553-.824 3.1-2.185 3.454-1.364.352-2.588-.627-2.736-2.184-.148-1.556.518-3.82 1.875-4.168 1.355-.35 2.894 1.347 3.046 2.898z" fill="#F4E8D8"/><path d="M110.854 139.637c.111 1.168-.6 2.335-1.589 2.599-.989.266-1.879-.473-1.986-1.646-.107-1.17.576-3.488 2.074-3.095.987.258 1.39.975 1.501 2.142z" fill="#CE6D3E"/><path d="M108.98 137.757c-.554.438-1 1.349-1.156 2.745-.156 1.396 2.862 2.906 2.862 2.906s1.882.699 3.136-2.328c.499-1.205-2.074-3.437-2.055-4.206.071-2.791-1.877.163-2.787.883z" fill="#F6874E"/><path d="M111.373 137.364s-.978.114-.781.851c.195.734 1.734 2.043 3.348 1.652 1.614-.391-2.567-2.503-2.567-2.503z" fill="#CE6D3E"/><path d="M101.894 138.541c-.13-.851-.042-1.665-.064-1.83-.064-.49-.781 1.897-.781 1.897.877 1.274.912.373.845-.067zm5.767-4.12s-1.858-1.667-2.443.982a8.262 8.262 0 012.443-.982z" fill="#972B28"/><path d="M135.925 137.141c-1.334-2.166-2.691-4.918-4.089-7.072-1.395-2.148-.593-8.973 2.445-10.148 3.029-1.171 3.594.275 6.39 4.335 2.806 4.077 7.134 14.773 5.796 18.459-.712 1.961-6.987 2.96-10.542-5.574z" fill="#1D2436"/><path d="M145.604 139.147c-1.492-2.155-3.395-3.646-7.287-2.861-1.939.39-2.185 2.24-2.185 2.24s-2.212-.202-3.22.7c-1.01.905-4.433 0-4.324 4.511.109 4.512 1.212 6.585 4.217 7.16 3.003.576 7.696-3.364 7.696-3.364s1.654.322 3.853-1.774c2.217-2.114 3.62-3.19 1.25-6.612z" fill="#C93F37"/><path d="M136.633 137.918s1.77-1.564 3.51-.021c.191.169-2.147-.301-3.51.021zm-7.944 7.727c-.229 4.079 4.641 3.673 4.641 3.673s-.933.432-.353.591c.685.187 1.883.391 2.616-.122 2.615-1.837 4.073-6.346.873-8.193-.587-.338-.76 2.21-.846 1.476-.092-.78-.918-1.988-2.38-2.754-.816-.43-4.268.272-4.551 5.329zm12.415-5.143s-.839-.883-1.92-1.276-2.974-.833-2.974-.833c.298-.09 5.012-.383 4.894 2.109z" fill="#972B28"/><path d="M130.877 140.657c-.739.045-3.085.282-3.265 4.455-.143 3.369 2.847 4.153 2.847 4.153s2.177.189 3.169-.657c1.335-1.141 1.444-3.854.616-6.176-.426-1.191-2.629-1.82-3.367-1.775z" fill="#F4E8D8"/><path d="M129.393 141.432c-.736.033-2.877-.369-2.988 3.592-.09 3.194 2.902 3.981 2.902 3.981s2.171.208 3.145-.583c1.312-1.065 1.376-3.638.514-5.853-.443-1.139-2.837-1.169-3.573-1.137z" fill="#CE6D3E"/><path d="M114.778 127.233s.85-1.158 3.275-1.082c3.389.105 7.028 1.125 8.111 2.661.803 1.137.848 2.29.848 2.29s1.076.105 1.609.896c.336.498.187 6.764.187 6.764-.058 1.107-.608 1.867-1.73 1.852l-.95-.013-11.581-1.518c.004 0-.876-10.492.231-11.85z" fill="#634874"/><path d="M110.785 135.991c.131 3.008 2.702 3.534 3.442 3.658 2.002.336 12.78 1.281 12.78 1.281s1.879-.722.807-.797c-.257-.017-5.577-1.21-7.319-1.528-2.969-.541-3.975-2.485-3.975-2.485s-5.795-1.501-5.735-.129z" fill="#7E6391"/><path d="M126.618 149.943l.886-8.835c-.051-.455-.409-.646-1.817-.894 0 0-.681-.062-1.214-.116-.259-.025-.884.101-.91.883l-.443 10.006c-.039.366 1.269.11 1.269.11 1.933-.241 2.188-.329 2.229-1.154zm-10.156-12.53c-1.864.834-3.078 1.083-4.788.254-1.272-.544-1.623-3.325-1.591-4.198l.024-2.998c.068-1.955 1.729-3.538 3.709-3.538 2.849-.002 4.337 2.225 4.26 5.043l-.1 1.689c-.024.87-.658 3.366-1.514 3.748z" fill="#634874"/><path d="M123.997 150.923l.244-10.251c.043-.84.097-.98-1.241-1.091l-1.207-.009c-.996.054-1.488.561-1.518 1.386l.415 8.193c-.019 1.458-.207 1.864.818 1.946 1.708.135 2.47.327 2.489-.174z" fill="#7E6391"/><path d="M119.614 140.908c.124 1.272.39 2.649 2.152 3.087.075.02 1.457-.068 1.457-.068l-.58-3.371c.011-.664-.342-1.016-.762-1.063l-1.488-.103c-.545-.063-.86.674-.779 1.518z" fill="#7E6391"/><path d="M121.095 140.934c.105 1.21.409 2.569 1.931 2.988a.431.431 0 00.199.005c.906.075 2.353-.497 2.363-1.13l.146-2.58c-.043-.108-3.851-.608-3.851-.608-.471-.058-.858.524-.788 1.325z" fill="#634874"/><path d="M115.78 131.633c-.101 1.052-1.053 1.851-2.128 1.785-1.075-.067-1.862-.975-1.76-2.03.103-1.053 1.058-1.848 2.13-1.781 1.071.069 1.858.975 1.758 2.026z" fill="#1D2436"/><path d="M115.192 131.076c-.139 1.463-1.462 2.576-2.956 2.484-1.496-.093-2.59-1.358-2.447-2.823.144-1.461 1.469-2.567 2.959-2.473 1.49.095 2.584 1.354 2.444 2.812z" fill="#F6BE4A"/><path d="M114.056 130.859c-.088.922-.923 1.62-1.863 1.562-.939-.058-1.631-.855-1.539-1.776.09-.92.925-1.618 1.863-1.558.937.06 1.626.853 1.539 1.772z" fill="#1D2436"/><path d="M118.431 127.242c1.366.947 1.706 2.348 1.351 4.814-.03.202.133.382.372.419l4.997.827c.301.047 1.074.264 1.106.006.133-1.042.304-4.017-1.866-5.128-1.026-.524-3.502-1.241-5.523-1.619-.497-.093-.82.414-.437.681z" fill="#BB83C3"/><path d="M118.899 126.368s3.616 1.477 2.115 6.489m.473-5.918s2.994 1.983 1.554 6.155m.409-5.575s2.678 1.968 1.537 5.792" stroke="#634874" stroke-width="2" stroke-miterlimit="10" stroke-linecap="round" stroke-linejoin="round"/><path d="M119.664 133.57l6.563 1.145" stroke="#BB83C3" stroke-width="2" stroke-miterlimit="10" stroke-linecap="round" stroke-linejoin="round"/><path d="M132.02 142.84s-.526-2.084-.826-2.655c-.148-.282-.113-.843-.454-1.667-.368-.894-.188-1.616-.582-2.325-.334-.601-1.877.494-1.815 1.626.034.641.111 1.891.282 2.516.193.709-2.446.148-2.446.148-.281-.099-2.094.03-2.389.062l-1.871.026c-.777.252-.908.819-.882 1.637.013.438 2.111.191 2.999.335.646.103 2.087-.139 2.108-.045 0 0-4.944 1.242-5.216 1.88-.535 1.265-.381 2.921-.184 3.168l.629.789s-.034.943.651 1.405c1.034.698 4.326 1.278 4.326 1.278s3.883-1.315 4.532-1.932c.648-.614 1.457-1.117 1.541-3.078.079-1.955-.403-3.168-.403-3.168z" fill="#F6874E"/><path d="M120.924 144.376c-.525 1.269-.381 2.921-.184 3.168l.629.789s-.034.943.651 1.404c1.034.699 4.326 1.279 4.326 1.279l-1.182-2.254s-1.048-5.149-1.357-5.325c-.308-.176-2.691.475-2.883.939z" fill="#CE6D3E"/><path d="M112.088 124.78l-.137-6.872-3.164 2.868-3.613-5.298-.373 6.262-5.227.063 4.054 2.751-1.935 2.368 5.202.238c.462.019-2.483-1.246-2.483-1.246l.338-1.246-1.128-1.927 2.371-.113.452-2.492 2.175 2.122 2.228-1.441c-.002-.003 1.242 4.012 1.24 3.963z" fill="#F6BE4A"/><path d="M108.726 141.566l2.391 2.214c.041.037.09.061.146.067.522.058 3.763.013 4.827-.157.464-.073 1.592-1.231 2.797-2.414.377-.372.647-.589 1.03-1.055.212-.258.266-.595-.023-.761 0 0-.474-.264-.735-.068-.113.086-.122.053-.094-.011a.261.261 0 00-.137-.348c-.265-.107-.672-.202-1.072 0-.587.294-.523.213-.523.213 0-.277-.31-.606-.717-.621-.543-.022-.976.296-1.059.363-.011.009-.747.174-1.4.485-.775.37-1.923-.113-2.526-.343-1.111-.421-2.832-.466-2.993 2.232 0 .075.032.152.088.204z" fill="#F6874E"/><path d="M131.809 108.918c-1.071 6.096-3.096 7.226-3.096 7.226-8.828 3.257-16.183-.417-16.93-5.742-.965-5.345-1.612-8.148 7.364-9.89 8.918-1.73 13.603 3.052 12.662 8.406z" fill="#1D2436"/><path d="M130.811 107.737c-.912 5.166-8.569 3.675-8.569 3.675-1.547-.406-6.877-1.484-7.881-4.352-.857-2.445-1.978-5.196 5.636-6.674 6.933-1.345 11.617 2.809 10.814 7.351z" fill="#3D4C6D"/><path d="M129.797 110.553s.634-1.669.045-3.478c0 0 2.327.539-.045 3.478z" fill="#1D2436"/><path d="M116.517 102.659s-5.268 1.404-5.857 2.431c-.588 1.029 2.043 12.455 4.205 14.923 2.166 2.475 11.767-1.606 13.492-4.315 1.413-2.215.724-2.971.375-5.878-.362-3.028-3.021-4.294-3.545-5.336-.889-1.776-8.67-1.825-8.67-1.825z" fill="#CE6D3E"/><path d="M127.653 111.363c.387 1.982-1.552 6.511-5.542 7.733-4.005 1.229-7.244.915-8.899-3.345-1.697-4.371 2.618-10.336 6.589-11.527 3.956-1.183 6.499 2.679 7.852 7.139z" fill="#F6874E"/><path d="M116.096 110.897c.158.696-.116 1.084-.478 1.17-.364.086-.678-.161-.835-.859-.158-.696.009-1.332.373-1.418.36-.083.781.411.94 1.107z" fill="#34273A"/><path d="M121.224 105.81l-1.015 1.033m-4.422 2.109l-1.426.093" stroke="#34273A" stroke-miterlimit="10" stroke-linecap="round" stroke-linejoin="round"/><path d="M120.604 108.426c.169-.541 1.081-1.592 2.232-1.27 0 0-1.543 1.481-2.072 1.977-.081.075-.192-.604-.16-.707z" fill="#34273A"/><path d="M129.555 108.145c.037 1.763-.785 3.31-1.836 3.447-1.051.138-1.931-1.185-1.963-2.951-.032-1.764.792-3.298 1.839-3.433 1.046-.137 1.924 1.177 1.96 2.937z" fill="#F6874E"/><path d="M121.865 100.433s-8.447 9.183-11.332 10.309c-2.894 1.13-1.443-6.752 2.8-9.546 4.219-2.776 8.532-.763 8.532-.763z" fill="#1D2436"/><path d="M122.414 100.268s.102.642-1.632 1.8c-3.001 2.004-8.774 5.093-10.236 5.662-2.316.903-.529-4.232 2.781-6.594 3.525-2.516 9.087-.868 9.087-.868z" fill="#3D4C6D"/><path d="M116.632 102.85s-2.344 3.527-4.791 4.652c-.002.003 5.797-2.552 4.791-4.652z" fill="#1D2436"/><path d="M124.014 102.77s.603 4.335 1.47 5.442l1.708 1.54-1.155-6.144-2.023-.838z" fill="#3D4C6D"/><g filter="url(#filter1_d_0_93)"><rect x="-499" y="-351" width="970" height="322" rx="10" fill="#fff"/></g><defs><filter id="filter0_d_0_93" x="-173" y="-84" width="1198" height="550" filterUnits="userSpaceOnUse" color-interpolation-filters="sRGB"><feFlood flood-opacity="0" result="BackgroundImageFix"/><feColorMatrix in="SourceAlpha" values="0 0 0 0 0 0 0 0 0 0 0 0 0 0 0 0 0 0 127 0" result="hardAlpha"/><feOffset dy="69"/><feGaussianBlur stdDeviation="57"/><feComposite in2="hardAlpha" operator="out"/><feColorMatrix values="0 0 0 0 0 0 0 0 0 0 0 0 0 0 0 0 0 0 0.08 0"/><feBlend in2="BackgroundImageFix" result="effect1_dropShadow_0_93"/><feBlend in="SourceGraphic" in2="effect1_dropShadow_0_93" result="shape"/></filter><filter id="filter1_d_0_93" x="-613" y="-396" width="1198" height="550" filterUnits="userSpaceOnUse" color-interpolation-filters="sRGB"><feFlood flood-opacity="0" result="BackgroundImageFix"/><feColorMatrix in="SourceAlpha" values="0 0 0 0 0 0 0 0 0 0 0 0 0 0 0 0 0 0 127 0" result="hardAlpha"/><feOffset dy="69"/><feGaussianBlur stdDeviation="57"/><feComposite in2="hardAlpha" operator="out"/><feColorMatrix values="0 0 0 0 0 0 0 0 0 0 0 0 0 0 0 0 0 0 0.08 0"/><feBlend in2="BackgroundImageFix" result="effect1_dropShadow_0_93"/><feBlend in="SourceGraphic" in2="effect1_dropShadow_0_93" result="shape"/></filter></defs></svg>