<svg width="284" height="250" fill="none" xmlns="http://www.w3.org/2000/svg"><path d="M227.796 219.243c-4.593-10.273-35.884-47.449-85.084-44.382-41.729 2.602-70.914 32.72-75.368 36.107-4.454 3.386-2.598 5.645 10.021 2.821 12.619-2.824 18.928-2.259 18.928-2.259l-.743 2.822s-10.051 13.222-10.792 17.738c-.743 4.516 3.34 5.081 7.794 2.26 4.453-2.822 37.143-12.658 41.225-13.223 4.083-.564 11.279 3.047 14.248 3.609 2.969.565 22.564 10.123 26.684 10.681 4.119.56 2.055-9.85-3.16-24.567-2.31-6.524 19.051 10.055 23.876 11.75 4.825 1.694-2.275-8.243-3.018-9.936-.742-1.692 27.474 9.591 33.413 14.672 5.937 5.085 6.569 2.18 1.976-8.093zm-110.491-49.232S81.24 180.37 66.651 146.97c-14.589-33.401-1.186-81.627 26.37-90.928 0 0-28.936 18.844-18.67 65.349 10.268 46.505 42.954 48.62 42.954 48.62zm84.654-16.733c7.842-11.868 8.915-21.979 13.336-33.803 4.421-11.825 9.113-18.301 9.113-18.301s-2.861-.007-9.913 9.935c-6.278 8.849-12.536 29.349-12.536 29.349 1.414-10.208 1-23.085 1-23.085-8.223 28.134-36.905 48.041-45.011 41.555.001 0 21.38 28.597 44.011-5.65zm-17.655-46.683c1.35 0 25.399-17.412 26.476-34.245.81-12.683-.811-31.708-20.533-41.433-22.374-11.032-31.608-5.495-40.252-1.692 0 0 24.044-5.495 38.902 10.993 24.839 27.567-4.593 66.377-4.593 66.377z" fill="#F4E8D8"/><path d="M173.227 62.204s-15.94-23.252-31.609-19.447c-10.949 2.66-39.443 13.602-43.765 40.586-2.96 18.486 10.265 25.789 10.265 25.789s-8.375-7.187-4.322-24.944c4.053-17.757 29.177-36.783 45.116-35.09 15.94 1.692 24.315 13.106 24.315 13.106z" fill="#F4E8D8"/><path d="M92.72 85.456s-13.237 18.602-5.132 29.595c8.104 10.993 24.854 1.692 24.854 1.692s-11.887 1.692-17.29-8.877c-5.403-10.572-2.432-22.41-2.432-22.41zM66.65 146.97s-19.45-13.317-14.992-39.317c4.458-26 12.157-13.952 12.157-13.952s-1.62-24.097 6.889-31.708c8.51-7.61 11.752-2.748 11.752-2.748s4.053-6.763 6.078-5.495c.9.565 1.026 1.627.89 2.637-.183 1.352-5.471 5.738-6.294 6.24-2.378 1.456-4.418 2.727-9.32 10.57-7.183 11.49-9.625 27.963-9.186 42.067.811 25.998 2.027 31.706 2.027 31.706z" fill="#F4E8D8"/><path d="M91.1 90.952s3.782-10.146-1.081-11.838c-4.864-1.692-5.133 14.375-5.133 14.375s-1.621-3.806-4.053 2.958 2.972 16.912 6.754 18.602c3.784 1.692 1.892-18.6 3.513-24.097zm113.531-8.032s8.003-1.455 11.954-15.538c3.648-13 0-21.562-4.255-23.463-4.256-1.903-7.699.952-7.699.952s3.647-16.489-5.47-18.392c-9.118-1.902-8.915 4.44-8.915 4.44s-3.04-6.977-7.294-9.829c-4.256-2.854-4.053 6.343-4.053 6.343s-4.053-6.977-9.726-5.074c-5.672 1.903-5.524 4.065-2.89 4.382 2.635.317 18.457.361 28.791 16.85 10.333 16.488 9.557 39.328 9.557 39.328zm-85.976-27.904s8.983-17.757 21.341-20.294c9.887-2.03 4.923 8.806 6.349 7.611 3.782-3.17 8.521-5.965 10.401-4.226 2.972 2.747.406 6.13.406 6.13s8.509 7.397 9.725 11.414c.135 1.057-7.042-8.408-16.345-9.512-10.67-1.269-31.877 8.877-31.877 8.877z" fill="#F4E8D8"/><path d="M94.548 135.894s-.475-2.702-1.017-4.637c-.52-1.852-.917-.567-1.17 1.26-.265 1.914-.14 4.824-.145 5.518-.005.697 2.255.301 2.332-2.141z" fill="#1D2538"/><path d="M99.342 158.796c1.299-.789 4.081-6.094 3.527-9.766-.555-3.671-1.108-9.113-1.835-11.148 0 0-.113-3.856-.349-5.928-.233-2.07-.582-2.162-1.047-1.162-.464 1-1.08 4.407-1.08 4.407s-3.096-1.94-5.59-.252c-2.493 1.687-3.255 4.333-3.46 6.59l-.076.165s-2.732 1.055-4.018 1.884c-1.285.829-1.674 1.861-1.091 4.023s.68 3.243 1.47 4.037c.79.794 4.278 2.525 6.068 2.938 0 0 .76 5.048 1.37 6.395.609 1.35 4.814-1.391 6.111-2.183z" fill="#273150"/><path d="M99.743 152.563s3.684.139 3.131-3.533c-.553-3.671-1.108-9.113-1.834-11.148 0 0-.114-3.856-.349-5.928-.234-2.07-.583-2.162-1.047-1.162-.465 1-1.08 4.407-1.08 4.407s-3.096-1.94-5.59-.252c0 0 2.892.116 4.016 1.803 1.124 1.688 2.522 8.597 2.522 8.597s-3.168 6.037-2.978 6.461c.608 1.35 3.209.755 3.209.755z" fill="#1D2538"/><path d="M93.928 135.954s-.36-2.639-.62-4.391c-.294-1.97-.905-.838-1.158.988-.264 1.915-.406 3.88-.41 4.577-.004.696 2.276.53 2.188-1.174z" fill="#273150"/><path d="M93.428 140.41c.194-.864.052-1.728-.317-1.93-.368-.202-.824.334-1.017 1.198-.194.864-.052 1.728.317 1.93.368.202.824-.334 1.017-1.198zm-9.368 5.261c-.093 1.195.295 1.743.489 2.417.264.919 1.878-.801 1.973-1.995.093-1.195.102-2.875-.81-2.611-.634.185-1.558.995-1.651 2.189z" fill="#121721"/><path d="M95.69 152.995s-3.51 2.822-3.73 1.531c-1.757-.373-4.59-1.808-4.59-1.808l4.75-.005 3.57.282zm16.654 3.535c-.135-.685-.542-4.421-1.063-5.75-.519-1.329-1.829-4.382-3.397-4.294 0 0 .901-1.771 3.72.384 2.819 2.153 3.214 8.607 3.245 9.153.136 2.44-2.122 2.461-2.505.507zm-19.55 33.028c.252-1.151 1.24-2.373 1.24-2.373.095-.259.423-.78.448-1.028.197-1.893.734-7.06.765-7.886.067-1.718-.42-6.834-.33-10.766.09-3.933 3.911-.841 4.087 2.958.126 2.708-1.078 13.792-1.204 14.875l-.933 3.542c-.345.754-1.302 1.291-2.286 1.365-.982.07-2.032.438-1.787-.687zm16.82-21.762c-.953-.493-2.434.792-2.45 2.905-.013 1.799 5.213 8.908 5.213 8.908l.293 1.449s-.737 1.331-.422 2.046c.074.169 1.081-.109 1.893-.363.595-.188 1.018-.632 1.016-1.079l-.002-.562.307-2.135-3.597-5.859c.001.003-.95-4.634-2.251-5.31z" fill="#1D2538"/><path d="M96.269 153.058s3.943-4.412 7.406-1.986c3.096 2.169 4.507 2.534 7.959 2.615 2.169.051 3.658 11.991 3.208 14.315-.813 4.343-10.391 4.727-11.618 4.792-3.618.192-6.643-2.706-8.136-3.812-1.338-.994-3.31-6.748-1.636-11.13.64-1.671 1.376-3.482 2.817-4.794z" fill="#273150"/><path d="M97.252 153.505c2.252-2.813 2.958-4.857 6.422-2.433 3.096 2.169 5.439 2.606 8.89 2.771 3.907.187 3.381 10.46 2.234 14.863-.872 3.343-10.347 4.023-11.573 4.088 0 0 3.313-3.356 3.15-5.743-.161-2.387-3.962-5.894-3.962-5.894-1.832-2.909-5.96-6.655-5.161-7.652z" fill="#1D2538"/><path d="M99.33 189.176c-.004-1.039 1.632-3.551 1.621-3.806-.167-4.296-.856-8.363-.965-9.342-.224-2.009-1.676-5.414-2.176-9.757-.483-4.185 4.283-2.132 4.907 2.692.36 2.782 1.247 12.345 1.475 14.956.033.368.018.741-.043 1.102l-.951 3.171c-.111.91-1.031 1.692-2.156 1.797-1.126.104-1.704.601-1.712-.813z" fill="#273150"/><path d="M114.89 163.488c-1.189-1.696-3.834.533-4.316 1.223-.506.724 1.704 5.277 1.815 5.914.115.664 5.011 4.889 6.005 6.125 1.076 1.338.177 3.176.818 3.75.326.292 3.04-.6 2.867-2.266-.163-1.574-1.231-4.053-1.257-4.178-.052-.243-4.256-5.348-4.356-5.665-.096-.31-1.224-4.398-1.576-4.903z" fill="#1D2538"/><path d="M103.008 149.208s.715 1.188.895 2.234c0 0-2.176 2.461-6.099 5.387-2.102 1.567-5.348 3.007-5.348 3.007l-.472-2.757c.001-.003 6.634-2.727 11.024-7.871z" fill="#992C29"/><path d="M92.01 157.106s-1.14 3.66-.957 5.5l2.942 1.475s-1.142-5.357-1.985-6.975z" fill="#C93F37"/><path d="M92.01 157.106c.869 1.354 1.984 6.975 1.984 6.975s-1.534-1.912-1.69-2.648c-.157-.736-.295-4.327-.295-4.327z" fill="#992C29"/><path d="M92.47 158.928s2.105 2.892 3.045 3.253l.244-2.445c.002 0-1.523-1.206-3.29-.808z" fill="#992C29"/><path d="M141.619 115.257l-13.778-1.269c-3.908-.817-3.868-9.183-3.781-15.41l.179-21.659c.08-6.046 2.278-10.176 6.183-10.176h11.331c4.381 0 7.024 4.102 7.024 10.776l1.081 27.449c0 6.956-3.732 11.247-8.239 10.289z" fill="#634874"/><path d="M127.272 73.257c1.273-4.6-2.246-8.79-5.599-10.597-4.76-2.565-5.323-3.933-7.274-5.52-2.397-1.952-4.429-2.67-5.882-.96-1.451 1.711-1.766 4.674-.906 5.966 2.028 3.053 2.995 3.734 5.576 6.62 4.728 5.285 7.253 6.433 8.781 8.033 2.56 2.683 3.78 1.96 5.304-3.542z" fill="#A86243"/><path d="M128.267 73.963c1.274-4.6-17.662-8.083-15.081-5.199 4.727 5.285 7.252 6.433 8.78 8.032 2.562 2.686 4.779 2.67 6.301-2.833z" fill="#D77E5B"/><path d="M111.359 50.47c-1.03 2.326-2.67 6.326-1.281 8.502 1.001 1.567.571 3.14 2.051 2.014 1.664-1.266 2.694-7.185 2.738-7.326.783-2.48-2.467-5.54-3.508-3.19z" fill="#7A4630"/><path d="M117.351 37.333s-6.73 7.903-8.498 10.998c-1.748 3.063-3.27 6.799-2.257 11.007.616 2.556 1.323 4.285 3.512 3.174 2.513-1.276 4.448-6.838 5.461-10.38 1.359-4.743 3.105-7.137 4.136-8.792 1.322-2.122 1.22-8.826-2.354-6.007z" fill="#A86243"/><path d="M126.841 35.697l.119 3.19-1.318.562-1.039-2.736 2.238-1.016z" fill="#273150"/><path d="M116.127 41.35l1.542-3.852s3.245-1.9 5.116-2.116c1.871-.215 2.933 1.162 2.933 1.162l.159 5.646c.017.636-.252 1.215-.62 1.335l-.576.188-.886-.067-.034.757c-.016.38-.171.71-.386.826l-1.161.623-1.727.59s-1.304-.516-1.166-1.877c.138-1.361-2.405 1.24-3.194-3.216z" fill="#A86243"/><path d="M114.174 41.14l1.271 3.376 3.195-1.613c.277-.139.427-.734.319-1.262-.122-.601-.458-.91-.769-.708l-2.18.954-.423-1.502-1.413.754z" fill="#273150"/><path d="M111.832 29.079c-3.242 1.903-17.155 8.456-17.155 8.456-.09 1.058.09 5.495.585 5.988 0 0 2.027 4.227 14.273.141 14.297-4.77 28.959-14.19 28.959-14.19l-.234-6.104c.002.003-23.187 3.806-26.428 5.709z" fill="#B44C29"/><path d="M110.887 25.627c-3.272 1.774-14.409 7.294-16.03 11.17-1.266 3.027 3.062 5.812 18.731.106 15.669-5.706 21.883-10.817 24.178-12.507 2.296-1.692-3.039-3.875-12.922-4.685-2.263-.188-6.933 2.11-13.957 5.916z" fill="#F08650"/><path d="M95.308 39.296l5.223-2.82-4.503 3.806-.72-.986zm29.66-19.359l-8.747 4.493c.002-.002 8.729-3.898 8.747-4.493zm-17.93 15.167c1.418-1.058-4.555 1.82-7.565 3.806 0 0 6.146-2.75 7.565-3.806zm25.056-6.66l-.676-1.268 2.296.53-1.62.738zm-24.043 10.887l1.014-1.69 1.214 1.373-2.228.317zM119.592 27.1c.386.884-.516 2.289-2.516 3.382-2.871 1.567-6.711 1.89-7.174.076-.436-1.713 2.651-3.72 5.6-4.31 2.107-.424 3.715-.007 4.09.852z" fill="#B44C29"/><path d="M119.408 26.359c.324.643-.603 1.847-2.56 2.937-2.809 1.565-6.479 2.28-6.829.922-.332-1.283 2.703-3.218 5.539-4.033 2.025-.58 3.535-.451 3.85.174z" fill="#F08650"/><path d="M142.105 67.253c.575-3.156 3.683-1.262 5.235.263 2.469 2.424 2.21 4.225 3.883 5.59 3.022 2.468 11.383 11.505 9.101 15.619-2.281 4.113-6.11.456-9.098-2.459-2.139-2.085-5.935-6.553-8.071-9.824-.889-1.36-1.625-6.034-1.05-9.19z" fill="#A86243"/><path d="M159.801 94.76c1.1-2.822 2.23-5.364.736-8.19-2.34-4.424-4.175-2.003-5.748 1.028-1.545 2.98-1.538 3.976-2.949 6.976-1.422 3.021-4.157 7.361-4.157 7.361s-2.314 3.241-1.211 5.674c1.164 2.569 1.986 2.597 3.275 1.498 1.88-1.602 9.225-12.222 10.054-14.347z" fill="#A86243"/><path d="M123.286 172.276a.591.591 0 00-.1.071c-.49.422-4.488 3.806-4.953 4.713-.38.743-.137 3.482-.004 4.713.041.382.212.695.445.822.947.512 3.441 1.873 5.859 1.491 3.032-.479 2.939-2.266 5.197-3.956a102.46 102.46 0 002.822-2.176c.214-.174.307-.509.319-.887l.125-4.139c.014-.518-.169-.979-.495-1.081-1.504-.481-5.742-1.532-9.215.429z" fill="#29ACE4"/><path d="M123.234 172.306s-4.594 3.926-5.088 4.891c-.494.965-.025 4.294-.025 4.294s3.288 2.047 6.32 1.567c3.032-.479 3.031-2.06 5.288-3.75 1.748-1.308 2.688-2.064 3.022-2.34.09-.074.148-.215.152-.373l.138-3.935c.013-.361-.144-.683-.368-.757-1.33-.447-5.812-1.68-9.439.403z" fill="#13161F"/><path d="M120.996 174.169s2.295-1.268 4.547.352m-2.884-1.903s2.296-1.268 4.547.352" stroke="#29ACE4" stroke-width="2" stroke-miterlimit="10" stroke-linecap="round" stroke-linejoin="round"/><path d="M147.757 172.431c2.546 1.393 6.238 2.747 6.411 4.53.173 1.768.293 3.634.194 4.296-.076.5-.212.799-.457.963-.626.419-1.874 1.424-4.399 1.817-1.091.171-3.484-.745-4.944-2.437a308.554 308.554 0 00-3.074-3.496c-.136-.153-.226-.384-.25-.643l-.19-2.005c-.039-.41.093-.815.329-1.002 1.108-.88 4.303-3.16 6.38-2.023z" fill="#29ACE4"/><path d="M148.785 171.609c2.223 1.312 5.265 3.296 5.439 5.264.155 1.773.224 2.748.193 3.426-.014.331-.526.488-.776.653-.636.419-1.907 1.425-4.473 1.824-1.11.171-3.287-.341-4.769-2.03a323.745 323.745 0 00-3.192-3.568.78.78 0 01-.175-.435l-.186-1.729c-.08-.745.191-1.472.645-1.727 1.651-.933 5.316-2.845 7.294-1.678z" fill="#13161F"/><path d="M147.38 175.366s2.071-2.958 4.412-1.831m-5.853.421s2.161-2.678 4.502-1.551" stroke="#29ACE4" stroke-width="2" stroke-miterlimit="10" stroke-linecap="round" stroke-linejoin="round"/><path d="M147.02 113.359s.667 13.826 1.89 24.944c.66 5.996 1.278 16.73 1.669 24.547.263 5.268.479 9.243.322 9.423-.386.449-2.251-.423-5.659.912-3.364 1.32-4.748 2.081-4.748 2.081l-.528-2.541s-.317-1.183.098-6.061c.122-1.442-.932-3.68-1.083-5.518-.962-11.778-2.352-29.771-3.04-41.868-1.049-18.481 8.878-21.4 11.079-5.919z" fill="#F6BE4A"/><path opacity=".5" d="M147.019 113.359s.667 13.826 1.89 24.944c.753 6.843 1.345 18.526 1.852 26.658.107 1.706.505 1.849.578 3.169.089 1.59-.06 3.875-.499 4.236-.477.391-2.19-.516-5.598.819-3.363 1.32-4.748 2.081-4.748 2.081l-.528-2.541c-.166-1.206-.191-1.806.098-6.061.097-1.425-.941-3.782-1.083-5.518-.961-11.822-2.371-30.102-3.04-41.868-1.05-18.481 8.877-21.4 11.078-5.919z" fill="#F6BE4A"/><path d="M124.541 112.572s-.482 15.768-.738 25.164c-.185 6.757-.763 34.514-.763 34.514s.76-.459 3.986-.301l4.63 3.22s1.038.44 1.312.194c.273-.243 1.016-1.384 1.088-4.157.231-8.817.274-28.033.19-29.456-.077-1.285.001-16.13.62-27.134.27-4.822-1.15-8.859-5.223-10.505-3.911-1.579-5 3.606-5.102 8.461zm24.369 25.731c.746 6.778 1.335 18.299 1.837 26.422.037.585.518 2.064.554 2.611.201 3.104-.156 5.062-.546 5.189-.392.125-2.104-.675-5.512.66-3.363 1.32-4.748 2.081-4.748 2.081l-.528-2.541s3.373-7.54 5.161-12.438c.54-1.479 2.621-5.873 3.174-11.731.518-5.482.308-12.975.608-10.253z" fill="#F6BE4A"/><path d="M135.628 120.97c5.993 0 10.852-5.56 10.852-12.419 0-6.859-4.859-12.419-10.852-12.419-5.992 0-10.851 5.56-10.851 12.419 0 6.859 4.859 12.419 10.851 12.419z" fill="#F6BE4A"/><path opacity=".5" d="M135.628 120.97c5.993 0 10.852-5.56 10.852-12.419 0-6.859-4.859-12.419-10.852-12.419-5.992 0-10.851 5.56-10.851 12.419 0 6.859 4.859 12.419 10.851 12.419z" fill="#F6BE4A"/><path d="M134.007 108.391c.282-2.609-.935-.972-1.88-.106-.699.641-1.252 1.122-.601 1.858 1.047 1.186 2.297-.055 2.481-1.752zm.18-.317s1.35 2.431 2.566 2.748c1.216.317 1.013-2.537.203-3.065-.811-.528-2.296-.528-2.769.317zm.068-.211s1.688 2.59 1.756 6.183m-2.026-.951s.15-3.963.24-5.232" stroke="#FEED7F" stroke-width="3" stroke-miterlimit="10"/><path d="M145.826 157.628c1.529-2.475 2.923-8.378 2.813-11.292 0 0-5.748 12.974-5.943 13.528-.544 1.548 3.071-2.139 3.13-2.236z" fill="#F6BE4A"/><path d="M127.69 65.512s-.999.363-1.3 5.285c-.135 2.192-1.289 12.324-1.206 19.326.098 8.208-.351 19.306-.351 19.306s3.657-1.688 9.052-2.336c5.396-.648 11.938 2.861 11.938 2.861 2.088.539-.118-9.354-.598-13.123-.56-4.41.231-12.386-.233-18.333-.7-8.942-1.678-10.738-1.795-11.472-.256-1.611-3.564-1.66-5.795-2.16-3.263-.727-7.313.104-9.712.646z" fill="#29ACE4"/><path d="M125.004 77.45s10.13-4.378 18.032-.767l.405 3.282s-9.252-5.252-18.708.658l.271-3.174z" fill="#3D4C6D"/><path d="M124.665 81.39s10.468-4.487 18.37-.876l.405 3.282s-9.186-4.923-18.64.984l-.135-3.39z" fill="#3D4C6D"/><path opacity=".5" d="M127.689 65.512s-.999.363-1.301 5.284c-.134 2.192-1.288 12.324-1.205 19.327 5.037-12.093 17.146 16.701 21.297 17.266 1.148.155-1.316-6.736-1.441-13.421-.145-7.813.608-14.66.608-14.66-.699-8.942-2.332-11.544-2.449-12.28-.256-1.611-3.565-1.66-5.796-2.16-3.264-.73-7.314.102-9.713.644z" fill="#29ACE4"/><path d="M139.591 65.25c.152-.014 0 .549 0 .549-1.07 1.518-3.576 3.882-5.805 3.882-2.199 0-4.051-.218-4.529-2.426-.206-.952.766-2.204.766-2.204s1.747-.468 3.76-.565c1.965-.097 5.655.778 5.808.764z" fill="#7A4630"/><path d="M133.709 66.588c-1.768-.088-1.713-2.224-1.7-3.565l.175-4.375c.01-1.065.722-1.947 1.822-1.896l1.901.047c1.068.05 1.591.97 1.689 2.002 0 0 .314 4.611.204 6.049-.112 1.458-2.322 1.824-4.091 1.738z" fill="#7A4630"/><path d="M146.226 75.551s.493 9.702-.358 8.466c-3.1-4.51-2.622-12.936-2.384-15.188.238-2.252.917-3.116 1.847-2.136 1.432 1.5.895 8.858.895 8.858z" fill="#A86243"/><path d="M126.596 64.209c.819.039 1.903.425 1.709 1.094-.585 2.026-1.507 7.058-1.989 11.26-.565 4.921-1.072 9.4-1.316 12.791-.113 1.565-.987 2.804-1.765 1.929-.221-.248-.386-.595-.438-1.08-.203-1.937-.907-10.376 1.997-24.21.359-1.708.939-1.826 1.802-1.784zm18.064 1.097c-.54-.658-2.793-1.378-3.628-.975-.836.403-.592 6.167.449 12.68 1.008 6.297 2.565 14.46 3.397 15.899.164.282.394.428.633.403.5-.056 1.295-.329 1.254-1.512-.059-1.715-.936-9.29-1.615-17.523-.577-7.019.034-8.336-.49-8.972z" fill="#634874"/><path d="M147.463 111.252c.458.227.966.044 1.303-.493.8-1.271 1.13-3.176 1.021-5.217-.135-2.537-2.093-3.489-3.355-3.91a35.38 35.38 0 01-2.129-.794c-.077-.032-.159-.005-.222.074l-3.584 4.542a.502.502 0 00-.091.324l.071 2.109c.007.208.117.37.25.37.219 0 .331.407.183.657l-.081.137a.571.571 0 00-.045.43l.357 1.206c.062.209.223.29.35.176l.228-.203c.098-.088.221-.063.3.062l.642 1.005c.074.116.187.148.281.078l.77-.555c.125-.09.272-.005.331.192.081.269.223.616.453.794.352.275 1.843-.912 2.227-1.227.059-.048.127-.058.191-.025l.549.268z" fill="#A86243"/><path d="M143.974 101.051l-3.475 4.401a.502.502 0 00-.091.324l.071 2.108c.007.209.116.371.25.371.219 0 .331.407.183.657l-.081.137a.57.57 0 00-.045.43l.357 1.206c.062.209.223.29.35.176l.228-.203c.098-.088.221-.063.3.062l.642 1.005c.074.115.187.148.281.078l.77-.555c.125-.09.272-.005.331.192.081.268.223.616.452.794.336.264 1.71-.808 2.169-1.181.09-.074.143-.226.133-.386l-.12-1.889c-.037-.586-.207-1.134-.479-1.542l-.459-.687c-.298-.447-.473-1.058-.486-1.704l-.022-1.009a3.493 3.493 0 00-.283-1.331l-.615-1.38c-.083-.18-.249-.217-.361-.074z" fill="#D77E5B"/><path d="M140.829 50.41c-.195 8.19-1.287 10.76-4.769 10.852-2.633.07-4.768-4.859-4.768-10.852s2.135-10.852 4.768-10.852 4.944 3.48 4.769 10.852z" fill="#273150"/><path d="M139.36 48.553c-.025-5.372-.399-8.446-4.196-8.884-1.982-.227-3.933.056-5.083.986-1.038.843-1.665 2.153-2.028 5.679-.273 2.655-.658 7.247-.09 11.694.364 2.85 2.7 3.928 4.759 4.15 5.316.575 6.132-1.636 6.464-5.557.446-5.308.183-5.861.174-8.068z" fill="#7A4630"/><path d="M138.672 51.806c-.032-4.658-1.256-6.68-4.674-7.077-1.784-.206-5.298 1.232-5.463 4.315-.176 3.338-.432 6.246-.053 9.135.326 2.483 2.028 3.354 3.883 3.557 4.787.524 5.877-2.014 6.159-5.412.241-2.893.161-2.606.148-4.518z" fill="#A96344"/><path d="M129.265 40.577c-.318.3-.441.599-.666 2.52-.047.405.429-1.16.858-1.77.429-.612.33.208 2.576.122 2.245-.085 5.428-.69 5.428-.69l.312 4.857 1.16 4.217.7-2.328c.105-4.135-.372-6.542-2.107-7.454-3.176-1.671-7.094-.581-8.261.526z" fill="#273150"/><path d="M134.896 44.824c-.04.82-.287 1.452-.553 1.42-.267-.033-.453-.716-.419-1.535.034-.83.282-1.484.555-1.452.27.032.457.739.417 1.567z" fill="#102342"/><path d="M133.813 43.192l1.339-.664" stroke="#273150" stroke-miterlimit="10" stroke-linecap="round" stroke-linejoin="round"/><path d="M131.141 45.03c-.018.773-.234 1.368-.482 1.338-.25-.03-.443-.674-.431-1.447.012-.78.228-1.395.482-1.365.256.03.448.694.431 1.474z" fill="#102342"/><path d="M131.009 43.192l-1.202-.537" stroke="#273150" stroke-miterlimit="10" stroke-linecap="round" stroke-linejoin="round"/><path d="M141.059 52.07c-.349 2.215-1.352 3.77-2.249 3.543 0 0 .028-5.023.014-5.981-.009-.602.213-2.458 1.17-2.213.954.243 1.426 2.359 1.065 4.65z" fill="#7A4630"/><path d="M140.553 53.65c-.05.535-.374.927-.723.883-.349-.044-.597-.51-.552-1.044.045-.54.37-.942.725-.899.354.047.601.524.55 1.06z" fill="#E2D6C9"/><path d="M154.73 97.026s-3.837.1-5.625-.986c-1.788-1.084-1.284-12.616 2.272-14.135 4.063-1.736 8.946 1.973 11.647 4.954 2.701 2.982 1.603 7.44-2.304 9.542-3.966 2.132-5.99.625-5.99.625z" fill="#1689CB"/><path d="M163.091 91.607c0 2.963-7.181 3.113-9.372 3.113-2.189 0-3.964-2.403-3.964-5.365 0-2.963 1.775-5.366 3.964-5.366 2.189-.002 9.372 4.655 9.372 7.618z" fill="#992C29"/><path d="M161.631 93.475s9.748 5.192 15.422 18.157c4.858 11.102 11.706 3.947 15.759 6.905 4.053 2.959-20.115 10.176-24.291 11.945-4.998 2.113-19.788-24.007-17.019-31.192 3.346-8.688 10.129-5.815 10.129-5.815z" fill="#1689CB"/><path d="M163.994 96.87c.049.36 5.297 3.89 8.623 11.98 7.069 17.192 15.849 6.06 19.9 9.018 4.052 2.959 2.882 10.591 2.882 10.591s-6.754-2.959-8.375 5.495c-1.622 8.454-15.678 9.65-19.854 11.417-4.998 2.113-16.491-1.051-16.491-1.051s-4.338-28.739 1.138-47.873c.967-3.382 7.789-2.537 7.789-2.537l4.388 2.96z" fill="#992C29"/><path d="M155.953 71.78s-1.796-.937-3.591 2.81c-1.411 2.945-2.129 5.62-.732 9.262.395 1.03-1.197 1.25-.2 5.62 1.044 4.577 6.983 4.787 8.978 2.602 0 0 3.858 5.1 8.18 1.456 2.908-2.451-1.063-8.951-1.063-8.951s2.075-7.072-2.713-14.044c-3.41-4.963-7.063-1.565-8.859 1.245z" fill="#273150"/><path d="M154.583 79.68c1.267 0 2.294-2.725 2.294-6.087 0-3.363-1.027-6.088-2.294-6.088-1.267 0-2.294 2.725-2.294 6.088 0 3.362 1.027 6.087 2.294 6.087z" fill="#273150"/><path d="M159.521 70.634c.67-2.458.434-4.973-.529-5.615-.962-.643-2.286.829-2.957 3.288-.67 2.459-.433 4.973.529 5.616.963.642 2.287-.83 2.957-3.289z" fill="#273150"/><path d="M155.472 73.32s-1.494-1.514-3.164 1.562c-1.67 3.076-1.937 5.798-.733 8.937.34.89-1.074 1.727-.215 5.496.479 2.097 2.676 2.956 2.535 2.564-.14-.39-.019-1.495-.019-1.495 1.51 1.412 3.979 2.243 6.584 1.924 1.463 1.372 4.161 1.234 5.905-.236 2.507-2.112-.917-7.716-.917-7.716s1.79-6.094-2.339-12.106c-2.939-4.285-6.088-1.354-7.637 1.07z" fill="#3D4C6D"/><path d="M155.225 73.715c0 2.898.157 6.415-.936 6.415-1.092 0-1.978-2.35-1.978-5.248s.886-5.248 1.978-5.248c1.091 0 .936 1.183.936 4.081z" fill="#3D4C6D"/><path d="M158.091 70.602c-.578 2.118-1.267 5.127-2.097 4.572-.83-.554-1.034-2.723-.457-4.84.578-2.119 1.719-3.387 2.548-2.834.83.556.585.984.006 3.102z" fill="#3D4C6D"/><path d="M163.552 93.525s1.678-.731 1.951-2.625c0 0 .586 2.748-1.951 2.625z" fill="#273150"/><path d="M165.401 99.953s2.781 8.54 3.572 10.688c.791 2.146-1.331 4.646-2.716 4.065-1.384-.581-4.024-10.641-4.687-12.771-.664-2.132 2.08-5.477 3.831-1.982z" fill="#F6874E"/><path d="M165.785 101.002s-2.547-7.96-4.261-7.54c-1.719.422-1.685 1.635-1.32 3.978.542 3.472 2.024 8.12 2.024 8.12s1.475-3.664 3.557-4.558z" fill="#C93F37"/><path d="M172.438 110.153s-3.445-.352-4.255-.776c-.811-.423-3.682 1.639-2.499 4.651.968 2.465 6.259 1.514 7.16.951.9-.562 1.282-4.333-.406-4.826z" fill="#F6874E"/><path d="M181.332 53.393s-5.44 44.362-5.505 45.051l-.123 1.31c-.09.322-.311.376-1.117.086l-3.454-.94 4.821-47.148c.024-.24 2.912-4.278 2.912-4.278.096-.013.218-.231.46.216l1.945 4.863c.116.37.085.646.061.84z" fill="#F6BE4A"/><path d="M181.332 53.393s-5.44 44.361-5.506 45.051l-.122 1.31c-.091.322.291.394-.514.102l5.538-46.953s-1.644-5.662-1.4-5.216l1.945 4.864c.114.372.083.648.059.842z" fill="#F6874E"/><path d="M178.417 75.359l.283-1.801c.035-.13-.12-.207-.281-.137l-1.095.472c-.097.042-.143.137-.102.209l.966 1.388c.07.12.191 0 .229-.131zm-3.612-12.468l.779-.835-.581-1.005-.198 1.84zm5.291-2.261l-.92-1.385 1.15-.115-.23 1.5z" fill="#F6874E"/><path d="M179.079 47.481l-5.926 51.808m.799-27.956l.713.195.618-1.376-.437-1.374 1.525-2.188.582-.856" stroke="#F4E8D8" stroke-miterlimit="10"/><path d="M171.929 116.747c-.014.072-.358.325-.973.07-.722-.299-.658-1.074-.658-1.074l1.22-16.5 3.367.845-2.956 16.659z" fill="#1D2538"/><path d="M170.413 121.736c.985.396 1.908-.739 2.041-2.452.127-1.627-.513-3.15-1.414-3.477-.89-.321-1.766.63-1.975 2.19-.219 1.641.375 3.348 1.348 3.739zm.527-4.336c.337.185.585.914.553 1.644-.033.745-.346 1.199-.697.997-.348-.201-.59-.965-.543-1.694.046-.713.352-1.132.687-.947z" fill="#1D2538"/><path d="M170.32 120.673c.557.241 1.084-.414 1.168-1.43a3.293 3.293 0 00-.004-.588c.012.127.015.259.009.391-.033.745-.346 1.199-.697.998-.348-.202-.59-.966-.543-1.695.046-.713.352-1.129.686-.946.209.115.384.437.478.84-.128-.565-.402-1.014-.745-1.151-.525-.21-1.034.375-1.145 1.336-.113.988.238 2.007.793 2.245zm1.153-2.121l-.005-.041.005.041zm-.034-.201l-.012-.064.012.064z" fill="#F6BE4A"/><path d="M171.43 116.792c.019 0 .039.011.055.03.121.148.219.31.288.486.027.065.009.153-.037.194-.045.042-.105.023-.13-.041a1.555 1.555 0 00-.248-.417c-.04-.049-.043-.137-.008-.197.02-.039.051-.058.08-.055z" fill="#F4E8D8"/><path d="M171.759 110.028c-.62 0-1.054.305-1.054.305l.609-8.062c.041-.871.177-3.398.177-3.398s3.179.722 3.58.91c0 0-.433 2.745-.58 3.52l-1.335 7.005c0 .002-.777-.28-1.397-.28z" fill="#C73F37"/><path d="M173.578 108.088l-.187.97s-1.073-.142-2.363-.142c.002 0 .391-.578 2.55-.828z" fill="#1D2538"/><path d="M170.701 110.396s1.772-.024 2.354.446l-.227 1.153s-1.807-.787-2.187-.787l.06-.812z" fill="#C73F37"/><path d="M170.92 107.505l.025-.318s1.354-.12 2.253.327l-2.278-.009zm2.943-1.054l.166-.821s-1.8-.612-2.985.118c0 0 2.174-.118 2.819.703zm.628-3.146l-.271 1.401s-1.767-1.123-3.048-.748l.186-2.525s1.34.847 3.133 1.872zm.278-1.682l.131-.732s-1.682-1.26-3.116-.711c0 0 2.809.825 2.985 1.443z" fill="#1D2538"/><path d="M168.571 94.836a.389.389 0 01.324-.058l9.829 2.363c.125.042.25.37.602 1.197.236.556.347 1.27-.053 1.565-.526.386-1.108 1.042-1.324.942l-9.431-2.627c-.145-.044-.598-.614-.783-.85-.21-.268-.503-.785-.682-1.222-.133-.324-.05-.75.175-.9l1.343-.41z" fill="#C73F37"/><path d="M168.321 94.18a.397.397 0 01.338-.06l9.98 2.776c.027.009.718 1.194.629 1.636-.089.443-1.288 1.225-1.288 1.225s-10.174-2.574-10.264-2.766c-.167-.357-.444-.718-.632-1.174-.139-.338-.052-.782.182-.94l1.055-.697z" fill="#F6874E"/><path d="M168.321 94.18a.397.397 0 01.338-.06l1.249 2.213 8.072 3.424s-10.174-2.574-10.264-2.766a6.816 6.816 0 01-.632-1.174c-.139-.338-.052-.782.182-.94l1.055-.697zm5.669-20.9l-.438 4.058 3.146 7.215.478-3.958-3.186-7.315zm-.531 5.255l-.125 1.562 3.145 7.216.166-1.466-3.186-7.312z" fill="#F6BE4A"/><path d="M170.015 94.565l.292.643c.097.227.127.25.276.1l.475-.456-1.043-.287z" fill="#C73F37"/><path d="M171.269 109.368c-.094.349.146.46.485.518.244.042.695-.342.695-.342s.407.208.577.368c.087.081-.681-.026-.953 0-.272.025-.889.433-.889.433a.149.149 0 00-.052.016c-.207.116-.337.458-.298.993a.34.34 0 00.062.174c.043.062.121.088.092.28-.04.252-.227.435-.225.618 0 .104.13.983.174 1.062l.598.037s-.687.123-.735.614c-.085.852.378 1.298.699 1.217.398-.099.395.206.738.299 0 0 .847.143.959-.317.118-.484.495-.861.612-1.544.068-.401.068-1.197.255-1.676.365-.935-.085-1.208.016-1.81.089-.521.322-.558.204-1.172-.093-.476-.413-.611-.646-.745-.234-.132-.851-.213-1.462-.106.002.004-.812.733-.906 1.083z" fill="#CE6D3E"/><path d="M171.275 109.362c-.093.349.143.514.482.572.244.041.697-.396.697-.396s.406.208.577.368c.087.081-.681-.026-.953 0-.272.025-.889.433-.889.433a.137.137 0 00-.052.016c-.207.116-.355.488-.315 1.021.006.071.099.247.133.296.043.063.009.144 0 .171-.074.234-.164.285-.189.463-.059.412.01.794.176 1.176l.627.037s-.723.121-.765.614c-.04.474.221 1.12.568.981.497-.199 1.098.121 1.162.077.448-.32.056-1 .204-1.526.109-.389.118-.833.233-1.252.101-.364.06-1.405.06-1.405l.585-.824s-.019-.794-.059-1.1c-.072-.569-1.015-.912-1.376-.806-.065.024-.812.734-.906 1.084z" fill="#F6874E"/><path d="M170.515 111.474c.353.834.803-.032.698-1.298-.05-.609-.173-1.396-.762-1.125-.588.271-.568.935.064 2.423z" fill="#F6874E"/><path d="M175.86 137.597c.03 1.264-3.023 1.838-3.804 3.547-1.127 2.467-.155 2.565-10.533 3.784-8.396.989-11.027-5.361-10.922-8.037.103-2.638 6.122-6.127 12.454-6.138 6.344-.01 12.743 4.166 12.805 6.844z" fill="#EC5E4D"/><path d="M151.773 145.82s-1.621-10.301-1.756-13.435c-.134-3.134 6.619-7.614 7.835-2.463 1.216 5.15 1.487 13.435 1.487 17.243 0 3.808-.405 7.167-3.377 6.942-4.343-.329-3.134-1.539-4.189-8.287z" fill="#273150"/><path d="M151.773 145.82s-1.621-10.301-1.756-13.435c-.134-3.134 6.619-7.614 7.835-2.463 1.216 5.15 1.487 13.435 1.487 17.243 0 3.808-.405 7.167-3.377 6.942-4.343-.329-3.134-1.539-4.189-8.287z" fill="#102441"/><path d="M156.521 146.688c-1.784-.666-4.297 1.648-4.12 4.732.135 2.352-1.372 3.023-2.386 7.613-1.013 4.59 6.484 7.614 7.16 1.792.674-5.822 4.141-12.345-.654-14.137z" fill="#273150"/><path d="M156.636 145.933c-1.784-.666-4.409 2.403-4.232 5.487.135 2.351 1.036 3.715.022 8.305-1.013 4.59 4.076 6.924 4.752 1.1.673-5.822 4.252-13.1-.542-14.892z" fill="#102441"/><path d="M157.176 160.824c-.676 5.822-4.727 22.061-5.133 24.97-.405 2.912-1.755 3.993-1.755 3.993s-1.849 1.329-1.792-5.233c.043-5.014.509-20.929 1.522-25.519 0 0 2.567-1.68 4.188-1.007 1.62.669 2.97 2.796 2.97 2.796z" fill="#F6874E"/><path d="M157.174 160.825c-.676 5.822-4.727 22.06-5.132 24.97-.199 1.428-.428 3.572-.923 3.629-.514.061-.721.6-.855-4.414-.135-4.704 1.148-21.387 2.161-25.977 0 0 .158-1.68 1.779-1.007 1.62.672 2.97 2.799 2.97 2.799z" fill="#CE6D3E"/><path d="M150.399 183.169c-.741 2.195-2.093 3.489-2.093 3.489s-.959 2.655-.821 3.655c.088.606.477 2.153.477 2.153s.29 5.382.392 6.016c.151.949 6.232 2.467 6.639 2.708.407.241.318-5.113.318-5.113s-2.606-5.037-3.094-7.192c-.481-2.116-1.018-8.081-1.818-5.716z" fill="#CE6D3E"/><path d="M160.688 128.352c-1.35 1.792-2.139 5.822-1.126 9.63 1.014 3.808 1.937 10.673 2.882 12.243.945 1.569 2.566 3.657 4.458 3.657 1.89 0 2.701-4.254 2.364-7.613-.337-3.359-1.553-12.878-2.498-17.132-.946-4.255-4.729-2.577-6.08-.785z" fill="#102441"/><path d="M162.699 147.845c-.67 1.12-.837 4.826-1.214 6.822-.507 2.685-.605 4.717-.507 8.393.099 3.736.578 8.572.812 11.176.479 5.35-.518 7.338 1.103 7.634 1.621.299 1.351-.597 1.981-3.284.63-2.688 2.927-16.72 3.377-19.558a74.01 74.01 0 00.81-8.509c.09-2.537-4.572-5.667-6.362-2.674z" fill="#273150"/><path d="M162.927 147.514c-1.025 1.081-1.158 5.139-.856 9.489.239 3.451 5.731 4.865 6.181 2.03.45-2.836.72-5.973.811-8.51.09-2.537-4.191-5.467-6.136-3.009z" fill="#102441"/><path d="M161.115 157.232c-.546 2.778-.274 7.509.496 16.303.467 5.352-.225 9.132 1.396 9.431 1.621.298 1.901.382 2.228-2.433.331-2.854 2.566-18.662 3.016-21.498 0 0-2.027-1.94-3.917-2.09-1.891-.151-3.219.287-3.219.287z" fill="#F6874E"/><path d="M162.071 157.002c.01 3.174.819 13.049.912 18.329.097 5.456-.832 6.854.789 7.153 1.621.298 1.145.866 1.464-1.952.346-3.06 2.567-18.662 3.016-21.497 0 0-1.942-1.843-3.917-2.09-.797-.102-2.264.057-2.264.057z" fill="#CE6D3E"/><path d="M161.892 179.959s-.186 1.777-.698 3.646c-.439 1.601 1.848 2.335 2.68 3.527 0 0 6.046 4.949 8.071 3.382 2.25-1.74-3.99-6.69-2.206-5.171 0 0-3.782-2.912-4.322-5.151-.541-2.236-3.525-.233-3.525-.233z" fill="#F6874E"/><path d="M162.86 179.667c-.078 2.655-.822 3.255-1.093 4.824-.522 3.025 3.313 4.884 3.062 4.65 0 0 5.02 2.73 7.047 1.162 2.291-1.773-3.964-6.444-2.139-4.958 0 0-3.782-2.912-4.322-5.15-.54-2.239-2.484-2.924-2.555-.528z" fill="#CE6D3E"/><path d="M161.34 182.294c.096-.299.272-.558.301-.259.031.298.323 1.442.722 1.794.398.352 4.942 4.227 6.535 3.521.972-.431.269-1.804-.426-2.811-.444-.643-.886-1.136-.886-1.136s2.038 1.796 2.975 2.641c.936.845 2.905 3.734 3.091 4.861.188 1.127-6.921 1.269-7.94.528-1.019-.741-2.529-2.854-3.091-3.699-.518-.778-1.12-.431-1.312-.776-.435-.775-.261-3.768.031-4.664z" fill="#992C29"/><path d="M159.27 93.278s1.799-.634 2.432.634c.728 1.46 2.673 5.213 2.769 8.199.077 2.38-.185 4.283-.951 7.593-.629 2.72-1.476 6.896-2.544 7.655-3.255 2.312-6.034 1.935-7.852.229-.676-.634-1.393-2.243-1.338-6.454.023-1.814-.012-2.423-.283-8.87-.362-8.667 1.824-9.025 4.048-9.22 2.224-.197 3.719.234 3.719.234z" fill="#F6BE4A"/><path d="M159.031 96.655l-.355-.03c-.636-.053-1.124-.905-1.088-1.9l.251-7.301c.034-.996.579-1.76 1.215-1.704l.355.03c.636.053 1.124.905 1.088 1.9l-.251 7.302c-.036.995-.579 1.757-1.215 1.703z" fill="#F6874E"/><path d="M159.123 93.697l-.355-.03c-.636-.053-1.124-.905-1.089-1.9l.252-7.301c.034-.996.578-1.76 1.214-1.704l.355.03c.636.053 1.124.905 1.089 1.9l-.252 7.301c-.035.993-.578 1.757-1.214 1.704z" fill="#CE6D3E"/><path d="M148.543 186.368c-.192.098-.6.604-.673.901-.318 1.298-.585 2.525-.507 3.296.031.301.216 1.069.407 2.528.211 1.606.069 4.5.64 5.717.57 1.218 5.433 3.862 6.513 3.544 1.081-.317.469-5.296.386-6.275-.087-1.032-2.455-5.657-3.441-9.097 0 0 .009.338.166 1.199.37 2.014 1.09 6.236.083 6.391-1.442.22-3.512-2.847-3.597-4.382-.085-1.516-.243-2.727-.215-3.039.028-.317.238-.783.238-.783z" fill="#992C29"/><path d="M163.748 134.551l2.752 3.794c.289.357.691.077.633-.447-.198-1.794-.784-4.824-3.385-3.347z" fill="#EC5E4D"/><path d="M151.862 112.584c-.45 1.338-3.917 18.25-.586 29.523 0 0 2.935-4.986 7.127-6.336 8.348-2.685 7.628 1.003 7.843 1.977.142.648.591.984 1.005.762.107-.058.227-.128.36-.211 1.875-1.171 5.137-2.949 8.172-1.269 0 0-5.888-15.328-13.763-22.974-7.538-7.31-9.708-2.81-10.158-1.472z" fill="#F6BE4A"/><path opacity=".5" d="M166.83 136.751s-.78-8.792-2.731-11.477c0 0 .78 2.076.78 3.662l-.937-.977s.971 2.241 1.639 4.518c.586 1.996.848 4.044 1.249 4.274z" fill="#F6BE4A"/><path d="M164.6 79.588c1.143 8.609-1.099 11.544-4.98 11.354-2.917-.143-5.306-3.032-5.497-8.745-.192-5.713 1.345-10.4 4.225-11.156 3.801-.995 5.508 2.954 6.252 8.547z" fill="#CE6D3E"/><path d="M163.262 81.546c.058.424.104.83.141 1.216.538 5.761-1.21 7.757-4.102 7.62-2.319-.111-4.22-2.359-4.372-6.806-.153-4.446 2.241-7.43 4.532-8.016 3.025-.775 3.21 1.632 3.801 5.986z" fill="#F6874E"/><path d="M154.55 86.34c.892-.215 1.472-1.838 1.294-3.624-.177-1.786-1.044-3.06-1.937-2.845-.892.215-1.471 1.838-1.294 3.624.178 1.786 1.045 3.06 1.937 2.845z" fill="#F6874E"/><path d="M154.12 79.831l.936 1.609s.005-6.73 3.374-8.584c3-1.652 4.373.2 4.373.2s-1.62-4.188-5.698-1.445c-3.411 2.294-2.985 8.22-2.985 8.22z" fill="#F6BE4A"/><path d="M156.908 80.764c.263 0 .475-.622.475-1.39 0-.766-.212-1.388-.475-1.388-.262 0-.474.622-.474 1.389s.212 1.389.474 1.389zm4.88-.595c.263 0 .475-.622.475-1.389s-.212-1.389-.475-1.389c-.262 0-.475.622-.475 1.39 0 .766.213 1.388.475 1.388z" fill="#273150"/><path d="M161.229 77.095l.888-.762m-4.453 1.157l-1.177-.495" stroke="#273150" stroke-miterlimit="10" stroke-linecap="round" stroke-linejoin="round"/><path d="M162.357 71.875s.855 1.627 1.732 2.324c.663.528 1.195.625 1.195.625l-.133-.417.33-.398s-1.24-.204-2.867-2.377l-.257.243z" fill="#EE5D4F"/><path d="M162.271 71.685s.449 1.986 1.12 3.111c.508.85.987 1.227.987 1.227l-.034-.46.398-.197s-1.12-.854-2.173-3.771l-.298.09z" fill="#EE5D4F"/><path d="M162.813 72.734c.317-.088.617-2.73-.136-2.785-.708-.053-1.511.09-1.378.926.134.836 1.199 1.947 1.514 1.859z" fill="#EE5D4F"/><path d="M163.087 71.231s-.117-1.131-.342-1.106c-.225.025-.024.51.034 1.255.059.745.348.33.308-.148z" fill="#F7BC4B"/><path d="M162.551 72.188s-.047-.521.438-1.026.855-.78 1.163-.479c.307.3.415 1.618.239 2.282-.176.665-1.256.16-1.528-.09-.272-.252-.312-.687-.312-.687z" fill="#EE5D4F"/><path d="M164.317 71.746s.102 1.057-.2 1.229c-.448.257-.166-1.746-.139-2.06.025-.318.42.074.339.83z" fill="#F7BC4B"/><path d="M152.583 107.202s1.763 6.152 2.568 7.502c.81 1.361 1.883 2.873 2.937 2.234 1.052-.637 1.516-4.736.775-6.884-.732-2.121-2.075-8.237-2.528-9.202-.449-.96-2.125-.28-2.942.496-.822.777-1.402 3.555-.81 5.854z" fill="#F6874E"/><path d="M156.888 102.529s-1.515-9.535-3.541-9.114c-1.935.403-2.291 2.986-2.047 6.526.248 3.616 1.312 7.44 1.312 7.44s.403-3.468 4.276-4.852z" fill="#EC5E4D"/><path d="M156.274 99.433s-.899-6.437-2.926-6.016c-1.934.403-2.291 2.986-2.047 6.525.249 3.616.63 4.318.63 4.318s.201-2.283.471-3.656c.232-1.178 1.711-1.726 1.711-1.726l2.161.555z" fill="#C93F37"/><path d="M168.384 105.044s-3.061.986-4.77 1.868c-1.506.778-4.085 2.093-5.559 3.723-1.486 1.646-1.658 3.997-1.263 5.534.4 1.551 2.318.628 3.902-.22 1.577-.844 7.574-5.333 9.041-6.817 1.455-1.474 1.08-5.53-1.351-4.088z" fill="#CE6D3E"/><path d="M161.968 107.792c-1.621.704-2.439 1.213-3.913 2.843-1.486 1.645-1.658 3.997-1.263 5.534.4 1.551 2.318.628 3.902-.22 1.579-.845 2.701-8.777 1.274-8.157z" fill="#F6874E"/><path d="M169.427 108.039c.445.954 1.575.808 1.955.304.462-.609.737-1.128 1.03-1.125.183 0 .859.199 1.229.46.021.063-.068.308-.052.378.022.097.042.155.108.162.42.046.766-.387.744-1.074l-.043-.915.431-.815.083-2.553-1.428-2.403c-.071-.118-.171-.18-.275-.169l-1.941.225c-.117.014-.223.113-.285.266l-1.762 4.315c-.001.002-.239 1.991.206 2.944z" fill="#CE6D3E"/><path d="M173.57 106.408c.134.229.346.578.528.801.196.24.358.326.344-.065l-.043-.915.537-.669s.125-1.981.083-2.553c-.111-1.518-1.549-2.646-1.549-2.646-.127-.099-.158-.081-.261-.069 0 0-.457 1.183-.486 1.539-.028.357.394 1.924.394 1.924s-.46.914-.485 1.187c-.061.642.47.672.938 1.466z" fill="#F6874E"/><path d="M151.984 102.366s.135-1.426.811-1.85c0 0-.75 3.419-.866 3.743-.115.325-.114-1.099.055-1.893z" fill="#C93F37"/><path d="M151.537 95.322c-.361 1.62-1.712 7.116-3.062 19.236-1.351 12.12.81 27.761 2.071 29.454 1.26 1.692 5.672-10.852 15.129-3.03 0 0-6.486-14.556-10.131-18.533-4.458-4.861-4.097-16.63-3.558-22.9.542-6.269-.449-4.227-.449-4.227z" fill="#29ACE4"/><path d="M148.475 114.56c-1.351 12.12.81 27.762 2.071 29.454 1.26 1.692 5.672-10.852 15.129-3.03 0 0-3.431-7.482-5.558-11.352 0 0-2.739 6.312-3.442 6.083-.417-.136-3.825.324-5.851-3.479-2.027-3.803-2.349-17.676-2.349-17.676z" fill="#1689CB"/><path d="M150.708 128.845s.112 1.366 1.112 3.662c1.208 2.775 4.857 3.937 4.857 3.937l1.463-1.511s-2.008-.259-3.726-1.602c-1.717-1.343-3.641-3.634-3.706-4.486z" fill="#1689CB"/><path d="M157.3 92.7c-.679-.246-4.525-.742-5.606 2.219-1.081 2.958-.202 8.437-.202 8.437s.201-4.516 1.655-5.953c.841-.834 5.803 1.889 6.517 2.06 1.317.317-.337-2.641-.337-2.641s-1.148-3.806-2.027-4.123z" fill="#29ACE4"/><path d="M160.44 93.104c-.467.188-1.774 7.121-.485 5.885.339-.327 2.204-1.216 4.334-.899 1.418.211 2.535 1.463 2.634 1.216.339-.848-4.493-7.005-6.483-6.202z" fill="#1689CB"/><path d="M159.9 98.389c.13 0 .236-.166.236-.37 0-.205-.106-.37-.236-.37-.131 0-.237.165-.237.37 0 .204.106.37.237.37z" fill="#273150"/><path d="M122.481 126.445s.16-4.637-1.396-4.905c-1.556-.269-4.873 5.106-5.623 5.678-.75.574-1.341 2.421-1.724 2.993-.383.572-1.413 1.009-1.984 1.727-.572.72-2.577 2.884-1.139 5.301 1.441 2.421 1.985 3.132 3.97 1.812 1.979-1.317 8.414-10.213 7.896-12.606z" fill="#1D2436"/><path d="M119.399 151.842s-5.253-2.69-11.276-3.882c-2.716-.537-2.853 5.854-1.058 10.783.987 2.71 6.248 4.662 11.115 8.421 4.023 3.106 7.693 8.382 9.363 8.273 3.685-.243 1.343-20.417-8.144-23.595z" fill="#48598B"/><path d="M114.579 154.685c-.802-.109.645 2.336 1.022 3.407 1.097 3.118 1.995 6.679 2.961 8.938.854 1.995.254-.678-.439-4.074-.315-1.542-.552-3.019-.781-4.028-.129-.57-2.763-4.243-2.763-4.243z" fill="#273150"/><path d="M114.746 192.06s-3.081 4.058-4.159 6.248c-1.083 2.197 1.809 4.581 4.375 4.03 2.561-.549 4.988-2.012 5.855-4.192.864-2.174.87-2.197 2.223-4.53 1.349-2.324-.507-7.257-1.272-8.294-.766-1.035-6.599 3.222-7.022 6.738z" fill="#EC6141"/><path d="M114.827 191.002s-3.081 4.058-4.159 6.248c-1.083 2.197 1.995 3.664 4.562 3.113 2.56-.548 4.308-1.238 5.175-3.419.864-2.173 1.494-2.493 2.847-4.826 1.349-2.324-.639-6.815-1.403-7.852-.766-1.037-6.599 3.22-7.022 6.736z" fill="#13161F"/><path d="M113.038 184.514s.938 2.25.756 3.166c-.182.919-.737 3.468 1.461 4.623 1.873.984 6.41-3.238 7.84-4.718.254-.263.423-.689.451-1.141.077-1.257.12-3.845-.654-5.377-1.05-2.076-.912-1.479-2.573-8.324-1.648-6.796-6.91-20.935-7.24-22.387-.329-1.449-4.609-2.828-5.471-2.669-.864.16-4.211 7.081-4.122 8.989.088 1.912 1.985 8.528 3.615 14.148 1.639 5.653 3.65 8.273 4.131 9.893.753 2.54 1.806 3.797 1.806 3.797z" fill="#48598B"/><path d="M121.808 179.03c-.774-2.255-.401 1.127-.808 3.523-.234 1.375 1.583-1.268.808-3.523zm-8.83 4.792s.928 3.77 1.448 4.051c.519.282 2.073-.035 3.128-.88 1.055-.847-2.693.493-4.576-3.171zm-7.855-24.223s.565-1.514 1.013-2.9c.448-1.387.661 3.31-.307 4.518-.969 1.211-.706-1.618-.706-1.618zm11.693-.053l-3.031-2.329-3.741-4.682s.876.027 1.562.78c.311.34 1.945 2.458 2.836 3.567 1.072 1.34 2.042 2.127 2.374 2.664z" fill="#273150"/><path d="M134.745 127.944s-15.521-5.349-12.563-8.877c2.939-3.507 11.14-9.819 14.138-3.03 3.019 6.838.244 14.338-1.575 11.907z" fill="#1D2436"/><path d="M140.713 177.083s.242-.895.963-1.675c.719-.778 2.948-.454 3.346.928.397 1.386.393 10.891.393 11.534 0 .646-.8 3.325-1.527 4.899-.727 1.578-2.098 1.882-3.307 1.141-1.208-.741-.39-4.003-.064-5.56.327-1.551-.369-9.598.196-11.267z" fill="#EC6141"/><path d="M140.241 176.345s.042-.551.763-1.331c.719-.778 2.948-.454 3.346.928.398 1.387.593 10.546.593 11.19 0 .646-.8 3.324-1.527 4.898-.727 1.579-2.099 1.882-3.307 1.141-1.209-.74-.391-4.002-.064-5.56.327-1.553-.37-9.597.196-11.266z" fill="#13161F"/><path d="M136.519 179.921s2.698-3.608 3.964-3.696c2.704-.19 2.078 4.065 2.072 6.997-.004 2.943-1.463 5.109-2.004 5.672-.541.562.402.275-1.17 3.629-1.581 3.371-4.389 7.41-6.258 7.822-1.425.315-6.203-3.613-3.648-11.627.799-2.503 5.609-6.678 7.044-8.797z" fill="#273150"/><path d="M127.788 162.083s-.5 19.218-.295 26.479c.208 7.327-.005 10.778 1.128 12.591 1.134 1.817 3.193 2.155 4.637 1.409 1.44-.745.923-1.685 2.071-2.185 1.146-.497 1.968-5.944 2.261-7.784.293-1.836 1.076-19.676 1.38-26.125.303-6.396-.519-9.665-3.863-9.6-3.351.069-6.717 1.461-7.319 5.215z" fill="#273150"/><path d="M127.483 165.19s-.168 17.866-.007 24.539c.164 6.734-.004 9.903.888 11.572.893 1.669 2.517 1.982 3.655 1.294 1.136-.685 3.958-7.393 4.189-9.083.23-1.688 1.053-13.188.313-24.084-.398-5.856-.41-8.881-3.045-8.821-2.641.058-5.518 1.132-5.993 4.583z" fill="#47588A"/><path d="M118.489 155.919c.82 1.674 1.71 2.891 2.791 4.227.253.312 8.825 5.919 8.825 5.919s-4.81-2.861-4.141-2.113c2.856 3.192 3.601 5.354 6.934 6.622.778.296 2.396-2.095 2.859-1.303 1.487 2.537.959 7.34 1.081 4.968.438-8.47 2.324-12.334-1.755-15.644-4.297-3.486-18.881-7.352-16.594-2.676z" fill="#273150"/><path d="M120.335 151.68c.126-1.754-.145-8.541-.102-17.136.043-8.502.005-11.877 3.152-13.863 3.133-1.977 7.059-2.563 10.035.479 1.38 1.409 1.985 32.282 2.248 35.041.264 2.769-2.846 7.308-5.656 7.591-2.815.284-10.036-7.065-9.677-12.112z" fill="#F6BE4A"/><path opacity=".5" d="M127.317 153.664s-.447 1.306-.262 2.56c-1.641-1.115-3.254-2.377-3.701-3.263 0 0 1.441 3.805 3.602 5.074 2.161 1.268 4.141.703 4.141.703s-3.085-3.321-3.78-5.074z" fill="#F6BE4A"/><path d="M118.465 154.338c0 .09.02.176.06.241.323.528 1.299 2.81 2.8 3.606.403.213 1.095-.247 1.098-.516l.007-.549c.002-.132-.838-.004-.912-.064-.444-.366-2.318-2.665-3.099-4.109-.135-.25.047 1.058.046 1.391z" fill="#F4E8D8"/><path d="M124.68 119.764c.38-.331-4.634 3.467-2.383 19.18.599 4.179.004 11.473.199 12.887.197 1.414.802 4.572-.088 5.287-1.65 1.324-3.212-2.745-3.787-3.657-.893-1.412.944-2.074.868-7.28-.08-5.503-1.258-13.181-1.028-16.306.528-7.132 2.031-7.683 2.621-8.336.644-.71 3.138-1.372 3.598-1.775z" fill="#972B28"/><path d="M124.68 119.764c.143-.833-2.911 1.655-3.33 2.248-.408.578-.84 1.377-1.232 2.483-1.256 3.537 1.929 12.595 1.929 12.595s-.011-8.664.111-10.641c.12-1.972 2.245-5.074 2.522-6.685z" fill="#F4E8D8"/><path d="M124.782 119.081s-.153.549-.136 1.22c.06 2.699.421 10.159 1.065 10.252.654.093.955-.153 1.775-4.336.174-.891 1.911-7.601 1.365-8.18" stroke="#913636" stroke-miterlimit="10"/><path d="M125.831 132.858c.192 0 .347-.555.347-1.24 0-.685-.155-1.241-.347-1.241-.191 0-.346.556-.346 1.241s.155 1.24.346 1.24z" fill="#29ACE4"/><path d="M124.664 116.558l.1 4.213c.042 1.752 1.07 3.046 2.249 2.828l.16-.03c1.131-.208 1.959-1.736 1.851-3.407l-.27-4.176c-.127-1.97-1.484-3.176-2.743-2.444-.834.486-1.378 1.703-1.347 3.016z" fill="#CE6D3E"/><path d="M130.374 159.208l.01.352c.006.202.055.389.138.528.593 1 3.121 5.15 4.791 6.132 1.285.755 3.01.896 3.993.907.468.005.897-.47 1.095-1.213.13-.486-.034-1.048-.333-1.143-1.497-.479-5.553-2.093-8.938-6.294-.321-.401-.777.039-.756.731z" fill="#F4E8D8"/><path d="M129.35 118.407c-.461.561-2.442 6.169-.784 13.908 1.672 7.808.142 21.835 1.227 25.317.309.991 4.739 7.296 6.421 7.407 1.108.072 2.704.352 3.812.579.52.106 1.322-1.475 1.34-2.303.054-2.621 0-8.162-1.127-13.72-1.539-7.59-1.657-29.336-5.559-32.218-2.979-2.201-4.868.47-5.33 1.03z" fill="#972B28"/><path d="M134.588 150.993s3.134 2.988 3.966 3.41l-.471 1.754s-3.51-2.988-4.059-4.138l.564-1.026zm-5.326-33.012c.923-1.257 3.926-1.9 4.825-1.005.509.505-1.896-1.085-3.116 3.22-1.512 5.329-2.056 13.808-2.056 13.808s-.821-.699-1.114-7.479c-.195-4.525.537-7.285 1.461-8.544z" fill="#F4E8D8"/><path d="M136.973 147.921s.372-1.692.203-2.483c-.169-.792-.608 1.902-1.114 3.011-.244.533.755-.347.911-.528z" fill="#972B28"/><path d="M119.437 148.308l-.124.935.799-.722.146-1.111-.821.898z" fill="#F4E8D8"/><path d="M128.645 167.016s1.35 1.234 2.251 2.361c.901 1.128 2.612 2.009 2.612 2.009s-2.163.563-4.863-4.37z" fill="#273150"/><path d="M118.268 137.458c.695 3.227-1.566 7.107-3.695 7.139-1.275.021-2.233-.898-3.087-2.736-.322-.694-.125-1.5-.359-2.259-.181-.588-.812-1.127-.932-1.692-.68-3.225.497-5.553 2.605-5.875 1.519-.232 1.832 1.345 2.667 1.935.3.213 1.205.255 1.486.528 1.015.997.975 1.384 1.315 2.96z" fill="#C93F37"/><path d="M117.854 139.526c.105 1.673-.57 3.34-1.511 3.722-.942.38-1.788-.676-1.89-2.354-.102-1.676.358-4.116 1.296-4.491.936-.377 2 1.452 2.105 3.123z" fill="#F4E8D8"/><path d="M117.369 139.695c.077 1.259-.414 2.516-1.098 2.801-.683.287-1.298-.51-1.372-1.774-.074-1.261.398-3.759 1.433-3.335.682.278.96 1.051 1.037 2.308z" fill="#CE6D3E"/><path d="M116.074 137.669c-.383.472-.691 1.454-.799 2.958-.108 1.505 1.978 3.132 1.978 3.132s1.3.752 2.167-2.509c.344-1.299-1.434-3.704-1.42-4.532.049-3.007-1.298.175-1.926.951z" fill="#F6874E"/><path d="M117.728 137.246s-.676.122-.54.916c.135.792 1.198 2.202 2.313 1.78 1.116-.421-1.773-2.696-1.773-2.696z" fill="#CE6D3E"/><path d="M111.178 138.514c-.09-.917-.03-1.794-.044-1.972-.045-.528-.54 2.044-.54 2.044.606 1.373.63.403.584-.072zm3.984-4.44s-1.284-1.796-1.687 1.058c-.002 0 .742-.74 1.687-1.058z" fill="#972B28"/><path d="M134.693 137.005c-.922-2.333-1.86-5.299-2.825-7.62-.965-2.315-.41-9.669 1.689-10.936 2.093-1.261 2.483.297 4.415 4.672 1.939 4.393 4.93 15.919 4.006 19.891-.493 2.113-4.828 3.19-7.285-6.007z" fill="#1D2436"/><path d="M141.381 139.167c-1.031-2.322-2.346-3.928-5.035-3.083-1.34.421-1.511 2.414-1.511 2.414s-1.528-.218-2.224.755c-.698.974-3.064 0-2.988 4.861.075 4.861.837 7.095 2.914 7.715 2.075.62 5.317-3.625 5.317-3.625s1.144.347 2.663-1.912c1.532-2.278 2.501-3.438.864-7.125z" fill="#C93F37"/><path d="M135.182 137.843s1.223-1.686 2.425-.023c.132.183-1.483-.324-2.425.023zm-5.489 8.326c-.158 4.396 3.207 3.959 3.207 3.959s-.645.465-.244.636c.473.202 1.301.421 1.807-.132 1.808-1.979 2.815-6.838.604-8.828-.406-.364-.525 2.382-.585 1.59-.063-.84-.634-2.141-1.644-2.968-.564-.463-2.95.294-3.145 5.743zm8.579-5.541s-.58-.952-1.327-1.375c-.747-.424-2.055-.899-2.055-.899.206-.097 3.463-.412 3.382 2.274z" fill="#972B28"/><path d="M131.204 140.794c-.51.049-2.131.304-2.255 4.801-.099 3.63 1.967 4.475 1.967 4.475s1.504.204 2.189-.708c.923-1.23.999-4.153.426-6.656-.294-1.282-1.816-1.96-2.327-1.912z" fill="#F4E8D8"/><path d="M130.179 141.63c-.509.035-1.988-.398-2.065 3.87-.062 3.442 2.006 4.29 2.006 4.29s1.5.224 2.173-.628c.907-1.148.951-3.921.355-6.308-.306-1.227-1.96-1.259-2.469-1.224z" fill="#CE6D3E"/><path d="M120.08 126.329s.588-1.248 2.264-1.167c2.341.114 4.856 1.213 5.604 2.868a7.14 7.14 0 01.586 2.468s.744.113 1.112.965c.232.537.129 7.29.129 7.29-.04 1.192-.42 2.011-1.195 1.995l-.657-.014-8.002-1.636c.003 0-.605-11.306.159-12.769z" fill="#634874"/><path d="M117.321 135.766c.09 3.241 1.867 3.808 2.379 3.942 1.383.362 8.83 1.38 8.83 1.38s1.299-.778.558-.859c-.178-.018-3.853-1.303-5.057-1.646-2.052-.583-2.747-2.678-2.747-2.678s-4.004-1.618-3.963-.139z" fill="#7E6391"/><path d="M128.261 150.801l.613-9.521c-.036-.49-.283-.696-1.256-.963 0 0-.471-.067-.839-.125-.179-.027-.611.109-.628.952l-.307 10.782c-.026.394.877.118.877.118 1.336-.259 1.512-.354 1.54-1.243zm-7.017-13.502c-1.288.898-2.127 1.167-3.309.273-.878-.586-1.121-3.583-1.099-4.523l.017-3.231c.047-2.107 1.195-3.813 2.563-3.813 1.969-.002 2.997 2.398 2.944 5.435l-.07 1.82c-.016.937-.454 3.627-1.046 4.039z" fill="#634874"/><path d="M126.451 151.857l.168-11.047c.03-.905.067-1.055-.858-1.176l-.834-.009c-.688.058-1.028.604-1.049 1.493l.287 8.829c-.013 1.572-.143 2.009.565 2.097 1.181.146 1.707.352 1.721-.187z" fill="#7E6391"/><path d="M123.422 141.065c.086 1.37.27 2.854 1.487 3.326.052.021 1.007-.074 1.007-.074l-.401-3.631c.008-.716-.236-1.095-.526-1.146l-1.028-.111c-.377-.068-.595.726-.539 1.636z" fill="#7E6391"/><path d="M124.446 141.093c.072 1.303.282 2.768 1.334 3.22a.202.202 0 00.137.004c.626.082 1.626-.534 1.633-1.217l.101-2.78c-.03-.116-2.661-.655-2.661-.655-.325-.063-.593.565-.544 1.428z" fill="#634874"/><path d="M120.773 131.07c-.07 1.134-.728 1.995-1.471 1.923-.742-.071-1.287-1.05-1.216-2.187.071-1.134.731-1.991 1.472-1.919.74.074 1.284 1.051 1.215 2.183z" fill="#1D2436"/><path d="M120.367 130.47c-.096 1.577-1.011 2.776-2.043 2.676-1.034-.099-1.79-1.463-1.691-3.042.099-1.574 1.015-2.766 2.044-2.664 1.03.102 1.786 1.458 1.69 3.03z" fill="#F6BE4A"/><path d="M119.581 130.236c-.06.994-.637 1.746-1.287 1.683-.649-.062-1.127-.921-1.063-1.914.062-.991.639-1.743 1.287-1.678.648.064 1.124.919 1.063 1.909z" fill="#1D2436"/><path d="M122.605 126.338c.943 1.021 1.179 2.53.933 5.188-.021.217.092.412.257.451l3.453.891c.208.051.742.285.765.007.091-1.123.21-4.329-1.29-5.525-.709-.565-2.42-1.338-3.816-1.746-.344-.099-.567.447-.302.734z" fill="#BB83C3"/><path d="M122.928 125.396s2.499 1.593 1.462 6.993m.326-6.377s2.07 2.136 1.074 6.632m.283-6.007s1.85 2.12 1.062 6.241" stroke="#634874" stroke-width="2" stroke-miterlimit="10" stroke-linecap="round" stroke-linejoin="round"/><path d="M123.457 133.158l4.535 1.233" stroke="#BB83C3" stroke-width="2" stroke-miterlimit="10" stroke-linecap="round" stroke-linejoin="round"/><path d="M131.995 143.146s-.364-2.245-.571-2.861c-.102-.303-.078-.907-.313-1.796-.255-.963-.131-1.741-.403-2.505-.231-.648-1.297.533-1.254 1.753.024.689.077 2.037.195 2.71.133.764-1.691.16-1.691.16-.193-.107-1.446.032-1.65.067l-1.293.028c-.537.271-.627.882-.61 1.764.009.472 1.459.206 2.073.361.446.111 1.442-.151 1.457-.049 0 0-3.417 1.338-3.605 2.026-.37 1.363-.263 3.148-.127 3.414l.435.85s-.024 1.016.449 1.513c.715.753 2.99 1.378 2.99 1.378s2.683-1.417 3.131-2.081c.448-.662 1.007-1.204 1.065-3.317.055-2.107-.278-3.415-.278-3.415z" fill="#F6874E"/><path d="M124.327 144.801c-.362 1.368-.263 3.149-.127 3.415l.435.849s-.024 1.017.45 1.514c.714.753 2.989 1.378 2.989 1.378l-.816-2.429s-.725-5.548-.938-5.738c-.213-.19-1.86.511-1.993 1.011z" fill="#CE6D3E"/><path d="M118.221 123.685l-.094-7.405-2.186 3.091-2.497-5.709-.258 6.748-3.612.067 2.802 2.965-1.337 2.551 3.594.257c.319.021-1.716-1.342-1.716-1.342l.234-1.343-.78-2.076 1.639-.123.312-2.685 1.503 2.287 1.54-1.553c-.002-.003.858 4.324.856 4.27z" fill="#F6BE4A"/><path d="M115.899 141.773l1.652 2.387a.164.164 0 00.1.072c.361.062 2.601.014 3.336-.169.321-.079 1.1-1.327 1.933-2.602.26-.401.447-.634.712-1.137.146-.277.183-.641-.017-.819 0 0-.327-.285-.507-.074-.078.092-.084.058-.065-.012.04-.146 0-.315-.095-.375-.183-.116-.464-.217-.741 0-.405.317-.361.229-.361.229 0-.298-.214-.652-.495-.669-.376-.023-.675.32-.732.392-.008.009-.517.187-.968.523-.535.398-1.328-.123-1.745-.371-.768-.453-1.957-.502-2.068 2.405 0 .081.022.165.061.22z" fill="#F6874E"/><path d="M131.848 106.588c-.739 6.569-2.139 7.787-2.139 7.787-6.1 3.509-11.182-.449-11.698-6.188-.668-5.759-1.114-8.78 5.088-10.657 6.162-1.864 9.4 3.289 8.749 9.058z" fill="#1D2436"/><path d="M131.159 105.32c-.63 5.567-5.921 3.96-5.921 3.96-1.069-.437-4.752-1.599-5.446-4.689-.592-2.635-1.367-5.6 3.894-7.193 4.791-1.449 8.028 3.028 7.473 7.922z" fill="#3D4C6D"/><path d="M130.458 108.354s.438-1.798.031-3.747c0 0 1.608.581-.031 3.747z" fill="#1D2436"/><path d="M121.282 99.848s-3.641 1.513-4.047 2.62c-.407 1.109 1.411 13.421 2.905 16.081 1.497 2.667 8.131-1.731 9.323-4.65.976-2.387.5-3.202.259-6.334-.25-3.264-2.087-4.627-2.45-5.75-.614-1.914-5.99-1.967-5.99-1.967z" fill="#CE6D3E"/><path d="M128.977 109.227c.267 2.137-1.073 7.016-3.83 8.333-2.767 1.325-5.005.987-6.149-3.604-1.173-4.71 1.809-11.139 4.553-12.421 2.734-1.275 4.491 2.887 5.426 7.692z" fill="#F6874E"/><path d="M120.991 108.725c.11.75-.08 1.169-.33 1.261-.251.093-.469-.173-.577-.925-.109-.75.006-1.436.258-1.528.248-.091.54.442.649 1.192z" fill="#34273A"/><path d="M124.535 103.243l-.702 1.114m-3.055 2.273l-.986.099" stroke="#34273A" stroke-miterlimit="10" stroke-linecap="round" stroke-linejoin="round"/><path d="M124.106 106.063c.117-.584.747-1.716 1.543-1.368 0 0-1.067 1.594-1.432 2.129-.056.081-.133-.65-.111-.761z" fill="#34273A"/><path d="M130.291 105.759c.025 1.901-.543 3.568-1.269 3.716-.726.148-1.334-1.278-1.356-3.181-.023-1.9.547-3.553 1.27-3.699.724-.148 1.33 1.269 1.355 3.164z" fill="#F6874E"/><path d="M124.977 97.45s-5.836 9.895-7.83 11.108c-2 1.218-.997-7.275 1.934-10.287 2.916-2.99 5.896-.822 5.896-.822z" fill="#1D2436"/><path d="M125.356 97.271s.071.692-1.127 1.94c-2.074 2.16-6.063 5.488-7.073 6.102-1.601.972-.366-4.56 1.921-7.107 2.436-2.71 6.279-.935 6.279-.935z" fill="#3D4C6D"/><path d="M121.361 100.053s-1.62 3.801-3.311 5.014c-.001.003 4.006-2.75 3.311-5.014z" fill="#1D2436"/><path d="M126.462 99.968s.417 4.671 1.016 5.863l1.18 1.66-.798-6.62-1.398-.903z" fill="#3D4C6D"/></svg>