<svg width="284" height="251" fill="none" xmlns="http://www.w3.org/2000/svg"><path d="M110.514 93.905s-14.981-12.454-2.341-26.74c12.641-14.288 38.388-27.839 70.69-22.346 32.302 5.493 30.897 38.83 29.024 43.225 0 0 11.703-9.523 26.217 2.93 14.51 12.454-13.109 41.76-13.109 41.76s18.256-7.692 20.599-2.197c2.34 5.495-82.86 52.382-99.243 59.34 0 0 7.491-10.988-7.49-3.296s-13.109 12.454-36.048 19.049c-22.939 6.595-52.43 18.68-57.11 18.68s13.108-15.384 23.406-21.245c10.298-5.861 15.448-7.692 15.448-7.692s-18.726-15.75-2.807-27.473c15.916-11.722 21.534-4.761 21.534-4.761s-32.302-34.065 14.981-36.264c0 0-20.895-1.91-17.789-17.949 2.334-12.093 14.038-15.02 14.038-15.02z" fill="#F3E7D9"/><path d="M28.75 124.062l14.978 12.211 18.569-16.118-33.547 3.907z" fill="#665070"/><path d="M62.297 120.155L36.2 130.123l.038 6.15 26.06-16.118zM45.329 44.743l27.033 9.935 21.3-19.229-48.333 9.294z" fill="#856792"/><path d="M93.662 35.449l-31.63 20.727-4.55-6.697 36.18-14.03z" fill="#BB83C3"/><path d="M192.907 32.183l35.343-7.144-14.513 13.736-20.83-6.592z" fill="#856792"/><path d="M228.25 25.04l-25.513 10.622 1.639 6.96L228.25 25.04z" fill="#BB83C3"/><path d="M90.854 200.132l25.903-6.838-13.108 13.919-12.795-7.081z" fill="#856792"/><path d="M116.757 193.294l-20.339 9.856.11 4.375 20.229-14.231z" fill="#665070"/><path d="M162.27 103.764c-4.588.444-15.271 8.653-22.714 15.542-9.633 8.912-21.558 18.435-26.569 20.442-6.212 2.49-13.144 5.699-16.105 5.819 0 0 14.469 10.864 20.318 14.498 5.848 3.634 2.375-3.968 9.869-.403 7.493 3.565 20.536 14.465 20.536 14.465s6.263-1.729 15.242-8.882c11.73-9.342 28.725-49.097 25.533-55.764-3.192-6.666-21.785-6.84-26.11-5.717z" fill="#992C29"/><path d="M121.212 160.294c.372-.475 6.313-7.026 8.392-8.831 2.08-1.806-13.703 7.787-13.703 7.787s1.802 1.363 3.231 1.731c1.34.345 1.707-.213 2.08-.687z" fill="#C94039"/><path d="M178.943 109.757s11.615-1.116 16.748-3.211c5.132-2.095.775-18.016-10.343-18.974-12.703-1.098-26.539 5.67-33.961 10.71-7.423 5.04-3.015 10.903 9.312 12.556 12.502 1.678 18.244-1.081 18.244-1.081z" fill="#29ABE2"/><path d="M151.78 104.243c.911 5.164 22.412 3.104 28.953 2.398s11.105-5.465 10.194-10.63c-.911-5.164-6.952-8.777-13.496-8.07-6.543.71-26.563 11.138-25.651 16.302z" fill="#992C29"/><path d="M144.455 97.201s-3.044-.365-5.851-1.83c-2.808-1.466-4.391-5.586-4.213-6.41.278-1.304 4.68-4.579 6.789-4.396 2.107.183 6.319 5.495 6.319 8.058-.003 2.562-.938 4.396-3.044 4.578z" fill="#FFFCF3"/><path d="M140.319 93.998s0 3.752 2.855 5.817c2.855 2.065 12.366 3.565 17.357 0 4.99-3.565 4.757-8.82 4.757-8.82l-5.47 1.878s-14.505-2.815-16.171-2.815c-1.665 0-3.328 3.94-3.328 3.94z" fill="#FFFCF3"/><path d="M141.764 93.354l2.692-2.014 2.455 4.67-5.147-2.656z" fill="#F6BE4A"/><path d="M139.737 92.69a.38.38 0 00.218-.565.584.584 0 00-.673-.265.38.38 0 00-.218.565.586.586 0 00.673.265zm4.446-2.384c.243-.084.33-.346.195-.584-.136-.239-.443-.363-.687-.278-.243.084-.33.346-.194.585.135.238.442.362.686.277z" fill="#1D2538"/><path d="M151.108 93.507c2.269 6.771 9.523 7.391 17.765 7.539 4.955.088 9.721-1.85 12.372-4.884 1.757-2.014 2.582-4.507 1.908-7.213-1.686-6.782-12.313-10.576-20.555-10.722-8.242-.15-13.928 8.007-11.49 15.28z" fill="#273252"/><path d="M163.244 82.812c.439-2.007-2.751-4.11-7.126-4.696-4.376-.586-8.279.566-8.718 2.573-.439 2.007 2.751 4.11 7.127 4.696 4.375.586 8.278-.566 8.717-2.573z" fill="#273252"/><path d="M164.656 80.243c1.419-1.337-.128-4.173-3.455-6.335-3.326-2.163-7.173-2.832-8.592-1.496-1.419 1.336.128 4.173 3.454 6.335 3.327 2.162 7.174 2.832 8.593 1.496zm17.288 8.38c2.816-1.945 2.401-5.914-.928-8.866-3.329-2.95-8.311-3.767-11.127-1.822-2.816 1.945-2.401 5.914.928 8.865 3.329 2.952 8.31 3.768 11.127 1.823z" fill="#273252"/><path d="M192.316 91.39c.389-4.21-3.701-7.871-9.136-8.178-5.434-.308-10.155 2.855-10.544 7.064-.389 4.21 3.701 7.87 9.136 8.178 5.435.308 10.156-2.855 10.544-7.064z" fill="#273252"/><path d="M185.122 83.602c1.581-4.18-2.776-8.873-9.73-10.484-6.955-1.61-13.874.472-15.455 4.651-1.58 4.18 2.776 8.873 9.731 10.483 6.954 1.61 13.873-.471 15.454-4.65z" fill="#273252"/><path d="M151.863 93.389c1.887 5.52 10.594 7.028 17.315 7.118 4.041.053 6.905-1.17 9.047-3.655 1.423-1.65.304-5.097-.258-7.306-1.411-5.532-8.499-9.382-15.22-9.472-6.722-.09-12.911 7.384-10.884 13.315z" fill="#48598B"/><path d="M163.107 83.183c.377-1.725-2.365-3.532-6.125-4.035-3.76-.504-7.114.486-7.492 2.21-.377 1.726 2.365 3.532 6.125 4.036 3.76.504 7.114-.486 7.492-2.21z" fill="#48598B"/><path d="M164.169 80.453c.967-.91-.089-2.844-2.357-4.319-2.268-1.474-4.891-1.931-5.858-1.02-.967.91.089 2.843 2.357 4.318 2.268 1.474 4.891 1.932 5.858 1.021zm15.792 9.479c2.42-1.67 1.525-5.557-1.998-8.681-3.524-3.124-8.341-4.303-10.761-2.632-2.419 1.671-1.524 5.558 1.999 8.682 3.523 3.124 8.341 4.302 10.76 2.631z" fill="#48598B"/><path d="M188.144 91.696c.334-3.618-3.181-6.764-7.851-7.029-4.671-.264-8.728 2.454-9.062 6.072-.334 3.617 3.181 6.764 7.852 7.028 4.67.265 8.727-2.454 9.061-6.071z" fill="#48598B"/><path d="M182.437 84.212c1.359-3.592-2.384-7.626-8.359-9.01-5.976-1.383-11.921.407-13.28 3.999-1.358 3.592 2.384 7.625 8.36 9.009 5.975 1.384 11.92-.406 13.279-3.998z" fill="#48598B"/><path d="M141.085 158.574s.737 2.938 20.783 5.049c8.18.861 16.208.521 22.631.375 5.405-.123 15.413-1.588 19.992-2.801 4.55-1.204 8.621-3.817-1.857-9.861-10.5-6.054-56.283-3.5-61.549 7.238z" fill="#EE5D4F"/><path d="M193.657 168.841c.195 2.694-.279 9.357-4.849 9.718-4.485.354-7.313-2.285-9.085-6.267-2.527-5.673-13.339-32.326-1.923-33.539 11.416-1.213 12.697 2.743 14.327 7.917 1.627 5.171 1.169 17.183 1.53 22.171z" fill="#273252"/><path opacity=".4" d="M193.406 173.294c-.125.569-3.42-3.475-3.42-3.475s-.364-8.807-2.186-9.719c-6.405-3.697-11.97-1.406-11.97-1.406-3.153-8.902-5.236-19.178 1.97-19.944 11.417-1.213 12.698 2.743 14.328 7.917.946 3.002 1.189 8.308 1.295 13.208.077 3.542.613 10.512-.017 13.419z" fill="#273252"/><path d="M198.055 179.252c5.452 12.794 6.946 23.486 8.541 39.135.633 6.208-4.207 5.377-5.852.726-2.147-6.067-8.499-18.678-15.59-35.93-2.154-4.301 8.952-13.199 12.901-3.931z" fill="#CC6D3D"/><path d="M195.064 178.368c6.736 13.583 7.438 22.208 8.816 35.711.136 1.328.328 2.393.195 3.294-.304 2.048-2.999 3.039-4.067.023-1.852-5.236-8.751-19.088-14.866-33.972-1.861-3.713 6.026-12.915 9.922-5.056z" fill="#F5894E"/><path d="M195.834 175.528c-.869-1.125-3.887-6.412-12.327-4.841-2.343.436-2.31 3.873.118 9.542 1.684 3.933 2.175 4.861 2.329 5.162 0 0 6.472-2.963 13.507-2.935 0 0-1.6-4.303-3.627-6.928z" fill="#273252"/><path opacity=".4" d="M192.284 172.66s1.393-.03 3.038 2.312c1.944 2.771 4.1 7.456 4.1 7.456m-13.554-6.347s4.168.403 5.547-.914c0 0-.518 2.143-1.952 2.604-1.435.46-2.864-.63-2.864-.63l1.307-.169-2.038-.891z" fill="#273252"/><path d="M201.028 220.333c.332 4.519.601 10.299 12.887 9.704 6.233-.301-1.056-6.245-3.148-8.433 0 0-3.662-3.599-3.955-4.162-.749-1.435-3.671-1.903-5.452.88-.92 1.437-.379 1.356-.332 2.011z" fill="#CC6D3D"/><path d="M199.499 222.109c-.246.782-.059 1.958 1.311 2.724 2.884 1.609 7.605 3.102 12.472 2.903 6.112-.252-6.097-2.572-7.118-3.731-1.023-1.16-1.248-6.033-2.023-7.572-.906-1.801-1.181-.475-2.258.859-1.076 1.333-2.109 3.937-2.384 4.817z" fill="#F5894E"/><path d="M200.632 218.472s-.198.114.796 1.81c3.751 6.405 5.857 6.547 11.023 6.732 3.402.123-1.553-5.283-1.553-5.283l-3.814-3.87s3.405 2.56 6.328 5.449c1.796 1.776 3.985 3.303 4.728 4.377 1.307 1.591 2.701 4.119 1.014 4.334-5.656.715-12.996-.713-14.336-1.317-1.34-.604-1.399-2.125-3.029-3.78-.618-.628-2.725-1.855-2.799-2.401-.02-1.405-.077-1.875.438-3.53.547-1.755 1.204-2.521 1.204-2.521z" fill="#992C29"/><path d="M163.987 213.528c1.209 2.986.304 3.583-.696 4.585-7.41 7.436-9.458 4.762-10.688 5.283-4.1 1.734-4.491-2.202-2.648-3.102 1.772-.868 4.529-4.204 6.727-5.94 1.027-.812 1.077-1.294 2.536-1.507 1.523-.224 4.26-.581 4.769.681z" fill="#F5894E"/><path d="M164.215 217.289c-3.831 9.151-13.469 7.22-15.381 6.616-.789-.25 3.891-4.843 3.891-4.843s5.535-1.405 8.496-2.583c3.103-1.236 4.133-1.907 2.994.81z" fill="#CC6D3D"/><path d="M164.298 213.634c-.349-.449-.397-.236-.477.104-.618 2.635-.822 3.688-3.334 6.033-.855.798-.718 2.5-8.28 3.104-3.207.257.518-3.812.518-3.812l4.189-4.933-1.269 1.078s-4.982 4.827-6.985 5.977c-1.961 1.125-3.982 6.209-2.029 6.271 4.978.162 9.673-.44 13.567-1.347 1.81-.505 2.703-3.567 3.399-3.794 0 0 1.857-1.167 1.825-1.977-.036-.778-.633-6.074-1.124-6.704z" fill="#992C29"/><path d="M153.623 175.319s-4.251-17.597-.574-26.78c2.201-5.495 6.947-6.692 12.165-6.773 5.219-.081 6.497 3.081 5.952 6.546-.544 3.466-2.922 22.396-4.473 26.771-1.662 4.702-5.576 4.528-8.085 4.621-2.92.108-4.133-1.04-4.985-4.385z" fill="#273252"/><path opacity=".4" d="M161.708 161.338c-2.041-.949-10.064-1.137-10.064-1.137-.192-4.097.08-8.354 1.402-11.662 2.201-5.495 6.947-6.692 12.165-6.773 5.219-.081 6.497 3.081 5.952 6.546-.236 1.505-.819 5.924-1.529 10.801 0 0-1.707 11.436-2.521 14.079-.192-.067-.988-2.741-2.224-6.993-.817-1.47-1.139-3.912-3.181-4.861zm-6.57 16.007s3.748-.264 5.189-.97c1.438-.706-2.497 3.986-5.189.97z" fill="#273252"/><path d="M166.691 178.766c4.763 10.435 1.139 15.59-2.808 35.037-.364 1.794-4.887 3.239-6.251.616-.225-.435-.195-1.282-.26-2.248-.476-7.132-4.085-24.671-3.044-31.565.802-5.314 10.014-6.983 12.363-1.84z" fill="#F5894E"/><path d="M168.856 185.461c.201 1.787.266 4.4-.402 8.067-1 5.491-2.926 12.412-3.145 13.609-.361 1.993-1.438 6.898-1.739 8.136-.19.776-3.104 1.697-3.104 1.697s1.595-4.222 1.956-5.299c.745-2.231 4.082-17.97 4.562-25.821.059-.91 1.668-2.2 1.872-.389z" fill="#CC6D3D"/><path d="M167.558 176.715c-1.79-3.611-3.947-4.326-7.662-4.245-3.13.069-5.763.037-5.683 5.805.053 3.762.05 6.505-.077 8.063 0 0 3.961-1.458 14.794-.56.003.002-.186-6.669-1.372-9.063z" fill="#273252"/><path opacity=".4" d="M167.558 176.715c-.37-.708-.275 1.769-.275 1.769l-.317 7.169s.438.002 1.965.127c.003 0 .017-4.317-1.373-9.065z" fill="#273252"/><path d="M150.295 112.551s-6.277 8.428-7.617 10.248c-2.497 3.388 1.224 5.557 4.242 4.03 3.017-1.528 9.789-9.317 11.123-11.186 1.331-1.868-4.491-5.414-7.748-3.092z" fill="#CC6D3D"/><path d="M161.939 105.576c-1.612-1.009-5.961.269-8.898 3.563-3.254 3.648-4.157 5.259-4.157 5.259s2.87-.162 4.139.979c2.065 1.854 3.583 3.868 3.583 3.868s3.331-3.981 5.197-6.694c1.734-2.519 2.219-5.669.136-6.975z" fill="#C94039"/><path d="M164.063 127.352c4.941 3.653 18.487-.891 18.83-4.565.145-1.562.624-5.201 2.287-11.87 1.041-4.172 1.171-5.53.547-6.086-1.636-1.458-7.452-1.762-13.416-2.222-9.836-.759-10.41 1.095-13.389 4.775-3.633 4.489-4.574 12.783 5.141 19.968z" fill="#F7BC4B"/><path d="M178.707 112.22c4.94 3.653 3.949 13.38 4.292 9.706.145-1.563.518-4.338 2.181-11.007 1.041-4.171 1.171-5.53.547-6.086-1.636-1.458-5.269-4.333-13.848-3.639-9.833.797-10.617 3.572-13.771 7.424-3.659 4.47 10.884-3.586 20.599 3.602z" fill="#CE9436"/><path d="M160.019 109.838c-1.864.893-3.281 1.956-3.281 1.956s.219-1.931 1.793-3.887c1.186-1.474 11.668-.083 11.668-.083s-8.997 1.447-10.18 2.014z" fill="#CE9436"/><path d="M171.645 107.046l.766.01c1.746.021 3.181-1.072 3.207-2.436l.086-4.574c.027-1.365-1.37-2.488-3.112-2.509l-.766-.01c-1.746-.02-3.181 1.073-3.207 2.436l-.086 4.574c-.027 1.366 1.367 2.489 3.112 2.509z" fill="#F5894E"/><path d="M171.537 102.03l1.227.014c1.619.019 2.95-.993 2.973-2.26l.092-4.934c.024-1.267-1.269-2.308-2.887-2.327l-1.228-.014c-1.618-.018-2.949.993-2.973 2.26l-.092 4.935c-.023 1.266 1.269 2.308 2.888 2.326z" fill="#CC6D3D"/><path d="M194.51 112.785c2.37 3.483 5.266 8.016 6.082 9.141.894 1.229 1.468 5.539-.642 6.597-2.109 1.058-5.206-1.979-6.345-2.831-1.139-.849-5.615-6.407-7.248-9.349-1.281-2.311-1.015-4.991.55-5.753 1.565-.764 5.233-1.289 7.603 2.195z" fill="#F5894E"/><path d="M194.51 112.785c2.37 3.484 5.275 8.011 6.083 9.141.405.565.39.91.381 1.308-.009.398 1.03 3.222.24 2.632-.624-.466-5.541-7.861-7.449-11.297-1.568-2.831-.326-3.358.745-1.784z" fill="#CC6D3D"/><path d="M183.209 105.002c2.331-.865 5.763-.125 8.671 4.033a551.301 551.301 0 003.629 5.104s-3.721.794-8.256 3.595c0 0-1.888-2.26-3.308-4.382-2.988-4.468-2.556-7.674-.736-8.35z" fill="#EC5E4D"/><path d="M183.209 105.002c2.331-.865 5.763-.125 8.671 4.033a563.783 563.783 0 003.63 5.104l-1.669.433-4.017-2.116-6.86-.861c-2.027-3.727-1.376-5.991.245-6.593z" fill="#C94039"/><path d="M186.81 112.759s4.159.285 5.712.852c1.55.567 1.249.958 1.249.958l-6.961-1.81z" fill="#C94039"/><path d="M194.031 154.745s3.127-1.224 2.183-2.787c-.944-1.562-3.63-1.697-3.63-1.697l1.447 4.484z" fill="#C93F37"/><path d="M183.644 124.965s18.827 21.653 20.126 24.482c1.301 2.835 5.695 6.525 5.458 7.997-1.216-2.831-13.079-2.122-15.197-2.696 0 0 4.396-2.158.769-3.253-3.627-1.095-11.972-1.354-16.88-1.375-14.653-.058-31.675 1.845-36.855 8.614 0 0 9.268-31.94 21.037-38.713 11.534-6.644 21.542 4.944 21.542 4.944z" fill="#F7BC4B"/><path d="M183.644 124.965s18.827 21.653 20.126 24.482c1.301 2.835 5.695 6.525 5.458 7.997-1.216-2.831-13.079-2.122-15.197-2.696 0 0 4.396-2.158.769-3.253-3.627-1.095-11.972-1.354-16.88-1.375-14.653-.058-31.675 1.845-36.855 8.614 0 0 4.21-8.144 38.615-18.033 7.517-2.162 3.964-15.736 3.964-15.736z" fill="#CE9436"/><path d="M162.27 103.764c-4.588.444-15.626 8.25-23.072 15.139-9.632 8.912-22.809 18.65-27.838 20.627-5.751 2.259-17.507 6.778-20.468 6.898l6.035 3.097s13.155-1.157 23.045-10.576c11.964-11.393 31.737-31.118 42.298-35.185zm5.669 4.609c8.283-1.158 24.675 1.912 24.655 1.771-.891-5.959-10.073-8.776-14.206-9.181-2.746.104-8.869 2.924-10.449 7.41z" fill="#29ABE2"/><path d="M165.371 101.889c2.6-.565 6 4.803 6.352 5.706.352.903-9.396-1.319-25.445 6.993-5.514 2.854 13.176-12.236 19.093-12.699z" fill="#29ABE2"/><path d="M170.095 107.354c.42 0 .761-.266.761-.595 0-.328-.341-.595-.761-.595s-.76.267-.76.595c0 .329.34.595.76.595z" fill="#273150"/><path d="M154.052 101.87l2.482 3.702-1.355 1.115-.118 1.234m1.473-2.349l.017 1.025.696.947m2.899-3.44l.109 1.081.784.97m-4.062-5.657l3.168 3.606-1.254 1.232-.006 1.305m1.359-2.609l.872.042 1.243 1.081" stroke="#1D2538" stroke-miterlimit="10"/><path d="M179.956 125.528s-2.653-5.739-4.68-6.715c-2.029-.977-6.709-4.031-6.709-4.031l-24.344 2.808 5.774 5.739 1.873 3.419 28.086-1.22z" fill="#F3E7D9"/><path d="M149.603 119.912c-.352-.046-3.044.732-3.044.732s2.34-1.1 2.224-1.466c-.118-.365-.934-.731-.934-.731l-4.331 1.099-2.018 1.51c-.393.294-.467.763-.175 1.122.364.447.823 1.005 1.024 1.213.201.211.343 1.222.645 2.06.219.616 1.405 1.373 1.405 1.373s3.16.505 4.154-.136c.994-.642 3.86-2.702 4.153-3.436 0 0-.467-.731-1.112-.777 0 0 0-.825-.234-1.1-.234-.275-.935-.731-.935-.731l-.822-.732zm30.196 1.556s.506-.947-.118-1.924c-.625-.977-3.627-1.558-5.032-2.197-1.524-.697-1.56 1.22.156 2.32 1.716 1.099 2.965 2.655 4.994 1.801z" fill="#F5894E"/><path d="M158.422 120.521l21.844-5.005-7.644 15.995-4.526-7.937-9.674-3.053z" fill="#856792"/><path d="M179.956 115.516l-12.017 7.447.467 3.664 11.55-11.111z" fill="#665070"/><path d="M198.055 122.474s-6.328-1.317-10.564-.757c-4.237.561-6.352-.266-7.491 1.216-1.139 1.481-.071 2.951 2.911 3.403 2.982.451 9.384 3.092 12.579 2.828 3.387-.28 5.222-.104 5.846-1.928.624-1.824-.796-4.873-3.281-4.762z" fill="#F5894E"/><path d="M183.387 123.819s-.994-2.046-2.242-3.266c-1.249-1.22-1.95-1.329-3.364-.435-1.414.894-2.701 1.764-3.949 1.764-1.249 0-5.266-.259-6.358.472-1.091.732 0 .854 0 .854s-1.559.243-1.248.732c.311.488 2.183.611 2.183.611s1.405.731 1.873.854c.467.123 5.949 1.053 5.949 1.053s4.506-.319 5.754-1.053c1.245-.731 1.402-1.586 1.402-1.586z" fill="#F5894E"/><path d="M180.054 89.198c1.922-.555 2.781-2.485 1.919-4.31-.862-1.826-3.119-2.855-5.041-2.299-1.921.556-2.78 2.486-1.918 4.311.862 1.825 3.119 2.854 5.04 2.298z" fill="#CC6D3D"/><path d="M160.292 81.49c-.435 1.431 3.124 2.216 6.86 2.91 3.737.697 7.121.1 7.556-1.328.435-1.43-2.242-3.153-5.979-3.848-3.739-.696-8.002.836-8.437 2.267z" fill="#273150"/><path d="M177.74 86.812c-2.887-7.416-11.445-7.863-13.475-7.715-10.12.746-13.093 5.43-9.609 13.762 2.42 5.782 5.748 6.673 10.582 6.981 5.814.371 16.109-3.766 12.502-13.028z" fill="#CC6D3D"/><path d="M175.471 89.93c-2.612-5.518-10.26-5.88-12.07-5.775 0 0-7.298 1.868-8.68 3.382-1.381 1.514 1.183 6.481 1.183 6.481 2.663 4.862 4.367 5.118 8.686 5.364 5.195.294 14.144-2.558 10.881-9.452z" fill="#F5894E"/><path d="M168.33 81.519c-9.763-1.39-14.792 3.009-14.792 3.009s4.222-7.806 13.608-6.019c10.946 2.084 10.381 6.773 10.355 9.26 0 0-1.551-5.167-9.171-6.25z" fill="#F6BE4A"/><path d="M179.329 80.78c.48.572-2.127 3.067-3.588 1.91-1.373-1.09-2.692-2.482-1.441-2.908 1.249-.426 4.547.426 5.029.998z" fill="#C94039"/><path d="M178.682 81.715s-1.796 1.377-2.42 1.097c-.625-.28.585-.703 1.715-1.63 1.131-.928 1.438-.057.705.533z" fill="#F7BC4B"/><path d="M173.8 80.359s.956 3.662 2.956 6.046c1.511 1.803 3.065 2.79 3.065 2.79l.023-.8 1.447-.036s-3.648-2.267-6.429-7.933l-1.062-.067z" fill="#C94039"/><path d="M174.169 81.72s-.106 3.56 1.234 6.109c1.015 1.926 2.311 3.1 2.311 3.1l.26-.74 1.491.207s-3.062-2.71-4.231-8.438l-1.065-.238z" fill="#C94039"/><path d="M168.39 90.269c.569-.107.823-.867.569-1.7-.255-.83-.923-1.419-1.492-1.312-.568.107-.823.867-.568 1.7.254.83.922 1.419 1.491 1.312zm-9.727 2.143c.482-.078.706-.765.501-1.533-.205-.769-.762-1.328-1.243-1.25-.481.08-.706.766-.501 1.534.205.769.762 1.328 1.243 1.25z" fill="#273252"/><path d="M166.069 84.616s1.394-.257 2.198.564m-12.046 2.507s.526-.854 1.449-1.058" stroke="#273252" stroke-miterlimit="10" stroke-linecap="round" stroke-linejoin="round"/></svg>