<svg width="468" height="527" fill="none" xmlns="http://www.w3.org/2000/svg"><path d="M302.742 422.649c1.984-1.191 94.112-17.762 101.829-32.43 7.712-14.673-.77-17.762-16.97-14.673 0 0 34.715-6.949 37.031-29.341 0 0 23.912-21.622 16.97-32.43-6.942-10.809-17.745 7.719-17.745 7.719s31.629-43.243 2.315-67.948c-29.313-24.711-48.599-1.542-48.599-1.542s-11.573-18.533-42.427-7.72c-30.854 10.813-20.055 41.696-20.055 41.696s-5.402-9.266-14.66-5.406c-9.257 3.86-13.113 19.304-13.113 19.304s-10.798-3.86-19.286 0c-8.487 3.859-21.601 40.925-21.601 40.925s-14.659-6.178-24.687-4.631c-10.028 1.542-12.343 13.127-12.343 13.127s-20.056-36.29-45.513-36.29c-25.458 0-30.859 21.621-30.859 37.065 0 0-9.258-6.948-29.314 3.86-20.055 10.809-23.141 57.141-1.54 70.267 0 0-14.66 5.406-34.715 15.444C47.404 449.682 65.92 452 65.92 452s-30.084 10.037-21.602 10.037c8.483 0 223.709-18.537 258.424-39.388z" fill="#F3E7D9"/><path d="M129.826 453.157s87.555-90.059 90.544-92.796c3.042-2.791 10.676-2.67 4.138 3.537-6.293 5.973-92.425 92.255-92.425 92.255l-2.257-2.996z" fill="#B44C29"/><path d="M122.036 462.223c10.413 0 2.315 1.737 8.292 1.156a21.772 21.772 0 001.955-.273c.112-.176.18-.298.2-.366.429-1.469 9.101-16.478 6.445-18.347-2.638-1.85-22.932 10.593-26.935 14.653-1.287 1.308-2.666 2.913-3.934 4.475 4.017-.21 8.453-1.298 13.977-1.298z" fill="#B44C29"/><path d="M122.036 462.223c10.413 0 2.315 1.737 8.292 1.156 2.048-.2 3.461-.575 4.436-.99 1.707-3.504 8.624-15.908 6.211-17.596-2.657-1.859-23.176 10.608-27.227 14.678-1.131 1.137-2.335 2.498-3.471 3.86 3.437-.376 7.235-1.108 11.759-1.108z" fill="#F5894E"/><path d="M125.828 469.625s-32.594-2.508-49.369 2.704c-16.775 5.211 8.488 8.685 8.488 8.685s-15.045-4.055 1.54-7.914c16.585-3.86 39.341-3.475 39.341-3.475zm77.401-8.368s-24.302-1.157-44.358.771c-20.056 1.932-25.072 7.334-25.072 7.334s28.158-6.944 69.43-8.105zm51.879 13.321s-25.457-.195-33.169 1.737c-7.712 1.933 5.787 1.157 16.97.771 11.188-.385-8.678 1.933.58 3.089 9.258 1.157 54.386-1.542 54.386-1.542l-10.994-.966s57.364-2.825 31.819-4.245c-17.359-.966-32.214.922-59.592 1.156zm-69.815-7.719s-19.865 1.351-15.814 6.563c4.051 5.211 39.921 1.737 39.921 1.737s-31.819 6.368-45.128 2.318c-13.308-4.055 4.242-9.462 21.021-10.618zm8.293-.386s8.677 8.686 28.348 7.529c19.671-1.156 84.469-5.211 113.402-5.211 28.929 0 57.545-2.987 63.643-8.686 2.891-2.703-15.619-1.156-15.619-1.156s14.269 1.542-5.016 3.088c-20.773 1.664-89.291.386-109.542 4.441-20.25 4.055-57.281 5.782-75.216-.005z" fill="#BB83C3"/><path d="M328.97 473.226s15.429.771 47.058 1.157c21.333.259 46.4-.639 61.708-4.777 16.594-4.489-8.478-11.053-8.478-11.053s8.141-4.377-2.935-5.387c-12.879-1.176-21.162-.009-25.608.371-4.446.381.263-.551 14.659.771 19.983 1.835-.77 3.86 13.884 8.11 17.833 5.168-24.687 8.491-100.288 10.808zm58.797 19.543s-5.241 3.548-15.936 1.567c-10.696-1.981-3.808-1.928-13.436-.84-22.483 1.918-29.611 1.162-19.081-5.792 0 0-25.554 5.49-3.017 7.691 20.246 1.976 27.875-1.069 27.875-1.069s23.561 5.124 23.595-1.557zm5.231-.239s8.487-.771 8.487-3.859c0-3.089-5.016-4.631-5.016-4.631s14.659 1.156 9.643 5.792c-5.129 4.738-13.114 2.698-13.114 2.698zM89.056 477.862c-1.55.361 36.134-.898 42.427 5.407 2.701 2.703-3.085 5.792 25.458 7.719 28.543 1.928 53.23-5.021 78.302-3.86 0 0-20.573-2.444-48.087-.126-18.642 1.571-47.57 1.288-46.8-4.504.77-5.797-33.17-8.886-51.3-4.636zm255.728-16.991s11.378-2.703 3.666-4.055c-7.712-1.351-51.494.966-51.494.966s53.23-5.597 61.327-1.351c8.102 4.25-13.499 4.44-13.499 4.44zm-131.337 32.396s25.935-4.231 34.988-2.142c10.881 2.508 16.141 3.728 28.543 1.449 0 0-20.446 6.022-30.878 2.04-8.858-3.377-21.597-2.133-32.653-1.347z" fill="#BB83C3"/><path d="M234.975 404.229c18.315-.933 90.782-11.96 100.776-14.761 9.994-2.801 9.506-3.889 14.494.453 10.31 8.969 21.22 22.949 13.474 30.103-28.528 14.361-155.405-14.434-128.744-15.795z" fill="#7A462F"/><path d="M345.91 388.989c-12.309 4.006-16.102 3.709-44.879 8.003-20.567 3.074-44.367 7.705-59.372 6.114 0 0-8.766-4.714-2.111-4.514 44.903 1.372 107.425-12.496 107.425-12.496s1.589 2.03-1.063 2.893z" fill="#D77D5B"/><path d="M349.991 417.247s22.566 2.894 11.378-11.838c-6.644-8.754-16.97-16.732-16.97-16.732l2.604-2.606c4.724 3.948 19.631 17.777 22.337 20.622 5.143 5.406 6.172 7.207 3.086 11.325-3.081 4.119-22.435-.771-22.435-.771z" fill="#D77D5B"/><path d="M222.71 326.325s5.591 9.071 1.155 12.16c-4.436 3.089-17.355 10.233-21.986 11.584-4.632 1.352-9.643-8.109-1.156-12.74 8.488-4.631 19.476-11.97 21.987-11.004z" fill="#F5894E"/><path d="M222.709 326.325s5.592 9.071 1.156 12.16c-4.437 3.089-17.355 10.233-21.987 11.585-4.631 1.351 4.178-5.148 12.666-10.296 4.236-2.567-.283-10.214-.283-10.214 3.983-2.205 7.225-3.708 8.448-3.235z" fill="#CC6D3D"/><path d="M204.258 348.01c.965-1.81.297-9.818-3.096-12.252-5.909-4.241-25.277-20.48-27.827-21.788-2.554-1.308-6.513 5.041-2.715 8.559 3.798 3.518 18.13 21.597 23.351 25.608 5.221 4.011 9.321 1.679 10.287-.127z" fill="#F5894E"/><path d="M204.257 348.01s1.351-1.795.059-1.61c-1.823.264-6.557.332-8.541-1.093-5.909-4.24-15.02-14.644-16.843-16.859-1.317-1.601-3.579-3.923-4.758-4.763-4.227-3.01-6.523-3.908-3.549-1.156 3.797 3.518 18.13 21.597 23.351 25.608 5.216 4.011 9.316 1.679 10.281-.127z" fill="#CC6D3D"/><path d="M222.709 339.837s10.993-7.72 13.114-10.233c2.121-2.508-.141-10.896-6.557-8.685-6.172 2.122-9.062 4.245-12.148 6.563-.005 0 4.241 8.11 5.591 12.355z" fill="#C94039"/><path d="M222.709 339.837s10.994-7.72 13.114-10.233c2.121-2.508-.141-10.896-6.557-8.685-3.929 1.351-4.728 1.59-6.893 2.991 1.014 4.104 1.175 4.86 1.365 8.72.19 3.859-1.029 7.207-1.029 7.207z" fill="#992C29"/><path d="M201.684 337.456s3.212 1.932 2.7 6.304c0 0 1.029-8.237-2.7-6.304z" fill="#CC6D3D"/><path d="M174.169 315.029c-.161-1.254-1.799-2.801-2.861-4.055-.819-.966-2.54-2.123-4.081-1.737-1.54.385-6.298.127-6.942.127-.643 0-1.287 1.8-.127 2.317 1.161.518 4.242 1.703 4.242 1.703s-4.242 3.572-5.402 4.216c-1.155.645-6.43.127-6.43.127s-3.988-1.288-4.114.127c-.127 1.415 2.057 2.059 2.057 2.059s-1.672.127-1.541.771c.132.644-.126 1.45.771 2.094.901.644 1.798.741 2.827.995s-.512 1.415 2.057 1.674c2.569.258 8.614 0 9.131.127.512.127 4.373-1.933 6.557-3.348 2.189-1.405 4.017-5.938 3.856-7.197z" fill="#F5894E"/><path d="M170.445 319.826s-3.73-1.289-5.017-1.03c-1.287.259-3.344 2.83-3.344 2.83l-5.402 1.542-3.471.512h3.213l6.299-1.673s2.315-2.186 3.212-2.186l4.51.005zm-19.929-.001l6.171-.126 2.569-.771s-1.93 1.415-3.471 1.288c-1.54-.132-5.269-.391-5.269-.391z" fill="#CC6D3D"/><path d="M159.256 318.923s.259 2.059 1.541 2.571c1.287.513 2.315-.258 2.315-.258l-3.856-2.313z" fill="#CC6D3D"/><path d="M160.412 320.211l-4.885 1.415-4.114-.127s6.556.386 8.999-1.288z" fill="#CC6D3D"/><path d="M237.846 319.806s-8.029-.2-9.881 2.713c-1.853 2.913-4.866 14.698-2.755 18.67 2.116 3.972 7.776 12.56 11.476 15.205 0 0 6.367 8.329 16.658 4.235 10.052-3.996 11.305-3.094 12.363-7.861 1.058-4.762-4.997-22.036-8.873-29.536-2.886-5.592-9.828-5.017-18.988-3.426z" fill="#F7BC4B"/><path d="M237.846 319.806s-8.029-.2-9.882 2.713c-1.496 2.118-2.705 8.247-2.705 8.247s5.431 1.264 9.594 1.156c3.651-.092 9.764-4.133 12.343-3.86 11.574 1.211 7.327 15.83 7.327 15.83s-5.859 13.736-3.471 15.444c0 0-7.999 5.392 2.292 1.298 10.052-3.996 11.305-3.094 12.363-7.861 1.058-4.763-4.997-22.036-8.873-29.536-2.886-5.597-9.828-5.022-18.988-3.431z" fill="#CE9436"/><path d="M237.944 357.404s-7.713 11.325-14.143 42.726c0 0 16.458 14.414 42.944 16.986 26.486 2.571 33.686-12.868 33.686-12.868s-4.626-25.608-19.802-41.052c-15.171-15.444-17.745-13.126-24.17-12.097-6.43 1.03-18.515 6.305-18.515 6.305z" fill="#F7BC4B"/><path d="M237.944 357.404s-7.713 11.325-14.143 42.726c0 0 16.458 14.414 42.944 16.986 26.486 2.571 33.686-12.868 33.686-12.868s-51.172-14.287-61.459-19.689c-5.767-3.03-1.028-27.155-1.028-27.155z" fill="#CE9436"/><path d="M292.329 405.278s-30.473 18.147-68.528-5.148c0 0 16.458 14.414 42.944 16.986 26.486 2.571 33.686-12.868 33.686-12.868s-4.626-25.608-19.802-41.052c-15.171-15.444-17.745-13.126-24.17-12.097 28.543 17.499 35.87 54.179 35.87 54.179z" fill="#CE9436"/><path d="M242.57 365.509s-3.086 17.371-.77 19.304c2.316 1.932.77-4.246.77-19.304zm34.33-1.157s6.172 13.897 8.102 28.185c0 0-6.557-21.88-14.659-31.142-8.102-9.266 2.316-5.538 6.557 2.957z" fill="#CE9436"/><path d="M146.66 372.203s-9 28.053-9.77 33.46c0 0 13.499 69.301 83.699 64.475l-73.929-97.935z" fill="#7A462F"/><path d="M181.628 450.644l-11.378 7.143s11.573 11.004 28.738 12.355l-17.36-19.498z" fill="#A96443"/><path d="M164.848 421.878c-3.149 6.051-10.608 16.923-11.378 19.431 0 0 9.257 12.999 15.619 16.088l12.149-7.915c.005 0-13.485-33.176-16.39-27.604z" fill="#D77D5B"/><path d="M155.981 400.256l-12.666 24.325s5.465 11.516 9.516 16.342c0 0 9.902-15.766 11.442-20.011l-8.292-20.656z" fill="#A96443"/><path d="M148.843 386.555s-6.942 18.532-9.642 26.833l3.856 10.554s11.188-20.977 11.763-25.032l-5.977-12.355zm-2.184-14.093l-10.734 28.765c-.259.854-.58 1.762-.288 2.606l2.023 7.334c.288.825.575 1.025.858.2l10.974-30.151-2.833-8.754z" fill="#D77D5B"/><path opacity=".5" d="M146.401 376.063s-.127 10.618 1.029 20.851c1.155 10.233 2.959 78.055 73.159 73.229 0 0-21.601-2.318-36.641-19.69-15.049-17.376-37.547-74.39-37.547-74.39z" fill="#7A462F"/><path d="M144.461 368.983a1.288 1.288 0 01.912-1.41l8.741-5.212c.745-.136 4.65 3.153 5.338 3.475 0 0 19.183 19.987 19.129 21.66-.443 13.434-5.172 41.116 66.563 75.308l-3.802 2.049c-.795.429-25.321 7.012-26.218 6.993-3.758-.098-14.401-.161-14.401-.161s-19.47-16.22-29.508-35.329c-20.49-39.013-26.101-62.684-26.754-67.373z" fill="#D77D5B"/><path opacity=".5" d="M154.113 362.356c.746-.136 4.651 3.153 5.338 3.475 0 0 19.184 19.987 19.13 21.66-.444 13.434-5.172 41.116 66.563 75.308l-3.802 2.049c-.795.43-25.321 7.012-26.218 6.993-3.008-.078-10.423-.132-13.265-.152a3.102 3.102 0 01-2.018-.766c-3.91-3.411-19.866-17.888-28.626-34.567a141.36 141.36 0 01-11.456-29.336c-6.777-25.418-5.646-44.664-5.646-44.664z" fill="#7A462F"/><path d="M154.63 362.678c.746-.136 12.343 9.589 12.343 9.589s6.957 26.648 7.459 28.248c6.572 20.982 53.23 67.178 51.173 69.237-2.057 2.059-9.77 1.542-9.77 1.542s-4.324.264-15.687-13.77c-32.921-40.662-45.518-94.846-45.518-94.846z" fill="#7A462F"/><path d="M163.888 370.915s4.626 16.601 11.573 33.977c15.795 39.53 36.943 60.093 42.178 64.777a3.894 3.894 0 002.745.991c7.254-.288 35.524-.083 56.131-2.45 23.527-2.703 68.464-5.211 94.112-44.014.945-1.435 2.988-7.949 1.287-7.72 0 0-57.857-10.037-100.03-20.074-36.519-8.696-76.947-16.22-107.996-25.487z" fill="#7A462F"/><path d="M161.313 369.627l3.086 10.555s95.336 22.007 121.373 26.638c26.038 4.63 81.481 17.664 87.268 10.037 1.028-1.288-7.04-4.504-7.04-4.504-7.132 4.392-183.914-38.5-202.371-42.921l-2.316.195z" fill="#D77D5B"/><path d="M352.092 444.197s-9.023 6.783-10.549 7.491c-1.526.707-58.081 11.501-143.325-4.329l-13.499-17.761c-.005.005 103.345 18.464 167.373 14.599z" fill="#7A462F"/><path d="M341.698 451.605s-15.429 8.686-31.629 12.545c-12.294 2.928-85.244 7.915-91.669 6.368-6.425-1.547-20.188-23.163-20.188-23.163s108.581 13.711 143.486 4.25z" fill="#A96443"/><path d="M183.943 424.196l12.344 20.655s50.544 5.588 78.302 7.53c46.863 3.284 67.821-1.064 67.821-1.064l9.926-6.827-.234-.307c-12.607-.459-125.049-4.694-168.159-19.987z" fill="#D77D5B"/><path d="M182.656 422.137l-10.671-21.881s20.397 8.345 97.588 21.622c78.555 13.512 94.823 9.715 94.823 9.715l.234.806s-6.942 8.656-10.929 10.969h-.556c0 .005-134.745-7.334-170.489-21.231z" fill="#A96443"/><path d="M165.428 381.729l6.172 16.986s137.314 36.211 194.4 32.093c0 0 5.207-6.251 6.245-9.847l-.458-.147s-8.102 1.576-33.559-2.283c-8.99-1.362-119.058-20.587-172.8-36.802z" fill="#D77D5B"/><path opacity=".5" d="M161.572 369.886s3.213 13.126 10.16 30.502c15.795 39.53 37.576 63.392 42.812 68.081.756.673 2.701 2.059 5.84 2.191 7.254.307 35.524-.083 56.131-2.45 23.527-2.703 68.465-5.211 94.112-44.014.946-1.435.546-1.259-1.155-1.03 0 0-33.38 29.39-75.602 19.563-71.872-16.732-89.612-34.489-132.298-72.843z" fill="#7A462F"/><path d="M207.602 400.515s19.544 3.348 37.284 7.466c17.745 4.118-27.514-2.318-37.284-7.466zm37.542 11.326s11.525 2.571 14.401 2.571c3.086 0-6.172-2.571-14.401-2.571zm-52.459-31.401s38.293 8.745 44.484 10.555c6.172 1.801-34.457-5.665-44.484-10.555zm39.087 13.127s33.428 7.465 37.801 8.495c4.368 1.03-22.118-6.954-37.801-8.495zm132.781 18.947c9.286 1.849-2.506-15.507-18.706-22.973 0 .005 20.734 17.474 18.706 22.973zm-37.64 13.741s-24.941-4.118-34.457-6.948c0 0 26.228 3.342 34.457 6.948zm13.888-1.288s-16.199-1.288-21.084-2.572c-4.89-1.288 13.114 0 21.084 2.572zm4.885 2.059l-13.63-1.8s4.373 2.317 13.63 1.8zm8.487-13.643s-10.544-2.318-15.941-3.089c-5.401-.771 6.684 3.089 15.941 3.089zm-14.917-.254s-16.458-2.572-25.969-4.118c-9.516-1.547 10.028 3.601 25.969 4.118zm-154.801-1.547s27.515 5.148 37.031 7.72c9.516 2.571-37.031-7.72-37.031-7.72zm27.003 9.267s19.027 1.288 31.629 4.889c9.477 2.713-31.629-4.889-31.629-4.889z" fill="#A96443"/><path d="M315.856 434.814s-9.258-2.415-15.137-1.835l2.798 1.513s-12.601-.259-24.17-1.03c5.655 1.542 23.975 2.635 36.509 1.352zm-71.355 11.004s-25.843 0-33.945-1.933c-8.102-1.932 4.241 0 4.241 0l-16.585-7.719s35.876 8.49 46.289 9.652zm93.341.771s-13.884 1.156-19.285 1.542c0 0 4.626.771 8.872.771 4.241.004 10.413-2.313 10.413-2.313zm-13.499 4.63s-28.928 1.933-51.684-1.932c0 .005 37.8.39 51.684 1.932z" fill="#D77D5B"/><path d="M149.614 375.551s8.487 28.57 15.814 37.451c0-.005-14.269-18.147-15.814-37.451z" fill="#A96443"/><path d="M158.871 397.558s6.942 16.601 11.188 20.851c0-.005-5.786-13.902-11.188-20.851zm4.627 13.897s5.913 12.868 8.999 17.504c3.086 4.63 1.93.771 5.401 5.148s17.355 26.252 17.355 26.252-14.912-20.207-18.773-25.608c-3.856-5.407-1.414 1.8-4.115-3.602-2.696-5.411-8.867-19.694-8.867-19.694z" fill="#D77D5B"/><path d="M244.886 463.575s30.084-.903 42.042-.386c0 0-10.798 1.288-20.573 2.445l5.529 1.415s-45.645-.771-48.214-1.933c6.815-.126 25.457-.258 25.457-.258l-4.241-1.283z" fill="#A96443"/><path d="M224.055 295.242c.249-5.265-1.121-11.057 5.787-16.796 9.062-7.529 19.48 3.089 19.48 3.089s5.338-1.581 9.643 5.597c4.626 7.72-.385 14.092-.385 14.092s6.654 5.407-3.184 13.322c-5.226 4.206-16.584 5.114-22.083 4.631-10.959-.957-9.643-15.825-9.258-23.935z" fill="#273252"/><path d="M233.537 310.559l.385 11.199s.77 4.245 5.402 3.474c4.631-.771 4.499-6.051 4.499-6.051l.902-12.096-11.188 3.474z" fill="#CC6D3D"/><path d="M261.929 338.827s1.862 14.473 1.141 18.303c-.722 3.831-8.595 7.442-10.418 2.226-1.828-5.217-2.833-14.532-2.838-24.072-.004-5.709 10.272-5.055 12.115 3.543z" fill="#F5894E"/><path d="M261.929 338.827s1.287 10.008 1.306 15.581c.005 1.127-.234-1.581-2.92-6.466-4.241-7.719-10.257-4.611-10.32-5.787-.117-2.24-.181-4.548-.181-6.871-.004-5.709 10.272-5.055 12.115 3.543z" fill="#CC6D3D"/><path d="M249.171 340.706s-3.066-17.987.819-20.397c3.885-2.411 6.347-1.293 8.98 2.898 2.632 4.192 3.939 16.889 3.939 16.889s-4.271-.503-13.738.61z" fill="#C94039"/><path d="M258.58 332.888c-1.155-3.796-6.074-12.838-8.59-12.579 3.886-2.411 6.347-1.293 8.98 2.898 2.632 4.192 3.939 16.889 3.939 16.889l-1.857-.113-2.477-9.666v2.571h.005z" fill="#992C29"/><path d="M264.128 391.151c-.897 2.943-5.261 2.196-7.479-.063-2.218-2.26-2.262-7.32-2.754-17.328-.814-16.547-3.866-19.235 1.404-21.568 4.66-2.064 7.546-1.342 8.741 6.832 1.199 8.178.985 29.19.088 32.127z" fill="#F5894E"/><path d="M264.127 391.151c-.897 2.943-6.615 1.21-8.833-1.054-2.223-2.259 5.894-2.854 7.171-12.794 2.35-18.265 1.126-16.166 1.575-18.284 1.199 8.183.984 29.195.087 32.132zm-10.754-33.747s3.856-1.157 4.919-1.064c1.058.097-1.643-.961-4.919 1.064z" fill="#CC6D3D"/><path d="M262.436 388.482s2.891 4.44.965 4.631c-1.93.195-2.827.58-2.827.58s-.693 4.939-1.19 5.631c-.497.693-1.765.557-2.281.596-.834.063-.761-.459-.995-1.176-.385-1.157.034 1.512-.014 1.898-.049.385-.756.42-2.106.42-1.351 0-1.673-1.738-1.673-1.738s0 .903-1.798.771c-1.799-.126-1.673-1.673-1.673-1.673l-2.184-.644s-1.028-5.919-1.028-8.042 6.942-3.669 7.712-3.474c.765.195 6.971-1.928 9.092 2.22z" fill="#F5894E"/><path d="M264.172 388.965s1.155 3.957-.771 4.153c-1.93.195-2.827.58-2.827.58s-.692 4.938-1.19 5.631c-.497.693-1.764.557-2.281.596-.834.063-.761-.459-.995-1.176-.385-1.157.035 1.512-.014 1.898-.049.385-.756.419-2.106.419-1.351 0-1.672-1.737-1.672-1.737s0 .903-1.799.771c-1.799-.127-1.672-1.673-1.672-1.673s-1.96.258-2.184-.645c-.225-.902-.342-1.976-.634-4.055-.054-.37 1.326-.922 2.593-1.576.932-.478 1.57-1.224 2.701-.902 1.799.512 3.598.732 4.627.385 2.549-.854 2.73-3.074 2.73-3.44 0-2.123-5.339-1.932-5.339-1.932s7.942-1.928 10.833 2.703z" fill="#CC6D3D"/><path d="M217.303 312.404s4.622 7.714 11.671 4.552c7.049-3.162 8.789-21.119-1.667-20.767-10.457.346-13.914 10.954-10.004 16.215zm13.611-26.907c-3.612 1.772-17.618 2.875-18.584-.2-.97-3.074 9.916-8.983 13.046-2.737 0 0-4.119-5.836-.566-8.452 3.554-2.615 9.716 9.618 6.104 11.389z" fill="#273252"/><path d="M219.043 297.077c-1.652 15.151 7.985 18.772 18.423 17.435 7.844-1.006 8.941-5.997 8.507-15.903-.434-9.906-4.476-15.264-12.373-15.81-10.418-.732-13.484 4.431-14.557 14.278z" fill="#F5894E"/><path d="M238.202 295.759c5.402 22.393-11.169 20.09-.731 18.748 7.844-1.005 8.941-5.997 8.507-15.903-.434-9.905-4.476-15.263-12.373-15.81-7.62-.532-11.31 2.089-13.158 7.383 5.733-4.392 13.704-4.07 17.755 5.582z" fill="#CC6D3D"/><path d="M223.723 311.974c3.51 2.63 8.527 3.206 13.748 2.533 7.844-1.005 8.94-5.997 8.507-15.903-.434-9.906-.834 6.68-9.833 13.112-8.239 5.889-15.932-2.372-12.422.258z" fill="#CC6D3D"/><path d="M247.586 298.911l-1.35-.195s-3.515-11.56-11.188-14.478c-8.059-3.064-13.402 3.314-13.402 3.314s4.534-9.296 15.43-5.051c9.374 3.66 10.51 16.41 10.51 16.41z" fill="#F7BC4B"/><path d="M243.141 297.413c-.8 3.031.536 6.471 2.9 7.095 2.365.625 4.861-1.8 5.66-4.83.8-3.031-.468-5.993-2.832-6.617-2.365-.625-4.929 1.322-5.728 4.352z" fill="#CC6D3D"/><path d="M248.752 304.591s-6.528-2.786-10.34 1.596c-3.808 4.382 2.32 15.4 9.759 11.409 7.44-3.992 5.582-11.38.581-13.005zm-16.41-16.473c-.828.097-1.506 1.166-1.506 2.386 0 1.22.673 2.127 1.506 2.03.829-.098 1.507-1.166 1.507-2.386-.005-1.22-.678-2.128-1.507-2.03zm-9.691.829c-.537.005-1.044.898-1.136 1.986-.093 1.093.273 1.972.809 1.967.536-.005 1.043-.898 1.136-1.986.088-1.093-.278-1.972-.809-1.967z" fill="#273252"/><path d="M234.117 287.425s-.931-1.254-3.51-1.401m-6.845.791s-1.54.312-2.086 1.239" stroke="#1D2538" stroke-width=".5" stroke-miterlimit="10" stroke-linecap="round" stroke-linejoin="round"/><path d="M242.185 287.264s-.317 5.206.994 8.783c.99 2.708 2.336 4.285 2.336 4.285l.326-1.103 1.609.151s-3.169-3.64-4.115-11.877l-1.15-.239z" fill="#C94039"/><path d="M242.258 286.693s-2.082 4.782-2.072 8.593c.005 2.884.726 4.826.726 4.826l.683-.927 1.458.693s-1.731-4.509.199-12.57l-.994-.615z" fill="#C94039"/><path d="M242.029 290.031c1.043.678 6.347-3.314 4.304-5.402-1.92-1.967-4.436-3.831-5.464-1.962-1.029 1.864.117 6.685 1.16 7.364z" fill="#C94039"/><path d="M245.334 288.03s1.58-2.362.902-2.908c-.677-.547-.926.858-2.018 2.366-1.092 1.503.429 1.513 1.116.542z" fill="#F7BC4B"/><path d="M242.209 288.347s.746-1.069 2.969-.703c2.228.366 3.734.845 4.105 2.201.37 1.357-1.55 4.031-3.169 4.768-1.618.736-3.827-3.026-4.178-4.197-.346-1.176.273-2.069.273-2.069z" fill="#C94039"/><path d="M247.957 292.212s-1.492 2.181-2.638 1.698c-1.701-.717 2.472-3.601 3.077-4.104.609-.507 1.067 1.244-.439 2.406zm-82.08-134.024l5.202-12.487 6.113 12.487-4.89 15.312-6.425-15.312z" fill="#F7BC4B"/><path d="M389.015 224.092l3.247-7.802 3.822 7.802-3.057 9.574-4.012-9.574z" fill="#FEED7F"/><path d="M328.141 344.087l5.489-8.495 6.455 8.495-5.163 10.423-6.781-10.423z" fill="#29ABE2"/><path d="M112.442 364.352l2.813-8.032 3.31 8.032-2.647 9.857-3.476-9.857z" fill="#F7BC4B"/><path d="M304.288 84.96l2.813-8.033 3.31 8.032-2.652 9.857-3.471-9.857zM204 89.59l2.812-8.032 3.31 8.032-2.647 9.857L204 89.59z" fill="#29ABE2"/><path d="M237.944 53.3l2.813-8.032 3.31 8.032-2.647 9.857-3.476-9.857zM367.18 169.338l4.422-12.624 5.197 12.624-4.159 15.488-5.46-15.488zm15.79-17.972l2.813-8.032 3.31 8.032-2.647 9.852-3.476-9.852z" fill="#FFACFF"/><path d="M271.547 109.753l5.007-10.628 5.889 10.628-4.709 13.043-6.187-13.043zm-24.297 96.694l2.813-8.036 3.31 8.036-2.647 9.852-3.476-9.852zm33.365 55.389l3.295-8.676 3.886 8.676-3.106 10.638-4.075-10.638z" fill="#F7BC4B"/><path d="M90.412 211.337l3.207-7.403 3.778 7.403-3.022 8.812-3.963-8.812z" fill="#FFACFF"/><path d="M138.479 94.226l3.964-6.949 4.67 6.949-3.734 8.524-4.9-8.524z" fill="#29ABE2"/><path d="M145.373 294.471a1.736 1.736 0 10-.003-3.473 1.736 1.736 0 00.003 3.473z" fill="#F7BC4B"/><path d="M287.313 286.942a1.737 1.737 0 10-.001-3.473 1.737 1.737 0 00.001 3.473zm27.003 59.648a2.507 2.507 0 10-.002-5.014 2.507 2.507 0 00.002 5.014zm75.021-83.197a2.507 2.507 0 002.506-2.509 2.506 2.506 0 10-5.011 0 2.506 2.506 0 002.505 2.509z" fill="#FFACFF"/><path d="M348.353 316.478a1.448 1.448 0 10-.001-2.897 1.448 1.448 0 00.001 2.897z" fill="#29ABE2"/><path d="M338.998 309.529a2.506 2.506 0 002.506-2.508 2.507 2.507 0 10-2.506 2.508z" fill="#F7BC4B"/><path d="M115.669 321.977a2.122 2.122 0 000-4.245 2.122 2.122 0 000 4.245z" fill="#EE5D4F"/><path d="M105.934 325.457a3.185 3.185 0 003.183-3.187 3.184 3.184 0 10-6.367 0 3.186 3.186 0 003.184 3.187zm40.979 32.332a3.088 3.088 0 003.086-3.089 3.088 3.088 0 00-3.086-3.089 3.088 3.088 0 00-3.086 3.089 3.088 3.088 0 003.086 3.089z" fill="#F7BC4B"/><path d="M264.942 182.508a3.088 3.088 0 003.086-3.089 3.088 3.088 0 00-3.086-3.089 3.088 3.088 0 00-3.086 3.089 3.088 3.088 0 003.086 3.089z" fill="#29ABE2"/><path d="M90.602 273.62a4.628 4.628 0 004.626-4.63 4.628 4.628 0 00-4.626-4.631 4.628 4.628 0 00-4.626 4.631 4.628 4.628 0 004.626 4.63z" fill="#FFACFF"/><path d="M279.406 279.993a1.541 1.541 0 10-.002-3.086 1.541 1.541 0 00.002 3.086z" fill="#29ABE2"/><path d="M125.892 359.331a1.541 1.541 0 100-3.083 1.541 1.541 0 000 3.083zm19.095-85.32a2.703 2.703 0 002.701-2.704 2.702 2.702 0 10-5.401 0 2.702 2.702 0 002.7 2.704z" fill="#FFACFF"/><path d="M152.314 276.709a1.541 1.541 0 100-3.083 1.541 1.541 0 000 3.083z" fill="#F7BC4B"/><path d="M297.858 153.552a1.541 1.541 0 10-.002-3.086 1.541 1.541 0 00.002 3.086z" fill="#FFACFF"/><path d="M295.801 145.188a2.829 2.829 0 002.827-2.83 2.829 2.829 0 10-5.655 0 2.829 2.829 0 002.828 2.83z" fill="#F7BC4B"/><path d="M316.626 246.597a1.541 1.541 0 100-3.083 1.541 1.541 0 000 3.083z" fill="#FFACFF"/><path d="M314.121 335.206a1.932 1.932 0 000-3.865 1.933 1.933 0 000 3.865z" fill="#29ABE2"/><path d="M100.05 391.766a3.088 3.088 0 003.086-3.089 3.088 3.088 0 00-3.086-3.089 3.087 3.087 0 00-3.086 3.089 3.087 3.087 0 003.086 3.089z" fill="#FFACFF"/><path d="M377.184 374.199a3.087 3.087 0 003.085-3.088 3.087 3.087 0 00-3.085-3.089 3.087 3.087 0 00-3.086 3.089 3.087 3.087 0 003.086 3.088z" fill="#F7BC4B"/><path d="M368.506 362.23a2.122 2.122 0 002.121-2.123 2.122 2.122 0 10-4.241 0c0 1.172.949 2.123 2.12 2.123z" fill="#29ABE2"/><path d="M70.449 363c8.788 0 15.912-7.13 15.912-15.927 0-8.796-7.124-15.927-15.912-15.927s-15.912 7.131-15.912 15.927c0 8.797 7.124 15.927 15.912 15.927z" fill="#FFACFF"/><path d="M77.362 337.958c5.772 3.24 7.824 10.55 4.587 16.323-3.237 5.777-10.54 7.831-16.307 4.591-5.767-3.24 5.948-24.154 11.72-20.914z" fill="#BB83C3"/><path d="M76.055 347.19a5.679 5.679 0 00-6.323-5.645c-2.642.292-4.763 2.464-5.002 5.113-.205 2.245 1.004 4.251 2.74 5.339.224.141.346.4.346.663-.005.186-.005.357-.005.376v.859c0 .673.439 1.225 1.116 1.225h2.204c.99 0 1.79-.801 1.79-1.791v-.288c0-.019 0-.21-.006-.4a.725.725 0 01.337-.634c1.599-1.006 2.803-2.787 2.803-4.817z" fill="#EE5D4F"/><path d="M69.113 353.988s.653-5.768-.41-6.178c-1.063-.41-1.511 1.269.166 1.147 1.677-.122 3.598.122 3.802-.776.205-.898-.775-.942-1.062-.039-.288.898-.449 4.87.326 5.89" stroke="#FEED7F" stroke-miterlimit="10"/><path d="M72.818 355.471a2.506 2.506 0 11-5.012 0c0-1.386 5.012-1.386 5.012 0z" fill="#F3E7D9"/><path d="M72.886 355.857h-5.011a.533.533 0 01-.532-.532v-1.001c0-.292.24-.532.532-.532h5.011c.293 0 .532.24.532.532v1.001a.534.534 0 01-.532.532z" fill="#FFFCF3"/><path d="M69.825 339.271l-.059-3.875m3.324 4.529l1.2-1.855m1.526 3.602l2.618-1.855m-12.1.542l-1.145-1.415m-1.634 3.762l-2.617-1.474m1.852 5.021l-1.799-.219m18.642-1.088l-1.798.927" stroke="#F3E7D9" stroke-miterlimit="10" stroke-linecap="round" stroke-linejoin="round"/><path d="M67.719 265.022c9.148 0 16.565-7.423 16.565-16.581 0-9.157-7.417-16.581-16.565-16.581-9.15 0-16.566 7.424-16.566 16.581 0 9.158 7.417 16.581 16.566 16.581z" fill="#FEED7F"/><path d="M73.685 236.179c6.981 3.299 9.97 11.633 6.674 18.621-3.295 6.987-11.622 9.978-18.603 6.68-6.98-3.299 4.948-28.6 11.93-25.301z" fill="#F7BC4B"/><path d="M67.714 258.699c5.255 0 9.516-4.265 9.516-9.526 0-5.26-4.26-9.525-9.516-9.525s-9.516 4.265-9.516 9.525c0 5.261 4.26 9.526 9.516 9.526z" stroke="#29ABE2" stroke-miterlimit="10"/><path d="M67.714 258.699c1.987 0 3.598-4.265 3.598-9.526 0-5.26-1.611-9.525-3.598-9.525-1.987 0-3.598 4.265-3.598 9.525 0 5.261 1.611 9.526 3.598 9.526z" stroke="#29ABE2" stroke-miterlimit="10"/><path d="M74.529 242.44s-2.184 3.601-6.815 3.601c-4.627 0-6.816-3.601-6.816-3.601m13.631 13.16s-1.287-3.601-6.815-3.601c-5.529 0-6.816 3.601-6.816 3.601m-2.7-6.397h18.949" stroke="#29ABE2" stroke-miterlimit="10"/><path d="M382.649 346.21c6.817 0 12.343-5.532 12.343-12.356 0-6.823-5.526-12.355-12.343-12.355s-12.344 5.532-12.344 12.355c0 6.824 5.527 12.356 12.344 12.356z" fill="#BB83C3"/><path d="M375.882 339.93c-3.588-3.445-3.71-9.145-.268-12.736a8.99 8.99 0 0112.724-.269c3.588 3.445-8.868 16.45-12.456 13.005z" fill="#FFACFF"/><path d="M376.189 333.371a6.848 6.848 0 016.845-6.851 6.847 6.847 0 016.844 6.851" stroke="#1689CB" stroke-width="2" stroke-miterlimit="10"/><path d="M376.189 337.26c.195 4.377 1.224 4.953 2.628 5.397" stroke="#1689CB" stroke-miterlimit="10"/><path d="M377.491 338.89h.775v-6.363h-.775a3.181 3.181 0 000 6.363z" fill="#1689CB"/><path d="M378.383 332.244h-.975v6.822h.975v-6.822z" fill="#F3E7D9"/><path d="M388.83 338.89h-.775v-6.363h.775a3.181 3.181 0 010 6.363z" fill="#1689CB"/><path d="M387.943 339.064h.975v-6.822h-.975v6.822z" fill="#F3E7D9"/><path d="M379.305 343.57a.966.966 0 10-.002-1.932.966.966 0 00.002 1.932z" fill="#1689CB"/><path d="M364.362 286.747c9.585 0 17.355-7.778 17.355-17.372 0-9.594-7.77-17.371-17.355-17.371s-17.355 7.777-17.355 17.371c0 9.594 7.77 17.372 17.355 17.372z" fill="#BB83C3"/><path d="M370.466 255.795c6.235 4.216-9.009 26.819-15.249 22.607-6.235-4.216-7.878-12.691-3.666-18.933 4.212-6.245 12.68-7.89 18.915-3.674z" fill="#FFACFF"/><path d="M375.321 261.88h-22.566v15.634h22.566V261.88z" fill="#1689CB"/><path d="M372.04 276.758h-16.199l-1.989-2.074v-10.55l1.735-1.498h17.097l1.545 2.011v10.169l-2.189 1.942z" fill="#FFFCF3"/><path d="M370.885 265.291h-13.114v1.932h13.114v-1.932zm-2.057 4.377h-8.741v.834h8.741v-.834zm0 1.03h-8.741v.834h8.741v-.834zm0 1.351h-8.741v.835h8.741v-.835z" fill="#F3E7D9"/><path d="M375.331 278.183l-1.428-.083a.206.206 0 00-.215.19l-.078 1.23c-.009.166-.209.249-.336.141l-1.014-.878a.198.198 0 00-.293.034l-.814 1.103a.2.2 0 01-.356-.068l-.37-1.367a.201.201 0 00-.273-.131l-1.307.566a.203.203 0 01-.277-.23l.336-1.463a.202.202 0 00-.171-.244l-1.243-.157a.203.203 0 01-.117-.346l1.009-.991a.202.202 0 00-.005-.292l-.936-.845c-.126-.112-.063-.322.103-.351l1.331-.234a.2.2 0 00.161-.244l-.303-1.322c-.034-.157.117-.293.268-.235l1.278.474a.202.202 0 00.258-.118l.463-1.215a.203.203 0 01.351-.048l.77 1.01a.206.206 0 00.269.049l1.126-.723a.203.203 0 01.312.152l.122 1.268a.195.195 0 00.195.181l1.326.029a.203.203 0 01.175.293l-.575 1.156a.206.206 0 00.068.259l1.077.727a.204.204 0 01-.014.347l-1.141.634a.205.205 0 00-.088.263l.556 1.215c.059.118-.049.274-.2.264z" fill="#F7BC4B"/><path d="M371.802 278.154a2.673 2.673 0 002.671-2.674 2.672 2.672 0 10-5.343 0 2.673 2.673 0 002.672 2.674z" fill="#FFFCF3"/><path d="M307.466 238.877c10.226 0 18.516-8.297 18.516-18.532 0-10.236-8.29-18.533-18.516-18.533-10.225 0-18.515 8.297-18.515 18.533 0 10.235 8.29 18.532 18.515 18.532z" fill="#FFACFF"/><path d="M319.542 212.127c4.836 4.582 4.275 13.034-1.253 18.875-5.528 5.841-13.928 6.865-18.764 2.283-4.831-4.582 15.186-25.74 20.017-21.158z" fill="#BB83C3"/><path d="M316.778 227.074h-18.72a2.256 2.256 0 01-2.257-2.26v-11.189a2.256 2.256 0 012.257-2.259h18.72a2.256 2.256 0 012.257 2.259v11.189c0 1.25-1.009 2.26-2.257 2.26z" fill="#1689CB"/><path d="M317.572 212.357h-20.309v13.331h20.309v-13.331z" fill="#F3E7D9"/><path d="M307.36 218.925a2.605 2.605 0 002.603-2.606 2.605 2.605 0 00-2.603-2.606 2.605 2.605 0 000 5.212z" fill="#C94039"/><path d="M310.572 226.995h-6.299v1.508h6.299v-1.508z" fill="#48598B"/><path d="M316.958 229.279h-19.076a.368.368 0 01-.365-.366v-.317c0-.2.165-.366.365-.366h19.076c.2 0 .366.166.366.366v.317c0 .2-.166.366-.366.366z" fill="#1689CB"/><path d="M320.122 215.611h-7.541a1.863 1.863 0 01-1.863-1.864v-1.381c0-1.029.834-1.864 1.863-1.864h7.541c1.029 0 1.862.835 1.862 1.864v1.381c0 1.03-.833 1.864-1.862 1.864z" fill="#F7BC4B"/><path d="M312.742 214.533c.087 1.235-.702 2.645-.702 2.645s3.212-.727 3.568-2.664c-.005-.005-2.954-1.216-2.866.019z" fill="#F7BC4B"/><path d="M313.619 213.572a.615.615 0 10-.002-1.23.615.615 0 00.002 1.23zm2.774 0a.615.615 0 10-.002-1.23.615.615 0 00.002 1.23zm2.642 0a.615.615 0 10-.002-1.23.615.615 0 00.002 1.23z" fill="#F3E7D9"/><path d="M307.442 218.993a4.367 4.367 0 00-4.363 4.367v2.323h8.726v-2.323c0-2.41-1.95-4.367-4.363-4.367z" fill="#C94039"/><path d="M366.483 140.07c11.822 0 21.406-9.593 21.406-21.427 0-11.833-9.584-21.426-21.406-21.426s-21.406 9.593-21.406 21.426c0 11.834 9.584 21.427 21.406 21.427z" fill="#F7BC4B"/><path d="M352.818 131.179c-6.055-6.914-5.357-17.435 1.55-23.495 6.908-6.061 28.831 18.986 21.923 25.047-6.912 6.06-17.423 5.367-23.473-1.552z" fill="#FEED7F"/><path d="M366.834 137.659a1.091 1.091 0 01-1.092-1.093v-2.864a1.091 1.091 0 112.184 0v2.864a1.087 1.087 0 01-1.092 1.093z" fill="#3E4C6F"/><path d="M366.386 133.575a5.98 5.98 0 01-5.977-5.983v-10.715a5.98 5.98 0 015.977-5.983 5.98 5.98 0 015.977 5.983v10.715a5.98 5.98 0 01-5.977 5.983z" fill="#1689CB"/><path d="M367.092 117.048h-6.683s.009-.547.024-.698c.015-.147.054-.439.054-.439h6.605v1.137zm-.005 1.01h-6.683v1.137h6.683v-1.137zm0 2.395h-6.683v1.137h6.683v-1.137zm0 2.523h-6.683v1.137h6.683v-1.137zm.005 2.655h-6.683v1.137h6.683v-1.137zm.03 3.406h-6.538s-.151-.474-.17-1.137h6.708v1.137z" fill="#3E4C6F"/><path d="M363.816 99.535l.254 6.046 1.804.58-1.419 4.763 4.373-5.47-2.442-1.157.643-5.02-3.213.258zm-11.495 6.114l2.174-2.064 1.297 5.25 1.867-1.073 2.296 6.211-2.671-3.757-1.37.961-3.593-5.528zm22.552-2.767l2.311 1.415-2.477 3.714 1.906 1-3.992 5.285 1.721-4.28-1.546-.639 2.077-6.495z" fill="#EE5D4F"/><path d="M235.34 195.639c11.238 0 20.349-9.119 20.349-20.368 0-11.248-9.111-20.367-20.349-20.367s-20.348 9.119-20.348 20.367c0 11.249 9.11 20.368 20.348 20.368z" fill="#F7BC4B"/><path d="M252.959 176.628c-2.857 5.192-30.493-10.042-27.636-15.234 2.856-5.192 11.358-5.992 18.988-1.781 7.634 4.206 11.505 11.823 8.648 17.015z" fill="#FEED7F"/><path d="M223.67 171.309v11.599" stroke="#C94039" stroke-miterlimit="10"/><path d="M223.767 183.669a1.029 1.029 0 100-2.057 1.029 1.029 0 000 2.057z" fill="#C94039"/><path d="M235.448 175.174L219 172.022l16.448-8.047 17.194 7.559-17.194 3.64z" fill="#29ABE2"/><path d="M235.784 168.782c-5.445 0-10.013 4.626-10.013 4.626v6.065c0 .912 3.554-3.66 10.238-3.66 6.683 0 10.135 4.572 10.135 3.66v-6.065c.005 0-4.914-4.626-10.36-4.626z" fill="#1689CB"/><path d="M223.022 185.016s-.571-.771.136-1.932m.249 1.957s.136-1.699.136-2.147m.722.146s-.098 1.405-.21 1.908m.415-2.103s.287 1.107.239 2.074" stroke="#C94039" stroke-miterlimit="10" stroke-linecap="round" stroke-linejoin="round"/><path d="M165.555 268.585c10.49 0 18.993-8.512 18.993-19.011 0-10.5-8.503-19.012-18.993-19.012-10.49 0-18.993 8.512-18.993 19.012 0 10.499 8.503 19.011 18.993 19.011z" fill="#FFACFF"/><path d="M173.784 235.481c8.19 4.192 11.432 14.239 7.244 22.437-4.187 8.197-14.225 11.442-22.415 7.251-8.185-4.197 6.981-33.879 15.171-29.688z" fill="#BB83C3"/><path d="M162.562 239.175h3.92c.843 0 1.628.439 2.067 1.166l1.287 2.128-8.166.498.892-3.792z" fill="#48598B"/><path d="M176.163 258.567h-20.319a1.645 1.645 0 01-1.643-1.645v-12.384c0-.879-.146-1.713.483-2.318l2.203-2.645a2.498 2.498 0 011.726-.693h4.953c.736 0 1.414.381 1.804 1.001l.868 1.39h9.92c.907 0 1.643.737 1.643 1.645v14.009a1.636 1.636 0 01-1.638 1.64z" fill="#1689CB"/><path d="M165.058 245.133l4.953 4.177a.687.687 0 010 .971l-4.953 4.177a.684.684 0 01-1.17-.483v-8.349c0-.62.736-.927 1.17-.493z" fill="#F7BC4B"/><path d="M158.087 240.322l-.995 1.298m3.086-1.298l-.994 1.298m2.886-1.298l-.995 1.298" stroke="#29ABE2" stroke-miterlimit="10"/><path d="M212.004 75.947c9.585 0 17.355-7.778 17.355-17.372 0-9.594-7.77-17.371-17.355-17.371s-17.355 7.777-17.355 17.371c0 9.594 7.77 17.372 17.355 17.372z" fill="#F7BC4B"/><path d="M225.844 66.07c-4.012 6.773-12.753 9.008-19.519 4.992-6.767-4.016 7.765-28.546 14.532-24.53 6.766 4.016 8.999 12.765 4.987 19.538z" fill="#FEED7F"/><path d="M212.452 71.062c2.93 0 5.304-5.792 5.304-12.936s-2.374-12.936-5.304-12.936c-2.929 0-5.304 5.792-5.304 12.936s2.375 12.936 5.304 12.936z" stroke="#29ABE2" stroke-miterlimit="10"/><path d="M212.452 63.435c7.138 0 12.924-2.377 12.924-5.309 0-2.932-5.786-5.309-12.924-5.309-7.137 0-12.923 2.377-12.923 5.31 0 2.931 5.786 5.308 12.923 5.308z" stroke="#29ABE2" stroke-miterlimit="10"/><path d="M216.201 61.882c5.047-5.052 7.459-10.828 5.388-12.9-2.071-2.074-7.842.34-12.889 5.392-5.047 5.052-7.459 10.828-5.388 12.901 2.072 2.073 7.842-.341 12.889-5.393z" stroke="#9E54C7" stroke-miterlimit="10"/><path d="M221.589 67.275c2.071-2.073-.341-7.85-5.388-12.901-5.047-5.052-10.817-7.466-12.889-5.393-2.071 2.073.341 7.85 5.388 12.901 5.047 5.052 10.818 7.466 12.889 5.393z" stroke="#9E54C7" stroke-miterlimit="10"/><path d="M212.453 59.282a1.253 1.253 0 10-1.253-1.254c0 .693.561 1.254 1.253 1.254z" fill="#9E54C7"/><path d="M125.219 166.039c15.339 0 27.773-12.446 27.773-27.799s-12.434-27.799-27.773-27.799c-15.338 0-27.773 12.446-27.773 27.799s12.435 27.799 27.773 27.799z" fill="#FFACFF"/><path d="M135.218 117.028c11.705 5.529 16.711 19.509 11.193 31.22-5.524 11.716-19.491 16.727-31.191 11.204-11.704-5.529 8.293-47.952 19.998-42.424z" fill="#BB83C3"/><path d="M140.79 124.787l.112 24.471-1.623.356-13.899 2.04h-1.799s-13.211-2.01-16.204-1.913l-1.346-.117-.546-21.49s11.968-2.279 16.829 2.362c-.005 0 12.592-6.671 18.476-5.709z" fill="#C94039"/><path d="M140.405 125.07l.107 23.93-1.589.351-13.596 1.996h-1.76s-12.924-1.967-15.849-1.869l-1.316-.112-.536-21.022s11.705-2.23 16.458 2.308c.005.005 12.324-6.519 18.081-5.582z" fill="#EE5D4F"/><path d="M124.166 150.683l-1.087-20.817s9.204-7.651 15.478-6.675c0 0 1.292 18.162 1.433 23.774.01.449-.926 1.41-.926 1.41l-14.898 2.308z" fill="#F3E7D9"/><path d="M122.933 129.949s-6.138-6.124-16.639-2.342l.278 19.826.902 1.405c3.491.054 13.153.601 16.931 2.269l-1.472-21.158z" fill="#F3E7D9"/><path d="M123.172 129.769s-7.41-8.008-11.754-8.261l.537 24.373s10.627 1.957 12.212 4.792l-.995-20.904zm15.893 18.601s-.727-24.715-.542-25.184l1.273.381.322 25.101-1.053-.298z" fill="#FFFCF3"/><path d="M140.118 148.673l-.985-.42-14.966 2.43.238.425 15.713-2.435z" fill="#FFFCF3"/><path d="M107.479 148.839l-.902-1.406s14.494.166 17.589 3.25l.254.425s-8.961-2.157-16.941-2.269z" fill="#FFFCF3"/><path d="M134.428 144.515l-.902.814 1.404 1.558.902-.814-1.404-1.558z" fill="#48598B"/><path d="M130.972 146.73a5.145 5.145 0 005.143-5.148 5.146 5.146 0 00-5.143-5.148 5.145 5.145 0 00-5.143 5.148 5.145 5.145 0 005.143 5.148z" fill="#1689CB"/><path d="M130.972 145.96a4.375 4.375 0 004.372-4.378 4.374 4.374 0 00-4.372-4.377 4.375 4.375 0 00-4.373 4.377 4.375 4.375 0 004.373 4.378z" fill="#F3E7D9"/><path d="M135.345 141.582a4.375 4.375 0 01-4.373 4.378s5.723-2.894 0-8.75a4.374 4.374 0 014.373 4.372z" fill="#FFFCF3"/><path d="M141.453 153.225a1.249 1.249 0 01-1.765-.092l-4.924-5.466a1.25 1.25 0 011.858-1.673l4.924 5.465a1.25 1.25 0 01-.093 1.766z" fill="#F7BC4B"/><path d="M347.485 450.707s-74.826-107.718-76.372-110.289c-1.54-2.572.902-7.334 4.437-1.864 3.534 5.47 76.562 110.997 76.562 110.997l-4.627 1.156z" fill="#B44C29"/><path d="M374.098 485.196c4.704 1.123 10.057-.361 13.718-1.805-8.624-10.389-25.077-30.147-26.447-31.015-1.974-1.254-20.314-18.274-23.4-16.215-3.086 2.059 8.741 32.43 13.631 39.896 3.086 4.713 7.814 10.662 10.886 14.414 7.556-2.625 4.426-6.987 11.612-5.275z" fill="#B44C29"/><path d="M374.098 485.196c5.674 1.352 12.285-1.083 15.746-2.664-8.278-9.974-26.018-31.308-27.446-32.211-1.975-1.254-20.315-18.274-23.4-16.215-3.086 2.06 8.74 32.43 13.63 39.896 3.442 5.256 8.926 12.053 11.876 15.615 5.001-2.601 3.149-5.958 9.594-4.421z" fill="#F5894E"/><path d="M314.014 404.687l.395 1.679a.417.417 0 00.716.185c1.097-1.21 3.847-3.372 7.386.171l1.092.224-.034-1.385s-3.852-6.725-9.136-2.201a1.35 1.35 0 00-.419 1.327z" fill="#A96443"/></svg>