<?xml version="1.0" standalone="no"?>
<!DOCTYPE svg PUBLIC "-//W3C//DTD SVG 20010904//EN"
 "http://www.w3.org/TR/2001/REC-SVG-20010904/DTD/svg10.dtd">
<svg version="1.0" xmlns="http://www.w3.org/2000/svg"
 width="358.000000pt" height="358.000000pt" viewBox="0 0 358.000000 358.000000"
 preserveAspectRatio="xMidYMid meet">
<metadata>
Created by potrace 1.14, written by Peter Selinger 2001-2017
</metadata>
<g transform="translate(0.000000,358.000000) scale(0.100000,-0.100000)"
fill="#000000" stroke="none">
<path d="M158 2112 c-15 -3 -18 -16 -19 -85 -1 -95 -1 -506 0 -525 1 -16 253
-16 309 1 119 35 190 135 194 275 6 173 -56 279 -187 322 -36 12 -252 21 -297
12z m255 -83 c47 -13 100 -58 122 -105 22 -46 27 -154 10 -209 -32 -107 -93
-145 -235 -148 l-89 -2 -3 233 c-2 129 -1 236 1 238 9 8 158 3 194 -7z"/>
<path d="M870 2038 c-47 -122 -131 -345 -151 -405 -10 -28 -22 -60 -27 -70 -5
-10 -12 -30 -16 -45 -6 -27 -5 -28 36 -28 l43 0 31 88 31 87 123 0 123 0 31
-87 31 -88 42 0 c24 0 43 2 43 5 0 5 -117 324 -145 395 -7 19 -28 76 -46 125
-18 50 -38 93 -43 97 -6 4 -25 8 -43 8 -30 0 -33 -3 -63 -82z m118 -161 c23
-67 42 -125 42 -129 0 -5 -43 -8 -95 -8 l-94 0 17 43 c10 23 31 81 47 130 16
48 32 87 35 87 3 0 24 -55 48 -123z"/>
<path d="M1289 2087 c-3 -105 -4 -574 -1 -584 3 -8 21 -13 43 -13 l39 0 0 110
0 110 83 0 c102 0 148 12 193 52 44 39 64 86 64 152 -1 89 -54 168 -130 191
-13 4 -84 9 -157 11 l-133 3 -1 -32z m266 -61 c46 -20 74 -66 70 -119 -8 -89
-47 -117 -170 -120 l-85 -2 0 127 0 128 75 0 c43 0 90 -6 110 -14z"/>
<path d="M1799 2097 c-1 -28 -1 -578 0 -594 1 -8 16 -13 41 -13 l40 0 -2 313
-3 312 -37 2 c-33 2 -38 -1 -39 -20z"/>
<path d="M1970 2113 c0 -3 43 -68 96 -145 52 -77 98 -146 101 -154 3 -8 -39
-80 -96 -164 -56 -82 -101 -152 -101 -155 0 -3 21 -5 47 -3 l46 3 76 112 c42
62 81 113 86 113 6 0 44 -50 86 -112 l76 -113 46 -3 c26 -2 47 1 47 6 0 5 -45
75 -100 156 l-100 147 105 154 c58 84 105 155 105 158 0 8 -91 0 -99 -9 -5 -5
-42 -60 -83 -122 l-75 -113 -83 123 -82 124 -49 1 c-27 0 -49 -2 -49 -4z"/>
<path d="M2582 2100 c-6 -11 -8 -495 -3 -592 1 -17 17 -18 195 -18 l194 0 -1
38 -2 37 -150 0 -150 0 -3 103 c-2 92 -1 102 15 103 10 0 75 0 146 1 l127 0 0
39 0 39 -82 -1 c-46 0 -111 0 -145 0 l-63 1 0 95 0 94 153 3 152 3 3 33 c2 17
0 33 -5 33 -4 1 -90 3 -191 3 -157 2 -184 0 -190 -14z"/>
<path d="M3069 2090 c-1 -41 -1 -553 0 -577 l1 -23 191 0 190 0 -3 38 -3 37
-147 0 -148 0 0 276 0 276 -40 -1 c-36 0 -40 -3 -41 -26z"/>
</g>
</svg>
