<svg width="210" height="30" viewBox="0 0 210 30" fill="none" xmlns="http://www.w3.org/2000/svg">
<g style="mix-blend-mode:luminosity">
<path d="M50.8044 12.5524L50.4548 14.3356H50.3499C49.8953 13.3566 48.6366 11.958 45.8394 11.958C41.3289 11.958 36.7135 15.4545 35.6995 20.944C34.8254 25.7692 37.1331 30 42.4827 30C44.4408 30 46.6785 29.2307 47.8673 27.5874H47.9722L47.6576 29.4056H52.6576L55.7694 12.5524H50.8044ZM49.161 20.944C48.8464 22.5874 47.2729 25.2797 44.1261 25.2797C41.0492 25.2797 40.4198 22.5874 40.6995 21.0139C41.0492 19.0909 42.7625 16.6783 45.6995 16.6783C48.5666 16.7133 49.5457 18.986 49.161 20.944Z" fill="#2E2E2F"/>
<path d="M58.6011 12.5524H63.2865L62.9718 14.3356H63.0767C63.6711 13.5314 64.8599 11.958 67.727 11.958L66.783 17.0629C64.4053 17.0979 62.6921 17.5874 62.2375 20.1748L60.5242 29.4056H55.4893L58.6011 12.5524Z" fill="#2E2E2F"/>
<path d="M71.0837 5.979H76.1536L73.776 18.6713H73.846L79.6851 12.5524H85.6292L77.9369 19.965L82.3424 29.4056H76.6432L73.3914 21.2937H73.2865L71.818 29.4056H66.748L71.0837 5.979Z" fill="#2E2E2F"/>
<path d="M93.7062 11.958C88.6013 11.958 84.0559 16.3636 83.2167 21.0489C82.2727 26.0489 85.6643 29.965 90.4895 29.965C92.2028 29.965 93.986 29.4405 95.5244 28.4265C97.1328 27.4475 98.6014 26.014 99.7202 24.1258H94.5804C93.7412 25 92.7622 25.6993 91.2237 25.6993C89.2657 25.6993 87.7972 24.5105 87.9021 22.5174H100.524C100.664 22.1328 100.769 21.8181 100.874 21.1888C101.853 16.0489 98.8461 11.958 93.7062 11.958ZM88.6014 19.1258C88.986 18.1468 90.3846 16.2237 93.0069 16.2237C95.6293 16.2237 96.2587 18.1119 96.2587 19.1258H88.6014Z" fill="#2E2E2F"/>
<path d="M29.021 5.979L20.1399 19.3356H20.0699V5.979H15.7692L0 29.4056H6.11888L14.965 16.0489H15.035V29.4056H19.3706L28.2168 16.0489H28.2867V29.4056H33.3566V5.979H29.021Z" fill="#2E2E2F"/>
<path d="M113.672 12.5525H110.49L111.434 7.55249H107.028L106.679 9.47557C106.294 11.6784 104.895 12.3427 103.077 12.5525H103.042L102.273 16.3637H104.755L102.343 29.3707H107.378L109.79 16.3637H113.007L113.672 12.5525Z" fill="#2E2E2F"/>
<path d="M191.609 23.042C189.965 26.8531 186.014 30 181.469 30C176.364 30 173.182 25.979 174.091 20.9441C175.035 16.014 179.581 11.993 184.65 11.993C189.091 11.993 192.168 14.965 192.273 19.0909H187.168C186.853 17.9021 186.084 16.7133 183.951 16.7133C181.574 16.6084 179.616 18.5315 179.161 20.979C178.706 23.4615 179.965 25.2797 182.378 25.2797C184.441 25.2797 185.699 24.0909 186.434 23.007L191.609 23.042ZM149.895 0L140.105 5.97902H142.867L133.986 19.3357H133.881V5.97902H129.546L120.699 19.3357H120.595V5.97902H115.56V29.4056H119.965L128.846 16.0489H128.951V29.4056H133.287L148.986 5.97902H151.469L149.895 0ZM159.441 29.4056H154.441L154.755 27.5874H154.65C153.462 29.2308 151.224 30 149.266 30C143.916 30 141.609 25.8042 142.483 20.9441C143.462 15.4545 148.112 11.958 152.623 11.958C155.385 11.958 156.678 13.3217 157.133 14.3357H157.238L157.588 12.5524H162.588L159.441 29.4056ZM150.979 25.3147C154.091 25.3147 155.664 22.6224 156.014 20.979C156.364 18.951 155.42 16.7133 152.553 16.7133C149.65 16.7133 147.937 19.1259 147.553 21.049C147.273 22.6224 147.902 25.3147 150.979 25.3147ZM175.175 12.5524H172.028L172.972 7.55245H168.567L168.217 9.47553C167.832 11.6783 166.434 12.3427 164.616 12.5524H164.546L163.811 16.3636H166.294L163.881 29.3706H168.916L171.329 16.3636H174.546L175.175 12.5524ZM196.364 5.97902H201.399L199.86 14.3357H199.965C201.049 12.7622 202.483 11.958 204.72 11.958C206.329 11.958 208.147 12.5525 208.986 13.8462C210.07 15.4895 209.965 16.958 209.371 19.965L207.657 29.3706H202.623L204.301 20.2098C204.441 19.4056 204.93 16.6783 202.273 16.6783C199.441 16.6783 198.951 19.1958 198.811 20.035L197.098 29.3706H192.063L196.364 5.97902Z" fill="#818181"/>
</g>
</svg>
