<svg width="714" height="803" viewBox="0 0 714 803" fill="none" xmlns="http://www.w3.org/2000/svg">
<path d="M312.56 321.712C370.58 297.384 565.17 235.021 625.129 209.432C685.088 183.842 682.444 106.122 629.043 93.565C575.642 81.0077 556.116 111.112 556.116 111.112C556.116 111.112 546.521 56.2348 506.236 53.8957C465.959 51.5565 430.755 92.7852 446.559 154.398C446.559 154.398 440.737 135.833 410.62 134.727C380.503 133.62 340.872 161.98 323.225 202.904C305.579 243.829 321.101 261.933 331.633 266.366C331.633 266.366 279.784 280.409 253.663 306.273C227.542 332.138 254.54 346.039 312.56 321.712Z" fill="#F3E7D9"/>
<path d="M95.6223 287.203C104.438 282.792 197.908 231.657 245.523 201.686C293.138 171.715 323.121 155.839 317.826 138.21C312.53 120.58 313.414 103.828 271.971 123.224C271.971 123.224 241.988 84.431 189.085 116.169C136.182 147.908 171.445 214.036 171.445 214.036C171.445 214.036 149.402 209.625 127.358 225.494C105.315 241.363 103.547 249.301 107.959 255.472C112.37 261.643 118.542 259.883 118.542 259.883C118.542 259.883 92.9708 277.52 86.7989 285.451C80.6344 293.374 86.8063 291.607 95.6223 287.203Z" fill="#F3E7D9"/>
<path d="M152.58 396.729C152.58 396.729 138.387 423.64 158.21 425.593C178.026 427.554 179.251 403.575 179.251 403.575" stroke="#1D2538" stroke-width="2" stroke-miterlimit="10"/>
<path d="M160.29 389.874C160.29 389.874 153.553 401.941 167.635 416.021C178.798 427.182 194.239 406.813 194.239 406.813" stroke="#3E4C6F" stroke-width="2" stroke-miterlimit="10"/>
<path d="M158.388 399.417C158.388 399.417 150.026 426.328 161.708 428.281C173.391 430.234 174.112 406.263 174.112 406.263" stroke="#992C29" stroke-width="2" stroke-miterlimit="10"/>
<path d="M117.109 588.993L103.161 475.985H222.061L241.148 597.8L117.109 588.993Z" fill="#C94039"/>
<path d="M117.109 588.993L216.409 524.714L222.061 475.985L241.148 597.8L117.109 588.993Z" fill="#992C29"/>
<path d="M279.316 448.829L222.061 475.985L240.963 597.8L298.396 534.687L279.316 448.829Z" fill="#992C29"/>
<path d="M103.896 475.985L197.841 448.094L279.316 448.829L222.061 475.985H103.896Z" fill="#EE5D4F"/>
<path d="M213.802 462.626C194.603 461.2 156.665 466.889 156.665 466.889C156.665 466.889 156.517 467.995 156.665 468.686C157.126 470.735 172.247 471.819 185.824 471.767C198.703 471.715 217.137 467.832 219.788 465.084C220.405 464.445 220.078 462.44 220.078 462.44C220.078 462.44 216.156 462.804 213.802 462.626Z" fill="#3E4C6F"/>
<path d="M213.802 460.918C194.603 459.492 176.503 461.037 161.694 464.609C146.884 468.181 167.724 470.126 185.832 470.06C203.939 469.993 233.001 462.337 213.802 460.918Z" fill="#1D2538"/>
<path d="M164.724 399.743L182.43 465.953L187.57 466.213L191.706 464.052L170.933 392.875L164.724 399.743Z" fill="#121721"/>
<path d="M180.231 407.734C180.231 407.734 178.033 418.011 182.43 426.811C186.834 435.618 189.768 435.618 208.12 432.685C226.473 429.752 235.764 425.348 243.347 421.68C248.783 419.051 242.612 399.417 238.943 398.927C227.2 393.788 180.231 407.734 180.231 407.734Z" fill="#48598B"/>
<path d="M175.961 392.971C175.961 392.971 173.762 403.248 178.159 412.048C182.563 420.855 185.497 420.855 203.85 417.922C222.202 414.989 231.493 410.585 239.076 406.917C244.513 404.288 238.341 384.654 234.672 384.164C222.937 379.025 175.961 392.971 175.961 392.971Z" fill="#1D2538"/>
<path d="M179.496 418.011C179.496 418.011 175.092 409.939 167.754 407.734C160.416 405.536 148.429 407.244 144.997 406.999C141.566 406.754 133.99 395.993 128.851 382.047C123.711 368.102 121.513 355.626 137.659 349.024C153.806 342.423 189.768 332.88 205.922 332.88C222.068 332.88 222.068 342.423 225.737 350.495C229.406 358.567 241.884 393.06 243.354 396.728C244.825 400.397 240.175 403.82 221.333 409.939C196.95 417.848 179.496 418.011 179.496 418.011Z" fill="#48598B"/>
<path d="M165.459 365.807C162.837 360.119 158.232 348.504 173.332 342.185C188.431 335.865 190.615 332.999 205.714 332.999C220.813 332.999 219.268 338.078 222.7 345.809C226.131 353.539 237.799 386.577 239.173 390.09C240.547 393.602 168.088 371.495 165.459 365.807Z" fill="#3E4C6F"/>
<path d="M193.898 395.196C197.674 393.385 197.68 385.547 193.911 377.688C190.142 369.83 184.025 364.927 180.249 366.738C176.472 368.549 176.466 376.387 180.235 384.245C184.004 392.104 190.121 397.006 193.898 395.196Z" fill="#273252"/>
<path d="M191.344 393.147C194.418 391.674 194.425 385.299 191.36 378.909C188.295 372.518 183.319 368.533 180.245 370.006C177.172 371.48 177.165 377.855 180.229 384.245C183.294 390.635 188.271 394.621 191.344 393.147Z" fill="#121721"/>
<path d="M225.734 382.697C229.252 381.01 229.259 373.713 225.751 366.398C222.242 359.084 216.547 354.521 213.03 356.207C209.512 357.894 209.505 365.191 213.013 372.506C216.521 379.82 222.217 384.383 225.734 382.697Z" fill="#273252"/>
<path d="M223.369 380.794C226.228 379.424 226.232 373.489 223.378 367.539C220.524 361.588 215.893 357.876 213.034 359.247C210.175 360.618 210.171 366.553 213.025 372.503C215.878 378.453 220.509 382.165 223.369 380.794Z" fill="#121721"/>
<path d="M180.211 426.221C183.814 424.956 185.38 420.073 183.709 415.313C182.037 410.554 177.761 407.721 174.158 408.986C170.555 410.251 168.989 415.134 170.661 419.894C172.332 424.653 176.608 427.486 180.211 426.221Z" fill="#1D2538"/>
<path d="M178.533 426.578C182.136 425.313 183.702 420.429 182.03 415.67C180.359 410.91 176.083 408.077 172.48 409.342C168.877 410.607 167.311 415.491 168.983 420.251C170.654 425.01 174.93 427.843 178.533 426.578Z" fill="#273252"/>
<path d="M181.331 354.898L225.366 271.238" stroke="#FFACFF" stroke-miterlimit="10"/>
<path d="M200.047 400.026L306.841 417.64" stroke="#FFACFF" stroke-miterlimit="10"/>
<path d="M196.742 300.956C196.742 300.956 220.962 305.36 228.671 321.868" stroke="#FFACFF" stroke-miterlimit="10"/>
<path d="M206.65 381.312L255.899 362.874" stroke="#FFACFF" stroke-miterlimit="10"/>
<path d="M278.685 350.339C278.685 350.339 291.229 404.318 265.004 429.752" stroke="#FFACFF" stroke-miterlimit="10"/>
<path d="M399.301 332.331C399.301 332.331 379.077 337.455 375.259 360.312C373.856 368.733 372.326 393.714 369.778 410.14C365.73 436.271 362.143 461.468 360.375 469.48C357.59 482.127 355.087 492.189 370.788 498.1C387.061 504.226 393.463 496.696 401.484 477.404C409.728 457.576 424.315 409.464 425.801 392.117C427.345 374.235 424.508 334.759 399.301 332.331Z" fill="#F5894E"/>
<path d="M399.457 333.764C393.3 333.72 387.113 336.994 386.823 346.693C386.155 368.807 393.374 411.952 394.161 426.276C395.483 450.269 361.103 494.736 370.796 498.115C387.209 503.84 393.47 496.711 401.492 477.419C409.736 457.591 424.323 409.479 425.808 392.132C427.345 374.235 405.614 333.801 399.457 333.764Z" fill="#CC6D3D"/>
<path d="M429.915 488.802C429.915 488.802 426.246 566.879 427.078 571.342C427.91 575.805 506.986 599.382 506.986 599.382C506.986 599.382 576.89 591.919 584.651 591.295C592.412 590.664 594.017 533.425 587.6 512.083C581.183 490.733 429.915 488.802 429.915 488.802Z" fill="#1D2538"/>
<path d="M552.536 316.722C536.598 304.038 518.528 298.833 471.054 306.504C414.259 315.682 397.674 328.922 391.487 333.883C385.286 338.858 402.435 397.241 411.808 418.449C421.136 439.539 423.253 477.114 423.253 477.114C423.253 477.114 423.929 521.061 423.364 530.172C422.8 539.277 581.331 530.462 587.793 526.467C594.239 522.487 587.377 453.247 582.594 435.306C577.632 416.734 567.093 328.306 552.536 316.722Z" fill="#F7BC4B"/>
<path d="M508.241 394.694C508.241 394.694 495.259 414.15 479.446 438.351C472.836 448.465 501.297 490.221 501.297 490.221L531.629 532.318C565.675 530.655 586.032 528.108 588.669 526.482C595.116 522.501 586.604 454.524 583.084 434.823C578.68 410.147 577.179 340.009 553.702 314.962C539.777 300.102 516.946 295.929 469.472 303.6C412.677 312.778 397.667 328.922 391.48 333.89" fill="#CE9436"/>
<path d="M435.025 317.241C435.025 317.241 418.693 321.073 421.708 327.615C424.731 334.158 432.693 347.598 457.128 349.284C481.563 350.97 505.308 315.764 498.579 307.521C491.85 299.278 435.025 317.241 435.025 317.241Z" fill="#CC6D3D"/>
<path d="M433.77 314.241C415.373 335.851 449.107 401.459 462.409 397.085C473.572 393.417 495.177 331.38 487.111 310.194C485.566 306.14 480.635 301.513 476.632 301.149" stroke="#992C29" stroke-width="3" stroke-miterlimit="10"/>
<path d="M463.045 410.369C465.727 410.031 467.483 406.436 466.966 402.338C466.45 398.24 463.857 395.192 461.175 395.53C458.493 395.868 456.738 399.464 457.254 403.561C457.77 407.659 460.363 410.707 463.045 410.369Z" fill="#29ABE2"/>
<path d="M428.66 302.189C428.66 302.189 436.102 325.781 440.93 334.388C446.47 344.264 465.32 342.846 465.32 342.846C465.32 342.846 482.952 334.358 484.148 322.358L476.921 268.728L428.66 302.189Z" fill="#CC6D3D"/>
<path d="M138.009 603.511C138.009 603.511 77.7229 619.9 80.0773 652.804C82.4317 685.708 97.8949 711.469 229.466 734.059C433.005 769.012 683.29 690.082 685.295 634.002C685.778 620.442 690.034 605.352 657.34 596.397C489.399 550.386 215.993 597.511 138.009 603.511Z" fill="#F5894E"/>
<path d="M131.51 586.164C131.51 586.164 94.0327 606.511 83.1743 632.546C71.3801 660.817 90.9653 695.808 223.962 718.754C479.454 762.834 807.798 628.588 638.022 581.857C468.246 535.125 210.341 580.075 131.51 586.164Z" fill="#A96443"/>
<path d="M86.8285 625.551L249.311 693.929L410.204 719.868L417.668 713.318L421.196 690.402L511.984 685.114L606.301 637.522L627.453 611.085L668.882 594.34C668.882 594.34 654.488 583.765 620.108 578.478C587.793 573.51 88.9601 622.395 88.9601 622.395L86.8285 625.551Z" fill="#7A462F"/>
<path d="M631.278 667.485L638.327 675.713L637.74 662.785L606.011 658.671L631.278 667.485Z" fill="#7A462F"/>
<path d="M666.535 645.163L603.657 628.707L604.83 625.187L669.476 641.635L670.649 655.737L666.535 645.163Z" fill="#7A462F"/>
<path d="M634.806 644.576L606.598 639.875L623.049 645.163L646.556 651.037L634.806 644.576Z" fill="#7A462F"/>
<path d="M587.206 662.785L562.526 656.911L530.79 651.037L558.411 661.611L587.206 662.785Z" fill="#7A462F"/>
<path d="M671.823 629.88C671.823 629.88 653.017 624.006 645.969 622.239C638.921 620.479 630.692 622.239 630.692 622.239L671.823 629.88Z" fill="#7A462F"/>
<path d="M507.283 708.031L513.165 718.019L519.627 705.09L457.336 693.342L507.283 708.031Z" fill="#7A462F"/>
<path d="M529.03 698.629L499.061 691.582C499.061 691.575 497.88 698.629 529.03 698.629Z" fill="#7A462F"/>
<path d="M301.612 727.42L162.05 691.285L132.371 668.658L169.098 685.998L301.612 727.42Z" fill="#7A462F"/>
<path d="M376.834 725.652L241.676 698.629L323.946 721.538L376.834 725.652Z" fill="#7A462F"/>
<path d="M185.846 680.703L136.486 652.507L98.5856 639.281L136.486 657.794L185.846 680.703Z" fill="#7A462F"/>
<path d="M21.9381 596.723C21.9381 596.723 162.013 571.683 171.289 570.755C180.566 569.827 182.422 569.827 182.422 569.827L247.357 511.392C247.357 511.392 365.166 538.289 367.951 538.289C370.736 538.289 391.146 550.349 391.146 550.349L482.982 551.277L525.65 562.408C525.65 562.408 637.896 554.061 641.609 554.061C645.323 554.061 683.357 563.336 687.991 564.265L612.852 603.221L592.442 631.974L514.517 682.062L265.903 691.337L21.9381 596.723Z" fill="#BB83C3"/>
<path opacity="0.7" d="M245.315 682.99L241.379 626.36L213.171 582.295L246.667 511.496C246.667 511.496 365.166 538.289 367.951 538.289C370.736 538.289 391.146 550.349 391.146 550.349L482.982 551.277L525.65 562.408C525.65 562.408 637.896 554.062 641.609 554.062C645.323 554.062 617.531 568.735 622.173 569.663L587.793 596.983L567.517 625.187L383.295 685.114L405.153 607.788L320.529 684.164L265.903 691.322L245.315 682.99Z" fill="#856792"/>
<path d="M199.312 577.252L214.968 582.896L230.602 588.607L261.825 600.147L292.989 611.842L308.549 617.753L324.087 623.731L308.423 618.095L292.789 612.377L261.565 600.837L230.409 589.141L214.842 583.23L199.312 577.252Z" fill="#856792"/>
<path d="M389.163 558.175C386.355 563.143 383.481 568.074 380.599 572.997L371.865 587.716L362.982 602.352L358.489 609.637L353.929 616.885L358.177 609.451L362.492 602.063L371.226 587.344L380.109 572.715C383.102 567.844 386.095 562.987 389.163 558.175Z" fill="#856792"/>
<path d="M586.842 625.93L558.708 626.36L530.574 626.672L474.307 627.274L418.032 627.155L389.898 627.088L361.764 626.91L389.898 626.739L418.032 626.665L474.307 626.546L530.574 626.167L558.708 625.989L586.842 625.93Z" fill="#856792"/>
<path d="M246.043 571.141C239.715 575.359 227.765 584.307 227.765 584.307C227.765 584.307 201.25 595.84 197.403 607.751C193.645 619.402 198.034 624.296 205.914 630.823C220.234 642.682 237.658 640.12 246.496 638.219C255.616 636.259 263.898 630.823 276.375 620.553C283.854 614.39 261.855 610.877 261.328 605.508C274.073 594.154 290.041 585.867 285.184 582.391C280.326 578.916 248.977 569.181 246.043 571.141Z" stroke="#4B3355" stroke-miterlimit="10"/>
<path d="M241.009 589.649C246.377 586.304 249.741 582.007 248.521 580.051C247.302 578.095 241.962 579.22 236.594 582.565C231.226 585.91 227.863 590.207 229.082 592.164C230.301 594.12 235.641 592.994 241.009 589.649Z" stroke="#4B3355" stroke-miterlimit="10"/>
<path d="M248.977 570.896C248.977 570.896 254.606 563.069 260.719 561.109C266.839 559.148 290.442 562.943 294.356 568.817C298.27 574.691 284.812 581.656 284.812 581.656C284.812 581.656 271.51 576.614 264.262 574.319C257.109 572.574 248.977 570.896 248.977 570.896Z" stroke="#4B3355" stroke-miterlimit="10"/>
<path d="M265.368 601.469C265.368 601.469 287.389 609.54 297.661 592.661C307.94 575.782 288.853 577.988 288.853 577.988" stroke="#4B3355" stroke-miterlimit="10"/>
<path d="M274.177 594.867C274.177 594.867 280.779 613.216 293.992 605.144C307.205 597.072 288.853 579.458 288.853 579.458" stroke="#4B3355" stroke-miterlimit="10"/>
<path d="M478.949 651.371C478.949 651.371 463.538 662.376 429.774 662.376C396.011 662.376 380.198 656.784 389.408 642.564C397.481 630.088 402.621 621.281 409.959 613.944C417.297 606.607 429.039 610.276 433.443 602.204C437.847 594.132 439.318 586.06 469.405 586.06C499.5 586.06 492.889 591.934 489.22 600.733C485.551 609.533 511.242 606.607 502.433 621.281C495.11 633.504 478.949 651.371 478.949 651.371Z" stroke="#4B3355" stroke-miterlimit="10"/>
<path d="M427.754 618.927C430.539 618.86 431.126 622.113 428.92 626.59C426.462 631.581 421.463 636.266 417.972 636.534C414.407 636.801 414.363 632.331 417.586 627.125C420.468 622.469 424.924 618.994 427.754 618.927Z" stroke="#4B3355" stroke-miterlimit="10"/>
<path d="M472.034 621.615C474.819 621.548 475.406 624.801 473.2 629.279C470.742 634.269 465.743 638.955 462.253 639.222C458.688 639.489 458.643 635.019 461.866 629.813C464.756 625.165 469.204 621.682 472.034 621.615Z" stroke="#4B3355" stroke-miterlimit="10"/>
<path d="M478.949 644.034L514.183 643.299" stroke="#4B3355" stroke-width="0.5" stroke-miterlimit="10"/>
<path d="M498.772 578.723L510.024 580.921L522.746 578.961C522.746 578.961 534.734 581.894 538.403 581.894C540.059 581.894 550.145 579.933 550.145 579.933C550.145 579.933 565.415 580.579 567.026 580.178C569.96 579.443 579.504 576.51 582.438 576.51C585.371 576.51 592.717 577.245 594.915 577.245C597.113 577.245 599.319 576.51 599.319 576.51" stroke="#4B3355" stroke-miterlimit="10"/>
<path d="M591.246 586.06L583.908 584.589H578.769L566.291 586.795L553.086 587.53H540.608L536.204 588.258" stroke="#4B3355" stroke-miterlimit="10"/>
<path d="M545.74 601.469L507.454 601.187L512.274 595.884L550.211 595.625L545.74 601.469Z" fill="#4B3355"/>
<path d="M556.666 601.907L548.503 601.87L553.101 595.988L560.075 596.166L556.666 601.907Z" fill="#4B3355"/>
<path d="M502.196 673.121L463.909 672.839L470.192 667.314L508.13 667.054L502.196 673.121Z" fill="#4B3355"/>
<path d="M513.693 650.881L502.559 650.821L508.85 645.296L519.627 644.814L513.693 650.881Z" fill="#4B3355"/>
<path d="M527.886 650.881L516.753 650.821L523.036 645.296L533.82 644.814L527.886 650.881Z" fill="#4B3355"/>
<path d="M382.07 639.63L370.083 639.14L374.487 634.492L386.229 634.737L382.07 639.63Z" fill="#4B3355"/>
<path d="M144.507 626.419C141.306 625.023 138.142 623.531 135.008 621.986C133.448 621.199 131.896 620.39 130.366 619.536C128.851 618.652 127.314 617.82 125.947 616.602L125.962 616.617C125.212 616.023 124.365 615.518 123.489 615.073C122.612 614.635 121.691 614.241 120.778 613.907L120.763 613.899L120.748 613.892L116.522 611.887L112.311 609.845L112.341 609.86C108.694 608.493 105.055 607.112 101.438 605.671C99.6328 604.936 97.8206 604.209 96.0529 603.377C94.2927 602.53 92.5325 601.706 90.8614 600.666L90.8985 600.681C89.6062 600.317 88.3065 599.954 87.0142 599.567C88.3362 599.835 89.6433 600.124 90.9579 600.414H90.9728L91.0025 600.429C92.7033 601.327 94.4858 602.122 96.2683 602.894C98.0434 603.666 99.8482 604.387 101.668 605.085C105.285 606.503 108.931 607.87 112.578 609.214L112.593 609.221L112.608 609.228L116.841 611.226L121.052 613.261L121.023 613.246C121.981 613.61 122.894 614.018 123.801 614.486C124.692 614.961 125.583 615.474 126.363 616.164L126.378 616.179C127.596 617.323 129.141 618.214 130.619 619.112C132.119 619.996 133.649 620.835 135.194 621.652C138.254 623.308 141.38 624.867 144.507 626.419Z" fill="#1D2538"/>
<path d="M99.1872 592.416C99.6403 592.765 99.9522 593.263 100.383 593.627C100.799 594.013 101.282 594.31 101.816 594.496C102.344 594.681 102.901 594.793 103.458 594.837C103.74 594.859 104.022 594.859 104.304 594.874C104.587 594.889 104.913 594.904 105.181 595.112C105.315 595.208 105.419 595.372 105.456 595.528C105.5 595.676 105.522 595.81 105.56 595.936C105.641 596.181 105.812 596.374 106.02 596.538C106.451 596.857 106.963 597.124 107.461 597.384L108.984 598.156C109.503 598.409 109.986 598.721 110.499 598.921C112.586 599.79 114.725 600.592 116.849 601.402C118.966 602.218 121.097 603.035 123.229 603.808C123.763 604.001 124.298 604.194 124.825 604.365C125.108 604.454 125.323 604.535 125.576 604.558C125.828 604.587 126.073 604.565 126.378 604.55C126.682 604.528 127.076 604.58 127.388 604.743C127.692 604.907 127.937 605.115 128.153 605.323C128.376 605.545 128.591 605.805 128.732 606.102C128.881 606.392 128.962 606.704 129.059 606.875C129.207 607.209 129.742 607.35 130.27 607.454C130.886 607.565 131.443 607.825 131.955 608.07C132.995 608.59 133.976 609.177 134.949 609.785C136.887 610.988 138.774 612.303 140.66 613.521L146.899 616.149L146.914 616.157L146.921 616.164L149.283 617.59C149.677 617.843 150.063 618.058 150.493 618.229C150.917 618.407 151.348 618.57 151.778 618.719C151.333 618.607 150.887 618.489 150.449 618.34C150.011 618.199 149.58 617.999 149.179 617.776L146.728 616.499L146.75 616.506L143.557 615.31L141.96 614.716L141.158 614.427L140.764 614.278L140.667 614.248C140.623 614.234 140.549 614.196 140.526 614.182L140.326 614.063C138.38 612.83 136.523 611.545 134.585 610.365C133.619 609.778 132.646 609.199 131.644 608.709C131.139 608.471 130.641 608.241 130.136 608.159C129.846 608.107 129.542 608.04 129.237 607.922C128.94 607.81 128.584 607.573 128.413 607.231C128.235 606.904 128.183 606.652 128.064 606.436C127.952 606.221 127.804 606.035 127.626 605.85C127.44 605.664 127.239 605.501 127.046 605.397C126.846 605.293 126.667 605.263 126.4 605.278C126.14 605.285 125.813 605.315 125.494 605.278C125.175 605.248 124.855 605.129 124.595 605.04C124.046 604.855 123.511 604.662 122.976 604.461C118.706 602.857 114.48 601.179 110.313 599.315C109.771 599.077 109.295 598.758 108.798 598.505C108.3 598.238 107.788 597.978 107.29 597.696C106.793 597.406 106.295 597.139 105.827 596.768C105.597 596.575 105.389 596.322 105.292 596.018C105.203 595.713 105.211 595.446 105.017 595.305C104.832 595.149 104.557 595.112 104.282 595.09C104 595.067 103.718 595.06 103.428 595.03C102.856 594.971 102.292 594.837 101.75 594.629C101.207 594.421 100.717 594.087 100.316 593.686C99.9076 593.292 99.6254 592.78 99.1872 592.416Z" fill="#1D2538"/>
<path d="M161.515 610.647C160.72 610.513 159.933 610.305 159.168 610.038C158.403 609.763 157.646 609.444 156.947 609.006C156.264 608.545 155.611 608.137 154.883 607.818C154.17 607.498 153.397 607.238 152.655 607.097L152.707 607.105C152.023 607.105 151.362 607.038 150.679 606.8C150.508 606.734 150.337 606.659 150.174 606.548C150.018 606.444 149.899 606.34 149.765 606.229C149.506 606.006 149.268 605.761 149.045 605.545C148.607 605.115 148.087 604.78 147.537 604.469C146.995 604.164 146.401 603.852 145.874 603.704C145.799 603.689 145.777 603.689 145.718 603.681H145.473L144.968 603.659C144.633 603.637 144.299 603.6 143.965 603.54C143.304 603.429 142.643 603.228 142.034 602.976C140.816 602.486 139.635 601.951 138.454 601.402L138.38 601.365L138.335 601.305L136.731 599.07L136.835 599.152L125.895 594.444L120.436 592.067C118.616 591.273 116.774 590.53 115.036 589.557C116.804 590.471 118.668 591.147 120.503 591.911L126.021 594.154L137.035 598.684L137.095 598.706L137.139 598.766L138.84 600.926L138.721 600.83C139.902 601.357 141.091 601.877 142.286 602.337C142.881 602.568 143.467 602.738 144.091 602.835C144.396 602.887 144.708 602.917 145.02 602.931L145.488 602.946H145.725C145.829 602.946 145.963 602.969 146.052 602.991C146.772 603.199 147.322 603.526 147.909 603.86C148.473 604.194 149.053 604.58 149.535 605.063C149.78 605.3 149.988 605.531 150.219 605.731C150.33 605.828 150.456 605.932 150.568 606.013C150.664 606.087 150.798 606.147 150.924 606.199C151.466 606.407 152.112 606.474 152.721 606.503H152.766H152.773C153.605 606.704 154.363 607.001 155.106 607.372C155.841 607.729 156.539 608.219 157.17 608.687C158.455 609.585 159.963 610.201 161.515 610.647Z" fill="#1D2538"/>
<path d="M192.709 586.795L205.914 592.661" stroke="#4B3355" stroke-width="0.5" stroke-miterlimit="10"/>
<path d="M234.538 555.97L257.295 565.512" stroke="#4B3355" stroke-width="0.5" stroke-miterlimit="10"/>
<path d="M252.891 644.769L285.919 622.016" stroke="#4B3355" stroke-width="0.5" stroke-miterlimit="10"/>
<path d="M268.057 648.928L259.984 645.014L264.685 641.91L272.461 645.259L268.057 648.928Z" fill="#4B3355"/>
<path d="M154.541 637.432L146.468 633.519L151.169 630.415L158.945 633.764L154.541 637.432Z" fill="#4B3355"/>
<path d="M181.45 649.663L156.985 638.65L161.686 635.553L185.854 645.994L181.45 649.663Z" fill="#4B3355"/>
<path d="M193.192 595.357L185.119 591.443L189.82 588.339L197.596 591.688L193.192 595.357Z" fill="#4B3355"/>
<path d="M361.029 569.181L332.702 559.378L336.445 555.168L364.341 564.502L361.029 569.181Z" fill="#4B3355"/>
<path d="M243.592 557.685L235.519 553.772L240.22 549.933L247.996 553.282L243.592 557.685Z" fill="#4B3355"/>
<path d="M279.071 645.259L266.594 639.63L271.295 636.534L283.475 641.591L279.071 645.259Z" fill="#4B3355"/>
<path d="M425.021 588.696H410.248L231.59 707.147V709.984L420.906 723.595L438.404 587.768L425.021 588.696ZM399.167 687.008L317.454 683.317L411.882 598.758L423.327 596.887L399.167 687.008Z" fill="#273252"/>
<path d="M428.222 582.391H412.566L231.523 707.147L421.374 719.868L442.415 581.411L428.222 582.391ZM400.816 686.599L314.209 682.686L412.558 596.092L424.687 594.109L400.816 686.599Z" fill="#29ABE2"/>
<path d="M295.983 663.111H319.838" stroke="#1689CB" stroke-miterlimit="10"/>
<path d="M311.394 652.106H331.336" stroke="#1689CB" stroke-miterlimit="10"/>
<path d="M324.607 643.299H340.389" stroke="#1689CB" stroke-miterlimit="10"/>
<path d="M337.819 634.128H353.602" stroke="#1689CB" stroke-miterlimit="10"/>
<path d="M351.396 624.585H367.179" stroke="#1689CB" stroke-miterlimit="10"/>
<path d="M364.973 615.415H378.557" stroke="#1689CB" stroke-miterlimit="10"/>
<path d="M378.557 606.243H388.829" stroke="#1689CB" stroke-miterlimit="10"/>
<path d="M286.075 698.095L271.154 709.835" stroke="#1689CB" stroke-miterlimit="10"/>
<path d="M306.136 698.83L291.215 710.57" stroke="#1689CB" stroke-miterlimit="10"/>
<path d="M323.998 700.055L309.069 711.796" stroke="#1689CB" stroke-miterlimit="10"/>
<path d="M341.86 701.028L329.865 712.768" stroke="#1689CB" stroke-miterlimit="10"/>
<path d="M360.205 702.498L348.953 714.239" stroke="#1689CB" stroke-miterlimit="10"/>
<path d="M381.001 703.969L370.484 715.709" stroke="#1689CB" stroke-miterlimit="10"/>
<path d="M353.06 574.371C353.06 574.371 347.044 584.151 338.421 589.884C325.26 598.632 303.016 591.644 316.778 563.411C324.696 547.17 346.472 502.243 351.983 488.402C357.256 475.161 362.217 471.864 373.083 474.5C384.001 477.144 395.929 486.679 393.634 502.288C391.25 518.529 353.06 574.371 353.06 574.371Z" fill="#F5894E"/>
<path d="M353.06 574.371C353.06 574.371 347.044 584.151 338.421 589.884C325.26 598.632 349.896 561.324 353.074 548.054C360.271 518.031 369.978 477.121 377.027 478.295C384.075 479.468 395.921 486.671 393.626 502.288C391.25 518.528 353.06 574.371 353.06 574.371Z" fill="#CC6D3D"/>
<path d="M333.764 578.181C337.344 578.181 343.553 592.461 339.253 606.088C334.952 619.722 325.223 618.147 317.588 619.232C309.945 620.316 300.038 617.605 300.038 617.605C300.038 617.605 291.757 615.719 285.31 611.821C280.854 609.125 282.851 605.345 281.982 600.125C281.44 596.872 282.413 590.724 283.936 588.006C288.102 580.602 330.177 578.181 333.764 578.181Z" fill="#F5894E"/>
<path d="M295.663 604.632C295.663 604.632 297.995 595.513 299.659 593.672C301.323 591.83 317.996 594.941 320.098 595.172C322.2 595.402 321.532 610.239 319.883 615.192C318.227 620.145 298.367 611.85 295.663 604.632Z" fill="#CC6D3D"/>
<path d="M288.013 619.172C288.013 619.172 287.575 624.407 290.197 626.479C292.819 628.551 298.523 630.794 298.523 630.794C298.523 630.794 305.994 631.106 306.165 629.026C306.329 627.081 304.955 625.172 302.882 624.541C298.753 623.279 288.013 619.172 288.013 619.172Z" fill="#F5894E"/>
<path d="M287.917 616.194C287.917 616.194 287.479 621.43 290.1 623.501C292.722 625.573 298.426 627.816 298.426 627.816C298.426 627.816 305.898 628.128 306.069 626.049C306.232 624.103 304.858 622.195 302.786 621.563C298.656 620.301 287.917 616.194 287.917 616.194Z" fill="#CC6D3D"/>
<path d="M286.335 612.674C286.335 612.674 284.315 617.523 287.04 620.278C289.766 623.026 296.324 626.873 296.324 626.873C296.324 626.873 305.653 629.405 306.447 627.482C307.197 625.677 306.002 623.449 303.573 622.231C298.716 619.788 286.335 612.674 286.335 612.674Z" fill="#F5894E"/>
<path d="M287.033 611.375C287.033 611.375 285.206 612.845 287.932 615.6C290.657 618.348 293.532 621.823 296.064 623.813C298.597 625.811 301.932 628.076 302.734 626.153C303.484 624.348 304.182 623.138 301.753 621.92C296.896 619.484 287.033 611.375 287.033 611.375Z" fill="#CC6D3D"/>
<path d="M311.342 516.509L302.793 634.403C302.793 634.403 310.168 638.212 314.855 634.67L324.473 517.972C324.473 517.972 319.133 512.959 311.342 516.509Z" fill="#3E4C6F"/>
<path d="M314.855 634.67L324.473 517.972C324.473 517.972 321.814 515.477 317.514 515.254C316.697 515.209 308.809 632.821 308.809 632.821C308.809 632.821 311.312 636.2 314.855 634.67Z" fill="#273252"/>
<path d="M314.855 634.67L309.025 648.586L302.793 634.403L305.794 634.9L308.824 632.754L311.698 634.729L314.855 634.67Z" fill="#F5894E"/>
<path d="M307.517 645.438H310.354L309.247 649.069L308.98 649.054L307.517 645.438Z" fill="#1D2538"/>
<path d="M285.102 597.867C280.43 594.793 279.754 600.889 280.356 605.122C280.66 607.261 285.815 614.679 292.172 619.15C294.668 620.91 296.153 622.64 299.562 625.187C303.699 628.284 306.492 619.818 302.578 614.895C296.525 607.276 289.774 600.941 285.102 597.867Z" fill="#F5894E"/>
<path d="M295.359 588.496C292.744 587.337 289.269 583.476 285.34 592.194C281.411 600.912 288.444 601.194 292.091 604.781C297.089 609.689 302.281 620.093 306.262 616.306C310.235 612.518 308.512 604.944 306.21 601.298C302.244 595.001 297.015 589.231 295.359 588.496Z" fill="#F5894E"/>
<path d="M284.879 598.008C284.879 598.008 289.566 603.058 294.534 607.29C297.134 609.875 303.454 617.219 303.454 617.219C303.454 617.219 295.166 609.726 293.851 608.048C291.333 605.679 288.102 602.412 284.879 598.008Z" fill="#CC6D3D"/>
<path d="M337.79 608.449C337.79 608.449 330.266 616.291 324.718 616.721C320.685 617.033 324.436 621.318 316.66 624.051C308.883 626.783 307.145 622.402 307.517 619.796C307.888 617.189 312.738 610.736 319.727 602.256C325.973 594.666 346.762 597.317 337.79 608.449Z" fill="#CC6D3D"/>
<path d="M338.48 608.434C338.48 608.434 330.957 616.276 325.409 616.707C321.376 617.018 325.127 621.303 317.35 624.036C309.574 626.769 307.836 622.387 308.208 619.781C308.579 617.174 315.152 608.36 321.272 600.667C327.392 592.966 347.452 597.303 338.48 608.434Z" fill="#F5894E"/>
<path d="M534.281 473.943C512.46 468.99 509.311 452.846 512.965 428.155C516.723 402.803 513.515 388.716 511.777 370.827C510.002 352.589 500.992 311.828 526.408 306.503C551.846 301.179 564.457 337.418 564.643 365.703C564.821 393.171 564.858 393.201 564.167 420.038C563.506 446.126 555.893 478.844 534.281 473.943Z" fill="#CC6D3D"/>
<path d="M511.546 443.408C513.344 420.677 513.522 388.716 511.777 370.827C510.002 352.589 500.992 311.828 526.408 306.504C546.446 302.308 543.223 310.165 543.126 333.749C543.097 340.098 552.432 361.827 552.529 367.827C552.952 395.295 545.176 396.966 544.768 423.744C544.382 449.779 509.444 470.074 511.546 443.408Z" fill="#F5894E"/>
<path d="M469.695 578.515C454.826 578.738 449.604 568.772 455.219 551.18C461.25 532.289 481.095 495.523 496.506 473.75C509.11 455.943 527.819 430.717 545.228 442.517C561.857 453.789 557.223 474.924 537.385 502.711C519.293 528.071 484.475 578.285 469.695 578.515Z" fill="#CC6D3D"/>
<path d="M463.924 556.274C460.403 557.723 449.612 568.765 455.227 551.18C461.257 532.289 481.103 495.523 496.514 473.75C509.118 455.943 523.051 431.229 540.787 443.044C557.735 454.331 529.884 481.533 511.413 508.853C494.546 533.796 467.459 554.819 463.924 556.274Z" fill="#F5894E"/>
<path d="M462.914 555.198C454.722 551.099 440.736 564.361 431.104 566.084C423.023 567.532 416.309 571.861 413.353 575.129C410.397 578.396 406.379 584.842 402.093 586.349C398.083 587.76 394.525 596.382 402.309 598.023C410.092 599.657 413.858 596.389 420.446 590.664C427.033 584.939 430.316 586.498 430.316 586.498C430.316 586.498 432.396 592.803 432.522 597.243C432.656 601.684 434.126 606.971 433.243 624.89C432.923 631.306 439.919 632.249 442.883 628.974C445.839 625.707 447.495 616.959 447.495 616.959C447.495 616.959 448.178 623.227 448.379 625.187C448.572 627.148 448.037 633.512 454.499 633.608C461.651 633.801 462.825 613.046 462.825 613.046L464.199 618.14C464.199 618.14 466.196 627.831 468.313 629.108C470.43 630.385 471.239 630.103 472.918 629.695C476.275 628.878 476.067 618.355 476.067 618.355C475.614 625.811 483.271 630.43 485.611 609.362C485.915 606.645 484.824 599.553 484.289 597.919C483.754 596.285 485.395 576.659 482.595 569.3C479.795 561.94 471.106 559.289 462.914 555.198Z" fill="#F5894E"/>
<path d="M485.603 609.355C486.814 606.904 484.816 599.545 484.281 597.912C483.747 596.278 485.388 576.651 482.588 569.292C479.788 561.933 477.107 564.465 468.915 560.374C460.723 556.274 469.984 586.572 469.984 586.572L485.603 609.355Z" fill="#CC6D3D"/>
<path d="M446.79 619.982C446.79 619.982 448.765 610.721 448.854 603.815C448.936 596.917 446.76 595.803 446.76 595.803C446.76 595.803 446.96 612.429 446.79 619.982Z" fill="#CC6D3D"/>
<path d="M461.005 626.524C461.005 626.524 461.763 607.677 461.451 603.154C461.139 598.625 461.451 596.983 461.451 596.983C461.451 596.983 465.119 605.939 461.005 626.524Z" fill="#CC6D3D"/>
<path d="M476.297 617.62C476.297 617.62 479.966 605.761 476.572 600.585L476.052 618.348" fill="#CC6D3D"/>
<path d="M480.657 260.893C472.071 300.563 463.211 286.758 463.211 286.758C411.318 301.729 382.337 288.005 379.225 250.705C374.71 212.261 381.847 200.714 419.443 193.184C471.797 182.691 488.307 225.561 480.657 260.893Z" fill="#3E4C6F"/>
<path d="M489.072 248.759C488.292 277.55 475.362 280.683 475.362 280.683C465.142 276.644 410.13 247.148 400.972 225.115C393.07 206.112 395.075 190.956 431.364 187.666C450.236 185.958 468.298 191.951 477.322 200.974C484.957 208.615 488.129 234.19 489.072 248.759Z" fill="#1D2538"/>
<path d="M413.902 223.89C413.902 223.89 388.301 231.984 384.469 237.695C380.637 243.405 385.709 291.763 397.221 307.172C408.57 322.365 462.654 309.956 473.356 295.788C482.128 284.181 477.835 273.369 477.367 256.623C476.877 238.987 464.897 240.955 462.468 234.487C458.294 223.392 413.902 223.89 413.902 223.89Z" fill="#CC6D3D"/>
<path d="M387.105 245.21C383.206 252.116 384.046 285.206 397.058 304.87C405.636 317.754 471.247 309.132 466.739 286.758C464.384 275.062 460.544 253.163 444.799 240.65C425.526 225.338 389.237 241.437 387.105 245.21Z" fill="#F5894E"/>
<path d="M482.967 247.816C484.036 257.121 480.85 265.475 475.852 266.522C470.824 267.569 465.84 260.849 464.733 251.485C463.627 242.083 466.843 233.648 471.908 232.667C476.951 231.68 481.897 238.482 482.967 247.816Z" fill="#CC6D3D"/>
<path d="M453.808 216.241C453.808 216.241 455.175 242.061 459.49 249.071L468.217 259.081L464.763 222.679L453.808 216.241Z" fill="#1D2538"/>
<path d="M444.821 210.39C444.821 210.39 437.78 221.959 407.619 228.561C392.646 231.843 381 239.856 373.417 239.967C354.79 240.242 378.074 201.345 408.622 193.622C439.504 185.81 444.821 210.39 444.821 210.39Z" fill="#1D2538"/>
<path d="M408.718 193.213C384.432 200.394 363.294 227.811 378.297 227.573C382.553 227.506 389.304 227.194 397.377 226.385C410.85 221.395 423.87 211.466 423.87 211.466C424.3 218.135 417.103 222.353 408.904 224.982C416.101 223.949 423.825 222.538 431.542 220.6C444.22 217.415 445.698 217.778 445.72 213.501C445.772 204.798 434.958 185.453 408.718 193.213Z" fill="#3E4C6F"/>
<path d="M398.981 269.708C400.363 273.213 399.264 275.344 397.459 275.983C395.654 276.622 393.819 275.522 392.431 272.01C391.042 268.498 391.383 265.126 393.196 264.495C395.008 263.864 397.6 266.203 398.981 269.708Z" fill="#34283A"/>
<path d="M428.742 261.844C430.22 265.282 429.217 267.443 427.479 268.133C425.734 268.832 423.899 267.799 422.414 264.354C420.928 260.901 421.144 257.544 422.897 256.854C424.642 256.163 427.256 258.398 428.742 261.844Z" fill="#34283A"/>
<path d="M425.355 249.643C425.355 249.643 421.389 247.787 418.024 250.022" stroke="#34283A" stroke-miterlimit="10" stroke-linecap="round" stroke-linejoin="round"/>
<path d="M394.213 256.215C390.329 256.876 387.885 259.824 387.885 259.824" stroke="#34283A" stroke-miterlimit="10" stroke-linecap="round" stroke-linejoin="round"/>
</svg>
