<svg width="947" height="1080" viewBox="0 0 947 1080" fill="none" xmlns="http://www.w3.org/2000/svg">
<path d="M713 932C713 932 695 963 667 944C639 925 662 845 711 869C711 869 682 824 701 774C720 724 738 740 738 740C738 740 715 715 750 639C785 563 814 532 849 544C884 556 899 680 858 743C858 743 873 724 879 743C885 762 905 834 816 888C727 942 713 932 713 932Z" fill="#F3E7D9"/>
<path d="M508 996C520.49 992.39 495 874 428 870C361 866 356 898 364 919C364 919 272 809 216 793C160 777 185 807 185 807C185 807 117 790 103 812C89.0002 834 137 907 226 942C315 977 463 1009 508 996Z" fill="#F3E7D9"/>
<path d="M625 762C625 762 598 669 609 634C609 634 582 634 604 577C626 520 636 513 651 521C666 529 673 567 652 604C652 604 658 581 680 588C702 595 656 736 641 758C626 780 625 762 625 762Z" fill="#F3E7D9"/>
<path d="M508 670C508 670 531.62 668.11 537 656L539 655C539 655 544 663 531 670C518 677 504 682 508 670Z" fill="#F3E7D9"/>
<path d="M534 644C534 644 545 656 529 665C513 674 489 680 481 660C473 640 495 623 513 627C531 631 534 644 534 644Z" fill="#992C29"/>
<path d="M380 718C379 721 365 738 379 749C393 760 446.09 707.21 421 698.6C395.91 689.99 381 715 380 718Z" fill="#992C29"/>
<path d="M422 713C422 713 422 728 405 738C388 748 383 748 378 746C373 744 374 749 376 751C378 753 382 756 396 750C410 744 425 730 427 722C429 714 428 708 422 713Z" fill="#F3E7D9"/>
<path d="M593.77 845.63C593.339 846.361 593.13 847.202 593.17 848.05C593.32 850.79 594.95 855.48 599.17 859.58C603.72 863.97 609.27 872.87 610.56 874.99C610.767 875.318 611.012 875.62 611.29 875.89C612.54 877.06 615.58 884.4 622.75 883.08C633.96 881 631.35 870.95 625.3 862.08C619.25 853.21 614.73 841.88 606.06 839.68C599.15 837.89 595.11 843.38 593.77 845.63Z" fill="#C94039"/>
<path d="M594 842C593.57 842.73 594.13 846.2 594.17 847C594.32 849.74 595.95 854.43 600.17 858.53C604.805 863.023 608.667 868.25 611.6 874C614 879 620.79 883.09 627 882C633.21 880.91 632.39 870 626.34 861C620.29 852 615.77 840.8 607.1 838.6C600.15 836.89 595.33 839.75 594 842Z" fill="#121721"/>
<path d="M560 753C560 753 572 780 577 792C582 804 587 825 588 833C589 841 589 844 594 844C599 844 611 851 616 845C621 839 614 819 614 819C614 819 616 746 599 729C577.41 707.41 560 741 560 753Z" fill="#273252"/>
<path d="M596 777L600 822C598.546 823.917 597.21 825.921 596 828C595 830 602 833 602 833C602 833 589 844 594 844C599 844 611 851 616 845C621 839 614 819 614 819C614 819 616 746 599 729C577.41 707.41 596 765 596 777Z" fill="#1D2538"/>
<path d="M546.64 896.5C546.64 896.5 541.54 905.02 547.5 916.09C553.46 927.16 556.01 943.34 564.5 951.01C572.99 958.68 582.38 960.38 590.05 954.42C597.72 948.46 590.9 928.01 585.79 919.5C580.68 910.99 579.11 902.02 574.79 894.15C570.47 886.28 556.86 884.58 546.64 896.5Z" fill="#121721"/>
<path d="M497 658C502 658 559 696 575 709C591 722 603 728 603 738C603 748 599 755 592 759C585 763 579 765 561 755C543 745 514 727 491 717C468 707 467 689 476 673C485 657 497 658 497 658Z" fill="#273252"/>
<path d="M575 709C591 722 603 728 603 738C603 748 600 756 593 760L586 749L591 739L548 690C548 690 559 696 575 709Z" fill="#273252"/>
<path d="M478 798C478.75 801.93 481 813 488 819C495 825 505 841 512 858C516.722 869.024 522.767 879.434 530 889C530 889 533 902 541 906C549 910 566 904 566 904C566 904 575 901 575 894C575 887 566 869 566 869C566 869 523 766 517 764C511 762 474 777 478 798Z" fill="#273252"/>
<path d="M495 816C495.75 819.93 524 877 531 883C538 889 540 892 545 892C550 892 554 892 547 894C540 896 533 902 541 906C549 910 566 904 566 904C566 904 575 901 575 894C575 887 566 869 566 869C566 869 523 766 517 764C511 762 491 795 495 816Z" fill="#1D2538"/>
<path d="M407 691C407 691 409 708 429 736C429.76 737.06 438.5 745.12 439.23 746.19C457.84 773.39 476 807 487 813C505.85 823.28 527 821 529 799C531 777 514 755 496 720C478 685 461 653 433 666C405 679 407 691 407 691Z" fill="#273252"/>
<path d="M504 767L476 772L487 813C487 813 525 835 529 799C531.44 777 514 755 496 720C478 685 504 767 504 767Z" fill="#1D2538"/>
<path d="M415.77 711C418 709 448 713 454 712C460 711 485 696 485 696L493 678C493 678 495 687 495 686C495 685 503 661 503 661C503 661 496 656 491 656C485 656 415.77 711 415.77 711Z" fill="#1D2538"/>
<path d="M365 581C361.3 577.3 301.85 488.69 293.08 475.61C292.783 475.164 292.333 474.843 291.816 474.706C291.298 474.57 290.748 474.628 290.27 474.87C289.988 475.01 289.739 475.21 289.541 475.455C289.342 475.7 289.199 475.985 289.12 476.29C289.041 476.596 289.029 476.914 289.084 477.225C289.14 477.535 289.261 477.83 289.44 478.09L363 585L365 581Z" fill="#D77D5B"/>
<path d="M295.46 478.84C295.46 478.84 251 472 237 462C223 452 219 455 226 475C233 495 245 526 245 526C245 526 290 529 307 529C324 529 328.21 526.93 328.21 526.93L295.46 478.84Z" fill="#FFACFF"/>
<path d="M258.04 497.4L286.84 501.43L288.85 504.18L259.18 500.46L258.04 497.4Z" fill="#3E4C6F"/>
<path d="M254.62 490.2L294.83 495.89L296.83 498.64L255.76 493.26L254.62 490.2Z" fill="#3E4C6F"/>
<path d="M251.2 484L291.41 489.7L293.41 492.44L252.34 487.07L251.2 484Z" fill="#3E4C6F"/>
<path d="M303.55 509.13C301.48 508.54 296.2 507.3 294.55 510.98C292.55 515.56 298.46 518.76 300.46 518.76L298.46 520.76C298.46 520.76 302.29 520.57 304.46 518.76C307.51 516.25 308.16 510.45 303.55 509.13Z" fill="#3E4C6F"/>
<path d="M229 497C230 498 245 526 245 526C245 526 265 516 263 508C261 500 229 497 229 497Z" fill="#665070"/>
<path d="M263 508C263 508 252.51 502.47 236.25 500.74C219.99 499.01 187 504 180 507C180 507 151 436 144 430C144 430 170 423 196 428C222 433 232 448 236 457C240 466 264 499 263 508Z" fill="#BB83C3"/>
<path d="M207.54 457.56C207.47 460.16 204.47 461.24 200.88 459.96C197.29 458.68 194.51 455.61 194.61 453.06C194.71 450.51 197.61 449.45 201.18 450.66C204.75 451.87 207.61 455 207.54 457.56Z" fill="#F3E7D9"/>
<path d="M194.36 481.07L197.48 463.5L212.96 475.15L216.9 447.81L240.65 482.76L194.36 481.07Z" fill="#F3E7D9"/>
<path d="M429.45 534.1C431.66 512.04 384.22 513.91 360.56 520.3C345.92 524.3 331.83 537.17 329.56 544.88C328.78 547.52 325.98 562.3 326.97 569.56C328.04 577.49 342.97 608.94 355.59 603.13C372.9 595.18 427.23 556.17 429.45 534.1Z" fill="#C94039"/>
<path d="M414.83 544.64C415.13 529.25 390.56 516.7 368.88 520.15C343.63 524.15 330.54 540.76 332.24 549.15C333.94 557.54 354.63 563.45 372.24 563.44C389.85 563.43 414.69 551.5 414.83 544.64Z" fill="#F3E7D9"/>
<path d="M366.91 557.08C345.55 551.39 337.62 555.38 337.48 544.18C337.29 529.18 376.42 524.86 385.48 523.63C394.54 522.4 419.8 540.19 417.09 558C414.38 575.81 388.27 562.77 366.91 557.08Z" fill="#273252"/>
<path d="M464.8 384.61C464.8 384.61 450.75 360 450.75 359C450.75 358 453 344.75 453 338C453 334 459 321 465 322C471 323 469 324 465 342C463.82 347.33 472.14 332.21 476 338C479.86 343.79 486 341 490 344C494 347 495.86 364.14 492 368C488.14 371.86 485.48 383.14 480.65 386C475.82 388.86 464.8 384.61 464.8 384.61Z" fill="#F5894E"/>
<path d="M463 347C466.689 346.321 470.303 345.282 473.79 343.9C478 342 484 348 477 353C470 358 466 358 466 358C466 358 451 362 463 347Z" fill="#F5894E"/>
<path d="M586 225C586 225 570.9 273 582.45 307C594 341 659 285 630 252C601 219 586 225 586 225Z" fill="#665070"/>
<path d="M604 193C606 195 629 230 673 223C717 216 737 197 763 198C763 198 747 245 763 294C763 294 737 294 688 307C639 320 613 329 590 316C567 303 598 297 613 286C628 275 628.53 265.69 617.26 246.85C605.99 228.01 604 193 604 193Z" fill="#856792"/>
<path d="M634.27 297.35C648.033 297.35 659.19 286.193 659.19 272.43C659.19 258.667 648.033 247.51 634.27 247.51C620.507 247.51 609.35 258.667 609.35 272.43C609.35 286.193 620.507 297.35 634.27 297.35Z" fill="#F7BC4B"/>
<path d="M644.94 268.55C646.697 268.55 648.12 267.126 648.12 265.37C648.12 263.614 646.697 262.19 644.94 262.19C643.184 262.19 641.76 263.614 641.76 265.37C641.76 267.126 643.184 268.55 644.94 268.55Z" fill="#121721"/>
<path d="M623.55 268.55C625.306 268.55 626.73 267.126 626.73 265.37C626.73 263.614 625.306 262.19 623.55 262.19C621.794 262.19 620.37 263.614 620.37 265.37C620.37 267.126 621.794 268.55 623.55 268.55Z" fill="#121721"/>
<path d="M634.81 285.45C638.323 285.45 641.17 282.365 641.17 278.56C641.17 274.755 638.323 271.67 634.81 271.67C631.298 271.67 628.45 274.755 628.45 278.56C628.45 282.365 631.298 285.45 634.81 285.45Z" fill="#121721"/>
<path d="M626.56 257.7C625.31 256.28 621.64 256.08 619.78 258.94" stroke="#121721" stroke-linecap="round" stroke-linejoin="round"/>
<path d="M641.7 257.7C642.94 256.28 646.62 256.08 648.47 258.94" stroke="#121721" stroke-linecap="round" stroke-linejoin="round"/>
<path d="M532 451L322.48 127.37C322.057 126.718 321.783 125.98 321.679 125.209C321.575 124.439 321.643 123.654 321.878 122.913C322.113 122.172 322.51 121.492 323.039 120.923C323.569 120.353 324.218 119.908 324.94 119.62C326.081 119.163 327.345 119.12 328.514 119.498C329.683 119.876 330.683 120.652 331.34 121.69L538 447L532 451Z" fill="#7A462F"/>
<path d="M331 140L340 135C341.512 134.722 343.037 134.525 344.57 134.41C354.22 134.02 365.5 134.5 372 138C385 145 379 155 416 165C453 175 463 175 476 168C489 161 501 137 553 151C605 165 614 181 614 181C614 181 607 232 623 258C623 258 614 240 576 242C538 244 523 253 491 263C469.46 269.73 440.95 270.47 426 270C418.74 269.77 416 275 416 275L331 140Z" fill="#BB83C3"/>
<path d="M581.66 242.1C581.66 242.1 613.66 241.73 623 258C632.34 274.27 613.84 286.41 607 289.84C600.16 293.27 583.79 298.84 581.68 308.03C581.68 308.03 573.77 296.69 581.68 242.1" fill="#665070"/>
<path d="M722.335 270.184C728.138 257.443 723.546 242.879 712.076 237.655C700.607 232.431 686.605 238.524 680.801 251.265C674.997 264.006 679.59 278.569 691.059 283.794C702.529 289.018 716.531 282.925 722.335 270.184Z" fill="#C94039"/>
<path d="M691.578 267.073C693.194 266.706 694.27 265.382 693.982 264.116C693.694 262.851 692.151 262.123 690.535 262.491C688.92 262.858 687.843 264.182 688.131 265.448C688.419 266.713 689.962 267.441 691.578 267.073Z" fill="#121721"/>
<path d="M696.15 264.04L686.57 260.62" stroke="#121721" stroke-width="2" stroke-linecap="round" stroke-linejoin="round"/>
<path d="M712.061 265.34C713.676 264.973 714.753 263.649 714.465 262.383C714.177 261.118 712.634 260.39 711.018 260.757C709.402 261.125 708.326 262.449 708.614 263.715C708.902 264.98 710.445 265.708 712.061 265.34Z" fill="#121721"/>
<path d="M706.46 263.16L716.04 258.12" stroke="#121721" stroke-width="2" stroke-linecap="round" stroke-linejoin="round"/>
<path d="M709.24 273.45C709.6 271.3 706.44 270.63 702.31 271.1C698.18 271.57 695.62 273.19 695.38 274.98C695.14 276.77 708.88 275.59 709.24 273.45Z" fill="#121721"/>
<path d="M500.27 213.82C505.43 228.34 501.64 242.11 489.63 245.15C474.3 249 451.83 234.64 443.76 212C435.69 189.36 448.34 176.1 466.82 181.09C481.29 185 495.1 199.31 500.27 213.82Z" fill="#F7BC4B"/>
<path d="M476.42 223.24C480.54 217.55 487.64 222.69 487.64 222.69" stroke="#121721" stroke-width="3" stroke-linecap="round" stroke-linejoin="round"/>
<path d="M489.19 206.93C489.9 208.93 489.24 210.5 487.66 210.41C486.08 210.32 484.08 208.51 483.32 206.41C482.56 204.31 483.32 202.75 485 202.95C486.68 203.15 488.47 204.92 489.19 206.93Z" fill="#121721"/>
<path d="M466.68 204.87C467.54 207.29 466.43 209.14 464.14 209.01C461.85 208.88 459.04 206.66 458.14 204.08C457.24 201.5 458.51 199.67 460.94 199.97C462.232 200.239 463.435 200.828 464.438 201.685C465.441 202.541 466.212 203.637 466.68 204.87Z" fill="#121721"/>
<path d="M552.32 224.16C567.723 224.16 580.21 211.673 580.21 196.27C580.21 180.867 567.723 168.38 552.32 168.38C536.917 168.38 524.43 180.867 524.43 196.27C524.43 211.673 536.917 224.16 552.32 224.16Z" fill="#F7BC4B"/>
<g style="mix-blend-mode:multiply">
<path d="M537.16 181.18L545.6 185.78L532.94 188.84" stroke="#121721" stroke-width="2" stroke-linecap="round" stroke-linejoin="round"/>
</g>
<g style="mix-blend-mode:multiply">
<path d="M566.83 181.18L558.39 185.78L571.05 188.84" stroke="#121721" stroke-width="2" stroke-linecap="round" stroke-linejoin="round"/>
</g>
<path d="M567 192.29C557.112 189.994 546.812 190.155 537 192.76C536.035 193.011 535.198 193.614 534.654 194.45C534.11 195.286 533.898 196.296 534.06 197.28C535.06 204.37 542.46 214.08 552.63 214.08C562.8 214.08 569.5 204.83 570.21 196.64C570.317 195.645 570.046 194.646 569.451 193.841C568.857 193.035 567.983 192.482 567 192.29Z" fill="#121721"/>
<path d="M539 207.73C540.524 205.447 542.617 203.601 545.072 202.373C547.527 201.146 550.259 200.579 553 200.73C562.63 201.17 566.27 206.73 566.27 206.73C566.27 206.73 563.21 213.42 554 214C544.79 214.58 539 207.73 539 207.73Z" fill="#EE5D4F"/>
<path opacity="0.46" d="M331 140L340 135C341.512 134.722 343.037 134.525 344.57 134.41C354.22 134.02 365.5 134.5 372 138C385 145 379 155 416 165C453 175 463 175 476 168C489 161 414.71 269 414.71 269L331 140Z" fill="#FFACFF"/>
<path d="M468.08 337.81C468.08 337.81 463.94 351.11 469.15 353.62C474.36 356.13 475.15 347.28 475.15 347.28C475.15 347.28 473.93 353.17 475.31 357.1C476.69 361.03 479.1 360.05 481.02 356.1C482.94 352.15 481.22 355.1 481.22 355.1C481.22 355.1 479.59 362.96 483.99 362.96C488.39 362.96 492.65 347.1 490.12 343.73C487.59 340.36 487.75 340.99 484.12 341.66C484.12 341.66 481.03 337.25 476.59 338.81C476.59 338.81 475.26 334.2 468.09 337.81" fill="#F5894E"/>
<path d="M466 369C466 369 471 357.9 468.52 354.45C468.52 354.45 475 361 466 369Z" fill="#CC6D3D"/>
<path d="M463 347C466.689 346.321 470.303 345.282 473.79 343.9C478 342 484 348 477 353C470 358 466 358 466 358C466 358 451 362 463 347Z" fill="#CC6D3D"/>
<path d="M461 347C464.69 346.321 468.303 345.282 471.79 343.9C476 342 482 348 475 353C471.476 355.418 468.133 358.092 465 361C465 361 449 362 461 347Z" fill="#F5894E"/>
<path d="M460 381.44C461.72 386.63 464.42 381.8 473.27 382.52C480.63 383.11 486.27 386.25 487.56 381.9C489.07 376.63 483.5 377.11 471.93 377.06C464.5 377 458.24 376.24 460 381.44Z" fill="#F3E7D9"/>
<path d="M476.94 487.33C471.062 485.892 465.802 482.6 461.94 477.94C456.94 471.78 458.18 465.63 459.31 456.03C461.55 436.94 459.6 445.34 457.91 432.12C455.76 415.23 452.18 384.12 466.22 381.91C483.46 379.16 487.48 380.76 489.08 386.31C490.68 391.86 487.99 389.8 489.08 393.79C490.17 397.78 493 435.88 494.52 444.28C496.04 452.68 495.24 457.39 495.24 457.39C495.24 457.39 496.17 467.1 496.13 472.27C496.09 477.44 495.14 489.5 476.94 487.33Z" fill="#C94039"/>
<path d="M476.881 487.81C476.881 487.81 486.251 470.47 487.021 463.59C488.101 453.89 476.811 391.51 476.811 391.51C476.811 391.51 482.911 372.98 489.111 386.31C491.541 391.54 490.531 415.4 491.621 419.39C492.711 423.38 493.031 435.88 494.551 444.28C496.071 452.68 495.271 457.39 495.271 457.39C495.271 457.39 496.201 467.1 496.161 472.27C496.121 477.44 495.071 490 476.881 487.81Z" fill="#992C29"/>
<path d="M486.52 454.35L479.81 433.44L471.15 419.82C471.15 419.82 486.58 429.43 488.31 438.52C489.368 443.855 488.742 449.386 486.52 454.35Z" fill="#992C29"/>
<path d="M463.18 571.9C456.93 572.44 437.27 541.34 437.27 529.41C437.27 524.23 448.67 509.73 448.67 509.73L449.67 504.55C450.49 500.63 454 476 458 472C462 468 468 475 478 475C488 475 496.66 460.42 496.34 475.53C496.02 490.64 484.52 514.13 483.28 525.76C482.04 537.39 469.58 571.34 463.18 571.9Z" fill="#273252"/>
<path d="M463.18 571.9C456.93 572.44 437.27 541.34 437.27 529.41C437.27 524.23 450.85 531.41 454.27 531.68C457.69 531.95 469.84 522.19 469.84 522.19L466.41 516.65C466.41 516.65 468 475 478 475C488 475 496.66 460.42 496.34 475.53C496.02 490.64 484.52 514.13 483.28 525.76C482.04 537.39 469.58 571.34 463.18 571.9Z" fill="#1D2538"/>
<path d="M507 648C505 651 505 653 509 654C513 655 512 650 521 649C526.61 648.38 533.75 652.84 536 657C537.36 659.52 533.74 663.13 536 662C542 659 543 648 529 644C525.059 642.8 520.875 642.629 516.849 643.504C512.823 644.379 509.088 646.272 506 649" fill="#F3E7D9"/>
<path d="M373.171 552.05C373.171 552.05 389.34 538.33 421 532.05C431.001 530.05 447.45 541.68 459 568.05C470.55 594.42 499.001 651.05 499.001 651.05C499.001 651.05 477.31 680.73 452 698.05C433.23 710.89 410.66 713.87 403 709.05C385 697.68 347.281 568.93 373.171 552.05Z" fill="#F7BC4B"/>
<path d="M417.93 541.17C420.87 548.02 414.1 560.92 404.81 564.91C395.52 568.9 381.02 562.68 378.07 555.83C375.12 548.98 385.73 545 395 541C404.27 537 415 534.32 417.93 541.17Z" fill="#F5894E"/>
<path d="M457 666.15L444.55 605.87L418.27 537.72C430.49 535.72 454.7 549.99 466.27 576.36C477.84 602.73 499.59 651 499.59 651L492.59 666L448 708L405 711L418.671 708.12C418.671 708.12 444.61 701.12 448.47 696.25C456.34 686.25 468.87 654.11 468.87 654.11L457 666.15Z" fill="#CE9436"/>
<path d="M419.361 537.48C421.201 530.83 429.001 527 435.001 527C441.001 527 432.001 527 452.001 548C457.231 553.49 464.081 558.29 467.511 564C493.061 606.79 522.671 617 529.001 624C536.181 632 544.421 649.78 539.001 662C536.521 667.58 547.001 647 525.001 643C516.151 641.39 506.001 649 506.001 649C496.001 645 471.801 622.35 462.841 601.7C458.231 591.08 447.001 569.39 437.001 556C427.521 543.36 419.001 538.72 419.361 537.48Z" fill="#C94039"/>
<path d="M419.361 537.48C421.201 530.83 429.001 527 435.001 527C441.001 527 432.001 527 452.001 548C457.231 553.49 464.081 558.29 467.511 564C493.061 606.79 522.671 617 529.001 624C536.181 632 544.421 649.78 539.001 662C536.521 667.58 547.001 647 525.001 643L515.201 623.46C505.201 619.46 481.971 600.52 481.971 600.52C481.971 600.52 447.001 569.39 437.001 556C427.521 543.36 419.001 538.72 419.361 537.48Z" fill="#992C29"/>
<path d="M406.501 535.5C422.831 540.95 430.661 591.08 423.501 593.41C416.341 595.74 371.381 554.69 380.501 544.5" stroke="#992C29" stroke-miterlimit="10"/>
<path d="M426.445 602.556C427.855 602.124 428.327 599.586 427.5 596.888C426.672 594.19 424.858 592.353 423.449 592.785C422.039 593.218 421.567 595.756 422.394 598.454C423.222 601.152 425.035 602.989 426.445 602.556Z" fill="#29ABE2"/>
<path d="M414.44 531.29C420.38 528.79 423.09 529.77 427.3 530.96C431.51 532.15 434.84 536.23 442.04 547.06C449.24 557.89 460.45 590.49 457.04 592C453.63 593.51 442.33 565.14 435.04 556C427.75 546.86 408.5 533.79 414.44 531.29Z" fill="#F3E7D9"/>
<path d="M400 722C407.22 719.59 411 712 404 713C397 714 395 719 388 724C381 729 372.33 737.66 377 747C379 751 380 751 383 745C386 739 388 726 400 722Z" fill="#F3E7D9"/>
<path d="M372.89 556.11C380.07 558.72 395.89 589.66 401.56 607.11C407.23 624.56 403.81 652.29 407.29 663.33C410.77 674.37 412.18 710.07 409.94 713.16C409.05 714.39 392.36 719.3 386 725.97C380.169 732.29 376.645 740.395 376 748.97C376 748.97 341.21 719.76 359 661.97C358 638.97 334.35 589.73 336 581.97C337.65 574.21 365.71 553.49 372.89 556.11Z" fill="#992C29"/>
<path d="M381.441 568.54C388.631 571.15 395.901 589.66 401.561 607.14C407.221 624.62 403.811 652.32 407.291 663.36C410.771 674.4 412.181 710.1 409.941 713.19C408.301 715.46 403.001 673 403.001 673C403.001 673 392.641 670.81 391.561 662.64C391.041 658.64 393.291 607.32 393.291 607.32C393.291 607.32 374.261 565.92 381.441 568.54Z" fill="#C94039"/>
<path d="M405.3 618.33C407.53 613.94 404.54 606.82 399.79 595.96C395.04 585.1 388 567.27 379.38 557.72C370.33 547.72 350.16 558.64 359.28 562.72C368.7 566.93 379.17 574.63 388.99 591.04C399.91 609.29 403.08 622.71 405.3 618.33Z" fill="#F3E7D9"/>
<path d="M387.771 686.55L391.671 687.55C391.671 687.55 388.981 702.75 376.831 706.42L375.621 703.65C375.621 703.65 384.591 700.22 387.771 686.55Z" fill="#F3E7D9"/>
<path d="M395.551 612.36C395.551 612.36 404.731 637.66 388.771 647.31C392.499 635.993 394.777 624.25 395.551 612.36Z" fill="#C94039"/>
<path d="M496 626L497 629.79C497 629.79 502 633 519 631L518 627C518 627 505 632 496 626Z" fill="#F3E7D9"/>
<path d="M601.8 438.13C620.589 438.13 635.82 422.899 635.82 404.11C635.82 385.321 620.589 370.09 601.8 370.09C583.012 370.09 567.78 385.321 567.78 404.11C567.78 422.899 583.012 438.13 601.8 438.13Z" fill="#29ABE2"/>
<path d="M579.32 406.64L598.41 387.61L625.42 395.91" stroke="#F3E7D9" stroke-width="5" stroke-linecap="round" stroke-linejoin="round"/>
<path d="M617.21 396.66C617.152 395.621 616.771 394.626 616.12 393.814C615.469 393.002 614.581 392.413 613.58 392.13L601.76 388.58C600.77 388.288 599.719 388.272 598.72 388.532C597.721 388.793 596.811 389.321 596.09 390.06L588.09 398.27C587.354 399.011 586.868 399.964 586.701 400.996C586.535 402.027 586.695 403.084 587.16 404.02L596 421.13C596.576 422.179 597.487 423.004 598.587 423.476C599.687 423.947 600.913 424.036 602.07 423.73L613.83 420.84C615.027 420.571 616.095 419.899 616.854 418.935C617.614 417.972 618.018 416.777 618 415.55L617.21 396.66ZM604.56 410.21C603.486 410.408 602.378 410.286 601.372 409.861C600.366 409.436 599.507 408.725 598.9 407.817C598.294 406.909 597.966 405.843 597.959 404.751C597.951 403.659 598.264 402.588 598.858 401.672C599.452 400.756 600.301 400.033 601.301 399.594C602.301 399.155 603.407 399.018 604.484 399.201C605.561 399.384 606.56 399.878 607.359 400.622C608.158 401.367 608.722 402.329 608.98 403.39C609.297 404.88 609.01 406.436 608.181 407.715C607.353 408.993 606.05 409.891 604.56 410.21Z" fill="#F3E7D9"/>
<path opacity="0.5" d="M631 394.29C631 406.75 575.13 406.75 575.13 394.29C575.13 381.83 587.63 371.73 603.06 371.73C618.49 371.73 631 381.83 631 394.29Z" fill="#FFFCF3"/>
<path d="M556.81 478.96L570 505.07" stroke="#F7BC4B" stroke-width="3" stroke-linecap="round" stroke-linejoin="round"/>
<path d="M546.97 508.34L571.63 490.21" stroke="#F7BC4B" stroke-width="3" stroke-linecap="round" stroke-linejoin="round"/>
<path d="M542.78 500.18L567.44 482.06" stroke="#F7BC4B" stroke-width="3" stroke-linecap="round" stroke-linejoin="round"/>
<path d="M546.35 486.85L559.54 512.96" stroke="#F7BC4B" stroke-width="3" stroke-linecap="round" stroke-linejoin="round"/>
<path d="M376.21 296.96L309.75 334.41L361.97 357.62L376.21 296.96Z" fill="#33A86D"/>
<path opacity="0.5" d="M376.21 296.96L350.63 312.52L361.97 357.62L376.21 296.96Z" fill="#FFFCF3"/>
<path d="M376.21 296.96L372.67 300.97L333.22 344.69L336.12 345.75L376.21 296.96Z" fill="#288453"/>
<path d="M278.74 241.9C279.57 243.63 285.92 257.33 282.17 265.72C282.086 265.903 282.064 266.109 282.106 266.307C282.148 266.504 282.252 266.683 282.403 266.816C282.555 266.95 282.745 267.031 282.946 267.048C283.147 267.064 283.349 267.016 283.52 266.91C290.79 262.37 306.38 250.34 305.91 230.81C305.31 205.58 278.48 232.81 278.65 241.51C278.65 241.645 278.681 241.778 278.74 241.9Z" fill="#F7BC4B"/>
<path d="M282.7 196.89H261.28C248.462 196.89 238.07 207.281 238.07 220.1V230.01C238.07 242.828 248.462 253.22 261.28 253.22H282.7C295.519 253.22 305.91 242.828 305.91 230.01V220.1C305.91 207.281 295.519 196.89 282.7 196.89Z" fill="#F7BC4B"/>
<path opacity="0.5" d="M256.65 213.78C255.583 213.134 254.716 212.204 254.146 211.094C253.576 209.984 253.325 208.738 253.422 207.494C253.518 206.25 253.958 205.057 254.692 204.048C255.426 203.039 256.426 202.254 257.58 201.78C267.72 197.72 284.23 201.02 288.12 201.48C299.76 202.88 302.25 216.48 301.95 229.83C301.924 230.977 301.596 232.096 301 233.076C300.404 234.057 299.56 234.863 298.554 235.414C297.548 235.965 296.415 236.242 295.268 236.217C294.121 236.191 293.001 235.865 292.02 235.27L256.65 213.78Z" fill="#FFFCF3"/>
<path d="M169.77 377.13C190.564 377.13 207.42 360.273 207.42 339.48C207.42 318.686 190.564 301.83 169.77 301.83C148.977 301.83 132.12 318.686 132.12 339.48C132.12 360.273 148.977 377.13 169.77 377.13Z" fill="#29ABE2"/>
<path d="M161.08 365.24C157.82 367.12 154.42 366.33 152.08 362.31L147.55 353.73C145.23 349.73 145.41 345.66 148.67 343.73C151.93 341.85 155.14 342.29 157.46 346.31L161.99 354.89C164.33 359 164.34 363.36 161.08 365.24Z" fill="#F3E7D9"/>
<path d="M158.93 345.05C157.67 342.94 158.49 340.64 159.02 338.23C159.69 335.18 160.91 328.23 160.42 327.03C159.6 324.97 155.42 317.03 156.32 314.83C157.22 312.63 162.79 312.15 165.15 314.53C168.02 317.43 168.02 318.83 169.06 322.95C169.93 326.44 169.6 327.14 173.06 326.03C177.06 324.74 182.72 324.19 184.46 323.43C185.042 323.188 185.668 323.068 186.298 323.08C186.928 323.091 187.55 323.233 188.122 323.496C188.695 323.759 189.208 324.137 189.627 324.608C190.047 325.078 190.364 325.631 190.56 326.23C190.772 326.713 190.856 327.244 190.804 327.769C190.751 328.295 190.564 328.798 190.26 329.23C190.893 329.588 191.443 330.077 191.874 330.663C192.304 331.248 192.606 331.919 192.76 332.63C193.098 334.21 192.923 335.856 192.26 337.33C192.26 337.33 195.76 338.83 194.56 343.83C194.56 343.83 196.87 348.4 193.86 351.03C191.57 353.03 187.44 354.7 182.46 356.83C174.06 360.43 168.21 360.58 166.56 358.93C164.91 357.28 158.93 345.05 158.93 345.05Z" fill="#F3E7D9"/>
<path opacity="0.5" d="M197.42 334.6C197.42 350.6 138.82 350.6 138.82 334.6C138.82 326.829 141.907 319.376 147.402 313.882C152.897 308.387 160.349 305.3 168.12 305.3C175.891 305.3 183.344 308.387 188.839 313.882C194.333 319.376 197.42 326.829 197.42 334.6Z" fill="#FFFCF3"/>
<path d="M319.8 409.61C320.266 411.211 320.408 412.889 320.217 414.545C320.027 416.202 319.507 417.804 318.69 419.257C317.873 420.711 316.774 421.987 315.458 423.01C314.142 424.034 312.635 424.785 311.025 425.219C309.415 425.654 307.735 425.762 306.082 425.539C304.43 425.316 302.838 424.766 301.401 423.921C299.964 423.075 298.71 421.952 297.712 420.616C296.714 419.28 295.993 417.758 295.59 416.14" stroke="#F7BC4B" stroke-width="3" stroke-miterlimit="10"/>
<path d="M295.57 376.08C295.57 376.08 306.21 369.2 314.4 384.59C316.88 389.25 318.6 392.59 321.78 398.31C323.22 400.88 329.26 406.67 329.26 406.67L305.55 413.07" stroke="#F7BC4B" stroke-width="3" stroke-miterlimit="10"/>
<path d="M299.94 374.9C299.94 374.9 287.28 374.31 287.94 391.73C288.14 397 288.34 400.73 288.46 407.29C288.51 410.24 286.19 418.29 286.19 418.29L309.91 411.9" stroke="#F7BC4B" stroke-width="3" stroke-miterlimit="10"/>
<path d="M172.52 605.79C183.81 622.21 205.17 626.55 220.86 616.99C236.24 607.62 242.42 587.12 234.31 569.67C225.39 550.51 202.64 541.78 183.95 552.17C164.82 562.8 160.06 587.7 172.52 605.79Z" fill="#EE5D4F"/>
<path opacity="0.5" d="M199.51 574.41C199.51 574.41 235.92 586.53 228.84 571.31C221.05 554.59 201.21 547 184.91 556C168.22 565.31 199.51 574.41 199.51 574.41Z" fill="#FFFCF3"/>
<g style="mix-blend-mode:color-dodge">
<path d="M179.941 586.05C179.821 572.15 195.781 576.9 197.821 577.57C198.281 575.47 202.201 559.51 213.821 566.57C230.821 577.02 215.491 602.08 213.671 604.92L213.741 605.05H213.581C213.554 605.099 213.524 605.146 213.491 605.19L213.421 605.06C210.061 605.36 180.131 606.89 179.941 586.05Z" fill="#FFFCF3"/>
</g>
<path d="M394.54 621.78L444.49 601.34C446.661 600.454 449.09 600.44 451.271 601.303C453.451 602.166 455.214 603.838 456.19 605.97L475.71 648.64C476.213 649.736 476.493 650.921 476.533 652.127C476.572 653.332 476.371 654.533 475.941 655.66C475.511 656.787 474.86 657.816 474.027 658.689C473.194 659.561 472.196 660.258 471.09 660.74L417.54 684.12C416.395 684.623 415.158 684.883 413.907 684.885C412.656 684.886 411.419 684.629 410.272 684.13C409.125 683.63 408.094 682.899 407.244 681.981C406.393 681.064 405.742 679.981 405.33 678.8L389.4 633.18C388.635 630.983 388.742 628.576 389.698 626.456C390.655 624.335 392.387 622.661 394.54 621.78Z" fill="#F3E7D9"/>
<path d="M433.31 661.18C443.654 661.18 452.04 652.794 452.04 642.45C452.04 632.105 443.654 623.72 433.31 623.72C422.966 623.72 414.58 632.105 414.58 642.45C414.58 652.794 422.966 661.18 433.31 661.18Z" fill="#29ABE2"/>
<path d="M425.58 634.51L433.75 654.02L442.5 638.22L425.58 634.51Z" fill="#C94039"/>
<g opacity="0.5">
<path opacity="0.5" d="M409.31 618.79L445.31 604.06C446.875 603.422 448.625 603.413 450.196 604.035C451.767 604.658 453.037 605.863 453.74 607.4L467.81 638.14C469.32 641.47 406.08 620.11 409.31 618.79Z" fill="#FFFCF3"/>
</g>
<path d="M373.52 523.21L386.46 557.21C386.46 557.21 391.09 563.21 401.3 559.73C411.51 556.25 411.21 547.45 411.21 547.45L397.09 509.3L373.52 523.21Z" fill="#F5894E"/>
<path d="M373.52 523.21C373.52 523.21 390.42 543.21 396.4 546.21C402.38 549.21 410 546 410 546L398.34 509L373.52 523.21Z" fill="#CC6D3D"/>
<path d="M354.1 517.77C370.5 534.77 379.7 536.27 379.7 536.27C412.79 527.34 417.92 497.76 408.7 478.27C399.9 457.76 395.75 452.76 372.75 460.87C340.69 472.15 339.49 502.64 354.1 517.77Z" fill="#1D2538"/>
<path d="M354.1 517.77C370.5 534.76 378 529 378 529C411.1 520.08 417.92 497.76 408.68 478.26C399.88 457.75 397.68 449.12 370.46 457.06C332.63 468.09 339.49 502.64 354.1 517.77Z" fill="#3E4C6F"/>
<path d="M352.05 518.81C366.05 533.3 385.26 511.49 385.26 511.49C388.99 506.65 384.2 488.49 380.87 476.54C378 466.24 380.11 454.69 353.77 467.95C330.36 479.74 339.6 505.91 352.05 518.81Z" fill="#1D2538"/>
<path d="M373.51 463.35C373.51 463.35 394.01 465.77 398.1 467.86C402.19 469.95 417.56 503.37 416.25 516.28C414.95 529.02 379.38 540.86 368.54 536.06C359.66 532.14 358.8 525.17 353.41 515.14C347.73 504.57 352.62 494.43 351.82 489.8C350.43 481.88 373.51 463.35 373.51 463.35Z" fill="#CC6D3D"/>
<path d="M345.54 517.09C349.34 522.83 355.63 526.56 358.09 525.28C360.55 524 359.5 518.28 355.69 512.48C351.88 506.68 346.76 503.03 344.3 504.37C341.84 505.71 341.74 511.34 345.54 517.09Z" fill="#CC6D3D"/>
<path d="M397.54 473.89C404.46 475.39 420.04 511.66 412.36 520.46C404.68 529.26 395.46 530.98 386.51 527.59C378.67 524.59 372.56 497.7 378.51 488.9C385.71 478.13 390.61 472.4 397.54 473.89Z" fill="#F5894E"/>
<path d="M347.89 483.39C347.89 483.39 355.84 499.07 355.77 504.65L354.21 513.45L343.87 490.84L347.89 483.39Z" fill="#1D2538"/>
<path d="M395.06 454.76C395.06 454.76 391.21 463.35 371.24 470.05C361.33 473.37 354.06 479.78 348.92 480.38C336.28 481.84 348.97 452.97 369.11 445.46C389.47 437.88 395.06 454.76 395.06 454.76Z" fill="#1D2538"/>
<path d="M369.14 445.17C353.21 451.87 341.05 472.54 351.23 471.36C354.12 471.02 358.68 470.36 364.11 469.22C372.86 464.8 380.91 456.95 380.91 456.95C381.74 461.6 377.19 465.05 371.83 467.45C376.908 466.176 381.915 464.633 386.83 462.83C395.19 459.73 396.23 459.88 395.9 456.88C395.25 450.77 386.35 437.94 369.14 445.17Z" fill="#3E4C6F"/>
<path d="M369.82 491C370.56 493.41 372.02 494.12 373.23 493.75C374.44 493.38 374.93 492.07 374.23 489.65C373.53 487.23 371.91 485.58 370.7 485.95C369.49 486.32 369.08 488.56 369.82 491Z" fill="#34283A"/>
<path d="M390.11 485C390.85 487.41 392.31 488.12 393.52 487.75C394.73 487.38 395.22 486.07 394.52 483.66C393.82 481.25 392.2 479.59 391 479.96C389.8 480.33 389.37 482.59 390.11 485Z" fill="#34283A"/>
<path d="M364 485.09C364.131 485.041 364.247 484.958 364.335 484.849C364.423 484.739 364.48 484.609 364.5 484.47C364.5 484.29 365.22 480.06 368.72 479.83C368.823 479.823 368.923 479.797 369.015 479.752C369.107 479.707 369.19 479.644 369.257 479.566C369.325 479.489 369.377 479.4 369.41 479.302C369.443 479.205 369.457 479.102 369.45 479C369.437 478.792 369.343 478.598 369.187 478.459C369.032 478.321 368.828 478.249 368.62 478.26C364.81 478.51 363.24 482.26 362.95 484.26C362.921 484.465 362.974 484.674 363.098 484.84C363.221 485.006 363.405 485.118 363.61 485.15C363.743 485.16 363.876 485.14 364 485.09Z" fill="#34283A"/>
<path d="M397 474.68C397.073 474.655 397.141 474.618 397.2 474.57C397.364 474.445 397.472 474.26 397.5 474.056C397.528 473.852 397.474 473.645 397.35 473.48C395.18 470.58 391.35 471.29 389.69 472.07C389.511 472.157 389.372 472.309 389.302 472.495C389.231 472.68 389.234 472.886 389.31 473.07C389.397 473.249 389.548 473.389 389.734 473.461C389.919 473.533 390.125 473.533 390.31 473.46C390.47 473.38 394.12 471.78 396.07 474.38C396.168 474.528 396.313 474.639 396.483 474.694C396.652 474.748 396.834 474.743 397 474.68Z" fill="#34283A"/>
<path d="M285.63 650.53C285.63 650.53 322.24 594.86 329.11 585.97C336.11 576.9 345.29 568.9 356.74 574.23C368.19 579.56 377.81 595.9 368.47 608.23C359.13 620.56 338.22 651.85 331.12 657.69C324.02 663.53 311.35 676 311.19 670.37C311.03 664.74 285.63 650.53 285.63 650.53Z" fill="#1D2538"/>
<path d="M285.63 650.53C283.94 648.32 296.12 634.35 308 618C317.21 605.32 326.11 589.85 329.11 586C336.11 576.93 352.68 566.54 352 579.14C350.93 598.81 316 608.14 322.47 637.03C327.06 657.52 288.64 654.45 285.63 650.53Z" fill="#273252"/>
<path d="M341.571 598.53C341.571 598.53 326.381 603.8 318.731 618.53C311.081 633.26 341.571 598.53 341.571 598.53Z" fill="#273252"/>
<path d="M370 652C370 652 356 650 334 647C312 644 303 629 292 638C281 647 278 667 287 675C296 683 330 686 347 689C364 692 370 700 374 687C378 674 376 657 370 652Z" fill="#C94039"/>
<path d="M370 652C370 652 356 650 334 647C312 644 358.54 663.81 358.54 663.81C358.54 663.81 370 700 374 687C378 674 376 657 370 652Z" fill="#992C29"/>
<path d="M377.32 657.24C377.32 657.24 369.53 654.87 366.94 665.12C364.35 675.37 367.42 687.34 372.8 688.85C378.18 690.36 377.32 684.05 377.32 684.05C377.32 684.05 373.86 682.47 373.86 675.37C373.86 668.27 379.92 661.18 379.92 661.18L377.32 657.24Z" fill="#F3E7D9"/>
<path d="M373.18 679.44C370.18 674.19 371.61 669.21 373.09 662.52C374.94 654.19 378.78 645.99 381 641C385 632 392.56 632.56 397.11 631.37C404.73 629.37 407.69 629.79 407.69 629.79C407.69 629.79 413.63 631.97 412.54 633.95C411.45 635.93 402.68 635.65 402.85 635.95C403.02 636.25 404.62 635.57 406.51 636.65C407.163 637.09 407.694 637.687 408.056 638.386C408.417 639.085 408.598 639.863 408.58 640.65C408.646 641.475 408.443 642.3 408 643C408.577 642.879 409.177 642.974 409.688 643.267C410.199 643.56 410.584 644.031 410.77 644.59C411.249 645.924 411.515 647.324 411.56 648.74C411.357 650.012 410.883 651.226 410.17 652.3C410.17 652.3 411.56 651.3 412.55 653.88C413.54 656.46 412.1 659.75 412.01 660.34C411.01 667.34 394.01 670.96 394.01 670.96C393.457 673.198 392.447 675.297 391.042 677.124C389.638 678.952 387.87 680.469 385.85 681.58C378.85 685.58 378.46 685.36 377.01 683.96C375.649 682.527 374.37 681.018 373.18 679.44Z" fill="#F5894E"/>
</svg>
