<svg width="778" height="875" viewBox="0 0 778 875" fill="none" xmlns="http://www.w3.org/2000/svg">
<path d="M340.966 144.194C340.966 144.194 197.707 232.403 146.716 255.063C95.7259 277.722 91.679 258.3 88.4415 252.635C85.204 246.97 92.4884 220.264 109.485 220.264C109.485 220.264 97.3446 197.605 111.104 178.183C124.863 158.761 193.66 131.246 260.838 153.096C260.838 153.096 255.173 128.009 290.785 117.488C326.398 106.968 318.304 131.246 318.304 131.246C318.304 131.246 351.488 120.726 345.013 126.39C345.013 126.39 398.432 96.4478 395.195 104.54C391.957 112.633 340.966 144.194 340.966 144.194Z" fill="#F3E7D9"/>
<path d="M256.792 389.4C256.792 389.4 174.235 442.811 147.526 450.094C120.817 457.377 118.389 447.666 124.864 434.718C131.339 421.77 152.382 425.007 152.382 425.007C152.382 425.007 146.717 406.394 159.667 402.348C172.617 398.301 186.376 405.585 186.376 405.585C186.376 405.585 165.332 374.024 204.992 360.266C244.651 346.509 243.842 388.59 243.842 388.59C243.842 388.59 277.026 376.451 256.792 389.4Z" fill="#F3E7D9"/>
<path d="M667.145 363.503C667.145 363.503 644.482 376.451 629.104 379.688C613.726 382.925 612.107 352.174 630.723 337.607C649.338 323.04 685.76 343.272 685.76 343.272C685.76 343.272 688.998 323.04 701.138 324.659C713.279 326.277 711.66 331.942 711.66 331.942C711.66 331.942 726.229 316.566 731.895 320.612C737.56 324.659 730.276 330.324 730.276 330.324C730.276 330.324 762.651 315.757 743.226 327.896C723.801 340.035 667.145 363.503 667.145 363.503Z" fill="#F3E7D9"/>
<path d="M462.227 318.889C450.774 303.513 488.58 283.581 509.835 277.673C523.003 274.015 539.676 277.244 544.856 281.922C546.629 283.54 555.313 293.251 557.758 299.046C560.412 305.407 562.662 335.414 550.247 336.798C533.234 338.7 473.704 334.24 462.227 318.889Z" fill="#992C29"/>
<path d="M478.884 320.257C472.312 309.736 485.06 290.646 502.356 283.905C522.437 276.047 538.843 282.051 541.052 288.558C543.262 295.064 530.611 307.915 517.783 315.312C504.954 322.709 481.798 324.958 478.884 320.257Z" fill="#F3E7D9"/>
<path d="M512.327 308.376C523.618 297.338 527.228 297.808 526.087 290.176C524.274 277.851 495.039 292.733 488.945 295.275C482.85 297.816 473.461 317.375 481.417 326.949C489.373 336.523 501.037 319.415 512.327 308.376Z" fill="#273252"/>
<path d="M449.01 312.52C449.01 312.52 432.823 309.283 425.109 324.052C421.621 330.728 412.491 353.185 404.397 370.366C394.685 391.091 386.421 406.782 391.383 412.447C405.142 428.025 410.274 433.795 418.278 419.731C426.283 405.666 485.845 310.634 449.01 312.52Z" fill="#273252"/>
<path d="M449.01 312.52C449.01 312.52 432.823 309.283 425.109 324.052C417.396 338.821 408.881 365.243 408.881 365.243L417.857 358.227L426.825 404.97C426.825 404.97 485.845 310.634 449.01 312.52Z" fill="#1D2538"/>
<path d="M351.035 366.125C351.035 366.125 342.132 374.283 348.259 383.411C356.013 394.902 371.124 418.881 376.862 428.665C382.698 438.611 404.381 445.522 413.365 425.428C419.071 412.698 389.675 381.307 389.675 381.307C389.675 381.307 392.759 365.429 377.931 361.027C363.103 356.624 351.035 366.125 351.035 366.125Z" fill="#C94039"/>
<path d="M351.035 366.125C351.035 366.125 342.132 374.283 348.259 383.411C356.013 394.903 371.124 418.881 376.862 428.665C382.698 438.611 404.381 445.522 413.365 425.428C389.351 440.156 385.847 421.584 385.847 421.584C385.847 421.584 368.85 405.9 362.148 390.832C355.73 384.803 351.035 366.125 351.035 366.125Z" fill="#992C29"/>
<path d="M357.227 364.636C357.227 364.636 348.049 368.262 349.942 372.421C351.836 376.581 352.824 379.146 360.829 378.183C368.833 377.22 374.92 375.626 377.162 371.466C379.404 367.307 378.781 363.778 375.875 362.5C372.969 361.221 351.545 366.02 351.545 366.02" fill="#F3E7D9"/>
<path d="M355.73 384.164C357.009 384.164 367.255 390.241 375.584 390.889C379.412 391.18 371.723 393.446 362.82 393.446C353.917 393.446 355.73 384.164 355.73 384.164Z" fill="#992C29"/>
<path d="M371.31 368.901C368.113 371.782 353.382 374.024 351.141 370.52C348.899 367.015 342.496 349.705 344.415 341.386C346.333 333.067 354.022 322.174 362.666 321.535C371.31 320.896 389.885 337.866 380.917 352.586C380.917 352.57 374.515 366.02 371.31 368.901Z" fill="#F5894E"/>
<path d="M351.116 368.245L335.876 365.575C331.829 364.871 330.955 361.092 333.876 357.134L358.271 324.052C361.193 320.094 366.818 317.456 370.841 318.16L386.081 320.839C390.128 321.543 390.994 325.322 388.08 329.28L363.678 362.362C360.764 366.319 355.139 368.949 351.116 368.245Z" fill="#F3E7D9"/>
<path d="M351.189 366.999L337.43 364.572C333.812 363.932 333.002 360.525 335.633 356.964L359.849 324.546C360.945 322.977 362.48 321.766 364.261 321.067C366.042 320.367 367.991 320.209 369.861 320.613L384.212 322.328C387.838 322.959 388.647 326.374 386.016 329.927L362.545 361.658C359.882 365.259 354.807 367.631 351.189 366.999Z" fill="#1D2538"/>
<path d="M361.711 316.081C361.711 316.081 354.022 314.462 352.743 318.638C351.464 322.814 354.362 328.559 353.706 330.485C353.051 332.411 362.027 329.207 362.666 325.039C363.305 320.871 365.248 317.036 361.711 316.081Z" fill="#F5894E"/>
<path d="M354.661 325.039C354.661 325.039 348.898 321.802 346.341 325.363C343.783 328.923 346.341 332.403 347.296 334.645C348.251 336.887 349.862 338.805 352.419 335.924C354.977 333.043 357.543 328.559 354.661 325.039Z" fill="#F5894E"/>
<path d="M348.85 333.366C346.511 332.727 344.698 332.727 342.885 334.006C341.072 335.284 342.075 340.407 342.626 344.251C343.176 348.095 347.288 347.132 348.332 342.972C349.376 338.813 351.181 334.006 348.85 333.366Z" fill="#F5894E"/>
<path d="M343.459 340.091C343.459 340.091 337.373 341.37 337.373 345.53C337.373 349.689 340.254 351.291 342.172 347.771C344.091 344.251 345.378 343.272 343.459 340.091Z" fill="#F5894E"/>
<path d="M377.72 351.826C381.427 353.582 386.259 344.995 390.096 332.622C391.423 328.341 382.884 331.003 380.764 334.475C376.433 341.58 374.013 350.069 377.72 351.826Z" fill="#F5894E"/>
<path d="M583.067 741.719L562.573 743.855C542.08 746.024 527.576 738.546 520.308 758.422C512.408 779.981 531.639 778.572 544.006 778.653C559.158 778.718 558.729 776.485 576.025 776.485C593.322 776.485 586.911 772.859 587.551 758.39C588.19 743.92 584.135 742.868 584.135 742.868L583.067 741.719Z" fill="#EE5D4F"/>
<path d="M587.68 756.439C587.065 771.427 592.537 773.563 576.025 773.563C559.514 773.563 556.382 774.421 543.367 775.06C531.534 775.643 512.417 775.173 521.595 755.695C530.773 736.216 544.257 743.701 563.82 741.46L583.399 739.21C583.399 739.21 588.295 741.427 587.68 756.439Z" fill="#121721"/>
<path d="M570.262 457.474L582.104 617.87C582.104 617.87 582.427 663.01 583.722 684.14C585.017 705.27 592.69 738.562 590.772 745.603C588.854 752.644 573.459 752.652 561.926 755.185C550.392 757.718 540.793 743.661 538.875 743.046C536.957 742.431 510.692 503.578 507.495 488.21C504.298 472.842 505.569 463.236 541.432 452.352C577.296 441.467 570.262 457.474 570.262 457.474Z" fill="#1D2538"/>
<path d="M570.263 457.474L569.623 507.422L556.171 540.075L557.134 555.451L536.026 548.718C536.026 548.718 510.725 503.578 507.528 488.21C504.331 472.842 505.602 463.236 541.465 452.352C577.328 441.467 570.263 457.474 570.263 457.474Z" fill="#273252"/>
<path d="M504.938 508.701C538.535 508.701 565.771 495.226 565.771 478.604C565.771 461.982 538.535 448.508 504.938 448.508C471.341 448.508 444.105 461.982 444.105 478.604C444.105 495.226 471.341 508.701 504.938 508.701Z" fill="#273252"/>
<path d="M508.394 301.263C508.394 301.263 484.307 298.625 460.641 305.544C448.962 308.951 432.993 331.942 432.993 360.266C432.993 388.59 441.216 467.461 441.216 467.461L536.957 464.183C536.957 464.183 538.001 305.237 508.394 301.263Z" fill="#F7BC4B"/>
<path d="M493.607 426.626L463.797 377.261L460.625 305.577C448.962 308.951 432.993 331.942 432.993 360.266C432.993 388.59 441.216 467.461 441.216 467.461C441.216 467.461 471.64 477.609 488.929 477.609C506.217 477.609 536.957 464.167 536.957 464.167C536.957 464.167 503.773 444.745 488.524 437.065C477.646 431.603 478.358 420.961 478.358 420.961L493.607 426.626Z" fill="#CE9436"/>
<path d="M499.499 302.202C499.499 311.873 491.834 331.06 482.721 331.376C473.607 331.691 464.534 319.512 464.534 309.841C464.534 300.171 473.728 298.034 482.842 297.703C491.956 297.371 499.499 294.627 499.499 302.202Z" fill="#F5894E"/>
<path d="M467.423 301.603C454.911 315.102 473.704 363.18 481.798 361.302C489.892 359.425 510.935 301.037 496.658 297.225" stroke="#992C29" stroke-miterlimit="10"/>
<path d="M484.839 371.715C486.417 371.308 487.118 368.733 486.403 365.963C485.689 363.192 483.831 361.276 482.253 361.683C480.674 362.09 479.974 364.665 480.688 367.435C481.402 370.206 483.26 372.122 484.839 371.715Z" fill="#29ABE2"/>
<path d="M455.631 468.707C455.631 468.707 456.594 473.19 454.012 475.424C451.43 477.658 436.085 476.711 430.961 476.387C425.838 476.063 428.25 471.531 428.25 471.531C428.25 471.531 456.27 468.359 455.631 468.707Z" fill="#F3E7D9"/>
<path d="M460.544 307.009C437.784 312.828 443.328 311.865 438.772 312.981C435.68 313.75 429.439 329.927 428.946 336.887C425.53 375.302 429.375 385.119 428.525 394.085C427.715 402.655 433.033 423.073 429.747 433.189C426.461 443.304 424.98 466.643 428.266 471.523C431.552 476.403 457.873 469.638 457.873 469.638L461.766 431.522C461.766 431.522 450.435 402.599 450.378 380.449C450.378 371.547 450.127 356.827 453.073 343.507C457.452 323.631 462.017 306.629 460.544 307.009Z" fill="#992C29"/>
<path d="M460.212 303.489C453.179 303.845 450.896 306.119 447.213 309.323C443.531 312.528 441.977 318.225 439.516 332.452C437.056 346.679 450.297 376.8 450.297 376.8C450.297 376.8 450.848 352.7 454.134 340.092C457.42 327.483 467.229 303.133 460.212 303.489Z" fill="#F3E7D9"/>
<path d="M513.25 370.665C513.25 370.665 514.942 397.031 532.902 398.803C532.902 398.803 522.509 388.186 513.25 370.665Z" fill="#C94039"/>
<path d="M458.925 270.746L467.375 309.089C467.375 309.089 471.721 316.259 484.93 314.147C498.139 312.034 499.669 302.623 499.669 302.623L490.701 259.659L458.925 270.746Z" fill="#F5894E"/>
<path d="M457.517 262.621C457.517 262.621 463.992 273.53 472.547 287.279L487.844 300.81L491.713 324.505C500.041 313.621 499.402 300.6 499.402 300.6L488.742 251.583L457.517 262.621Z" fill="#CC6D3D"/>
<path d="M523.319 472.753C520.583 473.733 527.366 481.946 527.366 481.946C527.366 481.946 568.547 480.627 573.727 473.959L572.197 465.47C572.197 465.47 525.504 471.985 523.319 472.753Z" fill="#F3E7D9"/>
<path d="M507.301 305.309C501.636 311.994 497.435 352.748 498.172 377.406C498.908 402.064 511.405 435.301 511.931 450.822C512.457 466.344 517.961 471.183 521.061 474.016C524.161 476.848 568.757 471.289 568.757 471.289C568.757 471.289 588.797 472.43 570.732 437.211C559.563 415.45 570.538 330.388 548.879 307.284C540.818 298.665 512.991 298.633 507.301 305.309Z" fill="#992C29"/>
<path d="M506.079 304.371C500.414 311.047 497.435 352.748 498.172 377.406C498.908 402.064 511.405 435.301 511.931 450.822C512.457 466.344 517.961 471.183 521.061 474.016C523.117 475.909 545.504 450.547 545.504 450.547L555.71 429.053L535.929 304.427C535.929 304.427 532.691 299.709 523.084 299.993C518.446 300.138 511.745 297.694 506.079 304.371Z" fill="#C94039"/>
<path d="M498.536 368.472C498.536 368.472 495.161 368.416 494.27 355.67C492.563 331.335 497.047 306.791 503.87 300.389C508.062 296.464 527.932 295.971 525.002 300.179C514.335 315.555 506.225 331.335 505.367 346.307C504.509 361.278 498.536 368.472 498.536 368.472Z" fill="#F3E7D9"/>
<path d="M531.089 448.047L527.803 450.563C527.803 450.563 535.152 464.645 547.503 463.398L547.738 460.161C547.738 460.161 538.397 460.404 531.089 448.047Z" fill="#F3E7D9"/>
<path d="M535.33 421.771C523.683 430.13 510.96 423.972 511.292 400.665C511.623 377.359 517.127 380.871 516.722 349.213C516.488 330.745 519.838 310.514 530.547 307.876C541.255 305.237 546.305 310.514 554.601 327.662C557.523 333.715 553.921 345.255 553.687 361.521C553.347 385.832 542.865 416.373 535.33 421.771Z" fill="#273252"/>
<path d="M535.297 423.761C523.651 432.112 514.804 423.979 515.136 400.672C515.217 394.635 537.167 360.104 537.167 360.104L546.758 361.075L544.33 326.439L530.506 307.826C541.214 305.18 546.265 310.464 554.561 327.613C557.482 333.666 553.881 345.206 553.646 361.472C553.347 385.831 542.833 418.355 535.297 423.761Z" fill="#1D2538"/>
<path d="M437.752 357.838C432.564 349.09 419.945 346.015 423.992 347.488C428.039 348.961 415.461 343.304 410.686 343.854C407.173 344.251 410.176 350.677 413.187 351.623C416.198 352.57 417.501 352.74 421.281 357.782C425.061 362.824 440.366 362.233 437.752 357.838Z" fill="#CC6D3D"/>
<path d="M410.419 383.314L424.178 382.505C427.804 382.294 428.784 378.871 426.372 374.857L404.834 339.306C402.406 335.26 398.829 334.192 395.211 334.402L381.451 335.212C377.834 335.422 376.854 338.845 379.266 342.859L399.484 376.451C401.896 380.441 406.793 383.524 410.419 383.314Z" fill="#F3E7D9"/>
<path d="M391.334 346.201L387.643 344.639L388.493 341.831L392.402 343.79L391.334 346.201Z" fill="#1D2538"/>
<path d="M384.689 344.292L383.062 343.604L383.435 342.357L385.167 343.223L384.689 344.292Z" fill="#1D2538"/>
<path d="M423.215 374.582L421.58 373.902L421.953 372.656L423.685 373.522L423.215 374.582Z" fill="#1D2538"/>
<path d="M402.908 344.898L399.225 343.345L400.067 340.528L403.984 342.495L402.908 344.898Z" fill="#1D2538"/>
<path d="M407.522 376.168L403.831 374.614L404.681 371.798L408.59 373.757L407.522 376.168Z" fill="#1D2538"/>
<path d="M419.104 374.873L415.413 373.312L416.263 370.503L420.172 372.462L419.104 374.873Z" fill="#1D2538"/>
<path d="M433.518 380.959C433.518 380.959 425.983 381.72 421.443 378.693C418.059 376.427 412.353 378.119 412.353 378.119C412.353 378.119 406.931 379.486 401.346 381.412C398.918 382.262 398.4 379.535 397.825 378.806C396.15 376.67 404.421 370.714 404.421 370.714C404.421 370.714 395.696 377.075 393.689 374.517C390.8 370.835 398.545 366.425 398.545 366.425C398.545 366.425 389.998 370.463 388.72 368.683C386.672 365.81 388.93 361.132 398.667 357.984L392.613 359.53C392.613 359.53 387.327 361.051 389.375 355.484C390.322 352.918 409.61 348.2 409.61 348.2C409.61 348.2 425.862 350.118 431.714 352.659C437.266 355.087 444.623 362.791 445.473 366.23C445.886 367.849 441.337 381.258 439.281 381.712C437.857 382.116 433.518 380.959 433.518 380.959Z" fill="#F5894E"/>
<path d="M435.299 381.307C434.943 381.089 433.389 375.925 433.219 375.545C432.41 373.716 429.447 372.187 427.715 371.555C425.7 370.819 418.691 368.715 418.691 368.715L415.235 361.076C414.531 360.509 414.684 353.404 414.684 353.404L413.187 348.742C413.187 348.742 425.838 350.207 431.689 352.789C437.242 355.217 444.599 362.921 445.449 366.36C445.861 367.979 438.464 381.679 438.464 381.679C438.464 381.679 436.036 381.728 435.299 381.307Z" fill="#CC6D3D"/>
<path d="M538.721 420.281C539.49 414.737 545.253 402.097 528.749 391.471C525.933 389.659 517.54 387.304 513.695 385.742C488.062 375.278 479.394 371.386 467.091 366.53C454.951 361.747 448.265 359.247 445.238 368.205C442.211 377.164 439.572 391.528 442.996 394.101C450.669 399.855 454.327 398.585 454.327 398.585C461.364 402.725 468.704 406.326 476.286 409.356C489.673 414.778 499.167 431.028 514.715 429.927C530.7 428.786 537.822 426.739 538.721 420.281Z" fill="#C94039"/>
<path d="M538.721 420.281C539.49 414.738 545.253 402.097 528.749 391.471C525.933 389.659 517.54 387.304 513.695 385.742C488.062 375.278 479.394 371.385 467.091 366.53C454.951 361.747 484.242 379.875 484.242 379.875C484.242 379.875 493.631 385.539 501.741 391.666C509.851 397.792 517.75 418.84 517.75 418.84L510.466 429.515C510.466 429.515 515.451 429.118 514.715 429.911C530.7 428.786 537.823 426.739 538.721 420.281Z" fill="#992C29"/>
<path d="M444.316 363.35C444.316 363.35 446.606 362.33 448.022 365.106C449.439 367.882 447.877 379.502 442.179 385.442C441.256 386.414 436.416 383.524 436.416 383.524C437.581 380.629 438.933 377.812 440.463 375.092C443.247 370.18 444.316 363.35 444.316 363.35Z" fill="#F3E7D9"/>
<path d="M500.883 265.453C492.919 290.646 484.461 296.739 484.461 296.739C446.857 304.298 429.423 275.213 428.978 251.073C427.57 226.148 426.76 221.074 453.85 217.723C491.567 213.07 507.973 243.013 500.883 265.453Z" fill="#1D2538"/>
<path d="M500.883 265.453C492.919 290.646 484.461 296.739 484.461 296.739C446.857 304.298 430.281 277.6 429.82 253.46C428.404 228.527 424.891 225.136 456.149 219.512C499.548 211.702 507.973 243.013 500.883 265.453Z" fill="#1D2538"/>
<path d="M506.889 273.546C500.098 295.032 465.699 288.614 465.699 288.614C459.548 285.628 456.1 251.121 453.478 237.502C451.212 225.751 442.681 211.322 475.687 211.476C505.051 211.613 512.967 254.423 506.889 273.546Z" fill="#3E4C6F"/>
<path d="M454.279 220.612C454.279 220.612 434.943 233.253 431.884 237.388C428.824 241.524 430.095 282.65 437.849 294.935C445.489 307.074 487.026 301.182 495.5 290.969C502.445 282.61 499.823 275.205 500.227 262.467C500.648 249.058 491.818 244.032 485.869 235.762C480.648 228.438 454.279 220.612 454.279 220.612Z" fill="#CC6D3D"/>
<path d="M506.217 256.001C505.27 263.641 500.826 270.519 497.726 270.438C494.626 270.357 492.822 264.11 493.744 256.414C494.667 248.718 497.985 242.503 501.11 242.616C504.234 242.729 507.156 248.337 506.217 256.001Z" fill="#CC6D3D"/>
<path d="M435.493 243.15C429.294 248.095 431.77 292.199 443.854 297.184C455.938 302.169 466.023 299.297 473.307 291.439C479.685 284.568 472.385 254.545 462.073 248.677C449.423 241.499 441.685 238.198 435.493 243.15Z" fill="#F5894E"/>
<path d="M485.691 233.633C485.691 233.633 488.119 248.677 491 254.221L498.625 261.172L494.578 234.904L485.691 233.633Z" fill="#3E4C6F"/>
<path d="M480.22 225.015C480.22 225.015 489.722 228.964 452.142 237.874C440.763 240.577 429.407 242.535 423.636 241.92C409.472 240.488 430.273 211.978 454.085 208.603C478.156 205.228 480.22 225.015 480.22 225.015Z" fill="#1D2538"/>
<path d="M454.19 208.328C435.17 211.824 416.959 231.505 428.331 232.646C431.568 232.97 436.716 233.318 442.899 233.399C453.535 230.672 464.21 224.019 464.21 224.019C464.008 229.296 458.205 231.974 451.762 233.318C457.63 233.145 463.484 232.664 469.301 231.877C479.184 230.493 480.284 230.906 480.632 227.548C481.385 220.71 474.732 204.549 454.19 208.328Z" fill="#3E4C6F"/>
<path d="M467.229 260.638C467.731 263.528 466.582 265.033 465.141 265.284C463.7 265.534 462.494 264.434 461.992 261.545C461.491 258.656 462.26 256.107 463.7 255.88C465.141 255.653 466.752 257.749 467.229 260.638Z" fill="#34283A"/>
<path d="M442.948 263.964C443.45 266.862 442.308 268.359 440.86 268.61C439.411 268.86 438.213 267.8 437.711 264.871C437.209 261.941 437.978 259.441 439.427 259.206C440.876 258.971 442.478 261.051 442.948 263.964Z" fill="#34283A"/>
<path d="M471.341 250.328C471.184 250.34 471.028 250.312 470.886 250.245C470.744 250.178 470.622 250.076 470.531 249.948C470.402 249.778 467.464 245.764 463.716 247.359C463.493 247.451 463.242 247.451 463.018 247.36C462.794 247.27 462.615 247.095 462.518 246.873C462.472 246.763 462.448 246.645 462.447 246.526C462.446 246.406 462.469 246.288 462.514 246.177C462.559 246.067 462.626 245.966 462.71 245.881C462.794 245.797 462.894 245.729 463.004 245.683C467.051 243.943 470.677 247.019 472.012 248.92C472.152 249.117 472.208 249.361 472.169 249.599C472.129 249.837 471.998 250.05 471.802 250.191C471.664 250.278 471.504 250.326 471.341 250.328Z" fill="#34283A"/>
<path d="M432.701 256.341C432.626 256.353 432.55 256.353 432.475 256.341C432.271 256.3 432.091 256.182 431.972 256.012C431.853 255.841 431.804 255.632 431.835 255.427C432.467 251.842 436.206 250.741 438.092 250.668C438.298 250.668 438.497 250.746 438.648 250.888C438.798 251.029 438.889 251.223 438.901 251.429C438.902 251.634 438.824 251.832 438.685 251.982C438.545 252.132 438.353 252.224 438.148 252.238C437.97 252.238 433.956 252.457 433.389 255.686C433.358 255.853 433.275 256.007 433.152 256.125C433.028 256.243 432.871 256.318 432.701 256.341Z" fill="#34283A"/>
<path d="M264.157 785.937C264.157 785.937 264.157 810.91 319.866 807.066C375.576 803.222 415.931 803.222 415.931 803.222C415.931 803.222 499.709 795.3 586.911 793.625C686.813 791.698 625.332 782.093 510.021 778.249C394.709 774.405 264.157 785.937 264.157 785.937Z" fill="#288453"/>
<path d="M227.177 500.478C227.177 500.478 241.673 595.761 240.054 631.368C238.435 666.975 221.989 756.803 221.989 756.803L225.226 790.792L294.023 791.601L305.354 799.694C305.354 799.694 353.917 798.076 356.345 798.076C358.773 798.076 366.057 787.555 376.579 788.364C383.192 788.874 412.135 795.13 459.135 794.838C486.905 794.66 520.737 791.925 520.737 791.925L513.906 678.378C513.906 678.378 541.692 623.275 540.073 603.044C538.454 582.813 536.835 487.32 536.835 487.32C536.835 487.32 282.279 486.94 227.177 500.478Z" fill="#856792"/>
<path d="M536.835 487.32L462.373 497.84L502.032 502.696L519.838 784.318L572.82 780.272L548.49 725.76L536.835 487.32Z" fill="#BB83C3"/>
<path d="M304.545 484.083C304.545 484.083 438.043 478.75 461.564 479.227C501.223 480.037 539.264 484.083 536.835 487.32C534.407 490.557 503.117 493.794 481.798 494.603C479.685 494.684 502.032 502.696 502.032 502.696L437.282 513.216L358.773 505.124L353.917 507.551C353.917 507.551 331.254 509.17 323.16 510.788C298.879 511.598 264.076 513.216 286.739 503.505H249.766C231.151 503.505 218.33 502.324 232.769 497.84C256.241 490.557 266.504 485.701 304.545 484.083Z" fill="#665070"/>
<path d="M327.296 485.305C327.296 485.305 415.429 481.784 430.961 482.068C457.136 482.602 479.645 487.32 478.042 489.456C476.44 491.593 461.377 493.422 447.286 493.94C445.894 493.996 447.934 497.177 424.875 499.701C411.496 501.19 363.079 497.783 358.279 498.423C353.48 499.062 348.89 499.232 343.549 500.341C327.515 500.875 249.175 499.386 264.141 492.977C264.157 492.985 302.19 486.373 327.296 485.305Z" fill="#4B3355"/>
<path d="M353.65 507.26L354.143 572.082L355.867 797.274L393.576 790.792L388.259 738.708L383.265 689.902L369.182 716.793L372.532 560.962L368.218 506.135L359.251 505.18L353.65 507.26Z" fill="#665070"/>
<path d="M402.471 503.724L416.238 543.968L417.849 504.533L402.471 503.724Z" fill="#665070"/>
<path d="M282.692 524.546L294.023 619.229L301.307 688.825L294.897 784.027L256.468 768.659L285.29 703.352L281.445 509.34L282.692 524.546Z" fill="#665070"/>
<path d="M488.71 793.349L485.238 754.4L481.547 707.964L493.841 755.8L501.53 790.501L488.71 793.349Z" fill="#665070"/>
<path d="M294.023 798.885C293.213 797.266 292.404 751.138 292.404 751.138L294.832 706.629L305.354 799.694L294.023 798.885Z" fill="#665070"/>
<path d="M221.989 790.792L297.455 789.789L270.559 759.053L234.696 725.76L241.106 656.609L221.989 790.792Z" fill="#665070"/>
<path d="M280.263 512.407L283.501 560.153L285.929 512.407H280.263Z" fill="#665070"/>
<path d="M440.52 679.924L441.03 715.887L445.376 754.375L448.614 700.155L440.52 679.924Z" fill="#665070"/>
<path d="M512.554 539.113L514.731 613.759L523.327 615.863L525.504 650.79L527.123 667.785L530.603 688.186L533.76 671.475L526.2 614.932L519.863 606.896L512.554 539.113Z" fill="#856792"/>
<path d="M459.945 496.594C449.293 494.886 414.345 502.558 445.028 502.987C475.711 503.416 470.612 498.301 459.945 496.594Z" fill="#4B3355"/>
<path d="M497.217 782.934L495.598 749.18C495.598 749.18 498.714 707.163 498.155 704.671C497.597 702.178 485.731 669.403 485.731 669.403C485.731 669.403 492.061 706.694 491.996 709.332C491.931 711.97 489.714 755.096 489.714 755.096L497.217 782.934Z" fill="#665070"/>
<path d="M320.514 513.184L302.578 504.217L312.825 592.58L311.546 634.84L321.793 590.015L316.669 569.524L320.514 513.184Z" fill="#665070"/>
<path d="M421.58 507.098C422.204 513.572 422.746 584.447 422.746 584.447C422.746 584.447 410.961 624.441 410.322 630.81C409.683 637.179 410.387 579.333 412.054 575.634L409.95 532.946L421.58 507.098Z" fill="#665070"/>
<path d="M353.811 732.161L370.46 752.652L348.688 765.454L353.811 732.161Z" fill="#856792"/>
<path d="M507.504 488.21L512.627 515.741L517.75 490.128L507.504 488.21Z" fill="#665070"/>
<path d="M292.331 587.458C292.331 587.458 275.682 597.703 289.774 597.703C303.865 597.703 303.857 590.015 292.331 587.458Z" fill="#33A86D"/>
<path d="M288.487 616.906C288.487 616.906 287.208 637.397 297.455 624.594C307.701 611.792 300.02 609.227 288.487 616.906Z" fill="#33A86D"/>
<path d="M284.65 616.907C287.208 614.349 273.125 607.94 270.559 613.063C267.994 618.185 282.085 619.472 284.65 616.907Z" fill="#33A86D"/>
<path d="M292.655 680.296C292.655 680.296 269.596 695.672 282.408 695.672C295.221 695.672 292.655 680.296 292.655 680.296Z" fill="#33A86D"/>
<path d="M284.966 659.805C296.483 665.559 295.213 673.895 287.532 673.895C279.851 673.895 279.843 657.264 284.966 659.805Z" fill="#33A86D"/>
<path d="M444.251 698.803C441.086 692.483 427.796 693.746 434.757 700.705C441.718 707.665 447.416 705.132 444.251 698.803Z" fill="#33A86D"/>
<path d="M453.389 715.83C453.389 715.83 432.256 727.362 449.544 727.362C466.832 727.362 462.033 715.83 453.389 715.83Z" fill="#33A86D"/>
<path d="M317.309 545.838C305.783 547.116 295.536 562.484 312.185 565.041C328.834 567.598 328.826 544.559 317.309 545.838Z" fill="#33A86D"/>
<path d="M324.99 572.729C317.948 573.368 306.422 584.253 324.35 585.531C342.278 586.81 332.064 572.09 324.99 572.729Z" fill="#33A86D"/>
<path d="M319.866 596.416C319.866 596.416 312.007 602.931 321.38 602.558C330.752 602.186 331.4 595.137 319.866 596.416Z" fill="#33A86D"/>
<path d="M331.821 441.427H316.345C312.298 441.427 311.165 437.907 313.917 433.577L336.288 397.29C339.016 392.952 342.108 389.464 346.187 389.464H364.519C368.566 389.464 369.699 392.985 366.947 397.314L344.147 433.577C341.42 437.907 335.9 441.427 331.821 441.427Z" fill="#F3E7D9"/>
<path d="M332.323 439.898H317.754C313.909 439.898 312.898 436.588 315.439 432.509L336.92 398.383C339.486 394.336 342.861 390.913 346.705 390.913L363.087 390.994C366.931 390.994 367.943 394.304 365.402 398.383L343.937 432.509C341.363 436.588 336.167 439.898 332.323 439.898Z" fill="#1D2538"/>
<path d="M367.814 440.302H387.449C391.496 440.302 390.921 436.96 389.019 432.841L373.083 398.358C371.181 394.239 369.4 390.897 365.377 390.897H345.742C341.695 390.897 341.404 394.239 343.314 398.358L360.044 434.297C361.954 438.416 363.791 440.302 367.814 440.302Z" fill="#F3E7D9"/>
<path d="M361.184 402.446C361.645 401.712 361.073 400.523 359.907 399.791C358.741 399.06 357.422 399.062 356.961 399.796C356.5 400.531 357.071 401.719 358.237 402.451C359.404 403.183 360.723 403.181 361.184 402.446Z" fill="#1D2538"/>
<path d="M360.902 405.309C361.363 404.575 360.792 403.386 359.626 402.655C358.459 401.923 357.14 401.925 356.679 402.66C356.218 403.394 356.79 404.583 357.956 405.314C359.122 406.046 360.441 406.044 360.902 405.309Z" fill="#1D2538"/>
<path d="M364.446 405.301C364.907 404.567 364.335 403.378 363.169 402.647C362.003 401.915 360.684 401.917 360.223 402.652C359.762 403.386 360.334 404.575 361.5 405.306C362.666 406.038 363.985 406.036 364.446 405.301Z" fill="#1D2538"/>
<path d="M361.104 407.559H363.678C363.678 407.559 362.326 407.333 360.667 404.322C362.01 407.414 361.104 407.559 361.104 407.559Z" fill="#1D2538"/>
<path d="M368.427 413.109C368.887 412.372 368.311 411.183 367.141 410.453C365.97 409.724 364.649 409.73 364.19 410.467C363.73 411.204 364.306 412.393 365.476 413.122C366.647 413.852 367.968 413.846 368.427 413.109Z" fill="#1D2538"/>
<path d="M367.478 417.691C367.939 416.957 367.367 415.768 366.201 415.037C365.035 414.305 363.716 414.307 363.255 415.042C362.794 415.776 363.366 416.965 364.532 417.696C365.698 418.428 367.017 418.426 367.478 417.691Z" fill="#1D2538"/>
<path d="M371.017 417.698C371.478 416.964 370.906 415.775 369.74 415.043C368.574 414.312 367.255 414.314 366.794 415.048C366.333 415.783 366.905 416.971 368.071 417.703C369.237 418.435 370.556 418.433 371.017 417.698Z" fill="#1D2538"/>
<path d="M367.676 419.949H370.242C370.242 419.949 368.898 419.723 367.239 416.712C368.583 419.795 367.676 419.949 367.676 419.949Z" fill="#1D2538"/>
<path d="M373.667 425.467C374.128 424.733 373.556 423.544 372.39 422.812C371.224 422.08 369.905 422.083 369.444 422.817C368.983 423.552 369.554 424.74 370.721 425.472C371.887 426.204 373.206 426.201 373.667 425.467Z" fill="#1D2538"/>
<path d="M373.374 428.333C373.835 427.598 373.263 426.41 372.097 425.678C370.931 424.947 369.612 424.949 369.151 425.683C368.69 426.418 369.262 427.606 370.428 428.338C371.594 429.07 372.913 429.067 373.374 428.333Z" fill="#1D2538"/>
<path d="M376.918 428.333C377.379 427.598 376.807 426.41 375.641 425.678C374.475 424.947 373.156 424.949 372.695 425.683C372.234 426.418 372.805 427.606 373.972 428.338C375.138 429.07 376.457 429.067 376.918 428.333Z" fill="#1D2538"/>
<path d="M373.585 430.583H376.15C376.15 430.583 374.807 430.356 373.147 427.346C374.491 430.437 373.585 430.583 373.585 430.583Z" fill="#1D2538"/>
<path d="M385.66 441.654H370.185C366.138 441.654 364.568 438.085 366.761 433.682L385.069 396.885C387.263 392.483 392.354 388.914 396.401 388.914H411.868C415.955 388.914 417.485 392.483 415.3 396.885L396.983 433.682C394.83 438.085 389.739 441.654 385.66 441.654Z" fill="#F3E7D9"/>
<path d="M385.482 440.383H371.577C367.894 440.383 366.51 437.146 368.485 433.205L386.737 397.088C387.551 395.364 388.853 393.916 390.482 392.924C392.11 391.932 393.993 391.438 395.899 391.504H409.836C413.519 391.504 414.903 394.741 412.928 398.682L395.745 433.205C393.778 437.195 389.197 440.383 385.482 440.383Z" fill="#1D2538"/>
<path d="M423.223 440.132H437.792C441.645 440.132 443.094 436.766 441.03 432.606L422.633 395.809C420.561 391.657 416.91 390.346 413.05 390.346H398.432C394.571 390.346 393.123 393.713 395.195 397.864L412.483 432.606C414.563 436.766 419.363 440.132 423.223 440.132Z" fill="#F3E7D9"/>
<path d="M416.052 407.665C416.052 407.665 416.506 409.947 413.543 408.854C411.042 407.932 412.305 405.399 413.616 403.133L416.052 407.665Z" fill="#1D2538"/>
<path d="M416.052 407.665C416.052 407.665 417.865 409.655 419.678 408.595C421.2 407.705 416.117 404.055 413.616 403.133L416.052 407.665Z" fill="#1D2538"/>
<path d="M415.777 406.791C415.777 406.791 417.007 410.076 416.87 411.128L418.335 410.707C417.251 409.568 416.385 408.241 415.777 406.791Z" fill="#1D2538"/>
<path d="M421.815 419.342C421.815 419.342 421.354 417.06 424.324 418.153C426.817 419.075 425.554 421.6 424.243 423.874L421.815 419.342Z" fill="#1D2538"/>
<path d="M421.815 419.342C421.815 419.342 419.994 417.351 418.189 418.412C416.659 419.302 421.742 422.951 424.243 423.874L421.815 419.342Z" fill="#1D2538"/>
<path d="M422.082 420.152C422.082 420.152 420.852 416.866 420.99 415.814L419.525 416.235C420.608 417.374 421.475 418.702 422.082 420.152Z" fill="#1D2538"/>
<path d="M401.152 396.974C401.152 396.974 401.306 397.784 400.342 397.379C399.533 397.063 399.922 396.198 400.342 395.421L401.152 396.974Z" fill="#1D2538"/>
<path d="M401.152 396.974C401.152 396.974 401.767 397.662 402.374 397.298C402.981 396.934 401.176 395.736 400.334 395.421L401.152 396.974Z" fill="#1D2538"/>
<path d="M401.063 396.683C401.25 397.161 401.373 397.662 401.427 398.172L401.921 398.026C401.558 397.632 401.268 397.178 401.063 396.683Z" fill="#1D2538"/>
<path d="M300.401 494.28L282.141 494.223C278.094 494.223 276.743 490.662 279.203 486.268L301.404 447.318C303.832 442.924 305.985 441.605 310.073 441.605H327.07C331.157 441.605 332.476 445.166 330.016 449.56L309.458 486.292C306.973 490.662 304.488 494.28 300.401 494.28Z" fill="#F3E7D9"/>
<path d="M300.336 493.041L283.606 492.985C279.932 492.985 278.75 489.748 280.959 485.815L302.57 448.119C304.779 444.162 307.369 443.118 311.052 443.118H325.524C329.198 443.118 329.716 447.399 327.499 451.356L308.219 485.815C306.002 489.748 304.01 493.041 300.336 493.041Z" fill="#1D2538"/>
<path d="M336.693 492.014H351.262C355.115 492.014 356.563 488.672 354.499 484.552L336.11 448.071C334.047 443.952 330.388 442.657 326.536 442.657H311.918C308.066 442.657 306.617 445.999 308.681 450.118L325.969 484.56C328.017 488.672 332.873 492.014 336.693 492.014Z" fill="#F3E7D9"/>
<path d="M332.314 466.279C332.314 466.279 332.824 468.82 329.554 467.598C326.811 466.579 328.203 463.77 329.643 461.246L332.314 466.279Z" fill="#1D2538"/>
<path d="M332.314 466.279C332.314 466.279 334.314 468.497 336.305 467.315C337.98 466.328 332.387 462.265 329.644 461.246L332.314 466.279Z" fill="#1D2538"/>
<path d="M332.015 465.268C332.015 465.268 333.375 468.925 333.221 470.123L334.84 469.654C333.639 468.376 332.682 466.889 332.015 465.268Z" fill="#1D2538"/>
<path d="M314.63 449.228C314.63 449.228 314.783 450.037 313.82 449.633C313.011 449.317 313.407 448.451 313.82 447.682L314.63 449.228Z" fill="#1D2538"/>
<path d="M314.629 449.228C314.629 449.228 315.237 449.9 315.852 449.544C316.467 449.188 314.646 447.998 313.812 447.682L314.629 449.228Z" fill="#1D2538"/>
<path d="M314.532 448.929C314.723 449.4 314.848 449.896 314.905 450.402L315.398 450.264C315.033 449.874 314.739 449.422 314.532 448.929Z" fill="#1D2538"/>
<path d="M352.476 492.176H337.001C332.954 492.176 331.384 488.728 333.221 484.479L351.529 448.937C354.078 444.688 358.052 441.322 362.14 441.322L378.716 441.241C382.803 441.241 384.333 444.688 382.148 448.937L362.674 486.325C360.489 490.557 356.555 492.176 352.476 492.176Z" fill="#F3E7D9"/>
<path d="M352.646 491.366H337.673C333.723 491.366 332.234 488.032 334.354 483.921L352.079 449.52C354.2 445.409 359.121 442.074 363.071 442.074H378.052C382.002 442.074 383.483 445.409 381.363 449.52L362.48 485.766C360.392 489.885 356.604 491.366 352.646 491.366Z" fill="#1D2538"/>
<path d="M398.311 491.366H413.325C417.291 491.366 418.78 487.927 416.651 483.694L397.097 446.469C394.968 442.228 394.766 440.577 390.8 440.577H372.832C368.874 440.577 367.385 444.008 369.505 448.249L388.768 485.944C390.897 490.193 394.385 491.366 398.311 491.366Z" fill="#F3E7D9"/>
<path d="M382.674 453.59L378.991 451.437L380.383 448.192L384.228 450.839L382.674 453.59Z" fill="#1D2538"/>
<path d="M375.325 452.198L373.698 451.251L374.313 449.811L376.013 450.984L375.325 452.198Z" fill="#1D2538"/>
<path d="M397.404 486.009L393.73 483.856L395.122 480.611L398.958 483.258L397.404 486.009Z" fill="#1D2538"/>
<path d="M395.26 453.056L391.585 450.903L392.977 447.658L396.822 450.305L395.26 453.056Z" fill="#1D2538"/>
<path d="M396.603 468.327L392.928 466.174L394.312 462.929L398.157 465.575L396.603 468.327Z" fill="#1D2538"/>
<path d="M416.028 492.176H400.561C396.474 492.176 394.936 488.728 397.129 484.48L415.008 448.872C417.202 444.615 419.865 441.208 423.911 441.208H442.244C446.291 441.208 447.861 444.656 445.667 448.905L427.351 484.447C425.198 488.744 420.115 492.176 416.028 492.176Z" fill="#F3E7D9"/>
<path d="M416.344 490.695H401.775C397.93 490.695 396.49 487.458 398.537 483.452L415.777 449.997C417.841 445.999 420.795 442.714 424.64 442.714L441.03 442.795C444.874 442.795 446.315 446.032 444.267 450.078L427.027 483.533C424.972 487.449 420.188 490.695 416.344 490.695Z" fill="#1D2538"/>
<path d="M448.937 491.366H468.581C472.628 491.366 471.818 487.976 469.69 483.792L451.673 448.824C449.52 444.64 447.537 441.257 443.514 441.257H423.879C419.832 441.257 419.751 444.648 421.904 448.832L440.811 485.248C442.948 489.457 444.915 491.366 448.937 491.366Z" fill="#F3E7D9"/>
<path d="M456.149 481.089C456.149 481.089 458.391 483.622 460.333 482.384C461.952 481.348 456.108 477.034 453.365 476.055L456.149 481.089Z" fill="#1D2538"/>
<path d="M456.149 481.089C456.149 481.089 456.707 483.646 453.47 482.465C450.726 481.485 451.746 477.075 453.373 476.039L456.149 481.089Z" fill="#1D2538"/>
<path d="M464.971 486.956C464.971 486.956 465.707 487.806 466.339 487.393C466.97 486.98 464.963 485.604 464.064 485.281L464.971 486.956Z" fill="#1D2538"/>
<path d="M464.971 486.956C464.971 486.956 465.165 487.814 464.097 487.425C463.198 487.102 463.53 485.629 464.097 485.281L464.971 486.956Z" fill="#1D2538"/>
<path d="M439.387 450.499C439.387 450.499 438.885 447.958 442.147 449.18C444.89 450.199 443.765 454.537 442.058 455.532L439.387 450.499Z" fill="#1D2538"/>
<path d="M439.387 450.499C439.387 450.499 437.193 447.95 435.202 449.131C433.527 450.118 439.314 454.513 442.058 455.532L439.387 450.499Z" fill="#1D2538"/>
<path d="M426.696 448.111C426.696 448.111 426.509 447.132 427.699 447.601C428.695 447.998 428.274 449.681 427.699 450.029L426.696 448.111Z" fill="#1D2538"/>
<path d="M426.696 448.111C426.696 448.111 425.886 447.124 425.174 447.585C424.462 448.047 426.671 449.665 427.667 450.062L426.696 448.111Z" fill="#1D2538"/>
<path d="M454.125 440.585H295.65C295.086 440.585 294.63 441.04 294.63 441.601C294.63 442.162 295.086 442.616 295.65 442.616H454.125C454.689 442.616 455.145 442.162 455.145 441.601C455.145 441.04 454.689 440.585 454.125 440.585Z" fill="#1D2538"/>
<path d="M418.586 388.25H340.878C340.315 388.25 339.858 388.705 339.858 389.266C339.858 389.827 340.315 390.282 340.878 390.282H418.586C419.149 390.282 419.606 389.827 419.606 389.266C419.606 388.705 419.149 388.25 418.586 388.25Z" fill="#1D2538"/>
<path d="M221.179 764.087C221.179 764.087 180.71 765.705 172.617 768.942C164.523 772.179 175.854 775.416 175.854 775.416C175.854 775.416 125.673 775.416 121.626 781.081C117.579 786.746 158.857 785.127 158.857 785.127C158.857 785.127 194.47 789.983 229.273 784.318C264.076 778.653 261.648 762.468 221.179 764.087Z" fill="#288453"/>
<path d="M242.223 753.566C242.223 753.566 235.748 728.479 217.132 737.381C198.516 746.283 219.56 768.133 219.56 768.133C219.56 768.133 211.466 758.422 201.754 768.942C192.041 779.463 196.088 789.983 196.088 789.983C196.088 789.983 192.851 782.7 176.663 790.792C160.476 798.885 156.429 806.168 156.429 806.168C156.429 806.168 170.188 809.405 188.804 806.168C207.42 802.931 251.935 796.457 260.029 796.457C268.123 796.457 241.413 803.741 268.123 803.741C294.832 803.741 306.163 807.787 303.735 801.313C301.307 794.839 298.07 779.463 289.976 783.509C289.976 783.509 286.738 769.752 272.17 772.179C257.601 774.607 257.601 787.555 257.601 787.555C257.601 787.555 251.126 760.85 242.223 768.942C242.223 768.942 257.601 751.948 242.223 753.566Z" fill="#33A86D"/>
<path d="M293.213 737.381C283.501 739.809 276.217 748.711 287.548 752.757C298.879 756.803 302.926 734.953 293.213 737.381Z" fill="#33A86D"/>
<path d="M330.445 768.133C330.445 768.133 323.16 751.138 316.685 761.659C310.21 772.179 321.541 779.462 321.541 779.462C321.541 779.462 304.545 771.37 305.354 779.462C306.163 787.555 320.732 789.983 320.732 789.983C320.732 789.983 311.02 802.122 330.445 805.359C349.87 808.596 387.101 802.931 387.101 799.694C387.101 796.457 357.963 796.457 357.963 796.457C357.963 796.457 375.77 785.127 360.391 778.653C345.013 772.179 345.823 787.555 345.823 787.555C345.823 787.555 339.348 761.659 330.445 768.133Z" fill="#33A86D"/>
<path d="M385.482 806.977C385.482 806.977 337.729 809.405 362.01 813.451C386.291 817.498 401.67 805.359 385.482 806.977Z" fill="#33A86D"/>
<path d="M433.235 799.694C433.235 799.694 422.713 783.509 434.045 774.607C445.376 765.705 447.804 786.746 447.804 786.746C447.804 786.746 452.66 772.988 459.135 779.462C465.61 785.937 459.135 791.601 459.135 791.601C459.135 791.601 470.467 781.081 482.607 784.318C494.748 787.555 496.367 789.174 488.273 791.601C480.179 794.029 522.267 794.838 479.37 801.312C436.473 807.787 433.235 799.694 433.235 799.694Z" fill="#33A86D"/>
<path d="M385.482 760.04C377.388 765.705 383.054 772.988 390.338 771.37C397.623 769.751 393.576 754.375 385.482 760.04Z" fill="#33A86D"/>
<path d="M307.782 725.242C304.545 730.907 318.304 742.237 318.304 730.907C318.304 719.577 311.02 719.577 307.782 725.242Z" fill="#33A86D"/>
<path d="M298.07 708.248C298.07 708.248 301.307 721.196 306.163 714.722C311.02 708.248 303.735 700.964 298.07 708.248Z" fill="#33A86D"/>
<path d="M538.891 785.127C529.179 785.046 517.783 763.172 528.482 754.254C539.182 745.336 544.84 766.838 544.84 766.838C544.84 766.838 550.837 749.35 557.96 757.742C565.082 766.134 559.7 781.146 559.7 781.146C559.7 781.146 575.952 759.652 577.304 766.854C577.304 766.854 584.831 758.988 592.941 769.751C601.051 780.514 590.311 778.054 590.311 778.054C590.311 778.054 637.368 777.803 610.043 781.461C582.719 785.119 548.644 785.216 538.891 785.127Z" fill="#288453"/>
<path d="M525.504 730.907C525.504 730.907 523.885 748.711 532.788 741.427C541.692 734.144 534.407 723.624 525.504 730.907Z" fill="#288453"/>
</svg>
