<svg width="97" height="97" fill="none" xmlns="http://www.w3.org/2000/svg"><path d="M52.688 49.262V23.934a2.393 2.393 0 00-2.39-2.39h-7.78V19.42a.937.937 0 00-.938-.938h-.074v-.355a5.008 5.008 0 00-5.003-5.002H25.33a5.008 5.008 0 00-5.003 5.002v.355h-.112a.937.937 0 00-.937.938v2.124h-7.743a2.393 2.393 0 00-2.39 2.39v25.328a2.393 2.393 0 002.39 2.39h38.764a2.393 2.393 0 002.39-2.39zM26.593 21.545V19.42a.937.937 0 00-.937-.937h-.046l-.003-.304 10.605-.013v.316h-.074a.937.937 0 00-.937.938v2.124h-8.608zm10.482-1.187h3.567v1.187h-3.567v-1.187zm-14.874-2.23A3.131 3.131 0 0125.328 15h11.175a3.131 3.131 0 013.127 3.128v.355h-1.543v-.317a1.864 1.864 0 00-1.862-1.862H25.607a1.864 1.864 0 00-1.862 1.862v.317H22.2v-.355zm-1.05 2.23h3.567v1.187h-3.566v-1.187zM11.02 49.262v-5.595h13.657a.937.937 0 100-1.875H11.02V23.934c0-.283.23-.515.514-.515h38.763c.284 0 .515.231.515.515v17.857H37.155a.937.937 0 100 1.875h13.657v5.596a.516.516 0 01-.515.516H11.534a.516.516 0 01-.515-.516z" fill="#000"/><path d="M32.299 38.988h-2.766a2.047 2.047 0 00-2.044 2.044v4.703c0 1.127.917 2.043 2.044 2.043h2.766a2.046 2.046 0 002.044-2.043v-4.703a2.046 2.046 0 00-2.044-2.044zm.169 6.746a.169.169 0 01-.17.169h-2.765a.169.169 0 01-.17-.169v-4.702a.17.17 0 01.17-.17h2.766a.17.17 0 01.169.17v4.702zm53.329 8.589h-7.78V52.2a.937.937 0 00-.938-.938h-.073v-.355a5.008 5.008 0 00-5.003-5.002H60.829a5.008 5.008 0 00-5.003 5.002v.355h-.111a.937.937 0 00-.938.938v2.124h-7.743a2.393 2.393 0 00-2.39 2.39v25.328a2.393 2.393 0 002.39 2.39h38.764a2.393 2.393 0 002.39-2.39V56.713a2.394 2.394 0 00-2.39-2.39zm-23.703 0V52.2a.937.937 0 00-.938-.938h-.046l-.003-.304 10.605-.013v.317h-.074a.937.937 0 00-.937.937v2.125h-8.607zm10.481-1.187h3.567v1.187h-3.567v-1.187zm-14.874-2.23a3.131 3.131 0 013.127-3.128h11.175a3.13 3.13 0 013.127 3.128v.355h-1.543v-.317a1.864 1.864 0 00-1.863-1.862H61.107a1.864 1.864 0 00-1.863 1.862v.317H57.7v-.355zm-1.05 2.23h3.567v1.187h-3.566v-1.187zm29.146 29.42H47.034a.516.516 0 01-.515-.515v-5.596h13.657a.937.937 0 100-1.875H46.52V56.713c0-.284.23-.515.515-.515h38.763c.284 0 .516.23.516.515V74.57H72.655a.937.937 0 100 1.875h13.658v5.596a.516.516 0 01-.516.515z" fill="#000"/><path d="M67.799 71.766h-2.767a2.046 2.046 0 00-2.043 2.044v4.703c0 1.127.917 2.043 2.044 2.043h2.766a2.046 2.046 0 002.043-2.043V73.81a2.046 2.046 0 00-2.043-2.044zm.169 6.746a.169.169 0 01-.17.17h-2.765a.169.169 0 01-.169-.17V73.81a.17.17 0 01.169-.17h2.766a.17.17 0 01.169.17v4.702z" fill="#000"/><path d="M70.648 38.5a.937.937 0 00-1.325 0l-1.847 1.847v-2.884a6.82 6.82 0 00-6.813-6.812h-5.04a.937.937 0 100 1.875h5.04a4.943 4.943 0 014.938 4.937v2.884l-1.847-1.846a.937.937 0 00-1.325 1.325l3.446 3.446a.947.947 0 00.144.118c.022.015.046.025.07.038.03.016.059.035.09.048.031.013.063.02.095.03.027.007.053.017.081.023a.94.94 0 00.367 0c.028-.006.054-.016.081-.024.032-.01.063-.016.094-.029.032-.013.061-.031.091-.048.024-.013.048-.023.07-.038a.947.947 0 00.144-.118l3.446-3.446a.937.937 0 000-1.325zM41.709 65.03h-5.041a4.943 4.943 0 01-4.937-4.937v-2.884l1.846 1.846a.935.935 0 001.326 0 .937.937 0 000-1.325l-3.446-3.446a.942.942 0 00-.144-.118c-.022-.015-.046-.025-.07-.038-.03-.016-.059-.035-.091-.048-.03-.013-.062-.02-.094-.029-.027-.008-.053-.018-.08-.024a.945.945 0 00-.368 0c-.028.006-.054.016-.08.024-.032.01-.064.017-.095.03-.032.012-.06.03-.091.047-.023.013-.048.023-.07.038a.947.947 0 00-.144.118l-3.447 3.446a.937.937 0 101.326 1.325l1.847-1.846v2.884a6.82 6.82 0 006.812 6.813h5.041a.937.937 0 100-1.876z" fill="#F9BC6E"/></svg>