<svg xmlns="http://www.w3.org/2000/svg">
    <symbol id="facebook" width="25" height="25" viewBox="0 0 25 25">
        <g clip-path="url(#clip0_0_1237)">
        <path d="M14.3378 14.2861H16.8403L17.8414 10.2861H14.3378V8.28613C14.3378 7.25613 14.3378 6.28613 16.3398 6.28613H17.8414V2.92613C17.515 2.88313 16.2828 2.78613 14.9814 2.78613C12.2636 2.78613 10.3336 4.44313 10.3336 7.48613V10.2861H7.33057V14.2861H10.3336V22.7861H14.3378V14.2861Z" fill="black"/>
        </g>
        <defs>
        <clipPath id="clip0_0_1237">
        <rect width="24.0247" height="24" fill="white" transform="translate(0.323242 0.786133)"/>
        </clipPath>
        </defs>
    </symbol>

    <symbol id="twitter" width="25" height="25" viewBox="0 0 25 25">
        <path d="M22.5554 6.44206C21.7911 6.77975 20.9807 7.00153 20.1509 7.10006C21.0255 6.57749 21.6802 5.75507 21.9928 4.78606C21.1719 5.27406 20.272 5.61606 19.334 5.80106C18.704 5.12764 17.8689 4.68102 16.9586 4.53064C16.0482 4.38027 15.1136 4.53455 14.3001 4.96951C13.4866 5.40447 12.8398 6.09574 12.4601 6.93585C12.0804 7.77596 11.9892 8.71784 12.2007 9.61506C10.5361 9.53171 8.90765 9.09958 7.42108 8.34672C5.9345 7.59386 4.62304 6.53711 3.57183 5.24506C3.19974 5.88351 3.0042 6.60929 3.00525 7.34806C3.00525 8.79806 3.74401 10.0791 4.86716 10.8291C4.20249 10.8082 3.55244 10.6288 2.97121 10.3061V10.3581C2.97141 11.3238 3.30592 12.2597 3.91803 13.0071C4.53014 13.7546 5.38217 14.2675 6.32967 14.4591C5.71265 14.6261 5.06567 14.6507 4.43772 14.5311C4.70486 15.3623 5.22554 16.0893 5.92684 16.6102C6.62815 17.1311 7.47497 17.4199 8.34874 17.4361C7.48033 18.1174 6.486 18.621 5.42261 18.9182C4.35922 19.2154 3.24762 19.3003 2.15137 19.1681C4.06503 20.3975 6.29273 21.0502 8.56797 21.0481C16.2689 21.0481 20.4802 14.6751 20.4802 9.14806C20.4802 8.96806 20.4752 8.78606 20.4672 8.60806C21.2869 8.01623 21.9944 7.28308 22.5564 6.44306L22.5554 6.44206Z" fill="black"/>
    </symbol>

    <symbol id="linkedin" width="25" height="25" viewBox="0 0 25 25">
        <path d="M18.7717 19.1251H16.1039V14.9481C16.1039 13.9521 16.0839 12.6701 14.7125 12.6701C13.3221 12.6701 13.1099 13.7541 13.1099 14.8751V19.1251H10.4411V10.5361H13.0038V11.7061H13.0388C13.3972 11.0321 14.2681 10.3191 15.5694 10.3191C18.2722 10.3191 18.7727 12.0971 18.7727 14.4101V19.1251H18.7717ZM7.42802 9.36113C7.22437 9.3614 7.02266 9.3215 6.83447 9.24374C6.64628 9.16598 6.47531 9.05187 6.33135 8.90797C6.18739 8.76406 6.07328 8.59319 5.99556 8.40515C5.91784 8.2171 5.87803 8.01558 5.87843 7.81213C5.87862 7.50597 5.9697 7.20674 6.14014 6.95228C6.31057 6.69782 6.55272 6.49957 6.83594 6.38259C7.11917 6.2656 7.43076 6.23515 7.73131 6.29507C8.03187 6.355 8.30788 6.50261 8.52446 6.71924C8.74103 6.93587 8.88844 7.21179 8.94804 7.51211C9.00763 7.81244 8.97674 8.12367 8.85928 8.40645C8.74181 8.68924 8.54304 8.93087 8.2881 9.1008C8.03316 9.27074 7.7335 9.36133 7.42702 9.36113H7.42802ZM8.7654 19.1251H6.08964V10.5361H8.7664V19.1251H8.7654ZM20.1081 3.78613H4.75127C4.01451 3.78613 3.4209 4.36613 3.4209 5.08313V20.4891C3.4209 21.2061 4.01551 21.7861 4.75027 21.7861H20.1041C20.8388 21.7861 21.4394 21.2061 21.4394 20.4891V5.08313C21.4394 4.36613 20.8388 3.78613 20.1041 3.78613H20.1071H20.1081Z" fill="black"/>
    </symbol>

    <symbol id="instagram" width="25" height="25" viewBox="0 0 25 25">
        <path d="M12.4776 9.78613C11.6811 9.78613 10.9172 10.1022 10.3541 10.6648C9.79087 11.2274 9.47448 11.9905 9.47448 12.7861C9.47448 13.5818 9.79087 14.3448 10.3541 14.9075C10.9172 15.4701 11.6811 15.7861 12.4776 15.7861C13.274 15.7861 14.0379 15.4701 14.6011 14.9075C15.1642 14.3448 15.4806 13.5818 15.4806 12.7861C15.4806 11.9905 15.1642 11.2274 14.6011 10.6648C14.0379 10.1022 13.274 9.78613 12.4776 9.78613ZM12.4776 7.78613C13.805 7.78613 15.0781 8.31292 16.0167 9.2506C16.9554 10.1883 17.4827 11.4601 17.4827 12.7861C17.4827 14.1122 16.9554 15.384 16.0167 16.3217C15.0781 17.2593 13.805 17.7861 12.4776 17.7861C11.1501 17.7861 9.87704 17.2593 8.93839 16.3217C7.99975 15.384 7.47242 14.1122 7.47242 12.7861C7.47242 11.4601 7.99975 10.1883 8.93839 9.2506C9.87704 8.31292 11.1501 7.78613 12.4776 7.78613ZM18.9842 7.53613C18.9842 7.86765 18.8524 8.1856 18.6177 8.42002C18.3831 8.65444 18.0648 8.78613 17.733 8.78613C17.4011 8.78613 17.0828 8.65444 16.8482 8.42002C16.6135 8.1856 16.4817 7.86765 16.4817 7.53613C16.4817 7.20461 16.6135 6.88667 16.8482 6.65225C17.0828 6.41783 17.4011 6.28613 17.733 6.28613C18.0648 6.28613 18.3831 6.41783 18.6177 6.65225C18.8524 6.88667 18.9842 7.20461 18.9842 7.53613ZM12.4776 4.78613C10.001 4.78613 9.5966 4.79313 8.44442 4.84413C7.65962 4.88113 7.13307 4.98613 6.64457 5.17613C6.21013 5.34413 5.89681 5.54513 5.56346 5.87913C5.25015 6.18153 5.00925 6.55072 4.85874 6.95913C4.66854 7.44913 4.56344 7.97413 4.5274 8.75713C4.47535 9.86113 4.46934 10.2471 4.46934 12.7861C4.46934 15.2601 4.47635 15.6641 4.5274 16.8151C4.56444 17.5981 4.66955 18.1251 4.85874 18.6121C5.02891 19.0471 5.22912 19.3601 5.56146 19.6921C5.89881 20.0281 6.21213 20.2291 6.64257 20.3951C7.13708 20.5861 7.66362 20.6921 8.44442 20.7281C9.54955 20.7801 9.93595 20.7861 12.4776 20.7861C14.9541 20.7861 15.3585 20.7791 16.5107 20.7281C17.2935 20.6911 17.821 20.5861 18.3095 20.3971C18.743 20.2281 19.0583 20.0271 19.3907 19.6951C19.728 19.3581 19.9292 19.0451 20.0954 18.6151C20.2856 18.1221 20.3917 17.5951 20.4277 16.8151C20.4798 15.7111 20.4858 15.3251 20.4858 12.7861C20.4858 10.3121 20.4788 9.90813 20.4277 8.75713C20.3907 7.97513 20.2856 7.44713 20.0954 6.95913C19.9445 6.55113 19.7041 6.18209 19.3917 5.87913C19.0891 5.56598 18.7195 5.3253 18.3105 5.17513C17.82 4.98513 17.2935 4.88013 16.5107 4.84413C15.4056 4.79213 15.0192 4.78613 12.4776 4.78613ZM12.4776 2.78613C15.1974 2.78613 15.5367 2.79613 16.6038 2.84613C17.6699 2.89613 18.3956 3.06313 19.0343 3.31113C19.695 3.56513 20.2515 3.90913 20.8081 4.46413C21.3171 4.96403 21.711 5.56872 21.9623 6.23613C22.2095 6.87313 22.3777 7.59913 22.4278 8.66413C22.4748 9.73013 22.4878 10.0691 22.4878 12.7861C22.4878 15.5031 22.4778 15.8421 22.4278 16.9081C22.3777 17.9731 22.2095 18.6981 21.9623 19.3361C21.7117 20.0039 21.3178 20.6087 20.8081 21.1081C20.3076 21.6165 19.7023 22.0099 19.0343 22.2611C18.3966 22.5081 17.6699 22.6761 16.6038 22.7261C15.5367 22.7731 15.1974 22.7861 12.4776 22.7861C9.75777 22.7861 9.41842 22.7761 8.35132 22.7261C7.28523 22.6761 6.55949 22.5081 5.92083 22.2611C5.25247 22.0106 4.64705 21.6171 4.14701 21.1081C3.63789 20.6083 3.24401 20.0036 2.99282 19.3361C2.74457 18.6991 2.5774 17.9731 2.52735 16.9081C2.4803 15.8421 2.46729 15.5031 2.46729 12.7861C2.46729 10.0691 2.4773 9.73013 2.52735 8.66413C2.5774 7.59813 2.74457 6.87413 2.99282 6.23613C3.24332 5.56831 3.63729 4.96345 4.14701 4.46413C4.64719 3.95536 5.25257 3.56186 5.92083 3.31113C6.55949 3.06313 7.28423 2.89613 8.35132 2.84613C9.41842 2.79913 9.75777 2.78613 12.4776 2.78613Z" fill="black"/>
    </symbol>

    <symbol id="arrow-left" width="56" height="57" viewBox="0 0 56 57">
        <path d="M28.7945 35.1785L35.6289 28.3442C35.9594 28.0172 35.9594 27.4828 35.6289 27.1524L28.7945 20.3215C28.4676 19.991 27.9332 19.991 27.6027 20.3215L26.8222 21.102C26.4848 21.436 26.4918 21.9809 26.8363 22.3079L31.0726 26.3438H20.9687C20.5012 26.3438 20.125 26.72 20.125 27.1875V28.3125C20.125 28.7801 20.5012 29.1563 20.9687 29.1563H31.0726L26.8363 33.1922C26.4953 33.5191 26.4883 34.0641 26.8222 34.398L27.6027 35.1785C27.9297 35.509 28.464 35.509 28.7945 35.1785Z" fill="#F9BC6E"/>
    </symbol>

    <symbol id="arrow-right" width="56" height="57" viewBox="0 0 56 57">
        <path d="M28.3971 35.1785L29.1775 34.398C29.515 34.0641 29.508 33.5191 29.1635 33.1922L24.9271 29.1563H35.031C35.4986 29.1563 35.8748 28.7801 35.8748 28.3125V27.1875C35.8748 26.72 35.4986 26.3438 35.031 26.3438H24.9271L29.1635 22.3079C29.5045 21.9809 29.5115 21.436 29.1775 21.102L28.3971 20.3215C28.0701 19.991 27.5357 19.991 27.2053 20.3215L20.3709 27.1559C20.0404 27.4828 20.0404 28.0172 20.3709 28.3477L27.2053 35.1785C27.5322 35.509 28.0666 35.509 28.3971 35.1785Z" fill="#959EAD"/>
    </symbol>

    <symbol id="quote" width="100" height="88" viewBox="0 0 100 88">
        <path fill-rule="evenodd" clip-rule="evenodd" d="M43.7499 78.375C43.7499 83.5508 39.5507 87.75 34.3749 87.75H9.37498C4.19921 87.75 0 83.5508 0 78.375V31.5001C0 14.2344 13.9843 0.250183 31.2499 0.250183H32.8124C35.41 0.250183 37.4999 2.34006 37.4999 4.93767V14.3126C37.4999 16.9103 35.41 19.0001 32.8124 19.0001H31.2499C24.3554 19.0001 18.75 24.6056 18.75 31.5001V44.0001H34.3749C39.5507 44.0001 43.7499 48.1993 43.7499 53.3751V78.375ZM99.9998 78.375C99.9998 83.5508 95.8006 87.75 90.6248 87.75H65.6248C60.4491 87.75 56.2499 83.5508 56.2499 78.375V31.5001C56.2499 14.2344 70.2341 0.250183 87.4998 0.250183H89.0623C91.6599 0.250183 93.7498 2.34006 93.7498 4.93767V14.3126C93.7498 16.9103 91.6599 19.0001 89.0623 19.0001H87.4998C80.6053 19.0001 74.9998 24.6056 74.9998 31.5001V44.0001H90.6248C95.8006 44.0001 99.9998 48.1993 99.9998 53.3751V78.375Z" fill="black"/>
    </symbol>

    <symbol id="marketing" width="103" height="102" viewBox="0 0 103 102">
        <g clip-path="url(#clip0_0_1691)">
            <path d="M19.3711 77.9451L29.4036 95.3231C31.5685 99.0771 36.4385 100.467 40.2898 98.2405C44.1006 96.0382 45.4104 91.169 43.2057 87.3551L37.2292 77.0019L42.4049 74.0136C43.3575 73.4627 43.6843 72.2448 43.1341 71.2923L40.5435 66.8052C40.8524 66.7453 42.8835 66.3468 78.7017 59.3205C83.1296 59.08 85.7825 54.2373 83.546 50.3658L76.925 38.8982L81.1561 32.4898C81.5717 31.8594 81.5966 31.0493 81.2191 30.3956L77.2348 23.4946C76.8573 22.8409 76.1406 22.458 75.3897 22.5024L67.7252 22.9623L60.3751 10.231C59.3105 8.38663 57.4032 7.26991 55.274 7.24345C55.2483 7.24268 55.2234 7.24268 55.1978 7.24268C53.1402 7.24268 51.2725 8.26678 50.1659 9.99828L24.1414 43.1511L7.22261 52.919C0.568236 56.7594 -1.73679 65.2963 2.11841 71.9685C5.64053 78.0696 13.0661 80.4696 19.3711 77.9451ZM39.756 89.348C40.8563 91.2515 40.205 93.6873 38.2961 94.79C36.3809 95.8974 33.942 95.2172 32.8541 93.3316L22.8932 76.0767L29.7942 72.0923C41.3225 92.0624 39.5708 89.0282 39.756 89.348ZM35.237 73.5506L33.2448 70.1001L36.6953 68.1079L38.6875 71.5584L35.237 73.5506ZM74.3998 26.5529L77.1531 31.3217L74.6978 35.0399L69.9524 26.8198L74.3998 26.5529ZM53.4982 12.1827C54.0328 11.308 54.881 11.2177 55.225 11.2271C55.5651 11.2309 56.4125 11.3368 56.9238 12.2224L80.0954 52.3579C80.8503 53.6645 79.9328 55.3073 78.4192 55.3447C78.1476 55.3509 78.0223 55.3999 77.3266 55.5299L52.8157 13.0753C53.3301 12.4138 53.3962 12.35 53.4982 12.1827ZM50.1644 16.4527L73.1936 56.3408L38.4377 63.1578L27.8698 44.8538L50.1644 16.4527ZM5.56894 69.9764C4.69424 68.4628 4.23199 66.7445 4.23199 65.006C4.23199 61.4527 6.14169 58.1438 9.2148 56.3696L24.7422 47.4047L34.7031 64.6574L19.1757 73.623C14.4186 76.3685 8.3152 74.7327 5.56894 69.9764Z" fill="black"/>
            <path d="M27.535 64.195C28.4875 63.6456 28.8136 62.4262 28.2642 61.4736C27.714 60.5219 26.4953 60.1951 25.5428 60.7445C24.5903 61.2947 24.2635 62.5141 24.8136 63.4658C25.363 64.4184 26.5825 64.7452 27.535 64.195Z" fill="#F9BC6E"/>
            <path d="M21.3632 65.458C20.813 64.5055 19.5944 64.1787 18.6419 64.7289L15.1913 66.7211C14.2404 67.2705 13.0194 66.9428 12.47 65.9919C11.9198 65.0394 10.7011 64.7125 9.74862 65.2627C8.79611 65.8129 8.46927 67.0316 9.01945 67.9841C10.6591 70.8245 14.3166 71.826 17.1835 70.1716L20.6341 68.1794C21.5866 67.6292 21.9134 66.4113 21.3632 65.458Z" fill="#F9BC6E"/>
            <path d="M99.2879 11.504L88.1869 17.6813C87.2259 18.2167 86.8796 19.4299 87.415 20.391C87.9488 21.3513 89.1612 21.6992 90.1246 21.163L101.225 14.9856C102.187 14.4502 102.532 13.237 101.997 12.276C101.462 11.3141 100.249 10.9686 99.2879 11.504Z" fill="#F9BC6E"/>
            <path d="M98.1234 32.1372L90.4262 30.075C89.3632 29.7902 88.2706 30.4205 87.9858 31.4836C87.701 32.5466 88.3321 33.6384 89.3951 33.9232L97.0931 35.9854C98.1623 36.2726 99.2494 35.6321 99.5327 34.5769C99.8175 33.5139 99.1864 32.4213 98.1234 32.1372Z" fill="#F9BC6E"/>
            <path d="M78.7812 4.26602L76.7166 11.964C76.4318 13.027 77.0621 14.1188 78.1251 14.4044C79.1874 14.6884 80.28 14.0596 80.5656 12.9958L82.6293 5.29791C82.9142 4.2349 82.2838 3.14231 81.2208 2.85748C80.1586 2.57266 79.066 3.203 78.7812 4.26602Z" fill="#F9BC6E"/>
        </g>
        <defs>
            <clipPath id="clip0_0_1691">
            <rect width="102" height="102" fill="white" transform="translate(0.249023)"/>
            </clipPath>
        </defs>
    </symbol>

    <symbol id="rocket" width="103" height="103" viewBox="0 0 103 103">
        <g clip-path="url(#clip0_0_1625)">
            <path d="M102.065 1.35306C101.674 0.961996 101.14 0.750027 100.585 0.770945C100.134 0.787082 89.4093 1.21819 76.6604 5.72431C66.4444 9.33136 57.9293 14.4957 51.3513 21.0739C49.8772 22.5479 48.4429 24.111 47.0705 25.7348C40.5664 21.9062 35.3544 23.1067 32.0596 24.87C24.4731 28.9301 19.7773 39.954 19.7773 47.8391C19.7779 48.6447 20.2634 49.3713 21.0077 49.6795C21.2541 49.7817 21.5131 49.8313 21.7697 49.8313C22.2883 49.8313 22.7977 49.6287 23.1788 49.2477C27.1797 45.2468 32.1145 45.4971 33.7266 45.709L34.4243 46.4067C33.0513 49.6739 31.9452 52.9227 31.134 56.0825C30.8411 57.226 30.9399 58.4361 31.3752 59.5429C29.4572 60.4269 27.6066 61.7248 25.9953 63.3361C20.8673 68.4643 19.826 80.9621 19.7841 81.4916C19.7383 82.0728 19.9491 82.6449 20.3613 83.0571C20.7364 83.432 21.2438 83.6406 21.7697 83.6406C21.8219 83.6406 21.8743 83.6386 21.9267 83.6344C22.4562 83.5928 34.9544 82.5515 40.0825 77.4234C41.6932 75.8127 42.9909 73.9624 43.8748 72.0447C45.0466 72.5055 46.2527 72.5623 47.3372 72.2844C50.4956 71.4733 53.7441 70.3677 57.0117 68.9945L57.7093 69.6921C57.9211 71.3044 58.1713 76.2392 54.1706 80.2397C53.601 80.8095 53.4305 81.6664 53.7389 82.4106C54.0471 83.1551 54.7734 83.6404 55.5793 83.6404C63.4643 83.6404 74.4881 78.9446 78.5482 71.3582C80.3114 68.0637 81.5119 62.8518 77.6833 56.3475C79.3064 54.9757 80.8696 53.5413 82.3443 52.0667C88.9224 45.4885 94.0866 36.9733 97.6936 26.7582C102.2 14.0086 102.631 3.28349 102.647 2.83325C102.667 2.28042 102.456 1.74433 102.065 1.35306ZM24.2315 43.5541C25.469 37.565 29.0635 30.993 33.9404 28.3828C37.1994 26.6389 40.7616 26.8098 44.5492 28.883C41.3224 33.1268 38.5172 37.6989 36.179 42.5269C36.1493 42.5086 35.7907 42.0578 35.1245 41.9075C34.8506 41.8456 29.5795 40.7118 24.2315 43.5541ZM37.2651 74.6059C34.5259 77.3451 28.1001 78.7898 24.0386 79.3797C24.6287 75.3181 26.0736 68.8925 28.8127 66.1534C30.3467 64.6194 32.1253 63.4564 33.9131 62.8014L40.6172 69.5055C39.9622 71.2933 38.7993 73.0719 37.2651 74.6059ZM46.3475 68.4247C45.771 68.5723 45.1032 68.3556 44.6067 67.8599C42.0294 65.2826 41.0212 64.2744 40.7048 63.9582C40.1247 63.3781 38.7021 61.9555 35.5598 58.813C35.063 58.3152 34.8462 57.6476 34.9934 57.072C35.6315 54.587 36.4661 52.0374 37.4809 49.4633L53.9552 65.9377C51.3807 66.9527 48.8316 67.787 46.3475 68.4247ZM75.0357 69.4782C72.4256 74.3548 65.8538 77.9495 59.8649 79.1869C61.7744 75.5936 62.1953 71.0193 61.4977 68.2456C61.3357 67.6013 60.9153 67.2774 60.8918 67.2394C65.7195 64.9011 70.2913 62.0959 74.5355 58.8692C76.6088 62.6571 76.7795 66.2197 75.0357 69.4782ZM79.5273 49.2493C77.7322 51.0443 75.7991 52.7785 73.7819 54.4035C68.9325 58.3082 63.595 61.6156 57.9006 64.2485L39.1701 45.5184C41.8029 39.8235 45.1104 34.4861 49.0146 29.6373C50.6411 27.6186 52.375 25.6854 54.1694 23.8912C60.0713 17.9892 67.6882 13.292 76.8148 9.91088L93.5077 26.6038C90.1269 35.7302 85.4298 43.3471 79.5273 49.2493ZM94.941 22.4021L81.0165 8.47751C88.6029 6.12115 95.2028 5.23882 98.4971 4.92166C98.1797 8.21653 97.2972 14.8164 94.941 22.4021Z" fill="black"/>
            <path d="M54.1709 49.2495C53.392 48.4705 52.1309 48.4705 51.352 49.2495C50.575 50.0264 50.575 51.2875 51.352 52.0664C52.1309 52.8434 53.392 52.8434 54.1709 52.0664C54.9479 51.2875 54.9479 50.0264 54.1709 49.2495Z" fill="#F9BC6E"/>
            <path d="M79.5254 23.8929C75.6326 20.0003 69.331 20.0001 65.438 23.8929C61.5555 27.7754 61.5553 34.0946 65.4386 37.9804C69.3226 41.862 75.6418 41.8636 79.5254 37.98C83.4177 34.0877 83.4185 27.7858 79.5254 23.8929ZM76.708 35.1624C74.3786 37.4921 70.5866 37.4921 68.256 35.1628C65.9261 32.8316 65.9259 29.0397 68.2556 26.7102C70.591 24.3748 74.3722 24.3744 76.708 26.7102C79.0435 29.0454 79.0439 32.8268 76.708 35.1624Z" fill="#F9BC6E"/>
            <path d="M48.5344 83.0567C47.756 82.2787 46.4946 82.2791 45.7168 83.057L40.0829 88.6929C39.3052 89.4711 39.3054 90.7325 40.0833 91.5103C40.8617 92.288 42.1231 92.288 42.9009 91.5099L48.5348 85.874C49.3125 85.0958 49.3123 83.8344 48.5344 83.0567Z" fill="#F9BC6E"/>
            <path d="M20.3619 54.8835C19.5842 54.1053 18.3229 54.1053 17.5446 54.8831L11.9087 60.517C11.1306 61.2947 11.1304 62.5562 11.9081 63.3343C12.6857 64.112 13.9469 64.1128 14.7255 63.3347L20.3614 57.7008C21.1395 56.9231 21.1397 55.6616 20.3619 54.8835Z" fill="#F9BC6E"/>
            <path d="M34.4475 85.8757C33.67 85.0978 32.4083 85.0978 31.6302 85.8755L18.1351 99.3686C17.357 100.147 17.357 101.408 18.1349 102.186C18.9125 102.964 20.1741 102.964 20.9523 102.186L34.4473 88.6931C35.2255 87.9151 35.2255 86.6537 34.4475 85.8757Z" fill="#F9BC6E"/>
            <path d="M18.511 85.8757C17.7333 85.0978 16.4716 85.0978 15.6937 85.8755L2.19863 99.3686C1.42048 100.147 1.42048 101.408 2.19843 102.186C2.97598 102.964 4.23763 102.964 5.01577 102.186L18.5108 88.6931C19.289 87.9151 19.289 86.6537 18.511 85.8757Z" fill="#F9BC6E"/>
            <path d="M17.543 68.9695C16.7653 68.1918 15.5036 68.1918 14.7257 68.9697L1.23261 82.4648C0.454658 83.2429 0.454658 84.5042 1.23281 85.2823C2.01075 86.0602 3.2722 86.0603 4.05015 85.2821L17.5432 71.7871C18.3212 71.0089 18.3212 69.7477 17.543 68.9695Z" fill="#F9BC6E"/>
            <path d="M62.622 40.7964C61.8438 40.0184 60.5828 40.0184 59.8045 40.7964L56.9875 43.6133C56.2096 44.3912 56.2096 45.6527 56.9875 46.4308C57.7657 47.2088 59.0269 47.2088 59.8051 46.4308L62.622 43.6139C63.3999 42.8359 63.3999 41.5745 62.622 40.7964Z" fill="#F9BC6E"/>
        </g>
        <defs>
            <clipPath id="clip0_0_1625">
                <rect width="102" height="102" fill="white" transform="translate(0.648438 0.769531)"/>
            </clipPath>
        </defs>
    </symbol>

    <symbol id="writer" width="107" height="106" viewBox="0 0 107 106">
        <g clip-path="url(#clip0_0_1651)">
            <path d="M60.5396 36.8751H28.4709C27.5079 36.8751 26.7274 37.6558 26.7274 38.6185C26.7274 39.5814 27.5082 40.3619 28.4709 40.3619H60.5396C61.5025 40.3619 62.283 39.5812 62.283 38.6185C62.283 37.6558 61.5025 36.8751 60.5396 36.8751Z" fill="#F9BC6E"/>
            <path d="M60.5396 46.4641H28.4709C27.5079 46.4641 26.7274 47.2448 26.7274 48.2075C26.7274 49.1704 27.5082 49.9509 28.4709 49.9509H60.5396C61.5025 49.9509 62.283 49.1702 62.283 48.2075C62.283 47.2446 61.5025 46.4641 60.5396 46.4641Z" fill="#F9BC6E"/>
            <path d="M106.049 24.5169C105.917 23.8099 105.364 23.2571 104.657 23.1244C99.6313 22.1826 90.2091 27.2952 75.8548 38.7571C74.4147 39.9072 72.971 41.0868 71.5405 42.2762V26.7745H86.0556C87.0185 26.7745 87.799 25.9938 87.799 25.0311V19.1396C87.799 13.4059 83.1342 8.74109 77.4005 8.74109H26.818C21.6637 8.74109 17.4705 12.9343 17.4705 18.0885V79.2247H1.90259C0.939687 79.2247 0.15918 80.0054 0.15918 80.9681V86.8598C0.15918 92.5939 4.82421 97.2589 10.5584 97.2589H62.1949C67.3493 97.2589 71.5425 93.0655 71.5425 87.9111L71.5405 74.9453C76.4668 69.741 83.9087 61.469 90.4165 53.3193C101.878 38.9652 106.992 29.544 106.049 24.5169ZM17.4705 86.8602C17.4705 90.6712 14.37 93.7719 10.559 93.7719C6.74774 93.7719 3.64621 90.6712 3.64621 86.8598V82.7117H17.4705V86.8602ZM77.4005 12.2281C81.2115 12.2281 84.3122 15.3288 84.3122 19.1399V23.2877H37.2167V19.1396C37.2167 16.489 36.2195 14.0666 34.581 12.2279L77.4005 12.2281ZM62.1949 93.7719H18.3191C19.9584 91.9331 20.9573 89.5118 20.9573 86.8602V18.0885C20.9573 14.857 23.5862 12.2281 26.8178 12.2281C30.6288 12.2281 33.7295 15.3288 33.7295 19.1399V25.0311C33.7295 25.994 34.5102 26.7745 35.4729 26.7745H68.0532V45.2167C63.5012 49.1078 59.2521 52.9387 55.9117 56.0523H28.4713C27.5084 56.0523 26.7279 56.833 26.7279 57.7957C26.7279 58.7586 27.5086 59.5391 28.4713 59.5391H52.2373C51.6833 60.0765 51.1847 60.5664 50.7551 60.996C49.3335 62.4177 48.2724 64.0004 47.4861 65.6401H28.4713C27.5084 65.6401 26.7279 66.4208 26.7279 67.3835C26.7279 68.3464 27.5086 69.1269 28.4713 69.1269H46.2129C45.6504 71.2575 45.4429 73.3634 45.4179 75.23H28.4713C27.5084 75.23 26.7279 76.0107 26.7279 76.9734C26.7279 77.9361 27.5086 78.7168 28.4713 78.7168H45.5729C45.6613 79.5851 45.7719 80.3087 45.8667 80.8403L38.4858 88.2212C37.8049 88.9021 37.8049 90.006 38.4858 90.6867C38.8262 91.0271 39.2726 91.1975 39.7185 91.1975C40.1647 91.1975 40.611 91.0273 40.9514 90.6867L48.3343 83.3038C49.4078 83.4926 51.2733 83.7477 53.5271 83.7477C53.9208 83.7477 54.3273 83.7398 54.7426 83.7226C60.2235 83.4943 64.82 81.6995 68.0536 78.5344L68.0551 87.9105C68.0555 91.1428 65.4262 93.7719 62.1949 93.7719ZM65.7117 75.9527C63.0822 78.5822 59.3741 80.023 54.6893 80.2354C53.5068 80.2888 52.407 80.2528 51.4588 80.1803L95.8619 35.7773C96.5428 35.0964 96.5428 33.9925 95.8619 33.3118C95.1809 32.6308 94.077 32.6308 93.3963 33.3118L48.9923 77.7158C48.7024 73.9271 49.0032 67.6798 53.2209 63.4621C57.3834 59.2996 67.7998 49.6515 78.0305 41.4823C83.6104 37.0265 96.5177 27.2039 102.648 26.5259C101.97 32.6561 92.1473 45.5635 87.6916 51.1436C79.5223 61.3738 69.8743 71.7902 65.7117 75.9527Z" fill="black"/>
        </g>
        <defs>
            <clipPath id="clip0_0_1651">
                <rect width="106" height="106" fill="white" transform="translate(0.15918)"/>
            </clipPath>
        </defs>
    </symbol>

    <symbol id="b2b" width="97" height="97" viewBox="0 0 97 97">
        <path d="M52.6876 49.2624V23.9345C52.6876 22.6168 51.6154 21.5443 50.2977 21.5443H42.5172V19.4199C42.5172 18.902 42.0976 18.4824 41.5797 18.4824H41.5058V18.1273C41.5058 15.3688 39.2618 13.1248 36.5033 13.1248H25.3287C22.5702 13.1248 20.3262 15.3688 20.3262 18.1273V18.4824H20.2144C19.6965 18.4824 19.2769 18.902 19.2769 19.4199V21.5443H11.5339C10.2162 21.5443 9.14404 22.6164 9.14404 23.9345V49.2624C9.14404 50.5801 10.2162 51.6526 11.5339 51.6526H50.2977C51.6154 51.6526 52.6876 50.5805 52.6876 49.2624ZM26.5935 21.5446V19.4203C26.5935 18.9024 26.1739 18.4828 25.656 18.4828H25.6099L25.6069 18.1786L36.2119 18.1659V18.4824H36.1381C35.6202 18.4824 35.2006 18.902 35.2006 19.4199V21.5443H26.5935V21.5446ZM37.0752 20.3578H40.6418V21.5446H37.0752V20.3578ZM22.2008 18.1276C22.2008 16.403 23.604 15.0001 25.3283 15.0001H36.5026C38.2272 15.0001 39.6301 16.4034 39.6301 18.1276V18.4828H38.0869V18.1663C38.0869 17.1395 37.2514 16.304 36.2247 16.304H25.6069C24.5802 16.304 23.7447 17.1395 23.7447 18.1663V18.4828H22.2012V18.1276H22.2008ZM21.1519 20.3578H24.7185V21.5446H21.1519V20.3578ZM11.0187 49.2624V43.6666H24.6762C25.194 43.6666 25.6137 43.247 25.6137 42.7291C25.6137 42.2113 25.194 41.7916 24.6762 41.7916H11.0187V23.9345C11.0187 23.6506 11.2497 23.4193 11.5335 23.4193H20.2144H25.656H36.1377H41.5793H50.2973C50.5812 23.4193 50.8122 23.6503 50.8122 23.9345V41.7913H37.1551C36.6372 41.7913 36.2176 42.2109 36.2176 42.7288C36.2176 43.2466 36.6372 43.6663 37.1551 43.6663H50.8122V49.2624C50.8122 49.5463 50.5812 49.7776 50.2973 49.7776H11.5339C11.25 49.7776 11.0187 49.5466 11.0187 49.2624Z" fill="black"/>
        <path d="M32.2989 38.988H29.5329C28.406 38.988 27.4888 39.9049 27.4888 41.0322V45.7347C27.4888 46.8615 28.4056 47.7784 29.5329 47.7784H32.2989C33.4258 47.7784 34.3426 46.8615 34.3426 45.7347V41.0322C34.3426 39.9049 33.4258 38.988 32.2989 38.988ZM32.4676 45.7343C32.4676 45.8273 32.3919 45.903 32.2989 45.903H29.5329C29.4395 45.903 29.3638 45.8273 29.3638 45.7343V41.0318C29.3638 40.9388 29.4395 40.8627 29.5329 40.8627H32.2989C32.3919 40.8627 32.4676 40.9384 32.4676 41.0318V45.7343Z" fill="black"/>
        <path d="M85.7974 54.3231H78.0169V52.1987C78.0169 51.6808 77.5973 51.2612 77.0794 51.2612H77.0055V50.9061C77.0055 48.1476 74.7615 45.9036 72.003 45.9036H60.8288C58.0703 45.9036 55.8263 48.1476 55.8263 50.9061V51.2612H55.7149C55.197 51.2612 54.7774 51.6808 54.7774 52.1987V54.3231H47.0344C45.7167 54.3231 44.6445 55.3952 44.6445 56.7133V82.0412C44.6445 83.3589 45.7167 84.4314 47.0344 84.4314H85.7981C87.1159 84.4314 88.1884 83.3593 88.1884 82.0412V56.7129C88.1876 55.3952 87.1151 54.3231 85.7974 54.3231ZM62.0936 54.3231V52.1987C62.0936 51.6808 61.674 51.2612 61.1561 51.2612H61.11L61.107 50.9571L71.712 50.9443V51.2608H71.6381C71.1203 51.2608 70.7006 51.6804 70.7006 52.1983V54.3227H62.0936V54.3231ZM72.5753 53.1362H76.1419V54.3231H72.5753V53.1362ZM57.7009 50.9057C57.7009 49.1811 59.1041 47.7782 60.8284 47.7782H72.0026C73.7273 47.7782 75.1301 49.1811 75.1301 50.9057V51.2608H73.5866V50.9443C73.5866 49.9176 72.7511 49.0821 71.7244 49.0821H61.1066C60.0799 49.0821 59.2444 49.9176 59.2444 50.9443V51.2608H57.7005V50.9057H57.7009ZM56.6517 53.1362H60.2183V54.3231H56.6517V53.1362ZM85.7974 82.556H47.0337C46.7498 82.556 46.5188 82.325 46.5188 82.0408V76.4447H60.1763C60.6941 76.4447 61.1138 76.025 61.1138 75.5072C61.1138 74.9893 60.6941 74.5697 60.1763 74.5697H46.5188V56.7129C46.5188 56.4291 46.7498 56.1977 47.0337 56.1977H55.7142H61.1558H71.6378H77.0794H85.7974C86.0813 56.1977 86.3126 56.4287 86.3126 56.7129V74.5697H72.6551C72.1373 74.5697 71.7176 74.9893 71.7176 75.5072C71.7176 76.025 72.1373 76.4447 72.6551 76.4447H86.3126V82.0408C86.3126 82.3247 86.0813 82.556 85.7974 82.556Z" fill="black"/>
        <path d="M67.7985 71.7661H65.0325C63.9056 71.7661 62.9888 72.683 62.9888 73.8102V78.5127C62.9888 79.6396 63.9056 80.5565 65.0325 80.5565H67.7985C68.9254 80.5565 69.8423 79.6396 69.8423 78.5127V73.8102C69.8426 72.6834 68.9258 71.7661 67.7985 71.7661ZM67.9676 78.5124C67.9676 78.6054 67.8919 78.6811 67.7989 78.6811H65.0329C64.9399 78.6811 64.8641 78.6054 64.8641 78.5124V73.8099C64.8641 73.7165 64.9399 73.6407 65.0329 73.6407H67.7989C67.8919 73.6407 67.9676 73.7165 67.9676 73.8099V78.5124Z" fill="black"/>
        <path d="M70.6484 38.5008C70.2824 38.1348 69.6884 38.1348 69.3228 38.5008L67.4759 40.3472V37.4631C67.4759 33.7068 64.4201 30.6509 60.6633 30.6509H55.6226C55.1047 30.6509 54.6851 31.0705 54.6851 31.5884C54.6851 32.1063 55.1047 32.5259 55.6226 32.5259H60.6633C63.3858 32.5259 65.6009 34.7406 65.6009 37.4631V40.3472L63.7544 38.5008C63.3884 38.1348 62.7948 38.1348 62.4288 38.5008C62.0624 38.8668 62.0624 39.4604 62.4288 39.8264L65.8747 43.2723C65.9186 43.3161 65.9669 43.3555 66.0187 43.39C66.0408 43.405 66.0652 43.4151 66.0884 43.4279C66.1188 43.4444 66.1477 43.4627 66.1799 43.4759C66.2103 43.4886 66.2422 43.4958 66.2737 43.5051C66.3007 43.513 66.3269 43.5235 66.3551 43.5291C66.4154 43.5411 66.4769 43.5475 66.5384 43.5475C66.5999 43.5475 66.6614 43.5411 66.7218 43.5291C66.7499 43.5235 66.7762 43.513 66.8032 43.5051C66.8347 43.4958 66.8662 43.4886 66.8966 43.4762C66.9288 43.4627 66.9581 43.4448 66.9884 43.4279C67.0117 43.4151 67.0357 43.405 67.0578 43.39C67.1096 43.3555 67.1579 43.3161 67.2018 43.2723L70.6481 39.8264C71.0144 39.4604 71.0145 38.8668 70.6484 38.5008Z" fill="#F9BC6E"/>
        <path d="M41.7086 65.0305H36.6678C33.9453 65.0305 31.7306 62.8158 31.7306 60.0929V57.2088L33.5771 59.0553C33.7601 59.2383 34.0001 59.3298 34.2401 59.3298C34.4801 59.3298 34.7201 59.2383 34.9031 59.0553C35.2695 58.6893 35.2695 58.0956 34.9031 57.7296L31.4572 54.2838C31.4133 54.2399 31.365 54.2005 31.3132 54.166C31.2907 54.151 31.2667 54.1409 31.2435 54.1282C31.2131 54.1117 31.1842 54.0933 31.152 54.0802C31.1216 54.0674 31.0897 54.0603 31.0582 54.0513C31.0312 54.0434 31.005 54.0329 30.9772 54.0273C30.8561 54.0033 30.7312 54.0033 30.6101 54.0273C30.582 54.0329 30.5561 54.0434 30.5291 54.0513C30.4976 54.0607 30.4657 54.0678 30.4353 54.0802C30.4031 54.0933 30.3742 54.1117 30.3438 54.1282C30.3206 54.1409 30.2962 54.151 30.2737 54.166C30.222 54.2005 30.1736 54.2399 30.1297 54.2838L26.6835 57.7296C26.3171 58.0956 26.3171 58.6893 26.6835 59.0553C27.0495 59.4216 27.6435 59.4216 28.0091 59.0553L29.856 57.2088V60.0929C29.856 63.8493 32.9119 66.9055 36.6682 66.9055H41.709C42.2268 66.9055 42.6465 66.4859 42.6465 65.968C42.6461 65.4501 42.2265 65.0305 41.7086 65.0305Z" fill="#F9BC6E"/>
    </symbol>

    <symbol id="saas" width="92" height="93" viewBox="0 0 92 93">
        <g clip-path="url(#clip0_0_2576)">
            <path d="M29.0224 50.1739L29.0224 50.1739L29.982 50.5757L29.9821 50.5757C30.7867 50.9129 31.7115 50.5273 32.046 49.7103L32.0461 49.7103C32.3814 48.892 31.9962 47.956 31.1904 47.6187L31.1904 47.6187L30.2307 47.2167C30.2307 47.2167 30.2306 47.2167 30.2306 47.2167C28.9691 46.6886 27.5775 46.6898 26.3097 47.2206L26.3097 47.2206C25.0417 47.7515 24.0558 48.7463 23.5329 50.0227L23.5329 50.0227C22.4501 52.6658 23.6969 55.7054 26.3079 56.7991C26.3079 56.7991 26.3079 56.7991 26.3079 56.7991L28.227 57.6025L28.2271 57.6025C29.2293 58.0223 29.7041 59.1857 29.2903 60.1956C29.0911 60.682 28.7122 61.0623 28.2255 61.2663L28.2255 61.2663C27.7384 61.4703 27.2034 61.4719 26.7212 61.2705L26.7211 61.2704L25.7615 60.8686L25.7615 60.8686C24.9575 60.5319 24.0321 60.9171 23.6975 61.734L23.6975 61.734C23.3622 62.5524 23.7473 63.4883 24.5531 63.8257L24.5532 63.8257L25.5129 64.2276C25.5129 64.2276 25.5129 64.2276 25.5129 64.2276C26.1426 64.4912 26.8038 64.6227 27.4658 64.6227L29.0224 50.1739ZM29.0224 50.1739C28.5402 49.9722 28.0052 49.9736 27.518 50.1779C27.0312 50.3817 26.6524 50.7624 26.453 51.2484L26.453 51.2485C26.0392 52.2584 26.5141 53.4217 27.5163 53.8415L27.5163 53.8415M29.0224 50.1739L27.5163 53.8415M27.5163 53.8415L29.4352 54.6449C29.4352 54.6449 29.4353 54.6449 29.4353 54.6449C32.0464 55.7385 33.2932 58.7783 32.2104 61.4215C31.6874 62.6978 30.7017 63.6925 29.4337 64.2235M27.5163 53.8415L29.4337 64.2235M29.4337 64.2235C28.7978 64.4897 28.131 64.6226 27.4659 64.6227L29.4337 64.2235Z" fill="#F9BC6E" stroke="#F9F4FF" stroke-width="0.4"/>
            <path d="M42.7147 64.1537L42.6122 64.0477L42.4806 64.1144C39.1857 65.7842 35.0619 63.177 35.1275 59.4234L35.1277 59.4234L35.1275 59.4164C35.0621 55.6622 39.1851 53.0563 42.4808 54.7255L42.6123 54.7921L42.7149 54.6861C43.6757 53.693 45.4218 54.3997 45.411 55.8182V55.8198L45.411 63.0203L45.411 63.0218C45.4218 64.4398 43.6758 65.1473 42.7147 64.1537ZM40.2769 57.4199L40.2769 57.4197H40.2692C39.1748 57.4197 38.2888 58.3189 38.2888 59.4199C38.2888 60.5209 39.1748 61.4201 40.2692 61.4201V61.4202L40.2768 61.4199C42.8913 61.32 42.8925 57.5203 40.2769 57.4199Z" fill="#F9BC6E" stroke="#F9F4FF" stroke-width="0.4"/>
            <path d="M54.9451 54.7254L55.0752 54.7913L55.1777 54.6877C55.4642 54.398 55.8589 54.2196 56.2947 54.2196C57.1655 54.2196 57.8753 54.9341 57.8752 55.8197V55.8197L57.8752 59.3922L57.8752 59.3941C57.8753 59.4114 57.8753 59.4288 57.8752 59.4461H57.8752V59.448L57.8752 63.0204L57.8752 63.022C57.8861 64.4397 56.1403 65.1475 55.1791 64.1539L55.0765 64.0479L54.9449 64.1146C51.6501 65.7842 47.5263 63.1769 47.5919 59.4236L47.592 59.4236L47.5919 59.4166C47.5264 55.6624 51.6495 53.0563 54.9451 54.7254ZM52.726 61.4199L52.726 61.4201H52.7337C53.8229 61.4201 54.706 60.5291 54.7141 59.4352H54.7141V59.4338L54.7141 59.4062L54.7141 59.4047C54.706 58.3107 53.8229 57.4197 52.7337 57.4197V57.4196L52.7261 57.4199C50.1121 57.5199 50.1098 61.3193 52.726 61.4199Z" fill="#F9BC6E" stroke="#F9F4FF" stroke-width="0.4"/>
            <path d="M66.8689 50.5759L66.8688 50.5759L65.9092 50.1741C65.9091 50.1741 65.9091 50.1741 65.9091 50.1741C65.4268 49.972 64.8918 49.9737 64.4047 50.1779C63.9181 50.3817 63.539 50.7624 63.3399 51.2485C62.9261 52.2583 63.4011 53.4217 64.4031 53.8415L64.4032 53.8415L66.3221 54.6449C66.3221 54.6449 66.3221 54.6449 66.3221 54.6449C68.9333 55.7386 70.1802 58.7782 69.0974 61.4213C68.28 63.4161 66.366 64.6218 64.3538 64.6218H64.3537C63.7018 64.622 63.0392 64.4953 62.3997 64.2276L62.3225 64.4121L62.3997 64.2276L61.4398 63.8259C60.634 63.4883 60.2488 62.5523 60.584 61.734C60.919 60.917 61.8434 60.5315 62.6482 60.8685L63.6079 61.2702C64.6103 61.6903 65.763 61.2065 66.1772 60.1955C66.591 59.1857 66.1161 58.0223 65.1139 57.6025L65.1139 57.6025L63.1946 56.7991C63.1946 56.7991 63.1946 56.7991 63.1946 56.7991C60.5839 55.7054 59.3368 52.666 60.4196 50.0229L60.4196 50.0228C60.9425 48.7463 61.9284 47.7515 63.1964 47.2206L63.1964 47.2206C64.4641 46.6898 65.8558 46.6886 67.1173 47.2167L67.1946 47.0322L67.1173 47.2167L68.0772 47.6185C68.883 47.956 69.2682 48.892 68.9331 49.7103C68.5982 50.5274 67.6738 50.9129 66.8689 50.5759Z" fill="#F9BC6E" stroke="#F9F4FF" stroke-width="0.4"/>
            <path d="M78.4367 44.3245L78.4476 44.4858L78.6075 44.509C96.8857 47.1609 95.4798 73.761 76.9047 74.323H11.7739C-1.57543 73.9486 -2.95921 54.939 10.0965 52.5313L10.2468 52.5036L10.2596 52.3514C10.381 50.9047 10.6621 49.4801 11.0994 48.0981C11.3661 47.2553 12.2557 46.7938 13.0859 47.0625L13.0859 47.0625C13.9163 47.3311 14.3771 48.2314 14.1099 49.0752C13.6069 50.6635 13.352 52.3208 13.352 54.001C13.352 54.8867 12.6423 55.6012 11.7716 55.6012V55.6011L11.764 55.6014C1.60395 55.9897 1.59755 70.7308 11.7637 71.1225L11.7637 71.1226H11.7714H76.9078V71.1228L76.9155 71.1225C92.3161 70.5334 92.3071 48.1967 76.9154 47.6115L76.9154 47.6113H76.9078C76.037 47.6113 75.3272 46.897 75.3272 46.0115L75.3272 46.0094C75.0586 20.2696 40.2986 13.2062 30.2592 36.877L30.2586 36.8786C30.0185 37.4585 29.466 37.8414 28.8471 37.8599C27.188 37.9095 25.557 38.2167 23.9997 38.7736L23.9996 38.7736C23.1786 39.0675 22.2751 38.633 21.9834 37.7988L21.9834 37.7988C21.6912 36.9637 22.1249 36.0497 22.947 35.7558L22.8797 35.5675L22.947 35.7558C24.4602 35.2148 26.0306 34.8703 27.6298 34.7278L27.7444 34.7176L27.7931 34.6134C39.5203 9.5726 76.5765 16.7405 78.4367 44.3245Z" fill="black" stroke="#F9F4FF" stroke-width="0.4"/>
            <path d="M16.73 43.2408C14.6355 43.1559 14.6379 40.126 16.7293 40.0407C18.8222 40.125 18.823 43.155 16.73 43.2408Z" fill="black" stroke="#F9F4FF" stroke-width="0.4"/>
        </g>
        <defs>
            <clipPath id="clip0_0_2576">
                <rect width="91" height="92" fill="white" transform="translate(0.800293 0.777832)"/>
            </clipPath>
        </defs>
    </symbol>

    <symbol id="commerce" width="76" height="76" viewBox="0 0 76 76">
        <g clip-path="url(#clip0_0_2609)">
            <path d="M74.7157 11.1347V15.2878H66.9297H66.5738L66.4573 15.624L64.4393 21.446L64.4392 21.446L64.437 21.4527L53.7985 53.5898H7.31737L1.43812 18.7498H60.6547H61.0084L61.1262 18.4162L63.6964 11.1338L74.7157 11.1347ZM50.3507 49.4408H50.7091L50.8242 49.1014L59.5602 23.3384L59.7842 22.6778H59.0867H6.89468H6.3053L6.40137 23.2593L10.6574 49.0223L10.7265 49.4408H11.1507H50.3507Z" fill="black" stroke="#FAF6FF"/>
            <path d="M20.2835 60.1378C20.2835 62.7071 18.2007 64.7898 15.6315 64.7898C13.0623 64.7898 10.9795 62.7071 10.9795 60.1378C10.9795 57.5686 13.0623 55.4858 15.6315 55.4858C18.2007 55.4858 20.2835 57.5686 20.2835 60.1378Z" fill="black" stroke="#FAF6FF"/>
            <path d="M49.8509 60.1378C49.8509 62.7071 47.7681 64.7898 45.1989 64.7898C42.6296 64.7898 40.5469 62.7071 40.5469 60.1378C40.5469 57.5686 42.6296 55.4858 45.1989 55.4858C47.7681 55.4858 49.8509 57.5686 49.8509 60.1378Z" fill="black" stroke="#FAF6FF"/>
            <path d="M29.5299 46.1087L19.9972 33.5337H24.5702L29.124 39.3897L29.5046 39.8791L29.9023 39.4034L41.1764 25.9177H45.7247L29.5299 46.1087Z" fill="#F9BC6E" stroke="white"/>
        </g>
        <defs>
            <clipPath id="clip0_0_2609">
                <rect width="74.368" height="74.368" fill="white" transform="translate(0.84668 0.777832)"/>
            </clipPath>
        </defs>
    </symbol>
</svg>
