<svg width="285" height="251" viewBox="0 0 285 251" fill="none" xmlns="http://www.w3.org/2000/svg">
<path d="M117.91 133.044L113.134 131.731C112.977 129.438 112.659 127.208 112.187 125.072L116.154 120.718C116.422 120.426 116.487 119.843 116.299 119.426L110.791 107.144C110.604 106.722 110.233 106.62 109.967 106.917L106 111.273C104.877 109.847 103.645 108.625 102.321 107.611L103.16 100.134C103.216 99.6366 102.999 99.1528 102.678 99.0648L93.2301 96.4699C92.9091 96.382 92.6015 96.7222 92.5453 97.2176L91.7066 104.694C90.2407 104.942 88.8148 105.44 87.448 106.178L84.6657 99.9676C84.4823 99.5463 84.111 99.4445 83.8433 99.7408L75.9919 108.356C75.7227 108.648 75.6576 109.231 75.8469 109.648L78.6307 115.856C77.724 117.616 76.9386 119.542 76.2922 121.616L71.5145 120.303C71.195 120.215 70.8858 120.551 70.8296 121.056L69.1715 135.84C69.1152 136.34 69.3327 136.829 69.6522 136.917L74.4299 138.229C74.5852 140.519 74.9047 142.748 75.3766 144.887L71.408 149.238C71.1387 149.537 71.0737 150.111 71.263 150.532L76.7714 162.817C76.9593 163.234 77.3305 163.336 77.5938 163.044L81.561 158.692C82.6866 160.106 83.9187 161.336 85.2426 162.35L84.4054 169.819C84.3492 170.319 84.5651 170.801 84.8861 170.889L94.3336 173.484C94.6545 173.572 94.9637 173.234 95.0184 172.734L95.8556 165.264C97.32 165.016 98.7459 164.516 100.111 163.785L102.895 169.988C103.081 170.403 103.453 170.505 103.719 170.215L111.57 161.6C111.838 161.308 111.903 160.729 111.715 160.308L108.933 154.097C109.843 152.338 110.625 150.412 111.272 148.343L116.048 149.655C116.367 149.743 116.676 149.398 116.733 148.898L118.391 134.113C118.445 133.609 118.23 133.132 117.91 133.044ZM92.0675 150.259C86.6744 148.778 83.0682 140.736 84.0149 132.294C84.9616 123.854 90.1002 118.211 95.4947 119.692C100.888 121.174 104.494 129.215 103.547 137.657C102.601 146.097 97.4605 151.741 92.0675 150.259Z" fill="#F4E8D8"/>
<path d="M182.928 57.5741L174.904 59.47C173.874 55.963 172.613 52.6876 171.136 49.6899L175.95 39.4746C176.275 38.7894 176.18 37.8102 175.739 37.3033L162.822 22.4005C162.383 21.8866 161.76 22.0348 161.439 22.7269L156.624 32.9422C154.358 31.6135 151.986 30.6991 149.542 30.1945L148.329 17.6297C148.249 16.7963 147.74 16.2084 147.202 16.3357L131.327 20.0903C130.789 20.2176 130.415 21.0139 130.496 21.8473L131.709 34.4121C129.468 36.0255 127.375 38.0047 125.457 40.3126L118.929 32.7778C118.494 32.2639 117.872 32.4121 117.548 33.1042L108.019 53.3126C107.692 54.0001 107.787 54.9792 108.229 55.4839L114.758 63.0163C113.916 66.5626 113.326 70.2755 113.007 74.1019L104.981 76.0001C104.442 76.1274 104.066 76.9144 104.148 77.7639L106.546 102.604C106.627 103.442 107.136 104.039 107.674 103.912L115.7 102.014C116.725 105.516 117.99 108.789 119.465 111.789L114.648 122C114.323 122.697 114.416 123.662 114.858 124.176L127.776 139.079C128.215 139.581 128.84 139.435 129.158 138.752L133.972 128.544C136.24 129.852 138.612 130.776 141.059 131.282L142.27 143.836C142.352 144.674 142.859 145.262 143.396 145.134L159.269 141.382C159.807 141.255 160.183 140.461 160.102 139.62L158.89 127.067C161.13 125.454 163.223 123.472 165.14 121.176L171.666 128.704C172.102 129.208 172.726 129.06 173.049 128.377L182.578 108.167C182.903 107.482 182.81 106.507 182.368 105.995L175.842 98.4584C176.686 94.9098 177.273 91.1991 177.596 87.3797L185.62 85.4839C186.157 85.3565 186.53 84.5533 186.449 83.7153L184.051 58.8751C183.971 58.0255 183.464 57.4468 182.928 57.5741ZM148.03 109.035C138.043 111.396 128.724 100.639 127.215 85.0116C125.707 69.382 132.58 54.7987 142.566 52.4376C152.554 50.0764 161.872 60.8334 163.381 76.4607C164.89 92.0903 158.018 106.674 148.03 109.035Z" fill="#F4E8D8"/>
<path d="M82.1111 120.991C82.3966 120.991 82.3966 120.296 82.1111 120.296C81.8256 120.296 81.8256 120.991 82.1111 120.991Z" fill="#F4E8D8"/>
<path d="M117.95 118.009L122.39 118.037L129.038 111.623L142.683 96.162L128.788 95.9884L117.95 118.009Z" fill="#702022"/>
<path d="M127.523 93.7361L116.508 114.743L117.959 118.037L129.119 96.7037L127.523 93.7361Z" fill="#972D29"/>
<path d="M127.523 93.7361L141.232 93.4468L142.683 96.1621L129.119 96.7037L127.523 93.7361Z" fill="#C83F37"/>
<path d="M137.176 110.204L136.682 120.204L135.771 139.051L147.852 137.313L150.732 115.581L137.176 110.204Z" fill="#CE6D3E"/>
<path d="M128.927 100.44L121.468 114.046L123.63 138.076L136.258 138.41L137.926 116.391L128.927 100.44Z" fill="#F2864F"/>
<path d="M128.927 100.44L121.468 114.046L123.63 138.076L130.976 138.294L131.605 106.912L128.927 100.44Z" fill="#CE6D3E"/>
<path opacity="0.5" d="M134.543 112.586L128.927 100.44L126.834 104.257L127.912 138.171L133.529 138.593L134.543 112.586Z" fill="#C16840"/>
<path d="M136.115 135.993C136.127 135.676 136.021 135.409 135.878 135.396C135.735 135.383 135.61 135.628 135.598 135.945C135.586 136.261 135.692 136.529 135.835 136.542C135.978 136.555 136.103 136.309 136.115 135.993Z" fill="#3E424B"/>
<path d="M136.446 128.895C136.458 128.579 136.352 128.311 136.209 128.298C136.067 128.285 135.941 128.531 135.929 128.848C135.917 129.164 136.023 129.431 136.166 129.444C136.309 129.458 136.434 129.212 136.446 128.895Z" fill="#3E424B"/>
<path d="M136.945 120.224C136.957 119.907 136.851 119.64 136.708 119.627C136.565 119.614 136.44 119.86 136.428 120.176C136.416 120.493 136.522 120.76 136.665 120.773C136.807 120.786 136.933 120.54 136.945 120.224Z" fill="#3E424B"/>
<path d="M149.137 123.242C149.193 123.001 149.145 122.755 149.031 122.691C148.917 122.627 148.78 122.77 148.725 123.011C148.67 123.252 148.718 123.499 148.832 123.562C148.945 123.626 149.082 123.483 149.137 123.242Z" fill="#3E424B"/>
<path d="M148.209 129.7C148.264 129.459 148.217 129.212 148.103 129.149C147.989 129.085 147.852 129.228 147.797 129.469C147.742 129.71 147.79 129.957 147.903 130.02C148.017 130.084 148.154 129.941 148.209 129.7Z" fill="#3E424B"/>
<path d="M147.282 136.852C147.338 136.611 147.29 136.364 147.176 136.301C147.062 136.237 146.925 136.38 146.87 136.621C146.815 136.862 146.863 137.108 146.977 137.172C147.09 137.236 147.227 137.093 147.282 136.852Z" fill="#3E424B"/>
<path d="M123.713 130.163C123.724 129.882 123.63 129.645 123.503 129.634C123.377 129.622 123.266 129.84 123.255 130.121C123.245 130.402 123.339 130.639 123.465 130.65C123.592 130.662 123.703 130.444 123.713 130.163Z" fill="#3E424B"/>
<path d="M123.141 122.024C123.152 121.747 123.059 121.513 122.934 121.502C122.809 121.49 122.7 121.705 122.689 121.982C122.679 122.259 122.772 122.493 122.896 122.505C123.021 122.516 123.131 122.301 123.141 122.024Z" fill="#3E424B"/>
<path d="M122.416 115.02C122.427 114.75 122.336 114.521 122.213 114.51C122.091 114.499 121.984 114.709 121.974 114.98C121.963 115.25 122.054 115.479 122.177 115.49C122.299 115.501 122.406 115.291 122.416 115.02Z" fill="#3E424B"/>
<path d="M125.423 108.783C125.435 108.466 125.329 108.199 125.186 108.186C125.044 108.173 124.918 108.419 124.906 108.735C124.894 109.052 125 109.319 125.143 109.332C125.286 109.345 125.411 109.099 125.423 108.783Z" fill="#3E424B"/>
<path d="M128.58 103.494C128.592 103.177 128.486 102.91 128.343 102.897C128.2 102.884 128.075 103.129 128.063 103.446C128.051 103.762 128.157 104.03 128.3 104.043C128.443 104.056 128.568 103.81 128.58 103.494Z" fill="#3E424B"/>
<path d="M124.239 136.75C124.248 136.505 124.165 136.298 124.055 136.288C123.944 136.278 123.846 136.468 123.837 136.713C123.828 136.958 123.91 137.165 124.021 137.175C124.132 137.186 124.229 136.995 124.239 136.75Z" fill="#3E424B"/>
<path d="M129.419 136.505C129.429 136.243 129.341 136.022 129.222 136.011C129.104 136 129 136.203 128.99 136.465C128.981 136.727 129.069 136.948 129.187 136.959C129.305 136.969 129.409 136.766 129.419 136.505Z" fill="#3E424B"/>
<path d="M139.69 115.273L138.131 119.303L151.037 118.738L152.46 114.801L139.69 115.273Z" fill="#972D29"/>
<path d="M129.157 96.8125L142.461 96.3936L152.46 114.801L139.69 115.273L129.157 96.8125Z" fill="#C83F37"/>
<path d="M127.585 99.838L138.131 119.303L139.692 115.271L129.157 96.8125L127.585 99.838Z" fill="#972D29"/>
<path d="M128.94 123.736C130.628 123.736 131.997 120.954 131.997 117.523C131.997 114.092 130.628 111.31 128.94 111.31C127.251 111.31 125.882 114.092 125.882 117.523C125.882 120.954 127.251 123.736 128.94 123.736Z" fill="#F6BE4A"/>
<path d="M129.487 123.308C130.873 123.308 131.997 120.718 131.997 117.523C131.997 114.328 130.873 111.738 129.487 111.738C128.1 111.738 126.977 114.328 126.977 117.523C126.977 120.718 128.1 123.308 129.487 123.308Z" fill="#102441"/>
<path d="M131.177 98.3797C131.242 98.1827 131.133 97.8944 130.934 97.7357C130.736 97.577 130.522 97.608 130.458 97.805C130.394 98.0019 130.503 98.2903 130.701 98.449C130.9 98.6077 131.113 98.5766 131.177 98.3797Z" fill="#4D525B"/>
<path d="M140.372 114.761C140.436 114.564 140.327 114.275 140.128 114.117C139.93 113.958 139.717 113.989 139.652 114.186C139.588 114.383 139.697 114.671 139.896 114.83C140.094 114.989 140.308 114.958 140.372 114.761Z" fill="#4D525B"/>
<path d="M151.017 114.148C151.081 113.951 150.972 113.663 150.773 113.504C150.575 113.345 150.362 113.376 150.298 113.573C150.233 113.77 150.342 114.059 150.541 114.217C150.739 114.376 150.952 114.345 151.017 114.148Z" fill="#4D525B"/>
<path d="M143.268 95.5142C143.332 95.3172 143.224 95.0289 143.025 94.8702C142.826 94.7115 142.613 94.7425 142.549 94.9395C142.485 95.1365 142.594 95.4248 142.792 95.5835C142.991 95.7422 143.204 95.7111 143.268 95.5142Z" fill="#4D525B"/>
<path d="M142.171 98.1158L142.723 95.3126L143.056 95.5256L142.213 98.1413C142.201 98.1807 142.164 98.1575 142.171 98.1158Z" fill="#4D525B"/>
<path opacity="0.5" d="M151.555 113.146C150.736 114.785 148.79 114.949 146.144 113.25C141.795 110.458 137.2 103.697 135.879 98.1458C135.408 96.1713 135.417 94.6158 135.818 93.5579L141.232 93.4468L142.667 96.1829L142.461 96.3935L151.555 113.146Z" fill="#C83F37"/>
<path d="M125.057 134.767L114.528 135.502L114.607 138.25L125.135 137.514L125.057 134.767Z" fill="#F6CF4C"/>
<path d="M114.616 138.255C114.946 138.232 115.196 137.597 115.174 136.837C115.152 136.077 114.868 135.48 114.538 135.503C114.208 135.526 113.958 136.161 113.98 136.921C114.002 137.68 114.287 138.278 114.616 138.255Z" fill="#F5864E"/>
<path d="M125.101 137.523C125.43 137.5 125.68 136.865 125.658 136.105C125.637 135.345 125.352 134.748 125.022 134.771C124.693 134.794 124.443 135.429 124.465 136.188C124.486 136.948 124.771 137.546 125.101 137.523Z" fill="#F6CF4C"/>
<path d="M146.836 225.09L144.336 225.773L142.119 225.014L138.994 146.907H147.178L146.836 225.09Z" fill="#102441"/>
<path d="M146.83 225.072L144.262 225.773L143.794 178.877L147.083 165.333L146.83 225.072Z" fill="#634874"/>
<path d="M171.405 226.592C171.558 224.634 170.711 222.861 169.512 222.631C168.314 222.401 167.218 223.802 167.065 225.76C166.911 227.718 167.759 229.492 168.957 229.722C170.156 229.951 171.251 228.55 171.405 226.592Z" fill="#131620"/>
<path d="M190.444 228.668C191.642 228.438 192.49 226.665 192.336 224.707C192.183 222.749 191.087 221.348 189.889 221.578C188.69 221.807 187.843 223.581 187.996 225.539C188.15 227.497 189.245 228.898 190.444 228.668Z" fill="#131620"/>
<path d="M191.085 220.396C189.258 220.282 178.255 218.912 178.255 218.912C178.255 218.912 170.224 220.155 168.685 220.062C166.438 219.924 166.389 223.456 166.556 224.333C166.723 225.211 168.294 225.12 168.691 224.882L170.09 224.449L178.397 222.863L188.781 224.373L190.18 224.806C190.576 225.044 191.495 225.296 191.891 225.058L192.616 224.933C192.847 224.794 192.859 223.016 192.865 222.63C192.884 221.414 193.098 220.523 191.085 220.396Z" fill="#102441"/>
<path d="M169.474 140.109C169.474 140.109 174.199 135.329 176.782 145.264C179.377 155.243 177.878 154.845 172.37 158.544C169.275 160.623 164.101 164.074 159.433 166.081C155.852 167.62 147.483 173.745 145.212 165.627C143.856 160.778 145.261 156.505 147.805 154.567C150.357 152.625 169.474 140.109 169.474 140.109Z" fill="#D8A344"/>
<path d="M169.125 207.551C171.44 209.014 173.419 214.637 173.419 214.637C173.419 214.637 168.332 221.764 165.964 224.127C165.471 224.618 163.717 225.704 162.031 226.671C160.214 227.713 156.074 228.336 155.521 227.986C154.922 227.609 154.276 221.836 155.734 218.632C157.089 215.655 160.63 215.482 160.884 214.822C163.198 208.785 168.088 206.896 169.125 207.551Z" fill="#131620"/>
<path d="M160.991 214.505C160.991 214.505 161.679 214.461 162.238 216.484" stroke="#29ABE3" stroke-width="3" stroke-miterlimit="10" stroke-linecap="round" stroke-linejoin="round"/>
<path d="M158.079 216.044C158.079 216.044 158.71 215.727 159.391 217.729" stroke="#29ABE3" stroke-width="3" stroke-miterlimit="10" stroke-linecap="round" stroke-linejoin="round"/>
<path d="M159.837 215.292C159.837 215.292 160.602 215.653 160.874 216.949" stroke="#29ABE3" stroke-width="3" stroke-miterlimit="10" stroke-linecap="round" stroke-linejoin="round"/>
<path d="M155.391 227.799L155.523 228.845C155.566 229.183 155.721 229.465 155.904 229.532C157.194 230 161.201 228.803 162.74 227.887C164.254 226.984 165.164 226.412 166.488 224.847C168.449 222.526 173.928 216.593 173.928 216.593C173.928 216.593 174.024 215.174 173.41 214.648C173.191 214.461 167.054 221.671 164.377 224.711C163.731 225.445 162.549 226.146 161.808 226.412C158.864 227.47 155.391 227.799 155.391 227.799Z" fill="#29ABE3"/>
<path d="M161.364 214.204C161.488 214.424 161.673 214.572 161.877 214.611C162.71 214.773 165.147 214.752 167.05 213.41C169.431 211.727 171.894 208.963 171.894 208.963L168.915 200.826C168.915 200.826 159.419 174.12 156.799 165.986C154.892 160.065 152.162 155.41 148.168 157.396C144.421 159.259 144.016 162.887 145.844 169.199C147.122 173.609 154.86 195.456 154.86 195.456L159.689 210.669L161.364 214.204Z" fill="#D8A344"/>
<path d="M171.304 207.579L168.666 200.942C168.666 200.942 166.079 193.947 162.76 184.289C161.816 181.544 160.982 181.826 160.605 183.78C160.568 183.782 160.547 183.785 160.547 183.785C160.547 183.785 159.667 186.303 159.649 189.174C159.649 189.174 159.87 187.514 160.393 186.113C160.346 188.762 160.778 192.463 161.961 196.185C162.46 197.752 164.739 200.544 166.924 202.975C165.445 202.266 163.596 201.225 162.865 200.169C162.865 200.169 166.288 205.565 169.412 205.931C169.518 205.942 169.61 205.945 169.694 205.942C170.654 206.938 171.304 207.579 171.304 207.579Z" fill="#D8A344"/>
<path d="M183.755 170.37L190.776 177.787L192.182 176.414L184.457 168.72L183.755 170.37Z" fill="#102441"/>
<path d="M190.333 176.833L191.109 175.47C191.355 175.037 191.769 174.956 192.109 175.273L193.383 176.458C193.847 176.891 193.985 177.866 193.668 178.481L192.966 179.849C192.729 180.31 192.31 180.417 191.96 180.106L190.614 178.917C190.12 178.484 189.981 177.451 190.333 176.833Z" fill="#102441"/>
<path d="M184.985 163.317H180.069V218.384H184.985V163.317Z" fill="#102441"/>
<path d="M185.335 215.893C185.335 217.217 184.77 218.264 184.121 218.123C183.738 218.039 183.263 218.004 182.698 218.079C181.966 218.173 181.327 218.294 180.831 218.403C180.236 218.532 179.719 217.59 179.719 216.379V182.183H185.337V215.893H185.335Z" fill="#273150"/>
<path d="M184.049 177.787V180.718" stroke="#273150" stroke-width="3" stroke-miterlimit="10" stroke-linecap="round" stroke-linejoin="round"/>
<path d="M183.931 187.951V212.829" stroke="#273150" stroke-width="5" stroke-miterlimit="10"/>
<path d="M90.9612 229.706L88.3667 226.472L95.267 192.824L98.0907 195.305L90.9612 229.706Z" fill="#C83F37"/>
<path d="M95.2666 192.824L110.138 192.333L113.175 194.56L98.0903 195.305L95.2666 192.824Z" fill="#EB5E4D"/>
<path d="M113.176 194.56L106.996 227.19L90.9614 229.706L98.091 195.305L113.176 194.56Z" fill="#972D29"/>
<path d="M168.406 167.519L176.656 168.847C178.659 169.169 180.419 167.058 180.419 164.333V161.602C180.419 158.866 178.918 154.37 176.908 154.711L168.384 158.495C166.7 158.782 165.438 160.715 165.438 163.005C165.44 165.306 166.714 167.245 168.406 167.519Z" fill="#273150"/>
<path d="M195.081 167.412L178.138 169.012C175.853 169.227 173.924 166.384 173.924 162.801V160.762C173.924 157.285 175.745 154.484 177.965 154.542L194.908 154.984C197.091 155.042 198.836 157.843 198.817 161.259C198.799 164.525 197.166 167.215 195.081 167.412Z" fill="#634874"/>
<path d="M195.941 164.94C195.941 164.94 188.163 163.593 186.552 160.296C184.942 157 193.386 157.914 193.386 157.914C195.586 157.972 197.057 155.366 197.98 158.782C198.862 162.053 197.972 164.743 195.941 164.94Z" fill="#634874"/>
<path d="M174.01 231.993C175.51 231.993 176.726 230.09 176.726 227.743C176.726 225.396 175.51 223.493 174.01 223.493C172.51 223.493 171.294 225.396 171.294 227.743C171.294 230.09 172.51 231.993 174.01 231.993Z" fill="#131620"/>
<path d="M193.366 231.343C195.082 231.343 196.472 229.166 196.472 226.481C196.472 223.797 195.082 221.62 193.366 221.62C191.65 221.62 190.26 223.797 190.26 226.481C190.26 229.166 191.65 231.343 193.366 231.343Z" fill="#131620"/>
<path d="M174.723 227.419C174.723 227.419 174.705 227.639 175.864 227.146C177.082 226.627 177.473 226.366 177.511 226C177.56 225.544 177.362 224.458 177.785 224.215L181.501 222.245C182.132 221.956 182.785 221.544 183.431 221.741C183.431 221.741 190.904 224.877 191.754 225.111C192.605 225.345 192.31 226.836 192.744 227.019C193.503 227.343 194.494 227.243 194.494 227.243L194.849 222.644L181.342 217.764L174.628 223.669L174.723 227.419Z" fill="#102441"/>
<path d="M185.395 218.199C185.395 218.199 177.359 223 175.921 223.6C175.23 223.887 175.176 224.822 175.131 225.512L175.097 226.039C175.044 226.871 175.022 227.6 174.494 227.489L171.259 226.762C170.791 226.662 170.444 226.037 170.444 225.301C170.444 223.57 171.18 222.049 172.245 221.583C175.111 220.331 180.24 216.614 180.24 216.614L185.395 218.199Z" fill="#273150"/>
<path d="M179.965 218.704C179.965 218.704 191.112 222.889 192.586 223.22C193.322 223.384 193.874 224.394 194.105 225.185C194.335 225.977 193.969 227.361 194.497 227.248L197.096 227.076C197.563 226.977 197.878 225.933 197.878 225.194C197.878 223.463 197.348 221.942 196.283 221.477C193.418 220.225 184.634 216.583 184.634 216.583L179.965 218.704Z" fill="#273150"/>
<path d="M97.3481 231.088L94.1279 227.143L102.401 185.537L105.899 188.549L97.3481 231.088Z" fill="#AA4928"/>
<path d="M102.401 185.537L120.734 184.681L124.492 187.375L105.899 188.549L102.401 185.537Z" fill="#F6CF4C"/>
<path d="M124.493 187.375L117.1 227.708L97.3486 231.088L105.9 188.549L124.493 187.375Z" fill="#EE844E"/>
<path d="M100.312 237.056L108.831 234.924L108.774 232.174L100.256 234.306L100.312 237.056Z" fill="#F6CF4C"/>
<path d="M100.32 237.064C100.65 237.047 100.905 236.418 100.89 235.657C100.874 234.897 100.594 234.294 100.264 234.311C99.9344 234.327 99.6795 234.957 99.695 235.717C99.7104 236.477 99.9904 237.08 100.32 237.064Z" fill="#F5864E"/>
<path d="M108.793 234.934C109.123 234.918 109.378 234.288 109.362 233.528C109.347 232.768 109.067 232.165 108.737 232.181C108.407 232.198 108.152 232.827 108.168 233.588C108.183 234.348 108.463 234.951 108.793 234.934Z" fill="#F6CF4C"/>
<path d="M93.2202 233.965L98.0305 235.905L98.3219 232.824L93.3681 231.708L93.2202 233.965Z" fill="#F6CF4C"/>
<path d="M93.8175 232.757C93.7805 233.389 93.5143 233.937 93.2273 233.97C92.9433 234.002 92.7495 233.516 92.7939 232.891C92.8368 232.275 93.0957 231.75 93.3738 231.708C93.6563 231.667 93.8545 232.132 93.8175 232.757Z" fill="#F6CF4C"/>
<path d="M98.8233 234.268C98.8411 235.137 98.563 235.873 98.205 235.898C97.8515 235.924 97.566 235.241 97.5616 234.393C97.5571 233.562 97.8264 232.866 98.1666 232.824C98.5112 232.78 98.8056 233.421 98.8233 234.268Z" fill="#F5864E"/>
<path d="M178.892 88.4862L175.996 91.1019C174.904 92.088 173.471 91.4028 172.795 89.5718L169.869 81.639C169.193 79.8079 169.53 77.5232 170.622 76.5348L174.419 70.9352C175.511 69.9491 176.043 73.6158 176.719 75.4491L179.645 83.382C180.321 85.2153 179.984 87.5001 178.892 88.4862Z" fill="#A76343"/>
<path d="M178.929 85.1806L177.208 86.7361C176.559 87.3218 175.519 86.4028 174.885 84.6829L172.136 77.2338C171.502 75.5139 170.702 72.9398 171.349 72.3542L174.626 69.4236C175.275 68.838 175.747 72.3426 176.382 74.0625L178.952 81.0047C179.588 82.7246 179.577 84.5949 178.929 85.1806Z" fill="#AA6345"/>
<path d="M172.796 89.5718L169.87 81.6389C169.194 79.8079 169.595 77.4653 170.767 76.4075L173.872 73.6019C175.042 72.544 173.472 91.4028 172.796 89.5718Z" fill="#7C4631"/>
<path d="M171.573 114.294C171.573 114.294 167.341 108.574 164.456 106.468C162.358 104.935 160.417 107.671 160.801 110.681C161.124 113.201 169.071 125.428 170.418 127.537C171.764 129.644 172.34 134.16 176.38 129.644C180.42 125.13 175.611 118.206 171.573 114.294Z" fill="#7C4631"/>
<path d="M164.239 109.664C164.239 109.664 164.239 104.099 163.705 102.15C163.171 100.204 160.861 97.2106 159.972 96.3772C159.083 95.5416 158.031 98.5971 158.359 100.241C158.581 101.354 159.208 103.065 160.009 105.986C160.807 108.907 162.55 111.194 164.239 109.664Z" fill="#7C4631"/>
<path d="M164.606 116.16L161.368 119.037L155.874 103.308L153.724 96.4352L151.648 91.2569L154.558 88.9352L156.243 94.0903L159.047 101.262L164.606 116.16Z" fill="#F5864E"/>
<path d="M163.252 118.314C164.159 117.497 164.774 116.507 164.625 116.102C164.476 115.698 163.621 116.032 162.714 116.849C161.807 117.666 161.192 118.656 161.341 119.061C161.489 119.465 162.345 119.131 163.252 118.314Z" fill="#EB5E4D"/>
<path d="M154.216 100.208C153.337 100.326 153.149 101.771 153.445 102.792C153.741 103.812 154.232 103.759 155.217 103.954C156.47 104.201 158.511 104.366 158.658 103.412C158.804 102.456 158.569 101.942 157.081 100.977C156.571 100.646 155.095 100.09 154.216 100.208Z" fill="#7C4631"/>
<path d="M155.438 103.377C154.912 103.16 154.429 104.062 154.648 104.856C154.861 105.63 155.083 106.389 155.202 106.662C155.4 107.118 157.388 107.213 158.465 107.231C158.836 107.238 159.154 106.734 159.157 106.134L159.16 105.681C159.163 105.227 158.982 104.845 158.715 104.734L155.438 103.377Z" fill="#7C4631"/>
<path d="M156.161 108.634L156.345 109.037C156.491 109.359 156.71 109.525 156.921 109.477L158.932 109.019C159.307 108.933 159.523 108.218 159.384 107.519C159.284 107.016 159.025 106.676 158.75 106.681L156.556 106.734C156.046 106.75 155.814 107.87 156.161 108.634Z" fill="#7C4631"/>
<path d="M157.102 109.965L157.29 110.741C157.356 111.053 157.532 111.28 157.743 111.317C157.743 111.317 158.742 111.463 159.241 111.366C159.739 111.269 159.957 110.829 159.769 109.903C159.581 108.974 159.052 108.829 158.396 108.926C157.743 109.023 157.151 109.169 157.102 109.965Z" fill="#7C4631"/>
<path d="M159.231 95.875C158 95.4328 157.081 96.1041 155.22 97.2754C154.062 98.0046 155.604 100.435 156.683 100.266C157.719 100.104 158.711 99.8518 159.133 99.8889C160.146 99.9699 160.895 96.4722 159.231 95.875Z" fill="#7C4631"/>
<path d="M151.149 81.7176C152.556 80.757 156.317 82.6505 157.981 83.5764C158.255 83.7292 158.404 84.1806 158.329 84.6227L158.19 85.4236C158.19 85.4236 155.848 84.75 154.658 84.5278C153.847 84.375 153.208 85.2917 152.883 85.8935L151.149 81.7176Z" fill="#102441"/>
<path d="M145.946 87.3681L147.909 85.4468C148.063 85.2963 148.168 85.0509 148.198 84.7732L148.372 83.1227C148.402 82.8472 148.505 82.6019 148.658 82.4514C149.245 81.8681 150.81 80.3611 152.168 79.4352C153.704 78.3866 157.814 80.4537 159.63 81.4653C159.929 81.632 160.093 82.125 160.009 82.6065L159.858 83.4815C159.858 83.4815 157.3 82.7454 156 82.5023C155.114 82.3357 154.416 83.338 154.061 83.9931C153.897 84.2963 153.672 84.956 153.787 85.3009L154.777 88.2292C154.937 88.7037 155.009 89.0602 154.698 89.3102L151.526 91.8472C151.255 92.0625 151.299 92.0232 151.12 91.6505L150.061 89.4259C149.884 89.0509 149.184 88.8611 148.913 89.0787L147.099 90.5301C146.806 90.7639 146.449 90.6065 146.285 90.1713L145.729 88.6852C145.565 88.2315 145.659 87.6505 145.946 87.3681Z" fill="#634874"/>
<path d="M153.542 91.1759C152.759 91.8634 151.995 92.0995 151.835 91.7037C151.675 91.3078 152.253 90.6597 153.037 89.9722C153.821 89.2847 154.512 88.8217 154.67 89.2152C154.83 89.6111 154.324 90.4884 153.542 91.1759Z" fill="#F5864E"/>
<path d="M143.161 89.875C143.189 90.8379 143.409 92.3565 144.435 93.206C144.707 93.4305 144.865 93.5972 145.13 93.3356L146.607 91.8703C146.945 91.5393 147.054 90.8449 146.853 90.3194L145.846 87.6921C145.644 87.1666 145.21 87.0092 144.872 87.3403L143.409 88.7916C143.136 89.0648 143.146 89.3657 143.161 89.875Z" fill="#634874"/>
<path d="M159.859 222.086C160.482 226.41 160.474 230.507 160.445 232.023C160.437 232.38 160.27 232.669 160.042 232.715C158.399 233.058 151.971 234.37 149.7 234.475C147.796 234.563 142.924 234.174 141.432 233.482C140.745 233.164 140.414 230.146 140.233 228.269C139.995 225.796 140.656 223.56 143.363 222.151C146.063 220.745 149.86 221.602 149.86 221.602C149.86 221.602 159.642 220.574 159.859 222.086Z" fill="#131620"/>
<path d="M146.687 221.056C146.687 221.056 147.796 220.863 148.397 223.632" stroke="#29ABE3" stroke-width="3" stroke-miterlimit="10" stroke-linecap="round" stroke-linejoin="round"/>
<path d="M148.403 221.155C148.403 221.155 149.923 220.768 150.376 223.722" stroke="#29ABE3" stroke-width="3" stroke-miterlimit="10" stroke-linecap="round" stroke-linejoin="round"/>
<path d="M150.184 221.204C150.184 221.204 151.71 220.963 152.04 223.979" stroke="#29ABE3" stroke-width="3" stroke-miterlimit="10" stroke-linecap="round" stroke-linejoin="round"/>
<path d="M141.43 233.481C141.43 233.481 141.327 234.692 141.624 234.817C142.229 235.069 145.44 235.456 149.713 235.211C152.84 235.03 153.123 234.782 154.806 234.859C157.756 234.993 159.983 234.373 160.124 234.336C160.264 234.299 160.359 233.484 160.221 232.69C160.171 232.403 156.631 233.836 149.315 234.134C143.738 234.366 141.43 233.481 141.43 233.481Z" fill="#29ABE3"/>
<path d="M148.908 220.019C148.908 220.019 150.479 223.03 153.331 224.301C156.221 225.588 160.616 225.22 160.616 225.22L162.85 219.317L165.874 182.887C165.874 182.887 169.389 155.435 163.953 152.789C160.288 151.007 156.434 150.364 155.424 156.94C154.699 161.653 150.877 188.384 150.877 188.384L150.518 206.028C150.518 206.028 148.275 215.82 148.249 216.167C148.159 217.285 148.908 220.019 148.908 220.019Z" fill="#F6CF4C"/>
<path d="M189.581 138.241C189.581 138.241 195.584 133.701 197.306 144.53C199.027 155.359 192.742 155.824 192.742 155.824C192.742 155.824 182.328 159.139 176.026 160.13C171.169 160.894 158.782 167.051 157.063 158.06C156.034 152.674 158.54 148.546 162.168 147.144C165.796 145.741 189.581 138.241 189.581 138.241Z" fill="#FEED7F"/>
<path d="M192.321 148.887C193.514 146.417 194.766 143.857 194.766 143.857C194.949 135.572 187.747 138.959 187.747 138.959C187.747 138.959 168.775 144.088 161.036 147.597C155.874 149.938 153.503 163.972 161.486 163.908C165.566 163.875 183.378 158.641 183.378 158.641C183.378 158.641 192.219 153.139 194.097 148.222C194.326 147.621 193.226 148.831 192.321 148.887Z" fill="#F6CF4C"/>
<path d="M175.633 82.2755C176.836 81.0787 180.554 79.8797 181.976 80.7361C183.397 81.5926 190.948 97.7662 193.737 108.546C195.223 114.294 197.806 139.049 197.806 141.616C197.806 144.183 187.302 146.384 187.302 146.384C187.302 146.384 174.923 142.854 173.283 135.669C172.62 132.766 173.854 131.09 173.611 127.968C173.252 123.361 171.53 117.134 170.878 111.625C169.785 102.384 167.916 94.9723 169.711 90.1204C170.913 86.8681 174.431 83.4723 175.633 82.2755Z" fill="#29ABE3"/>
<path opacity="0.5" d="M175.633 82.2756C176.067 81.845 182.031 86.2964 182.031 86.2964L184.874 91.6019C184.874 91.6019 191.09 106.287 192.052 113.44C193.254 123.227 195.059 144.023 195.059 144.023C195.059 144.023 193.323 144.736 191.888 145.188C190.262 145.699 187.302 146.384 187.302 146.384C185.752 145.924 181.859 144.625 178.633 142.213C176.249 140.428 174.289 138.021 173.592 134.968C172.929 132.065 173.854 131.09 173.61 127.968C173.25 123.361 171.529 117.134 170.876 111.625C169.783 102.384 167.915 94.9723 169.709 90.1205C170.913 86.8681 174.431 83.4723 175.633 82.2756Z" fill="#209BC7"/>
<path d="M191.701 115.22L193.333 127.627C193.333 127.627 191.898 124.289 191.716 121.211C191.532 118.134 191.701 115.22 191.701 115.22Z" fill="#29ABE3"/>
<path d="M173.719 86.1249C173.719 86.1249 176.781 84.7569 178.312 85.4397C179.843 86.1249 183.014 93.824 184.217 99.6434C185.419 105.463 184.764 108.199 182.248 109.055C179.734 109.912 178.639 111.28 174.922 105.632C171.205 99.986 168.69 89.8911 173.719 86.1249Z" fill="#A96443"/>
<path d="M180.253 101.056C181.236 101.912 183.56 109.912 179.186 109.741C177.192 109.662 173.397 103.711 172.953 101.185C172.702 99.757 171.801 98.3056 172.188 98.1042C173.664 97.3333 179.269 100.201 180.253 101.056Z" fill="#7C4631"/>
<path d="M168.252 94.3404L169.838 91.4885C169.838 91.4885 170.603 101.014 172.407 104.866C174.212 108.718 178.969 113.507 178.969 113.507L184.217 130.792L184.014 141.116C183.525 143.417 180.945 144.044 179.64 145.354L167.502 152.012C167.375 152.137 165.534 165.188 165.534 165.188L165.06 174.542C165.06 174.542 162.566 174.428 156.005 173.401C149.443 172.373 142.243 168.952 142.243 168.952L146.835 140.544L173.283 135.667C173.283 135.667 172.864 135.558 172.631 133.961C172.117 130.445 171.404 122.671 170.276 113.847C168.635 101.014 168.252 94.3404 168.252 94.3404Z" fill="#273150"/>
<path d="M169.343 92.1806C170.386 85.6551 175.677 81.6412 180.391 79.5671" stroke="#F6CF4C" stroke-width="3" stroke-miterlimit="10" stroke-linecap="round" stroke-linejoin="round"/>
<path d="M181.092 79.5093C181.092 79.5093 181.422 76.544 182.296 76.7153C183.171 76.8889 183.052 79.3171 181.092 79.5093Z" stroke="#F6CF4C" stroke-width="3" stroke-miterlimit="10" stroke-linecap="round" stroke-linejoin="round"/>
<path d="M180.675 79.8703C180.675 79.8703 181.634 78.2245 180.812 77.2499C179.991 76.2754 179.672 77.6689 180.675 79.8703Z" stroke="#F6CF4C" stroke-width="3" stroke-miterlimit="10" stroke-linecap="round" stroke-linejoin="round"/>
<path d="M180.923 79.6689C180.923 79.6689 182.519 80.9027 182.657 82.9907" stroke="#F6CF4C" stroke-width="3" stroke-miterlimit="10" stroke-linecap="round" stroke-linejoin="round"/>
<path d="M180.749 79.7477C180.749 79.7477 181.439 83.3426 180.644 85.1898" stroke="#F6CF4C" stroke-width="3" stroke-miterlimit="10" stroke-linecap="round" stroke-linejoin="round"/>
<path d="M183.562 130.731C183.562 130.731 190.014 130.789 196.247 129.248" stroke="#F6CF4C" stroke-width="3" stroke-miterlimit="10" stroke-linecap="round" stroke-linejoin="round"/>
<path d="M195.917 129.25C195.917 129.25 195.369 131.303 196.464 132.16C197.559 133.016 197.23 130.961 195.917 129.25Z" stroke="#F6CF4C" stroke-width="3" stroke-miterlimit="10" stroke-linecap="round" stroke-linejoin="round"/>
<path d="M198.324 130.22C198.361 129.363 196.793 128.28 196.028 129.023C195.262 129.764 198.287 131.074 198.324 130.22Z" stroke="#F6CF4C" stroke-width="3" stroke-miterlimit="10" stroke-linecap="round" stroke-linejoin="round"/>
<path d="M195.772 129.535C195.772 129.535 198.177 131.474 198.105 135.354" stroke="#F6CF4C" stroke-width="3" stroke-miterlimit="10" stroke-linecap="round" stroke-linejoin="round"/>
<path d="M196.1 129.593C196.1 129.593 196.72 128.109 198.032 128.225" stroke="#F6CF4C" stroke-width="3" stroke-miterlimit="10" stroke-linecap="round" stroke-linejoin="round"/>
<path d="M174.704 86.8101C174.704 86.8101 170.33 86.8101 169.456 91.9444C168.582 97.0787 167.305 107.009 167.161 109.4C166.942 112.993 163.77 119.155 163.224 125.143C162.677 131.132 164.124 133.632 166.505 135.326C171.918 139.176 173.503 124.632 174.16 120.866C174.817 117.102 177.66 109.4 179.627 102.727C181.594 96.0532 179.624 85.9537 174.704 86.8101Z" fill="#A96443"/>
<path d="M166.502 135.324C171.914 139.174 173.5 124.63 174.157 120.863C174.814 117.1 177.657 109.398 179.624 102.725C180.752 98.8959 176.609 110.613 172.778 121.148C171.906 123.549 165.798 134.824 166.502 135.324Z" fill="#D77D5B"/>
<path d="M168.143 128.456C167.372 125.104 164.035 123.393 161.093 123.083C158.24 122.78 152.862 125.53 145.239 125.748C142.864 125.815 141.466 133.683 145.145 134.553C149.439 135.569 161.95 137.713 163.223 137.799C164.495 137.884 169.533 134.509 168.143 128.456Z" fill="#A76241"/>
<path d="M170.832 128.22C170.699 127.72 170.354 127.074 170.123 126.768C169.949 127.13 168.1 131.787 166.215 133.083C163.482 134.965 159.561 135.593 159.561 135.593C159.561 135.593 145.421 135.266 149.138 135.468C153.478 135.704 165.362 138.535 166.632 138.389C167.902 138.243 172.659 133.981 170.832 128.22Z" fill="#D77D5B"/>
<path d="M146.653 129.947C147.468 128.512 146.165 124.032 146.305 122.102C146.446 120.171 145.067 118.275 144.173 116.044C143.278 113.812 143.241 113.965 141.933 113.164C140.625 112.363 139.498 111.935 139.918 114.262C140.338 116.588 141.602 117.273 141.602 117.273C141.602 117.273 142.244 120.16 142.821 121.176C143.52 122.407 140.875 128.136 141.957 130.5C143.039 132.866 145.369 132.206 146.653 129.947Z" fill="#A76241"/>
<path d="M143.204 120.981C143.204 120.981 140.275 120.678 139.713 120.37C139.152 120.062 138.258 119.137 137.7 118.692C137.42 118.47 136.453 115.43 135.857 115.137C135.261 114.843 134.495 116.025 134.431 116.711C134.304 118.083 135.132 120.523 135.866 121.53C136.601 122.537 136.713 123.097 138.388 124.433C140.062 125.771 140.879 127.333 142.969 127.039C145.059 126.745 144.699 121.893 143.204 120.981Z" fill="#A76241"/>
<path d="M135.138 118.912C134.162 118.81 134.448 123.282 134.948 123.768C135.224 124.037 136.56 125.711 136.56 125.711L136.128 126.606C136.02 127.005 136.177 127.81 136.385 128.113L137.356 129.528L137.876 132.961C137.876 132.961 138.816 134.37 141 134.38C143.652 134.391 144.973 134.604 145.513 131.738C146.053 128.873 136.115 119.014 135.138 118.912Z" fill="#A76241"/>
<path d="M165.86 53.4584C163.69 52.6505 158.909 53.551 157.977 59.8843C157.344 64.1922 160.504 78.9792 161.986 82.4584C164.092 87.4028 166.258 86.0301 170.084 83.5996C174.066 81.0718 175.76 76.2107 175.142 71.081C174.523 65.9514 172.634 55.9815 165.86 53.4584Z" fill="#7A462F"/>
<path d="M165.252 61.9144C164.367 68.044 164.357 71.3356 165.166 74.5532C165.974 77.7708 169.198 83.8542 171.016 81.706C171.908 80.6528 172.992 79.4815 173.553 77.1782C173.863 75.9051 173.251 72.4468 172.538 70.3403C171.337 66.7824 166.133 55.7986 165.252 61.9144Z" fill="#A96443"/>
<path d="M157.909 60.3264C157.909 60.3264 159.145 62.1296 165.438 57.8241C165.573 57.7315 166.375 65.882 168.514 68.3334C169.295 69.2292 168.886 64.5394 169.867 65.7014C171.496 67.632 172.694 70.6435 172.694 70.6435L173.981 77.2361C173.981 77.2361 180.418 74.6713 178.377 64.3334C176.352 54.0718 173.711 43.2523 163.862 51.2315C158.674 55.4329 157.871 57.1829 157.909 60.3264Z" fill="#273150"/>
<path d="M167.247 53.9698C167.558 55.7569 171.464 58.9629 171.464 58.9629L175.999 64.6411C175.999 64.6411 177.684 75.9837 178.236 67.6735C178.536 63.1411 175.95 51.5578 171.835 49.449C169.651 48.3286 166.36 48.8633 167.247 53.9698Z" fill="#48598B"/>
<path d="M171.014 72.134C172.173 71.9366 172.941 69.3081 172.729 66.263C172.517 63.2179 171.406 60.9094 170.247 61.1068C169.088 61.3042 168.321 63.9327 168.532 66.9778C168.744 70.0229 169.855 72.3314 171.014 72.134Z" fill="#A96443"/>
<path d="M161.381 70.5937C161.717 70.3803 161.804 69.4988 161.577 68.6248C161.35 67.7509 160.894 67.2154 160.559 67.4288C160.223 67.6422 160.136 68.5237 160.363 69.3976C160.59 70.2716 161.046 70.8071 161.381 70.5937Z" fill="#102441"/>
<path d="M159.588 65.0301C159.588 65.0301 160.686 64.3032 161.741 65.4398" stroke="#102441" stroke-width="2" stroke-miterlimit="10" stroke-linecap="round" stroke-linejoin="round"/>
<path d="M167.35 55.3866C167.35 55.3866 170.19 58.6852 171.3 59.1111C171.3 59.1111 169.382 59.8148 167.35 55.3866Z" fill="#48598B"/>
<path d="M170.994 72.618C171.514 72.618 171.936 71.9578 171.936 71.1435C171.936 70.3291 171.514 69.6689 170.994 69.6689C170.474 69.6689 170.052 70.3291 170.052 71.1435C170.052 71.9578 170.474 72.618 170.994 72.618Z" fill="#F3E7D7"/>
<path d="M108.785 231.176L106.556 229.949L105.05 145.421H108.785V231.176Z" fill="#273150"/>
<path d="M108.785 195.736L105.973 194.729L105.05 145.421H108.785V195.736Z" fill="#102441"/>
<path d="M112.088 230.595L108.785 231.176V145.002H113.059L112.088 230.595Z" fill="#634874"/>
<path d="M112.088 230.595L108.785 231.176V195.736L112.58 186.303L112.088 230.595Z" fill="#634874"/>
<path d="M109.028 147.019L110.229 158.738L130.913 160.572L149.201 159.312L150.029 145.553L109.028 147.019Z" fill="#C83F37"/>
<path d="M109.028 147.019L110.213 158.738L130.6 160.572L130.197 146.255L109.028 147.019Z" fill="#972D29"/>
<path d="M130.231 147.201L130.377 152.451L149.692 151.023L149.991 145.553L130.231 147.201Z" fill="#972D29"/>
<path d="M125.297 240.609L121.683 239.019L118.626 145.477H124.42L125.297 240.609Z" fill="#273150"/>
<path d="M124.594 194.454L120.265 193.63L118.626 145.477H124.42L124.594 194.454Z" fill="#102441"/>
<path d="M128.261 240.109L125.296 240.606L123.893 145.866H128.573L128.261 240.109Z" fill="#634874"/>
<path d="M128.456 181.817L124.594 194.454L125.296 240.606L128.261 240.109L128.456 181.817Z" fill="#634874"/>
<path d="M155.834 237.799L153.151 236.458L150.789 145.669L155.189 145.479L155.834 237.799Z" fill="#273150"/>
<path d="M155.423 180.007L151.629 179.13L150.789 145.669L155.189 145.479L155.423 180.007Z" fill="#102441"/>
<path d="M159.119 237.368L155.833 237.752L155.188 145.479L159.521 145.169L159.119 237.368Z" fill="#634874"/>
<path d="M159.119 237.368L155.834 237.752L155.422 180.007L159.412 172.292L159.119 237.368Z" fill="#634874"/>
<path d="M130.212 148.484L98.5044 147.032V138.224L130.212 136.669V148.484Z" fill="#273150"/>
<path d="M130.212 148.484L168.695 146.727V136.468L130.212 136.674V148.484Z" fill="#634874"/>
<path d="M147.719 146.917L168.585 145.674L168.716 138.104L153.374 138.442L147.719 146.917Z" fill="#634874"/>
</svg>
