<svg width="285" height="251" viewBox="0 0 285 251" fill="none" xmlns="http://www.w3.org/2000/svg">
<path d="M190.915 41.5092C190.915 41.5092 189.338 23.3055 207.082 19.6041C224.826 15.9027 231.527 26.3911 231.527 26.3911C231.527 26.3911 236.654 22.9976 240.201 22.9976C243.748 22.9976 244.538 25.7754 244.538 25.7754C244.538 25.7754 258.338 21.7638 260.705 22.3819C263.072 22.9999 245.721 30.0948 223.643 36.8819C201.565 43.6689 179.087 49.8402 179.087 49.8402L190.915 41.5092Z" fill="#F3E7D9"/>
<path d="M128.05 66.5739C128.05 66.5739 121.867 49.7591 108.327 46.3031C94.7867 42.8471 93.3135 47.9165 93.3135 47.9165C93.3135 47.9165 97.1416 25.8031 83.5983 22.1179C70.0551 18.4327 53.2784 21.6573 40.9125 29.2591C28.5467 36.861 30.6087 44.2314 33.2593 49.2985C33.2593 49.2985 30.02 50.2198 25.6061 52.523C21.1893 54.8263 23.84 60.8147 26.7835 61.9675C26.7835 61.9675 19.719 61.9675 17.0684 61.9675C14.4177 61.9675 23.5442 64.7314 32.3748 67.2661C39.9245 69.4327 53.0713 72.104 64.0852 73.8401C65.8247 74.1133 67.0021 72.4929 65.8158 71.4628L64.168 70.03C64.168 70.03 96.9167 74.6364 118.628 76.9397C135.999 78.7823 128.05 66.5739 128.05 66.5739Z" fill="#F3E7D9"/>
<path d="M270.612 68.412C270.612 68.412 253.285 75.8402 239.52 78.9976C225.755 82.155 219.583 82.5254 219.583 82.5254L245.217 74.5393C245.217 74.5393 250.202 65.2546 255.187 65.6249C260.172 65.9953 262.544 68.0393 262.544 68.0393C262.544 68.0393 267.293 64.324 269.665 65.2546C272.038 66.1851 270.612 68.412 270.612 68.412Z" fill="#F3E7D9"/>
<path d="M135.686 205.509C135.686 205.509 77.9773 208.924 70.2176 208.924C62.4579 208.924 28.0259 211.958 21.7217 211.958C15.4175 211.958 26.5704 215.752 26.5704 215.752L11.5361 223.343L18.3255 227.896C18.3255 227.896 57.1211 232.069 69.7295 232.069C76.5189 231.69 108.525 224.479 108.525 224.479L123.559 222.201L152.172 226.375L169.629 224.097L179.33 220.873C179.33 220.873 185.634 219.544 199.213 219.544C212.792 219.544 252.072 220.303 258.376 220.303L260.802 213.472L271.955 207.4L135.686 205.509Z" fill="#856792"/>
<path d="M97.4964 207.405C97.4964 207.405 81.8557 206.266 86.5861 209.113C91.3135 211.958 103.318 211.107 103.318 211.107C103.318 211.107 93.1358 211.961 109.137 214.236C125.142 216.514 199.704 211.674 199.704 211.674C199.704 211.674 200.432 207.405 173.517 207.405C146.602 207.405 97.4964 207.405 97.4964 207.405Z" fill="#665070"/>
<path d="M48.879 219.549C48.879 219.549 13.4766 224.102 20.266 226C27.0554 227.898 44.9976 226.38 44.9976 226.38L60.0319 229.035C60.0319 229.035 89.6152 221.444 80.8852 220.687C72.1551 219.931 48.879 219.549 48.879 219.549Z" fill="#665070"/>
<path d="M106.833 217.748C106.833 217.748 98.4435 217.278 97.8429 218.451C97.2424 219.623 106.833 220.093 108.632 219.389C110.431 218.685 106.833 217.748 106.833 217.748Z" fill="#665070"/>
<path d="M114.048 216.525C114.048 216.525 108.534 216.218 108.141 216.988C107.747 217.759 114.048 218.067 115.232 217.604C116.415 217.141 114.048 216.525 114.048 216.525Z" fill="#665070"/>
<path d="M222.977 212.813C222.977 212.813 214.611 215.942 222.613 215.09C230.615 214.236 231.343 212.528 222.977 212.813Z" fill="#665070"/>
<path d="M236.434 214.141C236.434 214.141 229.888 212.433 230.979 214.426C232.071 216.417 239.345 215.565 236.434 214.141Z" fill="#665070"/>
<path d="M218.622 212.417C218.622 212.417 211.495 212.993 216.202 213.731C220.909 214.472 222.29 212.935 221.098 212.623C219.906 212.31 218.622 212.417 218.622 212.417Z" fill="#665070"/>
<path d="M255.468 222.204L200.668 221.255L186.24 221.065L173.511 225.618L179.33 230.171C179.33 230.171 181.998 231.31 195.334 232.259C208.671 233.208 244.073 235.104 246.496 234.914C248.922 234.725 257.164 224.859 257.164 224.859L255.468 222.204Z" fill="#665070"/>
<path d="M146.234 229.604C153.873 227.042 123.319 223.627 123.319 223.627C123.319 223.627 83.3107 229.319 93.8572 231.88C93.8572 231.88 138.596 232.164 146.234 229.604Z" fill="#665070"/>
<path d="M162.844 212.907C162.844 212.907 132.05 216.701 141.263 218.979C150.478 221.257 159.004 220.907 158.72 219.359C158.477 218.03 153.143 216.891 153.143 216.891C153.143 216.891 168.663 216.512 169.148 215.183C169.633 213.854 162.844 212.907 162.844 212.907Z" fill="#665070"/>
<path d="M157.873 227.611L169.875 226.757L179.696 231.597L143.324 233.588L149.507 230.458L157.873 227.611Z" fill="#856792"/>
<path d="M111.075 182.738C111.075 182.738 103.893 176.181 98.5055 173.84C93.1183 171.498 91.5238 179.461 96.1122 180.708C96.1122 180.708 93.7189 182.268 93.7189 183.986C93.7189 185.704 93.7189 185.704 93.7189 185.704C93.7189 185.704 89.7281 184.611 88.1335 186.796C86.536 188.981 88.5329 190.387 88.5329 190.387C88.5329 190.387 85.7402 191.479 85.7402 193.042C85.7402 194.604 86.539 195.697 90.1304 195.539C90.1304 195.539 87.9353 197.257 90.3286 198.662C92.7219 200.067 97.7097 201.005 101.301 197.102C104.89 193.199 111.075 182.738 111.075 182.738Z" fill="#288453"/>
<path d="M100.283 162.988C97.4904 161.583 96.6917 163.143 96.0941 164.861C95.4965 166.579 100.283 166.421 100.283 166.421C100.283 166.421 98.8868 166.734 97.2893 167.201C95.6918 167.669 99.4844 172.354 102.875 170.167C106.271 167.984 100.283 162.988 100.283 162.988Z" fill="#288453"/>
<path d="M95.1976 208.542C95.1976 208.542 95.8159 204.488 93.0084 203.687C90.201 202.887 90.5944 205.113 90.5944 205.113C90.5944 205.113 87.5296 198.391 81.7963 200.113C76.0631 201.836 79.2374 205.604 79.2374 205.604C79.2374 205.604 76.1844 198.512 72.7083 203.243C69.2293 207.972 73.0219 207.687 73.0219 207.687C73.0219 207.687 67.0579 202.75 65.1409 203.447C63.2269 204.144 65.061 205.664 65.061 205.664C65.061 205.664 54.3608 200.993 50.438 204.972C46.5153 208.951 52.1953 208.708 52.1953 208.708C52.1953 208.708 32.3508 208.641 36.5338 210.581C40.7169 212.521 49.3079 210.123 54.9613 210.616C60.6147 211.109 95.1976 208.542 95.1976 208.542Z" fill="#33A86D"/>
<path d="M118.994 102.905C113.971 94.9745 109.794 104.058 109.794 104.058C104.664 101.387 102.259 109.222 106.705 110.755C106.705 110.755 104.158 112.16 103.984 113.873C103.809 115.586 103.809 115.583 103.809 115.583C103.809 115.583 99.9426 114.243 98.1291 116.322C96.3156 118.4 98.1587 119.926 98.1587 119.926C98.1587 119.926 95.2625 120.84 95.1027 122.396C94.943 123.951 95.6264 125.09 99.2237 125.16C99.2237 125.16 96.86 126.734 99.1024 128.285C101.345 129.836 106.22 131.081 110.199 127.417C112.474 125.322 123.31 125.164 125.544 119.683C127.218 115.576 121.148 106.303 118.994 102.905Z" fill="#33A86D"/>
<path d="M67.04 129.938C58.733 135.945 71.0485 136.521 71.0485 136.521C69.2203 141.125 79.5064 140.722 80.1306 136.951C80.1306 136.951 82.5742 138.465 84.7219 138.116C86.8697 137.764 86.8697 137.764 86.8697 137.764C86.8697 137.764 86.3165 141.044 89.3784 141.82C92.4402 142.595 93.7892 140.78 93.7892 140.78C93.7892 140.78 95.7269 142.697 97.6794 142.377C99.6319 142.058 100.836 141.225 99.9071 138.505C99.9071 138.505 102.504 139.836 103.774 137.713C105.043 135.593 105.197 131.581 99.5787 129.627C96.3689 128.512 93.1206 120.419 85.7692 120.287C80.2578 120.19 70.5989 127.363 67.04 129.938Z" fill="#33A86D"/>
<path d="M128.169 132.032C128.169 132.032 125.506 120.065 121.598 120.199C117.691 120.333 120.649 124.708 120.649 124.708C120.649 124.708 115.197 120.94 112.549 123.058C109.901 125.176 113.206 126.144 113.206 126.144C113.206 126.144 106.612 128.776 109.916 129.743C113.221 130.711 115.389 128.565 115.389 128.565C115.389 128.565 115.135 135.782 118.306 133.317C121.477 130.852 122.678 128.644 122.678 128.644C122.678 128.644 122.595 138.917 128.169 132.032Z" fill="#288453"/>
<path d="M142.268 110.037C142.268 110.037 150.344 107.417 144.002 104.736C137.659 102.055 140.043 106.224 140.043 106.224C140.043 106.224 143.679 104.018 137.771 100.011C131.861 96.0045 133.541 103.185 133.541 103.185C133.541 103.185 131.02 99.8564 128.112 100.252C125.207 100.648 121.731 103.213 126.515 104.713C126.515 104.713 116.264 105.921 118.598 107.692C120.935 109.463 122.468 109.444 122.468 109.444C122.468 109.444 115.764 111.687 117.669 114.785C119.575 117.882 123.666 115.551 123.666 115.551C123.666 115.551 123.403 125.275 133.174 122.993C142.945 120.711 133.511 116.868 133.511 116.868C133.511 116.868 143.996 119.618 141.771 115.805C139.546 111.993 135.973 109.757 135.973 109.757C135.973 109.757 147.149 116.338 142.268 110.037Z" fill="#288453"/>
<path d="M121.964 121.366C121.964 121.366 119.453 117.401 125.254 117.766C131.055 118.132 128.209 122.139 128.209 122.139C128.209 122.139 131.461 118.917 132.561 122.412C133.662 125.907 131.534 127.676 131.534 127.676C131.534 127.676 136.836 123.44 136.774 128.766C136.715 134.093 132.153 131.141 132.153 131.141C132.153 131.141 131.126 136.405 127.742 136.195C124.358 135.984 126.198 132.289 126.198 132.289C126.198 132.289 112.234 135.6 114.713 130.426C117.19 125.252 119.219 129.188 119.219 129.188C119.219 129.188 112.761 125.736 114.968 123.211C117.169 120.683 121.964 121.366 121.964 121.366Z" fill="#33A86D"/>
<path d="M109.333 164.245C109.333 164.245 93.6861 146.521 95.2866 139.444C96.8871 132.37 94.9286 121.655 87.5742 116.75L88.6866 114.428C88.6866 114.428 98.2124 119.468 98.6088 128.377C99.0052 137.285 96.5202 140.204 98.0467 142.35C99.5732 144.495 99.5732 144.495 99.5732 144.495L105.147 136.988L104.839 122.961L106.75 121.373L107.786 136.812L102.765 147.431L111.767 157.562L109.333 164.245Z" fill="#7A462F"/>
<path d="M61.3247 124.405C61.3247 124.405 57.2245 126.431 60.4905 127.778C63.7565 129.125 65.1913 124.648 65.1913 124.648C65.1913 124.648 60.7419 130.079 64.9368 131.866C69.1318 133.653 71.6079 128.479 71.6079 128.479C71.6079 128.479 71.5103 134.183 75.4153 134.049C79.3203 133.914 78.7818 129.692 78.7818 129.692C78.7818 129.692 79.7285 134.701 83.5388 130.752C87.3492 126.803 82.2253 124.579 82.2253 124.579C82.2253 124.579 92.2423 121.782 88.0473 119.995C83.8524 118.208 82.6898 120.039 82.6898 120.039C82.6898 120.039 83.0596 111.688 79.6368 111.854C76.214 112.021 76.0188 113.912 76.0188 113.912C76.0188 113.912 69.2175 104.347 68.3833 107.722C67.549 111.097 69.7353 113.519 69.7353 113.519C69.7353 113.519 61.8661 109.597 61.0348 112.972C60.2035 116.347 64.709 115.106 64.709 115.106C64.709 115.106 54.4022 115.981 55.0974 118.69C55.7926 121.398 59.4077 119.343 59.4077 119.343C59.4077 119.343 51.4971 125.317 55.8459 125.59C60.2035 125.859 61.3247 124.405 61.3247 124.405Z" fill="#288453"/>
<path d="M77.0162 113.278C77.0162 113.278 72.1675 113.167 73.9188 115.713C75.6672 118.259 80.0514 115.169 80.0514 115.169C80.0514 115.169 72.484 117.729 74.6909 121.044C76.8979 124.359 82.6429 121.148 82.6429 121.148C82.6429 121.148 78.4894 125.838 81.8264 127.431C85.1634 129.026 87.7283 125.287 87.7283 125.287C87.7283 125.287 84.9386 129.854 90.9174 128.245C96.8962 126.634 94.2337 122.551 94.2337 122.551C94.2337 122.551 104.541 124.607 102.334 121.292C100.127 117.977 97.8577 118.989 97.8577 118.989C97.8577 118.989 104.126 112.222 101.168 110.864C98.2097 109.505 96.7009 110.989 96.7009 110.989C96.7009 110.989 97.8813 100.081 94.7839 102.516C91.6866 104.951 91.7694 107.914 91.7694 107.914C91.7694 107.914 88.0389 101.225 84.9416 103.66C81.8442 106.095 86.4651 107.035 86.4651 107.035C86.4651 107.035 77.2913 103.257 75.9334 105.808C74.5785 108.359 79.0456 108.232 79.0456 108.232C79.0456 108.232 68.2181 109.732 71.632 111.859C75.0459 113.986 77.0162 113.278 77.0162 113.278Z" fill="#288453"/>
<path d="M88.2374 102.296C88.2374 102.296 83.3887 102.185 85.14 104.731C86.8913 107.278 91.2726 104.187 91.2726 104.187C91.2726 104.187 83.7052 106.748 85.9121 110.062C88.119 113.377 93.8641 110.167 93.8641 110.167C93.8641 110.167 89.7106 114.856 93.0476 116.449C96.3846 118.044 98.9495 114.306 98.9495 114.306C98.9495 114.306 96.1598 118.873 102.139 117.264C108.117 115.655 105.455 111.569 105.455 111.569C105.455 111.569 115.762 113.625 113.555 110.31C111.348 106.995 109.079 108.007 109.079 108.007C109.079 108.007 115.348 101.241 112.389 99.8819C109.431 98.5231 107.922 100.007 107.922 100.007C107.922 100.007 109.102 89.0995 106.005 91.5347C102.908 93.9699 102.991 96.9329 102.991 96.9329C102.991 96.9329 99.2601 90.243 96.1627 92.6782C93.0654 95.1134 97.6863 96.0532 97.6863 96.0532C97.6863 96.0532 88.5125 92.2755 87.1546 94.8264C85.7997 97.3773 90.2668 97.25 90.2668 97.25C90.2668 97.25 79.4393 98.75 82.8532 100.877C86.2701 103.012 88.2374 102.296 88.2374 102.296Z" fill="#288453"/>
<path d="M109.468 104.012C109.468 104.012 104.62 103.901 106.371 106.447C108.119 108.993 112.504 105.903 112.504 105.903C112.504 105.903 104.936 108.463 107.143 111.778C109.35 115.093 115.095 111.882 115.095 111.882C115.095 111.882 110.942 116.572 114.279 118.164C117.616 119.757 120.18 116.021 120.18 116.021C120.18 116.021 117.391 120.588 123.37 118.979C129.348 117.37 126.686 113.285 126.686 113.285C126.686 113.285 136.993 115.34 134.786 112.026C132.579 108.711 130.31 109.722 130.31 109.722C130.31 109.722 136.578 102.956 133.62 101.597C130.662 100.238 129.153 101.722 129.153 101.722C129.153 101.722 130.333 90.8149 127.236 93.25C124.139 95.6852 124.222 98.6482 124.222 98.6482C124.222 98.6482 120.491 91.9584 117.394 94.3936C114.296 96.8287 118.917 97.7686 118.917 97.7686C118.917 97.7686 109.743 93.9908 108.386 96.5417C107.031 99.0926 111.498 98.9653 111.498 98.9653C111.498 98.9653 100.67 100.465 104.084 102.593C107.498 104.72 109.468 104.012 109.468 104.012Z" fill="#288453"/>
<path d="M188.06 64.9166L210.369 74.5925C211.209 74.9976 211.804 75.6504 212.026 76.4027C212.026 76.4027 218.129 84.4583 220.069 87.4953C223.226 92.4375 230.341 131.528 230.341 131.528C230.515 132.127 230.932 132.669 231.53 133.069L242.677 140.574C243.393 141.056 243.845 141.734 243.94 142.468L246.919 165.289L252.007 204.259C252.22 205.9 250.635 207.35 248.528 207.435L214.23 208.826C212.517 208.896 210.969 208.032 210.493 206.743L186.921 142.655C186.829 142.407 186.782 142.153 186.776 141.893L185.566 68.3425C185.531 66.0671 185.587 63.7199 188.06 64.9166Z" fill="#CE9436"/>
<path d="M93.4673 208.588L112.087 121.542L121.814 113.028L143.54 68.6551C143.981 67.7569 145.016 67.1203 146.238 67.0046C154.418 66.2245 185.167 63.3634 186.85 64.3495C188.791 65.4884 192.19 91.581 192.427 93.1898L196.133 134.012L209.313 144.803L211.457 209.069L93.4673 208.588Z" fill="#F7BC4B"/>
<path d="M145.936 67.037L165.591 65.2963L147.324 85.5972L153.87 87.0208L144.478 87.9745L136.819 111.843L163.813 113.486L121.814 113.025L143.54 68.4907C143.928 67.6944 144.853 67.1342 145.936 67.037Z" fill="#CE9436"/>
<path d="M121.814 113.028L112.087 121.539L103.842 160.732L101.902 163.894L101.023 167.752L101.967 168.877L100.624 175.146L131.331 176.053L147.324 176.1L119.684 148.968L133.26 148.588V122.405L141.869 113.204L121.814 113.028Z" fill="#CE9436"/>
<path d="M100.73 174.708L93.4673 208.588L158.601 208.829L154.962 195.451L131.091 174.368L100.73 174.708Z" fill="#CE9436"/>
<path d="M148.173 117.951C147.676 118.007 147.297 118.322 147.259 118.713C146.889 122.424 145.105 140.382 145.105 141.028C145.105 141.748 140.203 144.863 140.203 144.863L138.363 165.486H139.283L141.428 145.104L146.025 141.986L148.173 117.951Z" fill="#CE9436"/>
<path d="M147.164 142.329C147.164 142.329 169.316 142.229 169.931 142.229C170.547 142.229 170.236 167.167 170.236 167.167H169.316L169.624 142.947L147.164 142.329Z" fill="#CE9436"/>
<path d="M164.701 165.727L149.022 165.222L148.537 165.602L138.363 166.058L138.756 165.194L148.294 165.16L148.942 164.836L164.701 165.285V165.727Z" fill="#CE9436"/>
<path d="M133.908 175.91L131.322 175.782C131.322 175.782 122.196 176.206 114.178 176.1C113.8 176.095 113.27 175.229 112.895 175.225C106.91 175.146 101.523 175.095 100.626 175.146L100.487 175.845C100.487 175.845 106.07 175.84 112.717 175.866C113.176 175.868 113.791 176.729 114.258 176.731C120.563 176.757 127.521 176.375 131.485 176.479L134.07 176.669L133.908 175.91Z" fill="#F7BC4B"/>
<path d="M190.486 175.405C190.486 175.405 191.134 199.817 191.134 204.37C191.134 208.924 191.134 208.924 191.134 208.924L191.782 208.796L191.297 176.921L190.486 175.405Z" fill="#CE9436"/>
<path d="M199.254 175.405L169.673 175.782L169.511 176.669L199.254 175.405Z" fill="#CE9436"/>
<path d="M133.745 165.537C133.745 165.537 133.443 190.34 133.443 193.31C133.443 196.28 133.18 201.442 133.18 201.442L133.807 201.424C133.807 201.424 134.635 171.333 134.472 166.03L141.584 165.748L133.745 165.537Z" fill="#F7BC4B"/>
<path d="M187.211 138.153L187.332 156.748L204.307 156.653L204.064 166.898L203.579 157.412L186.365 157.222L186.85 139.102L187.211 138.153Z" fill="#CE9436"/>
<path d="M145.463 87.3148L144.478 87.9745L175.162 86.993L176.665 86.3564" fill="#CE9436"/>
<path d="M175.451 74.9722L176.179 91.6689L185.152 91.7638L176.865 89.3611L175.451 74.9722Z" fill="#CE9436"/>
<path d="M135.928 150.296C135.928 150.296 118.793 147.704 109.335 149.412L135.928 150.296Z" fill="#F7BC4B"/>
<path d="M159.125 150.824C159.125 149.086 157.234 147.877 155.078 148.104C153.096 148.312 151.602 149.681 151.602 151.174C151.602 152.336 152.51 153.336 153.85 153.734V157.481C153.85 157.977 154.379 158.433 155.048 158.502L155.285 158.528C155.98 158.602 156.557 158.238 156.557 157.715V153.711C158.027 153.264 159.125 152.148 159.125 150.824Z" fill="#1689CB"/>
<path d="M160.216 150.824C160.216 149.086 158.326 147.877 156.169 148.104C154.187 148.312 152.693 149.681 152.693 151.174C152.693 152.336 153.602 153.336 154.942 153.734V157.722C154.942 158.218 155.513 158.599 156.14 158.528L156.376 158.525C157.072 158.599 157.649 158.236 157.649 157.713V153.708C159.119 153.264 160.216 152.148 160.216 150.824Z" fill="#121721"/>
<path d="M168.825 134.94L168.177 123.924C168.145 123.917 152.048 121.153 152.048 121.153L169.39 121.646L168.825 134.94Z" fill="#CE9436"/>
<path d="M126.633 123.796L140.697 123.417L141.91 123.891L127.441 124.306L125.988 137.963L126.633 123.796Z" fill="#F7BC4B"/>
<path d="M165.026 112.16V100.301L165.754 92.8079L165.913 112.035L165.026 112.16Z" fill="#CE9436"/>
<path d="M171.331 111.78L188.788 111.495L189.072 112.602L173.068 112.319L171.331 111.78Z" fill="#CE9436"/>
<path d="M169.955 142.264L172.059 157.511L174.644 158.898L175.695 158.771L182.241 160.072L169.311 160.326L169.955 142.264Z" fill="#CE9436"/>
<path d="M213.883 116.333L211.339 107.227L206.917 106.363L199.701 104.951L210.49 108.176L213.883 116.333Z" fill="#F7BC4B"/>
<path d="M187.09 137.583L173.875 137.678L172.787 136.921L187.333 137.111L187.09 137.583Z" fill="#CE9436"/>
<path d="M167.692 168.227L167.523 176.921L168.121 178.123L168.097 179.259L167.796 192.433L168.662 192.322L169.633 168.227H167.692Z" fill="#CE9436"/>
<path d="M138.188 110.979L139.36 113.759L140.73 111.116L138.188 110.979Z" fill="#F7BC4B"/>
<path d="M193.519 115.481L198.367 117.662L193.758 120.319L193.519 115.481Z" fill="#F7BC4B"/>
<path d="M196.062 124.019L192.474 125.891C192.133 126.069 192.175 126.468 192.545 126.602L196.426 128.005L196.062 124.019Z" fill="#CE9436"/>
<path d="M159.651 206.014L152.741 204.875L159.894 202.979L159.651 206.014Z" fill="#F7BC4B"/>
<path d="M208.671 169.838C209.399 169.838 213.277 171.736 213.277 171.736L208.913 173.255L208.671 169.838Z" fill="#F7BC4B"/>
<path d="M139.809 152.826V156.116L135.443 154.85L139.809 152.826Z" fill="#CE9436"/>
<path d="M167.207 154.47L171.33 155.736L167.207 157.507V154.47Z" fill="#F7BC4B"/>
<path d="M145.507 184.636L144.052 189.477L148.779 187.484L145.507 184.636Z" fill="#F7BC4B"/>
<path d="M133.503 189.477L128.412 192.322L133.139 194.315L133.503 189.477Z" fill="#F7BC4B"/>
<path d="M176.26 112.035L178.242 114.912L180.141 112.16L176.26 112.035Z" fill="#CE9436"/>
<path d="M201.518 80.2847L207.701 83.8912L209.399 95.4629L208.428 83.5115L201.154 78.8634L201.518 80.2847Z" fill="#F7BC4B"/>
<path d="M206.49 94.6111L208.064 106.657L206.916 106.363L205.884 93.9468L206.49 94.6111Z" fill="#F7BC4B"/>
<path d="M205.884 93.9468L216.915 97.456L206.005 94.8959L205.884 93.9468Z" fill="#F7BC4B"/>
<path d="M232.48 158.349L242.638 158.59L231.205 159.456C231.098 158.859 231.707 158.331 232.48 158.349Z" fill="#F7BC4B"/>
<path d="M212.067 110.264L214.49 111.211L212.673 112.539L212.067 110.264Z" fill="#F7BC4B"/>
<path d="M229.201 132.363L217.134 131.285L228.553 131.197L229.201 132.363Z" fill="#F7BC4B"/>
<path d="M218.589 131.347L220.666 138.178L216.773 131.268L218.589 131.347Z" fill="#F7BC4B"/>
<path d="M218.175 133.799L215.758 135.407L219.143 135.646L218.175 133.799Z" fill="#F7BC4B"/>
<path d="M231.302 158.329L230.089 166.486L232.757 173.317L233.485 181.759L233.97 173.127L231.302 166.866V158.329Z" fill="#F7BC4B"/>
<path d="M188.788 66.625L186.607 70.2292L191.699 71.7477L188.788 66.625Z" fill="#CE9436"/>
<path d="M209.197 193.197C211.138 192.588 210.41 189.317 207.499 190.458C204.591 191.602 207.257 193.806 209.197 193.197Z" fill="#3E4C6F"/>
<path d="M215.987 194.06C215.987 194.06 215.218 192.322 212.674 192.322C210.13 192.322 208.592 194.505 212.594 196.211C216.597 197.917 215.987 194.06 215.987 194.06Z" fill="#3E4C6F"/>
<path d="M204.207 190.57C207.112 189.533 204.713 188.222 203.006 188C201.302 187.776 201.302 191.607 204.207 190.57Z" fill="#3E4C6F"/>
<path d="M215.945 189.949C215.945 189.949 215.945 187.104 213.762 187.104C211.582 187.104 208.671 189.097 215.945 189.949Z" fill="#3E4C6F"/>
<path d="M210.247 181.982C210.247 181.982 206.973 185.111 210.975 184.259C214.978 183.407 213.883 182.266 210.247 181.982Z" fill="#3E4C6F"/>
<path d="M208.793 175.435C208.793 175.435 204.429 180.558 205.518 177.144C206.612 173.729 208.793 175.435 208.793 175.435Z" fill="#3E4C6F"/>
<path d="M206.381 180.938C204.328 181.222 203.447 184.921 206.967 184.352C210.487 183.782 208.434 180.653 206.381 180.938Z" fill="#3E4C6F"/>
<path d="M208.798 184.512C206.854 184.789 206.023 188.398 209.354 187.843C212.685 187.287 210.742 184.234 208.798 184.512Z" fill="#3E4C6F"/>
<path d="M208.38 198.769C208.38 198.769 204.916 195.125 207.545 195.051C210.175 194.977 209.409 196.461 209.409 196.461C209.409 196.461 212.163 196.47 210.835 198.076C209.504 199.685 208.38 198.769 208.38 198.769Z" fill="#856792"/>
<path d="M104.811 182.523C104.811 182.523 101.374 180.301 105.56 178.431C109.746 176.56 110.642 180.887 109.746 181.706C108.847 182.523 106.155 183.227 104.811 182.523Z" fill="#856792"/>
<path d="M105.557 183.343C105.557 183.343 107.35 181.588 108.696 182.523C110.042 183.458 110.19 184.979 108.696 185.914C108.696 185.914 109.444 184.512 111.983 184.979C114.524 185.447 111.832 189.19 111.832 189.19C111.832 189.19 113.625 188.255 113.923 189.657C114.222 191.06 113.923 192.699 111.533 192.347C109.143 191.995 109.589 190.711 109.589 190.711C109.589 190.711 108.243 191.412 106.601 190.125C104.96 188.838 106.451 186.85 106.451 186.85C106.451 186.85 103.315 184.864 105.557 183.343Z" fill="#856792"/>
<path d="M99.8772 191.646C99.8772 191.646 100.924 190.125 98.682 189.658C96.4396 189.19 95.3953 190.359 96.8893 191.412C98.3832 192.465 99.8772 191.646 99.8772 191.646Z" fill="#856792"/>
<path d="M103.315 187.435C103.016 186.734 102.419 184.864 104.809 184.979C107.199 185.097 107.052 187.551 105.705 187.903C104.362 188.255 103.614 188.137 103.315 187.435Z" fill="#856792"/>
<path d="M107.62 177.185C107.374 176.607 106.88 175.06 108.853 175.155C110.829 175.252 110.705 177.28 109.593 177.57C108.483 177.861 107.865 177.764 107.62 177.185Z" fill="#856792"/>
<path d="M111.503 182.331C111.257 181.752 110.763 180.206 112.737 180.301C114.713 180.398 114.588 182.426 113.476 182.715C112.364 183.005 111.751 182.91 111.503 182.331Z" fill="#856792"/>
<path d="M108.365 195.662C108.12 195.084 107.626 193.537 109.599 193.632C111.575 193.729 111.451 195.757 110.338 196.046C109.229 196.338 108.614 196.243 108.365 195.662Z" fill="#856792"/>
<path d="M105.078 178.704C104.833 178.125 104.339 176.579 106.312 176.674C108.288 176.771 108.164 178.799 107.051 179.088C105.942 179.382 105.324 179.285 105.078 178.704Z" fill="#856792"/>
<path d="M206.605 137.734C206.605 137.734 207.824 134.377 203.02 134.694C198.218 135.012 200.618 138.972 201.949 139.25C203.283 139.525 206.008 138.91 206.605 137.734Z" fill="#3E4C6F"/>
<path d="M206.584 138.741C206.584 138.741 203.836 138.093 203.407 139.461C202.978 140.829 203.957 142.146 205.868 142.252C205.868 142.252 204.235 141.428 202.481 142.942C200.727 144.456 205.658 146.343 205.658 146.343C205.658 146.343 203.501 146.368 204.274 147.657C205.046 148.947 206.481 150.162 208.193 148.81C209.909 147.458 208.605 146.6 208.605 146.6C208.605 146.6 210.22 146.581 210.643 144.792C211.063 143.002 208.392 142.03 208.392 142.03C208.392 142.03 209.534 138.995 206.584 138.741Z" fill="#856792"/>
<path d="M217.281 143.053C217.281 143.053 215.317 142.266 216.822 140.884C218.328 139.505 220.038 140.002 219.571 141.532C219.103 143.063 217.281 143.053 217.281 143.053Z" fill="#3E4C6F"/>
<path d="M211.398 141.114C211.134 140.403 210.27 138.597 208.386 139.755C206.502 140.912 208.407 142.868 209.768 142.56C211.128 142.252 211.661 141.824 211.398 141.114Z" fill="#3E4C6F"/>
<path d="M200.422 134.583C200.206 133.995 199.49 132.505 197.934 133.461C196.378 134.417 197.952 136.032 199.076 135.778C200.2 135.526 200.638 135.171 200.422 134.583Z" fill="#3E4C6F"/>
<path d="M200.954 140.546C200.738 139.958 200.022 138.468 198.466 139.424C196.91 140.38 198.484 141.995 199.608 141.741C200.732 141.489 201.17 141.134 200.954 140.546Z" fill="#856792"/>
<path d="M213.207 150.13C212.991 149.542 212.276 148.051 210.719 149.007C209.163 149.963 210.737 151.579 211.861 151.324C212.986 151.072 213.423 150.718 213.207 150.13Z" fill="#3E4C6F"/>
<path d="M203.617 134.708C203.401 134.12 202.685 132.63 201.129 133.586C199.573 134.542 201.146 136.157 202.271 135.903C203.395 135.648 203.833 135.294 203.617 134.708Z" fill="#3E4C6F"/>
<path d="M134.23 209.303C134.23 209.303 131.44 203.326 128.653 203.042C125.863 202.757 132.046 208.354 132.046 208.354C132.046 208.354 127.804 205.509 124.529 204.845C121.254 204.181 128.165 208.639 128.165 208.639C128.165 208.639 121.497 206.361 120.284 206.551C119.071 206.741 128.165 209.301 129.014 209.396C129.866 209.493 134.23 209.303 134.23 209.303Z" fill="#3E4C6F"/>
<path d="M134.23 209.019C134.23 209.019 133.502 203.421 135.564 201.808C137.626 200.195 136.984 203.317 136.292 204.938C134.715 208.639 134.23 209.019 134.23 209.019Z" fill="#3E4C6F"/>
<path d="M92.0409 209.873C92.0409 209.019 91.7983 203.896 94.3454 201.336C96.8925 198.773 98.4664 199.248 98.4664 199.248L93.739 207.975C93.739 207.975 96.4074 204.94 98.3451 204.465C100.286 203.991 100.892 204.37 100.892 204.37L93.2538 209.588L92.0409 209.873Z" fill="#856792"/>
<path d="M205.52 199.153C205.52 199.153 206.248 196.023 203.337 194.03C200.426 192.037 198.245 195.169 198.245 195.169C198.245 195.169 197.154 190.9 191.699 190.331C186.243 189.762 187.211 199.343 187.575 201.333C187.575 201.333 178.966 193.743 174.238 195.736C169.511 197.729 181.998 204.748 184.181 205.887C184.181 205.887 170.966 202.282 168.055 203.137C165.144 203.991 171.33 209.398 176.058 209.968C180.785 210.537 184.788 212.245 190.243 210.252C190.243 210.252 203.337 213.382 206.975 209.968C210.611 206.551 205.52 199.153 205.52 199.153Z" fill="#3E4C6F"/>
<path d="M204.591 211.484C204.591 211.484 203.62 203.516 208.469 200.1C213.318 196.685 207.984 206.171 207.984 206.171C207.984 206.171 213.318 200.479 215.258 201.238C217.199 201.998 213.318 206.171 213.318 206.171C213.318 206.171 214.288 205.412 215.743 206.931C217.199 208.449 207.824 211.611 207.824 211.611L204.591 211.484Z" fill="#856792"/>
<path d="M233.748 208.525C233.748 208.525 230.612 202.174 235.165 203.502C239.718 204.831 238.061 206.148 238.061 206.148C238.061 206.148 242.691 195.516 246.126 198.472C249.56 201.428 248.276 202.681 248.276 202.681C248.276 202.681 251.247 190.396 256.222 193.917C261.198 197.437 254.368 201.606 254.368 201.606C254.368 201.606 259.261 197.294 260.435 200.889C261.607 204.486 254.166 207.979 254.166 207.979L233.748 208.525Z" fill="#3E4C6F"/>
<path d="M204.671 204.741C204.671 204.741 207.499 200.118 204.405 199.451C201.308 198.785 201.583 202.09 201.583 202.09C201.583 202.09 202.967 199.155 198.181 198.926C193.394 198.697 195.637 202.669 195.637 202.669C195.637 202.669 189.77 196.562 186.102 199.421C182.434 202.28 187.495 204.713 187.495 204.713C187.495 204.713 182.987 206.028 186.078 208.456C189.17 210.884 191.989 209.787 191.989 209.787C191.989 209.787 186.628 213.083 191.699 212.431C196.77 211.778 195.459 212.431 198.127 212.431C200.796 212.431 202.121 211.785 205.781 211.792C209.443 211.799 207.946 209.444 207.946 209.444C207.946 209.444 215.656 205.417 211.434 204.088C207.21 202.762 204.671 204.741 204.671 204.741Z" fill="#33A86D"/>
<path d="M224.675 209.303C223.704 208.544 215.88 202.685 220.447 203.109C225.015 203.532 224.672 205.042 224.672 205.042C224.672 205.042 223.607 196.787 227.337 199.669C231.071 202.553 229.52 205.127 229.52 205.127C229.52 205.127 234.902 200.188 234.641 203.428C234.384 206.667 233.641 207.215 233.641 207.215C233.641 207.215 237.404 201.238 238.425 203.688C239.446 206.137 235.461 208.731 235.461 208.731C231.245 209.396 225.645 210.063 224.675 209.303Z" fill="#3E4C6F"/>
<path d="M47.2432 218.831C47.2432 218.831 46.8024 220.718 47.0094 221.674C47.2165 222.63 48.3052 222.655 50.1216 222.699C51.938 222.743 53.1776 222.109 54.8638 222.435C56.5501 222.762 59.9344 221.991 60.9314 221.35C61.9283 220.711 61.6059 219.625 61.2775 218.764C60.9491 217.9 59.6504 217.995 56.2542 218.007C52.8551 218.018 47.4088 217.697 47.2432 218.831Z" fill="#ED5D4F"/>
<path d="M47.2822 217.882C47.2822 217.882 46.8414 219.768 47.0485 220.724C47.2556 221.68 48.8205 221.875 50.6399 221.919C52.4563 221.963 53.2166 221.16 54.9029 221.486C56.5891 221.812 59.1481 221.463 60.145 220.824C61.142 220.185 61.5414 219.275 61.213 218.414C60.8846 217.551 57.5447 217.123 54.1485 217.134C50.7464 217.146 47.4479 216.748 47.2822 217.882Z" fill="#121721"/>
<path d="M61.9673 190.338C62.1743 186.718 59.0267 185.046 55.6275 185.058C52.2314 185.069 52.0065 187.627 52.6899 191.819C53.3703 196.012 52.3763 196.653 52.119 197.025C51.8616 197.398 50.7877 198.488 51.2285 199.542C51.6723 200.597 51.3705 200.518 52.3142 201.206C53.2579 201.893 59.0444 204.859 59.3077 202.231C59.4971 200.375 61.7454 194.266 61.9673 190.338Z" fill="#48598B"/>
<path d="M58.8847 197.697C58.8847 197.697 58.5504 193.956 58.2072 190.34C57.867 186.724 59.0267 185.046 55.6275 185.058C52.2314 185.069 52.0065 187.627 52.6899 191.819C53.3703 196.012 52.3763 196.653 52.119 197.025C51.8616 197.398 50.7877 198.488 51.2285 199.542C51.6723 200.597 51.3705 200.518 52.3142 201.206C53.2579 201.893 54.1247 204.623 55.5477 202.234C57.1097 199.616 58.8847 197.697 58.8847 197.697Z" fill="#273252"/>
<path d="M56.3701 215.067C56.3701 215.067 57.5357 216.234 57.1452 216.889C56.7547 217.544 55.5211 218.083 52.9503 218.685C50.3795 219.287 46.2733 218.805 46.5781 217.296C46.8828 215.787 47.3531 216.081 47.3531 216.081C47.3531 216.081 49.3559 205.405 50.0423 203.428C50.7286 201.451 50.6517 200.31 53.0864 200.086C55.5211 199.861 59.1658 199.759 59.3078 202.231C59.4527 204.704 56.3701 215.067 56.3701 215.067Z" fill="#48598B"/>
<path d="M56.3701 215.067C56.3701 215.067 57.5357 216.234 57.1452 216.889C56.7547 217.544 55.5211 218.083 52.9503 218.685C50.3795 219.287 46.2733 218.805 46.5781 217.296C46.8828 215.787 47.3531 216.081 47.3531 216.081C47.3531 216.081 49.3559 205.405 50.0423 203.428C50.7286 201.451 50.912 199.891 53.3467 199.664C55.7814 199.44 57.4381 198.958 57.1275 200.66C56.6808 203.109 56.3701 215.067 56.3701 215.067Z" fill="#273252"/>
<path d="M68.3931 218.748C68.3931 218.748 67.6417 221.387 68.2511 222.287C68.8605 223.187 72.1028 223.014 73.7299 222.801C75.357 222.588 75.715 221.711 77.9751 221.766C80.2382 221.822 81.389 221.343 82.0813 220.222C82.7735 219.1 80.7382 217.405 78.9573 217.488C77.1764 217.572 74.4429 217.125 72.0052 217.444C69.5646 217.764 68.6061 217.488 68.3931 218.748Z" fill="#EE5D4F"/>
<path d="M68.4312 217.799C68.4312 217.799 67.6797 220.438 68.2892 221.338C68.8986 222.238 72.3953 221.817 74.0194 221.604C75.6465 221.391 75.7501 220.762 78.0132 220.817C80.2763 220.873 81.4271 220.394 82.1194 219.273C82.8116 218.153 80.2822 216.697 78.4984 216.78C76.7174 216.863 74.478 216.176 72.0403 216.495C69.6027 216.815 68.6442 216.539 68.4312 217.799Z" fill="#121721"/>
<path d="M69.6979 185.118C69.5943 187.736 65.3048 189.757 60.1158 189.63C54.9269 189.502 51.5455 190.083 50.9154 184.66C50.6107 182.051 55.3085 180.021 60.4975 180.148C65.6834 180.273 69.8044 182.5 69.6979 185.118Z" fill="#273252"/>
<path d="M61.491 184.062C65.9019 182.937 68.1265 181.947 69.7388 184.074C71.3511 186.201 72.7652 193.354 73.067 194.88C73.3687 196.405 73.6054 199.639 70.3128 200.032C67.0231 200.426 65.9522 200.97 64.831 197.62C63.9642 195.037 62.8311 193.016 60.7011 191.729C58.5682 190.444 57.0801 185.187 61.491 184.062Z" fill="#273252"/>
<path d="M72.0051 192.625C71.4252 188.41 72.8423 192.724 73.0671 194.882C73.286 196.974 73.6055 199.641 70.3129 200.035C67.0232 200.428 72.8275 198.597 72.0051 192.625Z" fill="#48598B"/>
<path d="M75.6967 218.104C75.6967 218.104 77.8829 218.062 77.6936 216.729C77.5042 215.396 75.8594 214.549 75.8594 214.549C75.8594 214.549 74.8181 199.669 73.4572 197.264C72.0964 194.859 66.1235 195.66 65.5289 198.398C64.9343 201.137 66.1827 207.389 66.443 208.896C66.7388 210.6 67.0288 211.722 67.1382 212.722C67.2506 213.722 67.1737 214.847 67.1737 214.847C67.1737 214.847 66.6797 215.037 66.6323 216.268C66.585 217.5 67.718 218.431 68.6055 218.5C70.0788 218.616 75.6967 218.104 75.6967 218.104Z" fill="#273252"/>
<path d="M75.6966 218.104C75.6966 218.104 77.8828 218.063 77.6934 216.729C77.5041 215.396 75.8593 214.549 75.8593 214.549C75.8593 214.549 74.8179 199.669 73.4571 197.264C72.0963 194.859 71.1407 195.336 71.7265 198.076C73.0548 204.278 72.7323 209.301 72.7944 210.822C72.8536 212.343 71.8182 215.495 72.2531 216.741C72.6879 217.984 75.6966 218.104 75.6966 218.104Z" fill="#48598B"/>
<path d="M54.5542 187.69C54.5542 187.69 56.7552 187.269 57.5806 187.859C58.406 188.449 61.8938 192.236 61.8938 192.236L57.3173 188.421L54.5542 187.69Z" fill="#273252"/>
<path d="M73.2471 207.081C73.2471 207.081 72.9602 209.731 71.7295 211.694C71.7265 211.694 74.0488 211.278 73.2471 207.081Z" fill="#48598B"/>
<path d="M57.4055 204.322C57.4055 204.322 56.9588 206.398 55.7459 207.889C54.533 209.377 54.1011 209.558 54.1011 209.558C54.1011 209.558 58.506 208.667 57.4055 204.322Z" fill="#48598B"/>
<path d="M52.0566 164.185C50.4 164.143 48.977 166.387 46.7967 172.345C45.7169 175.294 45.6992 177.569 48.1398 177.187C50.5804 176.805 51.2431 176.44 52.7016 172.301C56.3758 165.366 55.3078 164.264 52.0566 164.185Z" fill="#1D2538"/>
<path d="M55.5272 174.521C55.5272 174.521 52.7109 174.153 51.495 174.208C50.2792 174.264 50.5454 174.713 49.3828 175.444C47.4628 176.653 46.7617 176.266 46.7676 177.153C46.7735 178.361 50.927 178.266 52.5423 178.306C54.1575 178.345 60.018 179.437 61.3492 178.458C62.6864 177.479 60.5387 174.516 55.5272 174.521Z" fill="#C94039"/>
<path d="M50.0715 182.215C49.5715 182.583 49.894 183.417 50.252 183.738C50.252 183.738 53.4647 184.53 55.79 184.016C58.1152 183.505 58.624 182.924 60.5973 182.852C62.7775 182.773 67.9517 183.245 69.3362 183.447C70.1349 183.562 69.7563 182.032 69.7563 182.032C69.7563 182.032 63.9431 180.324 59.8932 181.458C55.8491 182.595 51.3702 183.102 50.0715 182.215Z" fill="#F3E7D9"/>
<path d="M60.1411 163.243C60.1411 163.243 52.9672 169.711 50.1597 167.174C47.3493 164.636 52.3371 161.248 56.1208 160.676C59.9045 160.104 64.3094 162.111 60.1411 163.243Z" fill="#273252"/>
<path d="M59.1501 160.687C59.1501 160.687 54.5174 161.301 52.7749 162.398C51.5709 163.155 50.1804 165.111 51.3638 165.829C51.9111 166.16 49.7781 166.75 49.8787 167.074C49.8787 167.074 48.4084 165.424 50.0621 163.472C51.7158 161.518 53.692 160.824 55.6327 160.65C57.8662 160.451 59.1501 160.687 59.1501 160.687Z" fill="#F3E7D9"/>
<path d="M64.3753 157.463L64.109 162.264L58.9023 162.706L59.0177 157.963L64.3753 157.463Z" fill="#CC6D3D"/>
<path d="M64.3741 157.463L64.1079 162.266C64.1079 162.266 63.2559 161.296 63.0665 160.532C62.8742 159.768 59.0195 157.965 59.0195 157.965L64.3741 157.463Z" fill="#F5894E"/>
<path d="M63.7298 161.495C63.7298 161.495 65.7799 160.787 67.4218 162.218C69.0637 163.65 70.3062 168.933 70.179 170.132C70.0488 171.331 70.3239 173.639 71.0754 174.995C72.3208 177.241 71.4422 180.984 70.5902 182.039C69.7382 183.095 70.1642 182.597 66.697 182.324C63.2299 182.049 59.2716 181.951 56.8132 182.778C54.3549 183.604 50.7871 183.833 49.9499 182.546C49.1127 181.259 49.5416 180.639 50.7161 179.59C51.8906 178.544 52.1154 174.942 51.7308 172.403C51.506 170.91 51.435 169.042 52.2604 167.014C52.8372 165.595 54.4436 166.995 57.2659 164.715C60.6768 161.954 63.7298 161.495 63.7298 161.495Z" fill="#C94039"/>
<path d="M63.7298 161.495C63.7298 161.495 65.7799 160.787 67.4218 162.218C69.0637 163.65 69.3063 169.667 69.1791 170.866C69.0489 172.065 70.3239 173.639 71.0754 174.993C72.3208 177.238 71.4422 180.981 70.5902 182.037C69.7382 183.092 70.1642 182.595 66.697 182.322C63.2299 182.046 59.2716 181.949 56.8132 182.775C54.3549 183.602 50.7871 183.831 49.9499 182.544C49.1127 181.257 49.5416 180.636 50.7161 179.588C51.8906 178.542 52.1154 174.94 51.7308 172.4C51.506 170.907 51.435 169.039 52.2604 167.012C52.8372 165.593 54.4436 166.993 57.2659 164.713C60.6768 161.954 63.7298 161.495 63.7298 161.495Z" fill="#992C29"/>
<path d="M66.8891 161.322C66.8891 161.322 65.2502 159.859 62.3007 160.829C59.3513 161.799 56.5734 164.484 55.325 165.403C54.0766 166.322 51.6182 166.072 50.4437 165.093C49.2693 164.116 48.6214 166.188 50.3727 167.843C52.1241 169.498 53.0767 169.998 55.0203 169.949C56.9639 169.903 58.1325 167.938 59.6442 166.551C61.1559 165.164 62.4812 162.35 63.7119 161.905C64.9425 161.461 67.114 161.752 67.8003 162.813C68.4866 163.873 69.0605 164.694 69.0605 164.694C69.0605 164.694 69.6197 162.81 66.8891 161.322Z" fill="#F3E7D9"/>
<path d="M67.2625 174.238C67.2625 174.238 68.3394 167.525 68.0406 165.905C67.7418 164.285 67.795 162.956 65.3929 162.329C62.9907 161.701 61.5234 165.081 61.3281 166.88C61.1358 168.678 60.0294 175.104 60.8489 175.789C61.6743 176.474 67.0407 177.743 67.2625 174.238Z" fill="#273252"/>
<path d="M67.2625 174.238L64.3989 169.044L65.3958 162.329C62.9936 161.701 61.5263 165.081 61.3311 166.88C61.1388 168.678 60.0324 175.104 60.8518 175.789C61.6742 176.474 67.0407 177.743 67.2625 174.238Z" fill="#1D2538"/>
<path d="M79.5513 183.16C76.9036 182.979 74.5783 184.44 74.3564 186.424C74.1346 188.407 76.0989 190.162 78.7466 190.343C81.3943 190.523 83.7196 189.063 83.9414 187.079C84.1633 185.095 82.196 183.34 79.5513 183.16ZM78.4715 188.248C77.371 188.171 76.5574 187.414 76.6551 186.553C76.7527 185.692 77.7201 185.056 78.8206 185.132C79.9211 185.208 80.7346 185.965 80.637 186.826C80.5394 187.685 79.572 188.322 78.4715 188.248Z" fill="#1689CB"/>
<path d="M79.4064 184.745C78.0072 184.65 76.7765 185.458 76.6552 186.553C76.7528 185.692 77.7202 185.056 78.8207 185.132C79.9212 185.208 80.7347 185.965 80.6371 186.826C80.5395 187.688 79.5721 188.324 78.4716 188.248C77.3711 188.171 76.5576 187.414 76.6552 186.553C76.5339 187.648 77.5664 188.611 78.9656 188.706C80.3649 188.801 81.5956 187.993 81.7169 186.898C81.8382 185.806 80.8057 184.84 79.4064 184.745Z" fill="#34283A"/>
<path d="M79.9503 184.097C80.3438 184.102 80.6781 183.884 80.7254 183.59L84.6748 159.641L84.9854 156.863C85.0179 156.574 84.7635 156.31 84.3878 156.243C83.9618 156.169 83.1187 155.947 83.0388 156.271L82.1779 161.741C82.1691 161.778 82.1543 161.813 82.1365 161.847L81.9235 163.28C81.8969 163.329 81.8791 163.382 81.8732 163.435L78.4652 183.435C78.4149 183.775 78.767 184.076 79.2226 184.083L79.9503 184.097Z" fill="#1689CB"/>
<path d="M86.6361 158.44L87.0354 159.069L87.0798 160.546L88.1359 160.618L91.0647 158.639L91.4434 159.34L91.2629 160.947C91.2629 160.947 89.8784 160.903 89.7009 161.542C89.5737 162.009 90.6535 161.863 90.6535 161.863L91.1061 162.354L90.8191 164.914L88.2158 164.623L87.9436 163.972L88.0649 162.898L86.7455 162.808L86.3314 164.657L83.8582 164.352L83.4263 163.681L86.6361 158.44Z" fill="#34283A"/>
<path d="M83.8853 158.218L86.681 158.41L86.7253 159.882L87.9678 159.968L88.3465 158.442L91.0356 158.639L90.8552 160.245C90.8552 160.245 89.7073 160.248 89.5328 160.889C89.3582 161.53 89.8464 161.808 90.6747 161.866L90.4114 164.215L87.9353 163.963L88.1246 162.262L86.5715 162.155L86.1573 164.005L83.1724 163.637L83.8853 158.218Z" fill="#1689CB"/>
<path d="M82.1371 169.829L81.4922 174.34" stroke="#29ABE2" stroke-width="2" stroke-miterlimit="10" stroke-linecap="round" stroke-linejoin="round"/>
<path d="M82.2465 169.169C82.4638 169.169 82.6399 169.031 82.6399 168.861C82.6399 168.691 82.4638 168.553 82.2465 168.553C82.0292 168.553 81.853 168.691 81.853 168.861C81.853 169.031 82.0292 169.169 82.2465 169.169Z" fill="#FFACFF" stroke="#29ABE2" stroke-miterlimit="10"/>
<path d="M82.5093 184.822C82.5093 184.822 83.4501 185.838 83.2016 187.345C82.9531 188.852 81.8496 189.285 81.8496 189.285" stroke="#29ABE2" stroke-width="2" stroke-miterlimit="10" stroke-linecap="round" stroke-linejoin="round"/>
<path d="M84.7081 158.276C84.7081 158.276 84.0484 158.199 84.007 158.37C83.9685 158.542 83.6401 160.75 83.6401 160.75C83.6401 160.75 84.1342 158.498 84.149 158.389C84.1638 158.28 84.3856 158.343 84.7081 158.276Z" fill="#665070"/>
<path d="M83.3818 163.042L83.6658 161.18L83.5475 161.15L83.3818 163.042Z" fill="#665070"/>
<path d="M76.5419 180.225C76.5419 180.225 77.7104 180.396 78.0181 179.482C78.3257 178.567 78.5565 178.22 78.6127 178.151C78.6719 178.083 79.5298 177.912 79.6304 177.972C80.0504 178.222 79.3404 179.243 79.8818 179.255C80.4232 179.266 82.8875 179.813 83.0561 180.1C83.2247 180.387 83.1863 181.377 83.1863 181.377L82.0858 181.776C82.0858 181.776 82.1509 182.414 81.9556 182.764C81.7604 183.114 81.1953 183.664 81.1953 183.664L78.3169 183.241C78.3169 183.241 76.885 182.852 76.2786 182.199C75.6751 181.549 76.5419 180.225 76.5419 180.225Z" fill="#F5894E"/>
<path d="M75.5178 179.09C75.5178 179.09 76.2574 178.762 76.9585 179.442C77.6597 180.123 77.6005 181.609 77.0739 182.641C76.5473 183.671 76.0651 183.565 76.0651 183.565L74.6333 182.961L75.5178 179.09Z" fill="#F3E7D9"/>
<path d="M66.3772 174.09C66.9629 173.867 67.1582 173.766 67.7912 174.37C68.6077 175.15 69.8266 175.819 71.3827 176.333C72.9387 176.844 76.042 178.124 76.2432 179.173C76.4444 180.222 77.0064 181.312 75.8586 182.708C74.7108 184.104 73.5422 183.03 71.8678 182.421C70.1934 181.812 62.6881 177.872 61.5965 176.925C60.8332 176.266 60.5285 175.546 61.9278 175.462C63.8655 175.342 65.7944 174.312 66.3772 174.09Z" fill="#C94039"/>
<path d="M66.3772 174.09C66.9629 173.867 67.1582 173.766 67.7912 174.37C68.6077 175.15 69.8266 175.819 71.3827 176.333C72.9387 176.844 76.042 178.124 76.2432 179.173C76.4444 180.222 77.0064 181.312 75.8586 182.708C74.7108 184.104 73.5422 183.03 71.8678 182.421C70.1934 181.812 62.6881 177.872 61.5965 176.925C60.8332 176.266 60.5285 175.546 61.9278 175.462C63.8655 175.342 65.7944 174.312 66.3772 174.09Z" fill="#EE5D4F"/>
<path d="M66.5102 173.84C67.096 173.618 69.9833 178.007 71.5394 178.519C73.0955 179.03 76.0154 178.817 76.2165 179.868C76.4177 180.917 77.0064 181.31 75.8615 182.706C74.7137 184.102 73.5452 183.028 71.8707 182.419C70.1963 181.81 62.691 177.87 61.5994 176.924C60.8362 176.264 60.5315 175.544 61.9308 175.461C63.8655 175.343 65.9245 174.063 66.5102 173.84Z" fill="#C94039"/>
<path d="M63.5879 149.85C63.5879 149.85 66.5078 149.44 67.4131 151.225C68.3509 153.067 68.8774 157.097 68.3597 157.845C67.842 158.593 67.6675 158.968 63.8927 159.35C60.1178 159.732 57.1388 159.375 57.5115 156.155C57.8843 152.938 58.0943 150.759 63.5879 149.85Z" fill="#F5894E"/>
<path d="M63.5879 149.85C63.5879 149.85 66.5078 149.44 67.4131 151.225C67.6024 151.6 65.1854 156.245 65.1884 156.771C65.1973 158.1 67.3036 158.317 67.3243 158.484C67.3421 158.651 67.6675 158.968 63.8927 159.35C60.1178 159.732 57.1388 159.375 57.5115 156.155C57.8843 152.938 58.0943 150.759 63.5879 149.85Z" fill="#CC6D3D"/>
<path d="M64.434 151.958C64.434 151.958 69.1259 149.921 66.7385 148.914C64.3541 147.907 59.9196 148.035 59.0202 149.343L58.5114 149.44C58.5114 149.44 56.9701 149.528 55.0738 151.475C53.1775 153.421 53.5651 157.692 56.9642 158.796C58.541 159.31 59.0824 159.433 60.2953 159.4C61.5082 159.368 62.7655 159.287 63.3069 157.877C63.8482 156.47 64.434 151.958 64.434 151.958Z" fill="#1D2538"/>
<path d="M64.4344 151.958C64.4344 151.958 69.1263 149.921 66.739 148.914C64.3545 147.907 61.482 148.912 62.0352 149.243C62.5884 149.574 63.3694 150.287 63.3694 150.287C63.3694 150.287 61.1388 153.523 60.6685 155.157L61.2305 155.234C61.2305 155.234 62.7659 159.289 63.3073 157.88C63.8487 156.47 64.4344 151.958 64.4344 151.958Z" fill="#3E4C6F"/>
<path d="M64.0775 155.51C64.6881 155.409 65.0145 154.703 64.8065 153.934C64.5985 153.165 63.9349 152.623 63.3243 152.725C62.7137 152.826 62.3874 153.531 62.5954 154.3C62.8034 155.069 63.4669 155.611 64.0775 155.51Z" fill="#CC6D3D"/>
<path d="M67.5166 152.593C67.558 152.944 67.4219 153.109 67.2562 153.123C67.0906 153.134 66.9604 152.988 66.919 152.637C66.8776 152.285 66.9781 151.991 67.1438 151.979C67.3065 151.965 67.4752 152.241 67.5166 152.593Z" fill="#34283A"/>
<path d="M67.1258 151.266C66.6465 151.347 66.3418 151.634 66.3418 151.634" stroke="#34283A" stroke-width="0.75" stroke-miterlimit="10" stroke-linecap="round" stroke-linejoin="round"/>
<path d="M64.8395 151.414L65.162 153.653C65.1768 153.764 65.1324 153.877 65.0378 153.961L64.4313 154.505L64.1147 151.333L64.8395 151.414Z" fill="#3E4C6F"/>
</svg>
