<svg width="284" height="251" viewBox="0 0 284 251" fill="none" xmlns="http://www.w3.org/2000/svg">
<path d="M110.514 93.9051C110.514 93.9051 95.5325 81.4514 108.173 67.1644C120.814 52.8773 146.561 39.3264 178.863 44.8195C211.165 50.3125 209.76 83.6482 207.887 88.044C207.887 88.044 219.59 78.5209 234.104 90.9746C248.614 103.428 220.995 132.734 220.995 132.734C220.995 132.734 239.251 125.042 241.594 130.537C243.934 136.032 158.734 182.919 142.351 189.877C142.351 189.877 149.842 178.889 134.861 186.581C119.88 194.273 121.752 199.035 98.8133 205.63C75.8744 212.225 46.3828 224.31 41.7027 224.31C37.0226 224.31 54.8111 208.926 65.109 203.065C75.407 197.204 80.5574 195.373 80.5574 195.373C80.5574 195.373 61.8312 179.623 77.75 167.9C93.6658 156.178 99.2837 163.139 99.2837 163.139C99.2837 163.139 66.9816 129.074 114.265 126.875C114.265 126.875 93.37 124.965 96.4762 108.926C98.8103 96.8334 110.514 93.9051 110.514 93.9051Z" fill="#F3E7D9"/>
<path d="M28.7495 124.062L43.7276 136.273L62.297 120.155L28.7495 124.062Z" fill="#665070"/>
<path d="M62.2972 120.155L36.1987 130.123L36.2372 136.273L62.2972 120.155Z" fill="#856792"/>
<path d="M45.3286 44.743L72.3619 54.6781L93.6619 35.449L45.3286 44.743Z" fill="#856792"/>
<path d="M93.6619 35.449L62.0314 56.1758L57.4814 49.4791L93.6619 35.449Z" fill="#BB83C3"/>
<path d="M192.907 32.1828L228.25 25.0393L213.737 38.7754L192.907 32.1828Z" fill="#856792"/>
<path d="M228.25 25.0393L202.737 35.662L204.376 42.6226L228.25 25.0393Z" fill="#BB83C3"/>
<path d="M90.854 200.132L116.757 193.294L103.649 207.213L90.854 200.132Z" fill="#856792"/>
<path d="M116.757 193.294L96.4185 203.15L96.5279 207.525L116.757 193.294Z" fill="#665070"/>
<path d="M162.27 103.764C157.682 104.208 146.999 112.417 139.556 119.306C129.923 128.218 117.998 137.741 112.987 139.748C106.775 142.238 99.8431 145.447 96.8818 145.567C96.8818 145.567 111.351 156.431 117.2 160.065C123.048 163.699 119.575 156.097 127.069 159.662C134.562 163.227 147.605 174.127 147.605 174.127C147.605 174.127 153.868 172.398 162.847 165.245C174.577 155.903 191.572 116.148 188.38 109.481C185.188 102.815 166.595 102.641 162.27 103.764Z" fill="#992C29"/>
<path d="M121.212 160.294C121.584 159.819 127.525 153.268 129.604 151.463C131.684 149.657 115.901 159.25 115.901 159.25C115.901 159.25 117.703 160.613 119.132 160.981C120.472 161.326 120.839 160.768 121.212 160.294Z" fill="#C94039"/>
<path d="M178.943 109.757C178.943 109.757 190.558 108.641 195.691 106.546C200.823 104.451 196.466 88.53 185.348 87.5716C172.645 86.4744 158.809 93.2429 151.387 98.2823C143.964 103.322 148.372 109.185 160.699 110.838C173.201 112.516 178.943 109.757 178.943 109.757Z" fill="#29ABE2"/>
<path d="M151.78 104.243C152.691 109.407 174.192 107.347 180.733 106.641C187.274 105.935 191.838 101.176 190.927 96.0114C190.016 90.847 183.975 87.2336 177.431 87.9419C170.888 88.6503 150.868 99.0785 151.78 104.243Z" fill="#992C29"/>
<path d="M144.455 97.2014C144.455 97.2014 141.411 96.8357 138.604 95.3704C135.796 93.9051 134.213 89.7848 134.391 88.9607C134.669 87.6574 139.071 84.382 141.18 84.5649C143.287 84.7477 147.499 90.0602 147.499 92.6227C147.496 95.1852 146.561 97.0186 144.455 97.2014Z" fill="#FFFCF3"/>
<path d="M140.319 93.9978C140.319 93.9978 140.319 97.7501 143.174 99.8149C146.029 101.88 155.54 103.38 160.531 99.8149C165.521 96.2501 165.288 90.9955 165.288 90.9955L159.818 92.8728C159.818 92.8728 145.313 90.058 143.647 90.058C141.982 90.058 140.319 93.9978 140.319 93.9978Z" fill="#FFFCF3"/>
<path d="M141.764 93.3542L144.456 91.3403L146.911 96.0093L141.764 93.3542Z" fill="#F6BE4A"/>
<path d="M139.737 92.6896C139.984 92.6067 140.081 92.3539 139.955 92.1249C139.829 91.8959 139.528 91.7774 139.282 91.8602C139.036 91.943 138.938 92.1958 139.064 92.4248C139.19 92.6539 139.491 92.7724 139.737 92.6896Z" fill="#1D2538"/>
<path d="M144.183 90.3064C144.426 90.2216 144.513 89.9597 144.378 89.7215C144.242 89.4832 143.935 89.3588 143.691 89.4436C143.448 89.5284 143.361 89.7903 143.497 90.0286C143.632 90.2668 143.939 90.3912 144.183 90.3064Z" fill="#1D2538"/>
<path d="M151.108 93.5069C153.377 100.278 160.631 100.898 168.873 101.046C173.828 101.134 178.594 99.1967 181.245 96.162C183.002 94.1481 183.827 91.655 183.153 88.949C181.467 82.1666 170.84 78.3726 162.598 78.2268C154.356 78.0763 148.67 86.2337 151.108 93.5069Z" fill="#273252"/>
<path d="M163.244 82.812C163.683 80.8048 160.493 78.7023 156.118 78.116C151.742 77.5296 147.839 78.6815 147.4 80.6887C146.961 82.6959 150.151 84.7984 154.527 85.3848C158.902 85.9711 162.805 84.8192 163.244 82.812Z" fill="#273252"/>
<path d="M164.656 80.2427C166.075 78.9063 164.528 76.07 161.201 73.9076C157.875 71.7452 154.028 71.0756 152.609 72.412C151.19 73.7484 152.737 76.5847 156.063 78.7471C159.39 80.9095 163.237 81.5791 164.656 80.2427Z" fill="#273252"/>
<path d="M181.944 88.623C184.76 86.6782 184.345 82.709 181.016 79.7575C177.687 76.8061 172.705 75.9901 169.889 77.9349C167.073 79.8797 167.488 83.8489 170.817 86.8004C174.146 89.7518 179.127 90.5678 181.944 88.623Z" fill="#273252"/>
<path d="M192.316 91.3896C192.705 87.1804 188.615 83.519 183.18 83.2116C177.746 82.9042 173.025 86.0672 172.636 90.2764C172.247 94.4855 176.337 98.1469 181.772 98.4543C187.207 98.7617 191.928 95.5987 192.316 91.3896Z" fill="#273252"/>
<path d="M185.122 83.6015C186.703 79.4225 182.346 74.729 175.392 73.1185C168.437 71.5079 161.518 73.5901 159.937 77.7692C158.357 81.9482 162.713 86.6417 169.668 88.2522C176.622 89.8628 183.541 87.7806 185.122 83.6015Z" fill="#273252"/>
<path d="M151.863 93.3889C153.75 98.9097 162.457 100.417 169.178 100.507C173.219 100.56 176.083 99.3379 178.225 96.8518C179.648 95.2014 178.529 91.7546 177.967 89.5463C176.556 84.0139 169.468 80.1643 162.747 80.0741C156.025 79.9838 149.836 87.4583 151.863 93.3889Z" fill="#48598B"/>
<path d="M163.107 83.1833C163.484 81.4584 160.742 79.6515 156.982 79.1476C153.222 78.6437 149.868 79.6336 149.49 81.3586C149.113 83.0836 151.855 84.8904 155.615 85.3943C159.375 85.8982 162.729 84.9083 163.107 83.1833Z" fill="#48598B"/>
<path d="M164.169 80.4531C165.136 79.5425 164.08 77.6089 161.812 76.1344C159.544 74.6598 156.921 74.2027 155.954 75.1133C154.987 76.0239 156.043 77.9574 158.311 79.432C160.579 80.9065 163.202 81.3637 164.169 80.4531Z" fill="#48598B"/>
<path d="M179.961 89.9322C182.381 88.2615 181.486 84.3746 177.963 81.2506C174.439 78.1266 169.622 76.9485 167.202 78.6193C164.783 80.29 165.678 84.1769 169.201 87.3009C172.724 90.4249 177.542 91.603 179.961 89.9322Z" fill="#48598B"/>
<path d="M188.144 91.6957C188.478 88.0782 184.963 84.9315 180.293 84.6673C175.622 84.4031 171.565 87.1215 171.231 90.739C170.897 94.3565 174.412 97.5032 179.083 97.7674C183.753 98.0316 187.81 95.3132 188.144 91.6957Z" fill="#48598B"/>
<path d="M182.437 84.2119C183.796 80.62 180.053 76.5864 174.078 75.2026C168.102 73.8188 162.157 75.6088 160.798 79.2007C159.44 82.7926 163.182 86.8261 169.158 88.2099C175.133 89.5937 181.078 87.8037 182.437 84.2119Z" fill="#48598B"/>
<path d="M141.085 158.574C141.085 158.574 141.822 161.512 161.868 163.623C170.048 164.484 178.076 164.144 184.499 163.998C189.904 163.875 199.912 162.41 204.491 161.197C209.041 159.993 213.112 157.38 202.634 151.336C192.134 145.282 146.351 147.836 141.085 158.574Z" fill="#EE5D4F"/>
<path d="M193.657 168.841C193.852 171.535 193.378 178.198 188.808 178.559C184.323 178.913 181.495 176.274 179.723 172.292C177.196 166.619 166.384 139.966 177.8 138.753C189.216 137.54 190.497 141.496 192.127 146.67C193.754 151.841 193.296 163.853 193.657 168.841Z" fill="#273252"/>
<path opacity="0.4" d="M193.406 173.294C193.281 173.863 189.986 169.819 189.986 169.819C189.986 169.819 189.622 161.012 187.8 160.1C181.395 156.403 175.83 158.694 175.83 158.694C172.677 149.792 170.594 139.516 177.8 138.75C189.217 137.537 190.498 141.493 192.128 146.667C193.074 149.669 193.317 154.975 193.423 159.875C193.5 163.417 194.036 170.387 193.406 173.294Z" fill="#273252"/>
<path d="M198.055 179.252C203.507 192.046 205.001 202.738 206.596 218.387C207.229 224.595 202.389 223.764 200.744 219.113C198.597 213.046 192.245 200.435 185.154 183.183C183 178.882 194.106 169.984 198.055 179.252Z" fill="#CC6D3D"/>
<path d="M195.064 178.368C201.8 191.951 202.502 200.576 203.88 214.079C204.016 215.407 204.208 216.472 204.075 217.373C203.771 219.421 201.076 220.412 200.008 217.396C198.156 212.16 191.257 198.308 185.142 183.424C183.281 179.711 191.168 170.509 195.064 178.368Z" fill="#F5894E"/>
<path d="M195.834 175.528C194.965 174.403 191.947 169.116 183.507 170.687C181.164 171.123 181.197 174.56 183.625 180.229C185.309 184.162 185.8 185.09 185.954 185.391C185.954 185.391 192.426 182.428 199.461 182.456C199.461 182.456 197.861 178.153 195.834 175.528Z" fill="#273252"/>
<g opacity="0.4">
<path opacity="0.4" d="M192.284 172.66C192.284 172.66 193.677 172.63 195.322 174.972C197.266 177.743 199.422 182.428 199.422 182.428" fill="#273252"/>
</g>
<path opacity="0.4" d="M185.868 176.081C185.868 176.081 190.036 176.484 191.415 175.167C191.415 175.167 190.897 177.31 189.463 177.771C188.028 178.231 186.599 177.141 186.599 177.141L187.906 176.972L185.868 176.081Z" fill="#273252"/>
<path d="M201.028 220.333C201.36 224.852 201.629 230.632 213.915 230.037C220.148 229.736 212.859 223.792 210.767 221.604C210.767 221.604 207.105 218.005 206.812 217.442C206.063 216.007 203.141 215.539 201.36 218.322C200.44 219.759 200.981 219.678 201.028 220.333Z" fill="#CC6D3D"/>
<path d="M199.499 222.109C199.253 222.891 199.44 224.067 200.81 224.833C203.694 226.442 208.415 227.935 213.282 227.736C219.394 227.484 207.185 225.164 206.164 224.005C205.141 222.845 204.916 217.972 204.141 216.433C203.235 214.632 202.96 215.958 201.883 217.292C200.807 218.625 199.774 221.229 199.499 222.109Z" fill="#F5894E"/>
<path d="M200.632 218.472C200.632 218.472 200.434 218.586 201.428 220.282C205.179 226.687 207.285 226.829 212.451 227.014C215.853 227.137 210.898 221.731 210.898 221.731L207.084 217.861C207.084 217.861 210.489 220.421 213.412 223.31C215.208 225.086 217.397 226.613 218.14 227.687C219.447 229.278 220.841 231.806 219.154 232.021C213.498 232.736 206.158 231.308 204.818 230.704C203.478 230.1 203.419 228.579 201.789 226.924C201.171 226.296 199.064 225.069 198.99 224.523C198.97 223.118 198.913 222.648 199.428 220.993C199.975 219.238 200.632 218.472 200.632 218.472Z" fill="#992C29"/>
<path d="M163.987 213.528C165.196 216.514 164.291 217.111 163.291 218.113C155.881 225.549 153.833 222.875 152.603 223.396C148.503 225.13 148.112 221.194 149.955 220.294C151.727 219.426 154.484 216.09 156.682 214.354C157.709 213.542 157.759 213.06 159.218 212.847C160.741 212.623 163.478 212.266 163.987 213.528Z" fill="#F5894E"/>
<path d="M164.215 217.289C160.384 226.44 150.746 224.509 148.834 223.905C148.045 223.655 152.725 219.062 152.725 219.062C152.725 219.062 158.26 217.657 161.221 216.479C164.324 215.243 165.354 214.572 164.215 217.289Z" fill="#CC6D3D"/>
<path d="M164.298 213.634C163.949 213.185 163.901 213.398 163.821 213.738C163.203 216.373 162.999 217.426 160.487 219.771C159.632 220.569 159.769 222.271 152.207 222.875C149 223.132 152.725 219.063 152.725 219.063L156.914 214.13L155.645 215.208C155.645 215.208 150.663 220.035 148.66 221.185C146.699 222.31 144.678 227.394 146.631 227.456C151.609 227.618 156.304 227.016 160.198 226.109C162.008 225.604 162.901 222.542 163.597 222.315C163.597 222.315 165.454 221.148 165.422 220.338C165.386 219.56 164.789 214.264 164.298 213.634Z" fill="#992C29"/>
<path d="M153.623 175.319C153.623 175.319 149.372 157.722 153.049 148.539C155.25 143.044 159.996 141.847 165.214 141.766C170.433 141.685 171.711 144.847 171.166 148.312C170.622 151.778 168.244 170.708 166.693 175.083C165.031 179.785 161.117 179.611 158.608 179.704C155.688 179.812 154.475 178.664 153.623 175.319Z" fill="#273252"/>
<path opacity="0.4" d="M161.708 161.338C159.667 160.389 151.644 160.201 151.644 160.201C151.452 156.104 151.724 151.847 153.046 148.539C155.247 143.044 159.993 141.847 165.211 141.766C170.43 141.685 171.708 144.847 171.163 148.312C170.927 149.817 170.344 154.236 169.634 159.113C169.634 159.113 167.927 170.549 167.113 173.192C166.921 173.125 166.125 170.451 164.889 166.199C164.072 164.729 163.75 162.287 161.708 161.338Z" fill="#273252"/>
<path opacity="0.4" d="M155.138 177.345C155.138 177.345 158.886 177.081 160.327 176.375C161.765 175.669 157.83 180.361 155.138 177.345Z" fill="#273252"/>
<path d="M166.691 178.766C171.454 189.201 167.83 194.356 163.883 213.803C163.519 215.597 158.996 217.042 157.632 214.419C157.407 213.984 157.437 213.137 157.372 212.171C156.896 205.039 153.287 187.5 154.328 180.606C155.13 175.292 164.342 173.623 166.691 178.766Z" fill="#F5894E"/>
<path d="M168.856 185.461C169.057 187.248 169.122 189.861 168.454 193.528C167.454 199.019 165.528 205.94 165.309 207.137C164.948 209.13 163.871 214.035 163.57 215.273C163.38 216.049 160.466 216.97 160.466 216.97C160.466 216.97 162.061 212.748 162.422 211.671C163.167 209.44 166.504 193.701 166.984 185.85C167.043 184.94 168.652 183.65 168.856 185.461Z" fill="#CC6D3D"/>
<path d="M167.558 176.715C165.768 173.104 163.611 172.389 159.896 172.47C156.766 172.539 154.133 172.507 154.213 178.275C154.266 182.037 154.263 184.78 154.136 186.338C154.136 186.338 158.097 184.88 168.93 185.778C168.933 185.78 168.744 179.109 167.558 176.715Z" fill="#273252"/>
<path opacity="0.4" d="M167.558 176.715C167.188 176.007 167.283 178.484 167.283 178.484L166.966 185.653C166.966 185.653 167.404 185.655 168.931 185.78C168.934 185.78 168.948 181.463 167.558 176.715Z" fill="#273252"/>
<path d="M150.295 112.551C150.295 112.551 144.018 120.979 142.678 122.799C140.181 126.187 143.902 128.356 146.92 126.829C149.937 125.301 156.709 117.512 158.043 115.643C159.374 113.775 153.552 110.229 150.295 112.551Z" fill="#CC6D3D"/>
<path d="M161.939 105.576C160.327 104.567 155.978 105.845 153.041 109.139C149.787 112.787 148.884 114.398 148.884 114.398C148.884 114.398 151.754 114.236 153.023 115.377C155.088 117.231 156.606 119.245 156.606 119.245C156.606 119.245 159.937 115.264 161.803 112.551C163.537 110.032 164.022 106.882 161.939 105.576Z" fill="#C94039"/>
<path d="M164.063 127.352C169.004 131.005 182.55 126.461 182.893 122.787C183.038 121.225 183.517 117.586 185.18 110.917C186.221 106.745 186.351 105.387 185.727 104.831C184.091 103.373 178.275 103.069 172.311 102.609C162.475 101.85 161.901 103.704 158.922 107.384C155.289 111.873 154.348 120.167 164.063 127.352Z" fill="#F7BC4B"/>
<path d="M178.707 112.22C183.647 115.873 182.656 125.6 182.999 121.926C183.144 120.363 183.517 117.588 185.18 110.919C186.221 106.748 186.351 105.389 185.727 104.833C184.091 103.375 180.458 100.5 171.879 101.194C162.046 101.991 161.262 104.766 158.108 108.618C154.449 113.088 168.992 105.032 178.707 112.22Z" fill="#CE9436"/>
<path d="M160.019 109.838C158.155 110.731 156.738 111.794 156.738 111.794C156.738 111.794 156.957 109.863 158.531 107.907C159.717 106.433 170.199 107.824 170.199 107.824C170.199 107.824 161.202 109.271 160.019 109.838Z" fill="#CE9436"/>
<path d="M171.645 107.046L172.411 107.056C174.157 107.077 175.592 105.984 175.618 104.62L175.704 100.046C175.731 98.6807 174.334 97.558 172.592 97.5371L171.826 97.5279C170.08 97.507 168.645 98.5996 168.619 99.9631L168.533 104.537C168.506 105.903 169.9 107.026 171.645 107.046Z" fill="#F5894E"/>
<path d="M171.537 102.03L172.764 102.044C174.383 102.063 175.714 101.051 175.737 99.7847L175.829 94.8496C175.853 93.5834 174.56 92.5417 172.942 92.5232L171.714 92.5093C170.096 92.4908 168.765 93.5023 168.741 94.7685L168.649 99.7037C168.626 100.97 169.918 102.012 171.537 102.03Z" fill="#CC6D3D"/>
<path d="M194.51 112.785C196.88 116.268 199.776 120.801 200.592 121.926C201.486 123.155 202.06 127.465 199.95 128.523C197.841 129.581 194.744 126.544 193.605 125.692C192.466 124.843 187.99 119.285 186.357 116.343C185.076 114.032 185.342 111.352 186.907 110.59C188.472 109.826 192.14 109.301 194.51 112.785Z" fill="#F5894E"/>
<path d="M194.51 112.785C196.88 116.269 199.785 120.796 200.593 121.926C200.998 122.491 200.983 122.836 200.974 123.234C200.965 123.632 202.004 126.456 201.214 125.866C200.59 125.4 195.673 118.005 193.765 114.569C192.197 111.738 193.439 111.211 194.51 112.785Z" fill="#CC6D3D"/>
<path d="M183.209 105.002C185.54 104.137 188.972 104.877 191.88 109.035C193.406 111.218 195.509 114.139 195.509 114.139C195.509 114.139 191.788 114.933 187.253 117.734C187.253 117.734 185.365 115.474 183.945 113.352C180.957 108.884 181.389 105.678 183.209 105.002Z" fill="#EC5E4D"/>
<path d="M183.209 105.002C185.54 104.137 188.972 104.877 191.88 109.035C193.407 111.218 195.51 114.139 195.51 114.139L193.841 114.572L189.824 112.456L182.964 111.595C180.937 107.868 181.588 105.604 183.209 105.002Z" fill="#C94039"/>
<path d="M186.81 112.759C186.81 112.759 190.969 113.044 192.522 113.611C194.072 114.178 193.771 114.569 193.771 114.569L186.81 112.759Z" fill="#C94039"/>
<path d="M194.031 154.745C194.031 154.745 197.158 153.521 196.214 151.958C195.27 150.396 192.584 150.261 192.584 150.261L194.031 154.745Z" fill="#C93F37"/>
<path d="M183.644 124.965C183.644 124.965 202.471 146.618 203.77 149.447C205.071 152.282 209.465 155.972 209.228 157.444C208.012 154.613 196.149 155.322 194.031 154.748C194.031 154.748 198.427 152.59 194.8 151.495C191.173 150.4 182.828 150.141 177.92 150.12C163.267 150.062 146.245 151.965 141.065 158.734C141.065 158.734 150.333 126.794 162.102 120.021C173.636 113.377 183.644 124.965 183.644 124.965Z" fill="#F7BC4B"/>
<path d="M183.644 124.965C183.644 124.965 202.471 146.618 203.77 149.447C205.071 152.282 209.465 155.972 209.228 157.444C208.012 154.613 196.149 155.322 194.031 154.748C194.031 154.748 198.427 152.59 194.8 151.495C191.173 150.4 182.828 150.141 177.92 150.12C163.267 150.062 146.245 151.965 141.065 158.734C141.065 158.734 145.275 150.59 179.68 140.701C187.197 138.539 183.644 124.965 183.644 124.965Z" fill="#CE9436"/>
<path d="M162.27 103.764C157.682 104.208 146.644 112.014 139.198 118.903C129.566 127.815 116.389 137.553 111.36 139.53C105.609 141.789 93.8529 146.308 90.8916 146.428L96.9266 149.525C96.9266 149.525 110.082 148.368 119.972 138.949C131.936 127.556 151.709 107.831 162.27 103.764Z" fill="#29ABE2"/>
<path d="M167.939 108.373C176.222 107.215 192.614 110.285 192.594 110.144C191.703 104.185 182.521 101.368 178.388 100.963C175.642 101.067 169.519 103.887 167.939 108.373Z" fill="#29ABE2"/>
<path d="M165.371 101.889C167.971 101.324 171.371 106.692 171.723 107.595C172.075 108.498 162.327 106.276 146.278 114.588C140.764 117.442 159.454 102.352 165.371 101.889Z" fill="#29ABE2"/>
<path d="M170.095 107.354C170.515 107.354 170.856 107.088 170.856 106.759C170.856 106.431 170.515 106.164 170.095 106.164C169.675 106.164 169.335 106.431 169.335 106.759C169.335 107.088 169.675 107.354 170.095 107.354Z" fill="#273150"/>
<path d="M154.052 101.87L156.534 105.572L155.179 106.687L155.061 107.921" stroke="#1D2538" stroke-miterlimit="10"/>
<path d="M156.534 105.572L156.551 106.597L157.247 107.544" stroke="#1D2538" stroke-miterlimit="10"/>
<path d="M160.146 104.104L160.255 105.185L161.039 106.155" stroke="#1D2538" stroke-miterlimit="10"/>
<path d="M156.977 100.498L160.145 104.104L158.891 105.336L158.885 106.641" stroke="#1D2538" stroke-miterlimit="10"/>
<path d="M160.244 104.032L161.116 104.074L162.359 105.155" stroke="#1D2538" stroke-miterlimit="10"/>
<path d="M179.956 125.528C179.956 125.528 177.303 119.789 175.276 118.813C173.247 117.836 168.567 114.782 168.567 114.782L144.223 117.59L149.997 123.329L151.87 126.748L179.956 125.528Z" fill="#F3E7D9"/>
<path d="M149.603 119.912C149.251 119.866 146.559 120.644 146.559 120.644C146.559 120.644 148.899 119.544 148.783 119.178C148.665 118.813 147.849 118.447 147.849 118.447L143.518 119.546L141.5 121.056C141.107 121.35 141.033 121.819 141.325 122.178C141.689 122.625 142.148 123.183 142.349 123.391C142.55 123.602 142.692 124.613 142.994 125.451C143.213 126.067 144.399 126.824 144.399 126.824C144.399 126.824 147.559 127.329 148.553 126.688C149.547 126.046 152.413 123.986 152.706 123.252C152.706 123.252 152.239 122.521 151.594 122.475C151.594 122.475 151.594 121.65 151.36 121.375C151.126 121.1 150.425 120.644 150.425 120.644L149.603 119.912Z" fill="#F5894E"/>
<path d="M179.799 121.468C179.799 121.468 180.305 120.521 179.681 119.544C179.056 118.567 176.054 117.986 174.649 117.347C173.125 116.65 173.089 118.567 174.805 119.667C176.521 120.766 177.77 122.322 179.799 121.468Z" fill="#F5894E"/>
<path d="M158.422 120.521L180.266 115.516L172.622 131.511L168.096 123.574L158.422 120.521Z" fill="#856792"/>
<path d="M179.956 115.516L167.939 122.963L168.406 126.627L179.956 115.516Z" fill="#665070"/>
<path d="M198.055 122.474C198.055 122.474 191.727 121.157 187.491 121.717C183.254 122.278 181.139 121.451 180 122.933C178.861 124.414 179.929 125.884 182.911 126.336C185.893 126.787 192.295 129.428 195.49 129.164C198.877 128.884 200.712 129.06 201.336 127.236C201.96 125.412 200.54 122.363 198.055 122.474Z" fill="#F5894E"/>
<path d="M183.387 123.819C183.387 123.819 182.393 121.773 181.145 120.553C179.896 119.333 179.195 119.224 177.781 120.118C176.367 121.012 175.08 121.882 173.832 121.882C172.583 121.882 168.566 121.623 167.474 122.354C166.383 123.086 167.474 123.208 167.474 123.208C167.474 123.208 165.915 123.451 166.226 123.94C166.537 124.428 168.409 124.551 168.409 124.551C168.409 124.551 169.814 125.282 170.282 125.405C170.749 125.528 176.231 126.458 176.231 126.458C176.231 126.458 180.737 126.139 181.985 125.405C183.23 124.674 183.387 123.819 183.387 123.819Z" fill="#F5894E"/>
<path d="M180.054 89.1985C181.976 88.6427 182.835 86.7125 181.973 84.8874C181.111 83.0622 178.854 82.0333 176.932 82.5891C175.011 83.1449 174.152 85.075 175.014 86.9002C175.876 88.7253 178.133 89.7543 180.054 89.1985Z" fill="#CC6D3D"/>
<path d="M160.292 81.4907C159.857 82.9212 163.416 83.7059 167.152 84.4004C170.889 85.0971 174.273 84.4999 174.708 83.0717C175.143 81.6411 172.466 79.9189 168.729 79.2244C164.99 78.5277 160.727 80.0601 160.292 81.4907Z" fill="#273150"/>
<path d="M177.74 86.8124C174.853 79.3957 166.295 78.949 164.265 79.0971C154.145 79.8425 151.172 84.5277 154.656 92.8587C157.076 98.6411 160.404 99.5323 165.238 99.8402C171.052 100.211 181.347 96.074 177.74 86.8124Z" fill="#CC6D3D"/>
<path d="M175.471 89.9305C172.859 84.412 165.211 84.0509 163.401 84.155C163.401 84.155 156.103 86.0231 154.721 87.537C153.34 89.0509 155.904 94.0184 155.904 94.0184C158.567 98.8796 160.271 99.1365 164.59 99.3819C169.785 99.6759 178.734 96.824 175.471 89.9305Z" fill="#F5894E"/>
<path d="M168.33 81.5185C158.567 80.1296 153.538 84.5277 153.538 84.5277C153.538 84.5277 157.76 76.7222 167.146 78.5092C178.092 80.5925 177.527 85.2823 177.501 87.7685C177.501 87.7685 175.95 82.6018 168.33 81.5185Z" fill="#F6BE4A"/>
<path d="M179.329 80.78C179.809 81.3518 177.202 83.8472 175.741 82.6897C174.368 81.5995 173.049 80.2083 174.3 79.7823C175.549 79.3564 178.847 80.2083 179.329 80.78Z" fill="#C94039"/>
<path d="M178.682 81.7152C178.682 81.7152 176.886 83.0924 176.262 82.8124C175.637 82.5323 176.847 82.1087 177.977 81.1828C179.108 80.2545 179.415 81.1249 178.682 81.7152Z" fill="#F7BC4B"/>
<path d="M173.8 80.3586C173.8 80.3586 174.756 84.0207 176.756 86.4049C178.267 88.2081 179.821 89.1943 179.821 89.1943L179.844 88.3956L181.291 88.3586C181.291 88.3586 177.643 86.0924 174.862 80.4258L173.8 80.3586Z" fill="#C94039"/>
<path d="M174.169 81.7198C174.169 81.7198 174.063 85.28 175.403 87.8286C176.418 89.7546 177.714 90.9282 177.714 90.9282L177.974 90.1897L179.465 90.3958C179.465 90.3958 176.403 87.6851 175.234 81.9583L174.169 81.7198Z" fill="#C94039"/>
<path d="M168.39 90.269C168.959 90.1624 169.213 89.4017 168.959 88.5699C168.704 87.7382 168.036 87.1503 167.467 87.257C166.899 87.3636 166.644 88.1243 166.899 88.9561C167.153 89.7879 167.821 90.3757 168.39 90.269Z" fill="#273252"/>
<path d="M158.663 92.4125C159.145 92.3339 159.369 91.6472 159.164 90.8788C158.959 90.1104 158.402 89.5513 157.921 89.6299C157.44 89.7085 157.215 90.3951 157.42 91.1635C157.625 91.9319 158.182 92.4911 158.663 92.4125Z" fill="#273252"/>
<path d="M166.069 84.6157C166.069 84.6157 167.463 84.3587 168.267 85.1805" stroke="#273252" stroke-miterlimit="10" stroke-linecap="round" stroke-linejoin="round"/>
<path d="M156.221 87.6874C156.221 87.6874 156.747 86.8332 157.67 86.6295" stroke="#273252" stroke-miterlimit="10" stroke-linecap="round" stroke-linejoin="round"/>
</svg>
