<svg width="284" height="250" viewBox="0 0 284 250" fill="none" xmlns="http://www.w3.org/2000/svg">
<path d="M227.796 219.243C223.203 208.97 191.912 171.794 142.712 174.861C100.983 177.463 71.7975 207.581 67.3438 210.968C62.89 214.354 64.7463 216.613 77.3651 213.789C89.9839 210.965 96.2925 211.53 96.2925 211.53L95.55 214.352C95.55 214.352 85.499 227.574 84.758 232.09C84.0154 236.606 88.0979 237.171 92.5517 234.35C97.0055 231.528 129.695 221.692 133.777 221.127C137.86 220.563 145.056 224.174 148.025 224.736C150.994 225.301 170.589 234.859 174.709 235.417C178.828 235.977 176.764 225.567 171.549 210.85C169.239 204.326 190.6 220.905 195.425 222.6C200.25 224.294 193.15 214.357 192.407 212.664C191.665 210.972 219.881 222.255 225.82 227.336C231.757 232.421 232.389 229.516 227.796 219.243Z" fill="#F4E8D8"/>
<path d="M117.305 170.011C117.305 170.011 81.2402 180.37 66.6512 146.97C52.0621 113.569 65.4649 65.3425 93.0217 56.0416C93.0217 56.0416 64.0848 74.8865 74.3517 121.391C84.6186 167.896 117.305 170.011 117.305 170.011Z" fill="#F4E8D8"/>
<path d="M201.959 153.278C209.801 141.41 210.874 131.299 215.295 119.475C219.716 107.65 224.408 101.174 224.408 101.174C224.408 101.174 221.547 101.167 214.495 111.109C208.217 119.958 201.959 140.458 201.959 140.458C203.373 130.25 202.959 117.373 202.959 117.373C194.736 145.507 166.054 165.414 157.948 158.928C157.949 158.928 179.328 187.525 201.959 153.278Z" fill="#F4E8D8"/>
<path d="M184.304 106.595C185.654 106.595 209.703 89.1832 210.78 72.3498C211.59 59.667 209.969 40.6415 190.247 30.917C167.873 19.8846 158.639 25.4217 149.995 29.2249C149.995 29.2249 174.039 23.7295 188.897 40.2179C213.736 67.785 184.304 106.595 184.304 106.595Z" fill="#F4E8D8"/>
<path d="M173.227 62.204C173.227 62.204 157.287 38.9516 141.618 42.7572C130.669 45.4169 102.175 56.3591 97.8527 83.3429C94.8929 101.829 108.118 109.132 108.118 109.132C108.118 109.132 99.7431 101.945 103.796 84.1878C107.849 66.4308 132.973 47.4054 148.912 49.0975C164.852 50.7896 173.227 62.204 173.227 62.204Z" fill="#F4E8D8"/>
<path d="M92.7202 85.4563C92.7202 85.4563 79.4832 104.058 87.5875 115.051C95.6919 126.044 112.442 116.743 112.442 116.743C112.442 116.743 100.555 118.435 95.152 107.866C89.7486 97.2943 92.7202 85.4563 92.7202 85.4563Z" fill="#F4E8D8"/>
<path d="M66.6509 146.97C66.6509 146.97 47.2 133.653 51.6581 107.653C56.1163 81.6529 63.8154 93.7015 63.8154 93.7015C63.8154 93.7015 62.1942 69.6043 70.7038 61.9932C79.2135 54.3821 82.4558 59.2455 82.4558 59.2455C82.4558 59.2455 86.5087 52.4816 88.5337 53.7501C89.4345 54.315 89.5602 55.3775 89.4241 56.3867C89.2407 57.7386 83.9527 62.1251 83.1303 62.6274C80.7518 64.0835 78.712 65.3543 73.8101 73.1969C66.6273 84.6876 64.1852 101.16 64.6245 115.264C65.4351 141.262 66.6509 146.97 66.6509 146.97Z" fill="#F4E8D8"/>
<path d="M91.1001 90.9517C91.1001 90.9517 94.8823 80.8059 90.0188 79.1137C85.1553 77.4216 84.8861 93.4887 84.8861 93.4887C84.8861 93.4887 83.2649 89.6832 80.8331 96.4471C78.4014 103.211 83.8048 113.359 87.587 115.049C91.3707 116.741 89.4789 96.4494 91.1001 90.9517Z" fill="#F4E8D8"/>
<path d="M204.631 82.9191C204.631 82.9191 212.634 81.4654 216.585 67.3821C220.233 54.3821 216.585 45.8196 212.33 43.9191C208.074 42.0163 204.631 44.8705 204.631 44.8705C204.631 44.8705 208.278 28.3821 199.161 26.4793C190.043 24.5765 190.246 30.9191 190.246 30.9191C190.246 30.9191 187.206 23.9423 182.952 21.0904C178.696 18.2363 178.899 27.433 178.899 27.433C178.899 27.433 174.846 20.4562 169.173 22.3589C163.501 24.2617 163.649 26.4237 166.283 26.7409C168.918 27.058 184.74 27.102 195.074 43.5904C205.407 60.0788 204.631 82.9191 204.631 82.9191Z" fill="#F4E8D8"/>
<path d="M118.655 55.0164C118.655 55.0164 127.638 37.2594 139.996 34.7224C149.883 32.6923 144.919 43.528 146.345 42.3335C150.127 39.1622 154.866 36.3682 156.746 38.1067C159.718 40.8543 157.152 44.2363 157.152 44.2363C157.152 44.2363 165.661 51.6344 166.877 55.6506C167.012 56.7085 159.835 47.2432 150.532 46.1391C139.862 44.8705 118.655 55.0164 118.655 55.0164Z" fill="#F4E8D8"/>
<path d="M94.5484 135.894C94.5484 135.894 94.0735 133.192 93.5307 131.257C93.0115 129.405 92.6136 130.69 92.3607 132.517C92.0959 134.431 92.2202 137.341 92.2157 138.035C92.2113 138.732 94.4714 138.336 94.5484 135.894Z" fill="#1D2538"/>
<path d="M99.3423 158.796C100.641 158.007 103.423 152.702 102.869 149.03C102.314 145.359 101.761 139.917 101.034 137.882C101.034 137.882 100.921 134.026 100.685 131.954C100.452 129.884 100.103 129.792 99.6381 130.792C99.1736 131.792 98.5583 135.199 98.5583 135.199C98.5583 135.199 95.4624 133.259 92.9685 134.947C90.4746 136.634 89.7129 139.28 89.5073 141.537L89.4318 141.702C89.4318 141.702 86.6998 142.757 85.4144 143.586C84.129 144.415 83.74 145.447 84.3228 147.609C84.9056 149.771 85.0032 150.852 85.7931 151.646C86.583 152.44 90.0708 154.171 91.8606 154.584C91.8606 154.584 92.6209 159.632 93.2303 160.979C93.8398 162.329 98.045 159.588 99.3423 158.796Z" fill="#273150"/>
<path d="M99.7428 152.563C99.7428 152.563 103.427 152.702 102.874 149.03C102.321 145.359 101.766 139.917 101.04 137.882C101.04 137.882 100.926 134.026 100.691 131.954C100.457 129.884 100.108 129.792 99.6437 130.792C99.1792 131.792 98.5639 135.199 98.5639 135.199C98.5639 135.199 95.468 133.259 92.9741 134.947C92.9741 134.947 95.8659 135.063 96.9901 136.75C98.1142 138.438 99.512 145.347 99.512 145.347C99.512 145.347 96.3437 151.384 96.5345 151.808C97.1424 153.158 99.7428 152.563 99.7428 152.563Z" fill="#1D2538"/>
<path d="M93.9284 135.954C93.9284 135.954 93.5675 133.315 93.3072 131.563C93.0143 129.593 92.4034 130.725 92.1505 132.551C91.8857 134.466 91.7437 136.431 91.7393 137.128C91.7363 137.824 94.0157 137.658 93.9284 135.954Z" fill="#273150"/>
<path d="M93.4283 140.41C93.6217 139.546 93.4798 138.682 93.1113 138.48C92.7428 138.278 92.2873 138.814 92.0939 139.678C91.9005 140.542 92.0424 141.406 92.4109 141.608C92.7794 141.81 93.2349 141.274 93.4283 140.41Z" fill="#121721"/>
<path d="M84.0606 145.671C83.9674 146.866 84.355 147.414 84.5488 148.088C84.8135 149.007 86.4273 147.287 86.522 146.093C86.6151 144.898 86.624 143.218 85.7129 143.482C85.0783 143.667 84.1538 144.477 84.0606 145.671Z" fill="#121721"/>
<path d="M95.6904 152.995C95.6904 152.995 92.1804 155.817 91.96 154.526C90.2027 154.153 87.3701 152.718 87.3701 152.718L92.1197 152.713L95.6904 152.995Z" fill="#1D2538"/>
<path d="M112.344 156.53C112.209 155.845 111.802 152.109 111.281 150.78C110.762 149.451 109.452 146.398 107.884 146.486C107.884 146.486 108.785 144.715 111.604 146.87C114.423 149.023 114.818 155.477 114.849 156.023C114.985 158.463 112.727 158.484 112.344 156.53Z" fill="#1D2538"/>
<path d="M92.7945 189.558C93.0459 188.407 94.034 187.185 94.034 187.185C94.1287 186.926 94.457 186.405 94.4822 186.157C94.6789 184.264 95.2158 179.097 95.2469 178.271C95.3135 176.553 94.8268 171.437 94.9171 167.505C95.0073 163.572 98.828 166.664 99.004 170.463C99.1297 173.171 97.9257 184.255 97.7999 185.338L96.8666 188.88C96.5219 189.634 95.5649 190.171 94.5813 190.245C93.5991 190.315 92.5489 190.683 92.7945 189.558Z" fill="#1D2538"/>
<path d="M109.614 167.796C108.661 167.303 107.18 168.588 107.164 170.701C107.151 172.5 112.377 179.609 112.377 179.609L112.67 181.058C112.67 181.058 111.933 182.389 112.248 183.104C112.322 183.273 113.329 182.995 114.141 182.741C114.736 182.553 115.159 182.109 115.157 181.662L115.155 181.1L115.462 178.965L111.865 173.106C111.866 173.109 110.915 168.472 109.614 167.796Z" fill="#1D2538"/>
<path d="M96.2686 153.058C96.2686 153.058 100.212 148.646 103.675 151.072C106.771 153.241 108.182 153.606 111.634 153.687C113.803 153.738 115.292 165.678 114.842 168.002C114.029 172.345 104.451 172.729 103.224 172.794C99.6056 172.986 96.5807 170.088 95.0882 168.982C93.7496 167.988 91.7779 162.234 93.4523 157.852C94.0913 156.181 94.8279 154.37 96.2686 153.058Z" fill="#273150"/>
<path d="M97.2517 153.505C99.5045 150.692 100.21 148.648 103.674 151.072C106.77 153.241 109.113 153.678 112.564 153.843C116.471 154.03 115.945 164.303 114.798 168.706C113.926 172.049 104.451 172.729 103.225 172.794C103.225 172.794 106.538 169.438 106.375 167.051C106.214 164.664 102.413 161.157 102.413 161.157C100.581 158.248 96.453 154.502 97.2517 153.505Z" fill="#1D2538"/>
<path d="M99.3302 189.176C99.3257 188.137 100.962 185.625 100.951 185.37C100.784 181.074 100.095 177.007 99.9855 176.028C99.7621 174.019 98.3096 170.614 97.8096 166.271C97.3274 162.086 102.093 164.139 102.717 168.963C103.077 171.745 103.964 181.308 104.192 183.919C104.225 184.287 104.21 184.66 104.149 185.021L103.198 188.192C103.087 189.102 102.167 189.884 101.042 189.989C99.9159 190.093 99.3376 190.59 99.3302 189.176Z" fill="#273150"/>
<path d="M114.89 163.488C113.701 161.792 111.056 164.021 110.574 164.711C110.068 165.435 112.278 169.988 112.389 170.625C112.504 171.289 117.4 175.514 118.394 176.75C119.47 178.088 118.571 179.926 119.212 180.5C119.538 180.792 122.252 179.9 122.079 178.234C121.916 176.66 120.848 174.181 120.822 174.056C120.77 173.813 116.566 168.708 116.466 168.391C116.37 168.081 115.242 163.993 114.89 163.488Z" fill="#1D2538"/>
<path d="M103.008 149.208C103.008 149.208 103.723 150.396 103.903 151.442C103.903 151.442 101.727 153.903 97.8044 156.829C95.7025 158.396 92.4557 159.836 92.4557 159.836L91.9839 157.079C91.9854 157.076 98.6179 154.352 103.008 149.208Z" fill="#992C29"/>
<path d="M92.0097 157.106C92.0097 157.106 90.8693 160.766 91.0527 162.606L93.9947 164.081C93.9947 164.081 92.8528 158.724 92.0097 157.106Z" fill="#C93F37"/>
<path d="M92.0093 157.106C92.879 158.46 93.9943 164.081 93.9943 164.081C93.9943 164.081 92.4604 162.169 92.3036 161.433C92.1468 160.697 92.0093 157.106 92.0093 157.106Z" fill="#992C29"/>
<path d="M92.4697 158.928C92.4697 158.928 94.5746 161.82 95.5153 162.181L95.7594 159.736C95.7609 159.736 94.2359 158.53 92.4697 158.928Z" fill="#992C29"/>
<path d="M141.619 115.257L127.841 113.988C123.933 113.171 123.973 104.805 124.06 98.5787L124.239 76.919C124.319 70.8727 126.517 66.743 130.422 66.743H141.753C146.134 66.743 148.777 70.8449 148.777 77.5185L149.858 104.968C149.858 111.924 146.126 116.215 141.619 115.257Z" fill="#634874"/>
<path d="M127.272 73.2571C128.545 68.6576 125.026 64.4678 121.673 62.6599C116.913 60.0951 116.35 58.727 114.399 57.1391C112.002 55.1877 109.97 54.4701 108.517 56.1807C107.066 57.8914 106.751 60.8543 107.611 62.146C109.639 65.1992 110.606 65.8798 113.187 68.7664C117.915 74.0511 120.44 75.1992 121.968 76.7987C124.528 79.4816 125.748 78.7594 127.272 73.2571Z" fill="#A86243"/>
<path d="M128.267 73.9631C129.541 69.3636 110.605 65.8798 113.186 68.7641C117.913 74.0488 120.438 75.1969 121.966 76.7965C124.528 79.4817 126.745 79.4654 128.267 73.9631Z" fill="#D77E5B"/>
<path d="M111.359 50.4699C110.329 52.7963 108.689 56.7963 110.078 58.9722C111.079 60.5393 110.649 62.1111 112.129 60.9861C113.793 59.7199 114.823 53.8009 114.867 53.6597C115.65 51.1806 112.4 48.1204 111.359 50.4699Z" fill="#7A4630"/>
<path d="M117.351 37.3334C117.351 37.3334 110.621 45.2361 108.853 48.331C107.105 51.3935 105.583 55.1297 106.596 59.338C107.212 61.8936 107.919 63.6227 110.108 62.5116C112.621 61.2361 114.556 55.6736 115.569 52.132C116.928 47.3889 118.674 44.9954 119.705 43.3403C121.027 41.2176 120.925 34.5139 117.351 37.3334Z" fill="#A86243"/>
<path d="M126.841 35.697L126.96 38.8868L125.642 39.4493L124.603 36.7132L126.841 35.697Z" fill="#273150"/>
<path d="M116.127 41.3494L117.669 37.4976C117.669 37.4976 120.914 35.5971 122.785 35.3819C124.656 35.1666 125.718 36.5439 125.718 36.5439L125.877 42.1897C125.894 42.8263 125.625 43.405 125.257 43.5254L124.681 43.7129L123.795 43.6457L123.761 44.4027C123.745 44.7823 123.59 45.1133 123.375 45.2291L122.214 45.8518L120.487 46.442C120.487 46.442 119.183 45.9258 119.321 44.5647C119.459 43.2036 116.916 45.8055 116.127 41.3494Z" fill="#A86243"/>
<path d="M114.174 41.1391L115.445 44.5164L118.64 42.903C118.917 42.7641 119.067 42.1692 118.959 41.6414C118.837 41.0396 118.501 40.7317 118.19 40.9331L116.01 41.8868L115.587 40.3845L114.174 41.1391Z" fill="#273150"/>
<path d="M111.832 29.0789C108.59 30.9817 94.6767 37.5349 94.6767 37.5349C94.5864 38.5928 94.7669 43.0303 95.2624 43.5233C95.2624 43.5233 97.2889 47.7502 109.535 43.6645C123.832 38.8937 138.494 29.4747 138.494 29.4747L138.26 23.3705C138.262 23.3729 115.073 27.1761 111.832 29.0789Z" fill="#B44C29"/>
<path d="M110.887 25.6274C107.615 27.4005 96.4783 32.9214 94.8572 36.7964C93.591 39.8241 97.919 42.6089 113.588 36.9029C129.257 31.1968 135.471 26.0857 137.766 24.3959C140.062 22.7038 134.727 20.5209 124.844 19.7107C122.581 19.5232 117.911 21.8218 110.887 25.6274Z" fill="#F08650"/>
<path d="M95.3081 39.2962L100.531 36.4768L96.0285 40.2824L95.3081 39.2962Z" fill="#B44C29"/>
<path d="M124.968 19.9374L116.221 24.4305C116.223 24.4282 124.95 20.5323 124.968 19.9374Z" fill="#B44C29"/>
<path d="M107.038 35.1043C108.456 34.0464 102.483 36.9238 99.4731 38.9099C99.4731 38.9099 105.619 36.1599 107.038 35.1043Z" fill="#B44C29"/>
<path d="M132.094 28.4443L131.418 27.1758L133.714 27.7059L132.094 28.4443Z" fill="#B44C29"/>
<path d="M108.051 39.331L109.065 37.6412L110.279 39.0139L108.051 39.331Z" fill="#B44C29"/>
<path d="M119.592 27.0997C119.978 27.9839 119.076 29.389 117.076 30.4816C114.205 32.0488 110.365 32.3728 109.902 30.558C109.466 28.845 112.553 26.8381 115.502 26.2478C117.609 25.8242 119.217 26.2409 119.592 27.0997Z" fill="#B44C29"/>
<path d="M119.408 26.3587C119.732 27.0022 118.805 28.2059 116.848 29.2962C114.039 30.861 110.369 31.5763 110.019 30.2175C109.687 28.9351 112.722 26.9999 115.558 26.1851C117.583 25.6041 119.093 25.7337 119.408 26.3587Z" fill="#F08650"/>
<path d="M142.105 67.2526C142.68 64.0975 145.788 65.991 147.34 67.5165C149.809 69.9401 149.55 71.741 151.223 73.1068C154.245 75.5744 162.606 84.6114 160.324 88.7248C158.043 92.8383 154.214 89.1808 151.226 86.2665C149.087 84.1808 145.291 79.7133 143.155 76.4424C142.266 75.0813 141.53 70.4077 142.105 67.2526Z" fill="#A86243"/>
<path d="M159.801 94.7595C160.901 91.9377 162.031 89.3961 160.537 86.5697C158.197 82.1461 156.362 84.5674 154.789 87.5975C153.244 90.5789 153.251 91.5743 151.84 94.5743C150.418 97.5952 147.683 101.935 147.683 101.935C147.683 101.935 145.369 105.176 146.472 107.609C147.636 110.178 148.458 110.206 149.747 109.107C151.627 107.505 158.972 96.8845 159.801 94.7595Z" fill="#A86243"/>
<path d="M123.286 172.276C123.252 172.294 123.218 172.32 123.186 172.347C122.696 172.769 118.698 176.153 118.233 177.06C117.853 177.803 118.096 180.542 118.229 181.773C118.27 182.155 118.441 182.468 118.674 182.595C119.621 183.107 122.115 184.468 124.533 184.086C127.565 183.607 127.472 181.82 129.73 180.13C131.206 179.026 132.105 178.313 132.552 177.954C132.766 177.78 132.859 177.445 132.871 177.067L132.996 172.928C133.01 172.41 132.827 171.949 132.501 171.847C130.997 171.366 126.759 170.315 123.286 172.276Z" fill="#29ACE4"/>
<path d="M123.234 172.306C123.234 172.306 118.64 176.232 118.146 177.197C117.652 178.162 118.121 181.491 118.121 181.491C118.121 181.491 121.409 183.538 124.441 183.058C127.473 182.579 127.472 180.998 129.729 179.308C131.477 178 132.417 177.244 132.751 176.968C132.841 176.894 132.899 176.753 132.903 176.595L133.041 172.66C133.054 172.299 132.897 171.977 132.673 171.903C131.343 171.456 126.861 170.223 123.234 172.306Z" fill="#13161F"/>
<path d="M120.996 174.169C120.996 174.169 123.291 172.901 125.543 174.521" stroke="#29ACE4" stroke-width="2" stroke-miterlimit="10" stroke-linecap="round" stroke-linejoin="round"/>
<path d="M122.659 172.618C122.659 172.618 124.955 171.35 127.206 172.97" stroke="#29ACE4" stroke-width="2" stroke-miterlimit="10" stroke-linecap="round" stroke-linejoin="round"/>
<path d="M147.757 172.431C150.303 173.824 153.995 175.178 154.168 176.961C154.341 178.729 154.461 180.595 154.362 181.257C154.286 181.757 154.15 182.056 153.905 182.22C153.279 182.639 152.031 183.644 149.506 184.037C148.415 184.208 146.022 183.292 144.562 181.6C143.402 180.255 142.011 178.69 141.488 178.104C141.352 177.951 141.262 177.72 141.238 177.461L141.048 175.456C141.009 175.046 141.141 174.641 141.377 174.454C142.485 173.574 145.68 171.294 147.757 172.431Z" fill="#29ACE4"/>
<path d="M148.785 171.609C151.008 172.921 154.05 174.905 154.224 176.873C154.379 178.646 154.448 179.621 154.417 180.299C154.403 180.63 153.891 180.787 153.641 180.952C153.005 181.371 151.734 182.377 149.168 182.776C148.058 182.947 145.881 182.435 144.399 180.746C143.164 179.338 141.671 177.69 141.207 177.178C141.114 177.077 141.052 176.919 141.032 176.743L140.846 175.014C140.766 174.269 141.037 173.542 141.491 173.287C143.142 172.354 146.807 170.442 148.785 171.609Z" fill="#13161F"/>
<path d="M147.38 175.366C147.38 175.366 149.451 172.408 151.792 173.535" stroke="#29ACE4" stroke-width="2" stroke-miterlimit="10" stroke-linecap="round" stroke-linejoin="round"/>
<path d="M145.939 173.956C145.939 173.956 148.1 171.278 150.441 172.405" stroke="#29ACE4" stroke-width="2" stroke-miterlimit="10" stroke-linecap="round" stroke-linejoin="round"/>
<path d="M147.02 113.359C147.02 113.359 147.687 127.185 148.91 138.303C149.57 144.299 150.188 155.033 150.579 162.85C150.842 168.118 151.058 172.093 150.901 172.273C150.515 172.722 148.65 171.85 145.242 173.185C141.878 174.505 140.494 175.266 140.494 175.266L139.966 172.725C139.966 172.725 139.649 171.542 140.064 166.664C140.186 165.222 139.132 162.984 138.981 161.146C138.019 149.368 136.629 131.375 135.941 119.278C134.892 100.797 144.819 97.8775 147.02 113.359Z" fill="#F6BE4A"/>
<path opacity="0.5" d="M147.019 113.359C147.019 113.359 147.686 127.185 148.909 138.303C149.662 145.146 150.254 156.829 150.761 164.961C150.868 166.667 151.266 166.81 151.339 168.13C151.428 169.72 151.279 172.005 150.84 172.366C150.363 172.757 148.65 171.85 145.242 173.185C141.879 174.505 140.494 175.266 140.494 175.266L139.966 172.725C139.8 171.519 139.775 170.919 140.064 166.664C140.161 165.239 139.123 162.882 138.981 161.146C138.02 149.324 136.61 131.044 135.941 119.278C134.891 100.797 144.818 97.8775 147.019 113.359Z" fill="#F6BE4A"/>
<path d="M124.541 112.572C124.541 112.572 124.059 128.34 123.803 137.736C123.618 144.493 123.04 172.25 123.04 172.25C123.04 172.25 123.8 171.791 127.026 171.949L131.656 175.169C131.656 175.169 132.694 175.609 132.968 175.363C133.241 175.12 133.984 173.979 134.056 171.206C134.287 162.389 134.33 143.173 134.246 141.75C134.169 140.465 134.247 125.62 134.866 114.616C135.136 109.794 133.716 105.757 129.643 104.111C125.732 102.532 124.643 107.717 124.541 112.572Z" fill="#F6BE4A"/>
<path d="M148.91 138.303C149.656 145.081 150.245 156.602 150.747 164.725C150.784 165.31 151.265 166.789 151.301 167.336C151.502 170.44 151.145 172.398 150.755 172.525C150.363 172.65 148.651 171.85 145.243 173.185C141.88 174.505 140.495 175.266 140.495 175.266L139.967 172.725C139.967 172.725 143.34 165.185 145.128 160.287C145.668 158.808 147.749 154.414 148.302 148.556C148.82 143.074 148.61 135.581 148.91 138.303Z" fill="#F6BE4A"/>
<path d="M135.628 120.97C141.621 120.97 146.48 115.41 146.48 108.551C146.48 101.692 141.621 96.132 135.628 96.132C129.636 96.132 124.777 101.692 124.777 108.551C124.777 115.41 129.636 120.97 135.628 120.97Z" fill="#F6BE4A"/>
<path opacity="0.5" d="M135.628 120.97C141.621 120.97 146.48 115.41 146.48 108.551C146.48 101.692 141.621 96.132 135.628 96.132C129.636 96.132 124.777 101.692 124.777 108.551C124.777 115.41 129.636 120.97 135.628 120.97Z" fill="#F6BE4A"/>
<path d="M134.007 108.391C134.289 105.782 133.072 107.419 132.127 108.285C131.428 108.926 130.875 109.407 131.526 110.143C132.573 111.329 133.823 110.088 134.007 108.391Z" stroke="#FEED7F" stroke-width="3" stroke-miterlimit="10"/>
<path d="M134.187 108.074C134.187 108.074 135.537 110.505 136.753 110.822C137.969 111.139 137.766 108.285 136.956 107.757C136.145 107.229 134.66 107.229 134.187 108.074Z" stroke="#FEED7F" stroke-width="3" stroke-miterlimit="10"/>
<path d="M134.255 107.863C134.255 107.863 135.943 110.453 136.011 114.046" stroke="#FEED7F" stroke-width="3" stroke-miterlimit="10"/>
<path d="M133.985 113.095C133.985 113.095 134.135 109.132 134.225 107.863" stroke="#FEED7F" stroke-width="3" stroke-miterlimit="10"/>
<path d="M145.826 157.628C147.355 155.153 148.749 149.25 148.639 146.336C148.639 146.336 142.891 159.31 142.696 159.864C142.152 161.412 145.767 157.725 145.826 157.628Z" fill="#F6BE4A"/>
<path d="M127.69 65.5119C127.69 65.5119 126.691 65.8753 126.39 70.7966C126.255 72.9887 125.101 83.1207 125.184 90.123C125.282 98.3313 124.833 109.429 124.833 109.429C124.833 109.429 128.49 107.741 133.885 107.093C139.281 106.445 145.823 109.954 145.823 109.954C147.911 110.493 145.705 100.6 145.225 96.8313C144.665 92.4216 145.456 84.4448 144.992 78.498C144.292 69.5559 143.314 67.7596 143.197 67.0258C142.941 65.4147 139.633 65.3661 137.402 64.8661C134.139 64.1392 130.089 64.9702 127.69 65.5119Z" fill="#29ACE4"/>
<path d="M125.004 77.4491C125.004 77.4491 135.134 73.0718 143.036 76.6829L143.441 79.9653C143.441 79.9653 134.189 74.713 124.733 80.6227L125.004 77.4491Z" fill="#3D4C6D"/>
<path d="M124.665 81.3891C124.665 81.3891 135.133 76.903 143.035 80.5141L143.44 83.7965C143.44 83.7965 134.254 78.8729 124.8 84.7803L124.665 81.3891Z" fill="#3D4C6D"/>
<path opacity="0.5" d="M127.689 65.5116C127.689 65.5116 126.69 65.8751 126.388 70.7964C126.254 72.9885 125.1 83.1204 125.183 90.1227C130.22 78.0301 142.329 106.824 146.48 107.389C147.628 107.544 145.164 100.653 145.039 93.9676C144.894 86.1551 145.647 79.3079 145.647 79.3079C144.948 70.3658 143.315 67.7639 143.198 67.0278C142.942 65.4167 139.633 65.3681 137.402 64.8681C134.138 64.1389 130.088 64.97 127.689 65.5116Z" fill="#29ACE4"/>
<path d="M139.591 65.2501C139.743 65.2363 139.591 65.7988 139.591 65.7988C138.521 67.3173 136.015 69.6807 133.786 69.6807C131.587 69.6807 129.735 69.4631 129.257 67.2548C129.051 66.3034 130.023 65.0511 130.023 65.0511C130.023 65.0511 131.77 64.5835 133.783 64.4862C135.748 64.389 139.438 65.264 139.591 65.2501Z" fill="#7A4630"/>
<path d="M133.709 66.5881C131.941 66.5001 131.996 64.3636 132.009 63.0233L132.184 58.6483C132.194 57.5835 132.906 56.7015 134.006 56.7525L135.907 56.7988C136.975 56.8497 137.498 57.7687 137.596 58.8011C137.596 58.8011 137.91 63.4122 137.8 64.8497C137.688 66.308 135.478 66.6738 133.709 66.5881Z" fill="#7A4630"/>
<path d="M146.226 75.5513C146.226 75.5513 146.719 85.2527 145.868 84.0166C142.768 79.5073 143.246 71.0814 143.484 68.8291C143.722 66.5767 144.401 65.7133 145.331 66.6925C146.763 68.1925 146.226 75.5513 146.226 75.5513Z" fill="#A86243"/>
<path d="M126.596 64.2086C127.415 64.248 128.499 64.6345 128.305 65.3035C127.72 67.329 126.798 72.3614 126.316 76.5628C125.751 81.484 125.244 85.9632 125 89.3544C124.887 90.9192 124.013 92.1577 123.235 91.2827C123.014 91.035 122.849 90.6877 122.797 90.2039C122.594 88.2665 121.89 79.8266 124.794 65.9933C125.153 64.285 125.733 64.1669 126.596 64.2086Z" fill="#634874"/>
<path d="M144.66 65.3057C144.12 64.6483 141.867 63.9284 141.032 64.3312C140.196 64.734 140.44 70.4979 141.481 77.0118C142.489 83.3081 144.046 91.4701 144.878 92.9099C145.042 93.1923 145.272 93.3382 145.511 93.3127C146.011 93.2572 146.806 92.984 146.765 91.8011C146.706 90.0859 145.829 82.5118 145.15 74.278C144.573 67.2595 145.184 65.9423 144.66 65.3057Z" fill="#634874"/>
<path d="M147.463 111.252C147.921 111.479 148.429 111.296 148.766 110.759C149.566 109.488 149.896 107.583 149.787 105.542C149.652 103.005 147.694 102.053 146.432 101.632C145.433 101.296 144.605 100.963 144.303 100.838C144.226 100.806 144.144 100.833 144.081 100.912L140.497 105.454C140.435 105.532 140.401 105.653 140.406 105.778L140.477 107.887C140.484 108.095 140.594 108.257 140.727 108.257C140.946 108.257 141.058 108.664 140.91 108.914L140.829 109.051C140.759 109.167 140.743 109.338 140.784 109.481L141.141 110.687C141.203 110.896 141.364 110.977 141.491 110.863L141.719 110.66C141.817 110.572 141.94 110.597 142.019 110.722L142.661 111.727C142.735 111.843 142.848 111.875 142.942 111.805L143.712 111.25C143.837 111.16 143.984 111.245 144.043 111.442C144.124 111.711 144.266 112.058 144.496 112.236C144.848 112.511 146.339 111.324 146.723 111.009C146.782 110.961 146.85 110.951 146.914 110.984L147.463 111.252Z" fill="#A86243"/>
<path d="M143.974 101.051L140.499 105.452C140.437 105.53 140.403 105.651 140.408 105.776L140.479 107.884C140.486 108.093 140.595 108.255 140.729 108.255C140.948 108.255 141.06 108.662 140.912 108.912L140.831 109.049C140.761 109.164 140.745 109.336 140.786 109.479L141.143 110.685C141.205 110.894 141.366 110.975 141.493 110.861L141.721 110.658C141.819 110.57 141.942 110.595 142.021 110.72L142.663 111.725C142.737 111.84 142.85 111.873 142.944 111.803L143.714 111.248C143.839 111.158 143.986 111.243 144.045 111.44C144.126 111.708 144.268 112.056 144.497 112.234C144.833 112.498 146.207 111.426 146.666 111.053C146.756 110.979 146.809 110.827 146.799 110.667L146.679 108.778C146.642 108.192 146.472 107.644 146.2 107.236L145.741 106.549C145.443 106.102 145.268 105.491 145.255 104.845L145.233 103.836C145.222 103.359 145.125 102.896 144.95 102.505L144.335 101.125C144.252 100.945 144.086 100.908 143.974 101.051Z" fill="#D77E5B"/>
<path d="M140.829 50.41C140.634 58.5998 139.542 61.1692 136.06 61.2618C133.427 61.3313 131.292 56.403 131.292 50.41C131.292 44.4169 133.427 39.5581 136.06 39.5581C138.693 39.5581 141.004 43.0373 140.829 50.41Z" fill="#273150"/>
<path d="M139.36 48.5535C139.335 43.1808 138.961 40.1067 135.164 39.6692C133.182 39.4424 131.231 39.7248 130.081 40.6553C129.043 41.4979 128.416 42.8081 128.053 46.3336C127.78 48.9887 127.395 53.5813 127.963 58.028C128.327 60.8776 130.663 61.9563 132.722 62.1785C138.038 62.7526 138.854 60.5419 139.186 56.6206C139.632 51.3128 139.369 50.7595 139.36 48.5535Z" fill="#7A4630"/>
<path d="M138.672 51.8058C138.64 47.1484 137.416 45.1252 133.998 44.7294C132.214 44.5234 128.7 45.9609 128.535 49.0442C128.359 52.3822 128.103 55.2896 128.482 58.1785C128.808 60.6623 130.51 61.5326 132.365 61.7364C137.152 62.2595 138.242 59.7225 138.524 56.3243C138.765 53.4308 138.685 53.7178 138.672 51.8058Z" fill="#A96344"/>
<path d="M129.265 40.5765C128.947 40.8774 128.824 41.176 128.599 43.0973C128.552 43.5024 129.028 41.9376 129.457 41.3265C129.886 40.7154 129.787 41.5348 132.033 41.4492C134.278 41.3635 137.461 40.7593 137.461 40.7593L137.773 45.6158L138.933 49.8334L139.633 47.5047C139.738 43.3704 139.261 40.963 137.526 40.051C134.35 38.3797 130.432 39.47 129.265 40.5765Z" fill="#273150"/>
<path d="M134.896 44.8242C134.856 45.6437 134.609 46.2756 134.343 46.2432C134.076 46.2108 133.89 45.5279 133.924 44.7085C133.958 43.8798 134.206 43.2247 134.479 43.2571C134.749 43.2895 134.936 43.9955 134.896 44.8242Z" fill="#102342"/>
<path d="M133.813 43.1923L135.152 42.528" stroke="#273150" stroke-miterlimit="10" stroke-linecap="round" stroke-linejoin="round"/>
<path d="M131.141 45.0301C131.123 45.8032 130.907 46.3982 130.659 46.3681C130.409 46.338 130.216 45.6945 130.228 44.9213C130.24 44.1412 130.456 43.5255 130.71 43.5556C130.966 43.5857 131.158 44.25 131.141 45.0301Z" fill="#102342"/>
<path d="M131.009 43.1922L129.807 42.6552" stroke="#273150" stroke-miterlimit="10" stroke-linecap="round" stroke-linejoin="round"/>
<path d="M141.059 52.0694C140.71 54.2847 139.707 55.8403 138.81 55.6134C138.81 55.6134 138.838 50.5903 138.824 49.632C138.815 49.0301 139.037 47.1736 139.994 47.419C140.948 47.662 141.42 49.7778 141.059 52.0694Z" fill="#7A4630"/>
<path d="M140.553 53.6506C140.503 54.1853 140.179 54.5765 139.83 54.5326C139.481 54.4886 139.233 54.0233 139.278 53.4886C139.323 52.9492 139.648 52.5465 140.003 52.5904C140.357 52.6367 140.604 53.1136 140.553 53.6506Z" fill="#E2D6C9"/>
<path d="M154.73 97.0257C154.73 97.0257 150.893 97.1253 149.105 96.0396C147.317 94.9563 147.821 83.4238 151.377 81.9053C155.44 80.1692 160.323 83.8776 163.024 86.859C165.725 89.8405 164.627 94.2989 160.72 96.4007C156.754 98.5327 154.73 97.0257 154.73 97.0257Z" fill="#1689CB"/>
<path d="M163.091 91.6068C163.091 94.5698 155.91 94.7203 153.719 94.7203C151.53 94.7203 149.755 92.3175 149.755 89.3545C149.755 86.3916 151.53 83.9888 153.719 83.9888C155.908 83.9865 163.091 88.6439 163.091 91.6068Z" fill="#992C29"/>
<path d="M161.631 93.4749C161.631 93.4749 171.379 98.6671 177.053 111.632C181.911 122.734 188.759 115.579 192.812 118.537C196.865 121.496 172.697 128.713 168.521 130.482C163.523 132.595 148.733 106.475 151.502 99.2897C154.848 90.6022 161.631 93.4749 161.631 93.4749Z" fill="#1689CB"/>
<path d="M163.994 96.8707C164.043 97.2295 169.291 100.76 172.617 108.85C179.686 126.042 188.466 114.91 192.517 117.868C196.569 120.827 195.399 128.459 195.399 128.459C195.399 128.459 188.645 125.5 187.024 133.954C185.402 142.408 171.346 143.604 167.17 145.371C162.172 147.484 150.679 144.32 150.679 144.32C150.679 144.32 146.341 115.581 151.817 96.447C152.784 93.0651 159.606 93.91 159.606 93.91L163.994 96.8707Z" fill="#992C29"/>
<path d="M155.953 71.7802C155.953 71.7802 154.157 70.8427 152.362 74.5904C150.951 77.5348 150.233 80.2108 151.63 83.852C152.025 84.8821 150.433 85.102 151.43 89.4723C152.474 94.0487 158.413 94.2594 160.408 92.0742C160.408 92.0742 164.266 97.1737 168.588 93.5302C171.496 91.0788 167.525 84.5788 167.525 84.5788C167.525 84.5788 169.6 77.507 164.812 70.5348C161.402 65.5718 157.749 68.97 155.953 71.7802Z" fill="#273150"/>
<path d="M154.583 79.6805C155.85 79.6805 156.877 76.9548 156.877 73.5926C156.877 70.2303 155.85 67.5046 154.583 67.5046C153.316 67.5046 152.289 70.2303 152.289 73.5926C152.289 76.9548 153.316 79.6805 154.583 79.6805Z" fill="#273150"/>
<path d="M159.521 70.6344C160.191 68.1756 159.955 65.6613 158.992 65.0185C158.03 64.3757 156.706 65.8479 156.035 68.3067C155.365 70.7655 155.602 73.2799 156.564 73.9227C157.527 74.5654 158.851 73.0933 159.521 70.6344Z" fill="#273150"/>
<path d="M155.472 73.3194C155.472 73.3194 153.978 71.8055 152.308 74.8819C150.638 77.9582 150.371 80.6805 151.575 83.8194C151.915 84.7082 150.501 85.5462 151.36 89.3147C151.839 91.4119 154.036 92.2707 153.895 91.8795C153.755 91.4883 153.876 90.3842 153.876 90.3842C155.386 91.7962 157.855 92.6272 160.46 92.3078C161.923 93.6804 164.621 93.5416 166.365 92.0717C168.872 89.9605 165.448 84.3564 165.448 84.3564C165.448 84.3564 167.238 78.2615 163.109 72.2499C160.17 67.9652 157.021 70.8958 155.472 73.3194Z" fill="#3D4C6D"/>
<path d="M155.225 73.7153C155.225 76.6134 155.382 80.1296 154.289 80.1296C153.197 80.1296 152.311 77.7801 152.311 74.882C152.311 71.9838 153.197 69.6343 154.289 69.6343C155.38 69.6343 155.225 70.8171 155.225 73.7153Z" fill="#3D4C6D"/>
<path d="M158.091 70.6018C157.513 72.7199 156.824 75.7292 155.994 75.1736C155.164 74.6204 154.96 72.4514 155.537 70.3333C156.115 68.2153 157.256 66.9468 158.085 67.5C158.915 68.0556 158.67 68.4838 158.091 70.6018Z" fill="#3D4C6D"/>
<path d="M163.552 93.5253C163.552 93.5253 165.23 92.7938 165.503 90.9003C165.503 90.9003 166.089 93.648 163.552 93.5253Z" fill="#273150"/>
<path d="M165.401 99.9534C165.401 99.9534 168.182 108.493 168.973 110.641C169.764 112.787 167.642 115.287 166.257 114.706C164.873 114.125 162.233 104.065 161.57 101.935C160.906 99.8029 163.65 96.458 165.401 99.9534Z" fill="#F6874E"/>
<path d="M165.785 101.002C165.785 101.002 163.238 93.0415 161.524 93.4628C159.805 93.8841 159.839 95.0971 160.204 97.4397C160.746 100.912 162.228 105.56 162.228 105.56C162.228 105.56 163.703 101.896 165.785 101.002Z" fill="#C93F37"/>
<path d="M172.438 110.153C172.438 110.153 168.993 109.801 168.183 109.377C167.372 108.954 164.501 111.016 165.684 114.028C166.652 116.493 171.943 115.542 172.844 114.979C173.744 114.417 174.126 110.646 172.438 110.153Z" fill="#F6874E"/>
<path d="M181.332 53.3934C181.332 53.3934 175.892 97.7546 175.827 98.4444C175.762 99.1342 175.704 99.7546 175.704 99.7546C175.614 100.076 175.393 100.13 174.587 99.8402L171.133 98.9004L175.954 51.7522C175.978 51.5115 178.866 47.4745 178.866 47.4745C178.962 47.4606 179.084 47.243 179.326 47.6897L181.271 52.5532C181.387 52.9235 181.356 53.199 181.332 53.3934Z" fill="#F6BE4A"/>
<path d="M181.332 53.3934C181.332 53.3934 175.892 97.7545 175.826 98.4443C175.761 99.1341 175.704 99.7545 175.704 99.7545C175.613 100.076 175.995 100.148 175.19 99.8564L180.728 52.9027C180.728 52.9027 179.084 47.2406 179.328 47.6874L181.273 52.5508C181.387 52.9235 181.356 53.199 181.332 53.3934Z" fill="#F6874E"/>
<path d="M178.417 75.3585L178.7 73.5576C178.735 73.4279 178.58 73.3515 178.419 73.421L177.324 73.8932C177.227 73.9349 177.181 74.0298 177.222 74.1016L178.188 75.4905C178.258 75.6109 178.379 75.4905 178.417 75.3585Z" fill="#F6874E"/>
<path d="M174.805 62.8912L175.584 62.0556L175.003 61.051L174.805 62.8912Z" fill="#F6874E"/>
<path d="M180.096 60.6295L179.176 59.2452L180.326 59.1295L180.096 60.6295Z" fill="#F6874E"/>
<path d="M179.079 47.4814L173.153 99.2892" stroke="#F4E8D8" stroke-miterlimit="10"/>
<path d="M173.952 71.333L174.665 71.5275L175.283 70.1525L174.846 68.7775L176.371 66.59L176.953 65.7335" stroke="#F4E8D8" stroke-miterlimit="10"/>
<path d="M171.929 116.747C171.915 116.819 171.571 117.072 170.956 116.817C170.234 116.518 170.298 115.743 170.298 115.743L171.518 99.2428L174.885 100.088L171.929 116.747Z" fill="#1D2538"/>
<path d="M170.413 121.736C171.398 122.132 172.321 120.997 172.454 119.284C172.581 117.657 171.941 116.134 171.04 115.807C170.15 115.486 169.274 116.437 169.065 117.997C168.846 119.638 169.44 121.345 170.413 121.736ZM170.94 117.4C171.277 117.585 171.525 118.314 171.493 119.044C171.46 119.789 171.147 120.243 170.796 120.041C170.448 119.84 170.206 119.076 170.253 118.347C170.299 117.634 170.605 117.215 170.94 117.4Z" fill="#1D2538"/>
<path d="M170.32 120.673C170.877 120.914 171.404 120.259 171.488 119.243C171.505 119.044 171.502 118.845 171.484 118.655C171.496 118.782 171.499 118.914 171.493 119.046C171.46 119.791 171.147 120.245 170.796 120.044C170.448 119.842 170.206 119.078 170.253 118.349C170.299 117.636 170.605 117.22 170.939 117.403C171.148 117.518 171.323 117.84 171.417 118.243C171.289 117.678 171.015 117.229 170.672 117.092C170.147 116.882 169.638 117.467 169.527 118.428C169.414 119.416 169.765 120.435 170.32 120.673Z" fill="#F6BE4A"/>
<path d="M171.473 118.552C171.471 118.539 171.47 118.524 171.468 118.511C171.47 118.526 171.471 118.539 171.473 118.552Z" fill="#F6BE4A"/>
<path d="M171.439 118.351C171.435 118.33 171.431 118.31 171.427 118.287C171.431 118.308 171.435 118.328 171.439 118.351Z" fill="#F6BE4A"/>
<path d="M171.43 116.792C171.449 116.792 171.469 116.803 171.485 116.822C171.606 116.97 171.704 117.132 171.773 117.308C171.8 117.373 171.782 117.461 171.736 117.502C171.691 117.544 171.631 117.525 171.606 117.461C171.547 117.312 171.463 117.171 171.358 117.044C171.318 116.995 171.315 116.907 171.35 116.847C171.37 116.808 171.401 116.789 171.43 116.792Z" fill="#F4E8D8"/>
<path d="M171.759 110.028C171.139 110.028 170.705 110.333 170.705 110.333L171.314 102.271C171.355 101.4 171.491 98.8726 171.491 98.8726C171.491 98.8726 174.67 99.5948 175.071 99.7823C175.071 99.7823 174.638 102.528 174.491 103.303L173.156 110.308C173.156 110.31 172.379 110.028 171.759 110.028Z" fill="#C73F37"/>
<path d="M173.578 108.088L173.391 109.058C173.391 109.058 172.318 108.916 171.028 108.916C171.03 108.916 171.419 108.338 173.578 108.088Z" fill="#1D2538"/>
<path d="M170.701 110.396C170.701 110.396 172.473 110.372 173.055 110.842L172.828 111.995C172.828 111.995 171.021 111.208 170.641 111.208L170.701 110.396Z" fill="#C73F37"/>
<path d="M170.92 107.505L170.945 107.187C170.945 107.187 172.299 107.067 173.198 107.514L170.92 107.505Z" fill="#1D2538"/>
<path d="M173.863 106.451L174.029 105.63C174.029 105.63 172.229 105.018 171.044 105.748C171.044 105.748 173.218 105.63 173.863 106.451Z" fill="#1D2538"/>
<path d="M174.491 103.305L174.22 104.706C174.22 104.706 172.453 103.583 171.172 103.958L171.358 101.433C171.358 101.433 172.698 102.28 174.491 103.305Z" fill="#1D2538"/>
<path d="M174.769 101.623L174.9 100.891C174.9 100.891 173.218 99.6319 171.784 100.18C171.784 100.18 174.593 101.005 174.769 101.623Z" fill="#1D2538"/>
<path d="M168.571 94.8357C168.671 94.7686 168.785 94.7478 168.895 94.7779L178.724 97.1413C178.849 97.183 178.974 97.5117 179.326 98.3381C179.562 98.8936 179.673 99.6089 179.273 99.9029C178.747 100.289 178.165 100.945 177.949 100.845L168.518 98.2177C168.373 98.1737 167.92 97.6043 167.735 97.3682C167.525 97.0996 167.232 96.5834 167.053 96.1459C166.92 95.8218 167.003 95.3959 167.228 95.2455L168.571 94.8357Z" fill="#C73F37"/>
<path d="M168.321 94.1805C168.427 94.1087 168.544 94.0879 168.659 94.1203L178.639 96.8957C178.666 96.905 179.357 98.0902 179.268 98.5323C179.179 98.9745 177.98 99.7569 177.98 99.7569C177.98 99.7569 167.806 97.1828 167.716 96.9907C167.549 96.6342 167.272 96.2731 167.084 95.817C166.945 95.4791 167.032 95.0346 167.266 94.8772L168.321 94.1805Z" fill="#F6874E"/>
<path d="M168.321 94.1805C168.427 94.1087 168.544 94.0879 168.659 94.1203L169.908 96.3332L177.98 99.7569C177.98 99.7569 167.806 97.1828 167.716 96.9907C167.469 96.6087 167.272 96.2731 167.084 95.817C166.945 95.4791 167.032 95.0346 167.266 94.8772L168.321 94.1805Z" fill="#F6BE4A"/>
<path d="M173.99 73.2801L173.552 77.338L176.698 84.5532L177.176 80.5949L173.99 73.2801Z" fill="#F6BE4A"/>
<path d="M173.459 78.5348L173.334 80.0973L176.479 87.3126L176.645 85.8473L173.459 78.5348Z" fill="#F6BE4A"/>
<path d="M170.015 94.5648L170.307 95.2083C170.404 95.4352 170.434 95.4583 170.583 95.3079L171.058 94.8519L170.015 94.5648Z" fill="#C73F37"/>
<path d="M171.269 109.368C171.175 109.717 171.415 109.828 171.754 109.886C171.998 109.928 172.449 109.544 172.449 109.544C172.449 109.544 172.856 109.752 173.026 109.912C173.113 109.993 172.345 109.886 172.073 109.912C171.801 109.937 171.184 110.345 171.184 110.345C171.167 110.347 171.149 110.352 171.132 110.361C170.925 110.477 170.795 110.819 170.834 111.354C170.84 111.426 170.862 111.479 170.896 111.528C170.939 111.59 171.017 111.616 170.988 111.808C170.948 112.06 170.761 112.243 170.763 112.426C170.763 112.53 170.893 113.409 170.937 113.488L171.535 113.525C171.535 113.525 170.848 113.648 170.8 114.139C170.715 114.991 171.178 115.437 171.499 115.356C171.897 115.257 171.894 115.562 172.237 115.655C172.237 115.655 173.084 115.798 173.196 115.338C173.314 114.854 173.691 114.477 173.808 113.794C173.876 113.393 173.876 112.597 174.063 112.118C174.428 111.183 173.978 110.91 174.079 110.308C174.168 109.787 174.401 109.75 174.283 109.136C174.19 108.66 173.87 108.525 173.637 108.391C173.403 108.259 172.786 108.178 172.175 108.285C172.177 108.289 171.363 109.018 171.269 109.368Z" fill="#CE6D3E"/>
<path d="M171.275 109.362C171.182 109.711 171.418 109.876 171.757 109.934C172.001 109.975 172.454 109.538 172.454 109.538C172.454 109.538 172.86 109.746 173.031 109.906C173.118 109.987 172.35 109.88 172.078 109.906C171.806 109.931 171.189 110.339 171.189 110.339C171.171 110.341 171.153 110.346 171.137 110.355C170.93 110.471 170.782 110.843 170.822 111.376C170.828 111.447 170.921 111.623 170.955 111.672C170.998 111.735 170.964 111.816 170.955 111.843C170.881 112.077 170.791 112.128 170.766 112.306C170.707 112.718 170.776 113.1 170.942 113.482L171.569 113.519C171.569 113.519 170.846 113.64 170.804 114.133C170.764 114.607 171.025 115.253 171.372 115.114C171.869 114.915 172.47 115.235 172.534 115.191C172.982 114.871 172.59 114.191 172.738 113.665C172.847 113.276 172.856 112.832 172.971 112.413C173.072 112.049 173.031 111.008 173.031 111.008L173.616 110.184C173.616 110.184 173.597 109.39 173.557 109.084C173.485 108.515 172.542 108.172 172.181 108.278C172.116 108.302 171.369 109.012 171.275 109.362Z" fill="#F6874E"/>
<path d="M170.515 111.474C170.868 112.308 171.318 111.442 171.213 110.176C171.163 109.567 171.04 108.78 170.451 109.051C169.863 109.322 169.883 109.986 170.515 111.474Z" fill="#F6874E"/>
<path d="M175.86 137.597C175.89 138.861 172.837 139.435 172.056 141.144C170.929 143.611 171.901 143.709 161.523 144.928C153.127 145.917 150.496 139.567 150.601 136.891C150.704 134.253 156.723 130.764 163.055 130.753C169.399 130.743 175.798 134.919 175.86 137.597Z" fill="#EC5E4D"/>
<path d="M151.773 145.82C151.773 145.82 150.152 135.519 150.017 132.385C149.883 129.251 156.636 124.771 157.852 129.922C159.068 135.072 159.339 143.357 159.339 147.165C159.339 150.973 158.934 154.332 155.962 154.107C151.619 153.778 152.828 152.568 151.773 145.82Z" fill="#273150"/>
<path d="M151.773 145.82C151.773 145.82 150.152 135.519 150.017 132.385C149.883 129.251 156.636 124.771 157.852 129.922C159.068 135.072 159.339 143.357 159.339 147.165C159.339 150.973 158.934 154.332 155.962 154.107C151.619 153.778 152.828 152.568 151.773 145.82Z" fill="#102441"/>
<path d="M156.521 146.688C154.737 146.022 152.224 148.336 152.401 151.42C152.536 153.772 151.029 154.443 150.015 159.033C149.002 163.623 156.499 166.647 157.175 160.825C157.849 155.003 161.316 148.48 156.521 146.688Z" fill="#273150"/>
<path d="M156.636 145.933C154.852 145.267 152.227 148.336 152.404 151.42C152.539 153.771 153.44 155.135 152.426 159.725C151.413 164.315 156.502 166.649 157.178 160.825C157.851 155.003 161.43 147.725 156.636 145.933Z" fill="#102441"/>
<path d="M157.176 160.824C156.5 166.646 152.449 182.885 152.043 185.794C151.638 188.706 150.288 189.787 150.288 189.787C150.288 189.787 148.439 191.116 148.496 184.554C148.539 179.54 149.005 163.625 150.018 159.035C150.018 159.035 152.585 157.355 154.206 158.028C155.826 158.697 157.176 160.824 157.176 160.824Z" fill="#F6874E"/>
<path d="M157.174 160.825C156.498 166.647 152.447 182.885 152.042 185.795C151.843 187.223 151.614 189.367 151.119 189.424C150.605 189.485 150.398 190.024 150.264 185.01C150.129 180.306 151.412 163.623 152.425 159.033C152.425 159.033 152.583 157.353 154.204 158.026C155.824 158.698 157.174 160.825 157.174 160.825Z" fill="#CE6D3E"/>
<path d="M150.399 183.169C149.658 185.364 148.306 186.658 148.306 186.658C148.306 186.658 147.347 189.313 147.485 190.313C147.573 190.919 147.962 192.466 147.962 192.466C147.962 192.466 148.252 197.848 148.354 198.482C148.505 199.431 154.586 200.949 154.993 201.19C155.4 201.431 155.311 196.077 155.311 196.077C155.311 196.077 152.705 191.04 152.217 188.885C151.736 186.769 151.199 180.804 150.399 183.169Z" fill="#CE6D3E"/>
<path d="M160.688 128.352C159.338 130.144 158.549 134.174 159.562 137.982C160.576 141.79 161.499 148.655 162.444 150.225C163.389 151.794 165.01 153.882 166.902 153.882C168.792 153.882 169.603 149.628 169.266 146.269C168.929 142.91 167.713 133.391 166.768 129.137C165.822 124.882 162.039 126.56 160.688 128.352Z" fill="#102441"/>
<path d="M162.699 147.845C162.029 148.965 161.862 152.671 161.485 154.667C160.978 157.352 160.88 159.384 160.978 163.06C161.077 166.796 161.556 171.632 161.79 174.236C162.269 179.586 161.272 181.574 162.893 181.87C164.514 182.169 164.244 181.273 164.874 178.586C165.504 175.898 167.801 161.866 168.251 159.028C168.7 156.192 168.971 153.056 169.061 150.519C169.151 147.982 164.489 144.852 162.699 147.845Z" fill="#273150"/>
<path d="M162.927 147.514C161.902 148.595 161.769 152.653 162.071 157.003C162.31 160.454 167.802 161.868 168.252 159.033C168.702 156.197 168.972 153.06 169.063 150.523C169.153 147.986 164.872 145.056 162.927 147.514Z" fill="#102441"/>
<path d="M161.115 157.232C160.569 160.01 160.841 164.741 161.611 173.535C162.078 178.887 161.386 182.667 163.007 182.966C164.628 183.264 164.908 183.348 165.235 180.533C165.566 177.679 167.801 161.871 168.251 159.035C168.251 159.035 166.224 157.095 164.334 156.945C162.443 156.794 161.115 157.232 161.115 157.232Z" fill="#F6874E"/>
<path d="M162.071 157.002C162.081 160.176 162.89 170.051 162.983 175.331C163.08 180.787 162.151 182.185 163.772 182.484C165.393 182.782 164.917 183.35 165.236 180.532C165.582 177.472 167.803 161.87 168.252 159.035C168.252 159.035 166.31 157.192 164.335 156.945C163.538 156.843 162.071 157.002 162.071 157.002Z" fill="#CE6D3E"/>
<path d="M161.892 179.959C161.892 179.959 161.706 181.736 161.194 183.605C160.755 185.206 163.042 185.94 163.874 187.132C163.874 187.132 169.92 192.081 171.945 190.514C174.195 188.774 167.955 183.824 169.739 185.343C169.739 185.343 165.957 182.431 165.417 180.192C164.876 177.956 161.892 179.959 161.892 179.959Z" fill="#F6874E"/>
<path d="M162.86 179.667C162.782 182.322 162.038 182.922 161.767 184.491C161.245 187.516 165.08 189.375 164.829 189.141C164.829 189.141 169.849 191.871 171.876 190.303C174.167 188.53 167.912 183.859 169.737 185.345C169.737 185.345 165.955 182.433 165.415 180.195C164.875 177.956 162.931 177.271 162.86 179.667Z" fill="#CE6D3E"/>
<path d="M161.34 182.294C161.436 181.995 161.612 181.736 161.641 182.035C161.672 182.333 161.964 183.477 162.363 183.829C162.761 184.181 167.305 188.056 168.898 187.35C169.87 186.919 169.167 185.546 168.472 184.539C168.028 183.896 167.586 183.403 167.586 183.403C167.586 183.403 169.624 185.199 170.561 186.044C171.497 186.889 173.466 189.778 173.652 190.905C173.84 192.032 166.731 192.174 165.712 191.433C164.693 190.692 163.183 188.579 162.621 187.734C162.103 186.956 161.501 187.303 161.309 186.958C160.874 186.183 161.048 183.19 161.34 182.294Z" fill="#992C29"/>
<path d="M159.27 93.2779C159.27 93.2779 161.069 92.6436 161.702 93.9122C162.43 95.3728 164.375 99.1251 164.471 102.111C164.548 104.491 164.286 106.394 163.52 109.704C162.891 112.424 162.044 116.6 160.976 117.359C157.721 119.671 154.942 119.294 153.124 117.588C152.448 116.954 151.731 115.345 151.786 111.134C151.809 109.32 151.774 108.711 151.503 102.264C151.141 93.5973 153.327 93.2386 155.551 93.0441C157.775 92.8473 159.27 93.2779 159.27 93.2779Z" fill="#F6BE4A"/>
<path d="M159.031 96.6553L158.676 96.6253C158.04 96.572 157.552 95.7202 157.588 94.7248L157.839 87.4239C157.873 86.4285 158.418 85.6646 159.054 85.7202L159.409 85.7503C160.045 85.8035 160.533 86.6554 160.497 87.6507L160.246 94.9517C160.21 95.947 159.667 96.7086 159.031 96.6553Z" fill="#F6874E"/>
<path d="M159.123 93.6971L158.768 93.667C158.132 93.6138 157.644 92.7619 157.679 91.7665L157.931 84.4655C157.965 83.4702 158.509 82.7063 159.145 82.7618L159.5 82.7919C160.136 82.8452 160.624 83.697 160.589 84.6924L160.337 91.9934C160.302 92.9864 159.759 93.7503 159.123 93.6971Z" fill="#CE6D3E"/>
<path d="M148.543 186.368C148.351 186.466 147.943 186.972 147.87 187.269C147.552 188.567 147.285 189.794 147.363 190.565C147.394 190.866 147.579 191.634 147.77 193.093C147.981 194.699 147.839 197.593 148.41 198.81C148.98 200.028 153.843 202.672 154.923 202.354C156.004 202.037 155.392 197.058 155.309 196.079C155.222 195.047 152.854 190.422 151.868 186.982C151.868 186.982 151.877 187.32 152.034 188.181C152.404 190.195 153.124 194.417 152.117 194.572C150.675 194.792 148.605 191.725 148.52 190.19C148.435 188.674 148.277 187.463 148.305 187.151C148.333 186.834 148.543 186.368 148.543 186.368Z" fill="#992C29"/>
<path d="M163.748 134.551L166.5 138.345C166.789 138.702 167.191 138.422 167.133 137.898C166.935 136.104 166.349 133.074 163.748 134.551Z" fill="#EC5E4D"/>
<path d="M151.862 112.584C151.412 113.922 147.945 130.834 151.276 142.107C151.276 142.107 154.211 137.121 158.403 135.771C166.751 133.086 166.031 136.774 166.246 137.748C166.388 138.396 166.837 138.732 167.251 138.51C167.358 138.452 167.478 138.382 167.611 138.299C169.486 137.128 172.748 135.35 175.783 137.03C175.783 137.03 169.895 121.702 162.02 114.056C154.482 106.746 152.312 111.246 151.862 112.584Z" fill="#F6BE4A"/>
<path opacity="0.5" d="M166.83 136.751C166.83 136.751 166.05 127.959 164.099 125.274C164.099 125.274 164.879 127.35 164.879 128.936L163.942 127.959C163.942 127.959 164.913 130.2 165.581 132.477C166.167 134.473 166.429 136.521 166.83 136.751Z" fill="#F6BE4A"/>
<path d="M164.6 79.5878C165.743 88.1966 163.501 91.1318 159.62 90.942C156.703 90.7985 154.314 87.9096 154.123 82.1966C153.931 76.4837 155.468 71.7962 158.348 71.0415C162.149 70.0462 163.856 73.9952 164.6 79.5878Z" fill="#CE6D3E"/>
<path d="M163.262 81.5464C163.32 81.97 163.366 82.3751 163.403 82.7617C163.941 88.5232 162.193 90.5186 159.301 90.382C156.982 90.2709 155.081 88.0232 154.929 83.5765C154.776 79.1297 157.17 76.1459 159.461 75.5603C162.486 74.7848 162.671 77.1922 163.262 81.5464Z" fill="#F6874E"/>
<path d="M154.55 86.3397C155.442 86.1247 156.022 84.5025 155.844 82.7163C155.667 80.9301 154.8 79.6564 153.907 79.8714C153.015 80.0863 152.436 81.7086 152.613 83.4948C152.791 85.281 153.658 86.5547 154.55 86.3397Z" fill="#F6874E"/>
<path d="M154.12 79.831L155.056 81.4398C155.056 81.4398 155.061 74.7107 158.43 72.8565C161.43 71.2038 162.803 73.0556 162.803 73.0556C162.803 73.0556 161.183 68.8681 157.105 71.6112C153.694 73.9051 154.12 79.831 154.12 79.831Z" fill="#F6BE4A"/>
<path d="M156.908 80.7638C157.171 80.7638 157.383 80.142 157.383 79.3749C157.383 78.6079 157.171 77.986 156.908 77.986C156.646 77.986 156.434 78.6079 156.434 79.3749C156.434 80.142 156.646 80.7638 156.908 80.7638Z" fill="#273150"/>
<path d="M161.788 80.169C162.051 80.169 162.263 79.5471 162.263 78.7801C162.263 78.013 162.051 77.3912 161.788 77.3912C161.526 77.3912 161.313 78.013 161.313 78.7801C161.313 79.5471 161.526 80.169 161.788 80.169Z" fill="#273150"/>
<path d="M161.229 77.095L162.117 76.3334" stroke="#273150" stroke-miterlimit="10" stroke-linecap="round" stroke-linejoin="round"/>
<path d="M157.664 77.4907L156.487 76.9953" stroke="#273150" stroke-miterlimit="10" stroke-linecap="round" stroke-linejoin="round"/>
<path d="M162.357 71.8748C162.357 71.8748 163.212 73.5022 164.089 74.1989C164.752 74.7267 165.284 74.8239 165.284 74.8239L165.151 74.4072L165.481 74.0091C165.481 74.0091 164.241 73.8054 162.614 71.6318L162.357 71.8748Z" fill="#EE5D4F"/>
<path d="M162.271 71.6852C162.271 71.6852 162.72 73.6714 163.391 74.7964C163.899 75.6459 164.378 76.0232 164.378 76.0232L164.344 75.5626L164.742 75.3658C164.742 75.3658 163.622 74.5116 162.569 71.595L162.271 71.6852Z" fill="#EE5D4F"/>
<path d="M162.813 72.7338C163.13 72.6458 163.43 70.0046 162.677 69.949C161.969 69.8958 161.166 70.0393 161.299 70.875C161.433 71.7106 162.498 72.8217 162.813 72.7338Z" fill="#EE5D4F"/>
<path d="M163.087 71.2315C163.087 71.2315 162.97 70.0996 162.745 70.1251C162.52 70.1505 162.721 70.6343 162.779 71.3797C162.838 72.1251 163.127 71.7107 163.087 71.2315Z" fill="#F7BC4B"/>
<path d="M162.551 72.1876C162.551 72.1876 162.504 71.6668 162.989 71.1622C163.474 70.6575 163.844 70.3821 164.152 70.683C164.459 70.9839 164.567 72.301 164.391 72.9654C164.215 73.6297 163.135 73.1251 162.863 72.8751C162.591 72.6228 162.551 72.1876 162.551 72.1876Z" fill="#EE5D4F"/>
<path d="M164.317 71.7455C164.317 71.7455 164.419 72.8034 164.117 72.9747C163.669 73.2317 163.951 71.2293 163.978 70.9145C164.003 70.5974 164.398 70.9886 164.317 71.7455Z" fill="#F7BC4B"/>
<path d="M152.583 107.202C152.583 107.202 154.346 113.354 155.151 114.704C155.961 116.065 157.034 117.577 158.088 116.938C159.14 116.301 159.604 112.202 158.863 110.054C158.131 107.933 156.788 101.817 156.335 100.852C155.886 99.8915 154.21 100.572 153.393 101.348C152.571 102.125 151.991 104.903 152.583 107.202Z" fill="#F6874E"/>
<path d="M156.888 102.529C156.888 102.529 155.373 92.9941 153.347 93.4154C151.412 93.8182 151.056 96.4015 151.3 99.9409C151.548 103.557 152.612 107.381 152.612 107.381C152.612 107.381 153.015 103.913 156.888 102.529Z" fill="#EC5E4D"/>
<path d="M156.274 99.4331C156.274 99.4331 155.375 92.9956 153.348 93.4169C151.414 93.8197 151.057 96.403 151.301 99.9424C151.55 103.558 151.931 104.26 151.931 104.26C151.931 104.26 152.132 101.977 152.402 100.604C152.634 99.4262 154.113 98.8776 154.113 98.8776L156.274 99.4331Z" fill="#C93F37"/>
<path d="M168.384 105.044C168.384 105.044 165.323 106.03 163.614 106.912C162.108 107.69 159.529 109.005 158.055 110.635C156.569 112.281 156.397 114.632 156.792 116.169C157.192 117.72 159.11 116.797 160.694 115.949C162.271 115.105 168.268 110.616 169.735 109.132C171.19 107.658 170.815 103.602 168.384 105.044Z" fill="#CE6D3E"/>
<path d="M161.968 107.792C160.347 108.496 159.529 109.005 158.055 110.635C156.569 112.28 156.397 114.632 156.792 116.169C157.192 117.72 159.11 116.797 160.694 115.949C162.273 115.104 163.395 107.172 161.968 107.792Z" fill="#F6874E"/>
<path d="M169.427 108.039C169.872 108.993 171.002 108.847 171.382 108.343C171.844 107.734 172.119 107.215 172.412 107.218C172.595 107.218 173.271 107.417 173.641 107.678C173.662 107.741 173.573 107.986 173.589 108.056C173.611 108.153 173.631 108.211 173.697 108.218C174.117 108.264 174.463 107.831 174.441 107.144L174.398 106.229L174.829 105.414L174.912 102.861L173.484 100.458C173.413 100.34 173.313 100.278 173.209 100.289L171.268 100.514C171.151 100.528 171.045 100.627 170.983 100.78L169.221 105.095C169.22 105.097 168.982 107.086 169.427 108.039Z" fill="#CE6D3E"/>
<path d="M173.57 106.408C173.704 106.637 173.916 106.986 174.098 107.209C174.294 107.449 174.456 107.535 174.442 107.144L174.399 106.229L174.936 105.56C174.936 105.56 175.061 103.579 175.019 103.007C174.908 101.489 173.47 100.361 173.47 100.361C173.343 100.262 173.312 100.28 173.209 100.292C173.209 100.292 172.752 101.475 172.723 101.831C172.695 102.188 173.117 103.755 173.117 103.755C173.117 103.755 172.657 104.669 172.632 104.942C172.571 105.584 173.102 105.614 173.57 106.408Z" fill="#F6874E"/>
<path d="M151.984 102.366C151.984 102.366 152.119 100.94 152.795 100.516C152.795 100.516 152.045 103.935 151.929 104.259C151.814 104.584 151.815 103.16 151.984 102.366Z" fill="#C93F37"/>
<path d="M151.537 95.3218C151.176 96.9421 149.825 102.438 148.475 114.558C147.124 126.678 149.285 142.319 150.546 144.012C151.806 145.704 156.218 133.16 165.675 140.982C165.675 140.982 159.189 126.426 155.544 122.449C151.086 117.588 151.447 105.819 151.986 99.5486C152.528 93.2801 151.537 95.3218 151.537 95.3218Z" fill="#29ACE4"/>
<path d="M148.475 114.56C147.124 126.68 149.285 142.322 150.546 144.014C151.806 145.706 156.218 133.162 165.675 140.984C165.675 140.984 162.244 133.502 160.117 129.632C160.117 129.632 157.378 135.944 156.675 135.715C156.258 135.579 152.85 136.039 150.824 132.236C148.797 128.433 148.475 114.56 148.475 114.56Z" fill="#1689CB"/>
<path d="M150.708 128.845C150.708 128.845 150.82 130.211 151.82 132.507C153.028 135.282 156.677 136.444 156.677 136.444L158.14 134.933C158.14 134.933 156.132 134.674 154.414 133.331C152.697 131.988 150.773 129.697 150.708 128.845Z" fill="#1689CB"/>
<path d="M157.3 92.6991C156.621 92.4537 152.775 91.9583 151.694 94.919C150.613 97.8773 151.492 103.356 151.492 103.356C151.492 103.356 151.693 98.8403 153.147 97.4028C153.988 96.5694 158.95 99.2917 159.664 99.463C160.981 99.7801 159.327 96.8218 159.327 96.8218C159.327 96.8218 158.179 93.0162 157.3 92.6991Z" fill="#29ACE4"/>
<path d="M160.44 93.1042C159.973 93.2917 158.666 100.225 159.955 98.9885C160.294 98.6621 162.159 97.7732 164.289 98.0903C165.707 98.301 166.824 99.5533 166.923 99.3056C167.262 98.4584 162.43 92.301 160.44 93.1042Z" fill="#1689CB"/>
<path d="M159.9 98.3888C160.03 98.3888 160.136 98.223 160.136 98.0184C160.136 97.8139 160.03 97.6481 159.9 97.6481C159.769 97.6481 159.663 97.8139 159.663 98.0184C159.663 98.223 159.769 98.3888 159.9 98.3888Z" fill="#273150"/>
<path d="M122.481 126.445C122.481 126.445 122.641 121.808 121.085 121.54C119.529 121.271 116.212 126.646 115.462 127.218C114.712 127.792 114.121 129.639 113.738 130.211C113.355 130.783 112.325 131.22 111.754 131.938C111.182 132.658 109.177 134.822 110.615 137.239C112.056 139.66 112.6 140.371 114.585 139.051C116.564 137.734 122.999 128.838 122.481 126.445Z" fill="#1D2436"/>
<path d="M119.399 151.842C119.399 151.842 114.146 149.152 108.123 147.96C105.407 147.423 105.27 153.814 107.065 158.743C108.052 161.453 113.313 163.405 118.18 167.164C122.203 170.27 125.873 175.546 127.543 175.437C131.228 175.194 128.886 155.02 119.399 151.842Z" fill="#48598B"/>
<path d="M114.579 154.685C113.777 154.576 115.224 157.021 115.601 158.092C116.698 161.21 117.596 164.771 118.562 167.03C119.416 169.025 118.816 166.352 118.123 162.956C117.808 161.414 117.571 159.937 117.342 158.928C117.213 158.358 114.579 154.685 114.579 154.685Z" fill="#273150"/>
<path d="M114.746 192.06C114.746 192.06 111.665 196.118 110.587 198.308C109.504 200.505 112.396 202.889 114.962 202.338C117.523 201.789 119.95 200.326 120.817 198.146C121.681 195.972 121.687 195.949 123.04 193.616C124.389 191.292 122.533 186.359 121.768 185.322C121.002 184.287 115.169 188.544 114.746 192.06Z" fill="#EC6141"/>
<path d="M114.827 191.002C114.827 191.002 111.746 195.06 110.668 197.25C109.585 199.447 112.663 200.914 115.23 200.363C117.79 199.815 119.538 199.125 120.405 196.944C121.269 194.771 121.899 194.451 123.252 192.118C124.601 189.794 122.613 185.303 121.849 184.266C121.083 183.229 115.25 187.486 114.827 191.002Z" fill="#13161F"/>
<path d="M113.038 184.514C113.038 184.514 113.976 186.764 113.794 187.68C113.612 188.599 113.057 191.148 115.255 192.303C117.128 193.287 121.665 189.065 123.095 187.585C123.349 187.322 123.518 186.896 123.546 186.444C123.623 185.187 123.666 182.599 122.892 181.067C121.842 178.991 121.98 179.588 120.319 172.743C118.671 165.947 113.409 151.808 113.079 150.356C112.75 148.907 108.47 147.528 107.608 147.687C106.744 147.847 103.397 154.768 103.486 156.676C103.574 158.588 105.471 165.204 107.101 170.824C108.74 176.477 110.751 179.097 111.232 180.717C111.985 183.257 113.038 184.514 113.038 184.514Z" fill="#48598B"/>
<path d="M121.808 179.03C121.034 176.775 121.407 180.157 121 182.553C120.766 183.928 122.583 181.285 121.808 179.03Z" fill="#273150"/>
<path d="M112.978 183.822C112.978 183.822 113.906 187.592 114.426 187.873C114.945 188.155 116.499 187.838 117.554 186.993C118.609 186.146 114.861 187.486 112.978 183.822Z" fill="#273150"/>
<path d="M105.123 159.599C105.123 159.599 105.688 158.085 106.136 156.699C106.584 155.312 106.797 160.009 105.829 161.217C104.86 162.428 105.123 159.599 105.123 159.599Z" fill="#273150"/>
<path d="M116.816 159.546L113.785 157.217L110.044 152.535C110.044 152.535 110.92 152.562 111.606 153.315C111.917 153.655 113.551 155.773 114.442 156.882C115.514 158.222 116.484 159.009 116.816 159.546Z" fill="#273150"/>
<path d="M134.745 127.944C134.745 127.944 119.224 122.595 122.182 119.067C125.121 115.56 133.322 109.248 136.32 116.037C139.339 122.875 136.564 130.375 134.745 127.944Z" fill="#1D2436"/>
<path d="M140.713 177.083C140.713 177.083 140.955 176.188 141.676 175.408C142.395 174.63 144.624 174.954 145.022 176.336C145.419 177.722 145.415 187.227 145.415 187.87C145.415 188.516 144.615 191.195 143.888 192.769C143.161 194.347 141.79 194.651 140.581 193.91C139.373 193.169 140.191 189.907 140.517 188.35C140.844 186.799 140.148 178.752 140.713 177.083Z" fill="#EC6141"/>
<path d="M140.241 176.345C140.241 176.345 140.283 175.794 141.004 175.014C141.723 174.236 143.952 174.56 144.35 175.942C144.748 177.329 144.943 186.488 144.943 187.132C144.943 187.778 144.143 190.456 143.416 192.03C142.689 193.609 141.317 193.912 140.109 193.171C138.9 192.431 139.718 189.169 140.045 187.611C140.372 186.058 139.675 178.014 140.241 176.345Z" fill="#13161F"/>
<path d="M136.519 179.921C136.519 179.921 139.217 176.313 140.483 176.225C143.187 176.035 142.561 180.29 142.555 183.222C142.551 186.165 141.092 188.331 140.551 188.894C140.01 189.456 140.953 189.169 139.381 192.523C137.8 195.894 134.992 199.933 133.123 200.345C131.698 200.66 126.92 196.732 129.475 188.718C130.274 186.215 135.084 182.04 136.519 179.921Z" fill="#273150"/>
<path d="M127.788 162.083C127.788 162.083 127.288 181.301 127.493 188.562C127.701 195.889 127.488 199.34 128.621 201.153C129.755 202.97 131.814 203.308 133.258 202.562C134.698 201.817 134.181 200.877 135.329 200.377C136.475 199.88 137.297 194.433 137.59 192.593C137.883 190.757 138.666 172.917 138.97 166.468C139.273 160.072 138.451 156.803 135.107 156.868C131.756 156.937 128.39 158.329 127.788 162.083Z" fill="#273150"/>
<path d="M127.483 165.19C127.483 165.19 127.315 183.056 127.476 189.729C127.64 196.463 127.472 199.632 128.364 201.301C129.257 202.97 130.881 203.283 132.019 202.595C133.155 201.91 135.977 195.202 136.208 193.512C136.438 191.824 137.261 180.324 136.521 169.428C136.123 163.572 136.111 160.547 133.476 160.607C130.835 160.665 127.958 161.739 127.483 165.19Z" fill="#47588A"/>
<path d="M118.489 155.919C119.309 157.593 120.199 158.81 121.28 160.146C121.533 160.458 130.105 166.065 130.105 166.065C130.105 166.065 125.295 163.204 125.964 163.952C128.82 167.144 129.565 169.306 132.898 170.574C133.676 170.87 135.294 168.479 135.757 169.271C137.244 171.808 136.716 176.611 136.838 174.239C137.276 165.769 139.162 161.905 135.083 158.595C130.786 155.109 116.202 151.243 118.489 155.919Z" fill="#273150"/>
<path d="M120.335 151.68C120.461 149.926 120.19 143.139 120.233 134.544C120.276 126.042 120.238 122.667 123.385 120.681C126.518 118.704 130.444 118.118 133.42 121.16C134.8 122.569 135.405 153.442 135.668 156.201C135.932 158.97 132.822 163.509 130.012 163.792C127.197 164.076 119.976 156.727 120.335 151.68Z" fill="#F6BE4A"/>
<path opacity="0.5" d="M127.317 153.664C127.317 153.664 126.87 154.97 127.055 156.224C125.414 155.109 123.801 153.847 123.354 152.961C123.354 152.961 124.795 156.766 126.956 158.035C129.117 159.303 131.097 158.738 131.097 158.738C131.097 158.738 128.012 155.417 127.317 153.664Z" fill="#F6BE4A"/>
<path d="M118.465 154.338C118.465 154.428 118.485 154.514 118.525 154.579C118.848 155.107 119.824 157.389 121.325 158.185C121.728 158.398 122.42 157.938 122.423 157.669L122.43 157.12C122.432 156.988 121.592 157.116 121.518 157.056C121.074 156.69 119.2 154.391 118.419 152.947C118.284 152.697 118.466 154.005 118.465 154.338Z" fill="#F4E8D8"/>
<path d="M124.68 119.764C125.06 119.433 120.046 123.231 122.297 138.944C122.896 143.123 122.301 150.417 122.496 151.831C122.693 153.245 123.298 156.403 122.408 157.118C120.758 158.442 119.196 154.373 118.621 153.461C117.728 152.049 119.565 151.387 119.489 146.181C119.409 140.678 118.231 133 118.461 129.875C118.989 122.743 120.492 122.192 121.082 121.539C121.726 120.829 124.22 120.167 124.68 119.764Z" fill="#972B28"/>
<path d="M124.68 119.764C124.823 118.931 121.769 121.419 121.35 122.012C120.942 122.59 120.51 123.389 120.118 124.495C118.862 128.032 122.047 137.09 122.047 137.09C122.047 137.09 122.036 128.426 122.158 126.449C122.278 124.477 124.403 121.375 124.68 119.764Z" fill="#F4E8D8"/>
<path d="M124.782 119.081C124.782 119.081 124.629 119.63 124.646 120.301C124.706 123 125.067 130.46 125.711 130.553C126.365 130.646 126.666 130.4 127.486 126.217C127.66 125.326 129.397 118.616 128.851 118.037" stroke="#913636" stroke-miterlimit="10"/>
<path d="M125.831 132.858C126.023 132.858 126.178 132.303 126.178 131.618C126.178 130.933 126.023 130.377 125.831 130.377C125.64 130.377 125.485 130.933 125.485 131.618C125.485 132.303 125.64 132.858 125.831 132.858Z" fill="#29ACE4"/>
<path d="M124.664 116.558L124.764 120.771C124.806 122.523 125.834 123.817 127.013 123.599L127.173 123.569C128.304 123.361 129.132 121.833 129.024 120.162L128.754 115.986C128.627 114.016 127.27 112.81 126.011 113.542C125.177 114.028 124.633 115.245 124.664 116.558Z" fill="#CE6D3E"/>
<path d="M130.374 159.208L130.384 159.56C130.39 159.762 130.439 159.949 130.522 160.088C131.115 161.088 133.643 165.238 135.313 166.22C136.598 166.975 138.323 167.116 139.306 167.127C139.774 167.132 140.203 166.657 140.401 165.914C140.531 165.428 140.367 164.866 140.068 164.771C138.571 164.292 134.515 162.678 131.13 158.477C130.809 158.076 130.353 158.516 130.374 159.208Z" fill="#F4E8D8"/>
<path d="M129.35 118.407C128.889 118.968 126.908 124.576 128.566 132.315C130.238 140.123 128.708 154.15 129.793 157.632C130.102 158.623 134.532 164.928 136.214 165.039C137.322 165.111 138.918 165.391 140.026 165.618C140.546 165.724 141.348 164.143 141.366 163.315C141.42 160.694 141.366 155.153 140.239 149.595C138.7 142.005 138.582 120.259 134.68 117.377C131.701 115.176 129.812 117.847 129.35 118.407Z" fill="#972B28"/>
<path d="M134.588 150.993C134.588 150.993 137.722 153.981 138.554 154.403L138.083 156.157C138.083 156.157 134.573 153.169 134.024 152.019L134.588 150.993Z" fill="#F4E8D8"/>
<path d="M129.262 117.981C130.185 116.724 133.188 116.081 134.087 116.976C134.596 117.481 132.191 115.891 130.971 120.196C129.459 125.525 128.915 134.004 128.915 134.004C128.915 134.004 128.094 133.305 127.801 126.525C127.606 122 128.338 119.24 129.262 117.981Z" fill="#F4E8D8"/>
<path d="M136.973 147.921C136.973 147.921 137.345 146.229 137.176 145.438C137.007 144.646 136.568 147.34 136.062 148.449C135.818 148.982 136.817 148.102 136.973 147.921Z" fill="#972B28"/>
<path d="M119.437 148.308L119.313 149.243L120.112 148.521L120.258 147.41L119.437 148.308Z" fill="#F4E8D8"/>
<path d="M128.645 167.016C128.645 167.016 129.995 168.25 130.896 169.377C131.797 170.505 133.508 171.386 133.508 171.386C133.508 171.386 131.345 171.949 128.645 167.016Z" fill="#273150"/>
<path d="M118.268 137.458C118.963 140.685 116.702 144.565 114.573 144.597C113.298 144.618 112.34 143.699 111.486 141.861C111.164 141.167 111.361 140.361 111.127 139.602C110.946 139.014 110.315 138.475 110.195 137.91C109.515 134.685 110.692 132.357 112.8 132.035C114.319 131.803 114.632 133.38 115.467 133.97C115.767 134.183 116.672 134.225 116.953 134.498C117.968 135.495 117.928 135.882 118.268 137.458Z" fill="#C93F37"/>
<path d="M117.854 139.526C117.959 141.199 117.284 142.866 116.343 143.248C115.401 143.628 114.555 142.572 114.453 140.894C114.351 139.218 114.811 136.778 115.749 136.403C116.685 136.026 117.749 137.855 117.854 139.526Z" fill="#F4E8D8"/>
<path d="M117.369 139.695C117.446 140.954 116.955 142.211 116.271 142.496C115.588 142.783 114.973 141.986 114.899 140.722C114.825 139.461 115.297 136.963 116.332 137.387C117.014 137.665 117.292 138.438 117.369 139.695Z" fill="#CE6D3E"/>
<path d="M116.074 137.669C115.691 138.141 115.383 139.123 115.275 140.627C115.167 142.132 117.253 143.759 117.253 143.759C117.253 143.759 118.553 144.511 119.42 141.25C119.764 139.951 117.986 137.546 118 136.718C118.049 133.711 116.702 136.893 116.074 137.669Z" fill="#F6874E"/>
<path d="M117.728 137.246C117.728 137.246 117.052 137.368 117.188 138.162C117.323 138.954 118.386 140.364 119.501 139.942C120.617 139.521 117.728 137.246 117.728 137.246Z" fill="#CE6D3E"/>
<path d="M111.178 138.514C111.088 137.597 111.148 136.72 111.134 136.542C111.089 136.014 110.594 138.586 110.594 138.586C111.2 139.959 111.224 138.989 111.178 138.514Z" fill="#972B28"/>
<path d="M115.162 134.074C115.162 134.074 113.878 132.278 113.475 135.132C113.473 135.132 114.217 134.392 115.162 134.074Z" fill="#972B28"/>
<path d="M134.693 137.005C133.771 134.672 132.833 131.706 131.868 129.385C130.903 127.07 131.458 119.716 133.557 118.449C135.65 117.188 136.04 118.746 137.972 123.121C139.911 127.514 142.902 139.04 141.978 143.012C141.485 145.125 137.15 146.202 134.693 137.005Z" fill="#1D2436"/>
<path d="M141.381 139.167C140.35 136.845 139.035 135.239 136.346 136.084C135.006 136.505 134.835 138.498 134.835 138.498C134.835 138.498 133.307 138.28 132.611 139.253C131.913 140.227 129.547 139.253 129.623 144.114C129.698 148.975 130.46 151.209 132.537 151.829C134.612 152.449 137.854 148.204 137.854 148.204C137.854 148.204 138.998 148.551 140.517 146.292C142.049 144.014 143.018 142.854 141.381 139.167Z" fill="#C93F37"/>
<path d="M135.182 137.843C135.182 137.843 136.405 136.157 137.607 137.82C137.739 138.003 136.124 137.496 135.182 137.843Z" fill="#972B28"/>
<path d="M129.693 146.169C129.535 150.565 132.9 150.128 132.9 150.128C132.9 150.128 132.255 150.593 132.656 150.764C133.129 150.966 133.957 151.185 134.463 150.632C136.271 148.653 137.278 143.794 135.067 141.804C134.661 141.44 134.542 144.186 134.482 143.394C134.419 142.554 133.848 141.253 132.838 140.426C132.274 139.963 129.888 140.72 129.693 146.169Z" fill="#972B28"/>
<path d="M138.272 140.628C138.272 140.628 137.692 139.676 136.945 139.253C136.198 138.829 134.89 138.354 134.89 138.354C135.096 138.257 138.353 137.942 138.272 140.628Z" fill="#972B28"/>
<path d="M131.204 140.794C130.694 140.843 129.073 141.098 128.949 145.595C128.85 149.225 130.916 150.07 130.916 150.07C130.916 150.07 132.42 150.274 133.105 149.362C134.028 148.132 134.104 145.209 133.531 142.706C133.237 141.424 131.715 140.746 131.204 140.794Z" fill="#F4E8D8"/>
<path d="M130.179 141.63C129.67 141.665 128.191 141.232 128.114 145.5C128.052 148.942 130.12 149.79 130.12 149.79C130.12 149.79 131.62 150.014 132.293 149.162C133.2 148.014 133.244 145.241 132.648 142.854C132.342 141.627 130.688 141.595 130.179 141.63Z" fill="#CE6D3E"/>
<path d="M120.08 126.329C120.08 126.329 120.668 125.081 122.344 125.162C124.685 125.276 127.2 126.375 127.948 128.03C128.503 129.255 128.534 130.498 128.534 130.498C128.534 130.498 129.278 130.611 129.646 131.463C129.878 132 129.775 138.753 129.775 138.753C129.735 139.945 129.355 140.764 128.58 140.748L127.923 140.734L119.921 139.098C119.924 139.098 119.316 127.792 120.08 126.329Z" fill="#634874"/>
<path d="M117.321 135.766C117.411 139.007 119.188 139.574 119.7 139.708C121.083 140.07 128.53 141.088 128.53 141.088C128.53 141.088 129.829 140.31 129.088 140.229C128.91 140.211 125.235 138.926 124.031 138.583C121.979 138 121.284 135.905 121.284 135.905C121.284 135.905 117.28 134.287 117.321 135.766Z" fill="#7E6391"/>
<path d="M128.261 150.801L128.874 141.28C128.838 140.79 128.591 140.584 127.618 140.317C127.618 140.317 127.147 140.25 126.779 140.192C126.6 140.165 126.168 140.301 126.151 141.144L125.844 151.926C125.818 152.32 126.721 152.044 126.721 152.044C128.057 151.785 128.233 151.69 128.261 150.801Z" fill="#634874"/>
<path d="M121.244 137.299C119.956 138.197 119.117 138.466 117.935 137.572C117.057 136.986 116.814 133.989 116.836 133.049L116.853 129.818C116.9 127.711 118.048 126.005 119.416 126.005C121.385 126.003 122.413 128.403 122.36 131.44L122.29 133.26C122.274 134.197 121.836 136.887 121.244 137.299Z" fill="#634874"/>
<path d="M126.451 151.857L126.619 140.81C126.649 139.905 126.686 139.755 125.761 139.634L124.927 139.625C124.239 139.683 123.899 140.229 123.878 141.118L124.165 149.947C124.152 151.519 124.022 151.956 124.73 152.044C125.911 152.19 126.437 152.396 126.451 151.857Z" fill="#7E6391"/>
<path d="M123.422 141.065C123.508 142.435 123.692 143.919 124.909 144.391C124.961 144.412 125.916 144.317 125.916 144.317L125.515 140.686C125.523 139.97 125.279 139.591 124.989 139.54L123.961 139.429C123.584 139.361 123.366 140.155 123.422 141.065Z" fill="#7E6391"/>
<path d="M124.446 141.093C124.518 142.396 124.728 143.861 125.78 144.313C125.824 144.331 125.872 144.331 125.917 144.317C126.543 144.399 127.543 143.783 127.55 143.1L127.651 140.32C127.621 140.204 124.99 139.665 124.99 139.665C124.665 139.602 124.397 140.23 124.446 141.093Z" fill="#634874"/>
<path d="M120.773 131.07C120.703 132.204 120.045 133.065 119.302 132.993C118.56 132.922 118.015 131.943 118.086 130.806C118.157 129.672 118.817 128.815 119.558 128.887C120.298 128.961 120.842 129.938 120.773 131.07Z" fill="#1D2436"/>
<path d="M120.367 130.47C120.271 132.047 119.356 133.246 118.324 133.146C117.29 133.047 116.534 131.683 116.633 130.104C116.732 128.53 117.648 127.338 118.677 127.44C119.707 127.542 120.463 128.898 120.367 130.47Z" fill="#F6BE4A"/>
<path d="M119.581 130.236C119.521 131.23 118.944 131.982 118.294 131.919C117.645 131.857 117.167 130.998 117.231 130.005C117.293 129.014 117.87 128.262 118.518 128.327C119.166 128.391 119.642 129.246 119.581 130.236Z" fill="#1D2436"/>
<path d="M122.605 126.338C123.548 127.359 123.784 128.868 123.538 131.526C123.517 131.743 123.63 131.938 123.795 131.977L127.248 132.868C127.456 132.919 127.99 133.153 128.013 132.875C128.104 131.752 128.223 128.546 126.723 127.35C126.014 126.785 124.303 126.012 122.907 125.604C122.563 125.505 122.34 126.051 122.605 126.338Z" fill="#BB83C3"/>
<path d="M122.928 125.396C122.928 125.396 125.427 126.989 124.39 132.389" stroke="#634874" stroke-width="2" stroke-miterlimit="10" stroke-linecap="round" stroke-linejoin="round"/>
<path d="M124.716 126.012C124.716 126.012 126.786 128.148 125.79 132.644" stroke="#634874" stroke-width="2" stroke-miterlimit="10" stroke-linecap="round" stroke-linejoin="round"/>
<path d="M126.073 126.637C126.073 126.637 127.923 128.757 127.135 132.878" stroke="#634874" stroke-width="2" stroke-miterlimit="10" stroke-linecap="round" stroke-linejoin="round"/>
<path d="M123.457 133.158L127.992 134.391" stroke="#BB83C3" stroke-width="2" stroke-miterlimit="10" stroke-linecap="round" stroke-linejoin="round"/>
<path d="M131.995 143.146C131.995 143.146 131.631 140.901 131.424 140.285C131.322 139.982 131.346 139.378 131.111 138.489C130.856 137.526 130.98 136.748 130.708 135.984C130.477 135.336 129.411 136.517 129.454 137.737C129.478 138.426 129.531 139.774 129.649 140.447C129.782 141.211 127.958 140.607 127.958 140.607C127.765 140.5 126.512 140.639 126.308 140.674L125.015 140.702C124.478 140.973 124.388 141.584 124.405 142.466C124.414 142.938 125.864 142.672 126.478 142.827C126.924 142.938 127.92 142.676 127.935 142.778C127.935 142.778 124.518 144.116 124.33 144.804C123.96 146.167 124.067 147.952 124.203 148.218C124.607 149.007 124.638 149.068 124.638 149.068C124.638 149.068 124.614 150.084 125.087 150.581C125.802 151.334 128.077 151.959 128.077 151.959C128.077 151.959 130.76 150.542 131.208 149.878C131.656 149.216 132.215 148.674 132.273 146.561C132.328 144.454 131.995 143.146 131.995 143.146Z" fill="#F6874E"/>
<path d="M124.327 144.801C123.965 146.169 124.064 147.95 124.2 148.216C124.604 149.005 124.635 149.065 124.635 149.065C124.635 149.065 124.611 150.082 125.085 150.579C125.799 151.332 128.074 151.957 128.074 151.957L127.258 149.528C127.258 149.528 126.533 143.98 126.32 143.79C126.107 143.6 124.46 144.301 124.327 144.801Z" fill="#CE6D3E"/>
<path d="M118.221 123.685L118.127 116.28L115.941 119.371L113.444 113.662L113.186 120.41L109.574 120.477L112.376 123.442L111.039 125.993L114.633 126.25C114.952 126.271 112.917 124.908 112.917 124.908L113.151 123.565L112.371 121.489L114.01 121.366L114.322 118.681L115.825 120.968L117.365 119.415C117.363 119.412 118.223 123.739 118.221 123.685Z" fill="#F6BE4A"/>
<path d="M115.899 141.773L117.551 144.16C117.579 144.199 117.613 144.225 117.651 144.232C118.012 144.294 120.252 144.246 120.987 144.063C121.308 143.984 122.087 142.736 122.92 141.461C123.18 141.06 123.367 140.827 123.632 140.324C123.778 140.047 123.815 139.683 123.615 139.505C123.615 139.505 123.288 139.22 123.108 139.431C123.03 139.523 123.024 139.489 123.043 139.419C123.083 139.273 123.043 139.104 122.948 139.044C122.765 138.928 122.484 138.827 122.207 139.044C121.802 139.361 121.846 139.273 121.846 139.273C121.846 138.975 121.632 138.621 121.351 138.604C120.975 138.581 120.676 138.924 120.619 138.996C120.611 139.005 120.102 139.183 119.651 139.519C119.116 139.917 118.323 139.396 117.906 139.148C117.138 138.695 115.949 138.646 115.838 141.553C115.838 141.634 115.86 141.718 115.899 141.773Z" fill="#F6874E"/>
<path d="M131.848 106.588C131.109 113.157 129.709 114.375 129.709 114.375C123.609 117.884 118.527 113.926 118.011 108.187C117.343 102.428 116.897 99.4071 123.099 97.5298C129.261 95.6663 132.499 100.819 131.848 106.588Z" fill="#1D2436"/>
<path d="M131.159 105.32C130.529 110.887 125.238 109.28 125.238 109.28C124.169 108.843 120.486 107.681 119.792 104.591C119.2 101.956 118.425 98.991 123.686 97.3984C128.477 95.9493 131.714 100.426 131.159 105.32Z" fill="#3D4C6D"/>
<path d="M130.458 108.354C130.458 108.354 130.896 106.556 130.489 104.607C130.489 104.607 132.097 105.188 130.458 108.354Z" fill="#1D2436"/>
<path d="M121.282 99.8476C121.282 99.8476 117.641 101.361 117.235 102.468C116.828 103.577 118.646 115.889 120.14 118.549C121.637 121.216 128.271 116.818 129.463 113.899C130.439 111.512 129.963 110.697 129.722 107.565C129.472 104.301 127.635 102.938 127.272 101.815C126.658 99.9008 121.282 99.8476 121.282 99.8476Z" fill="#CE6D3E"/>
<path d="M128.977 109.227C129.244 111.364 127.904 116.243 125.147 117.56C122.38 118.885 120.142 118.547 118.998 113.956C117.825 109.246 120.807 102.817 123.551 101.535C126.285 100.26 128.042 104.422 128.977 109.227Z" fill="#F6874E"/>
<path d="M120.991 108.725C121.101 109.475 120.911 109.894 120.661 109.986C120.41 110.079 120.192 109.813 120.084 109.061C119.975 108.311 120.09 107.625 120.342 107.533C120.59 107.442 120.882 107.975 120.991 108.725Z" fill="#34273A"/>
<path d="M124.535 103.243L123.833 104.357" stroke="#34273A" stroke-miterlimit="10" stroke-linecap="round" stroke-linejoin="round"/>
<path d="M120.778 106.63L119.792 106.729" stroke="#34273A" stroke-miterlimit="10" stroke-linecap="round" stroke-linejoin="round"/>
<path d="M124.106 106.063C124.223 105.479 124.853 104.347 125.649 104.695C125.649 104.695 124.582 106.289 124.217 106.824C124.161 106.905 124.084 106.174 124.106 106.063Z" fill="#34273A"/>
<path d="M130.291 105.759C130.316 107.66 129.748 109.327 129.022 109.475C128.296 109.623 127.688 108.197 127.666 106.294C127.643 104.394 128.213 102.741 128.936 102.595C129.66 102.447 130.266 103.864 130.291 105.759Z" fill="#F6874E"/>
<path d="M124.977 97.4494C124.977 97.4494 119.141 107.345 117.147 108.558C115.147 109.776 116.15 101.283 119.081 98.2711C121.997 95.2804 124.977 97.4494 124.977 97.4494Z" fill="#1D2436"/>
<path d="M125.356 97.2712C125.356 97.2712 125.427 97.9633 124.229 99.211C122.155 101.371 118.166 104.699 117.156 105.313C115.555 106.285 116.79 100.753 119.077 98.2064C121.513 95.4957 125.356 97.2712 125.356 97.2712Z" fill="#3D4C6D"/>
<path d="M121.361 100.053C121.361 100.053 119.741 103.854 118.05 105.067C118.049 105.07 122.056 102.317 121.361 100.053Z" fill="#1D2436"/>
<path d="M126.462 99.968C126.462 99.968 126.879 104.639 127.478 105.831L128.658 107.491L127.86 100.871L126.462 99.968Z" fill="#3D4C6D"/>
</svg>
