<svg width="1254" height="868" viewBox="0 0 1254 868" fill="none" xmlns="http://www.w3.org/2000/svg">
<path d="M382.617 646.916C382.617 646.916 380.667 616.627 401.174 602.956C421.688 589.277 428.518 605.886 428.518 605.886C428.518 605.886 434.883 565.691 467.116 563.74C499.348 561.789 513.498 589.277 513.498 589.277C513.498 589.277 549.23 559.213 555.498 593.186C561.759 627.16 393.356 665.484 353.314 674.275C313.264 683.057 382.617 646.916 382.617 646.916Z" fill="#F4E8D8"/>
<path d="M420.155 790.388C467.148 791.657 547.159 775.144 639.876 728.141C719.527 687.761 733.861 660.812 733.861 660.812L647.501 695.115C647.501 695.115 712.271 653.194 721.798 624.615C731.325 596.036 586.832 709.653 507.792 747.199C456.987 771.338 420.155 790.388 420.155 790.388Z" fill="#F4E8D8"/>
<path d="M859.589 758.318C901.846 738.545 960.412 713.514 970.324 701.81C985.261 684.173 1011.31 644.765 1032.56 630.315C1094.04 588.49 1096.94 642.878 1096.94 642.878C1096.94 642.878 1104.83 622.391 1123.83 601.88C1110.77 585.423 1089.21 574.73 1063.06 574.377C1001.83 573.55 971.954 648.409 971.954 648.409C971.954 648.409 970.533 591.035 909.054 632.859C887.809 647.309 834.195 689.407 855.151 754.199C855.873 756.423 856.266 755.901 859.589 758.318Z" fill="#F4E8D8"/>
<path d="M1245.79 695.653C1285.12 640.285 1249.06 582.814 1187.83 581.995C1126.6 581.168 1096.73 656.028 1096.73 656.028C1096.73 656.028 1095.31 598.653 1033.83 640.478C1012.58 654.928 986.537 694.336 971.592 711.973C955.484 730.999 761.792 799.917 761.792 799.917C761.792 799.917 1151.84 827.918 1245.79 695.653Z" fill="#F4E8D8"/>
<path d="M704.325 372.767C702.904 366.939 692.527 361.416 690.673 360.597C688.819 359.778 684.91 361.304 682.526 365.294C677.229 374.18 628.375 388.879 618.061 394.82C607.756 400.76 603.325 441.718 630.044 432.101C682.478 413.235 693.129 407.744 704.325 399.917C718.989 389.674 708.137 388.438 704.325 372.767Z" fill="#C83F37"/>
<path d="M769.416 320.37C769.416 320.37 766.88 313.386 754.175 319.102C741.47 324.817 712.897 349.591 705.914 352.128C698.932 354.665 691.628 356.415 691.628 361.496C691.628 365.045 696.179 366.417 701.259 378.804C705.537 389.232 711.34 395.534 717.985 392.146C738.725 381.558 784.024 340.062 769.416 320.37Z" fill="#1D2436"/>
<path d="M718.932 492.181C718.932 492.181 675.431 526.162 664.957 539.504C654.483 552.846 648.761 540.46 637.332 564.278C625.903 588.096 603.357 643.039 593.831 643.994C584.304 644.949 570.017 638.278 568.115 658.283C566.213 678.288 601.455 710.681 615.742 716.404C630.028 722.12 645.269 710.689 650.037 685.915C654.796 661.141 677.663 631.398 688.137 614.251C698.611 597.104 697.447 591.805 705.601 586.515C721.774 576.007 750.186 557.727 790.38 522.678C827.525 490.278 765.604 443.588 718.932 492.181Z" fill="#273150"/>
<path d="M664.958 539.504C653.488 552.004 648.761 540.46 637.332 564.278C625.903 588.096 599.738 638.808 615.108 637.957C620.822 637.636 665.592 628.428 676.074 611.281C686.548 594.133 699.357 580.366 707.504 575.075C715.257 570.042 716.076 533.363 716.076 533.363C703.796 527.856 677.976 525.311 664.958 539.504Z" fill="#465788"/>
<path d="M889.438 515.999C889.574 523.087 863.104 533.54 824.034 518.536C784.963 503.54 802.741 456.216 841.811 471.212C880.882 486.216 889.229 504.993 889.438 515.999Z" fill="#F2A62F"/>
<path d="M878.025 508.613C875.071 534.76 828.255 526.973 781.8 521.715C735.338 516.457 706.821 515.718 709.775 489.58C712.728 463.441 752.794 446.503 799.257 451.761C845.712 457.011 880.986 482.467 878.025 508.613Z" fill="#273150"/>
<path d="M824.668 479.794C824.668 479.794 802.123 489.531 793.551 518.118C784.979 546.697 785.292 557.286 779.578 570.628C773.863 583.97 760.524 642.717 752.907 662.731C745.29 682.744 750.074 670.397 741.478 679.878C716.71 707.189 766.664 740.64 766.664 740.64C766.664 740.64 792.411 773.482 806.561 759.907C822.116 744.983 817.677 733.865 817.677 723.702C817.677 713.538 830.599 651.869 833.761 636.681C834.821 631.599 837.148 631.173 839.267 625.249C841.386 619.324 838.208 608.206 838.208 605.348C838.208 602.49 858.506 554.283 870.384 531.244C901.822 470.265 824.668 479.794 824.668 479.794Z" fill="#465788"/>
<path d="M815.775 481.704C815.775 481.704 801.168 489.644 792.596 518.223C784.024 546.802 785.292 557.286 779.578 570.62C776.447 577.933 801.802 538.862 818.311 532.512C828.641 528.538 839.219 527.158 850.696 527.431C858.12 527.607 868.265 535.266 868.265 535.266C879.213 515.485 880.946 501.637 875.465 493.449C862.286 473.773 815.775 481.704 815.775 481.704Z" fill="#273150"/>
<path d="M742.304 708.666C739.11 697.571 734.583 697.892 744.174 692.803C751.157 688.604 783.333 702.284 783.333 702.284C783.333 702.284 781.64 695.588 784.04 690.78C784.04 690.78 829.748 723.373 809.362 752.048C787.114 783.348 745.868 721.053 742.304 708.666Z" fill="#273150"/>
<path d="M606.664 755.604C614.955 750.017 635.333 730.164 633.206 715.12C631.079 700.076 620.14 686.886 611.737 686.1C603.333 685.313 601.255 673.456 585.05 657.81C568.846 642.164 544.278 632.803 529.085 644.106C516.05 653.804 511.917 676.378 531.605 696.383C541.814 706.763 547.761 716.14 554.519 725.749C578.974 760.541 598.373 761.191 606.664 755.604Z" fill="#13161F"/>
<path d="M606.664 755.604C621.151 744.229 616.785 730.397 579.504 693.228C569.295 663.766 543.218 638.856 527.222 648.883C514.461 656.878 514.782 682.286 530.329 697.652C542.44 709.621 547.576 715.987 554.511 725.749C578.758 759.859 596.094 763.905 606.664 755.604Z" fill="#EC6043"/>
<path d="M786.247 784.994C786.247 784.994 809.554 759.923 808.367 745.931C807.532 736.08 798.912 721.101 792.282 717.031C789.489 715.321 786.632 717.753 782.756 713.217C767.835 695.749 742.746 676.057 718.619 689.399C698.699 700.413 706.621 721.085 716.428 733.19C726.236 745.296 739.246 756.672 743.877 762.909C760.387 785.138 774.497 792.933 786.247 784.994Z" fill="#13161F"/>
<path d="M782.122 787.868C782.122 787.868 805.614 780.867 762.402 732.315C739.351 686.252 717.351 689.086 708.459 698.294C701.757 705.238 704.622 722.803 716.701 737.229C728.781 751.646 740.426 759.947 744.022 764.989C759.143 786.222 769.408 790.292 782.122 787.868Z" fill="#EC6043"/>
<path d="M794.819 549.025C797.355 545.212 815.775 531.878 837.999 536.325C837.999 536.325 796.721 554.749 786.56 561.099C776.399 567.449 792.274 552.838 794.819 549.025Z" fill="#273150"/>
<path d="M782.122 581.425C782.122 581.425 788.791 586.186 800.22 580.47L794.819 589.365C794.819 589.365 799.265 593.812 807.837 590.954C816.409 588.088 792.917 618.899 782.122 581.425Z" fill="#273150"/>
<path d="M850.279 524.894C861.018 531.083 858.746 549.932 853.24 567.289L871.018 529.55C871.018 529.55 839.532 518.696 850.279 524.894Z" fill="#273150"/>
<path d="M673.842 613.817C673.842 613.817 641.866 657.946 609.281 650.89L673.842 613.817Z" fill="#465788"/>
<path d="M643.047 560.465C643.047 560.465 655.11 562.367 660.824 559.196C666.539 556.017 657.646 567.457 657.646 567.457C657.646 567.457 663.995 579.523 652.565 574.441C641.136 569.36 643.047 560.465 643.047 560.465Z" fill="#273150"/>
<path d="M714.382 454.177C714.382 454.177 723.275 464.34 742.321 467.302C761.366 470.265 801.593 350.434 790.581 332.227C779.577 314.02 733.002 350.009 719.454 382.192C705.914 414.375 714.382 454.177 714.382 454.177Z" fill="#EC5E4D"/>
<path d="M868.161 482.017C868.161 482.017 873.137 492.285 879.277 494.404C880.842 495.319 893.138 494.509 901.927 490.808C910.715 487.099 914.094 482.66 927.225 482.017C940.347 481.383 957.387 483.181 966.705 475.138C976.015 467.094 963.952 465.609 959.505 465.183C957.306 464.974 948.502 471.533 944.368 471.533C932.129 471.533 906.903 478.204 895.787 483.92C888.443 487.701 870.649 478.806 868.161 482.017Z" fill="#F4E8D8"/>
<path d="M944.047 442.954C967.965 447.61 977.917 452.692 971.568 467.511C967.523 476.944 940.355 478.541 929.761 476.936C916.534 474.921 905.522 486.36 883.507 491.225C872.543 493.65 866.572 488.472 865.304 474.712C864.356 464.453 874.156 432.285 892.183 426.224C908.572 420.725 932.666 440.739 944.047 442.954Z" fill="#EC5E4D"/>
<path d="M871.339 317.825C871.339 317.825 850.383 305.438 817.043 308.296C783.703 311.154 772.779 314.221 766.664 327.988C761.583 339.42 768.461 378.804 763.702 407.383C760.476 426.754 737.666 444.223 730.049 467.086C730.049 467.086 763.766 495.809 824.459 488.889C857.904 485.076 888.595 511.544 889.446 515.991C890.465 511.56 890.546 501.798 891.348 455.967C892.279 403.032 895.337 328.045 871.339 317.825Z" fill="#F6BE4A"/>
<path d="M842.766 313.065C827.525 312.109 815.462 273.367 831.65 408.66C834.66 433.795 733.966 455.333 730.049 467.094C730.049 467.094 763.766 495.817 824.459 488.897C857.904 485.084 888.595 511.552 889.446 515.999C890.465 511.568 890.546 501.806 891.348 455.975C892.279 403.032 858 314.02 842.766 313.065Z" fill="#F2A62F"/>
<path d="M803.671 309.484C803.671 309.484 790.798 318.901 792.804 331.737C794.811 344.574 824.066 335.591 832.22 323.605C840.375 311.62 815.365 304.772 803.671 309.484Z" fill="#F6874E"/>
<path d="M788.783 314.333C791.32 316.661 776.198 350.322 745.282 378.379C722.424 399.131 718.186 423.688 724.535 439.775C731.365 457.075 735.121 460.206 739.142 465.392C743.187 470.618 714.575 458.56 712.68 455.654C706.332 445.917 695.192 390.067 728.347 355.724C740.202 343.442 740.202 326.086 750.997 319.728C761.8 313.378 786.247 312.005 788.783 314.333Z" fill="#972A27"/>
<path opacity="0.5" d="M788.784 314.333C791.32 316.661 776.199 350.322 745.282 378.379C722.424 399.131 718.187 423.688 724.535 439.775C731.365 457.075 735.121 460.206 739.143 465.392C743.188 470.618 714.575 458.56 712.681 455.654C706.332 445.916 701.966 398.537 735.121 364.194C746.976 351.911 740.202 326.086 750.997 319.736C761.8 313.378 786.247 312.005 788.784 314.333Z" fill="#972A27"/>
<path d="M713.852 456.826C713.852 456.826 713.323 460.744 715.441 462.863C717.56 464.982 728.46 469.96 737.24 470.482C737.24 470.482 742.746 466.885 736.606 465.825C730.466 464.766 713.852 456.826 713.852 456.826Z" fill="#F4E8D8"/>
<path d="M793.125 311.475C790.412 308.457 781.929 308.521 774.497 311.756C768.212 314.494 766.35 326.889 759.857 340.68C755.194 350.579 748.669 370.335 737.24 386.848C730.956 395.927 752.481 394.892 783.855 334.635C789.369 324.055 794.907 313.458 793.125 311.475Z" fill="#F4E8D8"/>
<path d="M805.614 307.983C791.64 315.923 792.595 362.925 799.265 363.881C805.935 364.836 839.275 336.883 835.776 312.752" stroke="#913636" stroke-miterlimit="10"/>
<path d="M800.82 368.556C801.286 365.878 800.612 363.524 799.315 363.299C798.018 363.073 796.589 365.06 796.123 367.738C795.657 370.415 796.33 372.769 797.627 372.995C798.924 373.221 800.354 371.233 800.82 368.556Z" fill="#29ACE4"/>
<path d="M793.125 311.475C790.413 308.457 781.929 308.521 774.497 311.756C768.213 314.494 766.35 326.889 759.857 340.68C757.353 346.003 763.911 342.808 771.953 336.883C768.806 345.232 768.774 345.144 768.774 345.144C777.884 338.2 793.623 312.029 793.125 311.475Z" fill="#F4E8D8"/>
<path d="M801.296 295.026C801.296 295.026 803.166 309.838 803.648 318.307C804.129 326.776 809.571 326.327 816.81 325.452C824.058 324.577 831.313 327.089 833.079 315.224C834.845 303.359 837.943 283.45 831.586 280.512C825.238 277.574 800.782 279.782 801.296 295.026Z" fill="#F6874E"/>
<path d="M813.873 293.694C815.503 305.181 831.145 324.36 832.927 316.244C834.709 308.128 837.582 284.317 834.035 281.789C828.617 277.911 812.236 282.206 813.873 293.694Z" fill="#CE6D3E"/>
<path d="M836.731 318.885C836.731 318.885 836.097 381.341 846.258 400.399C856.419 419.457 884.679 421.681 897.063 463.915C902.569 482.692 912.938 454.386 941.511 453.752C954.08 453.471 961.913 457.966 965.22 459.042C972.443 461.41 961.496 475.804 967.122 472.593C989.346 459.893 965.003 446.254 963.31 440.409C960.982 432.366 956.11 404.63 936.214 399.548C915.258 394.194 897.055 358.478 892.608 345.136C888.162 331.794 887.528 317.825 872.286 312.744C857.045 307.662 839.267 306.819 836.731 318.885Z" fill="#972A27"/>
<path opacity="0.5" d="M836.731 318.885C836.731 318.885 836.097 381.341 846.258 400.399C856.419 419.457 858.923 437.182 902.143 445.499C918.653 448.678 911.67 394.683 907.224 381.349C902.777 368.015 887.536 317.833 872.294 312.752C857.053 307.67 839.267 306.819 836.731 318.885Z" fill="#972A27"/>
<path d="M907.111 468.571C907.111 468.571 911.132 471.637 913.355 472.167C916.646 472.954 926.052 461.37 937.489 459.251C948.919 457.131 962.932 457.95 966.062 462.43C968.711 466.211 963.735 473.652 956.961 475.772C954.36 476.583 959.593 477.891 962.25 477.466C967.804 476.567 975.798 467.511 970.509 460.736C966.191 455.213 954.842 452.692 942.145 453.326C931.117 453.88 921.084 458.833 907.111 468.571Z" fill="#F4E8D8"/>
<path d="M862.767 311.475C864.356 307.662 845.624 303.006 836.731 306.185C827.838 309.364 825.936 355.941 839.267 381.349C848.377 398.705 845.222 365.293 849.107 338.794C850.913 326.503 861.178 315.288 862.767 311.475Z" fill="#F4E8D8"/>
<path d="M862.767 311.475C864.357 307.662 845.624 303.006 836.731 306.185C839.267 314.654 845.223 365.293 849.115 338.794C850.913 326.503 861.178 315.288 862.767 311.475Z" fill="#F4E8D8"/>
<path d="M943.413 416.278C943.413 416.278 923.091 410.562 910.394 422.628" stroke="#F4E8D8" stroke-width="4" stroke-miterlimit="10"/>
<path d="M563.669 390.236L673.208 456.931C652.156 410.602 605.051 325.564 594.409 306.458C593.55 304.909 591.279 305.045 590.62 306.691C583.252 324.946 570.026 379.438 570.026 379.438L563.669 390.236Z" fill="#624873"/>
<path d="M868.281 236.271C863.594 268.093 842.076 282.503 825.454 289.006C808.832 295.508 771.776 272.412 766.993 244.853C761.061 216.988 757.233 202.314 802.524 192.672C847.823 183.031 872.431 208.094 868.281 236.271Z" fill="#1D2436"/>
<path d="M862.655 238.792C858.674 265.821 819.643 258.356 819.643 258.356C811.746 256.3 784.602 250.906 778.991 235.982C774.2 223.226 767.98 208.816 806.449 200.628C841.651 193.13 866.178 214.861 862.655 238.792Z" fill="#3D4C6D"/>
<path d="M857.855 252.391C857.855 252.391 861.307 243.809 858.57 234.2C858.57 234.2 870.344 237.539 857.855 252.391Z" fill="#1D2436"/>
<path d="M788.695 217.944C788.695 217.944 769.328 210.807 765.323 215.319C761.318 219.83 761.535 280.456 769.256 295.372C776.977 310.287 825.382 301.625 837.55 290.916C840.383 288.428 846.435 276.233 848.112 261.173C849.115 256.541 837.566 247.847 829.05 237.74C820.535 227.633 788.695 217.944 788.695 217.944Z" fill="#CE6D3E"/>
<path d="M841.153 269.667C840.102 297.395 819.892 301.93 799.153 303.175C778.414 304.411 769.441 298.615 766.062 274.162C762.57 248.931 770.588 232.691 791.328 231.454C812.059 230.202 839.636 244.227 841.153 269.667Z" fill="#F6874E"/>
<path d="M808.744 257.087C808.985 261.085 807.203 262.947 805.205 263.068C803.206 263.188 801.754 261.518 801.513 257.521C801.272 253.523 802.701 250.191 804.699 250.071C806.698 249.95 808.503 253.089 808.744 257.087Z" fill="#34273A"/>
<path d="M778.382 258.171C778.607 261.92 776.937 263.67 775.059 263.782C773.181 263.895 771.817 262.329 771.592 258.572C771.367 254.823 772.708 251.684 774.586 251.572C776.456 251.468 778.157 254.422 778.382 258.171Z" fill="#34273A"/>
<path d="M810.438 247.703C810.438 247.703 807.235 241.931 802.019 243.496" stroke="#34273A" stroke-miterlimit="10" stroke-linecap="round" stroke-linejoin="round"/>
<path d="M776.247 245.543C776.247 245.543 770.067 245.102 768.622 249.999" stroke="#34273A" stroke-miterlimit="10" stroke-linecap="round" stroke-linejoin="round"/>
<path d="M853.772 259.497C856.093 250.617 853.831 242.335 848.719 240.998C843.607 239.661 837.581 245.775 835.259 254.655C832.938 263.534 835.2 271.816 840.312 273.153C845.424 274.49 851.45 268.376 853.772 259.497Z" fill="#F6874E"/>
<path d="M814.643 206.167C798.864 225.466 769.047 231.864 755.869 231.832C744.255 231.808 756.198 200.652 776.56 192.753C796.922 184.861 820.88 198.541 814.643 206.167Z" fill="#1D2436"/>
<path d="M813.44 200.764C818.255 204.112 816.273 213.777 808.15 218.008C794.137 225.313 765.966 230.162 760.275 230.435C749.52 230.949 759.151 210.438 773.799 201.952C790.244 192.431 808.624 197.417 813.44 200.764Z" fill="#3D4C6D"/>
<path d="M790.485 218.032C790.485 218.032 776.728 225.939 765.917 230.347C765.917 230.347 794.522 227.794 790.485 218.032Z" fill="#1D2436"/>
<path d="M831.016 229.11C831.016 229.11 828.962 251.869 831.923 258.524L838.488 268.382L839.957 235.838L831.016 229.11Z" fill="#3D4C6D"/>
<path d="M599.971 385.893L668.232 377.215C668.232 377.215 651.297 322.907 596.054 297.499C515.81 260.595 452.805 344.237 436.031 355.933C415.075 370.544 396.021 373.08 356.019 365.462C356.019 365.462 323.634 424.53 293.785 441.686C293.785 441.686 329.983 449.401 378.243 441.686C422.17 434.67 446.489 416.687 486.202 364.828C509.06 334.981 600.605 324.922 599.971 385.893Z" fill="#F5BF4E"/>
<path d="M353.266 376.902C353.266 376.902 323.634 421.36 313.473 432.165C313.473 432.165 367.408 434.308 396.663 428.352C434.129 420.733 476.474 351.462 506.524 335.615C541.453 317.191 593.494 329.642 604.321 355.941C613.214 377.536 613.952 384.207 613.952 384.207L658.721 378.066C658.721 378.066 627.179 288.612 540.819 298.775C496.419 304.001 456.995 350.86 433.503 368.641C409.994 386.423 383.741 383.252 353.266 376.902Z" fill="#F4E8D8"/>
<path d="M409.36 371.82L389.672 434.059" stroke="#F5BF4E" stroke-width="3" stroke-miterlimit="10"/>
<path d="M461.216 342.808L458.889 390.236" stroke="#F5BF4E" stroke-width="3" stroke-miterlimit="10"/>
<path d="M509.694 348.315L503.979 307.662" stroke="#F5BF4E" stroke-width="3" stroke-miterlimit="10"/>
<path d="M561.125 295.596L549.062 336.883" stroke="#F5BF4E" stroke-width="3" stroke-miterlimit="10"/>
<path d="M596.688 351.494L623.993 321.004" stroke="#F5BF4E" stroke-width="3" stroke-miterlimit="10"/>
<path d="M608.759 380.073L653.207 355.299" stroke="#F5BF4E" stroke-width="3" stroke-miterlimit="10"/>
<path d="M307.75 436.604C308.569 436.789 309.629 436.99 310.905 437.19" stroke="#F4E8D8" stroke-width="6" stroke-miterlimit="10"/>
<path d="M318.963 438.202C343.338 440.65 395.644 441.397 423.96 421.994C458.255 398.496 477.301 350.852 518.579 337.517C540.369 330.477 579.288 326.929 596.688 355.941C601.327 364.507 603.59 372.832 604.69 378.491" stroke="#F4E8D8" stroke-width="6" stroke-miterlimit="10" stroke-dasharray="8.1 8.1"/>
<path d="M605.348 382.497C605.621 384.52 605.685 385.692 605.685 385.692" stroke="#F4E8D8" stroke-width="6" stroke-miterlimit="10"/>
<path d="M664.002 375.312C664.002 375.312 625.871 287.561 550.964 293.06C481.747 298.141 445.55 366.738 414.433 374.357C387.2 381.028 353.467 370.544 353.467 370.544" stroke="#F4E8D8" stroke-width="5" stroke-miterlimit="10" stroke-dasharray="8 8"/>
<path opacity="0.5" d="M436.031 355.941C415.075 370.552 396.021 373.089 356.019 365.47C356.019 365.47 323.634 424.539 293.785 441.694C293.785 441.694 329.983 449.409 378.243 441.694C422.17 434.678 446.489 416.695 486.202 364.836C436.031 377.536 436.031 355.941 436.031 355.941Z" fill="#F5BF4E"/>
<path d="M455.076 279.717C473.206 279.717 487.903 265.215 487.903 247.325C487.903 229.436 473.206 214.933 455.076 214.933C436.947 214.933 422.25 229.436 422.25 247.325C422.25 265.215 436.947 279.717 455.076 279.717Z" fill="#29ACE4"/>
<path d="M469.572 239.185L463.095 264.063C462.436 266.592 459.041 267.066 457.725 264.81L439.329 233.445C438.005 231.189 440.068 228.46 442.604 229.118L467.477 235.597C469.034 236.006 469.981 237.612 469.572 239.185Z" fill="#F6BE4A"/>
<path opacity="0.5" d="M483.657 242.878C483.657 257.761 429.048 257.761 429.048 242.878C429.048 227.994 441.272 215.937 456.353 215.937C471.426 215.937 483.657 227.994 483.657 242.878Z" fill="#29ACE4"/>
<path d="M536.998 240.494C536.998 240.494 560.482 254.582 566.117 263.983L604.625 232.04L575.507 194.462C575.507 194.462 543.571 237.676 536.998 240.494Z" fill="#9A6EA7"/>
<path d="M575.507 194.462C579.576 200.411 573.557 235.773 573.557 235.773C573.139 238.615 570.852 240.815 567.995 241.12L536.998 240.494L575.507 194.462Z" fill="#624873"/>
<path d="M571.751 222.022L598.052 224.526" stroke="#624873" stroke-miterlimit="10"/>
<path d="M561.108 239.867L562.465 259.182" stroke="#624873" stroke-miterlimit="10"/>
<path opacity="0.5" d="M541.589 235.693L593.044 217.839L575.403 195.394C575.403 195.402 548.893 228.909 541.589 235.693Z" fill="#9A6EA7"/>
<path d="M665.937 121.177L640.237 139.825C632.292 145.589 630.518 156.716 636.289 164.663L654.933 190.368C657.116 193.371 660.062 195.498 663.312 196.662C663.352 196.678 663.376 196.702 663.417 196.718L683.915 203.855C685.36 204.361 686.772 203.028 686.363 201.551L683.554 191.58L705.473 175.677C713.419 169.913 715.193 158.787 709.422 150.839L690.777 125.134C685.007 117.179 673.883 115.413 665.937 121.177Z" fill="#F6BE4A"/>
<path d="M682.192 131.368L645.183 158.223L649.655 164.39L686.664 137.535L682.192 131.368Z" fill="#F4E8D8"/>
<path d="M688.903 140.626L651.894 167.481L656.366 173.647L693.375 146.792L688.903 140.626Z" fill="#F4E8D8"/>
<path d="M695.614 149.883L658.605 176.738L663.078 182.904L700.087 156.049L695.614 149.883Z" fill="#F4E8D8"/>
<path opacity="0.5" d="M666.193 126.114L642.597 143.237C635.301 148.535 711.412 160.641 706.115 153.344L688.995 129.742C683.698 122.437 673.489 120.815 666.193 126.114Z" fill="#F6BE4A"/>
<path d="M947.642 113.751L848.128 93.6335C847.469 93.497 846.723 94.2757 846.458 95.3514L832.204 153.657C831.939 154.733 832.244 155.76 832.886 155.953L930.025 184.612C930.852 184.861 931.775 184.058 932.08 182.83L948.63 116.304C948.935 115.06 948.493 113.92 947.642 113.751Z" fill="#F6BE4A"/>
<path d="M948.774 108.983L849.259 88.865C848.601 88.7285 847.863 89.5072 847.598 90.5829L833.344 148.889C833.079 149.964 833.384 150.992 834.026 151.185L931.165 179.844C931.992 180.093 932.915 179.29 933.22 178.062L949.769 111.535C950.066 110.291 949.625 109.151 948.774 108.983Z" fill="#465788"/>
<path d="M884.333 112.563L903.09 133.531C903.676 134.182 903.347 135.498 902.528 135.803L876.195 145.597C875.472 145.862 874.886 145.067 875.119 144.136L882.696 113.358C882.929 112.426 883.819 111.993 884.333 112.563Z" fill="#EC5E4D"/>
<path opacity="0.5" d="M945.781 110.114L858.835 92.5417C858.265 92.4293 857.615 93.0956 857.382 94.0429L930.387 172.025C931.109 172.241 931.92 171.543 932.185 170.467L946.639 112.338C946.912 111.262 946.527 110.259 945.781 110.114Z" fill="#465788"/>
<path d="M1000.54 167.794C999.7 171.214 995.614 173.1 991.505 172.041C987.468 170.997 984.9 167.497 985.702 164.19C986.505 160.882 990.406 158.931 994.491 159.855C998.648 160.802 1001.39 164.366 1000.54 167.794Z" fill="#F6BE4A"/>
<path d="M1027.61 174.28C1026.66 177.941 1022.38 179.996 1018.13 178.896C1013.95 177.821 1011.36 174.112 1012.25 170.58C1013.14 167.039 1017.23 164.92 1021.45 165.867C1025.76 166.831 1028.55 170.612 1027.61 174.28Z" fill="#F6BE4A"/>
<path d="M997.613 167.609L1007.32 132.584L1033.56 136.63L1024.86 172.089" stroke="#F6BE4A" stroke-width="8" stroke-miterlimit="10" stroke-linecap="round" stroke-linejoin="round"/>
<path d="M1062.61 145.517C1064.08 148.287 1062.16 152.148 1058.38 154.115C1054.67 156.041 1050.55 155.407 1049.11 152.742C1047.66 150.069 1049.42 146.28 1053.09 144.257C1056.84 142.185 1061.12 142.739 1062.61 145.517Z" fill="#F6BE4A"/>
<path d="M1077.26 127.294C1078.3 121.056 1067.35 111.616 1067.35 111.616L1059.42 147.701" stroke="#F6BE4A" stroke-width="8" stroke-miterlimit="10" stroke-linecap="round" stroke-linejoin="round"/>
<path d="M738.749 132.825C735.522 146.986 743.797 160.12 756.743 163.25C769.44 166.325 783.558 159.012 788.928 145.942C794.819 131.589 788.221 115.509 773.333 111.262C758.092 106.919 742.312 117.211 738.749 132.825Z" fill="#EC5E4D"/>
<path d="M751.807 125.351C760.058 117.388 766.03 129.148 766.76 130.69C768.269 129.758 779.987 122.919 782.122 133.532C785.26 149.121 761.792 154.637 759.087 155.223L759.055 155.335C759.055 155.335 759.023 155.303 758.959 155.255C758.878 155.271 758.83 155.279 758.83 155.279L758.862 155.166C756.88 153.408 739.431 137.289 751.807 125.351Z" fill="#F4E8D8"/>
<path d="M780.011 455.116C783.318 451.102 778.502 448.839 763.935 449.047C757.988 449.136 752.49 450.573 744.704 448.879C739.64 447.779 733.645 448.814 735.996 453.615C737.971 457.629 739.913 461.956 749.079 461.683C751.559 461.611 760.195 461.972 764.994 462.398C769.561 462.807 777.852 457.741 780.011 455.116Z" fill="#F6874E"/>
<path d="M563.669 390.236L639.876 528.699L661.787 523.617L766.888 519.17L746.566 462.959C750.684 461.932 753.059 457.621 751.727 453.591L725.482 378.515C723.716 373.153 718.387 369.805 712.785 370.544L563.669 390.236Z" fill="#9A6EA7"/>
<path d="M652.26 471.918C652.26 471.918 642.003 461.089 636.016 465.93C630.028 470.779 632.596 480.187 638.014 485.887C643.432 491.587 652.806 496.459 658.818 490.447C665.937 483.318 652.26 471.918 652.26 471.918Z" fill="#F4E8D8"/>
<path d="M659.877 418.397C655.15 423.744 646.088 460.519 642.412 467.937C636.377 480.107 647.172 489.218 655.43 483.816C662.935 478.911 698.932 471.429 705.601 464.758C708.346 462.012 717.985 452.692 702.744 432.366C687.077 411.485 667.181 410.137 659.877 418.397Z" fill="#F5BF4E"/>
<path d="M703.221 460.185C709.753 453.652 706.064 439.369 694.981 428.284C683.898 417.198 669.618 413.508 663.086 420.041C656.554 426.575 660.244 440.858 671.327 451.943C682.41 463.028 696.69 466.719 703.221 460.185Z" fill="#F4E8D8"/>
<path d="M678.778 455.729C682.48 452.026 683.296 446.839 680.6 444.143C677.904 441.447 672.719 442.263 669.017 445.965C665.315 449.668 664.5 454.855 667.195 457.551C669.891 460.247 675.077 459.431 678.778 455.729Z" fill="#465788"/>
<path opacity="0.5" d="M585.468 387.755C585.468 387.755 738.195 448.622 742.586 450.235C742.586 450.235 746.976 451.849 742.586 450.235C746.117 449.352 748.164 445.652 747.024 442.192L724.471 377.696C722.954 373.089 718.371 370.215 713.563 370.849L585.468 387.755Z" fill="#9A6EA7"/>
<path d="M859.172 418.18C855.576 407.592 858.747 375.569 858.747 347.464C858.747 330.951 870.087 316.388 879.911 318.243C895.578 321.205 898.965 336.024 901.927 355.082C906.1 381.935 907.681 422.219 898.01 442.946C889.117 462.012 862.768 428.769 859.172 418.18Z" fill="#1D2436"/>
<path d="M859.172 418.18C855.576 407.592 858.747 375.569 858.747 347.464C858.747 330.951 870.087 316.388 879.911 318.243C895.578 321.205 873.137 343.225 876.099 362.283C880.272 389.136 891.268 401.691 881.605 422.411C872.712 441.477 862.768 428.769 859.172 418.18Z" fill="#1D2436"/>
<path d="M879.069 416.487C872.295 411.405 861.355 408.981 856.21 412.256C851.114 415.499 849.942 418.253 849.942 418.253C849.942 418.253 840.367 418.614 833.087 424.948C825.872 431.226 785.83 435.537 780.693 446.454C775.477 457.541 770.95 480.877 794.217 485.517C820.302 490.727 824.925 478.726 835.046 476.189C845.472 473.58 886.268 457.187 894.527 445.491C899.599 438.298 890.618 425.157 879.069 416.487Z" fill="#C83F37"/>
<path d="M879.069 416.487C876.003 414.191 888.692 435.898 867.214 451.207C862.374 454.659 850.841 455.783 844.356 458.825C815.968 472.151 783.848 483.438 794.217 485.509C820.302 490.72 824.925 478.718 835.046 476.181C845.472 473.572 886.268 457.179 894.527 445.483C899.599 438.298 890.618 425.157 879.069 416.487Z" fill="#972A27"/>
<path d="M781.271 447.193C788.888 440.843 797.147 441.477 803.712 455.871C803.712 455.871 805.614 447.402 809.852 456.296C814.868 466.837 810.149 485.55 797.155 485.726C781.48 485.935 776.881 450.846 781.271 447.193Z" fill="#972A27"/>
<path d="M792.596 486.738C784.329 488.119 776.102 479.794 774.104 468.659C772.186 458.014 776.632 448.301 784.136 446.503C791.841 444.656 800.325 451.705 803.006 462.743C805.807 474.327 801.103 485.317 792.596 486.738Z" fill="#F4E8D8"/>
<path d="M788.864 483.222C784.024 483.856 778.599 477 776.721 468.25C774.915 459.845 777.018 452.531 781.44 451.6C785.959 450.653 791.432 456.65 793.656 465.344C795.967 474.407 793.816 482.579 788.864 483.222Z" fill="#972A27"/>
<path d="M790.694 482.652L776.616 490.591C776.616 490.591 764.127 500.329 756.928 499.903C749.729 499.478 737.569 499.831 733.958 498.53C725.755 495.568 732.689 492.606 732.689 492.606C732.689 492.606 728.299 494.244 723.692 492.975C720.426 492.076 717.536 486.561 723.371 485.831L727.866 485.14C727.866 485.14 714.904 486.834 714.262 481.014C713.804 476.807 717.649 475.932 725.691 476.358C733.733 476.783 750.668 469.952 753.629 469.109C756.591 468.266 762.241 460.631 769.184 453.968C784.449 439.358 801.007 472.328 790.694 482.652Z" fill="#F6874E"/>
<path d="M766.56 466.612C766.56 466.612 768.943 459.78 766.238 458.512C763.542 457.244 755.179 464.549 750.098 465.817C745.018 467.086 722.898 466.138 718.451 467.086C714.005 468.033 714.326 472.167 718.451 473.436C722.577 474.704 730.362 475.499 739.407 474.544C752.161 473.211 750.62 472.769 766.56 466.612Z" fill="#F6874E"/>
<path d="M849.934 418.253C849.934 418.253 862.446 418.815 868.803 423.583C875.151 428.344 864.854 410 849.934 418.253Z" fill="#972A27"/>
<path d="M849.428 419.77C849.428 419.77 864.349 426.754 868.161 441.999C868.161 441.999 871.973 430.246 864.349 425.165C856.732 420.091 850.062 417.867 849.428 419.77Z" fill="#972A27"/>
<path d="M624.635 202.225C624.635 202.225 689.405 232.715 689.405 329.257" stroke="#F6BE4A" stroke-width="7" stroke-miterlimit="10" stroke-linecap="round" stroke-linejoin="round"/>
<path d="M609.394 211.12C609.394 211.12 638.608 221.283 644.957 242.878" stroke="#29ACE4" stroke-width="7" stroke-miterlimit="10" stroke-linecap="round" stroke-linejoin="round"/>
<path d="M653.208 262.562C655.836 262.562 657.967 260.431 657.967 257.802C657.967 255.173 655.836 253.041 653.208 253.041C650.579 253.041 648.448 255.173 648.448 257.802C648.448 260.431 650.579 262.562 653.208 262.562Z" fill="#29ACE4"/>
<path d="M768.943 428.488C768.943 428.488 862.454 339.107 954.208 369.275" stroke="#29ACE4" stroke-width="7" stroke-miterlimit="10" stroke-linecap="round" stroke-linejoin="round"/>
<path d="M1015.96 423.222C1015.96 423.222 951.511 353.525 875.489 390.653" stroke="#F6BE4A" stroke-width="7" stroke-miterlimit="10" stroke-linecap="round" stroke-linejoin="round"/>
<path d="M975.164 378.804C977.793 378.804 979.924 376.673 979.924 374.044C979.924 371.415 977.793 369.283 975.164 369.283C972.536 369.283 970.405 371.415 970.405 374.044C970.405 376.673 972.536 378.804 975.164 378.804Z" fill="#29ACE4"/>
<path d="M972.396 207.965C953.454 198.396 930.347 205.99 920.78 224.936C916.358 233.686 915.612 243.327 917.939 252.118C917.947 252.142 917.947 252.158 917.947 252.182C917.963 252.246 917.979 252.311 917.995 252.367C918.019 252.447 918.036 252.519 918.06 252.6C922.554 269.185 931.335 293.878 935.203 294.432C941.054 295.267 967.307 281.484 975.711 274.684C981.345 271.096 986.128 266.006 989.363 259.608C998.93 240.654 991.337 217.542 972.396 207.965Z" fill="#EC5E4D"/>
<path d="M955.067 271.553C971.237 271.553 984.346 258.442 984.346 242.268C984.346 226.094 971.237 212.983 955.067 212.983C938.897 212.983 925.788 226.094 925.788 242.268C925.788 258.442 938.897 271.553 955.067 271.553Z" fill="#F4E8D8"/>
<path opacity="0.5" d="M920.772 224.936C916.349 233.686 915.603 243.327 917.93 252.118C917.939 252.142 917.939 252.158 917.939 252.182C917.955 252.246 917.971 252.311 917.987 252.367C918.011 252.447 918.027 252.519 918.051 252.6C922.545 269.185 931.326 293.878 935.194 294.432C938.63 294.922 993.528 263.228 971.938 225.755C950.348 188.281 924.728 217.109 920.772 224.936Z" fill="#EC5E4D"/>
<path d="M995.486 469.631C995.486 469.631 1038.03 450.26 1061.53 421.36C1061.53 421.36 1128.85 421.36 1142.18 421.994C1142.18 421.994 1119.95 483.607 1078.68 515.999C1078.68 515.999 1029.15 526.162 995.486 469.631Z" fill="#F6BE4A"/>
<path d="M1071.19 429.492C1071.19 429.492 1057.97 441.469 1046.87 451.159C1036.56 460.158 1019.97 472.055 1013.27 476.366C1013.27 476.366 1027.36 489.122 1038.67 491.017C1058.68 494.372 1072.33 483.607 1072.33 483.607L1063.23 458.673L1083.12 448.06L1071.19 429.492Z" fill="#9A6EA7"/>
<path d="M1098.14 453.222L1099.67 449.963C1100.85 447.458 1104.24 445.636 1107.69 445.893C1111.71 446.19 1114.37 449.136 1112.93 452.483L1111.06 456.859C1109.56 460.359 1104.87 461.772 1101.22 460.206C1098.12 458.89 1096.93 455.815 1098.14 453.222Z" fill="#9A6EA7"/>
<path opacity="0.5" d="M995.486 469.631C995.486 469.631 1038.03 450.26 1061.53 421.36C1061.53 421.36 1115.19 421.994 1128.53 422.628C1128.53 422.628 1040.89 505.523 995.486 469.631Z" fill="#F6BE4A"/>
<path d="M582.301 128.749L557.917 121.544L550.714 145.933L575.098 153.138L582.301 128.749Z" fill="#F4E8D8"/>
<path d="M736.432 231.481L711.029 206.073L685.627 231.481L711.029 256.889L736.432 231.481Z" stroke="#F4E8D8" stroke-width="3" stroke-miterlimit="10"/>
<path d="M999.381 557.422L981.618 518.595L942.799 536.363L960.563 575.19L999.381 557.422Z" fill="#F4E8D8"/>
<path d="M966.835 537.25L951.76 504.3L918.816 519.378L933.891 552.329L966.835 537.25Z" fill="#F4E8D8"/>
<path d="M562.558 439.107L545.505 405.964L512.369 423.02L529.422 456.164L562.558 439.107Z" stroke="#F4E8D8" stroke-width="3" stroke-miterlimit="10"/>
<path d="M1118.92 231.28L1096.19 187.101L1052.02 209.836L1074.75 254.015L1118.92 231.28Z" stroke="#F4E8D8" stroke-width="3" stroke-miterlimit="10"/>
<path d="M1139.16 242.238L1122.11 209.095L1088.98 226.151L1106.03 259.294L1139.16 242.238Z" fill="#F4E8D8"/>
<path d="M529.046 434.422L516.312 409.674L491.569 422.41L504.303 447.158L529.046 434.422Z" fill="#F4E8D8"/>
<path d="M1077.37 293.413L1064.86 339.131L1014.65 336.715C1005.57 361.705 1025.19 382.569 1053.92 382.609C1083.15 382.642 1106.58 364.314 1113.19 338.569C1119.45 314.181 1104.14 292.73 1077.37 293.413Z" fill="#C83F37"/>
<path d="M1073.26 290.137L1061.44 333.367L1013.95 331.087C1005.37 354.721 1019.85 372.366 1046.9 374.879C1075.51 377.528 1102.63 354.207 1108.89 329.867C1114.81 306.803 1098.57 289.495 1073.26 290.137Z" fill="#29ABE3"/>
<path opacity="0.5" d="M1050.95 332.869L1013.95 331.095C1005.37 354.729 1019.85 372.374 1046.9 374.887C1065.34 376.597 1083.18 367.501 1095.19 354.303C1067.88 353.822 1050.95 332.869 1050.95 332.869Z" fill="#29ACE4"/>
<path d="M1006.56 327.435L1004.97 321.398L1068.67 277.646C1068.67 277.646 1069.57 280.986 1070.26 283.683L1057.72 328.623L1006.56 327.435Z" fill="#EC5E4D"/>
<path d="M1004.97 321.406C1013.85 297.452 1042 278.386 1068.67 277.655L1055.92 323.791L1004.97 321.406Z" fill="#F6BE4A"/>
<path opacity="0.5" d="M1004.97 321.406C1009.47 309.268 1018.91 298.382 1030.62 290.507C1028.51 312.117 1046.73 323.364 1046.73 323.364L1004.97 321.406Z" fill="#F6BE4A"/>
</svg>
