<svg width="1254" height="868" fill="none" xmlns="http://www.w3.org/2000/svg"><path d="M382.617 646.916s-1.95-30.289 18.557-43.96c20.514-13.679 27.344 2.93 27.344 2.93s6.365-40.195 38.598-42.146c32.232-1.951 46.382 25.537 46.382 25.537s35.732-30.064 42 3.909c6.261 33.974-162.142 72.298-202.184 81.089-40.05 8.782 29.303-27.359 29.303-27.359zm37.538 143.472c46.993 1.269 127.004-15.244 219.721-62.247 79.651-40.38 93.985-67.329 93.985-67.329l-86.36 34.303s64.77-41.921 74.297-70.5c9.527-28.579-134.966 85.038-214.006 122.584-50.805 24.139-87.637 43.189-87.637 43.189zm439.434-32.07c42.257-19.773 100.823-44.804 110.735-56.508 14.937-17.637 40.986-57.045 62.236-71.495 61.48-41.825 64.38 12.563 64.38 12.563s7.89-20.487 26.89-40.998c-13.06-16.457-34.62-27.15-60.77-27.503-61.23-.827-91.106 74.032-91.106 74.032s-1.421-57.374-62.9-15.55c-21.245 14.45-74.859 56.548-53.903 121.34.722 2.224 1.115 1.702 4.438 4.119z" fill="#F4E8D8"/><path d="M1245.79 695.653c39.33-55.368 3.27-112.839-57.96-113.658-61.23-.827-91.1 74.033-91.1 74.033s-1.42-57.375-62.9-15.55c-21.25 14.45-47.293 53.858-62.238 71.495-16.108 19.026-209.8 87.944-209.8 87.944s390.048 28.001 483.998-104.264z" fill="#F4E8D8"/><path d="M704.325 372.767c-1.421-5.828-11.798-11.351-13.652-12.17-1.854-.819-5.763.707-8.147 4.697-5.297 8.886-54.151 23.585-64.465 29.526-10.305 5.94-14.736 46.898 11.983 37.281 52.434-18.866 63.085-24.357 74.281-32.184 14.664-10.243 3.812-11.479 0-27.15z" fill="#C83F37"/><path d="M769.416 320.37s-2.536-6.984-15.241-1.268c-12.705 5.715-41.278 30.489-48.261 33.026-6.982 2.537-14.286 4.287-14.286 9.368 0 3.549 4.551 4.921 9.631 17.308 4.278 10.428 10.081 16.73 16.726 13.342 20.74-10.588 66.039-52.084 51.431-71.776z" fill="#1D2436"/><path d="M718.932 492.181s-43.501 33.981-53.975 47.323c-10.474 13.342-16.196.956-27.625 24.774-11.429 23.818-33.975 78.761-43.501 79.716-9.527.955-23.814-5.716-25.716 14.289-1.902 20.005 33.34 52.398 47.627 58.121 14.286 5.716 29.527-5.715 34.295-30.489 4.759-24.774 27.626-54.517 38.1-71.664s9.31-22.446 17.464-27.736c16.173-10.508 44.585-28.788 84.779-63.837 37.145-32.4-24.776-79.09-71.448-30.497z" fill="#273150"/><path d="M664.958 539.504c-11.47 12.5-16.197.956-27.626 24.774-11.429 23.818-37.594 74.53-22.224 73.679 5.714-.321 50.484-9.529 60.966-26.676 10.474-17.148 23.283-30.915 31.43-36.206 7.753-5.033 8.572-41.712 8.572-41.712-12.28-5.507-38.1-8.052-51.118 6.141z" fill="#465788"/><path d="M889.438 515.999c.136 7.088-26.334 17.541-65.404 2.537-39.071-14.996-21.293-62.32 17.777-47.324 39.071 15.004 47.418 33.781 47.627 44.787z" fill="#F2A62F"/><path d="M878.025 508.613c-2.954 26.147-49.77 18.36-96.225 13.102-46.462-5.258-74.979-5.997-72.025-32.135 2.953-26.139 43.019-43.077 89.482-37.819 46.455 5.25 81.729 30.706 78.768 56.852z" fill="#273150"/><path d="M824.668 479.794s-22.545 9.737-31.117 38.324c-8.572 28.579-8.259 39.168-13.973 52.51-5.715 13.342-19.054 72.089-26.671 92.103-7.617 20.013-2.833 7.666-11.429 17.147-24.768 27.311 25.186 60.762 25.186 60.762s25.747 32.842 39.897 19.267c15.555-14.924 11.116-26.042 11.116-36.205 0-10.164 12.922-71.833 16.084-87.021 1.06-5.082 3.387-5.508 5.506-11.432 2.119-5.925-1.059-17.043-1.059-19.901 0-2.858 20.298-51.065 32.176-74.104 31.438-60.979-45.716-51.45-45.716-51.45z" fill="#465788"/><path d="M815.775 481.704s-14.607 7.94-23.179 36.519c-8.572 28.579-7.304 39.063-13.018 52.397-3.131 7.313 22.224-31.758 38.733-38.108 10.33-3.974 20.908-5.354 32.385-5.081 7.424.176 17.569 7.835 17.569 7.835 10.948-19.781 12.681-33.629 7.2-41.817-13.179-19.676-59.69-11.745-59.69-11.745zm-73.471 226.962c-3.194-11.095-7.721-10.774 1.87-15.863 6.983-4.199 39.159 9.481 39.159 9.481s-1.693-6.696.707-11.504c0 0 45.708 32.593 25.322 61.268-22.248 31.3-63.494-30.995-67.058-43.382z" fill="#273150"/><path d="M606.664 755.604c8.291-5.587 28.669-25.44 26.542-40.484-2.127-15.044-13.066-28.234-21.469-29.02-8.404-.787-10.482-12.644-26.687-28.29-16.204-15.646-40.772-25.007-55.965-13.704-13.035 9.698-17.168 32.272 2.52 52.277 10.209 10.38 16.156 19.757 22.914 29.366 24.455 34.792 43.854 35.442 52.145 29.855z" fill="#13161F"/><path d="M606.664 755.604c14.487-11.375 10.121-25.207-27.16-62.376-10.209-29.462-36.286-54.372-52.282-44.345-12.761 7.995-12.44 33.403 3.107 48.769 12.111 11.969 17.247 18.335 24.182 28.097 24.247 34.11 41.583 38.156 52.153 29.855z" fill="#EC6043"/><path d="M786.247 784.994s23.307-25.071 22.12-39.063c-.835-9.851-9.455-24.83-16.085-28.9-2.793-1.71-5.65.722-9.526-3.814-14.921-17.468-40.01-37.16-64.137-23.818-19.92 11.014-11.998 31.686-2.191 43.791 9.808 12.106 22.818 23.482 27.449 29.719 16.51 22.229 30.62 30.024 42.37 22.085z" fill="#13161F"/><path d="M782.122 787.868s23.492-7.001-19.72-55.553c-23.051-46.063-45.051-43.229-53.943-34.021-6.702 6.944-3.837 24.509 8.242 38.935 12.08 14.417 23.725 22.718 27.321 27.76 15.121 21.233 25.386 25.303 38.1 22.879z" fill="#EC6043"/><path d="M794.819 549.025c2.536-3.813 20.956-17.147 43.18-12.7 0 0-41.278 18.424-51.439 24.774-10.161 6.35 5.714-8.261 8.259-12.074zm-12.697 32.4s6.669 4.761 18.098-.955l-5.401 8.895s4.446 4.447 13.018 1.589c8.572-2.866-14.92 27.945-25.715-9.529zm68.157-56.531c10.739 6.189 8.467 25.038 2.961 42.395l17.778-37.739s-31.486-10.854-20.739-4.656z" fill="#273150"/><path d="M673.842 613.817s-31.976 44.129-64.561 37.073l64.561-37.073z" fill="#465788"/><path d="M643.047 560.465s12.063 1.902 17.777-1.269c5.715-3.179-3.178 8.261-3.178 8.261s6.349 12.066-5.081 6.984c-11.429-5.081-9.518-13.976-9.518-13.976z" fill="#273150"/><path d="M714.382 454.177s8.893 10.163 27.939 13.125c19.045 2.963 59.272-116.868 48.26-135.075-11.004-18.207-57.579 17.782-71.127 49.965-13.54 32.183-5.072 71.985-5.072 71.985z" fill="#EC5E4D"/><path d="M868.161 482.017s4.976 10.268 11.116 12.387c1.565.915 13.861.105 22.65-3.596 8.788-3.709 12.167-8.148 25.298-8.791 13.122-.634 30.162 1.164 39.48-6.879 9.31-8.044-2.753-9.529-7.2-9.955-2.199-.209-11.003 6.35-15.137 6.35-12.239 0-37.465 6.671-48.581 12.387-7.344 3.781-25.138-5.114-27.626-1.903z" fill="#F4E8D8"/><path d="M944.047 442.954c23.918 4.656 33.87 9.738 27.521 24.557-4.045 9.433-31.213 11.03-41.807 9.425-13.227-2.015-24.239 9.424-46.254 14.289-10.964 2.425-16.935-2.753-18.203-16.513-.948-10.259 8.852-42.427 26.879-48.488 16.389-5.499 40.483 14.515 51.864 16.73z" fill="#EC5E4D"/><path d="M871.339 317.825s-20.956-12.387-54.296-9.529c-33.34 2.858-44.264 5.925-50.379 19.692-5.081 11.432 1.797 50.816-2.962 79.395-3.226 19.371-26.036 36.84-33.653 59.703 0 0 33.717 28.723 94.41 21.803 33.445-3.813 64.136 22.655 64.987 27.102 1.019-4.431 1.1-14.193 1.902-60.024.931-52.935 3.989-127.922-20.009-138.142z" fill="#F6BE4A"/><path d="M842.766 313.065c-15.241-.956-27.304-39.698-11.116 95.595 3.01 25.135-97.684 46.673-101.601 58.434 0 0 33.717 28.723 94.41 21.803 33.445-3.813 64.136 22.655 64.987 27.102 1.019-4.431 1.1-14.193 1.902-60.024.931-52.943-33.348-141.955-48.582-142.91z" fill="#F2A62F"/><path d="M803.671 309.484s-12.873 9.417-10.867 22.253c2.007 12.837 31.262 3.854 39.416-8.132 8.155-11.985-16.855-18.833-28.549-14.121z" fill="#F6874E"/><path d="M788.783 314.333c2.537 2.328-12.585 35.989-43.501 64.046-22.858 20.752-27.096 45.309-20.747 61.396 6.83 17.3 10.586 20.431 14.607 25.617 4.045 5.226-24.567-6.832-26.462-9.738-6.348-9.737-17.488-65.587 15.667-99.93 11.855-12.282 11.855-29.638 22.65-35.996 10.803-6.35 35.25-7.723 37.786-5.395z" fill="#972A27"/><path opacity=".5" d="M788.784 314.333c2.536 2.328-12.585 35.989-43.502 64.046-22.858 20.752-27.095 45.309-20.747 61.396 6.83 17.3 10.586 20.431 14.608 25.617 4.045 5.226-24.568-6.832-26.462-9.738-6.349-9.738-10.715-57.117 22.44-91.46 11.855-12.283 5.081-38.108 15.876-44.458 10.803-6.358 35.25-7.731 37.787-5.403z" fill="#972A27"/><path d="M713.852 456.826s-.529 3.918 1.589 6.037c2.119 2.119 13.019 7.097 21.799 7.619 0 0 5.506-3.597-.634-4.657-6.14-1.059-22.754-8.999-22.754-8.999zm79.273-145.351c-2.713-3.018-11.196-2.954-18.628.281-6.285 2.738-8.147 15.133-14.64 28.924-4.663 9.899-11.188 29.655-22.617 46.168-6.284 9.079 15.241 8.044 46.615-52.213 5.514-10.58 11.052-21.177 9.27-23.16z" fill="#F4E8D8"/><path d="M805.614 307.983c-13.974 7.94-13.019 54.942-6.349 55.898 6.67.955 40.01-26.998 36.511-51.129" stroke="#913636" stroke-miterlimit="10"/><path d="M800.82 368.556c.466-2.678-.208-5.032-1.505-5.257-1.297-.226-2.726 1.761-3.192 4.439-.466 2.677.207 5.031 1.504 5.257 1.297.226 2.727-1.762 3.193-4.439z" fill="#29ACE4"/><path d="M793.125 311.475c-2.712-3.018-11.196-2.954-18.628.281-6.284 2.738-8.147 15.133-14.64 28.924-2.504 5.323 4.054 2.128 12.096-3.797-3.147 8.349-3.179 8.261-3.179 8.261 9.11-6.944 24.849-33.115 24.351-33.669z" fill="#F4E8D8"/><path d="M801.296 295.026s1.87 14.812 2.352 23.281c.481 8.469 5.923 8.02 13.162 7.145 7.248-.875 14.503 1.637 16.269-10.228 1.766-11.865 4.864-31.774-1.493-34.712-6.348-2.938-30.804-.73-30.29 14.514z" fill="#F6874E"/><path d="M813.873 293.694c1.63 11.487 17.272 30.666 19.054 22.55s4.655-31.927 1.108-34.455c-5.418-3.878-21.799.417-20.162 11.905z" fill="#CE6D3E"/><path d="M836.731 318.885s-.634 62.456 9.527 81.514c10.161 19.058 38.421 21.282 50.805 63.516 5.506 18.777 15.875-9.529 44.448-10.163 12.569-.281 20.402 4.214 23.709 5.29 7.223 2.368-3.724 16.762 1.902 13.551 22.224-12.7-2.119-26.339-3.812-32.184-2.328-8.043-7.2-35.779-27.096-40.861-20.956-5.354-39.159-41.07-43.606-54.412-4.446-13.342-5.08-27.311-20.322-32.392-15.241-5.082-33.019-5.925-35.555 6.141z" fill="#972A27"/><path opacity=".5" d="M836.731 318.885s-.634 62.456 9.527 81.514c10.161 19.058 12.665 36.783 55.885 45.1 16.51 3.179 9.527-50.816 5.081-64.15-4.447-13.334-19.688-63.516-34.93-68.597-15.241-5.082-33.027-5.933-35.563 6.133z" fill="#972A27"/><path d="M907.111 468.571s4.021 3.066 6.244 3.596c3.291.787 12.697-10.797 24.134-12.916 11.43-2.12 25.443-1.301 28.573 3.179 2.649 3.781-2.327 11.222-9.101 13.342-2.601.811 2.632 2.119 5.289 1.694 5.554-.899 13.548-9.955 8.259-16.73-4.318-5.523-15.667-8.044-28.364-7.41-11.028.554-21.061 5.507-35.034 15.245zm-44.344-157.096c1.589-3.813-17.143-8.469-26.036-5.29-8.893 3.179-10.795 49.756 2.536 75.164 9.11 17.356 5.955-16.056 9.84-42.555 1.806-12.291 12.071-23.506 13.66-27.319z" fill="#F4E8D8"/><path d="M862.767 311.475c1.59-3.813-17.143-8.469-26.036-5.29 2.536 8.469 8.492 59.108 12.384 32.609 1.798-12.291 12.063-23.506 13.652-27.319z" fill="#F4E8D8"/><path d="M943.413 416.278s-20.322-5.716-33.019 6.35" stroke="#F4E8D8" stroke-width="4" stroke-miterlimit="10"/><path d="M563.669 390.236l109.539 66.695c-21.052-46.329-68.157-131.367-78.799-150.473-.859-1.549-3.13-1.413-3.789.233-7.368 18.255-20.594 72.747-20.594 72.747l-6.357 10.798z" fill="#624873"/><path d="M868.281 236.271c-4.687 31.822-26.205 46.232-42.827 52.735-16.622 6.502-53.678-16.594-58.461-44.153-5.932-27.865-9.76-42.539 35.531-52.181 45.299-9.641 69.907 15.422 65.757 43.599z" fill="#1D2436"/><path d="M862.655 238.792c-3.981 27.029-43.012 19.564-43.012 19.564-7.897-2.056-35.041-7.45-40.652-22.374-4.791-12.756-11.011-27.166 27.458-35.354 35.202-7.498 59.729 14.233 56.206 38.164z" fill="#3D4C6D"/><path d="M857.855 252.391s3.452-8.582.715-18.191c0 0 11.774 3.339-.715 18.191z" fill="#1D2436"/><path d="M788.695 217.944s-19.367-7.137-23.372-2.625c-4.005 4.511-3.788 65.137 3.933 80.053 7.721 14.915 56.126 6.253 68.294-4.456 2.833-2.488 8.885-14.683 10.562-29.743 1.003-4.632-10.546-13.326-19.062-23.433-8.515-10.107-40.355-19.796-40.355-19.796z" fill="#CE6D3E"/><path d="M841.153 269.667c-1.051 27.728-21.261 32.263-42 33.508-20.739 1.236-29.712-4.56-33.091-29.013-3.492-25.231 4.526-41.471 25.266-42.708 20.731-1.252 48.308 12.773 49.825 38.213z" fill="#F6874E"/><path d="M808.744 257.087c.241 3.998-1.541 5.86-3.539 5.981-1.999.12-3.451-1.55-3.692-5.547-.241-3.998 1.188-7.33 3.186-7.45 1.999-.121 3.804 3.018 4.045 7.016zm-30.362 1.084c.225 3.749-1.445 5.499-3.323 5.611-1.878.113-3.242-1.453-3.467-5.21-.225-3.749 1.116-6.888 2.994-7 1.87-.104 3.571 2.85 3.796 6.599z" fill="#34273A"/><path d="M810.438 247.703s-3.203-5.772-8.419-4.207m-25.772 2.047s-6.18-.441-7.625 4.456" stroke="#34273A" stroke-miterlimit="10" stroke-linecap="round" stroke-linejoin="round"/><path d="M853.772 259.497c2.321-8.88.059-17.162-5.053-18.499-5.112-1.337-11.138 4.777-13.46 13.657-2.321 8.879-.059 17.161 5.053 18.498 5.112 1.337 11.138-4.777 13.46-13.656z" fill="#F6874E"/><path d="M814.643 206.167c-15.779 19.299-45.596 25.697-58.774 25.665-11.614-.024.329-31.18 20.691-39.079 20.362-7.892 44.32 5.788 38.083 13.414z" fill="#1D2436"/><path d="M813.44 200.764c4.815 3.348 2.833 13.013-5.29 17.244-14.013 7.305-42.184 12.154-47.875 12.427-10.755.514-1.124-19.997 13.524-28.483 16.445-9.521 34.825-4.535 39.641-1.188z" fill="#3D4C6D"/><path d="M790.485 218.032s-13.757 7.907-24.568 12.315c0 0 28.605-2.553 24.568-12.315z" fill="#1D2436"/><path d="M831.016 229.11s-2.054 22.759.907 29.414l6.565 9.858 1.469-32.544-8.941-6.728z" fill="#3D4C6D"/><path d="M599.971 385.893l68.261-8.678s-16.935-54.308-72.178-79.716c-80.244-36.904-143.249 46.738-160.023 58.434-20.956 14.611-40.01 17.147-80.012 9.529 0 0-32.385 59.068-62.234 76.224 0 0 36.198 7.715 84.458 0 43.927-7.016 68.246-24.999 107.959-76.858 22.858-29.847 114.403-39.906 113.769 21.065z" fill="#F5BF4E"/><path d="M353.266 376.902s-29.632 44.458-39.793 55.263c0 0 53.935 2.143 83.19-3.813 37.466-7.619 79.811-76.89 109.861-92.737 34.929-18.424 86.97-5.973 97.797 20.326 8.893 21.595 9.631 28.266 9.631 28.266l44.769-6.141s-31.542-89.454-117.902-79.291c-44.4 5.226-83.824 52.085-107.316 69.866-23.509 17.782-49.762 14.611-80.237 8.261z" fill="#F4E8D8"/><path d="M409.36 371.82l-19.688 62.239m71.544-91.251l-2.327 47.428m50.805-41.921l-5.715-40.653m57.146-12.066l-12.063 41.287m47.626 14.611l27.305-30.49m-15.234 59.069l44.448-24.774" stroke="#F5BF4E" stroke-width="3" stroke-miterlimit="10"/><path d="M307.75 436.604c.819.185 1.879.386 3.155.586" stroke="#F4E8D8" stroke-width="6" stroke-miterlimit="10"/><path d="M318.963 438.202c24.375 2.448 76.681 3.195 104.997-16.208 34.295-23.498 53.341-71.142 94.619-84.477 21.79-7.04 60.709-10.588 78.109 18.424 4.639 8.566 6.902 16.891 8.002 22.55" stroke="#F4E8D8" stroke-width="6" stroke-miterlimit="10" stroke-dasharray="8.1 8.1"/><path d="M605.348 382.497c.273 2.023.337 3.195.337 3.195" stroke="#F4E8D8" stroke-width="6" stroke-miterlimit="10"/><path d="M664.002 375.312s-38.131-87.751-113.038-82.252c-69.217 5.081-105.414 73.678-136.531 81.297-27.233 6.671-60.966-3.813-60.966-3.813" stroke="#F4E8D8" stroke-width="5" stroke-miterlimit="10" stroke-dasharray="8 8"/><path opacity=".5" d="M436.031 355.941c-20.956 14.611-40.01 17.148-80.012 9.529 0 0-32.385 59.069-62.234 76.224 0 0 36.198 7.715 84.458 0 43.927-7.016 68.246-24.999 107.959-76.858-50.171 12.7-50.171-8.895-50.171-8.895z" fill="#F5BF4E"/><path d="M455.076 279.717c18.13 0 32.827-14.502 32.827-32.392 0-17.889-14.697-32.392-32.827-32.392-18.129 0-32.826 14.503-32.826 32.392 0 17.89 14.697 32.392 32.826 32.392z" fill="#29ACE4"/><path d="M469.572 239.185l-6.477 24.878c-.659 2.529-4.054 3.003-5.37.747l-18.396-31.365c-1.324-2.256.739-4.985 3.275-4.327l24.873 6.479a2.947 2.947 0 012.095 3.588z" fill="#F6BE4A"/><path opacity=".5" d="M483.657 242.878c0 14.883-54.609 14.883-54.609 0 0-14.884 12.224-26.941 27.305-26.941 15.073 0 27.304 12.057 27.304 26.941z" fill="#29ACE4"/><path d="M536.998 240.494s23.484 14.088 29.119 23.489l38.508-31.943-29.118-37.578s-31.936 43.214-38.509 46.032z" fill="#9A6EA7"/><path d="M575.507 194.462c4.069 5.949-1.95 41.311-1.95 41.311a6.298 6.298 0 01-5.562 5.347l-30.997-.626 38.509-46.032z" fill="#624873"/><path d="M571.751 222.022l26.301 2.504m-36.944 15.341l1.357 19.315" stroke="#624873" stroke-miterlimit="10"/><path opacity=".5" d="M541.589 235.693l51.455-17.854-17.641-22.445c0 .008-26.51 33.515-33.814 40.299z" fill="#9A6EA7"/><path d="M665.937 121.177l-25.7 18.648c-7.945 5.764-9.719 16.891-3.948 24.838l18.644 25.705a17.73 17.73 0 008.379 6.294c.04.016.064.04.105.056l20.498 7.137c1.445.506 2.857-.827 2.448-2.304l-2.809-9.971 21.919-15.903c7.946-5.764 9.72-16.89 3.949-24.838l-18.645-25.705c-5.77-7.955-16.894-9.721-24.84-3.957z" fill="#F6BE4A"/><path d="M682.192 131.368l-37.009 26.855 4.472 6.167 37.009-26.855-4.472-6.167zm6.711 9.258l-37.009 26.855 4.472 6.166 37.009-26.855-4.472-6.166zm6.711 9.257l-37.009 26.855 4.473 6.166 37.009-26.855-4.473-6.166z" fill="#F4E8D8"/><path opacity=".5" d="M666.193 126.114l-23.596 17.123c-7.296 5.298 68.815 17.404 63.518 10.107l-17.12-23.602c-5.297-7.305-15.506-8.927-22.802-3.628z" fill="#F6BE4A"/><path d="M947.642 113.751l-99.514-20.118c-.659-.136-1.405.643-1.67 1.718l-14.254 58.306c-.265 1.076.04 2.103.682 2.296l97.139 28.659c.827.249 1.75-.554 2.055-1.782l16.55-66.526c.305-1.244-.137-2.384-.988-2.553z" fill="#F6BE4A"/><path d="M948.774 108.983l-99.515-20.118c-.658-.136-1.396.642-1.661 1.718l-14.254 58.306c-.265 1.075.04 2.103.682 2.296l97.139 28.659c.827.249 1.75-.554 2.055-1.782l16.549-66.527c.297-1.244-.144-2.384-.995-2.552z" fill="#465788"/><path d="M884.333 112.563l18.757 20.968c.586.651.257 1.967-.562 2.272l-26.333 9.794c-.723.265-1.309-.53-1.076-1.461l7.577-30.778c.233-.932 1.123-1.365 1.637-.795z" fill="#EC5E4D"/><path opacity=".5" d="M945.781 110.114l-86.946-17.572c-.57-.113-1.22.554-1.453 1.5l73.005 77.983c.722.216 1.533-.482 1.798-1.558l14.454-58.129c.273-1.076-.112-2.079-.858-2.224z" fill="#465788"/><path d="M1000.54 167.794c-.84 3.42-4.926 5.306-9.035 4.247-4.037-1.044-6.605-4.544-5.803-7.851.803-3.308 4.704-5.259 8.789-4.335 4.157.947 6.899 4.511 6.049 7.939zm27.07 6.486c-.95 3.661-5.23 5.716-9.48 4.616-4.18-1.075-6.77-4.784-5.88-8.316.89-3.541 4.98-5.66 9.2-4.713 4.31.964 7.1 4.745 6.16 8.413z" fill="#F6BE4A"/><path d="M997.613 167.609l9.707-35.025 26.24 4.046-8.7 35.459" stroke="#F6BE4A" stroke-width="8" stroke-miterlimit="10" stroke-linecap="round" stroke-linejoin="round"/><path d="M1062.61 145.517c1.47 2.77-.45 6.631-4.23 8.598-3.71 1.926-7.83 1.292-9.27-1.373-1.45-2.673.31-6.462 3.98-8.485 3.75-2.072 8.03-1.518 9.52 1.26z" fill="#F6BE4A"/><path d="M1077.26 127.294c1.04-6.238-9.91-15.678-9.91-15.678l-7.93 36.085" stroke="#F6BE4A" stroke-width="8" stroke-miterlimit="10" stroke-linecap="round" stroke-linejoin="round"/><path d="M738.749 132.825c-3.227 14.161 5.048 27.295 17.994 30.425 12.697 3.075 26.815-4.238 32.185-17.308 5.891-14.353-.707-30.433-15.595-34.68-15.241-4.343-31.021 5.949-34.584 21.563z" fill="#EC5E4D"/><path d="M751.807 125.351c8.251-7.963 14.223 3.797 14.953 5.339 1.509-.932 13.227-7.771 15.362 2.842 3.138 15.589-20.33 21.105-23.035 21.691l-.032.112s-.032-.032-.096-.08a4.878 4.878 0 01-.129.024l.032-.113c-1.982-1.758-19.431-17.877-7.055-29.815z" fill="#F4E8D8"/><path d="M780.011 455.116c3.307-4.014-1.509-6.277-16.076-6.069-5.947.089-11.445 1.526-19.231-.168-5.064-1.1-11.059-.065-8.708 4.736 1.975 4.014 3.917 8.341 13.083 8.068 2.48-.072 11.116.289 15.915.715 4.567.409 12.858-4.657 15.017-7.282z" fill="#F6874E"/><path d="M563.669 390.236l76.207 138.463 21.911-5.082 105.101-4.447-20.322-56.211a7.295 7.295 0 005.161-9.368l-26.245-75.076a11.747 11.747 0 00-12.697-7.971l-149.116 19.692z" fill="#9A6EA7"/><path d="M652.26 471.918s-10.257-10.829-16.244-5.988c-5.988 4.849-3.42 14.257 1.998 19.957 5.418 5.7 14.792 10.572 20.804 4.56 7.119-7.129-6.558-18.529-6.558-18.529z" fill="#F4E8D8"/><path d="M659.877 418.397c-4.727 5.347-13.789 42.122-17.465 49.54-6.035 12.17 4.76 21.281 13.018 15.879 7.505-4.905 43.502-12.387 50.171-19.058 2.745-2.746 12.384-12.066-2.857-32.392-15.667-20.881-35.563-22.229-42.867-13.969z" fill="#F5BF4E"/><path d="M703.221 460.185c6.532-6.533 2.843-20.816-8.24-31.901-11.083-11.086-25.363-14.776-31.895-8.243-6.532 6.534-2.842 20.817 8.241 31.902s25.363 14.776 31.894 8.242z" fill="#F4E8D8"/><path d="M678.778 455.729c3.702-3.703 4.518-8.89 1.822-11.586-2.696-2.696-7.881-1.88-11.583 1.822-3.702 3.703-4.517 8.89-1.822 11.586 2.696 2.696 7.882 1.88 11.583-1.822z" fill="#465788"/><path opacity=".5" d="M585.468 387.755s152.727 60.867 157.118 62.48c0 0 4.39 1.614 0 0 3.531-.883 5.578-4.583 4.438-8.043l-22.553-64.496a10.094 10.094 0 00-10.908-6.847l-128.095 16.906z" fill="#9A6EA7"/><path d="M859.172 418.18c-3.596-10.588-.425-42.611-.425-70.716 0-16.513 11.34-31.076 21.164-29.221 15.667 2.962 19.054 17.781 22.016 36.839 4.173 26.853 5.754 67.137-3.917 87.864-8.893 19.066-35.242-14.177-38.838-24.766z" fill="#1D2436"/><path d="M859.172 418.18c-3.596-10.588-.425-42.611-.425-70.716 0-16.513 11.34-31.076 21.164-29.221 15.667 2.962-6.774 24.982-3.812 44.04 4.173 26.853 15.169 39.408 5.506 60.128-8.893 19.066-18.837 6.358-22.433-4.231z" fill="#1D2436"/><path d="M879.069 416.487c-6.774-5.082-17.714-7.506-22.859-4.231-5.096 3.243-6.268 5.997-6.268 5.997s-9.575.361-16.855 6.695c-7.215 6.278-47.257 10.589-52.394 21.506-5.216 11.087-9.743 34.423 13.524 39.063 26.085 5.21 30.708-6.791 40.829-9.328 10.426-2.609 51.222-19.002 59.481-30.698 5.072-7.193-3.909-20.334-15.458-29.004z" fill="#C83F37"/><path d="M879.069 416.487c-3.066-2.296 9.623 19.411-11.855 34.72-4.84 3.452-16.373 4.576-22.858 7.618-28.388 13.326-60.508 24.613-50.139 26.684 26.085 5.211 30.708-6.791 40.829-9.328 10.426-2.609 51.222-19.002 59.481-30.698 5.072-7.185-3.909-20.326-15.458-28.996z" fill="#972A27"/><path d="M781.271 447.193c7.617-6.35 15.876-5.716 22.441 8.678 0 0 1.902-8.469 6.14.425 5.016 10.541.297 29.254-12.697 29.43-15.675.209-20.274-34.88-15.884-38.533z" fill="#972A27"/><path d="M792.596 486.738c-8.267 1.381-16.494-6.944-18.492-18.079-1.918-10.645 2.528-20.358 10.032-22.156 7.705-1.847 16.189 5.202 18.87 16.24 2.801 11.584-1.903 22.574-10.41 23.995z" fill="#F4E8D8"/><path d="M788.864 483.222c-4.84.634-10.265-6.222-12.143-14.972-1.806-8.405.297-15.719 4.719-16.65 4.519-.947 9.992 5.05 12.216 13.744 2.311 9.063.16 17.235-4.792 17.878z" fill="#972A27"/><path d="M790.694 482.652l-14.078 7.939s-12.489 9.738-19.688 9.312c-7.199-.425-19.359-.072-22.97-1.373-8.203-2.962-1.269-5.924-1.269-5.924s-4.39 1.638-8.997.369c-3.266-.899-6.156-6.414-.321-7.144l4.495-.691s-12.962 1.694-13.604-4.126c-.458-4.207 3.387-5.082 11.429-4.656 8.042.425 24.977-6.406 27.938-7.249 2.962-.843 8.612-8.478 15.555-15.141 15.265-14.61 31.823 18.36 21.51 28.684z" fill="#F6874E"/><path d="M766.56 466.612s2.383-6.832-.322-8.1c-2.696-1.268-11.059 6.037-16.14 7.305-5.08 1.269-27.2.321-31.647 1.269-4.446.947-4.125 5.081 0 6.35 4.126 1.268 11.911 2.063 20.956 1.108 12.754-1.333 11.213-1.775 27.153-7.932z" fill="#F6874E"/><path d="M849.934 418.253s12.512.562 18.869 5.33c6.348 4.761-3.949-13.583-18.869-5.33z" fill="#972A27"/><path d="M849.428 419.77s14.921 6.984 18.733 22.229c0 0 3.812-11.753-3.812-16.834-7.617-5.074-14.287-7.298-14.921-5.395z" fill="#972A27"/><path d="M624.635 202.225s64.77 30.49 64.77 127.032" stroke="#F6BE4A" stroke-width="7" stroke-miterlimit="10" stroke-linecap="round" stroke-linejoin="round"/><path d="M609.394 211.12s29.214 10.163 35.563 31.758" stroke="#29ACE4" stroke-width="7" stroke-miterlimit="10" stroke-linecap="round" stroke-linejoin="round"/><path d="M653.208 262.562a4.76 4.76 0 10-.003-9.521 4.76 4.76 0 00.003 9.521z" fill="#29ACE4"/><path d="M768.943 428.488s93.511-89.381 185.265-59.213" stroke="#29ACE4" stroke-width="7" stroke-miterlimit="10" stroke-linecap="round" stroke-linejoin="round"/><path d="M1015.96 423.222s-64.449-69.697-140.471-32.569" stroke="#F6BE4A" stroke-width="7" stroke-miterlimit="10" stroke-linecap="round" stroke-linejoin="round"/><path d="M975.164 378.804a4.76 4.76 0 100-9.52 4.76 4.76 0 000 9.52z" fill="#29ACE4"/><path d="M972.396 207.965c-18.942-9.569-42.049-1.975-51.616 16.971-4.422 8.75-5.168 18.391-2.841 27.182.008.024.008.04.008.064.016.064.032.129.048.185.024.08.041.152.065.233 4.494 16.585 13.275 41.278 17.143 41.832 5.851.835 32.104-12.948 40.508-19.748a38.305 38.305 0 0013.652-15.076c9.567-18.954 1.974-42.066-16.967-51.643z" fill="#EC5E4D"/><path d="M955.067 271.553c16.17 0 29.279-13.111 29.279-29.285s-13.109-29.285-29.279-29.285-29.279 13.111-29.279 29.285 13.109 29.285 29.279 29.285z" fill="#F4E8D8"/><path opacity=".5" d="M920.772 224.936c-4.423 8.75-5.169 18.391-2.842 27.182.009.024.009.04.009.064.016.064.032.129.048.185.024.08.04.152.064.233 4.494 16.585 13.275 41.278 17.143 41.832 3.436.49 58.334-31.204 36.744-68.677-21.59-37.474-47.21-8.646-51.166-.819z" fill="#EC5E4D"/><path d="M995.486 469.631s42.544-19.371 66.044-48.271c0 0 67.32 0 80.65.634 0 0-22.23 61.613-63.5 94.005 0 0-49.53 10.163-83.194-46.368z" fill="#F6BE4A"/><path d="M1071.19 429.492s-13.22 11.977-24.32 21.667c-10.31 8.999-26.9 20.896-33.6 25.207 0 0 14.09 12.756 25.4 14.651 20.01 3.355 33.66-7.41 33.66-7.41l-9.1-24.934 19.89-10.613-11.93-18.568zm26.95 23.73l1.53-3.259c1.18-2.505 4.57-4.327 8.02-4.07 4.02.297 6.68 3.243 5.24 6.59l-1.87 4.376c-1.5 3.5-6.19 4.913-9.84 3.347-3.1-1.316-4.29-4.391-3.08-6.984z" fill="#9A6EA7"/><path opacity=".5" d="M995.486 469.631s42.544-19.371 66.044-48.271c0 0 53.66.634 67 1.268 0 0-87.64 82.895-133.044 47.003z" fill="#F6BE4A"/><path d="M582.301 128.749l-24.384-7.205-7.203 24.389 24.384 7.205 7.203-24.389z" fill="#F4E8D8"/><path d="M736.432 231.481l-25.403-25.408-25.402 25.408 25.402 25.408 25.403-25.408z" stroke="#F4E8D8" stroke-width="3" stroke-miterlimit="10"/><path d="M999.381 557.422l-17.763-38.827-38.819 17.768 17.764 38.827 38.818-17.768z" fill="#F4E8D8"/><path d="M966.835 537.25L951.76 504.3l-32.944 15.078 15.075 32.951 32.944-15.079z" fill="#F4E8D8"/><path d="M562.558 439.107l-17.053-33.143-33.136 17.056 17.053 33.144 33.136-17.057zM1118.92 231.28l-22.73-44.179-44.17 22.735 22.73 44.179 44.17-22.735z" stroke="#F4E8D8" stroke-width="3" stroke-miterlimit="10"/><path d="M1139.16 242.238l-17.05-33.143-33.13 17.056 17.05 33.143 33.13-17.056zM529.046 434.422l-12.734-24.748-24.743 12.736 12.734 24.748 24.743-12.736z" fill="#F4E8D8"/><path d="M1077.37 293.413l-12.51 45.718-50.21-2.416c-9.08 24.99 10.54 45.854 39.27 45.894 29.23.033 52.66-18.295 59.27-44.04 6.26-24.388-9.05-45.839-35.82-45.156z" fill="#C83F37"/><path d="M1073.26 290.137l-11.82 43.23-47.49-2.28c-8.58 23.634 5.9 41.279 32.95 43.792 28.61 2.649 55.73-20.672 61.99-45.012 5.92-23.064-10.32-40.372-35.63-39.73z" fill="#29ABE3"/><path opacity=".5" d="M1050.95 332.869l-37-1.774c-8.58 23.634 5.9 41.279 32.95 43.792 18.44 1.71 36.28-7.386 48.29-20.584-27.31-.481-44.24-21.434-44.24-21.434z" fill="#29ACE4"/><path d="M1006.56 327.435l-1.59-6.037 63.7-43.752s.9 3.34 1.59 6.037l-12.54 44.94-51.16-1.188z" fill="#EC5E4D"/><path d="M1004.97 321.406c8.88-23.954 37.03-43.02 63.7-43.751l-12.75 46.136-50.95-2.385z" fill="#F6BE4A"/><path opacity=".5" d="M1004.97 321.406c4.5-12.138 13.94-23.024 25.65-30.899-2.11 21.61 16.11 32.857 16.11 32.857l-41.76-1.958z" fill="#F6BE4A"/></svg>