<svg width="76" height="76" fill="none" xmlns="http://www.w3.org/2000/svg"><g clip-path="url(#clip0_0_2609)"><path d="M74.716 11.135v4.153h-8.142l-.117.336-2.018 5.822h0l-.002.007L53.798 53.59H7.319l-5.88-34.84h59.57l.118-.334 2.57-7.282h11.02zM50.35 49.44h.358l.115-.34 8.736-25.763.224-.66H6.305l.096.581 4.256 25.763.07.419H50.35zM20.284 60.138a4.652 4.652 0 11-9.304 0 4.652 4.652 0 019.303 0zm29.566 0a4.652 4.652 0 11-9.303 0 4.652 4.652 0 019.304 0z" fill="#000" stroke="#FAF6FF"/><path d="M29.53 46.109l-9.533-12.575h4.573l4.554 5.856.38.49.398-.477 11.274-13.485h4.549L29.53 46.108z" fill="#F9BC6E" stroke="#fff"/></g><defs><clipPath id="clip0_0_2609"><path fill="#fff" transform="translate(.847 .778)" d="M0 0h74.368v74.368H0z"/></clipPath></defs></svg>