<svg width="92" height="93" fill="none" xmlns="http://www.w3.org/2000/svg"><g clip-path="url(#clip0_0_2576)" stroke="#F9F4FF" stroke-width=".4"><path d="M29.022 50.174h0l.96.402h0a1.573 1.573 0 002.064-.866h0a1.607 1.607 0 00-.856-2.091h0l-.96-.402s0 0 0 0a5.038 5.038 0 00-3.92.004h0a5.12 5.12 0 00-2.777 2.802h0c-1.083 2.643.164 5.682 2.775 6.776 0 0 0 0 0 0l1.919.803h0a1.994 1.994 0 011.063 2.594 1.962 1.962 0 01-1.064 1.07h0a1.937 1.937 0 01-1.505.005h0l-.96-.402h0a1.574 1.574 0 00-2.063.865h0c-.336.818.05 1.754.855 2.092h0l.96.402s0 0 0 0c.63.263 1.29.395 1.953.395l1.556-14.45zm0 0a1.934 1.934 0 00-1.504.004 1.963 1.963 0 00-1.065 1.07h0a1.994 1.994 0 001.063 2.594h0m1.506-3.668l-1.506 3.668m0 0l1.92.803s0 0 0 0c2.61 1.093 3.857 4.133 2.774 6.776a5.12 5.12 0 01-2.776 2.803M27.516 53.84l1.918 10.383m0 0a5.09 5.09 0 01-1.968.399l1.968-.4zm13.281-.069l-.103-.106-.131.066c-3.295 1.67-7.42-.937-7.354-4.69h0v-.008c-.065-3.754 4.058-6.36 7.354-4.69l.131.066.103-.106c.96-.993 2.707-.286 2.696 1.132v7.204c.01 1.418-1.735 2.125-2.696 1.132zm-2.438-6.734h0-.008c-1.094 0-1.98.899-1.98 2 0 1.1.886 2 1.98 2v0h.008c2.614-.1 2.615-3.9 0-4zm14.668-2.695l.13.066.103-.103c.286-.29.68-.468 1.117-.468.87 0 1.58.714 1.58 1.6v3.626h0v3.576c.011 1.418-1.735 2.125-2.696 1.132l-.102-.106-.132.067c-3.295 1.67-7.419-.938-7.353-4.691h0v-.007c-.066-3.755 4.058-6.36 7.353-4.692zm-2.219 6.695h.008c1.089 0 1.972-.89 1.98-1.985h0v-.03a1.992 1.992 0 00-1.98-1.985v0h-.008c-2.614.1-2.616 3.9 0 4zm14.143-10.844h0l-.96-.402s0 0 0 0a1.933 1.933 0 00-1.504.004 1.962 1.962 0 00-1.065 1.07 1.994 1.994 0 001.063 2.594h0l1.92.803s0 0 0 0c2.61 1.094 3.857 4.133 2.774 6.776a5.135 5.135 0 01-4.743 3.2h0a5.046 5.046 0 01-1.954-.393l-.078.184.078-.184-.96-.402a1.608 1.608 0 01-.856-2.092 1.574 1.574 0 012.064-.866l.96.402a1.961 1.961 0 002.57-1.075 1.994 1.994 0 00-1.064-2.593h0l-1.92-.803s0 0 0 0c-2.61-1.094-3.857-4.133-2.774-6.776h0a5.12 5.12 0 012.776-2.802h0a5.038 5.038 0 013.921-.004l.078-.185-.078.185.96.401a1.607 1.607 0 01.856 2.092 1.574 1.574 0 01-2.064.866z" fill="#F9BC6E"/><path d="M78.437 44.325l.01.16.16.024c18.279 2.652 16.873 29.252-1.702 29.814H11.774c-13.35-.374-14.733-19.384-1.677-21.792l.15-.027.013-.153a19.49 19.49 0 01.84-4.253 1.576 1.576 0 011.986-1.035h0a1.604 1.604 0 011.024 2.012 16.294 16.294 0 00-.758 4.926c0 .886-.71 1.6-1.58 1.6v0h-.008c-10.16.389-10.166 15.13 0 15.522h65.144v0h.007c15.401-.59 15.392-22.926 0-23.512h0-.007a1.59 1.59 0 01-1.58-1.6v-.002c-.27-25.74-35.03-32.803-45.069-9.132v.002a1.58 1.58 0 01-1.412.98 15.78 15.78 0 00-4.847.915h0a1.575 1.575 0 01-2.017-.975h0a1.605 1.605 0 01.964-2.043l-.067-.188.067.188a18.87 18.87 0 014.683-1.028l.114-.01.05-.105c11.726-25.04 48.782-17.872 50.643 9.712z" fill="#000"/><path d="M16.73 43.24c-2.095-.084-2.092-3.114 0-3.2 2.092.085 2.093 3.115 0 3.2z" fill="#000"/></g><defs><clipPath id="clip0_0_2576"><path fill="#fff" transform="translate(.8 .778)" d="M0 0h91v92H0z"/></clipPath></defs></svg>