<svg xmlns="http://www.w3.org/2000/svg"><symbol id="facebook" viewBox="0 0 25 25"><g clip-path="url(#clip0_0_1237)"><path d="M14.338 14.286h2.502l1.001-4h-3.503v-2c0-1.03 0-2 2.002-2h1.501v-3.36c-.326-.043-1.558-.14-2.86-.14-2.717 0-4.647 1.657-4.647 4.7v2.8H7.33v4h3.003v8.5h4.004v-8.5z"/></g><defs><clipPath id="clip0_0_1237"><path fill="#fff" transform="translate(.323 .786)" d="M0 0h24.025v24H0z"/></clipPath></defs></symbol><symbol id="twitter" viewBox="0 0 25 25"><path d="M22.555 6.442a8.4 8.4 0 01-2.404.658 4.197 4.197 0 001.842-2.314 8.374 8.374 0 01-2.659 1.015 4.187 4.187 0 00-7.133 3.814 11.896 11.896 0 01-8.63-4.37 4.18 4.18 0 001.295 5.584 4.177 4.177 0 01-1.895-.523v.052A4.182 4.182 0 006.33 14.46a4.22 4.22 0 01-1.892.072 4.185 4.185 0 003.91 2.905 8.406 8.406 0 01-6.197 1.732 11.852 11.852 0 006.417 1.88c7.7 0 11.912-6.373 11.912-11.9 0-.18-.005-.362-.013-.54a8.5 8.5 0 002.09-2.165h-.002z"/></symbol><symbol id="linkedin" viewBox="0 0 25 25"><path d="M18.772 19.125h-2.668v-4.177c0-.996-.02-2.278-1.391-2.278-1.39 0-1.603 1.084-1.603 2.205v4.25h-2.67v-8.589h2.563v1.17h.035c.358-.674 1.23-1.387 2.53-1.387 2.703 0 3.204 1.778 3.204 4.091v4.715h-.001zM7.428 9.361a1.549 1.549 0 111.52-1.849 1.547 1.547 0 01-1.521 1.85h.001zm1.337 9.764H6.09v-8.589h2.676v8.59zM20.108 3.786H4.751c-.736 0-1.33.58-1.33 1.297V20.49c0 .717.595 1.297 1.33 1.297h15.353c.735 0 1.335-.58 1.335-1.297V5.083c0-.717-.6-1.297-1.335-1.297h.004z"/></symbol><symbol id="instagram" viewBox="0 0 25 25"><path d="M12.478 9.786a3.004 3.004 0 00-3.004 3 2.999 2.999 0 003.004 3 3.005 3.005 0 003.003-3 2.999 2.999 0 00-3.003-3zm0-2c1.327 0 2.6.527 3.539 1.465a4.997 4.997 0 01-3.54 8.535 4.998 4.998 0 110-10zm6.506-.25a1.25 1.25 0 01-1.251 1.25 1.252 1.252 0 01-1.251-1.25 1.25 1.25 0 011.251-1.25 1.252 1.252 0 011.251 1.25zm-6.506-2.75c-2.477 0-2.881.007-4.034.058-.784.037-1.31.142-1.8.332a2.89 2.89 0 00-1.08.703 2.89 2.89 0 00-.705 1.08c-.19.49-.296 1.015-.332 1.798-.052 1.104-.058 1.49-.058 4.03 0 2.473.007 2.877.058 4.028.037.783.143 1.31.332 1.797.17.435.37.748.702 1.08.338.336.651.537 1.082.703.494.191 1.02.297 1.801.333 1.106.052 1.492.058 4.034.058 2.476 0 2.88-.007 4.033-.058.783-.037 1.31-.142 1.799-.33.433-.17.748-.37 1.08-.703.338-.337.54-.65.705-1.08.19-.493.297-1.02.333-1.8.052-1.104.058-1.49.058-4.029 0-2.474-.007-2.878-.058-4.029-.037-.782-.142-1.31-.333-1.798a2.911 2.911 0 00-.703-1.08 2.887 2.887 0 00-1.081-.704c-.491-.19-1.017-.295-1.8-.33-1.105-.053-1.492-.059-4.033-.059zm0-2c2.72 0 3.059.01 4.126.06 1.066.05 1.792.217 2.43.465a4.874 4.874 0 011.774 1.153c.51.5.903 1.105 1.154 1.772.247.637.416 1.363.466 2.428.047 1.066.06 1.405.06 4.122 0 2.717-.01 3.056-.06 4.122-.05 1.065-.219 1.79-.466 2.428a4.882 4.882 0 01-1.154 1.772c-.5.508-1.106.902-1.774 1.153-.637.247-1.364.415-2.43.465-1.067.047-1.407.06-4.126.06-2.72 0-3.06-.01-4.127-.06-1.066-.05-1.792-.218-2.43-.465a4.894 4.894 0 01-1.774-1.153 4.903 4.903 0 01-1.154-1.772c-.248-.637-.416-1.363-.466-2.428-.047-1.066-.06-1.405-.06-4.122 0-2.717.01-3.056.06-4.122.05-1.066.218-1.79.466-2.428a4.88 4.88 0 011.154-1.772 4.902 4.902 0 011.774-1.153c.638-.248 1.363-.415 2.43-.465 1.067-.047 1.407-.06 4.127-.06z"/></symbol><symbol id="arrow-left" viewBox="0 0 56 57"><path d="M28.794 35.178l6.835-6.834a.84.84 0 000-1.192l-6.834-6.83a.84.84 0 00-1.192 0l-.78.78a.839.839 0 00.013 1.206l4.237 4.036H20.969a.842.842 0 00-.844.843v1.125c0 .468.376.844.844.844h10.104l-4.237 4.036a.845.845 0 00-.014 1.206l.78.78a.84.84 0 001.192 0z" fill="#F9BC6E"/></symbol><symbol id="arrow-right" viewBox="0 0 56 57"><path d="M28.397 35.178l.78-.78a.839.839 0 00-.014-1.206l-4.236-4.036h10.104a.842.842 0 00.844-.843v-1.125a.842.842 0 00-.844-.844H24.927l4.236-4.036a.845.845 0 00.014-1.206l-.78-.78a.84.84 0 00-1.192 0l-6.834 6.834a.84.84 0 000 1.192l6.834 6.83a.84.84 0 001.192 0z" fill="#959EAD"/></symbol><symbol id="quote" viewBox="0 0 100 88"><path fill-rule="evenodd" clip-rule="evenodd" d="M43.75 78.375c0 5.176-4.2 9.375-9.375 9.375h-25C4.199 87.75 0 83.55 0 78.375V31.5C0 14.234 13.984.25 31.25.25h1.562A4.676 4.676 0 0137.5 4.938v9.375A4.676 4.676 0 0132.812 19H31.25c-6.895 0-12.5 5.606-12.5 12.5V44h15.625c5.176 0 9.375 4.2 9.375 9.375v25zm56.25 0c0 5.176-4.2 9.375-9.375 9.375h-25c-5.176 0-9.375-4.2-9.375-9.375V31.5C56.25 14.234 70.234.25 87.5.25h1.562a4.676 4.676 0 014.688 4.688v9.375A4.676 4.676 0 0189.062 19H87.5C80.605 19 75 24.606 75 31.5V44h15.625C95.8 44 100 48.2 100 53.375v25z"/></symbol><symbol id="marketing" viewBox="0 0 103 102"><g clip-path="url(#clip0_0_1691)"><path d="M19.371 77.945l10.033 17.378c2.165 3.754 7.034 5.144 10.886 2.918a7.965 7.965 0 002.916-10.886l-5.977-10.353 5.176-2.988a1.993 1.993 0 00.73-2.722l-2.591-4.487 38.158-7.485c4.428-.24 7.08-5.083 4.844-8.954l-6.621-11.468 4.231-6.408c.416-.63.44-1.44.063-2.094l-3.984-6.901a1.996 1.996 0 00-1.845-.993l-7.665.46-7.35-12.731a5.924 5.924 0 00-5.101-2.988h-.076a5.924 5.924 0 00-5.032 2.755L24.14 43.151 7.223 52.92c-6.655 3.84-8.96 12.377-5.105 19.05 3.523 6.1 10.948 8.5 17.253 5.976zm20.385 11.403a3.982 3.982 0 01-1.46 5.442 3.99 3.99 0 01-5.442-1.458l-9.96-17.255 6.9-3.985 9.962 17.256zm-4.519-15.797l-1.992-3.45 3.45-1.993 1.992 3.45-3.45 1.993zM74.4 26.553l2.753 4.769-2.455 3.718-4.746-8.22 4.448-.267zm-20.902-14.37a1.949 1.949 0 011.727-.956c.34.004 1.188.11 1.699.995l23.171 40.136c.755 1.306-.162 2.95-1.676 2.987-.271.006-.397.055-1.092.185L52.816 13.075c.514-.661.58-.725.682-.892zm-3.334 4.27l23.03 39.888-34.756 6.817L27.87 44.854l22.294-28.401zM5.57 69.976a9.948 9.948 0 01-1.337-4.97 9.998 9.998 0 014.983-8.636l15.527-8.965 9.961 17.252-15.527 8.966c-4.757 2.745-10.86 1.11-13.607-3.647z"/><path d="M27.535 64.195a1.993 1.993 0 10-1.994-3.451 1.993 1.993 0 001.994 3.451zm-6.172 1.263a1.992 1.992 0 00-2.721-.73l-3.45 1.993a1.994 1.994 0 01-2.722-.73 1.993 1.993 0 00-3.45 1.993c1.64 2.84 5.297 3.842 8.163 2.188l3.451-1.993a1.992 1.992 0 00.73-2.721zm77.925-53.954l-11.101 6.177a1.993 1.993 0 001.938 3.482l11.1-6.177a1.992 1.992 0 10-1.937-3.482zm-1.165 20.633l-7.697-2.062a1.992 1.992 0 10-1.03 3.848l7.697 2.062a1.992 1.992 0 101.03-3.848zM78.781 4.266l-2.064 7.698a1.993 1.993 0 003.849 1.032l2.063-7.698a1.992 1.992 0 10-3.848-1.032z" fill="#F9BC6E"/></g><defs><clipPath id="clip0_0_1691"><path fill="#fff" transform="translate(.249)" d="M0 0h102v102H0z"/></clipPath></defs></symbol><symbol id="rocket" viewBox="0 0 103 103"><g clip-path="url(#clip0_0_1625)"><path d="M102.065 1.353a1.984 1.984 0 00-1.48-.582c-.451.016-11.176.447-23.925 4.953-10.216 3.607-18.73 8.772-25.309 15.35a75.782 75.782 0 00-4.28 4.66c-6.505-3.828-11.717-2.627-15.011-.864-7.587 4.06-12.283 15.084-12.283 22.97a1.994 1.994 0 003.402 1.408c4-4.001 8.936-3.75 10.548-3.539l.697.698c-1.373 3.267-2.479 6.516-3.29 9.676-.293 1.143-.194 2.353.241 3.46-1.918.884-3.768 2.182-5.38 3.793-5.128 5.128-6.169 17.626-6.21 18.156a1.992 1.992 0 002.142 2.142c.53-.041 13.027-1.082 18.156-6.21 1.61-1.611 2.908-3.462 3.792-5.38a5.616 5.616 0 003.462.24c3.159-.81 6.407-1.916 9.675-3.29l.697.698c.212 1.612.462 6.547-3.538 10.548a1.992 1.992 0 001.408 3.4c7.885 0 18.91-4.695 22.97-12.282 1.762-3.294 2.963-8.506-.866-15.01a75.843 75.843 0 004.661-4.281c6.578-6.578 11.743-15.094 15.35-25.309 4.506-12.75 4.937-23.475 4.953-23.925a1.992 1.992 0 00-.582-1.48zM24.231 43.554c1.238-5.989 4.832-12.561 9.71-15.171 3.258-1.744 6.82-1.573 10.608.5a80.55 80.55 0 00-8.37 13.644c-.03-.018-.388-.47-1.055-.62-.273-.061-5.545-1.195-10.893 1.647zm13.034 31.052c-2.74 2.74-9.165 4.184-13.226 4.774.59-4.062 2.035-10.487 4.774-13.227 1.534-1.534 3.312-2.697 5.1-3.352l6.704 6.704c-.655 1.788-1.818 3.567-3.352 5.1zm9.082-6.181c-.576.147-1.244-.07-1.74-.565l-3.902-3.902-5.145-5.145c-.497-.498-.714-1.165-.567-1.741a64.695 64.695 0 012.488-7.609l16.474 16.475a64.643 64.643 0 01-7.608 2.487zm28.689 1.053c-2.61 4.877-9.182 8.472-15.171 9.709 1.91-3.593 2.33-8.168 1.633-10.941-.162-.645-.583-.969-.606-1.007a80.588 80.588 0 0013.643-8.37c2.074 3.788 2.245 7.35.5 10.61zm4.491-20.229a72.3 72.3 0 01-5.745 5.154A76.542 76.542 0 0157.9 64.25L39.17 45.52a76.527 76.527 0 019.844-15.882 72.307 72.307 0 015.154-5.746c5.902-5.902 13.52-10.599 22.646-13.98l16.693 16.693c-3.381 9.126-8.078 16.743-13.98 22.645zm15.414-26.847L81.016 8.478c7.587-2.357 14.187-3.24 17.481-3.556-.317 3.295-1.2 9.894-3.556 17.48z"/><path d="M54.17 49.25a1.992 1.992 0 10-2.818 2.815 1.992 1.992 0 002.819-2.816zm25.355-25.357a9.957 9.957 0 00-14.087 0c-3.883 3.882-3.883 10.202 0 14.087 3.885 3.882 10.204 3.884 14.087 0a9.956 9.956 0 000-14.087zm-2.817 11.27a5.985 5.985 0 01-8.452 0 5.985 5.985 0 010-8.453 5.974 5.974 0 018.452 0 5.974 5.974 0 010 8.452zM48.534 83.057a1.993 1.993 0 00-2.817 0l-5.634 5.636A1.993 1.993 0 0042.9 91.51l5.634-5.636a1.992 1.992 0 000-2.817zM20.362 54.883a1.992 1.992 0 00-2.817 0l-5.636 5.634a1.992 1.992 0 002.816 2.818l5.636-5.634a1.992 1.992 0 000-2.818zm14.085 30.993a1.992 1.992 0 00-2.817 0L18.135 99.368a1.992 1.992 0 102.817 2.817l13.495-13.493a1.992 1.992 0 000-2.817zm-15.936 0a1.992 1.992 0 00-2.817 0L2.199 99.368a1.992 1.992 0 102.817 2.817L18.51 88.693a1.992 1.992 0 000-2.817zm-.968-16.906a1.992 1.992 0 00-2.817 0L1.233 82.465a1.992 1.992 0 002.817 2.817l13.493-13.495a1.992 1.992 0 000-2.818zm45.079-28.174a1.992 1.992 0 00-2.818 0l-2.817 2.817a1.993 1.993 0 002.818 2.818l2.817-2.817a1.993 1.993 0 000-2.818z" fill="#F9BC6E"/></g><defs><clipPath id="clip0_0_1625"><path fill="#fff" transform="translate(.648 .77)" d="M0 0h102v102H0z"/></clipPath></defs></symbol><symbol id="writer" viewBox="0 0 107 106"><g clip-path="url(#clip0_0_1651)"><path d="M60.54 36.875H28.47a1.743 1.743 0 100 3.487h32.07a1.743 1.743 0 000-3.487zm0 9.589H28.47a1.743 1.743 0 100 3.487h32.07a1.743 1.743 0 000-3.487z" fill="#F9BC6E"/><path d="M106.049 24.517a1.742 1.742 0 00-1.392-1.393c-5.026-.941-14.448 4.171-28.802 15.633-1.44 1.15-2.884 2.33-4.315 3.52V26.773h14.516c.963 0 1.743-.78 1.743-1.743v-5.89c0-5.734-4.665-10.399-10.399-10.399H26.818c-5.154 0-9.348 4.193-9.348 9.348v61.136H1.904c-.963 0-1.744.78-1.744 1.743v5.892c0 5.734 4.665 10.399 10.4 10.399h51.636c5.154 0 9.348-4.194 9.348-9.348l-.003-12.966C76.468 69.741 83.91 61.47 90.416 53.32c11.462-14.354 16.576-23.775 15.633-28.802zM17.47 86.86a6.92 6.92 0 01-6.911 6.912c-3.811 0-6.913-3.1-6.913-6.912v-4.148h13.825v4.148zM77.4 12.228a6.92 6.92 0 016.912 6.912v4.148H37.217V19.14c0-2.651-.998-5.073-2.636-6.912h42.82zM62.195 93.772H18.319a10.355 10.355 0 002.638-6.912V18.088a5.867 5.867 0 015.86-5.86 6.92 6.92 0 016.913 6.912v5.891c0 .963.78 1.744 1.743 1.744h32.58v18.442a387.849 387.849 0 00-12.141 10.835h-27.44a1.743 1.743 0 000 3.487h23.765c-.554.538-1.052 1.027-1.482 1.457a16.78 16.78 0 00-3.269 4.644H28.471a1.743 1.743 0 000 3.487h17.742c-.563 2.13-.77 4.236-.795 6.103H28.47a1.743 1.743 0 000 3.487h17.102c.088.868.199 1.592.294 2.123l-7.381 7.381a1.743 1.743 0 102.465 2.466l7.383-7.383a30.55 30.55 0 006.409.419c5.48-.229 10.077-2.023 13.31-5.189l.002 9.376a5.867 5.867 0 01-5.86 5.862zm3.517-17.82c-2.63 2.63-6.338 4.071-11.023 4.283a26.74 26.74 0 01-3.23-.055l44.403-44.403a1.743 1.743 0 10-2.466-2.465L48.992 77.716c-.29-3.789.011-10.036 4.229-14.254 4.162-4.162 14.579-13.81 24.81-21.98 5.58-4.456 18.487-14.278 24.617-14.956-.678 6.13-10.5 19.037-14.956 24.618-8.17 10.23-17.818 20.646-21.98 24.809z"/></g><defs><clipPath id="clip0_0_1651"><path fill="#fff" transform="translate(.16)" d="M0 0h106v106H0z"/></clipPath></defs></symbol><symbol id="b2b" viewBox="0 0 97 97"><path d="M52.688 49.262V23.934a2.393 2.393 0 00-2.39-2.39h-7.78V19.42a.937.937 0 00-.938-.938h-.074v-.355a5.008 5.008 0 00-5.003-5.002H25.33a5.008 5.008 0 00-5.003 5.002v.355h-.112a.937.937 0 00-.937.938v2.124h-7.743a2.393 2.393 0 00-2.39 2.39v25.328a2.393 2.393 0 002.39 2.39h38.764a2.393 2.393 0 002.39-2.39zM26.593 21.545V19.42a.937.937 0 00-.937-.937h-.046l-.003-.304 10.605-.013v.316h-.074a.937.937 0 00-.937.938v2.124h-8.608zm10.482-1.187h3.567v1.187h-3.567v-1.187zm-14.874-2.23A3.131 3.131 0 0125.328 15h11.175a3.131 3.131 0 013.127 3.128v.355h-1.543v-.317a1.864 1.864 0 00-1.862-1.862H25.607a1.864 1.864 0 00-1.862 1.862v.317H22.2v-.355zm-1.05 2.23h3.567v1.187h-3.566v-1.187zM11.02 49.262v-5.595h13.657a.937.937 0 100-1.875H11.02V23.934c0-.283.23-.515.514-.515h38.763c.284 0 .515.231.515.515v17.857H37.155a.937.937 0 100 1.875h13.657v5.596a.516.516 0 01-.515.516H11.534a.516.516 0 01-.515-.516z"/><path d="M32.299 38.988h-2.766a2.047 2.047 0 00-2.044 2.044v4.703c0 1.127.917 2.043 2.044 2.043h2.766a2.046 2.046 0 002.044-2.043v-4.703a2.046 2.046 0 00-2.044-2.044zm.169 6.746a.169.169 0 01-.17.169h-2.765a.169.169 0 01-.17-.169v-4.702a.17.17 0 01.17-.17h2.766a.17.17 0 01.169.17v4.702zm53.329 8.589h-7.78V52.2a.937.937 0 00-.938-.938h-.073v-.355a5.008 5.008 0 00-5.003-5.002H60.829a5.008 5.008 0 00-5.003 5.002v.355h-.111a.937.937 0 00-.938.938v2.124h-7.743a2.393 2.393 0 00-2.39 2.39v25.328a2.393 2.393 0 002.39 2.39h38.764a2.393 2.393 0 002.39-2.39V56.713a2.394 2.394 0 00-2.39-2.39zm-23.703 0V52.2a.937.937 0 00-.938-.938h-.046l-.003-.304 10.605-.013v.317h-.074a.937.937 0 00-.937.937v2.125h-8.607zm10.481-1.187h3.567v1.187h-3.567v-1.187zm-14.874-2.23a3.131 3.131 0 013.127-3.128h11.175a3.13 3.13 0 013.127 3.128v.355h-1.543v-.317a1.864 1.864 0 00-1.863-1.862H61.107a1.864 1.864 0 00-1.863 1.862v.317H57.7v-.355zm-1.05 2.23h3.567v1.187h-3.566v-1.187zm29.146 29.42H47.034a.516.516 0 01-.515-.515v-5.596h13.657a.937.937 0 100-1.875H46.52V56.713c0-.284.23-.515.515-.515h38.763c.284 0 .516.23.516.515V74.57H72.655a.937.937 0 100 1.875h13.658v5.596a.516.516 0 01-.516.515z"/><path d="M67.799 71.766h-2.767a2.046 2.046 0 00-2.043 2.044v4.703c0 1.127.917 2.043 2.044 2.043h2.766a2.046 2.046 0 002.043-2.043V73.81a2.046 2.046 0 00-2.043-2.044zm.169 6.746a.169.169 0 01-.17.17h-2.765a.169.169 0 01-.169-.17V73.81a.17.17 0 01.169-.17h2.766a.17.17 0 01.169.17v4.702z"/><path d="M70.648 38.5a.937.937 0 00-1.325 0l-1.847 1.847v-2.884a6.82 6.82 0 00-6.813-6.812h-5.04a.937.937 0 100 1.875h5.04a4.943 4.943 0 014.938 4.937v2.884l-1.847-1.846a.937.937 0 00-1.325 1.325l3.446 3.446a.947.947 0 00.144.118c.022.015.046.025.07.038.03.016.059.035.09.048.031.013.063.02.095.03.027.007.053.017.081.023a.94.94 0 00.367 0c.028-.006.054-.016.081-.024.032-.01.063-.016.094-.029.032-.013.061-.031.091-.048.024-.013.048-.023.07-.038a.947.947 0 00.144-.118l3.446-3.446a.937.937 0 000-1.325zM41.709 65.03h-5.041a4.943 4.943 0 01-4.937-4.937v-2.884l1.846 1.846a.935.935 0 001.326 0 .937.937 0 000-1.325l-3.446-3.446a.942.942 0 00-.144-.118c-.022-.015-.046-.025-.07-.038-.03-.016-.059-.035-.091-.048-.03-.013-.062-.02-.094-.029-.027-.008-.053-.018-.08-.024a.945.945 0 00-.368 0c-.028.006-.054.016-.08.024-.032.01-.064.017-.095.03-.032.012-.06.03-.091.047-.023.013-.048.023-.07.038a.947.947 0 00-.144.118l-3.447 3.446a.937.937 0 101.326 1.325l1.847-1.846v2.884a6.82 6.82 0 006.812 6.813h5.041a.937.937 0 100-1.876z" fill="#F9BC6E"/></symbol><symbol id="saas" viewBox="0 0 92 93"><g clip-path="url(#clip0_0_2576)" stroke="#F9F4FF" stroke-width=".4"><path d="M29.022 50.174h0l.96.402h0a1.573 1.573 0 002.064-.866h0a1.607 1.607 0 00-.856-2.091h0l-.96-.402s0 0 0 0a5.038 5.038 0 00-3.92.004h0a5.12 5.12 0 00-2.777 2.802h0c-1.083 2.643.164 5.682 2.775 6.776 0 0 0 0 0 0l1.919.803h0a1.994 1.994 0 011.063 2.594 1.962 1.962 0 01-1.064 1.07h0a1.937 1.937 0 01-1.505.005h0l-.96-.402h0a1.574 1.574 0 00-2.063.865h0c-.336.818.05 1.754.855 2.092h0l.96.402s0 0 0 0c.63.263 1.29.395 1.953.395l1.556-14.45zm0 0a1.934 1.934 0 00-1.504.004 1.963 1.963 0 00-1.065 1.07h0a1.994 1.994 0 001.063 2.594h0m1.506-3.668l-1.506 3.668m0 0l1.92.803s0 0 0 0c2.61 1.093 3.857 4.133 2.774 6.776a5.12 5.12 0 01-2.776 2.803M27.516 53.84l1.918 10.383m0 0a5.09 5.09 0 01-1.968.399l1.968-.4zm13.281-.069l-.103-.106-.131.066c-3.295 1.67-7.42-.937-7.354-4.69h0v-.008c-.065-3.754 4.058-6.36 7.354-4.69l.131.066.103-.106c.96-.993 2.707-.286 2.696 1.132v7.204c.01 1.418-1.735 2.125-2.696 1.132zm-2.438-6.734h0-.008c-1.094 0-1.98.899-1.98 2 0 1.1.886 2 1.98 2v0h.008c2.614-.1 2.615-3.9 0-4zm14.668-2.695l.13.066.103-.103c.286-.29.68-.468 1.117-.468.87 0 1.58.714 1.58 1.6v3.626h0v3.576c.011 1.418-1.735 2.125-2.696 1.132l-.102-.106-.132.067c-3.295 1.67-7.419-.938-7.353-4.691h0v-.007c-.066-3.755 4.058-6.36 7.353-4.692zm-2.219 6.695h.008c1.089 0 1.972-.89 1.98-1.985h0v-.03a1.992 1.992 0 00-1.98-1.985v0h-.008c-2.614.1-2.616 3.9 0 4zm14.143-10.844h0l-.96-.402s0 0 0 0a1.933 1.933 0 00-1.504.004 1.962 1.962 0 00-1.065 1.07 1.994 1.994 0 001.063 2.594h0l1.92.803s0 0 0 0c2.61 1.094 3.857 4.133 2.774 6.776a5.135 5.135 0 01-4.743 3.2h0a5.046 5.046 0 01-1.954-.393l-.078.184.078-.184-.96-.402a1.608 1.608 0 01-.856-2.092 1.574 1.574 0 012.064-.866l.96.402a1.961 1.961 0 002.57-1.075 1.994 1.994 0 00-1.064-2.593h0l-1.92-.803s0 0 0 0c-2.61-1.094-3.857-4.133-2.774-6.776h0a5.12 5.12 0 012.776-2.802h0a5.038 5.038 0 013.921-.004l.078-.185-.078.185.96.401a1.607 1.607 0 01.856 2.092 1.574 1.574 0 01-2.064.866z" fill="#F9BC6E"/><path d="M78.437 44.325l.01.16.16.024c18.279 2.652 16.873 29.252-1.702 29.814H11.774c-13.35-.374-14.733-19.384-1.677-21.792l.15-.027.013-.153a19.49 19.49 0 01.84-4.253 1.576 1.576 0 011.986-1.035h0a1.604 1.604 0 011.024 2.012 16.294 16.294 0 00-.758 4.926c0 .886-.71 1.6-1.58 1.6v0h-.008c-10.16.389-10.166 15.13 0 15.522h65.144v0h.007c15.401-.59 15.392-22.926 0-23.512h0-.007a1.59 1.59 0 01-1.58-1.6v-.002c-.27-25.74-35.03-32.803-45.069-9.132v.002a1.58 1.58 0 01-1.412.98 15.78 15.78 0 00-4.847.915h0a1.575 1.575 0 01-2.017-.975h0a1.605 1.605 0 01.964-2.043l-.067-.188.067.188a18.87 18.87 0 014.683-1.028l.114-.01.05-.105c11.726-25.04 48.782-17.872 50.643 9.712z"/><path d="M16.73 43.24c-2.095-.084-2.092-3.114 0-3.2 2.092.085 2.093 3.115 0 3.2z"/></g><defs><clipPath id="clip0_0_2576"><path fill="#fff" transform="translate(.8 .778)" d="M0 0h91v92H0z"/></clipPath></defs></symbol><symbol id="commerce" viewBox="0 0 76 76"><g clip-path="url(#clip0_0_2609)"><path d="M74.716 11.135v4.153h-8.142l-.117.336-2.018 5.822h0l-.002.007L53.798 53.59H7.319l-5.88-34.84h59.57l.118-.334 2.57-7.282h11.02zM50.35 49.44h.358l.115-.34 8.736-25.763.224-.66H6.305l.096.581 4.256 25.763.07.419H50.35zM20.284 60.138a4.652 4.652 0 11-9.304 0 4.652 4.652 0 019.303 0zm29.566 0a4.652 4.652 0 11-9.303 0 4.652 4.652 0 019.304 0z" stroke="#FAF6FF"/><path d="M29.53 46.109l-9.533-12.575h4.573l4.554 5.856.38.49.398-.477 11.274-13.485h4.549L29.53 46.108z" fill="#F9BC6E" stroke="#fff"/></g><defs><clipPath id="clip0_0_2609"><path fill="#fff" transform="translate(.847 .778)" d="M0 0h74.368v74.368H0z"/></clipPath></defs></symbol></svg>