<svg version="1.0" xmlns="http://www.w3.org/2000/svg" width="477.333" height="477.333" viewBox="0 0 358 358"><path d="M15.8 146.8c-1.5.3-1.8 1.6-1.9 8.5-.1 9.5-.1 50.6 0 52.5.1 1.6 25.3 1.6 30.9-.1 11.9-3.5 19-13.5 19.4-27.5.6-17.3-5.6-27.9-18.7-32.2-3.6-1.2-25.2-2.1-29.7-1.2zm25.5 8.3c4.7 1.3 10 5.8 12.2 10.5 2.2 4.6 2.7 15.4 1 20.9-3.2 10.7-9.3 14.5-23.5 14.8l-8.9.2-.3-23.3c-.2-12.9-.1-23.6.1-23.8.9-.8 15.8-.3 19.4.7zm45.7-.9c-4.7 12.2-13.1 34.5-15.1 40.5-1 2.8-2.2 6-2.7 7s-1.2 3-1.6 4.5c-.6 2.7-.5 2.8 3.6 2.8h4.3l3.1-8.8 3.1-8.7h24.6l3.1 8.7 3.1 8.8h4.2c2.4 0 4.3-.2 4.3-.5 0-.5-11.7-32.4-14.5-39.5-.7-1.9-2.8-7.6-4.6-12.5-1.8-5-3.8-9.3-4.3-9.7-.6-.4-2.5-.8-4.3-.8-3 0-3.3.3-6.3 8.2zm11.8 16.1c2.3 6.7 4.2 12.5 4.2 12.9 0 .5-4.3.8-9.5.8h-9.4l1.7-4.3c1-2.3 3.1-8.1 4.7-13 1.6-4.8 3.2-8.7 3.5-8.7.3 0 2.4 5.5 4.8 12.3zm30.1-21c-.3 10.5-.4 57.4-.1 58.4.3.8 2.1 1.3 4.3 1.3h3.9v-22h8.3c10.2 0 14.8-1.2 19.3-5.2 4.4-3.9 6.4-8.6 6.4-15.2-.1-8.9-5.4-16.8-13-19.1-1.3-.4-8.4-.9-15.7-1.1l-13.3-.3-.1 3.2zm26.6 6.1c4.6 2 7.4 6.6 7 11.9-.8 8.9-4.7 11.7-17 12l-8.5.2V154h7.5c4.3 0 9 .6 11 1.4zm24.4-7.1c-.1 2.8-.1 57.8 0 59.4.1.8 1.6 1.3 4.1 1.3h4l-.2-31.3-.3-31.2-3.7-.2c-3.3-.2-3.8.1-3.9 2zm17.1-1.6c0 .3 4.3 6.8 9.6 14.5 5.2 7.7 9.8 14.6 10.1 15.4.3.8-3.9 8-9.6 16.4-5.6 8.2-10.1 15.2-10.1 15.5 0 .3 2.1.5 4.7.3l4.6-.3 7.6-11.2c4.2-6.2 8.1-11.3 8.6-11.3.6 0 4.4 5 8.6 11.2l7.6 11.3 4.6.3c2.6.2 4.7-.1 4.7-.6s-4.5-7.5-10-15.6l-10-14.7 10.5-15.4c5.8-8.4 10.5-15.5 10.5-15.8 0-.8-9.1 0-9.9.9-.5.5-4.2 6-8.3 12.2l-7.5 11.3-8.3-12.3-8.2-12.4-4.9-.1c-2.7 0-4.9.2-4.9.4zm61.2 1.3c-.6 1.1-.8 49.5-.3 59.2.1 1.7 1.7 1.8 19.5 1.8h19.4l-.1-3.8-.2-3.7h-30l-.3-10.3c-.2-9.2-.1-10.2 1.5-10.3 1 0 7.5 0 14.6-.1H295V173l-8.2.1h-14.5l-6.3-.1v-18.9l15.3-.3 15.2-.3.3-3.3c.2-1.7 0-3.3-.5-3.3-.4-.1-9-.3-19.1-.3-15.7-.2-18.4 0-19 1.4zm48.7 1c-.1 4.1-.1 55.3 0 57.7l.1 2.3h38.1l-.3-3.8-.3-3.7H315v-55.2l-4 .1c-3.6 0-4 .3-4.1 2.6z"/></svg>