<svg width="947" height="1080" fill="none" xmlns="http://www.w3.org/2000/svg"><path d="M713 932s-18 31-46 12-5-99 44-75c0 0-29-45-10-95s37-34 37-34-23-25 12-101 64-107 99-95 50 136 9 199c0 0 15-19 21 0s26 91-63 145-103 44-103 44zm-205 64c12.49-3.61-13-122-80-126s-72 28-64 49c0 0-92-110-148-126s-31 14-31 14-68-17-82 5 34 95 123 130 237 67 282 54zm117-234s-27-93-16-128c0 0-27 0-5-57s32-64 47-56 22 46 1 83c0 0 6-23 28-16s-24 148-39 170-16 4-16 4zm-117-92s23.62-1.89 29-14l2-1s5 8-8 15-27 12-23 0z" fill="#F3E7D9"/><path d="M534 644s11 12-5 21-40 15-48-5 14-37 32-33 21 17 21 17zm-154 74c-1 3-15 20-1 31s67.09-41.79 42-50.4c-25.09-8.61-40 16.4-41 19.4z" fill="#992C29"/><path d="M422 713s0 15-17 25-22 10-27 8-4 3-2 5 6 5 20-1 29-20 31-28 1-14-5-9z" fill="#F3E7D9"/><path d="M593.77 845.63a4.36 4.36 0 00-.6 2.42c.15 2.74 1.78 7.43 6 11.53 4.55 4.39 10.1 13.29 11.39 15.41a4.9 4.9 0 00.73.9c1.25 1.17 4.29 8.51 11.46 7.19 11.21-2.08 8.6-12.13 2.55-21s-10.57-20.2-19.24-22.4c-6.91-1.79-10.95 3.7-12.29 5.95z" fill="#C94039"/><path d="M594 842c-.43.73.13 4.2.17 5 .15 2.74 1.78 7.43 6 11.53A58.681 58.681 0 01611.6 874c2.4 5 9.19 9.09 15.4 8 6.21-1.09 5.39-12-.66-21s-10.57-20.2-19.24-22.4c-6.95-1.71-11.77 1.15-13.1 3.4z" fill="#121721"/><path d="M560 753s12 27 17 39 10 33 11 41 1 11 6 11 17 7 22 1-2-26-2-26 2-73-15-90c-21.59-21.59-39 12-39 24z" fill="#273252"/><path d="M596 777l4 45a59.237 59.237 0 00-4 6c-1 2 6 5 6 5s-13 11-8 11 17 7 22 1-2-26-2-26 2-73-15-90c-21.59-21.59-3 36-3 48z" fill="#1D2538"/><path d="M546.64 896.5s-5.1 8.52.86 19.59 8.51 27.25 17 34.92c8.49 7.67 17.88 9.37 25.55 3.41 7.67-5.96.85-26.41-4.26-34.92-5.11-8.51-6.68-17.48-11-25.35-4.32-7.87-17.93-9.57-28.15 2.35z" fill="#121721"/><path d="M497 658c5 0 62 38 78 51s28 19 28 29-4 17-11 21-13 6-31-4-47-28-70-38-24-28-15-44 21-15 21-15z" fill="#273252"/><path d="M575 709c16 13 28 19 28 29s-3 18-10 22l-7-11 5-10-43-49s11 6 27 19zm-97 89c.75 3.93 3 15 10 21s17 22 24 39a148.063 148.063 0 0018 31s3 13 11 17 25-2 25-2 9-3 9-10-9-25-9-25-43-103-49-105-43 13-39 34z" fill="#273252"/><path d="M495 816c.75 3.93 29 61 36 67s9 9 14 9 9 0 2 2-14 8-6 12 25-2 25-2 9-3 9-10-9-25-9-25-43-103-49-105-26 31-22 52z" fill="#1D2538"/><path d="M407 691s2 17 22 45c.76 1.06 9.5 9.12 10.23 10.19C457.84 773.39 476 807 487 813c18.85 10.28 40 8 42-14s-15-44-33-79-35-67-63-54-26 25-26 25z" fill="#273252"/><path d="M504 767l-28 5 11 41s38 22 42-14c2.44-22-15-44-33-79s8 47 8 47zm-88.23-56c2.23-2 32.23 2 38.23 1s31-16 31-16l8-18s2 9 2 8 8-25 8-25-7-5-12-5c-6 0-75.23 55-75.23 55z" fill="#1D2538"/><path d="M365 581c-3.7-3.7-63.15-92.31-71.92-105.39a2.19 2.19 0 00-2.81-.74 2.191 2.191 0 00-1.15 1.42 2.202 2.202 0 00.32 1.8L363 585l2-4z" fill="#D77D5B"/><path d="M295.46 478.84S251 472 237 462s-18-7-11 13 19 51 19 51 45 3 62 3 21.21-2.07 21.21-2.07l-32.75-48.09z" fill="#FFACFF"/><path d="M258.04 497.4l28.8 4.03 2.01 2.75-29.67-3.72-1.14-3.06zm-3.42-7.2l40.21 5.69 2 2.75-41.07-5.38-1.14-3.06zm-3.42-6.2l40.21 5.7 2 2.74-41.07-5.37-1.14-3.07zm52.35 25.13c-2.07-.59-7.35-1.83-9 1.85-2 4.58 3.91 7.78 5.91 7.78l-2 2s3.83-.19 6-2c3.05-2.51 3.7-8.31-.91-9.63z" fill="#3E4C6F"/><path d="M229 497c1 1 16 29 16 29s20-10 18-18-34-11-34-11z" fill="#665070"/><path d="M263 508s-10.49-5.53-26.75-7.26C219.99 499.01 187 504 180 507c0 0-29-71-36-77 0 0 26-7 52-2s36 20 40 29 28 42 27 51z" fill="#BB83C3"/><path d="M207.54 457.56c-.07 2.6-3.07 3.68-6.66 2.4-3.59-1.28-6.37-4.35-6.27-6.9.1-2.55 3-3.61 6.57-2.4 3.57 1.21 6.43 4.34 6.36 6.9z" fill="#F3E7D9"/><path d="M194.36 481.07l3.12-17.57 15.48 11.65 3.94-27.34 23.75 34.95-46.29-1.69z" fill="#F3E7D9"/><path d="M429.45 534.1c2.21-22.06-45.23-20.19-68.89-13.8-14.64 4-28.73 16.87-31 24.58-.78 2.64-3.58 17.42-2.59 24.68 1.07 7.93 16 39.38 28.62 33.57 17.31-7.95 71.64-46.96 73.86-69.03z" fill="#C94039"/><path d="M414.83 544.64c.3-15.39-24.27-27.94-45.95-24.49-25.25 4-38.34 20.61-36.64 29 1.7 8.39 22.39 14.3 40 14.29 17.61-.01 42.45-11.94 42.59-18.8z" fill="#F3E7D9"/><path d="M366.91 557.08c-21.36-5.69-29.29-1.7-29.43-12.9-.19-15 38.94-19.32 48-20.55 9.06-1.23 34.32 16.56 31.61 34.37-2.71 17.81-28.82 4.77-50.18-.92z" fill="#273252"/><path d="M464.8 384.61S450.75 360 450.75 359s2.25-14.25 2.25-21c0-4 6-17 12-16s4 2 0 20c-1.18 5.33 7.14-9.79 11-4 3.86 5.79 10 3 14 6s5.86 20.14 2 24c-3.86 3.86-6.52 15.14-11.35 18-4.83 2.86-15.85-1.39-15.85-1.39z" fill="#F5894E"/><path d="M463 347a57.573 57.573 0 0010.79-3.1C478 342 484 348 477 353c-7 5-11 5-11 5s-15 4-3-11z" fill="#F5894E"/><path d="M586 225s-15.1 48-3.55 82S659 285 630 252s-44-27-44-27z" fill="#665070"/><path d="M604 193c2 2 25 37 69 30s64-26 90-25c0 0-16 47 0 96 0 0-26 0-75 13s-75 22-98 9 8-19 23-30 15.53-20.31 4.26-39.15S604 193 604 193z" fill="#856792"/><path d="M634.27 297.35c13.763 0 24.92-11.157 24.92-24.92 0-13.763-11.157-24.92-24.92-24.92-13.763 0-24.92 11.157-24.92 24.92 0 13.763 11.157 24.92 24.92 24.92z" fill="#F7BC4B"/><path d="M644.94 268.55a3.18 3.18 0 100-6.36 3.18 3.18 0 000 6.36zm-21.39 0a3.18 3.18 0 100-6.36 3.18 3.18 0 000 6.36zm11.26 16.9c3.513 0 6.36-3.085 6.36-6.89 0-3.805-2.847-6.89-6.36-6.89-3.512 0-6.36 3.085-6.36 6.89 0 3.805 2.848 6.89 6.36 6.89z" fill="#121721"/><path d="M626.56 257.7c-1.25-1.42-4.92-1.62-6.78 1.24m21.92-1.24c1.24-1.42 4.92-1.62 6.77 1.24" stroke="#121721" stroke-linecap="round" stroke-linejoin="round"/><path d="M532 451L322.48 127.37a5.264 5.264 0 01.559-6.447 5.259 5.259 0 018.301.767L538 447l-6 4z" fill="#7A462F"/><path d="M331 140l9-5a43.096 43.096 0 014.57-.59c9.65-.39 20.93.09 27.43 3.59 13 7 7 17 44 27s47 10 60 3 25-31 77-17 61 30 61 30-7 51 9 77c0 0-9-18-47-16s-53 11-85 21c-21.54 6.73-50.05 7.47-65 7-7.26-.23-10 5-10 5l-85-135z" fill="#BB83C3"/><path d="M581.66 242.1s32-.37 41.34 15.9c9.34 16.27-9.16 28.41-16 31.84-6.84 3.43-23.21 9-25.32 18.19 0 0-7.91-11.34 0-65.93" fill="#665070"/><path d="M722.335 270.184c5.803-12.741 1.211-27.305-10.259-32.529-11.469-5.224-25.471.869-31.275 13.61-5.804 12.741-1.211 27.304 10.258 32.529 11.47 5.224 25.472-.869 31.276-13.61z" fill="#C94039"/><path d="M691.578 267.073c1.616-.367 2.692-1.691 2.404-2.957-.288-1.265-1.831-1.993-3.447-1.625-1.615.367-2.692 1.691-2.404 2.957.288 1.265 1.831 1.993 3.447 1.625z" fill="#121721"/><path d="M696.15 264.04l-9.58-3.42" stroke="#121721" stroke-width="2" stroke-linecap="round" stroke-linejoin="round"/><path d="M712.061 265.34c1.615-.367 2.692-1.691 2.404-2.957-.288-1.265-1.831-1.993-3.447-1.626-1.616.368-2.692 1.692-2.404 2.958.288 1.265 1.831 1.993 3.447 1.625z" fill="#121721"/><path d="M706.46 263.16l9.58-5.04" stroke="#121721" stroke-width="2" stroke-linecap="round" stroke-linejoin="round"/><path d="M709.24 273.45c.36-2.15-2.8-2.82-6.93-2.35-4.13.47-6.69 2.09-6.93 3.88-.24 1.79 13.5.61 13.86-1.53z" fill="#121721"/><path d="M500.27 213.82c5.16 14.52 1.37 28.29-10.64 31.33-15.33 3.85-37.8-10.51-45.87-33.15s4.58-35.9 23.06-30.91c14.47 3.91 28.28 18.22 33.45 32.73z" fill="#F7BC4B"/><path d="M476.42 223.24c4.12-5.69 11.22-.55 11.22-.55" stroke="#121721" stroke-width="3" stroke-linecap="round" stroke-linejoin="round"/><path d="M489.19 206.93c.71 2 .05 3.57-1.53 3.48-1.58-.09-3.58-1.9-4.34-4-.76-2.1 0-3.66 1.68-3.46 1.68.2 3.47 1.97 4.19 3.98zm-22.51-2.06c.86 2.42-.25 4.27-2.54 4.14-2.29-.13-5.1-2.35-6-4.93-.9-2.58.37-4.41 2.8-4.11a7.844 7.844 0 015.74 4.9z" fill="#121721"/><path d="M552.32 224.16c15.403 0 27.89-12.487 27.89-27.89s-12.487-27.89-27.89-27.89-27.89 12.487-27.89 27.89 12.487 27.89 27.89 27.89z" fill="#F7BC4B"/><path d="M537.16 181.18l8.44 4.6-12.66 3.06m33.89-7.66l-8.44 4.6 12.66 3.06" stroke="#121721" stroke-width="2" stroke-linecap="round" stroke-linejoin="round"/><path d="M567 192.29a62.139 62.139 0 00-30 .47 4.001 4.001 0 00-2.94 4.52c1 7.09 8.4 16.8 18.57 16.8s16.87-9.25 17.58-17.44a3.991 3.991 0 00-.759-2.799A3.994 3.994 0 00567 192.29z" fill="#121721"/><path d="M539 207.73a15.797 15.797 0 0114-7c9.63.44 13.27 6 13.27 6s-3.06 6.69-12.27 7.27c-9.21.58-15-6.27-15-6.27z" fill="#EE5D4F"/><path opacity=".46" d="M331 140l9-5a43.096 43.096 0 014.57-.59c9.65-.39 20.93.09 27.43 3.59 13 7 7 17 44 27s47 10 60 3-61.29 101-61.29 101L331 140z" fill="#FFACFF"/><path d="M468.08 337.81s-4.14 13.3 1.07 15.81 6-6.34 6-6.34-1.22 5.89.16 9.82c1.38 3.93 3.79 2.95 5.71-1s.2-1 .2-1-1.63 7.86 2.77 7.86 8.66-15.86 6.13-19.23c-2.53-3.37-2.37-2.74-6-2.07 0 0-3.09-4.41-7.53-2.85 0 0-1.33-4.61-8.5-1" fill="#F5894E"/><path d="M466 369s5-11.1 2.52-14.55c0 0 6.48 6.55-2.52 14.55z" fill="#CC6D3D"/><path d="M463 347a57.573 57.573 0 0010.79-3.1C478 342 484 348 477 353c-7 5-11 5-11 5s-15 4-3-11z" fill="#CC6D3D"/><path d="M461 347a57.552 57.552 0 0010.79-3.1C476 342 482 348 475 353a87.322 87.322 0 00-10 8s-16 1-4-14z" fill="#F5894E"/><path d="M460 381.44c1.72 5.19 4.42.36 13.27 1.08 7.36.59 13 3.73 14.29-.62 1.51-5.27-4.06-4.79-15.63-4.84-7.43-.06-13.69-.82-11.93 4.38z" fill="#F3E7D9"/><path d="M476.94 487.33a28.179 28.179 0 01-15-9.39c-5-6.16-3.76-12.31-2.63-21.91 2.24-19.09.29-10.69-1.4-23.91-2.15-16.89-5.73-48 8.31-50.21 17.24-2.75 21.26-1.15 22.86 4.4 1.6 5.55-1.09 3.49 0 7.48s3.92 42.09 5.44 50.49c1.52 8.4.72 13.11.72 13.11s.93 9.71.89 14.88c-.04 5.17-.99 17.23-19.19 15.06z" fill="#C94039"/><path d="M476.881 487.81s9.37-17.34 10.14-24.22c1.08-9.7-10.21-72.08-10.21-72.08s6.1-18.53 12.3-5.2c2.43 5.23 1.42 29.09 2.51 33.08 1.09 3.99 1.41 16.49 2.93 24.89 1.52 8.4.72 13.11.72 13.11s.93 9.71.89 14.88c-.04 5.17-1.09 17.73-19.28 15.54z" fill="#992C29"/><path d="M486.52 454.35l-6.71-20.91-8.66-13.62s15.43 9.61 17.16 18.7a26.247 26.247 0 01-1.79 15.83z" fill="#992C29"/><path d="M463.18 571.9c-6.25.54-25.91-30.56-25.91-42.49 0-5.18 11.4-19.68 11.4-19.68l1-5.18C450.49 500.63 454 476 458 472c4-4 10 3 20 3s18.66-14.58 18.34.53c-.32 15.11-11.82 38.6-13.06 50.23-1.24 11.63-13.7 45.58-20.1 46.14z" fill="#273252"/><path d="M463.18 571.9c-6.25.54-25.91-30.56-25.91-42.49 0-5.18 13.58 2 17 2.27s15.57-9.49 15.57-9.49l-3.43-5.54S468 475 478 475s18.66-14.58 18.34.53c-.32 15.11-11.82 38.6-13.06 50.23-1.24 11.63-13.7 45.58-20.1 46.14z" fill="#1D2538"/><path d="M507 648c-2 3-2 5 2 6s3-4 12-5c5.61-.62 12.75 3.84 15 8 1.36 2.52-2.26 6.13 0 5 6-3 7-14-7-18a24.127 24.127 0 00-23 5" fill="#F3E7D9"/><path d="M373.171 552.05s16.169-13.72 47.829-20c10.001-2 26.45 9.63 38 36 11.55 26.37 40.001 83 40.001 83s-21.691 29.68-47.001 47c-18.77 12.84-41.34 15.82-49 11-18-11.37-55.719-140.12-29.829-157z" fill="#F7BC4B"/><path d="M417.93 541.17c2.94 6.85-3.83 19.75-13.12 23.74-9.29 3.99-23.79-2.23-26.74-9.08-2.95-6.85 7.66-10.83 16.93-14.83s20-6.68 22.93.17z" fill="#F5894E"/><path d="M457 666.15l-12.45-60.28-26.28-68.15c12.22-2 36.43 12.27 48 38.64S499.59 651 499.59 651l-7 15L448 708l-43 3 13.671-2.88s25.939-7 29.799-11.87c7.87-10 20.4-42.14 20.4-42.14L457 666.15z" fill="#CE9436"/><path d="M419.361 537.48c1.84-6.65 9.64-10.48 15.64-10.48s-3 0 17 21c5.23 5.49 12.08 10.29 15.51 16 25.55 42.79 55.16 53 61.49 60 7.18 8 15.42 25.78 10 38-2.48 5.58 8-15-14-19-8.85-1.61-19 6-19 6-10-4-34.2-26.65-43.16-47.3-4.61-10.62-15.84-32.31-25.84-45.7-9.48-12.64-18-17.28-17.64-18.52z" fill="#C94039"/><path d="M419.361 537.48c1.84-6.65 9.64-10.48 15.64-10.48s-3 0 17 21c5.23 5.49 12.08 10.29 15.51 16 25.55 42.79 55.16 53 61.49 60 7.18 8 15.42 25.78 10 38-2.48 5.58 8-15-14-19l-9.8-19.54c-10-4-33.23-22.94-33.23-22.94s-34.97-31.13-44.97-44.52c-9.48-12.64-18-17.28-17.64-18.52z" fill="#992C29"/><path d="M406.501 535.5c16.33 5.45 24.16 55.58 17 57.91-7.16 2.33-52.12-38.72-43-48.91" stroke="#992C29" stroke-miterlimit="10"/><path d="M426.445 602.556c1.41-.432 1.882-2.97 1.055-5.668-.828-2.698-2.642-4.535-4.051-4.103-1.41.433-1.882 2.971-1.055 5.669.828 2.698 2.641 4.535 4.051 4.102z" fill="#29ABE2"/><path d="M414.44 531.29c5.94-2.5 8.65-1.52 12.86-.33 4.21 1.19 7.54 5.27 14.74 16.1 7.2 10.83 18.41 43.43 15 44.94-3.41 1.51-14.71-26.86-22-36-7.29-9.14-26.54-22.21-20.6-24.71zM400 722c7.22-2.41 11-10 4-9s-9 6-16 11-15.67 13.66-11 23c2 4 3 4 6-2s5-19 17-23z" fill="#F3E7D9"/><path d="M372.89 556.11c7.18 2.61 23 33.55 28.67 51 5.67 17.45 2.25 45.18 5.73 56.22 3.48 11.04 4.89 46.74 2.65 49.83-.89 1.23-17.58 6.14-23.94 12.81a38.136 38.136 0 00-10 23s-34.79-29.21-17-87c-1-23-24.65-72.24-23-80 1.65-7.76 29.71-28.48 36.89-25.86z" fill="#992C29"/><path d="M381.441 568.54c7.19 2.61 14.46 21.12 20.12 38.6s2.25 45.18 5.73 56.22c3.48 11.04 4.89 46.74 2.65 49.83-1.64 2.27-6.94-40.19-6.94-40.19s-10.36-2.19-11.44-10.36c-.52-4 1.73-55.32 1.73-55.32s-19.03-41.4-11.85-38.78z" fill="#C94039"/><path d="M405.3 618.33c2.23-4.39-.76-11.51-5.51-22.37-4.75-10.86-11.79-28.69-20.41-38.24-9.05-10-29.22.92-20.1 5 9.42 4.21 19.89 11.91 29.71 28.32 10.92 18.25 14.09 31.67 16.31 27.29zm-17.529 68.22l3.9 1s-2.69 15.2-14.84 18.87l-1.21-2.77s8.97-3.43 12.15-17.1z" fill="#F3E7D9"/><path d="M395.551 612.36s9.18 25.3-6.78 34.95a140.97 140.97 0 006.78-34.95z" fill="#C94039"/><path d="M496 626l1 3.79s5 3.21 22 1.21l-1-4s-13 5-22-1z" fill="#F3E7D9"/><path d="M601.8 438.13c18.789 0 34.02-15.231 34.02-34.02s-15.231-34.02-34.02-34.02c-18.788 0-34.02 15.231-34.02 34.02s15.232 34.02 34.02 34.02z" fill="#29ABE2"/><path d="M579.32 406.64l19.09-19.03 27.01 8.3" stroke="#F3E7D9" stroke-width="5" stroke-linecap="round" stroke-linejoin="round"/><path d="M617.21 396.66a4.995 4.995 0 00-3.63-4.53l-11.82-3.55a5.685 5.685 0 00-5.67 1.48l-8 8.21a5.002 5.002 0 00-.93 5.75l8.84 17.11a5.362 5.362 0 006.07 2.6l11.76-2.89a5.337 5.337 0 004.17-5.29l-.79-18.89zm-12.65 13.55a5.588 5.588 0 01-6.601-5.459 5.586 5.586 0 013.342-5.157 5.588 5.588 0 017.679 3.796 5.752 5.752 0 01-4.42 6.82z" fill="#F3E7D9"/><path opacity=".5" d="M631 394.29c0 12.46-55.87 12.46-55.87 0s12.5-22.56 27.93-22.56S631 381.83 631 394.29z" fill="#FFFCF3"/><path d="M556.81 478.96L570 505.07m-23.03 3.27l24.66-18.13m-28.85 9.97l24.66-18.12m-21.09 4.79l13.19 26.11" stroke="#F7BC4B" stroke-width="3" stroke-linecap="round" stroke-linejoin="round"/><path d="M376.21 296.96l-66.46 37.45 52.22 23.21 14.24-60.66z" fill="#33A86D"/><path opacity=".5" d="M376.21 296.96l-25.58 15.56 11.34 45.1 14.24-60.66z" fill="#FFFCF3"/><path d="M376.21 296.96l-3.54 4.01-39.45 43.72 2.9 1.06 40.09-48.79z" fill="#288453"/><path d="M278.74 241.9c.83 1.73 7.18 15.43 3.43 23.82a.94.94 0 001.35 1.19c7.27-4.54 22.86-16.57 22.39-36.1-.6-25.23-27.43 2-27.26 10.7 0 .135.031.268.09.39z" fill="#F7BC4B"/><path d="M282.7 196.89h-21.42c-12.818 0-23.21 10.391-23.21 23.21v9.91c0 12.818 10.392 23.21 23.21 23.21h21.42c12.819 0 23.21-10.392 23.21-23.21v-9.91c0-12.819-10.391-23.21-23.21-23.21z" fill="#F7BC4B"/><path opacity=".5" d="M256.65 213.78a6.738 6.738 0 01-1.958-9.732 6.736 6.736 0 012.888-2.268c10.14-4.06 26.65-.76 30.54-.3 11.64 1.4 14.13 15 13.83 28.35a6.531 6.531 0 01-3.396 5.584 6.543 6.543 0 01-6.534-.144l-35.37-21.49z" fill="#FFFCF3"/><path d="M169.77 377.13c20.794 0 37.65-16.857 37.65-37.65 0-20.794-16.856-37.65-37.65-37.65-20.793 0-37.65 16.856-37.65 37.65 0 20.793 16.857 37.65 37.65 37.65z" fill="#29ABE2"/><path d="M161.08 365.24c-3.26 1.88-6.66 1.09-9-2.93l-4.53-8.58c-2.32-4-2.14-8.07 1.12-10 3.26-1.88 6.47-1.44 8.79 2.58l4.53 8.58c2.34 4.11 2.35 8.47-.91 10.35zm-2.15-20.19c-1.26-2.11-.44-4.41.09-6.82.67-3.05 1.89-10 1.4-11.2-.82-2.06-5-10-4.1-12.2.9-2.2 6.47-2.68 8.83-.3 2.87 2.9 2.87 4.3 3.91 8.42.87 3.49.54 4.19 4 3.08 4-1.29 9.66-1.84 11.4-2.6a4.563 4.563 0 013.662.066 4.558 4.558 0 012.438 2.734 3.073 3.073 0 01-.3 3 5.155 5.155 0 012.5 3.4 7.587 7.587 0 01-.5 4.7s3.5 1.5 2.3 6.5c0 0 2.31 4.57-.7 7.2-2.29 2-6.42 3.67-11.4 5.8-8.4 3.6-14.25 3.75-15.9 2.1-1.65-1.65-7.63-13.88-7.63-13.88z" fill="#F3E7D9"/><path opacity=".5" d="M197.42 334.6c0 16-58.6 16-58.6 0a29.297 29.297 0 0129.3-29.3 29.301 29.301 0 0129.3 29.3z" fill="#FFFCF3"/><path d="M319.8 409.61a12.525 12.525 0 01-1.11 9.647 12.525 12.525 0 01-7.665 5.962 12.548 12.548 0 01-13.313-4.603 12.545 12.545 0 01-2.122-4.476m-.02-40.06s10.64-6.88 18.83 8.51c2.48 4.66 4.2 8 7.38 13.72 1.44 2.57 7.48 8.36 7.48 8.36l-23.71 6.4" stroke="#F7BC4B" stroke-width="3" stroke-miterlimit="10"/><path d="M299.94 374.9s-12.66-.59-12 16.83c.2 5.27.4 9 .52 15.56.05 2.95-2.27 11-2.27 11l23.72-6.39" stroke="#F7BC4B" stroke-width="3" stroke-miterlimit="10"/><path d="M172.52 605.79c11.29 16.42 32.65 20.76 48.34 11.2 15.38-9.37 21.56-29.87 13.45-47.32-8.92-19.16-31.67-27.89-50.36-17.5-19.13 10.63-23.89 35.53-11.43 53.62z" fill="#EE5D4F"/><path opacity=".5" d="M199.51 574.41s36.41 12.12 29.33-3.1c-7.79-16.72-27.63-24.31-43.93-15.31-16.69 9.31 14.6 18.41 14.6 18.41z" fill="#FFFCF3"/><path d="M179.941 586.05c-.12-13.9 15.84-9.15 17.88-8.48.46-2.1 4.38-18.06 16-11 17 10.45 1.67 35.51-.15 38.35l.07.13h-.16a1.193 1.193 0 01-.09.14l-.07-.13c-3.36.3-33.29 1.83-33.48-19.01z" fill="#FFFCF3"/><path d="M394.54 621.78l49.95-20.44a9.092 9.092 0 0111.7 4.63l19.52 42.67a9.08 9.08 0 01.231 7.02 9.073 9.073 0 01-4.851 5.08l-53.55 23.38a9.068 9.068 0 01-12.21-5.32l-15.93-45.62a9.088 9.088 0 015.14-11.4z" fill="#F3E7D9"/><path d="M433.31 661.18c10.344 0 18.73-8.386 18.73-18.73 0-10.345-8.386-18.73-18.73-18.73-10.344 0-18.73 8.385-18.73 18.73 0 10.344 8.386 18.73 18.73 18.73z" fill="#29ABE2"/><path d="M425.58 634.51l8.17 19.51 8.75-15.8-16.92-3.71z" fill="#C94039"/><path opacity=".5" d="M409.31 618.79l36-14.73a6.552 6.552 0 018.43 3.34l14.07 30.74c1.51 3.33-61.73-18.03-58.5-19.35z" fill="#FFFCF3"/><path d="M373.52 523.21l12.94 34s4.63 6 14.84 2.52 9.91-12.28 9.91-12.28l-14.12-38.15-23.57 13.91z" fill="#F5894E"/><path d="M373.52 523.21s16.9 20 22.88 23S410 546 410 546l-11.66-37-24.82 14.21z" fill="#CC6D3D"/><path d="M354.1 517.77c16.4 17 25.6 18.5 25.6 18.5 33.09-8.93 38.22-38.51 29-58-8.8-20.51-12.95-25.51-35.95-17.4-32.06 11.28-33.26 41.77-18.65 56.9z" fill="#1D2538"/><path d="M354.1 517.77C370.5 534.76 378 529 378 529c33.1-8.92 39.92-31.24 30.68-50.74-8.8-20.51-11-29.14-38.22-21.2-37.83 11.03-30.97 45.58-16.36 60.71z" fill="#3E4C6F"/><path d="M352.05 518.81c14 14.49 33.21-7.32 33.21-7.32 3.73-4.84-1.06-23-4.39-34.95-2.87-10.3-.76-21.85-27.1-8.59-23.41 11.79-14.17 37.96-1.72 50.86z" fill="#1D2538"/><path d="M373.51 463.35s20.5 2.42 24.59 4.51 19.46 35.51 18.15 48.42c-1.3 12.74-36.87 24.58-47.71 19.78-8.88-3.92-9.74-10.89-15.13-20.92-5.68-10.57-.79-20.71-1.59-25.34-1.39-7.92 21.69-26.45 21.69-26.45z" fill="#CC6D3D"/><path d="M345.54 517.09c3.8 5.74 10.09 9.47 12.55 8.19 2.46-1.28 1.41-7-2.4-12.8-3.81-5.8-8.93-9.45-11.39-8.11-2.46 1.34-2.56 6.97 1.24 12.72z" fill="#CC6D3D"/><path d="M397.54 473.89c6.92 1.5 22.5 37.77 14.82 46.57-7.68 8.8-16.9 10.52-25.85 7.13-7.84-3-13.95-29.89-8-38.69 7.2-10.77 12.1-16.5 19.03-15.01z" fill="#F5894E"/><path d="M347.89 483.39s7.95 15.68 7.88 21.26l-1.56 8.8-10.34-22.61 4.02-7.45zm47.17-28.63s-3.85 8.59-23.82 15.29c-9.91 3.32-17.18 9.73-22.32 10.33-12.64 1.46.05-27.41 20.19-34.92 20.36-7.58 25.95 9.3 25.95 9.3z" fill="#1D2538"/><path d="M369.14 445.17c-15.93 6.7-28.09 27.37-17.91 26.19 2.89-.34 7.45-1 12.88-2.14 8.75-4.42 16.8-12.27 16.8-12.27.83 4.65-3.72 8.1-9.08 10.5a148.448 148.448 0 0015-4.62c8.36-3.1 9.4-2.95 9.07-5.95-.65-6.11-9.55-18.94-26.76-11.71z" fill="#3E4C6F"/><path d="M369.82 491c.74 2.41 2.2 3.12 3.41 2.75 1.21-.37 1.7-1.68 1-4.1s-2.32-4.07-3.53-3.7c-1.21.37-1.62 2.61-.88 5.05zm20.29-6c.74 2.41 2.2 3.12 3.41 2.75 1.21-.37 1.7-1.68 1-4.09s-2.32-4.07-3.52-3.7c-1.2.37-1.63 2.63-.89 5.04zm-26.11.09a.783.783 0 00.5-.62c0-.18.72-4.41 4.22-4.64a.792.792 0 00.295-.078.758.758 0 00.242-.186.768.768 0 00.193-.566.79.79 0 00-.83-.74c-3.81.25-5.38 4-5.67 6a.79.79 0 00.66.89c.133.01.266-.01.39-.06zm33-10.41a.78.78 0 00.35-1.2c-2.17-2.9-6-2.19-7.66-1.41a.777.777 0 00-.38 1 .788.788 0 001 .39c.16-.08 3.81-1.68 5.76.92a.785.785 0 00.93.3z" fill="#34283A"/><path d="M285.63 650.53s36.61-55.67 43.48-64.56c7-9.07 16.18-17.07 27.63-11.74s21.07 21.67 11.73 34c-9.34 12.33-30.25 43.62-37.35 49.46-7.1 5.84-19.77 18.31-19.93 12.68-.16-5.63-25.56-19.84-25.56-19.84z" fill="#1D2538"/><path d="M285.63 650.53c-1.69-2.21 10.49-16.18 22.37-32.53 9.21-12.68 18.11-28.15 21.11-32 7-9.07 23.57-19.46 22.89-6.86-1.07 19.67-36 29-29.53 57.89 4.59 20.49-33.83 17.42-36.84 13.5z" fill="#273252"/><path d="M341.571 598.53s-15.19 5.27-22.84 20 22.84-20 22.84-20z" fill="#273252"/><path d="M370 652s-14-2-36-5-31-18-42-9-14 29-5 37 43 11 60 14 23 11 27-2 2-30-4-35z" fill="#C94039"/><path d="M370 652s-14-2-36-5 24.54 16.81 24.54 16.81S370 700 374 687c4-13 2-30-4-35z" fill="#992C29"/><path d="M377.32 657.24s-7.79-2.37-10.38 7.88c-2.59 10.25.48 22.22 5.86 23.73 5.38 1.51 4.52-4.8 4.52-4.8s-3.46-1.58-3.46-8.68 6.06-14.19 6.06-14.19l-2.6-3.94z" fill="#F3E7D9"/><path d="M373.18 679.44c-3-5.25-1.57-10.23-.09-16.92 1.85-8.33 5.69-16.53 7.91-21.52 4-9 11.56-8.44 16.11-9.63 7.62-2 10.58-1.58 10.58-1.58s5.94 2.18 4.85 4.16c-1.09 1.98-9.86 1.7-9.69 2 .17.3 1.77-.38 3.66.7a4.697 4.697 0 012.07 4A3.824 3.824 0 01408 643a2.4 2.4 0 012.77 1.59c.479 1.334.745 2.734.79 4.15a9.002 9.002 0 01-1.39 3.56s1.39-1 2.38 1.58-.45 5.87-.54 6.46c-1 7-18 10.62-18 10.62a16.685 16.685 0 01-8.16 10.62c-7 4-7.39 3.78-8.84 2.38a52.226 52.226 0 01-3.83-4.52z" fill="#F5894E"/></svg>