<svg width="759" height="854" fill="none" xmlns="http://www.w3.org/2000/svg"><path d="M426.938 627.848s18.184 7.117 36.368 7.908c18.185.79 26.091-2.373 20.557-4.745-5.535-2.372-.791-3.163-.791-3.163s-2.372 1.582 66.413 3.163c68.784 1.582 105.153-.791 110.687 1.582 5.534 2.372 50.6 3.163 51.391-1.582.79-4.744.79-15.815-15.022-17.396 0 0 .791-60.096-7.906-81.446s-14.232-42.7-28.463-52.189c-14.231-9.489-18.184-11.071-18.184-11.071s4.949-45.53-28.463-100.424c-22.137-36.374-41.674-40.66-41.674-40.66s-8.483-20.638-16.832-48.693c-11.946-40.146-49.019-49.817-54.553-56.934-5.535-7.116-46.647-11.07-49.81 13.443-3.162 24.513-5.534 69.585-5.534 69.585s-31.625-3.954-31.625 71.167c0 75.12 13.441 251.455 13.441 251.455z" fill="#F3E7D9"/><path d="M480.305 375.997s36.463.68 44.275 4.057c7.811 3.376 11.859 26.782 11.859 46.551 0 0 5.123-40.265-9.321-48.417-14.445-8.153-46.813-2.191-46.813-2.191zm44.67 54.957s-33.206 3.163-34.787 12.652c-1.581 9.489-4.744 86.19-4.744 86.19s-1.581-9.488-.79-23.722c.79-14.233.79-56.933 1.581-62.468.79-5.535 10.278-15.815 38.74-12.652z" fill="#FFFCF3"/><path d="M502.047 524.261s-15.813 3.163-23.719 10.28c-2.941 2.641 0 77.492 0 77.492l3.163.791s-.791-69.585-.791-72.748c0-3.163-2.372-5.535 7.906-9.489 10.278-3.954 13.441-6.326 13.441-6.326zm69.804-196.436s-8.697-4.744-26.09 0c0 0 17.393-3.163 26.09 0zm70.137 141.084s-16.603-11.861-28.463-8.698c0 0 15.813 2.372 28.463 8.698zM505.209 285.458s-3.162-17.397-7.115-19.769c-5.969-3.582-7.116-4.744-27.672-6.326 0 0 21.75-1.407 29.253 3.954 5.534 3.954 5.534 22.141 5.534 22.141z" fill="#FFFCF3"/><path d="M268.022 653.943s-138.359 0-173.937-1.582c-35.578-1.581-41.508 7.512-37.555-36.769 3.953-44.282 9.487-91.726 31.625-115.448 0 0 7.116-60.097 23.719-83.819s36.368-26.885 36.368-26.885 4.744-7.117 10.279-5.535c0 0-8.697-11.861-1.582-41.119 7.116-29.257 24.51-105.959 76.691-89.353 0 0 41.903-26.095 62.459-22.932 20.557 3.163 68.785 85.4 75.11 123.356 6.325 37.955-4.744 295.341-4.744 295.341l-98.433 4.745z" fill="#F3E7D9"/><path d="M222.166 407.232s13.441-4.745 19.766 0c6.325 4.744 7.906 9.489 16.603 11.861 8.697 2.372 14.231 18.978 15.022 38.746.79 19.769 0 26.885 0 26.885s-3.163-47.444-7.907-54.561c-4.743-7.116-15.812-12.652-21.346-17.396-5.535-4.745-7.907-7.908-22.138-5.535zm36.369 80.655s13.44-2.372 23.718 3.163c11.583 6.239 18.975 30.839 18.975 30.839s-6.135-31.495-15.812-34.002c-21.347-5.535-26.881 0-26.881 0zm30.044 29.257s-3.163-3.953-9.488-3.162c-6.325.79-12.65 12.651-14.231 26.094-1.581 13.443.79 41.118 3.953 49.817 0 0-.791 23.722 0 31.629.791 7.908 3.953 24.513 3.953 24.513l1.581-1.581s-6.325-36.374-1.581-55.352c0 0-8.697-22.141-3.953-48.235 4.744-26.095 7.906-25.304 19.766-23.723zm-37.16-216.663s-36.369 4.745-40.322 9.489c-3.953 4.745-11.859 29.258-11.069 45.863.459 9.608 2.372-34.792 15.813-44.281 5.779-4.08 35.578-11.071 35.578-11.071z" fill="#FFFCF3"/><path d="M202.4 357.415s1.581-7.117-22.841 6.547a15.925 15.925 0 00-4.04 2.942c-7.116 7.907-3.163 33.211-3.163 33.211s3.163-26.885 7.116-31.63c7.297-8.761 22.928-11.07 22.928-11.07zM101.991 494.213s16.777-.585 27.672.791c6.048 3.803 15.812 8.793 15.812 18.187v38.746s-3.953-35.583-7.906-43.491c-3.953-7.907-18.185-11.861-35.578-14.233z" fill="#FFFCF3"/><path d="M309.925 657.896V355.161s42.979-8.564 69.251-8.564c26.273 0 64.365 8.564 64.365 8.564v301.944l-133.616.791z" fill="#BB83C3"/><path d="M309.925 657.896V396.232l.443-42.131 46.133-6.563-.071 52.411 59.028-38.335 28.083 45.072v250.419s-15.884 7.671-66.555 7.671c-50.671 0-67.061-6.88-67.061-6.88z" fill="#856792"/><path d="M310.368 654.409l-.388-258.019 37.294 79.715 5.629 68.818 24.802 20.196-15.417 99.926-36.282-2.499-15.638-8.137z" fill="#665070"/><path d="M414.209 422.295l-2.562 40.62s12.65 4.745 15.812 13.443c3.163 8.698-4.743 107.541-4.743 107.541l6.325 30.048 1.431 25.446 2.83.996 2.064-24.07-7.116-33.211s4.744-89.354 4.744-102.796c0-13.443-17.394-22.141-17.394-22.141l-1.391-35.876zm-15.631-7.251l-13.37 43.712 13.765 15.016 7.013 53.984 4.064-52.315-6.072-16.685-5.4-43.712z" fill="#BB83C3"/><path d="M381.098 570.891l-10.903 91.829 9.606.031h3.162l2.088-75.357-3.953-16.503z" fill="#665070"/><path d="M335.391 563.071l-4.38 36.287 11.33 20.583 2.372 19.768 1.581-18.187-7.772-20.915-3.131-37.536z" fill="#856792"/><path d="M394.143 591.403l4.593-30.412-1.708-20.812-8.396-5.591 5.511 56.815zm6.934-12.383l6.562 84.467-12.192.933 5.63-85.4z" fill="#665070"/><path d="M391.375 360.673l7.511 34.721 21.355-39.237-28.866 4.516zm52.166-5.512l-14.002 25.217 14.002 26.276v-51.493zM331.328 371.15v41.292l16.887 10.328.941 44.107 9.377-38.477-21.892-25.494 3.755-47.547-9.068 15.791z" fill="#BB83C3"/><path d="M372.923 496.751l7.51 47.547-20.018-2.498-5.005-60.065 17.513 15.016z" fill="#665070"/><path d="M435.69 637.495s-1.304-12.509 7.353-12.525c8.658-.016 4.641 11.861 4.641 11.861s13.512-.625 12.959 3.163c-.554 3.787-5.725 8.935-5.725 8.935s14.548-3.566 13.37 1.479c-1.178 5.045-17.101 7.401-17.101 7.401s46.069 3.788 17.441 4.658c-28.629.87-15.346 1.154-27.332 1.376-11.986.221-15.599-2.112-18.295-6.927-2.696-4.816 10.136-2.973 10.136-2.973s-15.212-13.206-10.278-19.84c4.933-6.635 12.831 3.392 12.831 3.392zm-118.444 22.544s-9.376-27.526-16.887-27.526c-7.511 0 1.873 14.392 1.873 14.392s-7.503-8.137-12.507-3.756c-5.005 4.381 14.389 13.767 14.389 13.767s-31.277.624-20.643 3.756c10.634 3.131 33.775-.633 33.775-.633z" fill="#33A86D"/><path d="M307.87 661.921s5.004-21.895 14.381-26.276.625 14.383.625 14.383 22.525-1.249 10.641 7.513c-11.883 8.761-17.52 5.63-25.647 4.38zm24.984 11.308c-3.36.084-6.705.473-9.994 1.162l1.913 4.23-12.689-.332c-6.096 3.78-3.993 8.216 16.113 7.797 33.807-.712 26.004-13.387 4.657-12.857zm138.818 61.179l-14.769 7.236a10.165 10.165 0 01-6.839.79l-17.03-4.032a10.213 10.213 0 00-5.187.118c-14.444 4.191-23.647 10.509-23.647 17.578 0 12.652 29.253 22.837 65.369 22.837 36.115 0 65.368-10.224 65.368-22.837 0-11.797-25.608-21.5-58.506-22.702a10.158 10.158 0 00-4.759 1.012z" fill="#33A86D"/><path d="M431.413 758.581l-.925-20.82c-15.955 4.167-26.288 10.818-26.288 18.306 0 12.652 29.253 22.836 65.369 22.836 36.115 0 65.368-10.224 65.368-22.836 0 0-11.859 15.332-46.291 19.088l-57.233-16.574zm-73.212-91.552c-18.271.744-13.029 8.793 5.218 7.829 21.26-1.147 13.053-8.58-5.218-7.829z" fill="#288453"/><path d="M375.207 660.972c-18.271.743-13.029 8.793 5.226 7.829 21.252-1.115 13.046-8.58-5.226-7.829zm35.658 5.622c-18.272.744-13.03 8.793 5.218 7.829 21.26-1.107 13.053-8.572-5.218-7.829zm88.423 26.19l24.209 1.684a2.475 2.475 0 00.791-1.684c0-4.144-14.279-7.504-31.902-7.504s-31.902 3.36-31.902 7.504c0 4.143 14.287 7.512 31.902 7.512 3.258 0 6.396-.119 9.361-.332l-2.459-7.18z" fill="#33A86D"/><path d="M441.731 663.17s-11.86.625-8.128-7.504c3.732-8.128 7.503 4.373 7.503 4.373s3.755-10.011 5.629-10.011c1.874 0 .633 6.888.633 6.888s6.254-1.25 6.254 3.163c0 4.412-11.891 3.091-11.891 3.091z" fill="#288453"/><path d="M314.748 604.363c3.447 1.637 8.792 11.245 11.258-.624 2.42-11.624-11.258-8.762-11.258.624z" fill="#33A86D"/><path d="M314.748 580.585c-11.258-1.249-11.859 9.387-6.254 10.636 5.606 1.249 17.513-9.386 6.254-10.636z" fill="#288453"/><path d="M348.516 611.701c-6.507 3.25-3.716 12.075 3.708 6.967 7.424-5.109 2.767-10.217-3.708-6.967zm-26.265-33.614c-7.503-3.163-9.377 8.753-1.874 10.635 7.503 1.882 9.385-7.528 1.874-10.635zm-17.512-6.603c-7.503 4.697 0 6.263 8.136 2.744 8.135-3.519-.633-7.441-8.136-2.744zm48.56 81.518a2.709 2.709 0 00-.487-2.477 2.704 2.704 0 00-2.319-.995c-4.934.309-10.721 8.01-5.717 10.509 5.005 2.499 7.97-5.472 8.523-7.037zm-6.649-19.864c-7.503-1.874-13.132 8.137-.624 11.26 12.507 3.124 8.175-9.378.624-11.26z" fill="#33A86D"/><path d="M351.038 626.883c-4.38 3.757 2.498 10.636 8.76 5.006 6.262-5.63-4.388-8.785-8.76-5.006z" fill="#33A86D"/><path d="M285.1 744.34l-5.068 5.796s-8.215-2.372-14.232-3.953c-5.241 1.178-9.44 2.957-11.63 5.424-11.416 12.842 51.391 18.551 64.199 5.709 7.717-7.773-13.053-12.921-33.269-12.976z" fill="#288453"/><path d="M321.627 727.924l4.119-4.602c-10.136-.688-21.584.546-25.094 4.491-7.369 8.295 33.206 11.988 41.468 3.693 1.099-1.099 1.304-2.111.79-3.028l-21.283-.554zm-216.473-58.167l18.745-1.462c-.735-4.998-27.363-6.698-32.415-1.005-3.281 3.693 5.913 6.192 15.385 6.326l-1.715-3.859zm11.693-11.861c-.791.854-.854 1.637-.427 2.372l8.159-.506 1.676 4.096c8.144 1.044 18.794.301 22.217-3.163 6.325-6.326-26.004-9.125-31.625-2.799z" fill="#33A86D"/><path d="M493.271 727.236s2.728 28.016-16.698 28.941c-19.425.925-20.872-29.431-20.872-29.431l11.487 5.1 6.325-14.027 10.35 14.889 9.408-5.472z" fill="#FFACFF"/><path d="M674.72 645.434c-3.526 3.954 7.266 6.556 17.394 6.397l-.38-5.282 10.729 3.859a9.986 9.986 0 004.001-2.151c6.364-6.349-26.099-9.172-31.744-2.823zm-8.476-6.452l6.784-1.582c-5.535-2.641-21.632-2.973-25.158.989-4.427 4.981 18.319 7.346 25.3 3.163l-6.926-2.57zm-164.877-5.844l12.864 1.036c4.198-4.879-20.778-6.982-25.174-2.04-2.791 3.163 5.819 5.187 13.852 5.037l-1.542-4.033z" fill="#33A86D"/><path d="M316.251 216.663l-1.582 111.495" stroke="#F7BC4B" stroke-miterlimit="10"/><path d="M315.855 115.448l-1.581 78.181" stroke="#FEED7F" stroke-miterlimit="10"/><path d="M436.821 251.06v90.145" stroke="#F7BC4B" stroke-miterlimit="10"/><path d="M415.237 324.069v-53.304l-5.408 10.138v53.493l5.408-10.327z" fill="#FEED7F"/><path d="M433.287 106.347v61.005m-38.37 29.938v-46.654m-17.828-15.19V63.362" stroke="#F7BC4B" stroke-miterlimit="10"/><path d="M346.025 181.428v-95.68l-4.688 11.22v90.09l4.688-5.63z" fill="#FEED7F"/><path d="M352.414 271.517v58.767" stroke="#F7BC4B" stroke-miterlimit="10"/><path d="M330.837 172.042v58.759" stroke="#FEED7F" stroke-miterlimit="10"/><path d="M283.55 163.984l-4.143 10.406 4.143 9.932 3.677-9.932-3.677-10.406z" fill="#FEED7F"/><path d="M292.721 269.927l-4.142 10.406 4.142 9.932 3.677-9.932-3.677-10.406z" fill="#F7BC4B"/><path d="M374.567 156.796l-4.143 10.398 4.143 9.932 3.676-9.932-3.676-10.398z" fill="#FEED7F"/><path d="M475.901 231.869l-4.143 10.398 4.143 9.932 3.677-9.932-3.677-10.398z" fill="#F7BC4B"/><path d="M403.789 94.541l-6.468 10.398 6.468 9.94 5.732-9.94-5.732-10.398zm45.942 86.262l-5.961 14.961 5.961 14.289 5.29-14.289-5.29-14.961zM326.908 60.444l-5.329 13.372 5.329 12.77 4.728-12.77-4.728-13.372z" fill="#FEED7F"/><path opacity=".39" d="M375.429 319.064c43.874 0 79.442-35.573 79.442-79.454 0-43.881-35.568-79.453-79.442-79.453-43.875 0-79.442 35.572-79.442 79.453s35.567 79.454 79.442 79.454z" fill="#FEED7F"/><path d="M377.824 213.334l-39.934 32.745.624 3.123 39.31 26.695s.206-62.563 0-62.563z" fill="#C94039"/><path d="M377.824 213.334l-17.204 35.243.206 2.088 16.998 25.232v-62.563z" fill="#EE5D4F"/><path d="M342.27 251.084l22.311.206-20.224 1.043-2.087-1.249z" fill="#EE5D4F"/><path d="M378.022 213.334l39.926 32.745-.624 3.123-39.302 26.695s-.214-62.563 0-62.563z" fill="#C94039"/><path d="M378.022 213.334l17.204 35.243-.214 2.088-16.99 25.232v-62.563z" fill="#EE5D4F"/><path d="M413.576 251.084l-22.311.206 20.224 1.043 2.087-1.249zm-75.686-5.005l40.132-32.745-33.665 39.157-5.835-3.289-.632-3.123zm40.132-32.745l39.927 32.745-.625 3.123-3.748 1.882-35.554-37.75z" fill="#EE5D4F"/><path d="M225.329 728.446l-4.072 59.851-18.453 1.582c-7.82-19.397-6.088-60.84-6.088-60.84l28.613-.593z" fill="url(#paint0_linear_0_2929)"/><path d="M188.383 739.706l-3.748 39.174-18.769.632c-7.82-19.397-4.38-39.418-4.38-39.418l26.897-.388z" fill="url(#paint1_linear_0_2929)"/><path d="M556 726.983v5.006s-2.499 3.756-2.499 5.005 2.499 5.424 2.499 5.424l3.763 46.298 22.517-1.668s1.249-41.712 1.669-47.966a107.43 107.43 0 000-12.51s-22.525 3.337-27.949.411z" fill="url(#paint2_linear_0_2929)"/><path d="M595.618 726.153s-.419 12.51.838 14.597c1.257 2.088 7.116 46.298 7.116 46.298h21.655s0-46.717.419-51.303l.79-9.173s-25.814 1.25-30.818-.419z" fill="url(#paint3_linear_0_2929)"/><path d="M305.68 679.483s-9.993 2.768-26.494 3.361c-16.5.593-1.099 5.891 16.508 6.516 0 0-16.263 4.618.609 6.982s61.471-2.863 61.471-2.863 20.051 13.712 55.494 10.936c23.806-1.858 34.195-7.116 34.195-7.116s-9.907 11.45-39.61 11.45a133.293 133.293 0 01-53.383-11.703s-56.578 10.082-76.383 8.302c-19.805-1.779 1.099-14.233 1.099-14.233s-24.209-6.326-6.601-9.275a182.387 182.387 0 0133.095-2.357zm192.541-27.415s7.906 11.434-9.329 13.649c-17.236 2.214-40.836.719-40.836.719s-5.123 12.573-29.672 12.581c-24.549.008-36.725-3.954-36.725-3.954s7.993 10.683 46.315 10.185c38.322-.498 26.352-13.688 26.352-13.688s69.108-.3 43.895-19.492zm149.571 8.264s-.001 2.744 10.95 3.424c10.95.68 16.453-4.104 16.453-4.104s7.534 10.951 36.289 7.527c28.755-3.423 6.159-17.111 6.159-17.111s35.578 15.743-.688 22.591c-36.266 6.848-41.76-6.16-41.76-6.16s-13.71 11.64-27.403-6.167zM538.693 777.354s-24.399 11.26-54.419 10.279c0 .04 43.161 8.485 54.419-10.279zm-219.446-10.335s-15.282 12.509-31.965 6.95c0 0-16.903 6.255-31.965-4.863 0 0 5.535 11.814 31.965 9.03 0 .008 28.495 9.046 31.965-11.117zm-203.815 5.851s67.535-3.48 67.535 1.265c0 4.744-18.453 10.635-18.453 13.442 0 2.808 20.849 5.211 20.849 11.466 0 6.255-23.663 8.453-24.288 3.756-.214-1.581 13.298-3.542 14.073-4.38 1.486-1.582-7.195-3.44-7.195-3.44s-34.336-4.547-27.316-6.777c6.879-2.19 26.376-9.592 21.347-12.098-4.206-2.119-46.552-3.234-46.552-3.234zM58.27 670.05s0 7.725 23.774 5.63c0 0-8.697 7.907 5.005 10.011 13.701 2.103 41.286-3.748 41.286-3.748s-17.315 10.746-42.947 7.638c-25.632-3.108-12.255-9.489-12.255-9.489s-28.067-.624-14.863-10.042zm489.808 55.265c.656-.064-6.673.838-4.799 3.55 1.874 2.712 26.691 3.954 35.451 2.499 0 0-12.515 3.55-25.853 2.293-13.338-1.257-24.193-6.46-4.799-8.342zm81.007-7.402s10.325 3.44 13.441 4.697c3.115 1.258-8.128 3.748-8.128 3.748s5.89 3.654 17.512-2.498c5.329-2.815-22.825-5.947-22.825-5.947z" fill="#F3E7D9"/><path d="M649.42 735.744c-.735-.316-20.643 8.762-63.772 5.211 0-.031 52.095 12.304 63.772-5.211zm-107.596 13.601s42.749 5.947 83.197 4.547c0 0-58.933 6.255-83.197-4.547z" fill="#FFFCF3"/><path d="M576.224 738.876s-45.065 1.249-50.038-5.005c0 0 18.761 13.759 50.038 5.005zm-469.995 21.895s-11.258 4.579 4.483 5.836c7.819.625 21.584.941 21.584.941s-24.051 2.617-34.092-.316c-7.51-2.183-2.609-4.958 8.025-6.461z" fill="#F3E7D9"/><path d="M195.791 751.994s-2.577.997.467 2.373c2.119.941 12.333 1.289 22.366 1.407-8.712 1.194-49.785 4.571-22.833-3.78z" fill="#FFFCF3"/><path d="M237.188 782.881s-23.956 4.191-34.131-.593c0 0 25.522 1.644 31.586-.791 6.064-2.436.901-4.262.901-4.262s21.734 1.233 1.644 5.646z" fill="#F3E7D9"/><path d="M227.147 737.294a31.065 31.065 0 01-12.397 3.243c-7.471.458-14.073.347-14.073.347s7.677 4.745 29.253 1.337c21.577-3.408-2.783-4.927-2.783-4.927zm3.716 21.343s11.069 4.744-16.421 6.413c-27.672 1.715-60.681 0-60.681 0s20.643 5.005 55.051 3.163c34.408-1.843 30.819-9.426 22.051-9.576z" fill="#FFFCF3"/><path d="M229.045 725.109s15.638-.206 17.931 1.249c2.293 1.455-3.542 3.337-3.542 3.337s17.766-.79 9.385-3.756c-7.092-2.498-23.774-.83-23.774-.83zm-85.388 4.065s-47.54 1.257-39.096-2.816a35.943 35.943 0 0116.603-3.439s-13.765 2.506-7.82 4.064c5.946 1.558 30.313 2.191 30.313 2.191z" fill="#F3E7D9"/><path d="M562.135 591.846c-2.996 7.551-8.46 26.648-3.755 35.978 4.704 9.331 49.674 32.539 64.333 6.777 6.167-10.841.624-37.813-4.705-45.365-5.328-7.551-52.861-4.942-55.873 2.61z" fill="#F7BC4B"/><path d="M622.515 598.733l2.506 12.193-7.511-5.314-31.585 4.689-27.008-6.776 32.321-1.977 31.277-2.815z" fill="#CE9436"/><path d="M556.522 618.438c-.625 7.117-.728 3.859-1.147 32.634-.364 25.114-.625 71.538-.625 71.538s3.954.625 13.552 1.455a44.74 44.74 0 0016.476-1.455s.831-30.657.625-51.935c-.087-8.762 9.171-21.683 8.341-37.956-.83-16.273-36.598-21.374-37.222-14.281z" fill="#F7BC4B"/><path d="M555.581 642.524l-.206 8.548c-.364 25.114-.625 71.538-.625 71.538l6.468.625 4.585-36.287-10.222-44.424z" fill="#FEED7F"/><path d="M587.901 652.741s5.005 47.136 5.424 54.64a106.822 106.822 0 002.087 15.024l12.089.419 18.769-.206s-2.498-35.037-3.755-46.298c-1.257-11.26 9.076-48.488-.309-56.933-9.384-8.445-35.973 5.409-34.305 33.354z" fill="#F7BC4B"/><path d="M594.368 651.91l2.088-17.728-7.717 23.983 5.21 55.21 1.511 9.022 4.538.419-7.503-54.221 1.873-16.685z" fill="#FEED7F"/><path d="M596.243 634.498s14.12-4.175 22.817-5.424c0 0-20.73 1.249-22.817 5.424z" fill="#CE9436"/><path d="M609.802 511.348c1.249-8.342 7.906-15.024 14.595-4.167 6.688 10.857 4.301 15.143 6.562 19.444 1.731 3.282 3.597 11.458 4.23 17.673 1.004 9.995 4.743 19.603 2.134 24.608-4.174 7.908-14.595-.419-19.18-15.427-4.309-14.107-9.598-33.788-8.341-42.131z" fill="#7A462F"/><path d="M621.06 560.145s-15.812 5.843-16.682 15.815c-.87 9.971 21.268.83 27.941-1.669 6.672-2.499 10.46-18.313-11.259-14.146z" fill="#7A462F"/><path d="M579.963 483.182l2.238 21.176 24.565 1.55-3.013-23.192-23.79.466z" fill="#A96443"/><path d="M583.023 483.617l1.708 21.105 22.034 1.186-2.364-23.097-21.378.806z" fill="#7A462F"/><path d="M556.838 511.767c8.341-9.805 17.512-14.186 35.862-14.597 18.351-.411 24.185 2.705 26.692 3.748 2.506 1.044 10.009 7.908 5.004 52.98-2.893 26.031-1.881 44.843-1.881 44.843l-37.326 5.63-26.272-.838s-10.421-81.968-2.079-91.766z" fill="#1689CB"/><path d="M556.837 511.767c8.341-9.805 17.513-14.185 35.863-14.597l-20.224 8.967 9.068 64.778-9.068 18.456-7.179 9.671 2.498 5.005-8.863-.522s-10.436-81.96-2.095-91.758z" fill="#29ABE2"/><path d="M566.372 557.749c6.65 0 12.041-10.992 12.041-24.552 0-13.56-5.391-24.553-12.041-24.553s-12.041 10.993-12.041 24.553 5.391 24.552 12.041 24.552z" fill="#7A462F"/><path d="M574.975 522.608c.419-3.953-3.756-16.06-10.634-14.597-6.879 1.463-12.302 9.489-12.508 15.333-.206 5.843 4.032 15.997 2.498 32.42-1.454 15.641-1.146 20.433 1.985 23.564 3.131 3.132 14.8 3.954 17.718-6.255 2.917-10.208.522-46.503.941-50.465z" fill="#7A462F"/><path d="M557.146 529.599c.419-3.953 14.073-23.05 7.195-21.587-6.879 1.463-12.302 9.489-12.508 15.333-.206 5.843 4.032 15.996 2.498 32.42-1.454 15.641-1.146 20.433 1.985 23.564 3.131 3.131 6.459-21.856 6.459-21.856s-6.048-23.912-5.629-27.874zm-18.603 94.644s2.664 7.78 3.953 11.37c1.289 3.59-2.894 9.837-6.981-2.372-4.016-11.9 3.028-8.998 3.028-8.998z" fill="#A96443"/><path d="M542.757 618.438s-3.163 8.445-4.372 11.861c-1.21 3.416 0 9.703 0 12.202 0 2.498 2.19 6.879-.633 6.879a5.953 5.953 0 01-4.372-1.874l-4.072-.625-1.873-4.697s-2.499-.308-2.815-2.498c-.316-2.191-2.815-4.689-2.19-10.011.624-5.322 6.878-14.392 10.634-16.266 3.755-1.874 9.693 5.029 9.693 5.029z" fill="#7A462F"/><path d="M559.336 568.701a16.739 16.739 0 00-6.57 3.439c-3.439 2.815-13.133 28.783-19.078 40.977-3.874 7.954 3.439 13.766 12.199 4.697 8.76-9.07 25.3-33.789 26.882-40.985 1.581-7.195-5.298-10.943-13.433-8.128z" fill="#7A462F"/><path d="M561.004 568.179a23.58 23.58 0 00-8.238 3.953c-3.44 2.815-13.133 28.783-19.078 40.977-3.874 7.955 16.888-32.531 16.888-32.531l10.428-12.399zm44.734-122.549s-27.672-12.818-33.689 2.158c-5.463 13.672-4.822 30.238-4.166 35.022.711 5.148 6.056 5.63 11.069 6.05 4.83.411 24.24 1.296 26.367-6.484 2.127-7.781 8.926-30.262.419-36.746z" fill="#A96443"/><path d="M606.845 445.44s-24.889-9.884-32.179 2.056c-7.289 11.94-4.506 28.799-3.882 33.361.672 4.903 7.559 6.666 12.326 7.069 4.602.38 19.655 3.804 21.687-3.605 2.032-7.41 10.144-32.705 2.048-38.881z" fill="#7A462F"/><path d="M572.713 444.736s1.953 1.582 11.022 2.705l4.743 19.262s-1.652 4.958-1.336 7.441c.317 2.483 5.946 15.933 5.946 15.933s14.452 2.064 16.263-3.337c1.81-5.4 5.732-29.218 3.953-38.192-1.779-8.975-31.364-8.264-34.495-8.264-5.779 0-6.096 4.452-6.096 4.452z" fill="#273252"/><path d="M582.446 464.441s3.352-9.488 8.365-7.116.34 17.001-6.017 16.321c-6.356-.68-2.348-9.205-2.348-9.205z" fill="#7A462F"/><path d="M584.794 474.65c1.018 0 1.842-.839 1.842-1.874 0-1.035-.824-1.874-1.842-1.874-1.017 0-1.842.839-1.842 1.874 0 1.035.825 1.874 1.842 1.874z" fill="#F3E7D9"/><path d="M572.729 458.282c-.482 1.32-1.399 2.174-2.039 1.929-.641-.245-.791-1.494-.317-2.815.475-1.32 1.408-2.222 2.064-1.977.656.246.767 1.534.292 2.863z" fill="#1D2538"/><path d="M572.492 450.975l3.036 2.001" stroke="#1D2538" stroke-linecap="round" stroke-linejoin="round"/><path d="M193.601 686.948l-3.336 34.619-18.77 1.249s4.586-35.457 22.106-35.868zm2.19 6.674l4.586 21.682-.838 10.43h25.79l1.249-19.183s.727-15.744.625-21.793c-.103-6.049-31.412 8.864-31.412 8.864z" fill="#1D2538"/><path d="M210.069 569.12c9.385 5.416 11.678 16.368 12.097 19.286.419 2.918-.625 13.031-11.259 26.276-7.708 9.6-37.222 15.024-32.218-33.155 1.574-15.357 22.004-17.832 31.38-12.407z" fill="#F7BC4B"/><path d="M207.777 611.559c3.755 8.754 19.394 47.856 21.268 58.515 1.873 10.659 5.218 31.282 5.218 31.282s-36.496 3.163-60.262-1.874-25.964-8.137-25.964-8.137 17.52-42.226 24.399-65.687c6.878-23.461 31.585-22.86 35.341-14.099z" fill="#F7BC4B"/><path d="M204.021 616.873c1.834 4.27 12.31 40.248 12.31 40.248l-4.174 2.713s-.079 11.568.419 14.391l2.862 27.89s-17.671 2.372-41.437-2.657-25.964-8.137-25.964-8.137 17.52-42.226 24.399-65.687c6.878-23.461 27.838-17.554 31.585-8.761z" fill="#CE9436"/><path d="M249.49 668.176l2.427 4.404s.459.451.918 3.495c.458 3.045 3.162 2.128 2.885-1.676a4.63 4.63 0 011.368 1.977c.15.909 1.668 3.645 2.277-.609.609-4.254-5.621-10.169-9.875-7.591zm-7.519-1.044a30.65 30.65 0 012.823 3.804c.466 1.043 2.119 3.772 3.336 2.562.514-.522-.11-2.373-.521-4.278l-1.257-5.844s-5.005.214-4.381 3.756z" fill="#CC6D3D"/><path d="M237.188 665.986s1.874 5.321 6.673 5.535c4.799.213 5.471-.981 6.878-.625a14.768 14.768 0 018.966 6.326s1.771 1.147 1.463-.625a39.057 39.057 0 01-.419-4.278l-1.51-3.7s-7.82-7.038-11.069-7.117c-5.052-.158-10.468.419-10.982 4.484z" fill="#F5894E"/><path d="M239.315 668.555c-2.166-1.241-19.766-27.675-25.3-36.374-5.534-8.698-5.645-12.976-2.483-16.139 3.163-3.163 10.785-4.372 14.176 2.08 9.543 18.148 16.896 33.369 18.351 41.506.98 5.448.79 12.09-4.744 8.927z" fill="#F5894E"/><path d="M234.263 661.502s-14.714-20.622-20.248-29.321c-5.534-8.698-5.645-12.976-2.483-16.139.941.522 11.575 18.978 11.575 18.978l11.156 26.482z" fill="#CC6D3D"/><path d="M221.328 600.172c3.953 23.359 2.973 24.782-3.123 27.945-6.096 3.163-11.677.419-12.547-27.399-.324-10.295 13.456-13.569 15.67-.546z" fill="#F5894E"/><path d="M216.537 600.402s2.135 16.684 2.372 25.857c.103 4.483-2.633 3.463-4.38 3.44-.917 0-7.993-.949-8.847-28.965-.34-10.312 8.641-13.38 10.855-.332z" fill="#CC6D3D"/><path d="M211.184 565.941c4.744-.791 7.496 1.653 8.697 11.861a209.906 209.906 0 011.582 22.141l-15.813 2.372s-1.581-12.652-1.581-20.559c0-7.907 2.372-15.024 7.115-15.815z" fill="#EE5D4F"/><path d="M211.184 565.941c4.744-.79 3.06 17.982 3.06 17.982l2.293 16.89-10.887 1.502s-1.581-12.652-1.581-20.559c0-7.907 2.372-15.024 7.115-15.815z" fill="#C94039"/><path d="M197.562 564.114c14.176-1.668 20.438 4.168 20.438 4.168 1.257 1.676-5.772 6.326-8.974 13.553-2.419 5.535-.901 13.759-1.874 16.06-2.965 7.037-.356 22.291.419 32.531 3.337 44.218-4.799 57.147-5.423 68.407-.625 11.26 3.834 58.111-17.513 64.437 0 0-59.992-2.119-79.758-8.445 0 0 25.956-27.217 25.956-48.488s19.489-34.057 25.023-65.687c2.246-12.834 8.136-49.737 7.511-58.19-.624-8.453 20.059-16.677 34.195-18.346z" fill="#29ABE2"/><path d="M197.562 564.114c14.176-1.668 20.437 4.168 20.437 4.168 1.258 1.676-5.771 6.326-8.973 13.553-2.419 5.535-28.146 38.794-28.146 38.794l-24.399 70.067-25.648 15.641c0-21.271 19.489-34.057 25.023-65.687 2.246-12.834 8.136-49.737 7.511-58.19-.624-8.453 20.058-16.677 34.195-18.346z" fill="#1689CB"/><path d="M200.875 561.236s8.127 4.745 8.934 9.489c.806 4.744-23.616 31.582-27.672 34.287-4.056 2.704-27.569-18.053-31.625-22.141-4.056-4.088 4.001-8.864 8.064-14.234 4.064-5.369 20.359-12.129 42.299-7.401z" fill="#29ABE2"/><path d="M202.487 561.497l-23.616 20.615s-21.078 1.241-21.837-.712c-.759-1.953 7.907-14.043 7.907-14.043s15.607-10.596 37.546-5.86z" fill="#1689CB"/><path d="M198.827 564.771s-28.115 0-31.689 2.973c-3.573 2.973-7.4 10.73-8.696 12.865-1.297 2.135 13.401 2.61 17.259 2.325 3.858-.285 23.126-18.163 23.126-18.163z" fill="#992C29"/><path d="M186.303 525.052c1.581-4.745 13.441-8.422 22.098-.981 7.511 6.461 10.46 22.932 7.298 30.048-3.163 7.117-13.196 7.212-21.893 5.631-8.697-1.582-9.084-29.954-7.503-34.698z" fill="#F5894E"/><path d="M184.216 525.052c1.581-4.745 13.44-8.422 22.137-.981 7.503 6.461 10.46 22.932 7.298 30.048-3.163 7.117-13.204 7.212-21.901 5.631-8.696-1.582-9.115-29.954-7.534-34.698z" fill="#CC6D3D"/><path d="M194.494 518.196s3.953-.103 5.621 3.021c1.669 3.123 4.333 14.913-3.391 22.235-.032 0 2.688-17.475-2.23-25.256z" fill="#F7BC4B"/><path d="M188.96 516.354a42.015 42.015 0 00-15.022 1.581c-7.906 2.372-16.603 11.861-13.441 18.187 3.163 6.326 6.325 7.117 6.325 7.117s-5.534-3.163-8.697 4.744c-3.162 7.908 7.116 11.071 7.116 11.071s-3.162 6.326 4.744 9.489c7.906 3.163 18.975-2.373 18.975-2.373s21.955 2.207 20.066-11.544c-1.89-13.751-13.741-9.386-13.741-9.386s4.269-18.875 2.087-23.675c-2.182-4.8-8.412-5.211-8.412-5.211z" fill="#273252"/><path d="M186.872 516.773a42.017 42.017 0 00-15.022 1.581c-7.906 2.372-16.603 11.861-13.44 18.187 3.162 6.326 6.325 7.117 6.325 7.117s-5.535-3.163-8.697 4.744c-3.163 7.908 7.116 11.071 7.116 11.071s-3.163 6.326 4.743 9.489c7.907 3.163 18.975-2.373 18.975-2.373s21.956 2.207 20.074-11.552c-1.881-13.759-13.764-9.386-13.764-9.386s4.277-18.868 2.087-23.667c-2.19-4.8-8.397-5.211-8.397-5.211z" fill="#1D2538"/><path d="M200.028 538.494s-2.372-4.744-6.325-1.581c-3.953 3.163-.79 9.489 4.744 9.489s1.581-7.908 1.581-7.908z" fill="#CC6D3D"/><path d="M193.498 524.261s8.112-5.994 7.811-9.489c-.3-3.495-7.645-2.143-8.222-.672 0 0 8.736-9.315 2.846-11.624-5.89-2.309-9.764 9.766-10.594 16.234-.83 6.468 8.159 5.551 8.159 5.551z" fill="#273252"/><path d="M190.992 524.261s8.135-6.017 7.819-9.536c-.316-3.519-7.653-2.143-8.23-.672 0 0 8.744-9.315 2.854-11.624-5.89-2.309-9.765 9.765-10.595 16.234-.83 6.468 8.152 5.598 8.152 5.598z" fill="#1D2538"/><path d="M210.685 533.287c.525-.149.673-1.251.33-2.461-.342-1.21-1.046-2.07-1.571-1.922-.525.149-.673 1.251-.33 2.461.342 1.21 1.046 2.07 1.571 1.922z" fill="#273252"/><path d="M207.508 526.277a1.758 1.758 0 00-1.581 1.582" stroke="#273252" stroke-width=".75" stroke-miterlimit="10"/><defs><linearGradient id="paint0_linear_0_2929" x1="213.572" y1="788.432" x2="209.436" y2="709.824" gradientUnits="userSpaceOnUse"><stop stop-color="#fff"/><stop offset=".35" stop-color="#F3E7D9"/><stop offset=".59" stop-color="#F3E7D9"/></linearGradient><linearGradient id="paint1_linear_0_2929" x1="6324.82" y1="39944.1" x2="6129.41" y2="37363.5" gradientUnits="userSpaceOnUse"><stop stop-color="#fff"/><stop offset=".35" stop-color="#F3E7D9"/><stop offset=".59" stop-color="#F3E7D9"/></linearGradient><linearGradient id="paint2_linear_0_2929" x1="570.381" y1="798.727" x2="568.507" y2="721.772" gradientUnits="userSpaceOnUse"><stop stop-color="#fff"/><stop offset="1" stop-color="#F3E7D9"/></linearGradient><linearGradient id="paint3_linear_0_2929" x1="610.711" y1="783.482" x2="611.019" y2="727.173" gradientUnits="userSpaceOnUse"><stop stop-color="#fff"/><stop offset=".33" stop-color="#F3E7D9"/></linearGradient></defs></svg>