<svg width="210" height="30" fill="none" xmlns="http://www.w3.org/2000/svg"><g style="mix-blend-mode:luminosity"><path d="M50.804 12.552l-.35 1.784h-.104c-.455-.98-1.713-2.378-4.51-2.378-4.511 0-9.127 3.496-10.14 8.986C34.825 25.769 37.133 30 42.483 30c1.958 0 4.196-.77 5.384-2.413h.105l-.314 1.819h5l3.111-16.854h-4.965zm-1.643 8.392c-.315 1.643-1.888 4.336-5.035 4.336-3.077 0-3.706-2.693-3.426-4.266.35-1.923 2.063-4.336 5-4.336 2.867.035 3.846 2.308 3.461 4.266zm9.44-8.392h4.685l-.314 1.784h.105c.594-.805 1.783-2.378 4.65-2.378l-.944 5.105c-2.378.035-4.09.524-4.546 3.112l-1.713 9.23H55.49l3.112-16.853zm12.483-6.573h5.07l-2.378 12.692h.07l5.84-6.119h5.943l-7.692 7.413 4.405 9.44h-5.699l-3.252-8.111h-.105l-1.468 8.112h-5.07l4.336-23.427z" fill="#2E2E2F"/><path d="M93.706 11.958c-5.105 0-9.65 4.406-10.49 9.09-.943 5 2.448 8.917 7.274 8.917 1.713 0 3.496-.524 5.034-1.538 1.609-.98 3.077-2.413 4.196-4.301h-5.14c-.839.874-1.818 1.573-3.356 1.573-1.958 0-3.427-1.189-3.322-3.182h12.622c.14-.384.245-.699.35-1.328.979-5.14-2.028-9.231-7.168-9.231zm-5.105 7.168c.385-.98 1.784-2.902 4.406-2.902s3.252 1.888 3.252 2.902H88.6zM29.021 5.979L20.14 19.336h-.07V5.979h-4.3L0 29.406h6.119l8.846-13.357h.07v13.357h4.336l8.846-13.357h.07v13.357h5.07V5.979H29.02zm84.651 6.574h-3.182l.944-5h-4.406l-.349 1.923c-.385 2.202-1.784 2.867-3.602 3.076h-.035l-.769 3.812h2.482l-2.412 13.007h5.035l2.412-13.007h3.217l.665-3.812z" fill="#2E2E2F"/><path d="M191.609 23.042c-1.644 3.811-5.595 6.958-10.14 6.958-5.105 0-8.287-4.021-7.378-9.056.944-4.93 5.49-8.951 10.559-8.951 4.441 0 7.518 2.972 7.623 7.098h-5.105c-.315-1.189-1.084-2.378-3.217-2.378-2.377-.105-4.335 1.819-4.79 4.266-.455 2.483.804 4.3 3.217 4.3 2.063 0 3.321-1.188 4.056-2.272l5.175.035zM149.895 0l-9.79 5.979h2.762l-8.881 13.357h-.105V5.979h-4.335l-8.847 13.357h-.104V5.979h-5.035v23.427h4.405l8.881-13.357h.105v13.357h4.336l15.699-23.427h2.483L149.895 0zm9.546 29.406h-5l.314-1.819h-.105c-1.188 1.644-3.426 2.413-5.384 2.413-5.35 0-7.657-4.196-6.783-9.056.979-5.49 5.629-8.986 10.14-8.986 2.762 0 4.055 1.364 4.51 2.378h.105l.35-1.784h5l-3.147 16.854zm-8.462-4.091c3.112 0 4.685-2.693 5.035-4.336.35-2.028-.594-4.266-3.461-4.266-2.903 0-4.616 2.413-5 4.336-.28 1.573.349 4.266 3.426 4.266zm24.196-12.763h-3.147l.944-5h-4.405l-.35 1.924c-.385 2.202-1.783 2.867-3.601 3.076h-.07l-.735 3.812h2.483l-2.413 13.007h5.035l2.413-13.007h3.217l.629-3.812zm21.189-6.573h5.035l-1.539 8.357h.105c1.084-1.574 2.518-2.378 4.755-2.378 1.609 0 3.427.595 4.266 1.888 1.084 1.643.979 3.112.385 6.119l-1.714 9.406h-5.034l1.678-9.161c.14-.804.629-3.532-2.028-3.532-2.832 0-3.322 2.518-3.462 3.357l-1.713 9.336h-5.035l4.301-23.392z" fill="#818181"/></g></svg>