<svg width="778" height="875" fill="none" xmlns="http://www.w3.org/2000/svg"><path d="M340.966 144.194s-143.259 88.209-194.25 110.869c-50.99 22.659-55.037 3.237-58.275-2.428-3.237-5.665 4.047-32.371 21.044-32.371 0 0-12.14-22.659 1.619-42.081 13.759-19.422 82.556-46.937 149.734-25.087 0 0-5.665-25.087 29.947-35.608 35.613-10.52 27.519 13.758 27.519 13.758s33.184-10.52 26.709-4.856c0 0 53.419-29.942 50.182-21.85-3.238 8.093-54.229 39.654-54.229 39.654zM256.792 389.4s-82.557 53.411-109.266 60.694c-26.709 7.283-29.137-2.428-22.662-15.376 6.475-12.948 27.518-9.711 27.518-9.711s-5.665-18.613 7.285-22.659c12.95-4.047 26.709 3.237 26.709 3.237s-21.044-31.561 18.616-45.319c39.659-13.757 38.85 28.324 38.85 28.324s33.184-12.139 12.95.81zm410.353-25.897s-22.663 12.948-38.041 16.185c-15.378 3.237-16.997-27.514 1.619-42.081 18.615-14.567 55.037 5.665 55.037 5.665s3.238-20.232 15.378-18.613c12.141 1.618 10.522 7.283 10.522 7.283s14.569-15.376 20.235-11.33c5.665 4.047-1.619 9.712-1.619 9.712s32.375-14.567 12.95-2.428-76.081 35.607-76.081 35.607z" fill="#F3E7D9"/><path d="M462.227 318.889c-11.453-15.376 26.353-35.308 47.608-41.216 13.168-3.658 29.841-.429 35.021 4.249 1.773 1.618 10.457 11.329 12.902 17.124 2.654 6.361 4.904 36.368-7.511 37.752-17.013 1.902-76.543-2.558-88.02-17.909z" fill="#992C29"/><path d="M478.884 320.257c-6.572-10.521 6.176-29.611 23.472-36.352 20.081-7.858 36.487-1.854 38.696 4.653 2.21 6.506-10.441 19.357-23.269 26.754-12.829 7.397-35.985 9.646-38.899 4.945z" fill="#F3E7D9"/><path d="M512.327 308.376c11.291-11.038 14.901-10.568 13.76-18.2-1.813-12.325-31.048 2.557-37.142 5.099-6.095 2.541-15.484 22.1-7.528 31.674 7.956 9.574 19.62-7.534 30.91-18.573zm-63.317 4.144s-16.187-3.237-23.901 11.532c-3.488 6.676-12.618 29.133-20.712 46.314-9.712 20.725-17.976 36.416-13.014 42.081 13.759 15.578 18.891 21.348 26.895 7.284 8.005-14.065 67.567-109.097 30.732-107.211z" fill="#273252"/><path d="M449.01 312.52s-16.187-3.237-23.901 11.532c-7.713 14.769-16.228 41.191-16.228 41.191l8.976-7.016 8.968 46.743s59.02-94.336 22.185-92.45z" fill="#1D2538"/><path d="M351.035 366.125s-8.903 8.158-2.776 17.286c7.754 11.491 22.865 35.47 28.603 45.254 5.836 9.946 27.519 16.857 36.503-3.237 5.706-12.73-23.69-44.121-23.69-44.121s3.084-15.878-11.744-20.28c-14.828-4.403-26.896 5.098-26.896 5.098z" fill="#C94039"/><path d="M351.035 366.125s-8.903 8.158-2.776 17.286c7.754 11.492 22.865 35.47 28.603 45.254 5.836 9.946 27.519 16.857 36.503-3.237-24.014 14.728-27.518-3.844-27.518-3.844s-16.997-15.684-23.699-30.752c-6.418-6.029-11.113-24.707-11.113-24.707z" fill="#992C29"/><path d="M357.227 364.636s-9.178 3.626-7.285 7.785c1.894 4.16 2.882 6.725 10.887 5.762 8.004-.963 14.091-2.557 16.333-6.717 2.242-4.159 1.619-7.688-1.287-8.966-2.906-1.279-24.33 3.52-24.33 3.52" fill="#F3E7D9"/><path d="M355.73 384.164c1.279 0 11.525 6.077 19.854 6.725 3.828.291-3.861 2.557-12.764 2.557-8.903 0-7.09-9.282-7.09-9.282z" fill="#992C29"/><path d="M371.31 368.901c-3.197 2.881-17.928 5.123-20.169 1.619-2.242-3.505-8.645-20.815-6.726-29.134 1.918-8.319 9.607-19.212 18.251-19.851 8.644-.639 27.219 16.331 18.251 31.051 0-.016-6.402 13.434-9.607 16.315z" fill="#F5894E"/><path d="M351.116 368.245l-15.24-2.67c-4.047-.704-4.921-4.483-2-8.441l24.395-33.082c2.922-3.958 8.547-6.596 12.57-5.892l15.24 2.679c4.047.704 4.913 4.483 1.999 8.441l-24.402 33.082c-2.914 3.957-8.539 6.587-12.562 5.883z" fill="#F3E7D9"/><path d="M351.189 366.999l-13.759-2.427c-3.618-.64-4.428-4.047-1.797-7.608l24.216-32.418a9.71 9.71 0 0110.012-3.933l14.351 1.715c3.626.631 4.435 4.046 1.804 7.599l-23.471 31.731c-2.663 3.601-7.738 5.973-11.356 5.341z" fill="#1D2538"/><path d="M361.711 316.081s-7.689-1.619-8.968 2.557 1.619 9.921.963 11.847c-.655 1.926 8.321-1.278 8.96-5.446.639-4.168 2.582-8.003-.955-8.958z" fill="#F5894E"/><path d="M354.661 325.039s-5.763-3.237-8.32.324c-2.558 3.56 0 7.04.955 9.282s2.566 4.16 5.123 1.279c2.558-2.881 5.124-7.365 2.242-10.885z" fill="#F5894E"/><path d="M348.85 333.366c-2.339-.639-4.152-.639-5.965.64-1.813 1.278-.81 6.401-.259 10.245.55 3.844 4.662 2.881 5.706-1.279 1.044-4.159 2.849-8.966.518-9.606z" fill="#F5894E"/><path d="M343.459 340.091s-6.086 1.279-6.086 5.439c0 4.159 2.881 5.761 4.799 2.241 1.919-3.52 3.206-4.499 1.287-7.68zm34.261 11.735c3.707 1.756 8.539-6.831 12.376-19.204 1.327-4.281-7.212-1.619-9.332 1.853-4.331 7.105-6.751 15.594-3.044 17.351z" fill="#F5894E"/><path d="M583.067 741.719l-20.494 2.136c-20.493 2.169-34.997-5.309-42.265 14.567-7.9 21.559 11.331 20.15 23.698 20.231 15.152.065 14.723-2.168 32.019-2.168 17.297 0 10.886-3.626 11.526-18.095.639-14.47-3.416-15.522-3.416-15.522l-1.068-1.149z" fill="#EE5D4F"/><path d="M587.68 756.439c-.615 14.988 4.857 17.124-11.655 17.124-16.511 0-19.643.858-32.658 1.497-11.833.583-30.95.113-21.772-19.365 9.178-19.479 22.662-11.994 42.225-14.235l19.579-2.25s4.896 2.217 4.281 17.229z" fill="#121721"/><path d="M570.262 457.474l11.842 160.396s.323 45.14 1.618 66.27c1.295 21.13 8.968 54.422 7.05 61.463-1.918 7.041-17.313 7.049-28.846 9.582-11.534 2.533-21.133-11.524-23.051-12.139-1.918-.615-28.183-239.468-31.38-254.836-3.197-15.368-1.926-24.974 33.937-35.858 35.864-10.885 28.83 5.122 28.83 5.122z" fill="#1D2538"/><path d="M570.263 457.474l-.64 49.948-13.452 32.653.963 15.376-21.108-6.733s-25.301-45.14-28.498-60.508c-3.197-15.368-1.926-24.974 33.937-35.858 35.863-10.885 28.798 5.122 28.798 5.122z" fill="#273252"/><path d="M504.938 508.701c33.597 0 60.833-13.475 60.833-30.097s-27.236-30.096-60.833-30.096c-33.597 0-60.833 13.474-60.833 30.096s27.236 30.097 60.833 30.097z" fill="#273252"/><path d="M508.394 301.263s-24.087-2.638-47.753 4.281c-11.679 3.407-27.648 26.398-27.648 54.722s8.223 107.195 8.223 107.195l95.741-3.278s1.044-158.946-28.563-162.92z" fill="#F7BC4B"/><path d="M493.607 426.626l-29.81-49.365-3.172-71.684c-11.663 3.374-27.632 26.365-27.632 54.689s8.223 107.195 8.223 107.195 30.424 10.148 47.713 10.148c17.288 0 48.028-13.442 48.028-13.442s-33.184-19.422-48.433-27.102c-10.878-5.462-10.166-16.104-10.166-16.104l15.249 5.665z" fill="#CE9436"/><path d="M499.499 302.202c0 9.671-7.665 28.858-16.778 29.174-9.114.315-18.187-11.864-18.187-21.535 0-9.67 9.194-11.807 18.308-12.138 9.114-.332 16.657-3.076 16.657 4.499z" fill="#F5894E"/><path d="M467.423 301.603c-12.512 13.499 6.281 61.577 14.375 59.699 8.094-1.877 29.137-60.265 14.86-64.077" stroke="#992C29" stroke-miterlimit="10"/><path d="M484.839 371.715c1.578-.407 2.279-2.982 1.564-5.752-.714-2.771-2.572-4.687-4.15-4.28-1.579.407-2.279 2.982-1.565 5.752.714 2.771 2.572 4.687 4.151 4.28z" fill="#29ABE2"/><path d="M455.631 468.707s.963 4.483-1.619 6.717-17.927 1.287-23.051.963c-5.123-.324-2.711-4.856-2.711-4.856s28.02-3.172 27.381-2.824z" fill="#F3E7D9"/><path d="M460.544 307.009c-22.76 5.819-17.216 4.856-21.772 5.972-3.092.769-9.333 16.946-9.826 23.906-3.416 38.415.429 48.232-.421 57.198-.81 8.57 4.508 28.988 1.222 39.104-3.286 10.115-4.767 33.454-1.481 38.334 3.286 4.88 29.607-1.885 29.607-1.885l3.893-38.116s-11.331-28.923-11.388-51.073c0-8.902-.251-23.622 2.695-36.942 4.379-19.876 8.944-36.878 7.471-36.498z" fill="#992C29"/><path d="M460.212 303.489c-7.033.356-9.316 2.63-12.999 5.834-3.682 3.205-5.236 8.902-7.697 23.129-2.46 14.227 10.781 44.348 10.781 44.348s.551-24.1 3.837-36.708c3.286-12.609 13.095-36.959 6.078-36.603z" fill="#F3E7D9"/><path d="M513.25 370.665s1.692 26.366 19.652 28.138c0 0-10.393-10.617-19.652-28.138z" fill="#C94039"/><path d="M458.925 270.746l8.45 38.343s4.346 7.17 17.555 5.058c13.209-2.113 14.739-11.524 14.739-11.524l-8.968-42.964-31.776 11.087z" fill="#F5894E"/><path d="M457.517 262.621s6.475 10.909 15.03 24.658l15.297 13.531 3.869 23.695c8.328-10.884 7.689-23.905 7.689-23.905l-10.66-49.017-31.225 11.038z" fill="#CC6D3D"/><path d="M523.319 472.753c-2.736.98 4.047 9.193 4.047 9.193s41.181-1.319 46.361-7.987l-1.53-8.489s-46.693 6.515-48.878 7.283z" fill="#F3E7D9"/><path d="M507.301 305.309c-5.665 6.685-9.866 47.439-9.129 72.097.736 24.658 13.233 57.895 13.759 73.416.526 15.522 6.03 20.361 9.13 23.194 3.1 2.832 47.696-2.727 47.696-2.727s20.04 1.141 1.975-34.078c-11.169-21.761-.194-106.823-21.853-129.927-8.061-8.619-35.888-8.651-41.578-1.975z" fill="#992C29"/><path d="M506.079 304.371c-5.665 6.676-8.644 48.377-7.907 73.035.736 24.658 13.233 57.895 13.759 73.416.526 15.522 6.03 20.361 9.13 23.194 2.056 1.893 24.443-23.469 24.443-23.469l10.206-21.494-19.781-124.626s-3.238-4.718-12.845-4.434c-4.638.145-11.339-2.299-17.005 4.378z" fill="#C94039"/><path d="M498.536 368.472s-3.375-.056-4.266-12.802c-1.707-24.335 2.777-48.879 9.6-55.281 4.192-3.925 24.062-4.418 21.132-.21-10.667 15.376-18.777 31.156-19.635 46.128-.858 14.971-6.831 22.165-6.831 22.165zm32.553 79.575l-3.286 2.516s7.349 14.082 19.7 12.835l.235-3.237s-9.341.243-16.649-12.114z" fill="#F3E7D9"/><path d="M535.33 421.771c-11.647 8.359-24.37 2.201-24.038-21.106.331-23.306 5.835-19.794 5.43-51.452-.234-18.468 3.116-38.699 13.825-41.337 10.708-2.639 15.758 2.638 24.054 19.786 2.922 6.053-.68 17.593-.914 33.859-.34 24.311-10.822 54.852-18.357 60.25z" fill="#273252"/><path d="M535.297 423.761c-11.646 8.351-20.493.218-20.161-23.089.081-6.037 22.031-40.568 22.031-40.568l9.591.971-2.428-34.636-13.824-18.613c10.708-2.646 15.759 2.638 24.055 19.787 2.921 6.053-.68 17.593-.915 33.859-.299 24.359-10.813 56.883-18.349 62.289z" fill="#1D2538"/><path d="M437.752 357.838c-5.188-8.748-17.807-11.823-13.76-10.35 4.047 1.473-8.531-4.184-13.306-3.634-3.513.397-.51 6.823 2.501 7.769 3.011.947 4.314 1.117 8.094 6.159 3.78 5.042 19.085 4.451 16.471.056z" fill="#CC6D3D"/><path d="M410.419 383.314l13.759-.809c3.626-.211 4.606-3.634 2.194-7.648l-21.538-35.551c-2.428-4.046-6.005-5.114-9.623-4.904l-13.76.81c-3.617.21-4.597 3.633-2.185 7.647l20.218 33.592c2.412 3.99 7.309 7.073 10.935 6.863z" fill="#F3E7D9"/><path d="M391.334 346.201l-3.691-1.562.85-2.808 3.909 1.959-1.068 2.411zm-6.645-1.909l-1.627-.688.373-1.247 1.732.866-.478 1.069zm38.526 30.29l-1.635-.68.373-1.246 1.732.866-.47 1.06zm-20.307-29.684l-3.683-1.553.842-2.817 3.917 1.967-1.076 2.403zm4.614 31.27l-3.691-1.554.85-2.816 3.909 1.959-1.068 2.411zm11.582-1.295l-3.691-1.561.85-2.809 3.909 1.959-1.068 2.411z" fill="#1D2538"/><path d="M433.518 380.959s-7.535.761-12.075-2.266c-3.384-2.266-9.09-.574-9.09-.574s-5.422 1.367-11.007 3.293c-2.428.85-2.946-1.877-3.521-2.606-1.675-2.136 6.596-8.092 6.596-8.092s-8.725 6.361-10.732 3.803c-2.889-3.682 4.856-8.092 4.856-8.092s-8.547 4.038-9.825 2.258c-2.048-2.873.21-7.551 9.947-10.699l-6.054 1.546s-5.286 1.521-3.238-4.046c.947-2.566 20.235-7.284 20.235-7.284s16.252 1.918 22.104 4.459c5.552 2.428 12.909 10.132 13.759 13.571.413 1.619-4.136 15.028-6.192 15.482-1.424.404-5.763-.753-5.763-.753z" fill="#F5894E"/><path d="M435.299 381.307c-.356-.218-1.91-5.382-2.08-5.762-.809-1.829-3.772-3.358-5.504-3.99-2.015-.736-9.024-2.84-9.024-2.84l-3.456-7.639c-.704-.567-.551-7.672-.551-7.672l-1.497-4.662s12.651 1.465 18.502 4.047c5.553 2.428 12.91 10.132 13.76 13.571.412 1.619-6.985 15.319-6.985 15.319s-2.428.049-3.165-.372z" fill="#CC6D3D"/><path d="M538.721 420.281c.769-5.544 6.532-18.184-9.972-28.81-2.816-1.812-11.209-4.167-15.054-5.729-25.633-10.464-34.301-14.356-46.604-19.212-12.14-4.783-18.826-7.283-21.853 1.675-3.027 8.959-5.666 23.323-2.242 25.896 7.673 5.754 11.331 4.484 11.331 4.484a161.487 161.487 0 0021.959 10.771c13.387 5.422 22.881 21.672 38.429 20.571 15.985-1.141 23.107-3.188 24.006-9.646z" fill="#C94039"/><path d="M538.721 420.281c.769-5.543 6.532-18.184-9.972-28.81-2.816-1.812-11.209-4.167-15.054-5.729-25.633-10.464-34.301-14.357-46.604-19.212-12.14-4.783 17.151 13.345 17.151 13.345s9.389 5.664 17.499 11.791c8.11 6.126 16.009 27.174 16.009 27.174l-7.284 10.675s4.985-.397 4.249.396c15.985-1.125 23.108-3.172 24.006-9.63z" fill="#992C29"/><path d="M444.316 363.35s2.29-1.02 3.706 1.756c1.417 2.776-.145 14.396-5.843 20.336-.923.972-5.763-1.918-5.763-1.918a72.112 72.112 0 014.047-8.432c2.784-4.912 3.853-11.742 3.853-11.742z" fill="#F3E7D9"/><path d="M500.883 265.453c-7.964 25.193-16.422 31.286-16.422 31.286-37.604 7.559-55.038-21.526-55.483-45.666-1.408-24.925-2.218-29.999 24.872-33.35 37.717-4.653 54.123 25.29 47.033 47.73z" fill="#1D2538"/><path d="M500.883 265.453c-7.964 25.193-16.422 31.286-16.422 31.286-37.604 7.559-54.18-19.139-54.641-43.279-1.416-24.933-4.929-28.324 26.329-33.948 43.399-7.81 51.824 23.501 44.734 45.941z" fill="#1D2538"/><path d="M506.889 273.546c-6.791 21.486-41.19 15.068-41.19 15.068-6.151-2.986-9.599-37.493-12.221-51.112-2.266-11.751-10.797-26.18 22.209-26.026 29.364.137 37.28 42.947 31.202 62.07z" fill="#3E4C6F"/><path d="M454.279 220.612s-19.336 12.641-22.395 16.776c-3.06 4.136-1.789 45.262 5.965 57.547 7.64 12.139 49.177 6.247 57.651-3.966 6.945-8.359 4.323-15.764 4.727-28.502.421-13.409-8.409-18.435-14.358-26.705-5.221-7.324-31.59-15.15-31.59-15.15z" fill="#CC6D3D"/><path d="M506.217 256.001c-.947 7.64-5.391 14.518-8.491 14.437-3.1-.081-4.904-6.328-3.982-14.024.923-7.696 4.241-13.911 7.366-13.798 3.124.113 6.046 5.721 5.107 13.385z" fill="#CC6D3D"/><path d="M435.493 243.15c-6.199 4.945-3.723 49.049 8.361 54.034 12.084 4.985 22.169 2.113 29.453-5.745 6.378-6.871-.922-36.894-11.234-42.762-12.65-7.178-20.388-10.479-26.58-5.527z" fill="#F5894E"/><path d="M485.691 233.633s2.428 15.044 5.309 20.588l7.625 6.951-4.047-26.268-8.887-1.271z" fill="#3E4C6F"/><path d="M480.22 225.015s9.502 3.949-28.078 12.859c-11.379 2.703-22.735 4.661-28.506 4.046-14.164-1.432 6.637-29.942 30.449-33.317 24.071-3.375 26.135 16.412 26.135 16.412z" fill="#1D2538"/><path d="M454.19 208.328c-19.02 3.496-37.231 23.177-25.859 24.318 3.237.324 8.385.672 14.568.753 10.636-2.727 21.311-9.38 21.311-9.38-.202 5.277-6.005 7.955-12.448 9.299a167.667 167.667 0 0017.539-1.441c9.883-1.384 10.983-.971 11.331-4.329.753-6.838-5.9-22.999-26.442-19.22z" fill="#3E4C6F"/><path d="M467.229 260.638c.502 2.89-.647 4.395-2.088 4.646-1.441.25-2.647-.85-3.149-3.739-.501-2.889.268-5.438 1.708-5.665 1.441-.227 3.052 1.869 3.529 4.758zm-24.281 3.326c.502 2.898-.64 4.395-2.088 4.646-1.449.25-2.647-.81-3.149-3.739-.502-2.93.267-5.43 1.716-5.665 1.449-.235 3.051 1.845 3.521 4.758zm28.393-13.636a.902.902 0 01-.81-.38c-.129-.17-3.067-4.184-6.815-2.589a.922.922 0 01-1.198-.486.92.92 0 01-.004-.696.916.916 0 01.49-.494c4.047-1.74 7.673 1.336 9.008 3.237a.916.916 0 01-.21 1.271.887.887 0 01-.461.137zm-38.64 6.013a.714.714 0 01-.226 0 .808.808 0 01-.64-.914c.632-3.585 4.371-4.686 6.257-4.759a.811.811 0 01.809.761.81.81 0 01-.753.809c-.178 0-4.192.219-4.759 3.448a.81.81 0 01-.688.655z" fill="#34283A"/><path d="M264.157 785.937s0 24.973 55.709 21.129c55.71-3.844 96.065-3.844 96.065-3.844s83.778-7.922 170.98-9.597c99.902-1.927 38.421-11.532-76.89-15.376-115.312-3.844-245.864 7.688-245.864 7.688z" fill="#288453"/><path d="M227.177 500.478s14.496 95.283 12.877 130.89c-1.619 35.607-18.065 125.435-18.065 125.435l3.237 33.989 68.797.809 11.331 8.093s48.563-1.618 50.991-1.618c2.428 0 9.712-10.521 20.234-9.712 6.613.51 35.556 6.766 82.556 6.474 27.77-.178 61.602-2.913 61.602-2.913l-6.831-113.547s27.786-55.103 26.167-75.334c-1.619-20.231-3.238-115.724-3.238-115.724s-254.556-.38-309.658 13.158z" fill="#856792"/><path d="M536.835 487.32l-74.462 10.52 39.659 4.856 17.806 281.622 52.982-4.046-24.33-54.512-11.655-238.44z" fill="#BB83C3"/><path d="M304.545 484.083s133.498-5.333 157.019-4.856c39.659.81 77.7 4.856 75.271 8.093-2.428 3.237-33.718 6.474-55.037 7.283-2.113.081 20.234 8.093 20.234 8.093l-64.75 10.52-78.509-8.092-4.856 2.427s-22.663 1.619-30.757 3.237c-24.281.81-59.084 2.428-36.421-7.283h-36.973c-18.615 0-31.436-1.181-16.997-5.665 23.472-7.283 33.735-12.139 71.776-13.757z" fill="#665070"/><path d="M327.296 485.305s88.133-3.521 103.665-3.237c26.175.534 48.684 5.252 47.081 7.388-1.602 2.137-16.665 3.966-30.756 4.484-1.392.056.648 3.237-22.411 5.761-13.379 1.489-61.796-1.918-66.596-1.278-4.799.639-9.389.809-14.73 1.918-16.034.534-94.374-.955-79.408-7.364.016.008 38.049-6.604 63.155-7.672z" fill="#4B3355"/><path d="M353.65 507.26l.493 64.822 1.724 225.192 37.709-6.482-5.317-52.084-4.994-48.806-14.083 26.891 3.35-155.831-4.314-54.827-8.967-.955-5.601 2.08zm48.821-3.536l13.767 40.244 1.611-39.435-15.378-.809zm-119.779 20.822l11.331 94.683 7.284 69.596-6.41 95.202-38.429-15.368 28.822-65.307-3.845-194.012 1.247 15.206zM488.71 793.349l-3.472-38.949-3.691-46.436 12.294 47.836 7.689 34.701-12.82 2.848z" fill="#665070"/><path d="M294.023 798.885c-.81-1.619-1.619-47.747-1.619-47.747l2.428-44.509 10.522 93.065-11.331-.809z" fill="#665070"/><path d="M221.989 790.792l75.466-1.003-26.896-30.736-35.863-33.293 6.41-69.151-19.117 134.183zm58.274-278.385l3.238 47.746 2.428-47.746h-5.666zM440.52 679.924l.51 35.963 4.346 38.488 3.238-54.22-8.094-20.231z" fill="#665070"/><path d="M512.554 539.113l2.177 74.646 8.596 2.104 2.177 34.927 1.619 16.995 3.48 20.401 3.157-16.711-7.56-56.543-6.337-8.036-7.309-67.783z" fill="#856792"/><path d="M459.945 496.594c-10.652-1.708-45.6 5.964-14.917 6.393 30.683.429 25.584-4.686 14.917-6.393z" fill="#4B3355"/><path d="M497.217 782.934l-1.619-33.754s3.116-42.017 2.557-44.509c-.558-2.493-12.424-35.268-12.424-35.268s6.33 37.291 6.265 39.929c-.065 2.638-2.282 45.764-2.282 45.764l7.503 27.838zm-176.703-269.75l-17.936-8.967 10.247 88.363-1.279 42.26 10.247-44.825-5.124-20.491 3.845-56.34zm101.066-6.086c.624 6.474 1.166 77.349 1.166 77.349s-11.785 39.994-12.424 46.363c-.639 6.369.065-51.477 1.732-55.176l-2.104-42.688 11.63-25.848z" fill="#665070"/><path d="M353.811 732.161l16.649 20.491-21.772 12.802 5.123-33.293z" fill="#856792"/><path d="M507.504 488.21l5.123 27.531 5.123-25.613-10.246-1.918z" fill="#665070"/><path d="M292.331 587.458s-16.649 10.245-2.557 10.245c14.091 0 14.083-7.688 2.557-10.245zm-3.844 29.448s-1.279 20.491 8.968 7.688c10.246-12.802 2.565-15.367-8.968-7.688zm-3.837.001c2.558-2.558-11.525-8.967-14.091-3.844-2.565 5.122 11.526 6.409 14.091 3.844zm8.005 63.389s-23.059 15.376-10.247 15.376c12.813 0 10.247-15.376 10.247-15.376zm-7.689-20.491c11.517 5.754 10.247 14.09 2.566 14.09s-7.689-16.631-2.566-14.09zm159.285 38.998c-3.165-6.32-16.455-5.057-9.494 1.902 6.961 6.96 12.659 4.427 9.494-1.902zm9.138 17.027s-21.133 11.532-3.845 11.532 12.489-11.532 3.845-11.532zm-136.08-169.992c-11.526 1.278-21.773 16.646-5.124 19.203 16.649 2.557 16.641-20.482 5.124-19.203zm7.681 26.891c-7.042.639-18.568 11.524-.64 12.802 17.928 1.279 7.714-13.441.64-12.802zm-5.124 23.687s-7.859 6.515 1.514 6.142c9.372-.372 10.02-7.421-1.514-6.142z" fill="#33A86D"/><path d="M331.821 441.427h-15.476c-4.047 0-5.18-3.52-2.428-7.85l22.371-36.287c2.728-4.338 5.82-7.826 9.899-7.826h18.332c4.047 0 5.18 3.521 2.428 7.85l-22.8 36.263c-2.727 4.33-8.247 7.85-12.326 7.85z" fill="#F3E7D9"/><path d="M332.323 439.898h-14.569c-3.845 0-4.856-3.31-2.315-7.389l21.481-34.126c2.566-4.047 5.941-7.47 9.785-7.47l16.382.081c3.844 0 4.856 3.31 2.315 7.389l-21.465 34.126c-2.574 4.079-7.77 7.389-11.614 7.389z" fill="#1D2538"/><path d="M367.814 440.302h19.635c4.047 0 3.472-3.342 1.57-7.461l-15.936-34.483c-1.902-4.119-3.683-7.461-7.706-7.461h-19.635c-4.047 0-4.338 3.342-2.428 7.461l16.73 35.939c1.91 4.119 3.747 6.005 7.77 6.005z" fill="#F3E7D9"/><path d="M361.184 402.446c.461-.734-.111-1.923-1.277-2.655-1.166-.731-2.485-.729-2.946.005-.461.735.11 1.923 1.276 2.655 1.167.732 2.486.73 2.947-.005z" fill="#1D2538"/><path d="M360.902 405.309c.461-.734-.11-1.923-1.276-2.654-1.167-.732-2.486-.73-2.947.005-.461.734.111 1.923 1.277 2.654 1.166.732 2.485.73 2.946-.005z" fill="#1D2538"/><path d="M364.446 405.301c.461-.734-.111-1.923-1.277-2.654-1.166-.732-2.485-.73-2.946.005-.461.734.111 1.923 1.277 2.654 1.166.732 2.485.73 2.946-.005z" fill="#1D2538"/><path d="M361.104 407.559h2.574s-1.352-.226-3.011-3.237c1.343 3.092.437 3.237.437 3.237zm7.323 5.55c.46-.737-.116-1.926-1.286-2.656-1.171-.729-2.492-.723-2.951.014-.46.737.116 1.926 1.286 2.655 1.171.73 2.492.724 2.951-.013zm-.949 4.582c.461-.734-.111-1.923-1.277-2.654-1.166-.732-2.485-.73-2.946.005-.461.734.111 1.923 1.277 2.654 1.166.732 2.485.73 2.946-.005z" fill="#1D2538"/><path d="M371.017 417.698c.461-.734-.111-1.923-1.277-2.655-1.166-.731-2.485-.729-2.946.005-.461.735.111 1.923 1.277 2.655 1.166.732 2.485.73 2.946-.005z" fill="#1D2538"/><path d="M367.676 419.949h2.566s-1.344-.226-3.003-3.237c1.344 3.083.437 3.237.437 3.237zm5.991 5.518c.461-.734-.111-1.923-1.277-2.655-1.166-.732-2.485-.729-2.946.005-.461.735.11 1.923 1.277 2.655 1.166.732 2.485.729 2.946-.005z" fill="#1D2538"/><path d="M373.374 428.333c.461-.735-.111-1.923-1.277-2.655-1.166-.731-2.485-.729-2.946.005-.461.735.111 1.923 1.277 2.655 1.166.732 2.485.729 2.946-.005z" fill="#1D2538"/><path d="M376.918 428.333c.461-.735-.111-1.923-1.277-2.655-1.166-.731-2.485-.729-2.946.005-.461.735.11 1.923 1.277 2.655 1.166.732 2.485.729 2.946-.005z" fill="#1D2538"/><path d="M373.585 430.583h2.565s-1.343-.227-3.003-3.237c1.344 3.091.438 3.237.438 3.237z" fill="#1D2538"/><path d="M385.66 441.654h-15.475c-4.047 0-5.617-3.569-3.424-7.972l18.308-36.797c2.194-4.402 7.285-7.971 11.332-7.971h15.467c4.087 0 5.617 3.569 3.432 7.971l-18.317 36.797c-2.153 4.403-7.244 7.972-11.323 7.972z" fill="#F3E7D9"/><path d="M385.482 440.383h-13.905c-3.683 0-5.067-3.237-3.092-7.178l18.252-36.117a9.761 9.761 0 019.162-5.584h13.937c3.683 0 5.067 3.237 3.092 7.178l-17.183 34.523c-1.967 3.99-6.548 7.178-10.263 7.178z" fill="#1D2538"/><path d="M423.223 440.132h14.569c3.853 0 5.302-3.366 3.238-7.526l-18.397-36.797c-2.072-4.152-5.723-5.463-9.583-5.463h-14.618c-3.861 0-5.309 3.367-3.237 7.518l17.288 34.742c2.08 4.16 6.88 7.526 10.74 7.526z" fill="#F3E7D9"/><path d="M416.052 407.665s.454 2.282-2.509 1.189c-2.501-.922-1.238-3.455.073-5.721l2.436 4.532z" fill="#1D2538"/><path d="M416.052 407.665s1.813 1.99 3.626.93c1.522-.89-3.561-4.54-6.062-5.462l2.436 4.532z" fill="#1D2538"/><path d="M415.777 406.791s1.23 3.285 1.093 4.337l1.465-.421a12.933 12.933 0 01-2.558-3.916zm6.038 12.551s-.461-2.282 2.509-1.189c2.493.922 1.23 3.447-.081 5.721l-2.428-4.532z" fill="#1D2538"/><path d="M421.815 419.342s-1.821-1.991-3.626-.93c-1.53.89 3.553 4.539 6.054 5.462l-2.428-4.532z" fill="#1D2538"/><path d="M422.082 420.152s-1.23-3.286-1.092-4.338l-1.465.421a12.934 12.934 0 012.557 3.917zm-20.93-23.178s.154.81-.81.405c-.809-.316-.42-1.181 0-1.958l.81 1.553z" fill="#1D2538"/><path d="M401.152 396.974s.615.688 1.222.324c.607-.364-1.198-1.562-2.04-1.877l.818 1.553z" fill="#1D2538"/><path d="M401.063 396.683c.187.478.31.979.364 1.489l.494-.146a4.55 4.55 0 01-.858-1.343z" fill="#1D2538"/><path d="M300.401 494.28l-18.26-.057c-4.047 0-5.398-3.561-2.938-7.955l22.201-38.95c2.428-4.394 4.581-5.713 8.669-5.713h16.997c4.087 0 5.406 3.561 2.946 7.955l-20.558 36.732c-2.485 4.37-4.97 7.988-9.057 7.988z" fill="#F3E7D9"/><path d="M300.336 493.041l-16.73-.056c-3.674 0-4.856-3.237-2.647-7.17l21.611-37.696c2.209-3.957 4.799-5.001 8.482-5.001h14.472c3.674 0 4.192 4.281 1.975 8.238l-19.28 34.459c-2.217 3.933-4.209 7.226-7.883 7.226z" fill="#1D2538"/><path d="M336.693 492.014h14.569c3.853 0 5.301-3.342 3.237-7.462l-18.389-36.481c-2.063-4.119-5.722-5.414-9.574-5.414h-14.618c-3.852 0-5.301 3.342-3.237 7.461l17.288 34.442c2.048 4.112 6.904 7.454 10.724 7.454z" fill="#F3E7D9"/><path d="M332.314 466.279s.51 2.541-2.76 1.319c-2.743-1.019-1.351-3.828.089-6.352l2.671 5.033zm0 0s2 2.218 3.991 1.036c1.675-.987-3.918-5.05-6.661-6.069l2.67 5.033z" fill="#1D2538"/><path d="M332.015 465.268s1.36 3.657 1.206 4.855l1.619-.469a14.414 14.414 0 01-2.825-4.386zm-17.385-16.04s.153.809-.81.405c-.809-.316-.413-1.182 0-1.951l.81 1.546z" fill="#1D2538"/><path d="M314.629 449.228s.608.672 1.223.316c.615-.356-1.206-1.546-2.04-1.862l.817 1.546z" fill="#1D2538"/><path d="M314.532 448.929c.191.471.316.967.373 1.473l.493-.138a4.51 4.51 0 01-.866-1.335z" fill="#1D2538"/><path d="M352.476 492.176h-15.475c-4.047 0-5.617-3.448-3.78-7.697l18.308-35.542c2.549-4.249 6.523-7.615 10.611-7.615l16.576-.081c4.087 0 5.617 3.447 3.432 7.696l-19.474 37.388c-2.185 4.232-6.119 5.851-10.198 5.851z" fill="#F3E7D9"/><path d="M352.646 491.366h-14.973c-3.95 0-5.439-3.334-3.319-7.445l17.725-34.401c2.121-4.111 7.042-7.446 10.992-7.446h14.981c3.95 0 5.431 3.335 3.311 7.446l-18.883 36.246c-2.088 4.119-5.876 5.6-9.834 5.6z" fill="#1D2538"/><path d="M398.311 491.366h15.014c3.966 0 5.455-3.439 3.326-7.672l-19.554-37.225c-2.129-4.241-2.331-5.892-6.297-5.892h-17.968c-3.958 0-5.447 3.431-3.327 7.672l19.263 37.695c2.129 4.249 5.617 5.422 9.543 5.422z" fill="#F3E7D9"/><path d="M382.674 453.59l-3.683-2.153 1.392-3.245 3.845 2.647-1.554 2.751zm-7.349-1.392l-1.627-.947.615-1.44 1.7 1.173-.688 1.214zm22.079 33.811l-3.674-2.153 1.392-3.245 3.836 2.647-1.554 2.751zm-2.144-32.953l-3.675-2.153 1.392-3.245 3.845 2.647-1.562 2.751zm1.343 15.271l-3.675-2.153 1.384-3.245 3.845 2.646-1.554 2.752z" fill="#1D2538"/><path d="M416.028 492.176h-15.467c-4.087 0-5.625-3.448-3.432-7.696l17.879-35.608c2.194-4.257 4.857-7.664 8.903-7.664h18.333c4.047 0 5.617 3.448 3.423 7.697l-18.316 35.542c-2.153 4.297-7.236 7.729-11.323 7.729z" fill="#F3E7D9"/><path d="M416.344 490.695h-14.569c-3.845 0-5.285-3.237-3.238-7.243l17.24-33.455c2.064-3.998 5.018-7.283 8.863-7.283l16.39.081c3.844 0 5.285 3.237 3.237 7.283l-17.24 33.455c-2.055 3.916-6.839 7.162-10.683 7.162z" fill="#1D2538"/><path d="M448.937 491.366h19.644c4.047 0 3.237-3.39 1.109-7.574l-18.017-34.968c-2.153-4.184-4.136-7.567-8.159-7.567h-19.635c-4.047 0-4.128 3.391-1.975 7.575l18.907 36.416c2.137 4.209 4.104 6.118 8.126 6.118z" fill="#F3E7D9"/><path d="M456.149 481.089s2.242 2.533 4.184 1.295c1.619-1.036-4.225-5.35-6.968-6.329l2.784 5.034z" fill="#1D2538"/><path d="M456.149 481.089s.558 2.557-2.679 1.376c-2.744-.98-1.724-5.39-.097-6.426l2.776 5.05zm8.822 5.867s.736.85 1.368.437c.631-.413-1.376-1.789-2.275-2.112l.907 1.675z" fill="#1D2538"/><path d="M464.971 486.956s.194.858-.874.469c-.899-.323-.567-1.796 0-2.144l.874 1.675zm-25.584-36.457s-.502-2.541 2.76-1.319c2.743 1.019 1.618 5.357-.089 6.352l-2.671-5.033zm0 0s-2.194-2.549-4.185-1.368c-1.675.987 4.112 5.382 6.856 6.401l-2.671-5.033zm-12.691-2.388s-.187-.979 1.003-.51c.996.397.575 2.08 0 2.428l-1.003-1.918z" fill="#1D2538"/><path d="M426.696 448.111s-.81-.987-1.522-.526c-.712.462 1.497 2.08 2.493 2.477l-.971-1.951zm27.429-7.526H295.65c-.564 0-1.02.455-1.02 1.016 0 .561.456 1.015 1.02 1.015h158.475c.564 0 1.02-.454 1.02-1.015 0-.561-.456-1.016-1.02-1.016zm-35.539-52.335h-77.708c-.563 0-1.02.455-1.02 1.016 0 .561.457 1.016 1.02 1.016h77.708c.563 0 1.02-.455 1.02-1.016 0-.561-.457-1.016-1.02-1.016z" fill="#1D2538"/><path d="M221.179 764.087s-40.469 1.618-48.562 4.855c-8.094 3.237 3.237 6.474 3.237 6.474s-50.181 0-54.228 5.665c-4.047 5.665 37.231 4.046 37.231 4.046s35.613 4.856 70.416-.809 32.375-21.85-8.094-20.231z" fill="#288453"/><path d="M242.223 753.566s-6.475-25.087-25.091-16.185c-18.616 8.902 2.428 30.752 2.428 30.752s-8.094-9.711-17.806.809c-9.713 10.521-5.666 21.041-5.666 21.041s-3.237-7.283-19.425.809c-16.187 8.093-20.234 15.376-20.234 15.376s13.759 3.237 32.375 0 63.131-9.711 71.225-9.711c8.094 0-18.616 7.284 8.094 7.284 26.709 0 38.04 4.046 35.612-2.428-2.428-6.474-5.665-21.85-13.759-17.804 0 0-3.238-13.757-17.806-11.33-14.569 2.428-14.569 15.376-14.569 15.376s-6.475-26.705-15.378-18.613c0 0 15.378-16.994 0-15.376zm50.99-16.185c-9.712 2.428-16.996 11.33-5.665 15.376 11.331 4.046 15.378-17.804 5.665-15.376zm37.232 30.752s-7.285-16.995-13.76-6.474c-6.475 10.52 4.856 17.803 4.856 17.803s-16.996-8.092-16.187 0c.809 8.093 15.378 10.521 15.378 10.521s-9.712 12.139 9.713 15.376c19.425 3.237 56.656-2.428 56.656-5.665s-29.138-3.237-29.138-3.237 17.807-11.33 2.428-17.804c-15.378-6.474-14.568 8.902-14.568 8.902s-6.475-25.896-15.378-19.422zm55.037 38.844s-47.753 2.428-23.472 6.474c24.281 4.047 39.66-8.092 23.472-6.474zm47.753-7.283s-10.522-16.185.81-25.087c11.331-8.902 13.759 12.139 13.759 12.139s4.856-13.758 11.331-7.284c6.475 6.475 0 12.139 0 12.139s11.332-10.52 23.472-7.283c12.141 3.237 13.76 4.856 5.666 7.283-8.094 2.428 33.994 3.237-8.903 9.711-42.897 6.475-46.135-1.618-46.135-1.618zm-47.753-39.654c-8.094 5.665-2.428 12.948 4.856 11.33 7.285-1.619 3.238-16.995-4.856-11.33zm-77.7-34.798c-3.237 5.665 10.522 16.995 10.522 5.665 0-11.33-7.284-11.33-10.522-5.665zm-9.712-16.994s3.237 12.948 8.093 6.474c4.857-6.474-2.428-13.758-8.093-6.474z" fill="#33A86D"/><path d="M538.891 785.127c-9.712-.081-21.108-21.955-10.409-30.873 10.7-8.918 16.358 12.584 16.358 12.584s5.997-17.488 13.12-9.096c7.122 8.392 1.74 23.404 1.74 23.404s16.252-21.494 17.604-14.292c0 0 7.527-7.866 15.637 2.897s-2.63 8.303-2.63 8.303 47.057-.251 19.732 3.407c-27.324 3.658-61.399 3.755-71.152 3.666zm-13.387-54.22s-1.619 17.804 7.284 10.52c8.904-7.283 1.619-17.803-7.284-10.52z" fill="#288453"/></svg>