<svg width="714" height="803" fill="none" xmlns="http://www.w3.org/2000/svg"><path d="M312.56 321.712c58.02-24.328 252.61-86.691 312.569-112.28 59.959-25.59 57.315-103.31 3.914-115.867-53.401-12.557-72.927 17.547-72.927 17.547s-9.595-54.877-49.88-57.216c-40.277-2.34-75.481 38.89-59.677 100.502 0 0-5.822-18.565-35.939-19.671-30.117-1.107-69.748 27.253-87.395 68.177-17.646 40.925-2.124 59.029 8.408 63.462 0 0-51.849 14.043-77.97 39.907-26.121 25.865.877 39.766 58.897 15.439zM95.622 287.203c8.816-4.411 102.286-55.546 149.901-85.517 47.615-29.971 77.598-45.847 72.303-63.476-5.296-17.63-4.412-34.382-45.855-14.986 0 0-29.983-38.793-82.886-7.055-52.903 31.739-17.64 97.867-17.64 97.867s-22.043-4.411-44.087 11.458c-22.043 15.869-23.811 23.807-19.399 29.978 4.411 6.171 10.583 4.411 10.583 4.411s-25.571 17.637-31.743 25.568c-6.165 7.923.007 6.156 8.823 1.752z" fill="#F3E7D9"/><path d="M152.58 396.729s-14.193 26.911 5.63 28.864c19.816 1.961 21.041-22.018 21.041-22.018" stroke="#1D2538" stroke-width="2" stroke-miterlimit="10"/><path d="M160.29 389.874s-6.737 12.067 7.345 26.147c11.163 11.161 26.604-9.208 26.604-9.208" stroke="#3E4C6F" stroke-width="2" stroke-miterlimit="10"/><path d="M158.388 399.417s-8.362 26.911 3.32 28.864c11.683 1.953 12.404-22.018 12.404-22.018" stroke="#992C29" stroke-width="2" stroke-miterlimit="10"/><path d="M117.109 588.993l-13.948-113.008h118.9L241.148 597.8l-124.039-8.807z" fill="#C94039"/><path d="M117.109 588.993l99.3-64.279 5.652-48.729L241.148 597.8l-124.039-8.807z" fill="#992C29"/><path d="M279.316 448.829l-57.255 27.156L240.963 597.8l57.433-63.113-19.08-85.858z" fill="#992C29"/><path d="M103.896 475.985l93.945-27.891 81.475.735-57.255 27.156H103.896z" fill="#EE5D4F"/><path d="M213.802 462.626c-19.199-1.426-57.137 4.263-57.137 4.263s-.148 1.106 0 1.797c.461 2.049 15.582 3.133 29.159 3.081 12.879-.052 31.313-3.935 33.964-6.683.617-.639.29-2.644.29-2.644s-3.922.364-6.276.186z" fill="#3E4C6F"/><path d="M213.802 460.918c-19.199-1.426-37.299.119-52.108 3.691-14.81 3.572 6.03 5.517 24.138 5.451 18.107-.067 47.169-7.723 27.97-9.142z" fill="#1D2538"/><path d="M164.724 399.743l17.706 66.21 5.14.26 4.136-2.161-20.773-71.177-6.209 6.868z" fill="#121721"/><path d="M180.231 407.734s-2.198 10.277 2.199 19.077c4.404 8.807 7.338 8.807 25.69 5.874 18.353-2.933 27.644-7.337 35.227-11.005 5.436-2.629-.735-22.263-4.404-22.753-11.743-5.139-58.712 8.807-58.712 8.807z" fill="#48598B"/><path d="M175.961 392.971s-2.199 10.277 2.198 19.077c4.404 8.807 7.338 8.807 25.691 5.874 18.352-2.933 27.643-7.337 35.226-11.005 5.437-2.629-.735-22.263-4.404-22.753-11.735-5.139-58.711 8.807-58.711 8.807z" fill="#1D2538"/><path d="M179.496 418.011s-4.404-8.072-11.742-10.277c-7.338-2.198-19.325-.49-22.757-.735-3.431-.245-11.007-11.006-16.146-24.952-5.14-13.945-7.338-26.421 8.808-33.023 16.147-6.601 52.109-16.144 68.263-16.144 16.146 0 16.146 9.543 19.815 17.615 3.669 8.072 16.147 42.565 17.617 46.233 1.471 3.669-3.179 7.092-22.021 13.211-24.383 7.909-41.837 8.072-41.837 8.072z" fill="#48598B"/><path d="M165.459 365.807c-2.622-5.688-7.227-17.303 7.873-23.622 15.099-6.32 17.283-9.186 32.382-9.186 15.099 0 13.554 5.079 16.986 12.81 3.431 7.73 15.099 40.768 16.473 44.281 1.374 3.512-71.085-18.595-73.714-24.283z" fill="#3E4C6F"/><path d="M193.898 395.196c3.776-1.811 3.782-9.649.013-17.508-3.769-7.858-9.886-12.761-13.662-10.95-3.777 1.811-3.783 9.649-.014 17.507 3.769 7.859 9.886 12.761 13.663 10.951z" fill="#273252"/><path d="M191.344 393.147c3.074-1.473 3.081-7.848.016-14.238-3.065-6.391-8.041-10.376-11.115-8.903-3.073 1.474-3.08 7.849-.016 14.239 3.065 6.39 8.042 10.376 11.115 8.902z" fill="#121721"/><path d="M225.734 382.697c3.518-1.687 3.525-8.984.017-16.299-3.509-7.314-9.204-11.877-12.721-10.191-3.518 1.687-3.525 8.984-.017 16.299 3.508 7.314 9.204 11.877 12.721 10.191z" fill="#273252"/><path d="M223.369 380.794c2.859-1.37 2.863-7.305.009-13.255-2.854-5.951-7.485-9.663-10.344-8.292-2.859 1.371-2.863 7.306-.009 13.256 2.853 5.95 7.484 9.662 10.344 8.291z" fill="#121721"/><path d="M180.211 426.221c3.603-1.265 5.169-6.148 3.498-10.908-1.672-4.759-5.948-7.592-9.551-6.327-3.603 1.265-5.169 6.148-3.497 10.908 1.671 4.759 5.947 7.592 9.55 6.327z" fill="#1D2538"/><path d="M178.533 426.578c3.603-1.265 5.169-6.149 3.497-10.908-1.671-4.76-5.947-7.593-9.55-6.328-3.603 1.265-5.169 6.149-3.497 10.909 1.671 4.759 5.947 7.592 9.55 6.327z" fill="#273252"/><path d="M181.331 354.898l44.035-83.66m-25.319 128.788l106.794 17.614M196.742 300.956s24.22 4.404 31.929 20.912m-22.021 59.444l49.249-18.438m22.786-12.535s12.544 53.979-13.681 79.413" stroke="#FFACFF" stroke-miterlimit="10"/><path d="M399.301 332.331s-20.224 5.124-24.042 27.981c-1.403 8.421-2.933 33.402-5.481 49.828-4.048 26.131-7.635 51.328-9.403 59.34-2.785 12.647-5.288 22.709 10.413 28.62 16.273 6.126 22.675-1.404 30.696-20.696 8.244-19.828 22.831-67.94 24.317-85.287 1.544-17.882-1.293-57.358-26.5-59.786z" fill="#F5894E"/><path d="M399.457 333.764c-6.157-.044-12.344 3.23-12.634 12.929-.668 22.114 6.551 65.259 7.338 79.583 1.322 23.993-33.058 68.46-23.365 71.839 16.413 5.725 22.674-1.404 30.696-20.696 8.244-19.828 22.831-67.94 24.316-85.287 1.537-17.897-20.194-58.331-26.351-58.368z" fill="#CC6D3D"/><path d="M429.915 488.802s-3.669 78.077-2.837 82.54c.832 4.463 79.908 28.04 79.908 28.04s69.904-7.463 77.665-8.087c7.761-.631 9.366-57.87 2.949-79.212-6.417-21.35-157.685-23.281-157.685-23.281z" fill="#1D2538"/><path d="M552.536 316.722c-15.938-12.684-34.008-17.889-81.482-10.218-56.795 9.178-73.38 22.418-79.567 27.379-6.201 4.975 10.948 63.358 20.321 84.566 9.328 21.09 11.445 58.665 11.445 58.665s.676 43.947.111 53.058c-.564 9.105 157.967.29 164.429-3.705 6.446-3.98-.416-73.22-5.199-91.161-4.962-18.572-15.501-107-30.058-118.584z" fill="#F7BC4B"/><path d="M508.241 394.694s-12.982 19.456-28.795 43.657c-6.61 10.114 21.851 51.87 21.851 51.87l30.332 42.097c34.046-1.663 54.403-4.21 57.04-5.836 6.447-3.981-2.065-71.958-5.585-91.659-4.404-24.676-5.905-94.814-29.382-119.861-13.925-14.86-36.756-19.033-84.23-11.362-56.795 9.178-71.805 25.322-77.992 30.29" fill="#CE9436"/><path d="M435.025 317.241s-16.332 3.832-13.317 10.374c3.023 6.543 10.985 19.983 35.42 21.669 24.435 1.686 48.18-33.52 41.451-41.763-6.729-8.243-63.554 9.72-63.554 9.72z" fill="#CC6D3D"/><path d="M433.77 314.241c-18.397 21.61 15.337 87.218 28.639 82.844 11.163-3.668 32.768-65.705 24.702-86.891-1.545-4.054-6.476-8.681-10.479-9.045" stroke="#992C29" stroke-width="3" stroke-miterlimit="10"/><path d="M463.045 410.369c2.682-.338 4.438-3.933 3.921-8.031-.516-4.098-3.109-7.146-5.791-6.808-2.682.338-4.437 3.934-3.921 8.031.516 4.098 3.109 7.146 5.791 6.808z" fill="#29ABE2"/><path d="M428.66 302.189s7.442 23.592 12.27 32.199c5.54 9.876 24.39 8.458 24.39 8.458s17.632-8.488 18.828-20.488l-7.227-53.63-48.261 33.461z" fill="#CC6D3D"/><path d="M138.009 603.511S77.723 619.9 80.077 652.804c2.355 32.904 17.818 58.665 149.389 81.255 203.539 34.953 453.824-43.977 455.829-100.057.483-13.56 4.739-28.65-27.955-37.605-167.941-46.011-441.347 1.114-519.331 7.114z" fill="#F5894E"/><path d="M131.51 586.164s-37.477 20.347-48.336 46.382c-11.794 28.271 7.791 63.262 140.788 86.208 255.492 44.08 583.836-90.166 414.06-136.897-169.776-46.732-427.681-1.782-506.512 4.307z" fill="#A96443"/><path d="M86.829 625.551l162.482 68.378 160.893 25.939 7.464-6.55 3.528-22.916 90.788-5.288 94.317-47.592 21.152-26.437 41.429-16.745s-14.394-10.575-48.774-15.862C587.793 573.51 88.96 622.395 88.96 622.395l-2.131 3.156zm544.449 41.934l7.049 8.228-.587-12.928-31.729-4.114 25.267 8.814z" fill="#7A462F"/><path d="M666.535 645.163l-62.878-16.456 1.173-3.52 64.646 16.448 1.173 14.102-4.114-10.574zm-31.729-.587l-28.208-4.701 16.451 5.288 23.507 5.874-11.75-6.461zm-47.6 18.209l-24.68-5.874-31.736-5.874 27.621 10.574 28.795 1.174zm84.617-32.905s-18.806-5.874-25.854-7.641c-7.048-1.76-15.277 0-15.277 0l41.131 7.641zm-164.54 78.151l5.882 9.988 6.462-12.929-62.291-11.748 49.947 14.689zm21.747-9.402l-29.969-7.047c0-.007-1.181 7.047 29.969 7.047zM301.612 727.42L162.05 691.285l-29.679-22.627 36.727 17.34 132.514 41.422zm75.222-1.768l-135.158-27.023 82.27 22.909 52.888 4.114zm-190.988-44.949l-49.36-28.196-37.9-13.226 37.9 18.513 49.36 22.909z" fill="#7A462F"/><path d="M21.938 596.723s140.075-25.04 149.351-25.968c9.277-.928 11.133-.928 11.133-.928l64.935-58.435s117.809 26.897 120.594 26.897c2.785 0 23.195 12.06 23.195 12.06l91.836.928 42.668 11.131s112.246-8.347 115.959-8.347c3.714 0 41.748 9.275 46.382 10.204l-75.139 38.956-20.41 28.753-77.925 50.088-248.614 9.275-243.965-94.614z" fill="#BB83C3"/><path opacity=".7" d="M245.315 682.99l-3.936-56.63-28.208-44.065 33.496-70.799s118.499 26.793 121.284 26.793c2.785 0 23.195 12.06 23.195 12.06l91.836.928 42.668 11.131s112.246-8.346 115.959-8.346c3.714 0-24.078 14.673-19.436 15.601l-34.38 27.32-20.276 28.204-184.222 59.927 21.858-77.326-84.624 76.376-54.626 7.158-20.588-8.332z" fill="#856792"/><path d="M199.312 577.252l15.656 5.644 15.634 5.711 31.223 11.54 31.164 11.695 15.56 5.911 15.538 5.978-15.664-5.636-15.634-5.718-31.224-11.54-31.156-11.696-15.567-5.911-15.53-5.978zm189.851-19.077c-2.808 4.968-5.682 9.899-8.564 14.822l-8.734 14.719-8.883 14.636-4.493 7.285-4.56 7.248 4.248-7.434 4.315-7.388 8.734-14.719 8.883-14.629c2.993-4.871 5.986-9.728 9.054-14.54zm197.679 67.755l-28.134.43-28.134.312-56.267.602-56.275-.119-28.134-.067-28.134-.178 28.134-.171 28.134-.074 56.275-.119 56.267-.379 28.134-.178 28.134-.059z" fill="#856792"/><path d="M246.043 571.141c-6.328 4.218-18.278 13.166-18.278 13.166s-26.515 11.533-30.362 23.444c-3.758 11.651.631 16.545 8.511 23.072 14.32 11.859 31.744 9.297 40.582 7.396 9.12-1.96 17.402-7.396 29.879-17.666 7.479-6.163-14.52-9.676-15.047-15.045 12.745-11.354 28.713-19.641 23.856-23.117-4.858-3.475-36.207-13.21-39.141-11.25z" stroke="#4B3355" stroke-miterlimit="10"/><path d="M241.009 589.649c5.368-3.345 8.732-7.642 7.512-9.598-1.219-1.956-6.559-.831-11.927 2.514-5.368 3.345-8.731 7.642-7.512 9.599 1.219 1.956 6.559.83 11.927-2.515zm7.968-18.753s5.629-7.827 11.742-9.787c6.12-1.961 29.723 1.834 33.637 7.708 3.914 5.874-9.544 12.839-9.544 12.839s-13.302-5.042-20.55-7.337c-7.153-1.745-15.285-3.423-15.285-3.423z" stroke="#4B3355" stroke-miterlimit="10"/><path d="M265.368 601.469s22.021 8.071 32.293-8.808c10.279-16.879-8.808-14.673-8.808-14.673" stroke="#4B3355" stroke-miterlimit="10"/><path d="M274.177 594.867s6.602 18.349 19.815 10.277c13.213-8.072-5.139-25.686-5.139-25.686m190.096 71.913s-15.411 11.005-49.175 11.005c-33.763 0-49.576-5.592-40.366-19.812 8.073-12.476 13.213-21.283 20.551-28.62 7.338-7.337 19.08-3.668 23.484-11.74 4.404-8.072 5.875-16.144 35.962-16.144 30.095 0 23.484 5.874 19.815 14.673-3.669 8.8 22.022 5.874 13.213 20.548-7.323 12.223-23.484 30.09-23.484 30.09z" stroke="#4B3355" stroke-miterlimit="10"/><path d="M427.754 618.927c2.785-.067 3.372 3.186 1.166 7.663-2.458 4.991-7.457 9.676-10.948 9.944-3.565.267-3.609-4.203-.386-9.409 2.882-4.656 7.338-8.131 10.168-8.198zm44.28 2.688c2.785-.067 3.372 3.186 1.166 7.664-2.458 4.99-7.457 9.676-10.947 9.943-3.565.267-3.61-4.203-.387-9.409 2.89-4.648 7.338-8.131 10.168-8.198z" stroke="#4B3355" stroke-miterlimit="10"/><path d="M478.949 644.034l35.234-.735" stroke="#4B3355" stroke-width=".5" stroke-miterlimit="10"/><path d="M498.772 578.723l11.252 2.198 12.722-1.96s11.988 2.933 15.657 2.933c1.656 0 11.742-1.961 11.742-1.961s15.27.646 16.881.245c2.934-.735 12.478-3.668 15.412-3.668 2.933 0 10.279.735 12.477.735 2.198 0 4.404-.735 4.404-.735m-8.073 9.55l-7.338-1.471h-5.139l-12.478 2.206-13.205.735h-12.478l-4.404.728" stroke="#4B3355" stroke-miterlimit="10"/><path d="M545.74 601.469l-38.286-.282 4.82-5.303 37.937-.259-4.471 5.844zm10.926.438l-8.163-.037 4.598-5.882 6.974.178-3.409 5.741zm-54.47 71.214l-38.287-.282 6.283-5.525 37.938-.26-5.934 6.067zm11.497-22.24l-11.134-.06 6.291-5.525 10.777-.482-5.934 6.067zm14.193 0l-11.133-.06 6.283-5.525 10.784-.482-5.934 6.067zM382.07 639.63l-11.987-.49 4.404-4.648 11.742.245-4.159 4.893z" fill="#4B3355"/><path d="M144.507 626.419a224.251 224.251 0 01-9.499-4.433 125.375 125.375 0 01-4.642-2.45c-1.515-.884-3.052-1.716-4.419-2.934l.015.015c-.75-.594-1.597-1.099-2.473-1.544a26.469 26.469 0 00-2.711-1.166l-.015-.008-.015-.007-4.226-2.005-4.211-2.042.03.015a569.61 569.61 0 01-10.903-4.189c-1.805-.735-3.617-1.462-5.385-2.294-1.76-.847-3.52-1.671-5.192-2.711l.037.015c-1.292-.364-2.591-.727-3.884-1.114 1.322.268 2.63.557 3.944.847h.015l.03.015c1.7.898 3.483 1.693 5.265 2.465 1.775.772 3.58 1.493 5.4 2.191a568.222 568.222 0 0010.91 4.129l.015.007.015.007 4.233 1.998 4.211 2.035-.029-.015c.958.364 1.871.772 2.778 1.24.891.475 1.782.988 2.562 1.678l.015.015c1.218 1.144 2.763 2.035 4.241 2.933 1.5.884 3.03 1.723 4.575 2.54 3.06 1.656 6.186 3.215 9.313 4.767zm-45.32-34.003c.453.349.765.847 1.196 1.211.416.386.899.683 1.433.869a6.54 6.54 0 001.642.341c.282.022.564.022.846.037.283.015.609.03.877.238.134.096.238.26.275.416.044.148.066.282.104.408.081.245.252.438.46.602.431.319.943.586 1.441.846l1.523.772c.519.253 1.002.565 1.515.765 2.087.869 4.226 1.671 6.35 2.481 2.117.816 4.248 1.633 6.38 2.406.534.193 1.069.386 1.596.557.283.089.498.17.751.193.252.029.497.007.802-.008.304-.022.698.03 1.01.193.304.164.549.372.765.58.223.222.438.482.579.779.149.29.23.602.327.773.148.334.683.475 1.211.579.616.111 1.173.371 1.685.616 1.04.52 2.021 1.107 2.994 1.715 1.938 1.203 3.825 2.518 5.711 3.736l6.239 2.628.015.008.007.007 2.362 1.426c.394.253.78.468 1.21.639.424.178.855.341 1.285.49-.445-.112-.891-.23-1.329-.379a7.172 7.172 0 01-1.27-.564l-2.451-1.277.022.007-3.193-1.196-1.597-.594-.802-.289-.394-.149-.097-.03a.902.902 0 01-.141-.066l-.2-.119c-1.946-1.233-3.803-2.518-5.741-3.698-.966-.587-1.939-1.166-2.941-1.656-.505-.238-1.003-.468-1.508-.55a4.81 4.81 0 01-.899-.237c-.297-.112-.653-.349-.824-.691-.178-.327-.23-.579-.349-.795a2.532 2.532 0 00-.438-.586 2.626 2.626 0 00-.58-.453c-.2-.104-.379-.134-.646-.119-.26.007-.587.037-.906 0-.319-.03-.639-.149-.899-.238a49.825 49.825 0 01-1.619-.579c-4.27-1.604-8.496-3.282-12.663-5.146-.542-.238-1.018-.557-1.515-.81-.498-.267-1.01-.527-1.508-.809-.497-.29-.995-.557-1.463-.928-.23-.193-.438-.446-.535-.75-.089-.305-.081-.572-.275-.713-.185-.156-.46-.193-.735-.215-.282-.023-.564-.03-.854-.06a6.56 6.56 0 01-1.678-.401 4.148 4.148 0 01-1.434-.943c-.408-.394-.69-.906-1.129-1.27zm62.328 18.231a14.407 14.407 0 01-2.347-.609c-.765-.275-1.522-.594-2.221-1.032-.683-.461-1.336-.869-2.064-1.188-.713-.32-1.486-.58-2.228-.721l.052.008c-.684 0-1.345-.067-2.028-.305a2.43 2.43 0 01-.505-.252c-.156-.104-.275-.208-.409-.319-.259-.223-.497-.468-.72-.684-.438-.43-.958-.765-1.508-1.076-.542-.305-1.136-.617-1.663-.765-.075-.015-.097-.015-.156-.023h-.245l-.505-.022a9.026 9.026 0 01-2.934-.683 74.001 74.001 0 01-3.58-1.574l-.074-.037-.045-.06-1.604-2.235.104.082-10.94-4.708-5.459-2.377c-1.82-.794-3.662-1.537-5.4-2.51 1.768.914 3.632 1.59 5.467 2.354l5.518 2.243 11.014 4.53.06.022.044.06 1.701 2.16-.119-.096a74.36 74.36 0 003.565 1.507 8.563 8.563 0 002.734.594l.468.015h.237c.104 0 .238.023.327.045.72.208 1.27.535 1.857.869.564.334 1.144.72 1.626 1.203.245.237.453.468.684.668.111.097.237.201.349.282.096.074.23.134.356.186.542.208 1.188.275 1.797.304h.052c.832.201 1.59.498 2.333.869.735.357 1.433.847 2.064 1.315 1.285.898 2.793 1.514 4.345 1.96z" fill="#1D2538"/><path d="M192.709 586.795l13.205 5.866m28.624-36.691l22.757 9.542m-4.404 79.257l33.028-22.753" stroke="#4B3355" stroke-width=".5" stroke-miterlimit="10"/><path d="M268.057 648.928l-8.073-3.914 4.701-3.104 7.776 3.349-4.404 3.669zm-113.516-11.496l-8.073-3.913 4.701-3.104 7.776 3.349-4.404 3.668zm26.909 12.231l-24.465-11.013 4.701-3.097 24.168 10.441-4.404 3.669zm11.742-54.306l-8.073-3.914 4.701-3.104 7.776 3.349-4.404 3.669zm167.837-26.176l-28.327-9.803 3.743-4.21 27.896 9.334-3.312 4.679zm-117.437-11.496l-8.073-3.913 4.701-3.839 7.776 3.349-4.404 4.403zm35.479 87.574l-12.477-5.629 4.701-3.096 12.18 5.057-4.404 3.668z" fill="#4B3355"/><path d="M425.021 588.696h-14.773L231.59 707.147v2.837l189.316 13.611 17.498-135.827-13.383.928zm-25.854 98.312l-81.713-3.691 94.428-84.559 11.445-1.871-24.16 90.121z" fill="#273252"/><path d="M428.222 582.391h-15.656L231.523 707.147l189.851 12.721 21.041-138.457-14.193.98zm-27.406 104.208l-86.607-3.913 98.349-86.594 12.129-1.983-23.871 92.49z" fill="#29ABE2"/><path d="M295.983 663.111h23.855m-8.444-11.005h19.942m-6.729-8.807h15.782m-2.57-9.171h15.783m-2.206-9.543h15.783m-2.206-9.17h13.584m0-9.172h10.272m-102.754 91.852l-14.921 11.74m34.982-11.005l-14.921 11.74m32.783-10.515l-14.929 11.741m32.791-10.768l-11.995 11.74m30.34-10.27l-11.252 11.741m32.048-10.27l-10.517 11.74" stroke="#1689CB" stroke-miterlimit="10"/><path d="M353.06 574.371s-6.016 9.78-14.639 15.513c-13.161 8.748-35.405 1.76-21.643-26.473 7.918-16.241 29.694-61.168 35.205-75.009 5.273-13.241 10.234-16.538 21.1-13.902 10.918 2.644 22.846 12.179 20.551 27.788-2.384 16.241-40.574 72.083-40.574 72.083z" fill="#F5894E"/><path d="M353.06 574.371s-6.016 9.78-14.639 15.513c-13.161 8.748 11.475-28.56 14.653-41.83 7.197-30.023 16.904-70.933 23.953-69.759 7.048 1.173 18.894 8.376 16.599 23.993-2.376 16.24-40.566 72.083-40.566 72.083z" fill="#CC6D3D"/><path d="M333.764 578.181c3.58 0 9.789 14.28 5.489 27.907-4.301 13.634-14.03 12.059-21.665 13.144-7.643 1.084-17.55-1.627-17.55-1.627s-8.281-1.886-14.728-5.784c-4.456-2.696-2.459-6.476-3.328-11.696-.542-3.253.431-9.401 1.954-12.119 4.166-7.404 46.241-9.825 49.828-9.825z" fill="#F5894E"/><path d="M295.663 604.632s2.332-9.119 3.996-10.96c1.664-1.842 18.337 1.269 20.439 1.5 2.102.23 1.434 15.067-.215 20.02-1.656 4.953-21.516-3.342-24.22-10.56z" fill="#CC6D3D"/><path d="M288.013 619.172s-.438 5.235 2.184 7.307c2.622 2.072 8.326 4.315 8.326 4.315s7.471.312 7.642-1.768c.164-1.945-1.21-3.854-3.283-4.485-4.129-1.262-14.869-5.369-14.869-5.369z" fill="#F5894E"/><path d="M287.917 616.194s-.438 5.236 2.183 7.307c2.622 2.072 8.326 4.315 8.326 4.315s7.472.312 7.643-1.767c.163-1.946-1.211-3.854-3.283-4.486-4.13-1.262-14.869-5.369-14.869-5.369z" fill="#CC6D3D"/><path d="M286.335 612.674s-2.02 4.849.705 7.604c2.726 2.748 9.284 6.595 9.284 6.595s9.329 2.532 10.123.609c.75-1.805-.445-4.033-2.874-5.251-4.857-2.443-17.238-9.557-17.238-9.557z" fill="#F5894E"/><path d="M287.033 611.375s-1.827 1.47.899 4.225c2.725 2.748 5.6 6.223 8.132 8.213 2.533 1.998 5.868 4.263 6.67 2.34.75-1.805 1.448-3.015-.981-4.233-4.857-2.436-14.72-10.545-14.72-10.545z" fill="#CC6D3D"/><path d="M311.342 516.509l-8.549 117.894s7.375 3.809 12.062.267l9.618-116.698s-5.34-5.013-13.131-1.463z" fill="#3E4C6F"/><path d="M314.855 634.67l9.618-116.698s-2.659-2.495-6.959-2.718c-.817-.045-8.705 117.567-8.705 117.567s2.503 3.379 6.046 1.849z" fill="#273252"/><path d="M314.855 634.67l-5.83 13.916-6.232-14.183 3.001.497 3.03-2.146 2.874 1.975 3.157-.059z" fill="#F5894E"/><path d="M307.517 645.438h2.837l-1.107 3.631-.267-.015-1.463-3.616z" fill="#1D2538"/><path d="M285.102 597.867c-4.672-3.074-5.348 3.022-4.746 7.255.304 2.139 5.459 9.557 11.816 14.028 2.496 1.76 3.981 3.49 7.39 6.037 4.137 3.097 6.93-5.369 3.016-10.292-6.053-7.619-12.804-13.954-17.476-17.028z" fill="#F5894E"/><path d="M295.359 588.496c-2.615-1.159-6.09-5.02-10.019 3.698-3.929 8.718 3.104 9 6.751 12.587 4.998 4.908 10.19 15.312 14.171 11.525 3.973-3.788 2.25-11.362-.052-15.008-3.966-6.297-9.195-12.067-10.851-12.802z" fill="#F5894E"/><path d="M284.879 598.008s4.687 5.05 9.655 9.282c2.6 2.585 8.92 9.929 8.92 9.929s-8.288-7.493-9.603-9.171c-2.518-2.369-5.749-5.636-8.972-10.04zm52.911 10.441s-7.524 7.842-13.072 8.272c-4.033.312-.282 4.597-8.058 7.33-7.777 2.732-9.515-1.649-9.143-4.255.371-2.607 5.221-9.06 12.21-17.54 6.246-7.59 27.035-4.939 18.063 6.193z" fill="#CC6D3D"/><path d="M338.48 608.434s-7.523 7.842-13.071 8.273c-4.033.311-.282 4.596-8.059 7.329-7.776 2.733-9.514-1.649-9.142-4.255.371-2.607 6.944-11.421 13.064-19.114 6.12-7.701 26.18-3.364 17.208 7.767z" fill="#F5894E"/><path d="M534.281 473.943c-21.821-4.953-24.97-21.097-21.316-45.788 3.758-25.352.55-39.439-1.188-57.328-1.775-18.238-10.785-58.999 14.631-64.324 25.438-5.324 38.049 30.915 38.235 59.2.178 27.468.215 27.498-.476 54.335-.661 26.088-8.274 58.806-29.886 53.905z" fill="#CC6D3D"/><path d="M511.546 443.408c1.798-22.731 1.976-54.692.231-72.581-1.775-18.238-10.785-58.999 14.631-64.323 20.038-4.196 16.815 3.661 16.718 27.245-.029 6.349 9.306 28.078 9.403 34.078.423 27.468-7.353 29.139-7.761 55.917-.386 26.035-35.324 46.33-33.222 19.664z" fill="#F5894E"/><path d="M469.695 578.515c-14.869.223-20.091-9.743-14.476-27.335 6.031-18.891 25.876-55.657 41.287-77.43 12.604-17.807 31.313-43.033 48.722-31.233 16.629 11.272 11.995 32.407-7.843 60.194-18.092 25.36-52.91 75.574-67.69 75.804z" fill="#CC6D3D"/><path d="M463.924 556.274c-3.521 1.449-14.312 12.491-8.697-5.094 6.03-18.891 25.876-55.657 41.287-77.43 12.604-17.807 26.537-42.521 44.273-30.706 16.948 11.287-10.903 38.489-29.374 65.809-16.867 24.943-43.954 45.966-47.489 47.421z" fill="#F5894E"/><path d="M462.914 555.198c-8.192-4.099-22.178 9.163-31.81 10.886-8.081 1.448-14.795 5.777-17.751 9.045-2.956 3.267-6.974 9.713-11.26 11.22-4.01 1.411-7.568 10.033.216 11.674 7.783 1.634 11.549-1.634 18.137-7.359 6.587-5.725 9.87-4.166 9.87-4.166s2.08 6.305 2.206 10.745c.134 4.441 1.604 9.728.721 27.647-.32 6.416 6.676 7.359 9.64 4.084 2.956-3.267 4.612-12.015 4.612-12.015s.683 6.268.884 8.228c.193 1.961-.342 8.325 6.12 8.421 7.152.193 8.326-20.562 8.326-20.562l1.374 5.094s1.997 9.691 4.114 10.968c2.117 1.277 2.926.995 4.605.587 3.357-.817 3.149-11.34 3.149-11.34-.453 7.456 7.204 12.075 9.544-8.993.304-2.717-.787-9.809-1.322-11.443-.535-1.634 1.106-21.26-1.694-28.619-2.8-7.36-11.489-10.011-19.681-14.102z" fill="#F5894E"/><path d="M485.603 609.355c1.211-2.451-.787-9.81-1.322-11.443-.534-1.634 1.107-21.261-1.693-28.62-2.8-7.359-5.481-4.827-13.673-8.918-8.192-4.1 1.069 26.198 1.069 26.198l15.619 22.783zm-38.813 10.627s1.975-9.261 2.064-16.167c.082-6.898-2.094-8.012-2.094-8.012s.2 16.626.03 24.179zm14.215 6.542s.758-18.847.446-23.37c-.312-4.529 0-6.171 0-6.171s3.668 8.956-.446 29.541zm15.292-8.904s3.669-11.859.275-17.035l-.52 17.763" fill="#CC6D3D"/><path d="M480.657 260.893c-8.586 39.67-17.446 25.865-17.446 25.865-51.893 14.971-80.874 1.247-83.986-36.053-4.515-38.444 2.622-49.991 40.218-57.521 52.354-10.493 68.864 32.377 61.214 67.709z" fill="#3E4C6F"/><path d="M489.072 248.759c-.78 28.791-13.71 31.924-13.71 31.924-10.22-4.039-65.232-33.535-74.39-55.568-7.902-19.003-5.897-34.159 30.392-37.449 18.872-1.708 36.934 4.285 45.958 13.308 7.635 7.641 10.807 33.216 11.75 47.785z" fill="#1D2538"/><path d="M413.902 223.89s-25.601 8.094-29.433 13.805c-3.832 5.71 1.24 54.068 12.752 69.477 11.349 15.193 65.433 2.784 76.135-11.384 8.772-11.607 4.479-22.419 4.011-39.165-.49-17.636-12.47-15.668-14.899-22.136-4.174-11.095-48.566-10.597-48.566-10.597z" fill="#CC6D3D"/><path d="M387.105 245.21c-3.899 6.906-3.059 39.996 9.953 59.66 8.578 12.884 74.189 4.262 69.681-18.112-2.355-11.696-6.195-33.595-21.94-46.108-19.273-15.312-55.562.787-57.694 4.56z" fill="#F5894E"/><path d="M482.967 247.816c1.069 9.305-2.117 17.659-7.115 18.706-5.028 1.047-10.012-5.673-11.119-15.037-1.106-9.402 2.11-17.837 7.175-18.818 5.043-.987 9.989 5.815 11.059 15.149z" fill="#CC6D3D"/><path d="M453.808 216.241s1.367 25.82 5.682 32.83l8.727 10.01-3.454-36.402-10.955-6.438zm-8.987-5.851s-7.041 11.569-37.202 18.171c-14.973 3.282-26.619 11.295-34.202 11.406-18.627.275 4.657-38.622 35.205-46.345 30.882-7.812 36.199 16.768 36.199 16.768z" fill="#1D2538"/><path d="M408.718 193.213c-24.286 7.181-45.424 34.598-30.421 34.36 4.256-.067 11.007-.379 19.08-1.188 13.473-4.99 26.493-14.919 26.493-14.919.43 6.669-6.767 10.887-14.966 13.516 7.197-1.033 14.921-2.444 22.638-4.382 12.678-3.185 14.156-2.822 14.178-7.099.052-8.703-10.762-28.048-37.002-20.288z" fill="#3E4C6F"/><path d="M398.981 269.708c1.382 3.505.283 5.636-1.522 6.275-1.805.639-3.64-.461-5.028-3.973-1.389-3.512-1.048-6.884.765-7.515 1.812-.631 4.404 1.708 5.785 5.213zm29.761-7.864c1.478 3.438.475 5.599-1.263 6.289-1.745.699-3.58-.334-5.065-3.779-1.486-3.453-1.27-6.81.483-7.5 1.745-.691 4.359 1.544 5.845 4.99z" fill="#34283A"/><path d="M425.355 249.643s-3.966-1.856-7.331.379m-23.811 6.193c-3.884.661-6.328 3.609-6.328 3.609" stroke="#34283A" stroke-miterlimit="10" stroke-linecap="round" stroke-linejoin="round"/></svg>