<svg width="657" height="740" fill="none" xmlns="http://www.w3.org/2000/svg"><path d="M443.133 148.799c49.617-19.501 99.234-60.215 109.5-64.32 10.265-4.106-32.85-30.108-60.91-23.95-28.059 6.159-24.637 43.109-24.637 51.32 0 0-6.844-10.948-21.9-4.79-15.056 6.159-19.163 29.423-19.163 40.372 0 10.948 9.246 4.461 17.11 1.368zM78.71 368.234s95.443-46.126 139.188-71.573c43.746-25.448 50.904-54.077 54.086-69.186 3.183-15.108.794-28.629-37.38-9.545 0 0 8.746-15.902-4.77-32.605-13.523-16.703-45.34 0-60.451 20.678-15.111 20.678-15.905 24.654-15.905 24.654s-11.135-18.29-27.84-12.727c-16.706 5.563-21.476 50.101-8.747 63.622 0 0-14.317-3.182-33.404 15.902-19.087 19.084-31.816 34.993-26.246 42.151 5.571 7.157 20.682 7.157 38.182-3.976 0 0-36.587 33.399-36.587 38.175-.007 4.769 19.874-5.57 19.874-5.57z" fill="#F3E7D9"/><path d="M475.887 425.917c7.364-8.765 20.668-24.64 20.668-24.64s20.08 19.351 26.821 25.81c7.165 6.863 21.236 17.237 14.721 18.017-6.557.78-14.126-.575-16.165-1.163 0 0-.883 20.096-27.916 15.3-26.034-4.626-26.143-23.785-18.129-33.324z" fill="#1D2538"/><path d="M522.541 439.767s48.755 46.057 47.27 50.416c-1.533 4.502-36.45 12.734-58.617-13.193-18.567-21.711-19.977-45.831 11.347-37.223z" fill="#1D2538"/><path d="M553.666 492.982c2.628 1.498 56.31 56.157 55.872 64.464-.465 8.717-27.669 20.733-52.081 3.435-22.228-15.745-38.824-87.852-3.791-67.899zm-361.008-66.25l-67.938 52.27s5.728 4.537 21.544.951l88.004 19.994-41.61-73.215z" fill="#1D2538"/><path d="M150.521 471.886l-52.888 45.243s23.488 19.036 46.496-1.341c6.577-5.823 86.444.26 86.444.26l-35.451-47.843s-33.637 1.259-44.601 3.681z" fill="#1D2538"/><path d="M115.112 519.462c-2.396 1.006-23.344 15.814-46.935 35.903 0 0 27.752 21.254 46.647 13.207 18.91-8.054 34.869-63.664.288-49.11zm161.532-148.354l-44.012 51.162s5.338 3.873 17.075.664l73.256 11.037-46.319-62.863z" fill="#1D2538"/><path d="M257.29 413.731l-38.263 36.074s53.258 77.082 67.493 59.332c4.072-5.07 36.559-61.248 36.559-61.248l-36.737-41.008c-.014-.006-20.915 4.681-29.052 6.85z" fill="#1D2538"/><path d="M233.173 451.686c-1.69.89-15.35 13.809-30.099 31.319 0 0 25.74 18.126 39.051 11.044 13.318-7.082 15.439-55.172-8.952-42.363z" fill="#1D2538"/><path d="M292.228 279.151s-13.687-76.637 54.066-93.06c67.753-16.422 89.981 35.876 93.759 47.214 7.528 22.581 7.528 36.266 7.528 36.266l-155.353 9.58z" fill="#C94039"/><path d="M294.651 271.076s20.716-29.915 70.395-41.958c49.679-12.043 58.534-.726 60.649 1.621 4.873 5.413 4.873 24.634 4.873 24.634s-35.855-7.5-72.291-3.517c-47.112 5.145-63.626 19.22-63.626 19.22z" fill="#EE5D4F"/><path d="M447.753 270.009c.677 10.257-21.75 18.53-80.928 21.91-59.178 3.387-74.597-7.294-74.597-12.515-.677-10.257 34.336-20.754 67.069-24.196 39.01-4.112 87.778 4.544 88.456 14.801z" fill="#1D2538"/><path d="M437.049 261.962l-.479-.178c.006-.109 1.553-10.531-7.022-36.929-8.733-26.871-38.715-39.393-39.009-39.523l1.218.328.711.206c.295.13 28.867 13.158 37.463 39.009 8.528 25.646 7.125 36.977 7.118 37.087z" fill="#1D2538"/><path d="M345.917 240.941c14.855 0 26.896-12.039 26.896-26.891 0-14.852-12.041-26.891-26.896-26.891-14.854 0-26.896 12.039-26.896 26.891 0 14.852 12.042 26.891 26.896 26.891z" fill="#EE5D4F"/><path d="M354.849 238.779c16.063 0 29.086-13.02 29.086-29.081s-13.023-29.081-29.086-29.081c-16.064 0-29.086 13.02-29.086 29.081s13.022 29.081 29.086 29.081z" fill="#34283A"/><path d="M351.427 235.358c16.063 0 29.086-13.02 29.086-29.081s-13.023-29.081-29.086-29.081c-16.064 0-29.086 13.02-29.086 29.081s13.022 29.081 29.086 29.081z" fill="#1689CB"/><path d="M349.716 229.2c13.607 0 24.637-11.029 24.637-24.634 0-13.604-11.03-24.633-24.637-24.633-13.607 0-24.638 11.029-24.638 24.633 0 13.605 11.031 24.634 24.638 24.634z" fill="#29ABE2"/><path d="M349.031 225.778c12.095 0 21.9-9.803 21.9-21.896s-9.805-21.896-21.9-21.896c-12.095 0-21.9 9.803-21.9 21.896s9.805 21.896 21.9 21.896z" fill="#665070"/><path d="M351.324 224.807c10.394 0 18.82-8.425 18.82-18.818 0-10.392-8.426-18.817-18.82-18.817s-18.821 8.425-18.821 18.817c0 10.393 8.427 18.818 18.821 18.818z" fill="#FEED7F"/><path d="M366.011 214.789c-7.043 11.584-20.805 6.74-20.805 6.74l21.462-24.161s6.385 5.836-.657 17.421z" fill="#F7BC4B"/><path d="M361.254 169.019L348.258 35.842m-48.734 149.421L205.306 66.702m131.578 100.695l-35.738-76.336m-32.488 74.715s17.869-50.348 79.6-47.105" stroke="#F7BC4B" stroke-miterlimit="10"/><path d="M163.97 154.766l7.309 30.86-5.68-5.686-5.687-25.988 4.058.814zm10.833 2.525l7.31 30.86-5.688-5.686-5.687-25.982 4.065.808z" fill="#3E4C6F"/><path d="M173.627 156.032l-6.495 22.738 4.873 7.308 7.309-21.117-1.622 26.803 12.182-2.436-6.495-32.489-9.752-.807z" fill="#1D2538"/><path d="M169.404 283.933c-9.137-6.363-11.956-74.337-11.395-93.654l.328-11.208s-.944-3.976 7.255-3.976c8.198 0 8.192.233 9.225 2.806 1.04 2.586 1.725 6.863 2.785 8.532 1.068 1.684 2.943 2.286 4.647 2.245 1.704-.041-.807-2.963 4.284-2.963 5.092 0 6.954-.958 8.384 5.057 1.458 6.096 12.12 58.175 12.271 63.526.157 5.42-8.473 7.034-15.494 8.56-4.586.999-12.128 11.338-13.209 14.315-1.067 2.97-5.194 9.47-9.081 6.76z" fill="#1D2538"/><path d="M187.437 257.542s1.355 20.028 13.537 30.586 22.879 14.349 22.879 14.349" stroke="#4B3355" stroke-width="3" stroke-miterlimit="10"/><path d="M185 257.542s.815 21.923 12.997 32.482c12.182 10.558 23.419 12.453 23.419 12.453m-24.083-55.938s3.312 19.727 15.549 30.224c12.237 10.489 24.097 17.051 24.097 17.051" stroke="#665070" stroke-width="3" stroke-miterlimit="10"/><path d="M193.815 246.806s3.313 19.727 15.549 30.223c12.237 10.49 24.097 17.052 24.097 17.052" stroke="#4B3355" stroke-width="3" stroke-miterlimit="10"/><path d="M187.861 250.33s3.313 19.727 15.549 30.223c12.237 10.49 24.097 17.052 24.097 17.052" stroke="#4B3355" stroke-width="3" stroke-miterlimit="10"/><path d="M179.902 167.945s11.881 5.563 15.029 3.715c3.148-1.847 6.31-5.111 8.609-9.846 2.3-4.735 4.496-7.712 2.512-9.655-1.985-1.937-4.134-3.921-4.134-3.921s2.074 1.608 3.928-.753c1.855-2.36 7.768-13.439 6.755-16.367-1.013-2.929-3.312-7.082-4.215-8.382-.904-1.3-1.664-.431-1.664-.431s.035-3.545-1.615-5.399c-1.649-1.855-4.729-3.011-4.729-3.011s.11-2.463-1.793-4.023c-1.902-1.56-2.717-1.506-6.275-2.525-3.559-1.02-5.852-1.081-5.852-1.081s-2.731-2.135-4.229-2.525c-1.499-.39-8.767-1.841-11.997.342-3.237 2.176-9.109 9.716-11.471 16.737-2.361 7.02-5.214 25.475-2.203 33.015 3.011 7.548 15.72 12.652 23.344 14.11z" fill="#992C29"/><path d="M189.812 157.749s9.704 9.108 11.689 5.283c1.656-3.203 3.702-7.096 3.702-7.096s.623-1.724.281-3.045c-.342-1.321-2.252-2.539-2.252-2.539 1.52-1.929 7.193-9.874 6.358-12.275-.828-2.402-2.71-5.803-3.449-6.863-.739-1.061-1.362-.356-1.362-.356s.027-2.901-1.321-4.421c-1.348-1.519-3.873-2.463-3.873-2.463s.089-2.012-1.472-3.291c-1.56-1.28-2.224-1.232-5.14-2.067-2.915-.834-4.79-.882-4.79-.882s-2.238-1.745-3.463-2.067c-1.225-.321-7.179-1.505-9.828.281-2.648 1.786-7.459 7.958-9.396 13.712-1.937 5.755-4.072 13.131.582 17.88 3.593 3.675 12.927 2.19 23.734 10.209z" fill="#C94039"/><path d="M183.981 104.692s4.346 3.797 4.414 6.083c.068 2.285-3.586 14.793-4.777 18.352-1.191 3.558-1.636 4.235-3.962 4.967-2.327.732-6.228-.157-6.228-.157s1.3 1.136 4.462 1.293c3.162.158 4.962-1.642 5.749-2.101.787-.458 1.765-4.208 2.703-7.827.944-3.62 3.565-12.666 3.956-14.165.39-1.498-1.362-4.488-6.317-6.445z" fill="#121721"/><path d="M200.235 113.772s-.342 5.063-3.217 15.067c-.937 3.264-1.731 8.17-6.515 7.281-3.039-.944-8.445-2.73-8.445-2.73l-.246.602s4.051 1.854 6.761 2.696c2.717.841 5.058 1.054 6.515-.438 1.458-1.492 4.155-10.647 4.948-15.239.794-4.598 2.019-5.699.199-7.239zm6.494 8.526s-3.038 11.653-4.079 15.115c-1.033 3.463-3.298 4.297-6.884 6.295l1.122.117s5.55-2.375 6.399-5.618c.849-3.243 4.236-16.155 4.236-16.155s-.144-.062-.41 0a.67.67 0 00-.384.246z" fill="#121721"/><path d="M203.684 150.346s-6.885-6.323-10.177-8.519c-3.291-2.197-6.412.061-7.343 2.087-.924 2.025-3.661 4.31-1.526 6.336 2.128 2.025 6.659 3.996 8.958 5.878 0 0-.205.157-.828 1.744-.622 1.588-1.615 1.91-1.615 1.91l1.52-3.648s-9.424-5.111-9.595-7.02c-.172-1.909 2.21-5.419 3.579-7.595 1.369-2.176 4.12-1.992 7.726.013 3.607 1.998 9.301 8.814 9.301 8.814z" fill="#121721"/><path d="M197.997 302.881c11.811 0 21.386-9.574 21.386-21.383 0-11.81-9.575-21.383-21.386-21.383-11.812 0-21.387 9.573-21.387 21.383 0 11.809 9.575 21.383 21.387 21.383z" fill="#992C29"/><path d="M193.664 290.968a7.85 7.85 0 100-15.697 7.85 7.85 0 100 15.697z" fill="#4B3355"/><path d="M179.313 255.646s1.356 20.029 13.537 30.587c12.182 10.558 22.879 14.349 22.879 14.349" stroke="#856792" stroke-width="3" stroke-miterlimit="10"/><path d="M173.359 254.565s1.355 20.028 13.537 30.587c12.182 10.558 22.879 14.348 22.879 14.348" stroke="#BB83C3" stroke-width="3" stroke-miterlimit="10"/><path d="M175.255 259.841s2.71 26.392 14.892 36.95c12.182 10.558 22.879 14.349 22.879 14.349" stroke="#665070" stroke-width="3" stroke-miterlimit="10"/><path d="M293.926 311.365c-6.215-5.768-2.697-4.591-33.788-19.672-19.012-9.224-33.233-13.986-39.714-15.936-2.416-.726-6.625.52-7.193 3.749-1.287 7.267-2.423 11.763-4.51 15.642-2.053 3.805-3.922 5.249-7.145 3.545-3.1-1.642-7.049-6.069-8.212-1.615-1.143 4.4-1.335 14.746 2.497 17.298 8.439 5.632 57.522 38.346 78.923 43.56 24.398 5.946 25.547-40.618 19.142-46.571z" fill="#C94039"/><path d="M269.322 315.149c-4.441-3.948 1.91-2.559-20.579-13.124-13.941-6.548-24.453-10.024-29.271-11.461-1.8-.541-4.948.267-5.372 2.491-.965 5.022-1.814 8.135-3.388 10.811-1.546 2.634-2.956 3.626-5.393 2.402-2.347-1.177-5.338-4.318-6.227-1.212-.883 3.08-1.041 10.346 1.868 12.167 6.406 4.003 43.184 26.528 58.781 30.456 8.384 2.128 14.146-28.472 9.581-32.53z" fill="#EE5D4F"/><path d="M192.823 305.953l89.776 47.563" stroke="#1D2538" stroke-width=".5" stroke-miterlimit="10"/><path d="M298.675 304.735s-14.173-7.014-16.158-1.916c-1.102 12.837-8.13 37.627-14.659 54.604 1.889 2.484 11.155 9.723 18.718 7.253 7.918-2.58 12.099-59.941 12.099-59.941z" fill="#F7BC4B"/><path d="M283.427 337.764c-2.764-1.738-4.174-5.009-3.579-8.225 1.903-10.318 4.284-30.853 2.669-26.713-1.102 12.837-8.13 37.627-14.659 54.604 1.889 2.484 11.155 9.723 18.718 7.253 4.092-1.334 6.631-25.119 6.631-25.119-4.825-.151-7.48-.356-9.78-1.8z" fill="#FEED7F"/><path d="M167.686 282.75c-10.444-7.096-14.345-80.955-12.497-99.642 1.684-17.031 1.034-10.449 1.034-10.449s-.746-3.64 7.788-3.64c8.479 0 8.466.212 9.431 2.545.978 2.361 1.519 6.296 2.566 7.842 1.054 1.56 2.991 2.108 4.77 2.067 1.773-.048-.746-2.744 4.531-2.765 5.256-.02 7.186-.903 8.568 4.646 1.424 5.714 11.299 55.316 13.332 70.219-3.046-1.163-9.958-.062-18.814 4.099-8.999 4.228-14.878 10.66-16.548 16.415-1.704 5.844.301 11.694-4.161 8.663z" fill="#C94039"/><path d="M198.537 206.106l-2.073-10.921s-22.742-6.856-41.877 2.525l.363 11.55c0 .007 22.652-10.729 43.587-3.154z" fill="#F7BC4B"/><path d="M155.216 214.632l-.136-3.791s12.058-4.482 22.064-5.276c11.915-.944 21.927 2.84 21.927 2.84l.678 3.928s-8.445-4.373-22.393-3.387c-6.33.451-13.804 2.429-22.14 5.686z" fill="#F7BC4B"/><path d="M166.146 279.582c-5.783-16.901-8.602-56.869-8.602-56.869s-.671-3.285 7.021-3.285c7.645 0 22.927 8.307 26.937 12.933 7.672 8.841 10.923 17.866 9.479 18.584-1.444.719-8.172 2.265-16.158 6.015-8.117 3.811-13.421 9.614-14.926 14.807-1.533 5.269-2.177 12.427-3.751 7.815z" fill="#EE5D4F"/><path d="M162.71 169.019c-4.092 7.588-4.058 43.697.363 70.924 3.367 20.753 9.745 31.674 9.745 31.674" stroke="#1D2538" stroke-width=".5" stroke-miterlimit="10"/><path d="M293.597 304.372s15.672-23.819 67.117-27.61c60.279-6.137 88.92 16.074 88.92 16.074l51.322 285.678-235.85-6.932 28.491-267.21z" fill="#992C29"/><path d="M284.091 393.162s37.36-25.174 90.16-25.174c52.799 0 93.314 24.633 93.314 24.633l7.131 39.16s-46.838-24.004-97.195-24.811c-50.356-.807-97.831 26.98-97.831 26.98l4.421-40.788z" fill="#F7BC4B"/><path d="M278.363 447.43s40.809-22.464 97.55-22.464c56.742 0 101.219 21.876 101.219 21.876l7.043 36.006s-64.619-27.61-105.77-27.248c-41.152.363-104.149 27.466-104.149 27.466l4.107-35.636z" fill="#F7BC4B"/><path d="M299.14 326.563s9.965-11.612 50.74-14.616c54.148 9.744 128.875 194.357 128.875 194.357s-44.403-18.947-101.26-19.761c-56.858-.815-101.261 28.424-101.261 28.424l22.906-188.404z" fill="#EE5D4F"/><path d="M446.288 435.285s4.305 8.485 8.911 18.105c3.825 7.992 7.808 16.778 10.162 21.999-91.658-51.908-184.89 5.468-184.89 5.468l4.366-36.499s40.666-19.173 92.842-18.892c33.932.178 54.148 5.768 68.609 9.819zm-154.71-46.468l-5.14 41.609s22.564-16.422 71.429-20.616c48.871-4.195 79.1 7.444 79.1 7.444s-11.888-23.278-26.171-45.475c0-.007-52.252-16.518-119.218 17.038z" fill="#FEED7F"/><path d="M453.843 313.035s-30.865-27.884-89.434-23.203c-21.427 1.71-46.113 8.403-71.572 23.75m23.926-12.008l-3.073 66.003" stroke="#1D2538" stroke-width=".5" stroke-miterlimit="10"/><path d="M285.111 385.094l-.137.117.041-.486s5.947-5.81 17.698-12.112c10.847-5.809 28.929-13.178 53.484-15.286 54.901-4.721 99.234 11.064 109.315 23.915l.13.718-.205-.253c-9.629-12.837-54.059-28.78-109.213-24.045-24.5 2.108-42.54 9.45-53.353 15.246-11.703 6.281-17.698 12.125-17.76 12.186z" fill="#1D2538"/><path d="M477.673 494.672s-45.031-34.172-105.044-29.239c-46.291 3.805-79.059 15.43-94.423 27.631m97.304-203.67l.362 32.844s28.566.411 39.708 2.888c16.247 3.606 19.854 5.775 19.854 5.775l-2.888-30.682s-26.691-11.817-57.036-10.825zm58.48 25.625s12.996 3.969 17.328 7.938m-75.445-7.938s-34.294-2.162-59.924 10.825m119.485 5.057l2.258 34.87" stroke="#1D2538" stroke-width=".5" stroke-miterlimit="10"/><path d="M577.304 154.766l-7.309 30.86 5.687-5.686 5.681-25.988-4.059.814zm-10.826 2.525l-7.316 30.86 5.687-5.686 5.687-25.982-4.058.808z" fill="#3E4C6F"/><path d="M567.648 156.032l6.495 22.738-4.873 7.308-7.309-21.117 1.629 26.803-12.189-2.436 6.501-32.489 9.746-.807z" fill="#1D2538"/><path d="M551.695 258.171c-3.387-.876-5.536-3.668-5.331-6.76.883-13.412 2.779-46.804 2.957-49.028.212-2.716 1.471-5.371 5.7-6.117 4.202-.739 9.397-.739 9.944-2.935.534-2.156-.061-5.734 3.573-5.994 3.627-.26 8.589-1.109 10.553.691 2.669 2.443 13.694 48.671 15.063 69.972 1.608 25.044-18.547 37.142-20.1 34.829-1.526-2.279 5.222-7.63-.691-23.354-3.456-9.203-15.878-9.805-21.668-11.304z" fill="#1D2538"/><path d="M573.513 248.338s-1.355 20.029-13.537 30.587-22.879 14.349-22.879 14.349" stroke="#4B3355" stroke-width="3" stroke-miterlimit="10"/><path d="M575.949 248.338s-.814 21.924-12.996 32.482-23.419 12.454-23.419 12.454m21.236-58.785s-3.313 19.727-15.549 30.224c-12.237 10.489-24.097 17.051-24.097 17.051" stroke="#665070" stroke-width="3" stroke-miterlimit="10"/><path d="M564.294 234.763s-3.312 19.727-15.549 30.223c-12.236 10.49-24.097 17.052-24.097 17.052m48.441-40.912s-3.313 19.727-15.549 30.224c-12.237 10.49-24.097 17.052-24.097 17.052" stroke="#4B3355" stroke-width="3" stroke-miterlimit="10"/><path d="M556.76 172.345s-12.134 4.728-15.125 2.682c-2.991-2.046-5.893-5.495-7.843-10.332-1.95-4.845-3.921-7.945-1.82-9.724a223.486 223.486 0 014.359-3.592s-2.163 1.444-3.839-1.02c-1.677-2.463-6.762-13.835-5.557-16.661 1.204-2.833 3.764-6.781 4.749-8.006.986-1.225 1.677-.315 1.677-.315s.212-3.51 1.971-5.228c1.759-1.717 4.886-2.648 4.886-2.648s.062-2.443 2.053-3.859c1.992-1.416 2.793-1.307 6.386-2.067 3.593-.759 5.865-.663 5.865-.663s2.854-1.923 4.359-2.204c1.513-.28 8.801-1.218 11.854 1.164 3.052 2.381 8.342 10.236 10.197 17.352 1.854 7.117 3.408 25.571-.096 32.824-3.497 7.247-16.432 11.386-24.076 12.297z" fill="#992C29"/><path d="M549.608 163.593s-8.733 4.961-10.854 4.475c-2.122-.486-3.504-1.423-5.024-5.214-1.519-3.791-3.066-6.213-1.423-7.609 1.642-1.396 1.724-1.683.41-3.606-1.314-1.93-5.29-10.825-4.345-13.035.944-2.217 2.942-5.303 3.716-6.268.773-.965 1.314-.246 1.314-.246s.164-2.744 1.54-4.092c1.375-1.348 3.818-2.074 3.818-2.074s.048-1.909 1.609-3.017c1.56-1.109 2.183-1.02 4.996-1.615 2.806-.595 4.585-.52 4.585-.52s2.231-1.505 3.408-1.724c1.177-.219 6.885-.951 9.273.91 2.389 1.861 6.529 8.012 7.98 13.575 1.451 5.57 2.396 11.147-.342 16.82-2.737 5.672-10.683 4.31-20.661 13.24z" fill="#C94039"/><path d="M557.088 109.516s-4.558 3.455-4.791 5.713c-.232 2.258 2.533 14.89 3.47 18.489.938 3.599 1.328 4.311 3.579 5.187 2.252.876 6.174.274 6.174.274s-1.369 1.04-4.504.971c-3.134-.061-4.797-1.964-5.543-2.477-.746-.513-1.458-4.283-2.135-7.93-.685-3.648-2.656-12.782-2.943-14.288-.288-1.505 1.649-4.345 6.693-5.939z" fill="#121721"/><path d="M540.376 117.378s-.014 5.036 2.142 15.136c.705 3.298 1.15 8.204 5.947 7.65 3.073-.726 8.541-2.121 8.541-2.121l.198.615s-4.133 1.554-6.878 2.204c-2.744.643-5.078.691-6.412-.883-1.335-1.574-3.374-10.825-3.846-15.423-.466-4.605-1.602-5.782.308-7.178zm-7.015 7.992s2.21 11.742 2.99 15.239c.781 3.496 2.964 4.475 6.379 6.699l-1.123.034s-5.331-2.73-5.94-6.001c-.616-3.271-3.08-16.279-3.08-16.279s.144-.054.404.028c.26.089.37.28.37.28z" fill="#121721"/><path d="M534.442 153.336s7.248-5.782 10.663-7.725c3.415-1.944 6.344.506 7.124 2.572.781 2.067 1.691 3.004-.547 5.639-2.238 2.634-6.878 6.89-6.878 6.89s4.127 2.19 5.885 4.243c-.629-2.361-3.894-5.167-3.894-5.167s7.152-6.288 7.453-8.17c.301-1.881-1.136-3.599-2.34-5.85-1.205-2.251-3.942-2.258-7.652-.52-3.709 1.738-9.814 8.088-9.814 8.088z" fill="#121721"/><path d="M556.007 298.234c11.811 0 21.387-9.573 21.387-21.383 0-11.809-9.576-21.383-21.387-21.383-11.812 0-21.387 9.574-21.387 21.383 0 11.81 9.575 21.383 21.387 21.383z" fill="#992C29"/><path d="M559.258 284.159a7.041 7.041 0 100-14.082 7.042 7.042 0 100 14.082z" fill="#4B3355"/><path d="M576.264 250.952s-1.355 20.028-13.537 30.587c-12.182 10.558-22.878 14.348-22.878 14.348" stroke="#856792" stroke-width="3" stroke-miterlimit="10"/><path d="M582.225 249.871s-1.355 20.028-13.537 30.586c-12.182 10.559-22.878 14.349-22.878 14.349" stroke="#BB83C3" stroke-width="3" stroke-miterlimit="10"/><path d="M578.974 261.51s-1.355 20.029-13.537 30.587-22.878 14.349-22.878 14.349" stroke="#665070" stroke-width="3" stroke-miterlimit="10"/><path d="M451.831 291.905s64.79-21.144 73.769-23.716c8.623-2.477 12.127-1.061 13.188 6.179 1.047 7.13 4.599 10.53 11.176 11.351 6.344.794 8.075.568 9.376.828 1.3.26 2.115 3.025 2.197 9.559.075 6.268 2.196 7.308-11.402 15.711-14.488 8.95-74.262 35.294-74.262 35.294s-17.656-9.354-23.227-22.731c-5.804-13.918-.815-32.475-.815-32.475z" fill="#C94039"/><path d="M498.334 308.765c14.831-4.981 33.61-13.706 38.798-13.11 5.023.574 11.696 2.518 15.946 2.408 4.222-.102 5.399-2.094 5.475 2.97.068 4.865-4.497 5.898-15.173 12.488-11.347 7-63.435 28.506-63.435 28.506s-7.726-8.478-8.808-18.981c-.588-5.81 12.121-9.217 27.197-14.281z" fill="#EE5D4F"/><path d="M477.728 330.846c.075 1.232-.821 2.279-2.012 2.34-1.191.062-2.224-.896-2.307-2.128-.082-1.238.822-2.292 2.013-2.347 1.197-.061 2.224.897 2.306 2.135z" fill="#3E4C6F"/><path d="M467.182 339.358l94.272-39.858" stroke="#1D2538" stroke-width=".5" stroke-miterlimit="10"/><path d="M456.786 289.25s-11.107 2.019-13.277 4.585c-2.183 2.579.842 25.906 7.59 39.523 6.461 13.028 13.551 19.043 20.299 16.073 3.298-1.458 6.638-3.223 6.638-3.223s-6.899-7.664-13.421-27.097c-7.179-21.41-7.829-29.861-7.829-29.861z" fill="#FEED7F"/><path d="M456.786 289.25s-11.107 2.019-13.277 4.585c-2.183 2.579 5.468 26.269 5.468 26.269s2.875 3.941 15.638-.993c-7.179-21.41-7.829-29.861-7.829-29.861z" fill="#F7BC4B"/><path d="M556.007 249.146c-6.317 0-9.294 4.57-9.294 4.57s-.609-.205-.205-4.447c1.444-17.798 2.792-56.862 2.936-58.737.233-3.038 1.594-6.008 6.18-6.843 4.551-.828 10.183-.828 10.772-3.284.582-2.409-.062-6.418 3.873-6.706 3.929-.287 9.308-1.238 11.436.773 2.895 2.737 14.838 54.44 16.323 78.273 1.745 28.013-20.682 42.205-22.359 39.618-1.656-2.552 8.952-9.73 2.546-27.322-3.757-10.298-15.891-15.895-22.208-15.895z" fill="#C94039"/><path d="M550.545 219.374s12.997 1.621 18.951-1.622c5.954-3.25-.336-28.492-.336-28.492l-17.663 3.722-.952 26.392z" stroke="#1D2538" stroke-width=".5" stroke-miterlimit="10"/><path d="M557.971 247.189c-7.515.328-9 .999-8.644-2.73.63-13.261 37.093-19.036 39.892-18.947 3.463.109 7.221 14.075 6.139 31.4-1.081 17.326-10.546 31.565-11.915 15.157-.725-8.663-8.308-25.626-25.472-24.88z" fill="#EE5D4F"/><path d="M574.957 173.172c1.02 2.984 21.838 65.689 10.471 113.334" stroke="#1D2538" stroke-width=".5" stroke-miterlimit="10"/><path d="M467.6 249.468c-3.21 3.202-10.553 8.512-6.919 11.988 2.812 2.696 6.323-.171 12.284-6.056 3.833-3.784-2.156-9.135-5.365-5.932z" fill="#CC6D3D"/><path d="M464.999 257.576l1.854 3.148 5.284-5.379-7.138 2.231z" fill="#F5894E"/><path d="M478.645 243.412s-3.175-2.929-6.837.958c-4.127 4.386-4.325 4.714-4.325 4.714l5.475 6.316s7.138-10.804 5.687-11.988z" fill="#C94039"/><path d="M460.051 261.428c2.676 1.513 3.907 1.519 5.625-.663 1.718-2.183-2.901-5.167-9.834-8.814-6.94-3.647-9.273-5.31-10.348-3.729-1.081 1.581 1.992 5.242 6.81 8.369s5.071 3.325 7.747 4.837z" fill="#CC6D3D"/><path d="M459.599 260.881c2.676 1.512 3.874.691 3.874.691l-1.869-2.785s-15.104-6.439-10.286-3.312c4.818 3.127 5.605 3.894 8.281 5.406z" fill="#F5894E"/><path d="M445.309 251.89c-1.225-.815-1.991-1.205-2.703-1.923-.821-1.225-1.513-3.613-2.135-4.632-1.287-2.094.13-3.853.684-2.443.554 1.409 3.258 3.838 3.258 3.838l-1.178-4.249-3.421-4.16s-.158-3.613.93-3.264c1.088.349 3.162 4.673 4.996 5.132 1.834.458 4.243 7.78 3.737 9.388-.506 1.608-2.573 3.271-4.168 2.313z" fill="#CC6D3D"/><path d="M461.125 279.445s-1.423 5.18 9.677 3.298c11.101-1.882 31.358-6.809 31.358-6.809s-34.239-4.871-41.035 3.511z" fill="#EE5D4F"/><path d="M475.846 300.869l8.506 13.124 3.758-4.044-6.557-13.487-5.707 4.407z" fill="#CC6D3D"/><path d="M466.744 278.056c-.746.184-5.167 1.026-.965 8.04 4.845 8.088 6.009 9.901 10.163 15.033l5.762-4.27s-3.278-8.211-4.859-12.871c-1.95-5.748-9.355-6.117-10.101-5.932z" fill="#1D2538"/><path d="M475.75 297.085c-3.08-.807-14.173-18.003-9.971-10.989 4.845 8.088 6.008 9.901 10.163 15.033l5.762-4.27c0 .007-2.867 1.033-5.954.226z" fill="#3E4C6F"/><path d="M484.017 312.535s-1.882 7.698.165 8.554c2.046.855 5.208-9.327 3.928-11.14-1.28-1.813-4.093 2.586-4.093 2.586z" fill="#CC6D3D"/><path d="M483.716 313.808s-.575 5.064.459 5.132c1.026.069 2.854-3.387 3.428-4.434.575-1.047-.157-4.612.664-4.742.815-.13 2.122 2.183 2.156 3.209.014.356-.719 1.225-1.314 3.333-.383 1.355-.506 3.784-1.047 5.063-1.04 2.457-2.895 4.167-3.634 4.544-1.711.883-2.115-1.67-2.128-4.954-.021-3.285 1.416-7.151 1.416-7.151z" fill="#C94039"/><path d="M487.768 313.398c.102-1.376-.315-3.497.499-3.627.815-.13 2.122 2.183 2.156 3.209.014.356-.719 1.225-1.314 3.333-.383 1.354-.507 3.784-1.047 5.063-1.04 2.457-2.895 4.167-3.634 4.544-1.711.882 2.867-2.806 2.847-6.09-.007-.808-2.307-1.273-2.307-1.273s2.615-2.716 2.8-5.159z" fill="#992C29"/><path d="M477.591 270.591s-9.424 4.16-12.147 7.369c-2.724 3.209-2.464 9.97 10.772 4.79 9.143-3.579 18.485-7.089 14.132-8.218-4.346-1.129-8.117-6.227-12.757-3.941z" fill="#1D2538"/><path d="M477.311 321.267s-1.704 2.949-2.423 4.618c-.623 1.458-1.855 3.387-2.087 4.516-.5 2.436-.308 3.784.739 3.914 1.047.13 3.846-.786 5.427-2.524.89-.979 2.614-5.564 2.963-7.76.281-1.711-1.615-6.911-4.619-2.764z" fill="#C94039"/><path d="M478.96 327.863c-.91 4.406-6.467 6.329-5.42 6.452 1.047.13 3.846-.786 5.427-2.525.89-.978 3.682-7.027 4.038-9.223.274-1.718-1.027-3.203-1.403-3.565-.37-.356-5.544 4.769-2.642 8.861z" fill="#992C29"/><path d="M478.85 306.473l-.923 12.967s-3.073 8.628-2.259 8.662c.815.035 3.689-2.011 5.236-5.2.999-2.073 3.599-13.329 4.612-16.196 3.395-9.655-6.371-8.17-6.666-.233z" fill="#F5894E"/><path d="M492.915 273.191c-2.06 1.005-10.916 2.942-11.785 8.902-1.075 7.335-2.3 24.647-2.3 24.647l6.536.232s4.229-9.641 5.441-15.779c.862-4.365 1.218-7.875 1.218-7.875s8.91-6.61 9.67-9.026c.753-2.415-6.72-2.107-8.78-1.101z" fill="#1D2538"/><path d="M480.165 291.214l-.568 6.343-.774 9.19 6.543.225-4.627-5.022-.574-10.736z" fill="#3E4C6F"/><path d="M497.014 264.425c.889-1.122-.945-3.004-1.191-5.474-.411-4.188.02-9.744-1.088-13.754-.767-2.784-.739-3.133-2.58-4.447-1.219-.869-5.941.732-10.725.924-4.831.198-5.153.492-6.953 5.686-1.711 4.933-.253 5.823 1.677 9.251 1.54 2.737 4.024 5.679 4.024 5.679s.561 3.36 4.859 4.208c5.626 1.123 9.575.958 11.977-2.073z" fill="#CE9436"/><path d="M477.646 235.974l1.916 6.055s1.04 2.676 3.073 2.696c2.033.021 3.292-2.552 3.114-3.181-.178-.63-2.512-7.945-2.512-7.945l-5.591 2.375z" fill="#CC6D3D"/><path d="M480.698 262.954c-2.505 1.266-8.774 7.096-12.654 9.388-8.431 6.07-6.919 7.103-6.919 7.103s2.888-2.669 6.31-1.875c1.882.438 6.173 3.893 11.819 1.273 4.147-1.923 10.806-2.833 10.806-2.833s6.365 1.17 7.549 1.464c3.634.903 5.803-1.56 5.803-1.56-1.368-3.743-6.097-14.753-9.396-15.998-3.312-1.239-10.813 1.772-13.318 3.038z" fill="#F7BC4B"/><path d="M497.602 277.481c3.607.978 5.804-1.56 5.804-1.56-1.985-5.933-5.674-11.776-5.674-11.776l3.066 9.75-3.196 3.586z" fill="#CE9436"/><path d="M482.922 255.434c-1.211.678-7.945-3.695-7.322-2.114.622 1.574 4.872 11.057 6.741 11.824 1.861.766 3.757-3.285 6.193-3.873 2.437-.589 6.673 1.143 6.543.103-.13-1.041-5.277-9.785-12.155-5.94z" fill="#F7BC4B"/><path d="M479.931 276.085c-2.039 1.177-6.221 1.902-6.221 1.902s4.805-2.504 8.665-8.485c.006 0-.404 5.406-2.444 6.583z" fill="#CE9436"/><path d="M500.326 249.782s2.786 4.981 3.846 8.683c1.061 3.702-1.601 5.42-3.271 5.344-1.67-.068-4.975-8.437-7.117-11.878-2.142-3.442 3.586-7.91 6.542-2.149z" fill="#CC6D3D"/><path d="M493.708 252.984s-5.358-9.087-1.334-11.755c4.017-2.676 7.514 6.247 8.39 8.82l-7.056 2.935z" fill="#C94039"/><path d="M507.615 276.844s-7.802-11.249-8.959-15.272c-1.156-4.024 3.669-4.646 5.428-3.079 1.752 1.56 5.906 12.994 6.782 15.84.876 2.847-1.492 3.907-3.251 2.511z" fill="#CC6D3D"/><path d="M506.376 274.429s-6.009-8.669-6.899-11.762c-.889-3.1 8.733 7.636 9.404 9.832.67 2.19-1.143 3.004-2.505 1.93z" fill="#F5894E"/><path d="M507.396 275.27s-.37 2.771.137 4.584c.184.822 1.711.986 2.922 1.191 1.211.205 2.429.178 3.121.13.684-.048 1.663-.821-.589-1.368-.965-.233-2.977-1.15-2.977-1.15s-.301-1.943-.739-2.922c-.719-1.621-1.875-.465-1.875-.465z" fill="#CC6D3D"/><path d="M510.77 279.075s3.654-.274 4.9-.109c1.321.178 3.798.875 4.27.198.459-.671-1.177-1.69-1.697-1.731-.506-.048-4.298-.246-4.298-.246s-7.22.396-3.175 1.888z" fill="#CC6D3D"/><path d="M509.579 277.043s3.942-1.423 4.647-1.519c.725-.096 5.687 3.278 4.127 3.271-1.472-.007-3.066-1.478-4.319-.678-1.238.787-4.852 1.335-4.455-1.074z" fill="#CC6D3D"/><path d="M509.278 275.736s2.696-1.197 3.401-.931c.739.281 3.415 2.43 1.8 2.43-1.512.006-5.03 2.264-5.201-1.499z" fill="#CC6D3D"/><path d="M470.494 235.351s2.71 4.516 6.844 2.669c4.133-1.855 5.153-12.372-.979-12.166-6.132.205-8.158 6.411-5.865 9.497z" fill="#273252"/><path d="M473.451 221.242c2.066-2.231 2.84-5.098 7.357-4.161 0 0 4.626-1.498 9.068 1.677 5.324 3.811 3.305 9.333 3.305 9.333s5.858 5.885-1.157 9.819c-3.38 1.896-9.574 0-12.291-.869-6.057-1.929-8.349-13.569-6.282-15.799z" fill="#273252"/><path d="M479.548 219.88c-2.285.575-10.45-.5-10.635-2.381-.185-1.882 6.782-3.935 7.816.02 0 0-1.649-3.845.705-4.906 2.361-1.067 4.4 6.692 2.114 7.267z" fill="#273252"/><path d="M471.398 227.838c-.972 8.875 4.681 10.996 10.799 10.209 4.599-.589 5.242-3.51 4.989-9.313-.253-5.802-2.532-10.127-7.158-10.448-6.112-.425-8.001 3.79-8.63 9.552z" fill="#CC6D3D"/><path d="M473.328 232.662c1.067 3.127 3.49 5.406 7.692 4.899 3.374-.403 5.345-2.997 5.496-6.213.15-3.216-6.981-5.447-10.328-5.549-4.414-.13-3.928 3.729-2.86 6.863z" fill="#F5894E"/><path d="M488.24 229.857l-3.901-.199s-.171-7.096-4.667-8.799c-4.722-1.793-6.878 1.231-6.878 1.231s2.252-6.069 9.232-3.524c5.55 2.019 6.214 11.291 6.214 11.291z" fill="#F7BC4B"/><path d="M489.171 230.301c.47-1.776-.273-3.512-1.658-3.878-1.385-.366-2.888.777-3.357 2.552-.469 1.776.273 3.512 1.658 3.878 1.385.366 2.888-.777 3.357-2.552z" fill="#F5894E"/><path d="M478.522 224.403s-1.191-.787-1.958-.78" stroke="#1D2538" stroke-width=".25" stroke-miterlimit="10" stroke-linecap="round" stroke-linejoin="round"/><path d="M477.546 226.731c.15-.695-.03-1.323-.403-1.404-.373-.081-.798.416-.948 1.111-.151.694.029 1.322.402 1.403.373.081.798-.416.949-1.11zm-4.402-.573c.061-.64-.085-1.177-.326-1.2-.24-.023-.485.477-.546 1.116-.062.64.084 1.177.325 1.2.24.023.485-.477.547-1.116z" fill="#273252"/><path d="M473.676 223.171s-.876-.061-1.307.356" stroke="#1D2538" stroke-width=".25" stroke-miterlimit="10" stroke-linecap="round" stroke-linejoin="round"/><path d="M488.452 232.327s-4.072-1.738-6.447.992 1.444 9.593 6.084 7.102c4.64-2.477 3.484-7.082.363-8.094z" fill="#273252"/><path d="M482.423 219.948s-.185 3.045.582 5.146c.581 1.588 1.368 2.511 1.368 2.511l.192-.643.944.089s-1.861-2.135-2.409-6.952l-.677-.151z" fill="#EE5D4F"/><path d="M482.464 219.613s-1.218 2.799-1.218 5.029c0 1.69.424 2.826.424 2.826l.397-.54.855.403s-1.013-2.641.117-7.362l-.575-.356z" fill="#EE5D4F"/><path d="M482.334 221.57c.609.397 3.723-1.943 2.525-3.161-1.123-1.15-2.601-2.245-3.203-1.15-.609 1.088.062 3.914.678 4.311z" fill="#EE5D4F"/><path d="M484.271 220.393s.924-1.382.527-1.704c-.397-.321-.541.507-1.184 1.383-.637.889.253.896.657.321z" fill="#F7BC4B"/><path d="M482.437 220.578s.438-.63 1.738-.411c1.307.212 2.19.493 2.409 1.287.219.793-.91 2.36-1.855 2.792-.951.431-2.244-1.773-2.45-2.457-.205-.684.158-1.211.158-1.211z" fill="#EE5D4F"/><path d="M485.81 222.843s-.876 1.279-1.546.992c-.999-.424 1.451-2.108 1.806-2.402.35-.294.623.732-.26 1.41z" fill="#F7BC4B"/><path d="M185.952 531.875s-86.266 54.556-111.095 65.059c-25.691 10.866 23.22 11.824 23.22 11.824s-22.597 13.87-6.11 15.793c16.582 1.936 25.944 0 25.944 0s-38.838 15.834-8.493 30.34c31.707 15.156 215.277 67.536 326.139 38.024 102.403-27.267 104.607-36.266 141.166-34.192 36.785 2.087 18.457-14.52 5.557-19.44 0 0 46.585 3.278 33.459-16.443-25.883-38.886-45.484-50.888-45.484-50.888l-384.303-40.077z" fill="#1D2538"/><path d="M365.511 683.404c1.013-2.381 17.548-17.298 9.438-18.728-8.11-1.43-19.881 7.431-19.881 7.431s-2.526-14.541-6.516-10.285c-3.996 4.256-6.385 11.578-6.385 11.578s-2.922-15.307-7.829-10.62c-4.907 4.688-6.933 9.45-6.933 9.45s-7.678-9.258-9.964-3.893l-4.825 11.317s-6.303-14.191-11.395-14.185c-5.092.007-8.096 10.476-8.096 10.476s-3.032-13.349-8.377-12.747c-5.345.602-7.993 8.519-7.993 8.519s-11.82-.486-13.962 6.233c-2.135 6.727 10.957-.007 39.502 5.509 22.564 4.365 63.216-.055 63.216-.055zm-212.149-39.242s-17.719-13.152-13.133-13.774c4.674-.637 10.293 5.898 10.293 5.898s-.233-10.811 4.455-6.295c4.626 4.447 8.904 19.747 8.904 19.747s-5.051-20.924 1.574-13.705c6.453 7.034 8.78 15.614 8.78 15.614s19.573-26.316 28.628-15.909c8.732 10.039 2.607 16.108 2.607 16.108s6.378-15.088 12.189-5.905c5.591 8.834-20.504 24.058-64.297-1.779zm246.053 46.652s-27.17 4.749-24.644-1.662c2.518-6.412 13.304-4.024 13.304-4.024s-7.46-17.12-1.369-15.348c6.091 1.779 7.063 4.01 7.063 4.01s1.321-11.201 5.502-7.712l4.182 3.497s5.981-16.778 7.083-10.175l1.109 6.603s10.485-12.535 11.203 1.321c.719 13.856 6.905 13.822-23.433 23.49z" fill="#3E4C6F"/><path d="M429.48 661.145s8.123-13.808 8.931-9.744c.814 4.058-2.437 14.616-2.437 14.616s13.811-17.052 17.055-9.744c3.251 7.308-5.687 13.808-5.687 13.808s22.742-13.808 21.927-8.122c-.814 5.686-27.614 22.738-42.233 17.866-14.611-4.872 2.444-18.68 2.444-18.68zm71.373-15.752s-8.911-12.385-13.311-4.961c-4.401 7.425 4.024 8.342 4.024 8.342s-13.667-2.416-8.993 4.974c4.674 7.39 8.021 7.595 8.021 7.595s-13.578 2.519-6.796 7.869c6.776 5.351 37.887-9.511 47.619-10.496 9.732-.979 8.007-14.705.972-12.57l-7.042 2.135s5.461-15.054-2.519-13.576l-7.986 1.485s-9.862-13.035-13.989 9.203z" fill="#3E4C6F"/><path d="M438.418 573.115s-19.71 27.665-13.75 33.522c6.057 5.953 37.648-4.256 37.648-4.256s8.226 11.324 21.859 11.441c13.639.123 31.317-17.921 31.317-17.921s28.976 15.252 36.457 12.857c7.432-2.381 20.127-23.381 20.127-23.381s26.602 7.506 31.385 3.476c4.729-3.982-46.099-54.624-46.099-54.624l-18.601-20.09-100.343 58.976z" fill="#33A86D"/><path d="M506.712 564.37c-.021 1.499-4.771 95.66-4.771 95.66l27.197-9.587-9.437-90.534-12.989 4.461z" fill="#4B3355"/><path d="M506.643 565.595c-.021 1.499-2.751 47.926-2.751 47.926l12.223-19.686 6.679-5.953-1.807-22.56-14.344.273z" fill="#34283A"/><path d="M466.641 524.239l-25.26 39.098s-15.563 22.273-12.497 27.172c3.114 4.968 40.748-23.511 40.748-23.511s10.574 21.848 19.252 22.067c8.684.219 24.418-19.371 24.418-19.371s27.437 14.513 35.848 12.864c8.376-1.642 16.349-26.139 16.349-26.139s12.976 11.66 18.958 6.131c5.885-5.44-32.419-43.026-39.496-53.304l-6.775-9.839-71.545 24.832z" fill="#288453"/><path d="M474.354 482.909l-.116 1.752c-2.3 5.912-26.369 47.481-26.369 47.481s-.548 12.987 6.576 12.618c7.111-.37 24.72-13.453 24.72-13.453s15.357 20.576 27.245 18.126c11.806-2.429 17.383-23.162 17.383-23.162s18.519 10.257 25.158 5.686c6.549-4.502 1.451-11.968 1.451-11.968s12.797 4.523 9.458-.52c-3.292-4.967-39.037-53.536-39.037-53.536s-17.082-22.745-26.903-11.331c-10.224 11.878-21.147 28.307-21.147 28.307" fill="#33A86D"/><path d="M474.251 470.989l-.109 1.431c-2.217 4.824-27.225 48.062-27.225 48.062s4.291 6.165 8.603 5.85c4.312-.314 23.344-15.943 23.344-15.943s18.006 16.915 26.102 14.698c8.028-2.203 13.975-18.694 13.975-18.694s22.94 8.047 25.945 6.767c2.997-1.272 1.184-8.218 1.184-8.218s13.988 4.708 10.929.65c-3.011-3.996-37.983-48.472-37.983-48.472s-16.411-18.64-25.896-9.279c-9.862 9.73-20.388 23.155-20.388 23.155" fill="#288453"/><path d="M498.992 428.346s-21.722 31.038-35.465 55.022c0 0 6.317 7.971 10.697 6.227 4.36-1.738 15.823-18.653 15.823-18.653s6.803 12.72 15.617 14.479c8.87 1.765 17.917-10.011 17.917-10.011s16.809 9.449 16.001 4.523c-.787-4.852-39.139-48.802-40.59-51.587z" fill="#FFFCF3"/><path d="M517.956 598.884l-.808 15.068 1.341 18.42-.444 17.585 4.927-16.326-2.689-15.074 1.43-31.038-5.557-4.509 1.8 15.874zm-5.27 32.667l-1.444 8.3 3.613 7.582v-9.026l-.725-12.269-1.444 5.413z" fill="#34283A"/><path d="M359.81 520.359s68.588 104.247 52.341 109.933c-16.247 5.686-51.116-13.843-51.116-13.843s-9.464 20.193-27.231 22.971c-17.766 2.778-28.867-16.71-28.867-16.71s-43.588 6.768-52.526-1.081c-8.931-7.848 19.491-44.121 19.491-44.121l54.265-62.507 33.643 5.358z" fill="#33A86D"/><path d="M323.402 590.488l-3.798 98.534 19.846-1.369-5.913-98.533-10.135 1.368z" fill="#4B3355"/><path d="M322.806 586.978l-1.622 44.751 4.401-3.066 10.306-.814-1.238-42.52-11.847 1.649z" fill="#34283A"/><path d="M356.56 515.89s64.981 81.256 50.719 86.676c-14.263 5.412-49.494-12.344-49.494-12.344s-14.338 16.353-27.232 17.77c-12.893 1.416-28.867-12.926-28.867-12.926s-35.197 16.587-46.565 3.25c-11.374-13.336 51.438-89.843 51.438-89.843l50.001 7.417z" fill="#288453"/><path d="M299.277 511.511s26.835-34.918 37.367-59.469c0 0 14.865 33.673 21.011 43.718 6.145 10.044 18.218 25.214 13.865 27.479-4.353 2.265-17.842-10.236-17.842-10.236s-9.492 8.553-15.61 9.887c-6.119 1.335-11.375-3.524-11.375-3.524s-13.961 7.609-19.73 6.727c-5.769-.883-7.686-14.582-7.686-14.582z" fill="#FFFCF3"/><path d="M329.664 623.969l-2.163 17.148.903 10.469-.184 12.269 2.169-11.373-.541-10.825 3.244-18.044-3.428.356zm-4.688 9.026l-1.089 27.432 1.089 7.581-2.533-9.566.363-15.341 2.17-10.106zm6.495 31.941l2.169 11.187 1.444 9.929-.185-11.372-2.347-8.841-.356-8.478-.725 7.575z" fill="#34283A"/><path d="M148.906 524.813c-10.71 15.156-57.453 35.301-69.046 47.159-11.614 11.886-13.797 20.008-2.122 26.009 11.771 6.042 32.809-9.224 32.809-9.224s-3.258 19.269 9.499 25.721c26.862 13.583 45.244-2.217 45.244-2.217s-4.106 18.304 8.22 20.843c12.407 2.552 26.718-8.984 26.718-8.984s19.066 28.068 31.529 28.027c12.524-.041 14.385-16.285 14.385-16.285s16.761 16.661 31.735 16.62c15.07-.048 16.13-30.969 16.13-30.969s24.289 24.777 28.08 8.751c3.764-15.916-22.885-49.198-51.608-108.099-26.889-55.138-100.877-26.624-121.573 2.648z" fill="#288453"/><path d="M211.444 543.131l8.753 118.603-33.11 6.076 12.169-131.487 12.188 6.808z" fill="#665070"/><path d="M211.739 539.251l5.708 84.568-19.225-19.755-5.776 3.538 7.836-73.291 11.457 4.94z" fill="#4B3355"/><path d="M133.693 529.904s-67.966 49.698-58.33 53.817c9.698 4.147 47.044-18.578 47.044-18.578s-1.252 32.968 19.163 36.492c20.627 3.558 36.874-19.33 36.874-19.33l19.115-2.936s20.825 41.979 29.216 41.877c13.673-.165 7.973-22.259 7.973-22.259s22.741 27.527 39.098 27.336c16.459-.192 11.265-29.026 11.265-29.026s18.437 22.697 31.549 22.245c13.181-.459-21.53-56.705-49.713-108.941-25.191-46.687-82.802-19.276-133.254 19.303z" fill="#33A86D"/><path d="M181.531 462.231s-84.411 59.298-82.2 67.139c1.977 7.021 7.274 4.154 17.937 3.319 10.703-.842 23.782-8.321 23.782-8.321s2.169 10.907 11.08 12.878c5.222 1.156 23.583-8.362 23.583-8.362s2.799 10.921 16.46 14.842c9.793 2.805 30.605-12.522 30.605-12.522s3.86 25.441 16.692 25.222c12.9-.226 28.463-39.961 28.463-39.961l26.04 21.041s-28.408-76.014-43.943-108.195c-15.159-31.401-68.499 32.92-68.499 32.92z" fill="#288453"/><path d="M254.403 504.956s-5.989 36.3 5.269 42.485c11.347 6.234 8.035-14.355 8.035-14.355s16.486 19.72 20.586 14.246c4.092-5.467-4.736-16.922-4.736-16.922s14.844 14.849 7.644-2.689c-7.213-17.572-9.115-19.405-9.115-19.405l-27.683-3.36z" fill="#288453"/><path d="M175.898 463.421c-16.569 15.554-65.46 47.42-63.387 54.898 2.088 7.52 35.649-20.712 35.649-20.712s-13.667 24.633-4.77 24.442c8.897-.192 28.703-9.033 28.703-9.033s7.056 19.55 19.553 18.811c12.483-.739 34.061-18.865 34.061-18.865s10.669 20.09 22.304 18.516c11.607-1.574 18.047-24.271 18.047-24.271s28.832 36.437 24.945 19.967c-3.093-13.118-52.601-123.201-52.601-123.201s-46.147 44.094-62.504 59.448z" fill="#33A86D"/><path d="M237.882 393.593l-73.372 68.87s4.222 2.751 12.298 2.696c8.103-.061 16.589-10.811 16.589-10.811s-4.749 12.207 4.189 13.46c8.972 1.259 17.828-14.897 17.828-14.897s13.208 20.398 24.288 19.447c11.121-.958 8.404-14.397 8.404-14.397 11.327 13.11 32.467 39.407 32.125 27.973-.342-11.366-28.895-62.364-42.349-92.341z" fill="#F3E7D9"/><path d="M170.368 566.82s-3.066 21.314 8.144 25.427c6.906 2.532 12.565-8.423 20.408-18.612 3.422-4.448 1.766-13.282-3.511-12.974l-25.041 6.159z" fill="#33A86D"/><path d="M210.705 614.355l4.182 11.776.26 13.918 2.402 17.839-5.174-12.365-.349-16.408-3.757-15.526 2.436.766zm1.636 39.215l-3.23 1.335.705 7.328-3.299-6.042.144-26.043 5.68 23.422zm-9.657-52.517l4.784 4.872-4.332 36.273-2.922-12.344 2.47-28.801z" fill="#4B3355"/><path d="M345.383 567.066c60.793-90.479 71.873-88.078 71.873-88.078s105.052 131.611 93.39 138.686c-20.216 12.262-52.231-13.74-52.231-13.74s10.395 25.263-1.862 27.986c-12.339 2.737-43.321-6.493-43.321-6.493s-11.422 18.228-27.074 21.656c-15.788 3.456-32.275-41.295-32.275-41.295s-21.996 23.778-42.452 10.442c-6.296-5.884 19.026-26.953 33.952-49.164z" fill="#288453"/><path d="M409.4 566.19l-1.513 120.095 27.006-6.008-16.754-123.119-8.739 9.032z" fill="#665070"/><path d="M420.644 622.115l2.334 15.69-1.28 15.245-.096 14.486-1.67-10.976 1.294-20.035-.582-14.41zm-7.46-24.579l3.737 16.901-1.581 23.826-2.963 35.534-.548-16.436.972-22.033 1.663-21.814-1.28-15.978zm5.017 48.993l-1.335 27.268-4.736 9.737 2.601-15.054 3.47-21.951z" fill="#4B3355"/><path d="M408.448 581.887l-.007 25.852 11.429 2.483 7.44 13.727-7.72-51.094-11.142 9.032z" fill="#4B3355"/><path d="M356.894 530.965c46.524-74.475 57.392-60.742 57.392-60.742s63.435 82.96 74.227 99.56c12.654 19.453 17.897 21.677 9.623 26.446-8.377 4.831-46.011-16.846-46.011-16.846s-6.892 14.595-21.558 17.408c-14.775 2.839-25.226-10.045-25.226-10.045s-20.825 19.193-33.89 17.749c-13.017-1.437-12.353-21.397-12.353-21.397s-34.205 15.957-45.696 16.525c-11.511.575 32.152-50.505 43.492-68.658z" fill="#33A86D"/><path d="M382.921 493.878l-39.81 55.425s6.317 9.484 17.985 9.956c11.682.479 21.777-9.197 21.777-9.197s16.76 17.798 24.966 17.75c8.206-.048 17.383-16.703 17.383-16.703s18.129 13.542 25.171 12.358c7.022-1.177 9.903-17.093 9.903-17.093s12.709 5.59 14.53.486c1.8-5.043-37.052-51.107-43.527-66.271-5.783-13.562-33.931-1.033-48.378 13.289z" fill="#288453"/><path d="M387.534 483.258c-14.879 21.274-42.993 49.294-39.277 54.453 3.771 5.235 8.801-.492 17.055-.814 8.247-.321 19.436-17.175 19.436-17.175s14.612 21.828 24.323 22.006c9.718.178 16.883-22.054 16.883-22.054s18.417 20.658 24.679 18.38c6.221-2.259 5.263-16.498 5.263-16.498s7.446 8.102 11.751 6.412c4.284-1.691-37.682-54.68-37.682-54.68s-28.47-9.997-42.431 9.97z" fill="#33A86D"/><path d="M411.569 445.295l-39.516 56.13 18.848-5.563s4.818 12.597 9.191 12.597c4.38 0 20.134-10.934 20.134-10.934s7.433 11.153 12.764 10.572c5.318-.582 9.13-10.668 9.13-10.668s16.336 9.429 10.601 2.299c-31.755-39.482-41.152-54.433-41.152-54.433z" fill="#F3E7D9"/><path d="M614.124 661.877s-28.484-23.86-83.918-10.777c-55.434 13.083-97.01 39.256-165.53 33.871-68.519-5.385-140.125-17.702-187.087-35.41-46.962-17.702-93.93-14.623-113.949-8.465-20.018 6.159-.746 4.359 18.212 7.603 18.957 3.243 47.235 15.491 58.014 20.876 0 0-32.652-7.397-32.337-3.845.315 3.544 102.917 54.015 164.764 56.602 77.594 3.25 145.094-9.334 220.546-36.273 57.878-20.678 105.887-28.034 121.285-24.182z" fill="#856792"/></svg>